<?xml version="1.0" encoding="UTF-8"?>
<svg id="_レイヤー_2" data-name="レイヤー 2" xmlns="http://www.w3.org/2000/svg" viewBox="0 0 25.23 23.91">
  <defs>
    <style>
      .cls-1 {
        fill: #d16b18;
        stroke-width: 0px;
      }
    </style>
  </defs>
  <g id="_レイヤー_1-2" data-name="レイヤー 1">
    <g>
      <path class="cls-1" d="m9.43,5.34c1.43-.49,2.2-2.05,1.71-3.48-.49-1.43-2.05-2.2-3.48-1.71-1.43.49-2.2,2.05-1.71,3.48.49,1.43,2.05,2.2,3.48,1.71Z"/>
      <path class="cls-1" d="m5.05,9.61h0c.82-1.27.46-2.97-.81-3.79-1.27-.82-2.97-.46-3.79.81H.44c-.82,1.27-.46,2.97.81,3.79,1.27.82,2.97.46,3.79-.81Z"/>
      <path class="cls-1" d="m15.8,5.34c1.43.49,2.99-.27,3.48-1.71.49-1.43-.27-2.99-1.71-3.48-1.43-.49-2.99.27-3.48,1.71-.49,1.43.27,2.99,1.71,3.48Z"/>
      <path class="cls-1" d="m12.62,10.86c-4.34,0-9.12,6-7.73,10.27,1.34,4.12,5.51,2.42,7.73,2.42s6.4,1.7,7.73-2.42c1.38-4.27-3.4-10.27-7.73-10.27Z"/>
      <path class="cls-1" d="m24.79,6.63h0c-.82-1.27-2.52-1.64-3.79-.81-1.27.82-1.64,2.52-.81,3.79h0c.82,1.27,2.52,1.64,3.79.81,1.27-.82,1.64-2.52.81-3.79Z"/>
    </g>
  </g>
</svg>