<?xml version="1.0" encoding="UTF-8"?>
<svg id="_レイヤー_2" data-name="レイヤー 2" xmlns="http://www.w3.org/2000/svg" viewBox="0 0 99.8 38.3">
  <defs>
    <style>
      .cls-1 {
        fill: #732d11;
      }

      .cls-1, .cls-2 {
        stroke-width: 0px;
      }

      .cls-2 {
        fill: #1f8eda;
      }
    </style>
  </defs>
  <g id="_レイヤー_1-2" data-name="レイヤー 1">
    <g>
      <g>
        <path class="cls-1" d="m15.12,23.52c-.31.06-.59,0-.86-.15-.27-.16-.43-.38-.49-.68-.07-.29-.03-.57.13-.84.16-.26.41-.42.71-.48,1.57-.35,2.71-.84,3.44-1.49.72-.65.99-1.47.79-2.46-.19-.93-.76-1.55-1.72-1.87-.96-.31-2.22-.3-3.76.07-.67.16-1.31.35-1.91.56-.6.21-1.16.45-1.68.7.28,1.05.56,2.1.84,3.15.39,1.47.34,2.64-.12,3.53-.47.88-1.34,1.51-2.65,1.89-1.05.31-2,.31-2.85,0-.85-.32-1.46-1.02-1.82-2.11-.4-1.23-.25-2.49.46-3.78.72-1.28,1.87-2.45,3.47-3.46-.39-1.36-.77-2.72-1.16-4.09-.79.29-1.56.57-2.32.84-.76.27-1.44.51-2.05.72-.32.12-.63.11-.93-.02-.31-.13-.5-.34-.6-.63-.09-.29-.06-.57.11-.84.17-.27.41-.47.74-.59.65-.22,1.37-.47,2.13-.73.77-.26,1.55-.54,2.33-.83-.31-1.09-.62-2.19-.93-3.28-.09-.31-.04-.6.15-.86.18-.27.45-.45.79-.54.34-.09.65-.07.94.07.29.14.47.36.55.67.28,1.04.55,2.07.83,3.11.5-.18.97-.35,1.42-.52.45-.17.88-.32,1.29-.48.33-.11.64-.13.94-.04.3.08.51.28.64.57.12.28.11.56-.04.82-.15.27-.38.46-.7.59-.42.17-.88.35-1.38.53-.51.19-1.04.38-1.62.58.34,1.26.67,2.52,1.01,3.78.56-.27,1.15-.5,1.76-.71.61-.2,1.26-.39,1.94-.55,2.27-.55,4.15-.49,5.61.12,1.45.61,2.3,1.68,2.6,3.17.32,1.65-.08,3.04-1.14,4.18-1.07,1.14-2.69,1.92-4.89,2.38Zm-7.87-.09c.59-.17.99-.46,1.21-.85.21-.39.2-1.04-.05-1.93-.24-.83-.47-1.66-.71-2.49-.96.72-1.64,1.47-2.05,2.25-.41.78-.51,1.5-.3,2.17.12.4.35.68.68.83.32.16.74.16,1.23.02Zm11.43-12.54c-.35-.14-.79-.29-1.32-.45-.53-.16-1.05-.31-1.56-.46-.51-.15-.95-.26-1.31-.32-.31-.08-.57-.24-.77-.48-.2-.24-.27-.51-.19-.81.09-.32.29-.56.6-.71.31-.16.61-.2.92-.14.43.09.93.21,1.53.37.59.16,1.18.34,1.76.52.59.19,1.06.36,1.43.52.29.12.49.33.57.61.09.28.07.56-.08.83-.14.27-.37.46-.67.56-.31.1-.6.09-.92-.03Z"/>
        <path class="cls-1" d="m37.87,19.88c-1.79.15-3.26-.15-4.41-.92-1.16-.77-1.87-2.13-2.11-4.1-.52-4.26-1.04-8.51-1.56-12.77-.04-.3.06-.57.28-.81.22-.23.5-.37.83-.41.35-.04.65.03.92.21.27.18.42.42.45.72.46,4.26.91,8.53,1.37,12.79.14,1.32.56,2.2,1.24,2.63.68.44,1.62.6,2.82.5,1.17-.1,2.19-.46,3.1-1.11.91-.65,1.62-1.56,2.13-2.76.13-.28.34-.47.65-.58.31-.11.61-.11.9.01.29.12.5.32.61.62.12.29.12.58-.01.85-.7,1.59-1.68,2.81-2.96,3.66-1.27.85-2.68,1.34-4.24,1.47Z"/>
        <path class="cls-1" d="m59.46,19.36c-.31-.02-.56-.14-.77-.36-.21-.22-.3-.48-.29-.79,0-.3.11-.55.34-.75.23-.2.49-.29.81-.29,2.36.12,4.17-.06,5.48-.59,1.3-.53,2.05-1.51,2.21-2.95.11-.94-.15-1.68-.78-2.23-.63-.55-1.44-.87-2.44-.96-1.1-.1-2.28.05-3.51.46-1.23.41-2.45,1.14-3.63,2.19-.17.15-.39.25-.63.29-.25.04-.48,0-.69-.12-.22-.1-.38-.26-.48-.47-.1-.21-.14-.42-.09-.63.18-.91.41-1.95.69-3.12.27-1.18.59-2.39.94-3.64.1-.28.3-.5.59-.65.29-.15.6-.17.91-.08.32.08.56.26.72.53.16.27.19.55.09.83-.15.43-.34,1-.58,1.74-.24.73-.47,1.53-.71,2.4,1.14-.73,2.28-1.24,3.41-1.52,1.13-.28,2.2-.38,3.19-.29,1.17.1,2.17.42,3.01.94.84.52,1.46,1.18,1.85,1.98.4.8.53,1.68.41,2.63-.15,1.22-.62,2.26-1.37,3.12-.76.86-1.84,1.48-3.27,1.89-1.42.4-3.21.54-5.41.45Zm5.38-14.51c-.58-.32-1.23-.67-1.96-1.02-.73-.35-1.45-.69-2.15-1.02-.71-.32-1.29-.59-1.77-.79-.3-.13-.5-.34-.59-.63-.1-.29-.06-.57.1-.84.16-.26.4-.44.73-.52.33-.08.64-.04.95.1.54.22,1.17.5,1.88.83.72.33,1.43.67,2.13,1.02.7.35,1.31.66,1.83.94.3.16.49.38.59.66.1.28.07.55-.08.81-.15.26-.39.43-.71.52-.32.09-.63.06-.92-.07Z"/>
        <path class="cls-1" d="m92.04,24.35c-1.69-.31-3.12-.64-4.28-1-1.17-.36-2.11-.77-2.87-1.25-.75-.48-1.36-1.04-1.85-1.68-1.06-1.47-1.37-3.4-.86-5.81.18-.84.36-1.69.53-2.54-.91-.08-1.79-.14-2.64-.2-.85-.06-1.65-.09-2.38-.09-.32,0-.6-.1-.83-.32-.24-.22-.35-.48-.36-.79,0-.29.1-.55.33-.76.22-.21.5-.32.84-.31.76.02,1.61.07,2.54.14.93.07,1.91.16,2.94.26.29-1.39.59-2.79.88-4.18.06-.3.23-.53.51-.69.28-.16.58-.21.92-.13.34.07.6.25.79.51.18.26.24.54.18.84-.3,1.32-.6,2.64-.89,3.96,1.04.15,2.08.31,3.14.48,1.06.17,2.11.36,3.16.58.28-.7.54-1.38.77-2.04.23-.66.43-1.26.6-1.79.09-.29.29-.5.58-.63.29-.13.59-.15.92-.06.33.11.58.3.76.57.17.27.21.55.1.84-.17.52-.36,1.09-.58,1.72-.22.63-.46,1.27-.74,1.92.83.2,1.64.41,2.43.61.79.2,1.53.42,2.23.64.33.09.58.27.74.55.16.28.2.57.1.85-.1.29-.28.5-.58.62-.28.12-.59.14-.89.04-1.49-.51-3.1-.97-4.84-1.38-.34.77-.7,1.51-1.05,2.22-.35.71-.71,1.36-1.06,1.92-.14.26-.37.42-.67.5-.3.07-.59.04-.9-.11-.28-.14-.47-.36-.56-.64-.09-.29-.07-.56.07-.82.3-.52.59-1.09.89-1.7.3-.62.59-1.25.87-1.91-.98-.2-1.99-.38-2.99-.54-1-.16-2-.31-2.98-.43-.21.92-.42,1.84-.62,2.76-.41,1.79-.25,3.15.45,4.07.37.5.84.92,1.45,1.26.6.35,1.39.65,2.37.92.98.27,2.21.53,3.7.82.33.06.59.22.78.47.19.25.25.53.17.84-.06.3-.21.54-.47.71-.26.17-.54.23-.85.17Z"/>
      </g>
      <g>
        <path class="cls-2" d="m33.13,38.12c-.48,0-.73-.26-.73-.78v-6.22c0-.51.22-.76.66-.76s.68.13.69.39l.03.61c.23-.32.53-.6.91-.84.38-.24.82-.35,1.32-.35.82,0,1.48.26,1.99.78.51.52.77,1.28.77,2.27v4.12c0,.52-.24.78-.73.78s-.71-.26-.71-.78v-3.81c0-.68-.15-1.19-.45-1.53-.3-.34-.69-.51-1.18-.51-.55,0-1,.18-1.34.54-.34.36-.52.84-.52,1.45v3.86c0,.52-.24.78-.73.78Z"/>
        <path class="cls-2" d="m44.26,38.3c-.73,0-1.38-.16-1.94-.47-.56-.31-1-.77-1.31-1.38-.31-.61-.47-1.34-.47-2.21s.16-1.55.47-2.16c.31-.61.74-1.08,1.28-1.41.54-.33,1.17-.5,1.88-.5s1.32.17,1.82.51c.5.34.88.77,1.15,1.3.26.53.4,1.07.4,1.63,0,.31-.06.52-.19.62-.13.1-.32.15-.57.15h-4.81c.02.86.24,1.52.65,1.96.41.45.97.67,1.66.67.82,0,1.44-.33,1.86-.99.17-.18.33-.3.48-.36.15-.06.31-.03.48.09.18.12.29.27.32.45.03.18-.05.38-.22.6-.36.51-.78.88-1.27,1.12-.49.24-1.05.36-1.67.36Zm-2.21-5.07h4.07c-.09-.56-.3-1.01-.65-1.36-.34-.34-.78-.52-1.31-.52-.56,0-1.02.16-1.39.48-.37.32-.61.78-.73,1.4Z"/>
        <path class="cls-2" d="m51.64,38.12c-.41,0-.68-.22-.81-.65l-1.89-6.25c-.08-.26-.07-.47,0-.62.08-.16.23-.23.44-.23h.02c.44,0,.73.22.86.66l1.41,4.96,1.42-4.96c.11-.44.36-.66.76-.66s.65.22.76.66l1.41,4.96,1.42-4.96c.11-.44.39-.66.86-.66.22,0,.37.08.45.23.09.16.09.36.02.62l-1.91,6.25c-.13.43-.4.65-.81.65s-.67-.22-.78-.66l-1.42-4.99-1.42,4.99c-.13.44-.39.66-.79.66Z"/>
        <path class="cls-2" d="m63.19,38.28c-1.1,0-2-.31-2.71-.92-.2-.15-.31-.32-.32-.5,0-.18.07-.35.22-.5.15-.15.31-.22.47-.21.16.01.34.09.55.23.48.42,1.1.63,1.86.63.47,0,.85-.09,1.13-.26.28-.17.42-.46.42-.86,0-.32-.15-.56-.44-.72-.29-.16-.81-.3-1.55-.44-.48-.1-.92-.23-1.3-.39-.38-.16-.69-.4-.91-.7-.23-.31-.34-.71-.34-1.2s.13-.88.39-1.22c.26-.34.6-.6,1.03-.78.43-.18.9-.27,1.41-.27.94,0,1.69.25,2.26.74.22.13.34.28.36.46.03.18-.03.34-.17.49-.14.17-.29.25-.45.24-.16-.01-.35-.07-.57-.18-.36-.31-.83-.47-1.42-.47-.46,0-.81.09-1.03.28-.23.19-.34.41-.34.67,0,.3.13.52.39.66.26.14.73.29,1.41.44.54.12,1.01.27,1.43.47.41.19.74.45.97.76.23.31.35.72.35,1.21,0,.74-.28,1.32-.85,1.73-.57.41-1.31.61-2.24.61Z"/>
      </g>
    </g>
  </g>
</svg>