<?xml version="1.0" encoding="UTF-8"?>
<svg id="_レイヤー_2" data-name="レイヤー 2" xmlns="http://www.w3.org/2000/svg" viewBox="0 0 408.54 396.54">
  <defs>
    <style>
      .cls-1 {
        fill: #f90089;
        stroke-width: 0px;
      }
    </style>
  </defs>
  <g id="_レイヤー_2-2" data-name="レイヤー 2">
    <path class="cls-1" d="m277.34,45.42h0c11.87,24.05,34.81,40.72,61.35,44.57h0c66.83,9.71,93.52,91.84,45.16,138.98h0c-19.2,18.72-27.97,45.69-23.43,72.12h0c11.42,66.56-58.45,117.32-118.23,85.9h0c-23.74-12.48-52.1-12.48-75.83,0h0c-59.78,31.43-129.64-19.33-118.23-85.9h0c4.53-26.43-4.23-53.4-23.43-72.12h0C-23.67,181.84,3.02,99.71,69.85,89.99h0c26.54-3.86,49.48-20.53,61.35-44.57h0c29.89-60.56,116.25-60.56,146.13,0Z"/>
  </g>
</svg>