<?xml version="1.0" encoding="UTF-8"?>
<svg id="_レイヤー_2" data-name="レイヤー 2" xmlns="http://www.w3.org/2000/svg" viewBox="0 0 512 293.68">
  <defs>
    <style>
      .cls-1 {
        fill: #e7a651;
        stroke-width: 0px;
      }
    </style>
  </defs>
  <g id="_2" data-name="2">
    <g>
      <path class="cls-1" d="m510.49,245.76l-37.84-131.71c-3.73-12.97-11.15-24.11-21.04-32.07-4.95-3.99-10.52-7.17-16.54-9.36-6.01-2.19-12.48-3.37-19.1-3.37h-8.25c-7.02-9.28-24.78-31.89-36.31-38.92-14.64-8.92-63.21-6.21-78.97-16.61C276.66,3.31,252.96,1.72,231.5.15c-27.24-2.01-50.9,17.45-63.33,18.86-12.43,1.41-36.19,10.14-47.57,27.79-7.73,6.67-14.82,17.55-17.82,22.45h-6.75c-6.63,0-13.09,1.18-19.11,3.37-9.03,3.29-17.04,8.81-23.48,15.9-6.43,7.1-11.31,15.8-14.1,25.53L1.51,245.75c-1.02,3.55-1.51,7.17-1.51,10.77,0,7.51,2.13,14.96,6.44,21.4h0c3.18,4.77,7.41,8.71,12.37,11.46,4.94,2.75,10.63,4.3,16.5,4.3h441.4c5.87,0,11.56-1.55,16.5-4.3,4.95-2.75,9.18-6.7,12.37-11.46h0c4.3-6.46,6.43-13.9,6.44-21.41,0-3.6-.5-7.21-1.51-10.76Zm-31.67,14.28c-.43.64-.88,1.01-1.25,1.21-.37.2-.62.25-.87.25H35.3c-.25,0-.5-.05-.87-.25-.36-.2-.81-.56-1.24-1.21-.59-.87-1.01-2.17-1.01-3.52,0-.64.09-1.28.27-1.89l37.84-131.71c1.95-6.76,5.7-12.2,10.28-15.88,2.29-1.84,4.78-3.24,7.37-4.19s5.29-1.43,8.1-1.43h319.92c2.8,0,5.5.49,8.1,1.43,3.89,1.41,7.55,3.87,10.64,7.27,3.08,3.4,5.56,7.72,7.01,12.79l37.84,131.71c.17.6.26,1.25.26,1.89.01,1.35-.41,2.65-1,3.52h0Z"/>
      <path class="cls-1" d="m359.8,161.16c0-12.81-10.39-23.19-23.19-23.19s-22.22,9.47-23.1,21.48c-8.04,6.96-11.95,4.62-27.62,4.62s-82.7,2.9-90.05-5.27c-1.19-11.69-11.07-20.82-23.07-20.82-12.82,0-23.19,10.38-23.19,23.19,0,8.74,4.83,16.34,11.96,20.29-7.14,3.96-11.96,11.55-11.96,20.29,0,12.81,10.38,23.19,23.19,23.19s23.19-10.38,23.19-23.19c0-.6-.05-1.2-.09-1.79,2.79-2.87,6.37-5.45,10.24-5.45h97.19c3.87,0,7.45,2.58,10.24,5.45-.05.59-.09,1.18-.09,1.79,0,12.81,10.38,23.19,23.19,23.19s23.19-10.38,23.19-23.19c0-8.73-4.83-16.33-11.97-20.29,7.14-3.95,11.97-11.55,11.97-20.29Z"/>
    </g>
  </g>
</svg>