<?xml version="1.0" encoding="UTF-8"?>
<svg id="_レイヤー_2" data-name="レイヤー 2" xmlns="http://www.w3.org/2000/svg" viewBox="0 0 126.95 126.95">
  <defs>
    <style>
      .cls-1 {
        fill: #d6d6d6;
      }

      .cls-1, .cls-2 {
        stroke: #fff;
        stroke-miterlimit: 10;
      }

      .cls-2 {
        fill: #ffa403;
      }
    </style>
  </defs>
  <g id="_レイヤー_1-2" data-name="レイヤー 1">
    <g>
      <rect class="cls-1" x=".5" y=".5" width="125.95" height="125.95" rx="24.75" ry="24.75"/>
      <path class="cls-2" d="m72.79,26.53l5.67,11.49c1.51,3.07,4.44,5.19,7.82,5.68l12.68,1.84c8.52,1.24,11.92,11.71,5.76,17.72l-9.18,8.95c-2.45,2.39-3.57,5.82-2.99,9.19l2.17,12.63c1.46,8.48-7.45,14.96-15.07,10.95l-11.34-5.96c-3.03-1.59-6.64-1.59-9.67,0l-11.34,5.96c-7.62,4.01-16.53-2.46-15.07-10.95l2.17-12.63c.58-3.37-.54-6.81-2.99-9.19l-9.18-8.95c-6.16-6.01-2.76-16.48,5.76-17.72l12.68-1.84c3.38-.49,6.31-2.62,7.82-5.68l5.67-11.49c3.81-7.72,14.82-7.72,18.63,0Z"/>
    </g>
  </g>
</svg>