<?xml version="1.0" encoding="UTF-8"?>
<svg id="_レイヤー_2" data-name="レイヤー 2" xmlns="http://www.w3.org/2000/svg" viewBox="0 0 353.4 460.25">
  <defs>
    <style>
      .cls-1 {
        fill: #ec6630;
      }

      .cls-1, .cls-2, .cls-3, .cls-4 {
        stroke-width: 0px;
      }

      .cls-2 {
        fill: #e9e9e0;
      }

      .cls-3 {
        fill: #fff;
      }

      .cls-4 {
        fill: #d9d7ca;
      }
    </style>
  </defs>
  <g id="_レイヤー_1-2" data-name="レイヤー 1">
    <g>
      <path class="cls-2" d="m250.55,0H12.02C5.38,0,0,5.38,0,15.83v436.2c0,2.84,5.38,8.22,12.02,8.22h329.36c6.64,0,12.02-5.38,12.02-8.22V106.66c0-5.72-.76-7.56-2.11-8.92L255.66,2.11c-1.36-1.35-3.2-2.11-5.11-2.11Z"/>
      <polygon class="cls-4" points="254.78 1.24 254.78 98.62 352.16 98.62 254.78 1.24"/>
      <path class="cls-1" d="m341.38,460.25H12.02c-6.64,0-12.02-5.38-12.02-12.02v-127.69h353.4v127.69c0,6.64-5.38,12.02-12.02,12.02Z"/>
      <g>
        <path class="cls-3" d="m90.04,352.78v82.81h-13.49v-37.3h-35.84v37.3h-13.71v-82.81h13.71v36.29h35.84v-36.29h13.49Z"/>
        <path class="cls-3" d="m169.36,352.78v9.21h-24.71v73.6h-13.59v-73.6h-24.72v-9.21h63.03Z"/>
        <path class="cls-3" d="m248.25,352.78h13.71v82.81h-13.71v-56.97l-18.54,46.07h-11.91l-18.66-46.07v56.97h-13.71v-82.81h13.71l24.61,56.64,24.5-56.64Z"/>
        <path class="cls-3" d="m296.45,352.78v72.59h38.09v10.22h-51.8v-82.81h13.71Z"/>
      </g>
      <g>
        <path class="cls-1" d="m137.31,133.91c-3.21-3.21-8.41-3.21-11.62,0l-49.31,49.31c-3.21,3.21-3.21,8.41,0,11.62l49.31,49.31c1.6,1.6,3.71,2.41,5.81,2.41s4.21-.81,5.81-2.41c3.21-3.21,3.21-8.41,0-11.62l-43.5-43.5,43.5-43.5c3.21-3.21,3.21-8.41,0-11.62Z"/>
        <path class="cls-1" d="m285.25,183.22l-49.31-49.31c-3.21-3.21-8.41-3.21-11.62,0-3.21,3.21-3.21,8.41,0,11.62l43.5,43.5-43.5,43.5c-3.21,3.21-3.21,8.41,0,11.62,1.6,1.6,3.71,2.41,5.81,2.41s4.21-.81,5.81-2.41l49.31-49.31c3.21-3.21,3.21-8.41,0-11.62Z"/>
      </g>
    </g>
  </g>
</svg>