<?xml version="1.0" encoding="UTF-8"?>
<svg id="_レイヤー_2" data-name="レイヤー 2" xmlns="http://www.w3.org/2000/svg" viewBox="0 0 438.66 435.99">
  <defs>
    <style>
      .cls-1 {
        fill: #252653;
      }

      .cls-1, .cls-2, .cls-3 {
        stroke-width: 0px;
      }

      .cls-2, .cls-3 {
        fill: #99c4cd;
      }

      .cls-3 {
        fill-rule: evenodd;
      }
    </style>
  </defs>
  <g id="_レイヤー_1-2" data-name="レイヤー 1">
    <g id="Layer_1">
      <rect class="cls-2" x="0" width="438.66" height="435.99" rx="60.46" ry="60.46"/>
      <rect class="cls-1" x="36.77" y="36.54" width="365.13" height="362.92" rx="60.46" ry="60.46"/>
      <path class="cls-3" d="m246.9,205.62l.09,114.72,39.91.2.14-98.65-.14-4.37c14.46-12.64,23.84-16.81,43.65-16.33,1.62.03,2.1.03,2.1-1.96v-29c.14-5.13-.99-6.52-6.86-6.32-15.73.51-20.3,1.79-31.21,11.03-2.35,1.98-9.21,10.23-9.21,10.23,0-10.01-2.27-16.81-5.05-18.82-1.9-1.39-2.38-1.3-5.16-1.3h-5.3l-22.11-.31c-2.44.43-2.61.99-2.52,3.77.28,12.53,1.67,21.37,1.67,37.11ZM105.99,119.59v.65c.09,25.68.54,168.49.62,195.56v1.11c-.03,3.94,2.92,3.23,4.17,3.2l104.37-.28c4.2-.09,5.19-1.39,5.75-3.97l5.36-26.96c.4-1.9.4-4.25-3.26-4.08h-76.22V119.28c-.09-1.67.26-3.94-3.43-3.83l-33.96.79h-.77c-3.15.17-2.55,1.5-2.64,3.34Z"/>
    </g>
  </g>
</svg>