<?xml version="1.0" encoding="UTF-8"?>
<svg id="_レイヤー_2" data-name="レイヤー 2" xmlns="http://www.w3.org/2000/svg" viewBox="0 0 438.69 435.99">
  <defs>
    <style>
      .cls-1 {
        fill-rule: evenodd;
      }

      .cls-1, .cls-2, .cls-3 {
        stroke-width: 0px;
      }

      .cls-1, .cls-3 {
        fill: #87bcf6;
      }

      .cls-2 {
        fill: #252653;
      }
    </style>
  </defs>
  <g id="_レイヤー_1-2" data-name="レイヤー 1">
    <g id="Layer_1">
      <rect class="cls-3" width="438.69" height="435.99" rx="60.46" ry="60.46"/>
      <rect class="cls-2" x="36.77" y="36.54" width="365.16" height="362.92" rx="60.46" ry="60.46"/>
      <path class="cls-1" d="m325.25,171.41c-32.48-16.38-88.41-8.45-88.41,34.3,0,31.83,22.03,44.36,48.95,54.88,38.27,14.94,1.08,43.17-45.64,13.97,0,0-1.67-.82-2.49,0s-.82,1.64-.82,2.49v30.67c16.33,8.36,28.52,12.61,47.37,12.42,60.8-.62,69.56-58.85,37.22-81.24-5.87-4.08-21.57-12.22-26.53-14.12-25.71-9.81-23.53-23.75-15.36-30.78,9.01-7.8,34.02,4,44.53,10.57,6.38,3.94,7.43-.96,7.4-5.27l-.09-20.38c0-4.85-1.67-5.24-6.12-7.51Z"/>
      <path class="cls-1" d="m137.48,222.32v-74.66c0-.37,1.3-1.64,1.64-1.64,31.63-1.62,49.63,4.56,51.25,38.35,1.84,38.78-30.67,39.6-52.89,39.6v-1.64Zm-38.15-103.69v200.72h38.15v-64.69c46.88,3.34,89.18-13.46,89.18-67.66,0-21.85-6.8-43.85-22.93-57.15-22.54-18.6-75.2-14.46-104.4-11.23Z"/>
    </g>
  </g>
</svg>