<?xml version="1.0" encoding="UTF-8"?>
<svg id="_レイヤー_2" data-name="レイヤー 2" xmlns="http://www.w3.org/2000/svg" viewBox="0 0 438.66 435.99">
  <defs>
    <style>
      .cls-1 {
        fill: #a259ff;
      }

      .cls-1, .cls-2, .cls-3, .cls-4, .cls-5, .cls-6 {
        stroke-width: 0px;
      }

      .cls-2 {
        fill: #333;
      }

      .cls-3 {
        fill: #1abcfe;
      }

      .cls-4 {
        fill: #0acf83;
      }

      .cls-5 {
        fill: #f24e1e;
      }

      .cls-6 {
        fill: #ff7262;
      }
    </style>
  </defs>
  <g id="_レイヤー_1-2" data-name="レイヤー 1">
    <g>
      <rect class="cls-2" width="438.66" height="435.99" rx="60.46" ry="60.46"/>
      <g>
        <path class="cls-4" d="m173.25,356.23c25.45,0,46.08-20.63,46.08-46.08v-46.08h-46.08c-25.45,0-46.08,20.63-46.08,46.08s20.63,46.08,46.08,46.08Z"/>
        <path class="cls-1" d="m127.17,218c0-25.45,20.63-46.08,46.08-46.08h46.08v92.16h-46.08c-25.45,0-46.08-20.63-46.08-46.08Z"/>
        <path class="cls-5" d="m127.17,125.84c0-25.45,20.63-46.08,46.08-46.08h46.08v92.16h-46.08c-25.45,0-46.08-20.63-46.08-46.08Z"/>
        <path class="cls-6" d="m219.33,79.76h46.08c25.45,0,46.08,20.63,46.08,46.08s-20.63,46.08-46.08,46.08h-46.08v-92.16Z"/>
        <path class="cls-3" d="m311.49,218c0,25.45-20.63,46.08-46.08,46.08s-46.08-20.63-46.08-46.08,20.63-46.08,46.08-46.08,46.08,20.63,46.08,46.08Z"/>
      </g>
    </g>
  </g>
</svg>