<?xml version="1.0" encoding="UTF-8"?>
<svg id="_レイヤー_2" data-name="レイヤー 2" xmlns="http://www.w3.org/2000/svg" viewBox="0 0 353.4 460.25">
  <defs>
    <style>
      .cls-1 {
        fill: #0096e6;
      }

      .cls-1, .cls-2, .cls-3, .cls-4 {
        stroke-width: 0px;
      }

      .cls-2 {
        fill: #e9e9e0;
      }

      .cls-3 {
        fill: #fff;
      }

      .cls-4 {
        fill: #d9d7ca;
      }
    </style>
  </defs>
  <g id="_レイヤー_1-2" data-name="レイヤー 1">
    <g>
      <path class="cls-2" d="m250.55,0H12.02C5.38,0,0,5.38,0,15.83v436.2c0,2.84,5.38,8.22,12.02,8.22h329.36c6.64,0,12.02-5.38,12.02-8.22V106.66c0-5.72-.76-7.56-2.11-8.92L255.66,2.11c-1.36-1.35-3.2-2.11-5.11-2.11Z"/>
      <polygon class="cls-4" points="254.78 1.24 254.78 98.62 352.16 98.62 254.78 1.24"/>
      <path class="cls-1" d="m341.38,460.25H12.02c-6.64,0-12.02-5.38-12.02-12.02v-127.69h353.4v127.69c0,6.64-5.38,12.02-12.02,12.02Z"/>
      <g>
        <path class="cls-3" d="m140.38,427.17c-3.07,2.99-6.56,5.24-10.45,6.74-3.89,1.5-8.09,2.24-12.58,2.24-4.95,0-9.49-.9-13.65-2.7-4.16-1.8-7.79-4.45-10.9-7.98s-5.55-7.94-7.31-13.26c-1.76-5.32-2.64-11.47-2.64-18.43s.88-13.09,2.64-18.37c1.76-5.28,4.2-9.68,7.31-13.2s6.76-6.2,10.96-8.04c4.2-1.84,8.73-2.75,13.59-2.75,4.5,0,8.7.75,12.58,2.24s7.37,3.75,10.45,6.74l-9.33,8.32c-1.87-2.18-3.94-3.75-6.24-4.72-2.29-.97-4.66-1.46-7.13-1.46-2.77,0-5.41.52-7.92,1.57-2.51,1.05-4.76,2.83-6.74,5.33s-3.54,5.74-4.66,9.72c-1.12,3.98-1.73,8.84-1.8,14.6.07,5.62.66,10.41,1.74,14.38,1.08,3.97,2.58,7.21,4.5,9.72s4.08,4.34,6.52,5.51c2.43,1.17,5,1.74,7.7,1.74s5.23-.49,7.59-1.46c2.36-.97,4.51-2.55,6.46-4.72l9.32,8.21Z"/>
        <path class="cls-3" d="m206.56,412.89c0,2.99-.62,5.9-1.86,8.71-1.24,2.81-2.98,5.28-5.23,7.41-2.25,2.13-5.01,3.84-8.32,5.11s-7.04,1.91-11.23,1.91c-1.8,0-3.65-.1-5.56-.28s-3.84-.51-5.79-.95-3.81-1.07-5.56-1.86c-1.76-.79-3.27-1.74-4.55-2.87l2.36-9.67c1.05.6,2.38,1.18,3.99,1.74s3.27,1.08,5,1.57c1.73.48,3.44.88,5.17,1.18s3.33.45,4.83.45c4.57,0,8.07-1.07,10.5-3.21,2.43-2.14,3.65-5.3,3.65-9.49,0-2.55-.85-4.72-2.58-6.52s-3.88-3.43-6.46-4.89c-2.58-1.46-5.38-2.92-8.37-4.38-3-1.46-5.8-3.19-8.42-5.17-2.62-1.98-4.79-4.32-6.52-7.02s-2.58-6.07-2.58-10.11c0-3.67.67-6.93,2.02-9.77s3.16-5.27,5.45-7.25c2.28-1.98,4.95-3.5,7.98-4.55s6.24-1.57,9.61-1.57,6.93.32,10.45.95,6.36,1.67,8.54,3.09c-.45.97-.97,2.04-1.57,3.21s-1.17,2.24-1.68,3.25-.97,1.86-1.35,2.53-.6,1.05-.67,1.13c-.45-.22-.95-.52-1.52-.9s-1.36-.75-2.42-1.13-2.43-.63-4.16-.79-3.94-.12-6.63.12c-1.5.16-2.92.58-4.27,1.29s-2.55,1.59-3.6,2.64-1.87,2.23-2.47,3.54-.9,2.57-.9,3.76c0,2.99.85,5.41,2.58,7.25,1.73,1.84,3.86,3.44,6.4,4.83,2.54,1.39,5.32,2.74,8.32,4.04s5.79,2.91,8.37,4.78c2.59,1.87,4.73,4.22,6.46,7.02,1.73,2.8,2.61,6.42,2.61,10.84Z"/>
        <path class="cls-3" d="m267.46,412.89c0,2.99-.62,5.9-1.86,8.71-1.24,2.81-2.98,5.28-5.23,7.41-2.25,2.13-5.01,3.84-8.32,5.11s-7.04,1.91-11.23,1.91c-1.8,0-3.65-.1-5.56-.28s-3.84-.51-5.79-.95-3.81-1.07-5.56-1.86c-1.76-.79-3.27-1.74-4.55-2.87l2.36-9.67c1.05.6,2.38,1.18,3.99,1.74s3.27,1.08,5,1.57c1.73.48,3.44.88,5.17,1.18s3.33.45,4.83.45c4.57,0,8.07-1.07,10.5-3.21,2.43-2.14,3.65-5.3,3.65-9.49,0-2.55-.85-4.72-2.58-6.52-1.73-1.8-3.88-3.43-6.46-4.89-2.58-1.46-5.38-2.92-8.37-4.38-3-1.46-5.8-3.19-8.42-5.17-2.62-1.98-4.79-4.32-6.52-7.02s-2.58-6.07-2.58-10.11c0-3.67.67-6.93,2.02-9.77s3.16-5.27,5.45-7.25c2.28-1.98,4.95-3.5,7.98-4.55s6.24-1.57,9.61-1.57,6.93.32,10.45.95,6.36,1.67,8.54,3.09c-.45.97-.97,2.04-1.57,3.21s-1.17,2.24-1.68,3.25-.97,1.86-1.35,2.53-.6,1.05-.67,1.13c-.45-.22-.95-.52-1.52-.9s-1.36-.75-2.42-1.13-2.43-.63-4.16-.79-3.94-.12-6.63.12c-1.5.16-2.92.58-4.27,1.29s-2.55,1.59-3.6,2.64-1.87,2.23-2.47,3.54-.9,2.57-.9,3.76c0,2.99.85,5.41,2.58,7.25,1.73,1.84,3.86,3.44,6.4,4.83,2.54,1.39,5.32,2.74,8.32,4.04s5.79,2.91,8.37,4.78c2.59,1.87,4.73,4.22,6.46,7.02,1.73,2.8,2.61,6.42,2.61,10.84Z"/>
      </g>
      <g>
        <path class="cls-1" d="m106.84,156.16v-32.87c0-4.53,3.68-8.22,8.22-8.22s8.22-3.68,8.22-8.22-3.67-8.22-8.22-8.22c-13.59,0-24.66,11.06-24.66,24.66v32.87c0,9.07-7.37,16.44-16.44,16.44-4.54,0-8.22,3.68-8.22,8.22s3.67,8.22,8.22,8.22c9.07,0,16.44,7.37,16.44,16.44v32.87c0,13.59,11.06,24.66,24.66,24.66,4.54,0,8.22-3.68,8.22-8.22s-3.67-8.22-8.22-8.22-8.22-3.69-8.22-8.22v-32.87c0-9.86-4.45-18.62-11.36-24.66,6.9-6.03,11.36-14.79,11.36-24.66Z"/>
        <path class="cls-1" d="m271.22,172.59c-9.07,0-16.44-7.37-16.44-16.44v-32.87c0-13.59-11.06-24.66-24.66-24.66-4.54,0-8.22,3.68-8.22,8.22s3.67,8.22,8.22,8.22,8.22,3.69,8.22,8.22v32.87c0,9.86,4.45,18.62,11.36,24.66-6.9,6.03-11.36,14.79-11.36,24.66v32.87c0,4.53-3.68,8.22-8.22,8.22s-8.22,3.68-8.22,8.22,3.67,8.22,8.22,8.22c13.59,0,24.66-11.06,24.66-24.66v-32.87c0-9.07,7.37-16.44,16.44-16.44,4.54,0,8.22-3.68,8.22-8.22s-3.67-8.22-8.22-8.22Z"/>
      </g>
    </g>
  </g>
</svg>