<?xml version="1.0" encoding="UTF-8"?>
<svg id="_レイヤー_2" data-name="レイヤー 2" xmlns="http://www.w3.org/2000/svg" viewBox="0 0 438.69 435.99">
  <defs>
    <style>
      .cls-1 {
        fill: #252653;
      }

      .cls-1, .cls-2, .cls-3 {
        stroke-width: 0px;
      }

      .cls-2, .cls-3 {
        fill: #d573f7;
      }

      .cls-3 {
        fill-rule: evenodd;
      }
    </style>
  </defs>
  <g id="_レイヤー_1-2" data-name="レイヤー 1">
    <g id="Layer_1">
      <rect class="cls-2" y="0" width="438.69" height="435.99" rx="60.46" ry="60.46"/>
      <rect class="cls-1" x="36.77" y="36.54" width="365.16" height="362.92" rx="60.46" ry="60.46"/>
      <path class="cls-3" d="m100.8,117.47v200.98l40,.06v-63.38c13.63,0,27.84-.06,39.26-2.58,15.02-3.34,25.63-10.15,35.04-20.04,9.86-10.35,17.52-24.6,17.52-45.89,0-49.21-32.09-72.54-82.43-70.84l-49.38,1.7Zm40,105.87l.06-75.12c16.72-.34,31.29-.14,40.88,8.36,7.51,6.66,10.29,13.92,10.01,30.87-.54,32.83-22.54,35.89-50.94,35.89Z"/>
      <path class="cls-3" d="m252.51,205.37l.09,114.75,39.94.2.11-98.65-.11-4.37c14.43-12.64,23.81-16.81,43.65-16.36,1.59.06,2.1.06,2.1-1.96v-29c.11-5.13-1.02-6.49-6.89-6.29-15.73.51-20.27,1.79-31.21,11.03-2.32,1.98-9.21,10.23-9.21,10.23,0-10.03-2.24-16.81-5.02-18.85-1.93-1.39-2.41-1.28-5.19-1.28h-5.27l-22.14-.31c-2.44.4-2.58.96-2.52,3.77.28,12.53,1.67,21.34,1.67,37.08Z"/>
    </g>
  </g>
</svg>