<?xml version="1.0" encoding="UTF-8"?>
<svg id="_レイヤー_2" data-name="レイヤー 2" xmlns="http://www.w3.org/2000/svg" viewBox="0 0 446 446">
  <defs>
    <style>
      .cls-1 {
        fill: none;
        stroke: #fff;
        stroke-width: 17.42px;
      }

      .cls-2 {
        fill: #fff;
      }

      .cls-2, .cls-3 {
        stroke-width: 0px;
      }

      .cls-3 {
        fill: #21759b;
      }
    </style>
  </defs>
  <g id="_レイヤー_1-2" data-name="レイヤー 1">
    <g>
      <rect class="cls-3" width="446" height="446" rx="60.46" ry="60.46"/>
      <circle class="cls-1" cx="223" cy="223" r="165.51"/>
      <path class="cls-2" d="m177.7,379.8l48.78-142.86,50.52,138.5,25.26-13.94,48.78-141.12c8.71-22.65,11.32-40.94,11.32-56.62.87-28.75-11.32-54.01-32.23-56.62-19.16-1.74-29.62,16.55-28.75,27.88,1.74,26.13,27.88,40.94,27.88,76.66,0,26.13-16.55,67.07-27.88,106.27l-56.62-168.99c9.58-.87,18.29-.87,18.29-.87,8.71-.87,7.84-13.94-.87-13.07-28.75,2.61-54.88,1.74-83.62,0-8.71-.87-9.58,12.2-.87,13.07,0,0,7.84,0,16.55.87l24.39,67.07-34.84,103.66-56.62-170.73c9.58-.87,17.42-.87,17.42-.87,8.71-.87,7.84-13.94-.87-13.07-26.13,1.74-51.39,3.48-57.49-.87l-7.84,21.78,76.66,211.68,22.65,12.2Z"/>
    </g>
  </g>
</svg>