<?xml version="1.0" encoding="UTF-8"?>
<svg id="_レイヤー_2" data-name="レイヤー 2" xmlns="http://www.w3.org/2000/svg" viewBox="0 0 438.69 435.99">
  <defs>
    <style>
      .cls-1 {
        fill-rule: evenodd;
      }

      .cls-1, .cls-2 {
        fill: #ff7c00;
      }

      .cls-1, .cls-2, .cls-3 {
        stroke-width: 0px;
      }

      .cls-3 {
        fill: #261300;
      }
    </style>
  </defs>
  <g id="_レイヤー_1-2" data-name="レイヤー 1">
    <g id="Layer_1">
      <rect class="cls-2" width="438.69" height="435.99" rx="60.46" ry="60.46"/>
      <rect class="cls-3" x="36.77" y="36.54" width="365.16" height="362.92" rx="60.46" ry="60.46"/>
      <g id="_1927324032" data-name=" 1927324032">
        <rect class="cls-2" x="292.53" y="174.64" width="37.87" height="145.44" rx="1.62" ry="1.62"/>
        <ellipse class="cls-2" cx="311.47" cy="136.18" rx="20.13" ry="19.25"/>
      </g>
      <path class="cls-1" d="m217.67,269.23l14.2,47.03c.74,2.78,2.18,3.46,4.14,3.43h36.37c2.81.03,3-.82,2.58-2.69l-60.07-200.35c-.11-.37-.4-.62-.96-.62l-50.37-.14c-1.98,0-2.01,1.02-1.84,2.95.62,6.97.28,10.88-1.19,16.36l-53.18,181.93c-.57,1.73-.43,2.58,1.84,2.61l34.33-.03c3.63-.11,3.83-1.11,4.45-2.92l11.91-47.54h57.8Zm-7.34-36.57h-41.7l20.21-81.75,21.49,81.75Z"/>
    </g>
  </g>
</svg>