<?xml version="1.0" encoding="UTF-8"?>
<svg id="_レイヤー_2" data-name="レイヤー 2" xmlns="http://www.w3.org/2000/svg" viewBox="0 0 438.66 435.99">
  <defs>
    <style>
      .cls-1 {
        fill: #001e36;
      }

      .cls-1, .cls-2, .cls-3 {
        stroke-width: 0px;
      }

      .cls-2 {
        fill: #99c4cd;
      }

      .cls-3 {
        fill: #31a8ff;
      }
    </style>
  </defs>
  <g id="_レイヤー_2-2" data-name=" レイヤー 2">
    <g>
      <rect class="cls-2" width="438.66" height="435.99" rx="60.46" ry="60.46"/>
      <rect class="cls-1" x="36.77" y="36.54" width="365.13" height="362.92" rx="60.46" ry="60.46"/>
      <g id="LrC">
        <path class="cls-3" d="m165.35,296.7h-86.74c-1.56,0-2.13-.85-2.13-2.7v-155.28c0-1.56.57-2.13,1.99-2.13h26.88c1,0,1.56.57,1.56,1.71v127.55h63.14c1.42,0,1.85.71,1.56,2.13l-3.98,26.45c-.14.85-.43,1.56-.85,1.85s-1,.43-1.42.43Z"/>
        <path class="cls-3" d="m186.97,175.12h24.03c1.42,0,2.28.71,2.84,2.42.43,1,.85,2.28,1,3.55.28,1.56.43,3.13.57,4.69.14,1.71.14,3.56.14,5.4,3.98-5.12,8.96-9.67,14.65-13.08,6.11-3.7,13.22-5.69,20.33-5.4,1.42,0,1.99.71,1.99,2.13v29.58c0,1.28-.71,1.71-2.13,1.71-4.83-.28-9.67,0-14.36,1-3.98.85-7.68,2.28-11.38,4.12-2.7,1.42-5.26,3.41-7.39,5.69v77.5c0,1.56-.57,2.13-1.85,2.13h-26.45c-1.56,0-2.13-.71-2.13-2.42v-84.18c0-3.7,0-7.39-.14-11.38,0-3.98-.14-7.96-.28-11.8-.14-3.41-.43-6.68-.85-10.1,0-.43,0-.85.28-1.42.43-.14.71-.28,1.14-.14Z"/>
        <path class="cls-3" d="m360.31,152.65c-3.13-1.42-6.68-2.13-10.24-2.56-5.12-.57-10.38-.85-15.5-.85-14.93,0-28.01,3.13-38.68,9.39-10.67,6.26-19.48,15.5-25.17,26.59-5.97,11.23-8.82,24.6-8.82,39.53-.14,8.96,1,17.92,3.41,26.73,2.13,7.39,5.26,14.36,9.67,20.76,4.12,5.97,9.1,10.95,14.93,15.07,5.83,4.12,12.37,7.25,19.34,9.1,7.11,1.99,14.79,2.99,22.18,2.99,5.26,0,10.52-.28,15.64-1,4.27-.43,8.39-1.56,12.37-2.99,1.56-.71,2.42-2.28,2.28-4.12v-22.61c.14-.71-.14-1.71-.71-2.28-.43-.28-1.28-.71-2.42.14-3.41,1.28-6.97,2.13-10.67,2.56-4.41.43-8.82.57-13.22.57-3.98,0-8.11-.57-11.8-1.71-4.12-1-7.96-2.7-11.52-4.83-3.84-2.28-6.97-5.26-9.53-8.82-2.84-3.98-5.12-8.39-6.68-13.08-1.71-5.83-2.56-11.66-2.42-17.77-.14-8.39,1.56-16.78,4.98-24.32,3.13-6.54,8.11-12.09,14.22-15.93,6.68-3.98,14.36-5.97,22.18-5.83,4.69,0,9.53.28,14.22,1.28,3.84.57,7.39,1.85,10.95,3.7.57.28,1.42.28,1.99,0,.57-.57,1-1.42.85-2.28v-23.75c0-1.56-.57-2.84-1.85-3.7Z"/>
      </g>
    </g>
  </g>
</svg>