<?xml version="1.0" encoding="UTF-8"?>
<svg id="_レイヤー_2" data-name="レイヤー 2" xmlns="http://www.w3.org/2000/svg" viewBox="0 0 353.4 460.25">
  <defs>
    <style>
      .cls-1 {
        fill: #eeaf4b;
      }

      .cls-1, .cls-2, .cls-3, .cls-4 {
        stroke-width: 0px;
      }

      .cls-2 {
        fill: #e9e9e0;
      }

      .cls-3 {
        fill: #fff;
      }

      .cls-4 {
        fill: #d9d7ca;
      }
    </style>
  </defs>
  <g id="_レイヤー_1-2" data-name="レイヤー 1">
    <g>
      <path class="cls-2" d="m250.55,0H12.02C5.38,0,0,5.38,0,15.83v436.2c0,2.84,5.38,8.22,12.02,8.22h329.36c6.64,0,12.02-5.38,12.02-8.22V106.66c0-5.72-.76-7.56-2.11-8.92L255.66,2.11c-1.36-1.35-3.2-2.11-5.11-2.11Z"/>
      <polygon class="cls-4" points="254.78 1.24 254.78 98.62 352.16 98.62 254.78 1.24"/>
      <path class="cls-1" d="m341.38,460.25H12.02c-6.64,0-12.02-5.38-12.02-12.02v-127.69h353.4v127.69c0,6.64-5.38,12.02-12.02,12.02Z"/>
      <g>
        <path class="cls-3" d="m160.44,351.1v64.5c0,3.9-.72,7.17-2.14,9.83-1.43,2.65-3.34,4.79-5.73,6.4-2.4,1.61-5.15,2.74-8.26,3.37s-6.32.95-9.61.95c-1.65,0-3.58-.17-5.79-.51s-4.5-.85-6.85-1.57-4.63-1.52-6.8-2.42c-2.18-.9-4.01-1.91-5.51-3.03l5.73-9.1c.75.52,1.82,1.07,3.21,1.63s2.9,1.08,4.55,1.57c1.64.49,3.37.91,5.17,1.29s3.48.56,5.05.56c3.96,0,7.13-.77,9.49-2.3,2.36-1.53,3.61-4.14,3.76-7.81v-63.37h13.71Z"/>
        <path class="cls-3" d="m227.53,412.89c0,2.99-.62,5.9-1.86,8.71-1.24,2.81-2.98,5.28-5.23,7.41-2.25,2.13-5.02,3.84-8.32,5.11-3.3,1.27-7.04,1.91-11.23,1.91-1.8,0-3.65-.1-5.56-.28s-3.85-.51-5.79-.95c-1.95-.45-3.81-1.07-5.56-1.86-1.76-.79-3.28-1.74-4.55-2.87l2.36-9.67c1.04.6,2.38,1.18,3.99,1.74s3.27,1.08,5,1.57c1.72.49,3.44.88,5.17,1.18,1.72.3,3.33.45,4.83.45,4.57,0,8.07-1.07,10.5-3.21,2.43-2.14,3.65-5.3,3.65-9.49,0-2.55-.86-4.72-2.58-6.52-1.73-1.8-3.88-3.43-6.46-4.89-2.58-1.46-5.38-2.92-8.37-4.38-3-1.46-5.81-3.19-8.42-5.17-2.62-1.98-4.8-4.32-6.52-7.02-1.73-2.7-2.58-6.07-2.58-10.11,0-3.67.67-6.93,2.02-9.77s3.16-5.27,5.45-7.25c2.28-1.98,4.95-3.5,7.98-4.55s6.24-1.57,9.61-1.57,6.93.32,10.45.95,6.36,1.67,8.54,3.09c-.45.97-.98,2.04-1.57,3.21-.6,1.17-1.17,2.24-1.68,3.25-.53,1.01-.98,1.86-1.35,2.53-.38.67-.6,1.05-.67,1.13-.45-.22-.95-.52-1.52-.9s-1.37-.75-2.42-1.13c-1.05-.38-2.44-.63-4.16-.79-1.73-.16-3.94-.12-6.63.12-1.5.16-2.92.58-4.27,1.29s-2.56,1.59-3.6,2.64c-1.05,1.05-1.88,2.23-2.47,3.54-.6,1.31-.9,2.57-.9,3.76,0,2.99.85,5.41,2.58,7.25,1.72,1.84,3.85,3.44,6.4,4.83,2.55,1.39,5.31,2.74,8.32,4.04,2.99,1.31,5.79,2.91,8.37,4.78,2.59,1.87,4.73,4.22,6.46,7.02,1.74,2.81,2.61,6.42,2.61,10.84Z"/>
      </g>
      <g>
        <path class="cls-1" d="m106.84,156.16v-32.87c0-4.53,3.68-8.22,8.22-8.22s8.22-3.68,8.22-8.22-3.67-8.22-8.22-8.22c-13.59,0-24.66,11.06-24.66,24.66v32.87c0,9.07-7.37,16.44-16.44,16.44-4.54,0-8.22,3.68-8.22,8.22s3.67,8.22,8.22,8.22c9.07,0,16.44,7.37,16.44,16.44v32.87c0,13.59,11.06,24.66,24.66,24.66,4.54,0,8.22-3.68,8.22-8.22s-3.67-8.22-8.22-8.22-8.22-3.69-8.22-8.22v-32.87c0-9.86-4.45-18.62-11.36-24.66,6.9-6.03,11.36-14.79,11.36-24.66Z"/>
        <circle class="cls-1" cx="172.59" cy="152.05" r="12.33"/>
        <path class="cls-1" d="m271.22,172.59c-9.07,0-16.44-7.37-16.44-16.44v-32.87c0-13.59-11.06-24.66-24.66-24.66-4.54,0-8.22,3.68-8.22,8.22s3.67,8.22,8.22,8.22,8.22,3.69,8.22,8.22v32.87c0,9.86,4.45,18.62,11.36,24.66-6.9,6.03-11.36,14.79-11.36,24.66v32.87c0,4.53-3.68,8.22-8.22,8.22s-8.22,3.68-8.22,8.22,3.67,8.22,8.22,8.22c13.59,0,24.66-11.06,24.66-24.66v-32.87c0-9.07,7.37-16.44,16.44-16.44,4.54,0,8.22-3.68,8.22-8.22s-3.67-8.22-8.22-8.22Z"/>
        <path class="cls-1" d="m172.59,197.25c-4.54,0-8.22,3.68-8.22,8.22v24.66c0,4.54,3.67,8.22,8.22,8.22s8.22-3.68,8.22-8.22v-24.66c0-4.54-3.67-8.22-8.22-8.22Z"/>
      </g>
    </g>
  </g>
</svg>