<?xml version="1.0" encoding="UTF-8"?>
<svg id="_レイヤー_2" data-name="レイヤー 2" xmlns="http://www.w3.org/2000/svg" viewBox="0 0 438.69 435.99">
  <defs>
    <style>
      .cls-1, .cls-2, .cls-3 {
        stroke-width: 0px;
      }

      .cls-1, .cls-3 {
        fill: #bc85f3;
      }

      .cls-2 {
        fill: #252653;
      }

      .cls-3 {
        fill-rule: evenodd;
      }
    </style>
  </defs>
  <g id="_レイヤー_1-2" data-name="レイヤー 1">
    <g id="Layer_1">
      <rect class="cls-1" y="0" width="438.69" height="435.99" rx="60.46" ry="60.46"/>
      <rect class="cls-2" x="36.77" y="36.54" width="365.16" height="362.92" rx="60.46" ry="60.46"/>
      <path class="cls-3" d="m176.37,268.04l15.28,50.51h42.92l-60.94-203.3c-.11-.37-.4-.62-.99-.62l-50.43-.14c-1.96,0-2.01,1.02-1.84,2.95.62,7,.28,10.91-1.16,16.38l-54.03,184.76,40.71-.06,12.67-50.51,57.83.03Zm-7.31-36.62h-41.78l20.27-81.84,21.51,81.84Z"/>
      <path class="cls-3" d="m284.63,251.63l78.77.11c4.96-6.35,5.87-18.28,5.73-26.11-.54-31.75-21.57-62.14-59.56-62.33-63.78-.37-75.85,80.28-54.14,126.79,6.83,14.63,20.55,23.92,36.65,28.35,7.34,2.01,15.14,3.03,23.02,3.06,15.59.06,31.44-3.71,44.16-10.97.2-.11.54-.11.57-.34v-.91l-.03-26.28c0-1.19-.91-1.87-2.27-1.45-16.1,4.85-70.64,20.32-73.16-28.46-.03-.37-.11-1.47.26-1.47Zm39.49-26.33h-40.11c.2-21.32,9.98-33.42,25.09-33.48,13.72-.06,22.45,9.47,22.88,32.97,0,1.08,0,.51,0,.51h-7.85Z"/>
    </g>
  </g>
</svg>