<?xml version="1.0" encoding="UTF-8"?>
<svg id="_レイヤー_2" data-name="レイヤー 2" xmlns="http://www.w3.org/2000/svg" viewBox="0 0 411.1 206.74">
  <defs>
    <style>
      .cls-1 {
        fill: #71c8c8;
      }

      .cls-1, .cls-2, .cls-3, .cls-4, .cls-5, .cls-6, .cls-7, .cls-8, .cls-9, .cls-10 {
        stroke-width: 0px;
      }

      .cls-2 {
        fill: #fc878e;
      }

      .cls-11 {
        stroke: #fff;
        stroke-width: 3.92px;
      }

      .cls-11, .cls-12 {
        fill: none;
        stroke-linecap: round;
        stroke-miterlimit: 10;
      }

      .cls-3 {
        fill: #cc7575;
      }

      .cls-12 {
        stroke: #3a3a3a;
        stroke-width: 3.26px;
      }

      .cls-4 {
        fill: #ccc5b8;
      }

      .cls-5 {
        fill: #fff;
      }

      .cls-6 {
        fill: #b4c5fc;
      }

      .cls-7 {
        fill: #f97070;
      }

      .cls-8 {
        fill: #d3d3d3;
      }

      .cls-9 {
        fill: #fdb2b2;
      }

      .cls-10 {
        fill: #3a3a3a;
      }
    </style>
  </defs>
  <g id="_レイヤー_1-2" data-name="レイヤー 1">
    <g>
      <path class="cls-5" d="m33.19,114.19h14.05c4.49,0,8.12-3.63,8.12-8.12,0-2.24-.91-4.27-2.38-5.74-1.47-1.47-3.5-2.38-5.74-2.38h-10.53c-.19.61-.38,1.22-.56,1.83-.91,3.13-1.67,6.37-2.25,9.64-.28,1.58-.52,3.17-.71,4.76Z"/>
      <ellipse class="cls-4" cx="208.51" cy="193.64" rx="194.17" ry="13.09"/>
      <path class="cls-8" d="m.13,151.7h30.22c1.89,0,3.42,1.53,3.42,3.42v3.87c0,1.89-1.53,3.42-3.42,3.42H.13v-10.71H.13Z" transform="translate(5.22 314.59) rotate(-169.58)"/>
      <g>
        <rect class="cls-10" x="235.19" y="37.95" width="8.41" height="47.88" rx="2.68" ry="2.68" transform="translate(426.83 223.16) rotate(-153.79)"/>
        <path class="cls-10" d="m246.63,58.15l2.98,2.85c.67.64.85,1.65.44,2.49l-.42.85,35.09,17.28-2.06,4.18-35.09-17.28-.42.85c-.41.84-1.32,1.31-2.24,1.17l-4.07-.63c-1.43-.22-2.23-1.76-1.59-3.06l3.99-8.1c.64-1.3,2.35-1.6,3.39-.6Z"/>
      </g>
      <path class="cls-6" d="m252.12,3.36c.08.19.16.39.23.6l21.37,68.02.54,1.71h23.81c6.94,0,11.2-6.47,9.87-12.34-.39-1.74-1.28-3.43-2.73-4.89L252.12,3.36Z"/>
      <path class="cls-2" d="m80.18,59.58c.1-.32.24-.66.43-1,.6-1.06,1.45-1.72,2.2-2.12.59-.32.88-.96.8-1.6l66.59,19.41-2.66,1.34c-2.92.15-5.85.29-8.77.44l-58.58-16.48Z"/>
      <path class="cls-1" d="m249.74.98v42.57s9.47,30.13,9.47,30.13h15.05S252.34,3.96,252.34,3.96c-.07-.21-.14-.4-.23-.6l-2.38-2.38Z"/>
      <g>
        <path class="cls-9" d="m167.12,74.63c-12.32-6.23-26.19-12.51-41.56-18.36-12.56-4.79-24.55-8.69-35.76-11.88-1.99-.57-4.13.1-5.42,1.72-.67.85-1.27,1.93-1.54,3.3-.41,2.05.09,3.79.63,4.95.36.77.09,1.71-.66,2.11s-1.6,1.06-2.2,2.12c-.66,1.17-.72,2.32-.69,2.95,0,.2,0,.4-.02.6-.17,1.82-.27,3.8-.25,5.92.04,4.16.53,7.84,1.16,10.92,28.77-1.45,57.54-2.9,86.31-4.35Z"/>
        <path class="cls-9" d="m33.9,170.86h340.6c52.06-4.35,44.18-70.52,3.94-87.7-19.07-9.34-47.43-17.75-70.51-21.82,1.33,5.88-2.93,12.34-9.87,12.34h-23.81s-.54-1.71-.54-1.71c-75.54.44-150.68-1.86-226.26.94-4.78.93-14.75,2.87-23.2,9.93-5.85,5.25-10.89,14.43-14.2,24.93-1.64,5.19-2.85,10.71-3.53,16.24-2.81,22.98,3.63,46.13,27.36,46.85Z"/>
        <path class="cls-9" d="m238.65,8.26l11.09,35.3,9.47,30.13,8.39,26.7,13.7-4.3-7.04-22.39L252.34,3.96c-.07-.21-.14-.4-.23-.6-1.15-2.6-4.09-3.97-6.86-3.1l-2.91.91c-2.98.94-4.63,4.11-3.7,7.09Z"/>
        <rect class="cls-3" x="115.19" y="148.7" width="178.54" height="22.16" transform="translate(408.92 319.57) rotate(180)"/>
        <rect class="cls-5" x="178.91" y="90.61" width="22.62" height="7.6" rx="2.43" ry="2.43" transform="translate(380.43 188.82) rotate(180)"/>
        <rect class="cls-7" x="375.93" y="141.34" width="23.78" height="7.6" rx="2.43" ry="2.43" transform="translate(775.64 290.28) rotate(-180)"/>
        <path class="cls-11" d="m150.2,94.41c-1.49,5.26-2.87,12.06-3.19,20.04-.44,11.17,1.37,20.45,3.19,26.89"/>
        <path class="cls-5" d="m20.89,115.9c0-2.24-.59-4.27-1.54-5.74-.95-1.47-2.26-2.38-3.72-2.38h4.96c2.24,0,4.27.91,5.74,2.38,1.47,1.47,2.38,3.5,2.38,5.74,0,4.49-3.63,8.12-8.12,8.12h-4.96c2.9,0,5.25-3.63,5.25-8.12Z"/>
        <path class="cls-7" d="m9.51,109.61c.18-.61.37-1.23.56-1.83h5.57c1.45,0,2.77.91,3.72,2.38.95,1.47,1.54,3.5,1.54,5.74,0,4.49-2.35,8.12-5.25,8.12H6.54c.19-1.59.43-3.18.71-4.76.58-3.27,1.34-6.51,2.25-9.64Z"/>
        <path class="cls-3" d="m80.61,58.59c.6-1.06,1.45-1.72,2.2-2.12.34-.18.58-.47.71-.81.16-.42.63-.63,1.06-.51l42.86,12.49c.91.26.82,1.58-.12,1.72-2.74.4-5.49.63-8.19,1.09-.13.02-.26.01-.38-.02l-37.6-10.58c-.54-.15-.82-.77-.54-1.26,0,0,0,0,0-.01Z"/>
      </g>
      <g>
        <circle class="cls-10" cx="329.39" cy="156.02" r="42.62"/>
        <circle class="cls-5" cx="329.39" cy="156.02" r="28.13"/>
        <path class="cls-12" d="m307.79,156.02c0,5.96,2.42,11.36,6.33,15.27,3.91,3.91,9.31,6.33,15.27,6.33,5.96,0,11.36-2.42,15.27-6.33s6.33-9.31,6.33-15.27c0-5.96-2.42-11.36-6.33-15.27s-9.31-6.33-15.27-6.33"/>
      </g>
      <g>
        <circle class="cls-10" cx="86.65" cy="156.02" r="42.62"/>
        <circle class="cls-5" cx="86.65" cy="156.02" r="28.13"/>
        <path class="cls-12" d="m65.05,156.02c0,5.96,2.42,11.36,6.33,15.27,3.91,3.91,9.31,6.33,15.27,6.33,5.96,0,11.36-2.42,15.27-6.33,3.91-3.91,6.33-9.31,6.33-15.27,0-5.96-2.42-11.36-6.33-15.27-3.91-3.91-9.31-6.33-15.27-6.33"/>
      </g>
    </g>
  </g>
</svg>