<?xml version="1.0" encoding="UTF-8"?>
<svg id="_レイヤー_2" data-name="レイヤー 2" xmlns="http://www.w3.org/2000/svg" viewBox="0 0 287.51 494.49">
  <defs>
    <style>
      .cls-1 {
        fill: #e6e6e6;
      }

      .cls-1, .cls-2, .cls-3, .cls-4, .cls-5, .cls-6, .cls-7, .cls-8 {
        stroke-width: 0px;
      }

      .cls-2 {
        fill: #d6b31d;
      }

      .cls-3 {
        fill: #ccc5b8;
      }

      .cls-4 {
        fill: #1dd68a;
      }

      .cls-5 {
        fill: #b4c5fc;
      }

      .cls-6 {
        fill: #e25124;
      }

      .cls-7 {
        fill: #3a3a3a;
      }

      .cls-8 {
        fill: #d82c1a;
      }

      .cls-9 {
        fill: none;
        stroke: #606060;
        stroke-miterlimit: 10;
        stroke-width: 6px;
      }
    </style>
  </defs>
  <g id="_レイヤー_1-2" data-name="レイヤー 1">
    <g>
      <g>
        <rect class="cls-6" x="28.13" y="263.24" width="231.25" height="231.25"/>
        <rect class="cls-6" x="28.13" y="31.93" width="231.25" height="76.51" rx=".3" ry=".3"/>
        <rect class="cls-1" x="28.13" y="184.89" width="231.25" height="80.13"/>
        <path class="cls-3" d="m273.44,0h0C281.2,0,287.51,6.3,287.51,14.06v480.42h-28.13V14.06C259.38,6.3,265.68,0,273.44,0Z"/>
        <path class="cls-3" d="m14.06,0h0C21.83,0,28.13,6.3,28.13,14.06v480.42H0V14.06C0,6.3,6.3,0,14.06,0Z"/>
      </g>
      <g>
        <rect class="cls-7" x="52.62" y="50.42" width="33.61" height="33.61" rx="6.39" ry="6.39"/>
        <rect class="cls-7" x="127.51" y="50.42" width="33.61" height="33.61" rx="6.39" ry="6.39"/>
        <rect class="cls-7" x="202.39" y="50.42" width="33.61" height="33.61" rx="6.39" ry="6.39"/>
      </g>
      <rect class="cls-5" x="62.37" y="197.5" width="163.88" height="53.91" rx="4.62" ry="4.62"/>
      <path class="cls-9" d="m68.37,68.88c-12.74,4.13-18.09,18.88-21.73,31.77-14.45,54.58-37.13,131.67-39.7,164.96-1.97,25.55-2.12,82.12,20.71,108.84,12.19,14.26,34.04-2.27,37.69-11.46,1.22-3.09,3.66-12.55,2.72-17.66"/>
      <path class="cls-9" d="m144.31,65.34c-61.64,6.33-73.99,407.37-.56,278.66"/>
      <path class="cls-9" d="m211.77,63.51c55.95,81.88,72.51,193.07,57.18,289.63-8,30.98-58.05,21.89-51.44-14.48"/>
      <g>
        <rect class="cls-7" x="50.24" y="288.88" width="37.25" height="59.65" rx="6.64" ry="6.64"/>
        <path class="cls-8" d="m80.63,329.68c-.83-2.17-1.96-5.73-2.36-10.4-.52-6.05,1.09-8.72,1.08-13.4-.04-.77-.29-4.23-2.37-6.97-1.33-1.76-3.12-2.83-5.07-2.83h-6.11c-1.95,0-3.73,1.07-5.07,2.83-2.08,2.74-2.32,6.2-2.37,6.97,0,4.69,1.6,7.35,1.08,13.4-.4,4.67-1.52,8.23-2.36,10.4-1.11,9.43,4.79,17.66,11.51,17.66.08,0,.16,0,.25,0,.08,0,.16,0,.25,0,6.72,0,12.62-8.23,11.51-17.66Z"/>
      </g>
      <g>
        <rect class="cls-7" x="125.13" y="288.88" width="37.25" height="59.65" rx="6.64" ry="6.64"/>
        <path class="cls-2" d="m155.51,329.68c-.83-2.17-1.96-5.73-2.36-10.4-.52-6.05,1.09-8.72,1.08-13.4-.04-.77-.29-4.23-2.37-6.97-1.33-1.76-3.12-2.83-5.07-2.83h-6.11c-1.95,0-3.73,1.07-5.07,2.83-2.08,2.74-2.32,6.2-2.37,6.97,0,4.69,1.6,7.35,1.08,13.4-.4,4.67-1.52,8.23-2.36,10.4-1.11,9.43,4.79,17.66,11.51,17.66.08,0,.16,0,.25,0,.08,0,.16,0,.25,0,6.72,0,12.62-8.23,11.51-17.66Z"/>
      </g>
      <g>
        <rect class="cls-7" x="200.01" y="288.88" width="37.25" height="59.65" rx="6.64" ry="6.64"/>
        <path class="cls-4" d="m230.39,329.68c-.83-2.17-1.96-5.73-2.36-10.4-.52-6.05,1.09-8.72,1.08-13.4-.04-.77-.29-4.23-2.37-6.97-1.33-1.76-3.12-2.83-5.07-2.83h-6.11c-1.95,0-3.73,1.07-5.07,2.83-2.08,2.74-2.32,6.2-2.37,6.97,0,4.69,1.6,7.35,1.08,13.4-.4,4.67-1.52,8.23-2.36,10.4-1.11,9.43,4.79,17.66,11.51,17.66.08,0,.16,0,.25,0,.08,0,.16,0,.25,0,6.72,0,12.62-8.23,11.51-17.66Z"/>
      </g>
    </g>
  </g>
</svg>