<?xml version="1.0" encoding="UTF-8"?>
<svg id="_レイヤー_2" data-name="レイヤー 2" xmlns="http://www.w3.org/2000/svg" viewBox="0 0 183.75 69.91">
  <defs>
    <style>
      .cls-1 {
        fill: #5b330a;
      }

      .cls-1, .cls-2 {
        stroke-width: 0px;
      }

      .cls-2 {
        fill: #9bccee;
      }
    </style>
  </defs>
  <g id="_レイヤー_1-2" data-name="レイヤー 1">
    <g>
      <g>
        <path class="cls-2" d="m183.75,31.44c.03-.36-.18-1.11-.41-.91l.07,1.34.34-.43Z"/>
        <path class="cls-2" d="m181.49,29.4c-.19.69-.32,1.87.12,3.02.06-1.31.24-.8.27-2.36.24-.2.55.32.6.81.03-.35.47.2.45-.64-.55-.94-.99-.89-1.28.03-.16-.27-.13-.62-.15-.87Z"/>
        <path class="cls-2" d="m155.15,32.55l.2.12c-.06-.08-.13-.11-.2-.12Z"/>
        <path class="cls-2" d="m138.94,35.05c.12-.06.14-.19.12-.31-.1.11-.17.21-.12.31Z"/>
        <path class="cls-2" d="m135.92,34.16c.07.03.12.04.18.06-.09-.11-.16-.16-.18-.06Z"/>
        <path class="cls-2" d="m155.15,32.55l-.51-.32c.05.43.28.27.51.32Z"/>
        <path class="cls-2" d="m178.53,33.24c.08-.08.13-.22.17-.39-.06.07-.12.13-.19.18.01.07.02.13.03.21Z"/>
        <path class="cls-2" d="m162.02,30.08l.13-.03c0-.16,0-.34,0-.55l-.13.58Z"/>
        <path class="cls-2" d="m167.42,28.8c-.13-.02.04,1.09.09,1.58-.02-.47.03-.7.12-.81-.04-.21-.11-.46-.21-.77Z"/>
        <path class="cls-2" d="m176.42,29.02l.12-.18c-.03.06-.09.11-.12.18Z"/>
        <path class="cls-2" d="m158.09,30.62c-.04-.16-.09-.3-.13-.38.03.14.07.27.13.38Z"/>
        <path class="cls-2" d="m7.73,69.26c-.01-.08-.03-.13-.04-.2,0,.12,0,.2.04.2Z"/>
        <path class="cls-2" d="m.33,65.06l.08-.08c-.03-.21-.06-.42-.1-.62l.03.7Z"/>
        <path class="cls-2" d="m130.61,33.75s.02,0,.03.02c.11-.15.04-.11-.03-.02Z"/>
        <path class="cls-2" d="m84.69,43.77c.72.88-.6,1.44.41,2.37-.16-.42.37-1.86-.41-2.37Z"/>
        <path class="cls-2" d="m178.37,33.13c-.07.03-.14.05-.22.06.11.02.18,0,.22-.06Z"/>
        <path class="cls-2" d="m85.1,46.14s0,0,0,0l.1.09s-.07-.06-.1-.1Z"/>
        <path class="cls-2" d="m119.18,36.72c.06.19.14.33.21.46-.03-.11-.08-.24-.21-.46Z"/>
        <path class="cls-2" d="m128.11,36.57l-.24-.1c.1.08.18.1.24.1Z"/>
        <path class="cls-2" d="m115.02,39.17c-.13-.06-.2-.21-.33-.03.03.05.05.09.08.13.03-.16.09-.25.26-.1Z"/>
        <path class="cls-2" d="m110.36,40.11c.04.08.09.14.13.2.04-.03.09-.06.14-.09l-.27-.12Z"/>
        <path class="cls-2" d="m21.77,65.91c-.16-.29-.3-.62-.41-.95.23.77-.4,1.19.41.95Z"/>
        <path class="cls-2" d="m178.41,32.62c.03.28.02.43-.04.5.05-.02.1-.06.14-.09-.02-.17-.05-.32-.1-.41Z"/>
        <path class="cls-2" d="m116.57,47.91l-.77-.02c.23.07.51.07.77.02Z"/>
        <path class="cls-2" d="m55.15,59.08l-.14.17c.07.01.12-.03.14-.17Z"/>
        <path class="cls-2" d="m113.63,48.5c-.21-.36-.4-.56-.57-.68-.01.09-.03.17-.03.3l.6.38Z"/>
        <path class="cls-2" d="m21.35,64.95s0,.01,0,.01c0,0,0,0,0-.01Z"/>
        <path class="cls-2" d="m17,68.54c.71-.11.05-1.48.03-2.35.76-.58.6.99,1.04,1.67.45-.49.59-1.9.99-1.92.08.23.17.3.14.62.33-1.26,1.64-.39,2-1.96.07.12.12.24.16.34-.25-.7-.41-1.44-.5-1.97.31-.09.4-1.03.71-.11-.2.01-.14.4-.17.71l.25-.48c.57,1.3-.36.56-.16,1.57.56-.57,1.08-1.85,1.66-1.56.37,1.31-1.07.68-.17,1.73l-.87-.36c1,1.99-.49-.05.49,2.09,1.08.18.99-.9,2.07-.72.08-.79-.29-1.08-.21-1.87,1.16-1.62,1.79,3.13,2.49,1.14.09-.94-.14-2.65.79-1.91l.05,1.56c1-.05.12-2.28,1.35-1.47-.06.63-.67.65-.48.8.9,1.06.3-.95.81-1.05l.37,1.31c1-.42,1.95-1.61,3.05-2.08.02.41-.1.87.25,1.22,1.32-.96,3.13-.46,4.69.06l.3-1.26c.13-.01.33.47.24.72.63.33-.12-.74.05-1.24.29-.14.54.58.41.96.77-1.17,2.32-2.65,3.58-1.62l-.13.38c.88.31.42-2.54,1.37-1.61l-.1.23c1.81.16,3.5-1.28,5.15.2-.08-1.71,1.84.4,1.49-1.93,1.21.95,1.01,1.42,2.54,1.92.39.03.26-1.55.67-1.89l.25,1.21.36-1.39.62,1.38.37-.4c-.18-.04-.47-.47-.51-.82.56-.68,1.79.52,1.93,1.13l1.37-1.34c.06.49-.17.71-.32,1.06.6-1.4.41,1.24.95-.04-.16-.25-.09-.73-.12-.98.53.65,1.41.49,1.99.05l.04.86c1.21-.02,2.39-.89,3.7-1.14-.55-.29-.73-1.76-.37-1.98l.41,1.24c.09-.84-.5-.4-.18-1.47.52.05.62,1.39.42,1.86l.51-.56c.11.38.01.6.07,1.1.09-.84,1.29,1.08,1.36-.37l.11.37c1.31-.25,1.82-.81,2.88-1.09-.2-1.11.27-.95.41-1.9.86.19,1.9.89,2.83.61.56-.68,0-.97.18-1.69.25.99,1.18.71.83,1.53,1.1-.39,1.41-.49,2.69-1.59-.24-.38-.45-.52-.43-.89.23-.22.68.3.74.79l-.05.12c1.31-1.83,4.31,2.19,5.17-.16l-.05.12,1.11-1.36c.65.05-.22.83.36,1.36,1.1-1.96,2.32-.21,3.28-1.56,1.51,2.78,3.21-.86,4.82.79l-.21-.68c.18-.75.47.32.73.44-.14-.54-.47-.56-.35-.98,2.54-1.38,5.79-.1,8.69-.02,1.05-.02-.15-3.73,1.47-2.32l-.1,1.37c1.74-1.97,4.2-.78,5.94-2.5-.06.32.01.71-.18.75.61.86,1.58-.27,1.43-1.04.33.03.21.68.48,1.03.54.47.83-1.41,1.24-.52.07.15-.06.33-.12.42.19-.51,1.31-.14.83-1.17.86.37,1.34-.77,2.07-.25.15-1.29,1.4.33,1.19-1.41.3,1.79,1.6,1.17,1.91.24-.05.57.52.47.49,1.25.54-.13.97-.56.69-1.45,1.42,1.92,1.67-2.11,2.78.5,1.42-1.28,2.79-2.22,4.15-2.92.3,1.78-1.57.5-1.14,2.34,1.23-1,1.72-2.68,3.17-2.53.4.17-.05.81-.11,1.13,1.23-1,2.69-.37,3.72-1.58.03.17-.07.37-.16.53.23-.11.61.15.42-.65l-.19.26c-.62-1.09.47-2.63.39-3.25.05,2.39,1.32.34,1.26,3.38.13-.18.25-.6.11-1.14.27.11.4.41.29,1.07.78-.61.3-1.4,1.08-1.54.08.39-.05.57-.04,1.05.24-.84.49-1.68,1.22-1.48,0,.24.15.53-.05.57,1.11-.34,1.53-2.41,2.92-1.92-.03,1.76.54.47.89,1.92l.58-.57-.41-.66c.59-.09.9-1.26,1.5-.88l-.32.69,1.04-.5-.73-.43c.44-.87-.43-1.84.43-1.59-.13.18.59-.1,1.07.7,0,0,0,0,0,0,.2-.52.4-1.08.9-.8.21.45.23,1.64.37,1.93.04-1.28,1.31-.61,1.41-1.99-.06.33.09,1.1.16,1.25l.04-1.04c.33.26.41.41.48,1.03.85.02-.63-1.81.5-1.2-.06.1,0,.24-.12.42,1.06.22,1.76-1.01,2.75-.7.56,1.42-.71.52-.16,1.7,1.24-.53,2.32-2.3,3.64-2.2l-.27-.12c-.24-2.11,1.14.84,1.57-.27-.12.19.03,1.2.02.96.92.16,1.65-.86,2.81-1.77l-.05.57c.6.38,1.38,0,1.98.14.06-.57.38-.54.04-1.28,2.29,2.71,2.88-2.27,4.88-.03-.18.04-.33.55-.19.52l1.17-.74c-.28-.89-.28-.52-.68-1.17.05-.57.33-1.06.64-1.12-.45.71.3,1.45.64,1.91-.1-.27-.07-.59-.15-.87.99,1.48-.25-1.85.87-.94l.05.49c.29-.31.48-1,.87-.94.36,1.02-.26.56-.11,1.43.5-.16.62-2.19,1.29-1.24-.16.34-.47.4-.63.74.75,1.13.75.81,1.16.93l-.04-.02.98.38-.29-.29c.1-2.86,1.21-.76,1.72-2.72-.5,1.86.06,1.01.23,2.21.29.29.7.59.67.94.22-1.04.83.62,1.13-.9.1.38.44-.05.54.93.47-.41-.26-.64-.31-1.13.56-1.47,2.24,1.2,3.06-.83.87-.94.8-2.27,1.62-3.1.44.55.02,1.45.02,1.45.63.46.99.28,1.39-.25-.03.35.13.62.36,1.01.37-.18-.02-1.44.61-.98,0,.44.02,1.15-.08,1.61.39-.44.7-1.25,1.1-1.69.26.64-.08,1.07-.16,1.54.47-.41,1.26-.88,1.21-1.97l-.42-.31c.18-.09.28.89.18,1.11-.29.92-.73-.23-.83-.61l.29-.31c-.79-2.17-1.28.63-1.99.64l-.04-1.69-.43,1.49c-.23-.39-.52-1.29-.23-1.6-.65-.71-.32.67-.91-.15-.07-.13-.07-.21-.04-.29l-.38.58c.02-.36-.31-1.14.03-.96-1.04-.77-1.13,1.5-1.7.33l.05-.11c-1.08.79.12,1.22-.48,2.8l-1.19-2.84.12,1.22c-.13-.02-.39-.06-.44-.55-.29.91.18.51.07,1.33-.81-.97-1.52.83-2.03-1.05-.03.95.7.59.2,1.35-.59-2.02-.66.5-1.38-.34-.05-1.09.58-.63-.15-1.47.03,1.86-1.12-.18-1.51.25.26,1.43-.87.79-1.53,1.42-.05-.49-1.59-.5-2.4-.87l-.03-.24c.15,1.47-.63,1.34-1.11,1.75-.15-.87-.12-1.23.09-1.67l-.5.11c-.03.49-.13.76-.42.99l-.09-1.1c-.65.19-1.09,1.54-2.09.99.15,1.01,1.24,2.66.47,3.51-.14-.54-.36-1.46-.17-1.73-.06.09-.19.51-.39.31l.18-.99c-.47-.32-.05.8-.38.78-.15-.78-.34-.51-.42-1.13.06-.09.34.27.39-.06-.38-.07-.9-.44-1.15-1,.12.43.21,1.04-.03,1.19-.65.19-.41-.89-.88-1.21-.05.57-.59.1-.37,1.26-.2.03-.34-.5-.48-.8-.24.58-1.58.47-.94,1.62l.1.06s-.03.03-.05.06h0s0,0,0,0c-.9,1.38-2.48-.19-3.5.53l-.08-.39c-.58.58-1.44.56-1.75,1.49-.2.04-.61-.61-.62-1.09-.45.39-.42.84-1.29.35.38-.78-.3-.56.43-.6-.73-.2-1-.79-1.51.41.04-1.04-.75-1.15-1.01-.79l.61.62c-.33.22-.65.19-.99.17l-.09-1.34c-1.68-1.32-1.91,3.19-3.48.74-.18.98.87.5.76,1.63-.66-.05-1.69-1.79-1.88-1.76-1-.55-.42,2.07-1.41,1.75.21.44.56,1.66-.02,2.24-.66-.05-1.16-1.8-.84-2.25.14-.07.24.06.27.22.17-.21.39-.46.04-.92v.48c-.39-.41-1.24-.19-1.19-1-.38.54-.05.8.35.98-.94-.51-1.26.23-2.17-.06.18.23.41.75.28.77-1.33-.33-.36.99-1.14,1.36-.61-.62-.17-1.73-.88-.97-.6-.38-.35-1.21-.23-1.63-.57,1.05-1.52-.31-1.99-.39l.32-.45c-.19.27-.39.3-.59.34l.41.89c-.26-.12-.46-.08-.54-.47-.12.66.49,1.51.18,2.44-.4-.41-.84.7-1.2-.52,1.06.22-.36-1.22.43-1.58-.13.18-.33.21-.59.1-.06-.13-.02-.26.03-.35-1.15-.92-.15,1.48-1.12,1.65-.02-.72-.49-1.28-.62-1.1.39-.06.42,1.12.17,1.73-.73-.42-.59.54-.93.54l.42.18c.01.72-.32.69-.7,1-.15-.53.32-.45.12-.66-.24,1.32-1.34-1.05-1.84-.09-.4-.41-.29-1.3-.63-1.57-.57,1.05-1-.79-1.64.11.41.89.41.65.03,1.68l1.17-.92-.56,1.53c.39-.06.71-.75.97-.64-.24.84-.25.6.09,1.34-.82-1.3-.9,1.03-1.71.21l-.44-2.32c-1.14-.85-1.42,1.52-2.74,1.18l.47.33c.02.95-.72.28-1.04.73-.12-.78-.42-1.01-.68-1.46.13.57-.9.12-.7,1.69l-.74-.91c-1.06-.22-.67,2.43-1.66,2.35.11-.9-.42-1.36.09-2.09-.31.05-.62-.03-.52.51-.28-.45-.66,1.22-1.09.54-.06.37.05,1.19-.31,1.19-.07-.15-.08-.38-.08-.38.08.38-.45.63.03,1.43-1.45-2.22-2.66.71-3.92-1.19-.63.4-1.41.81-2.01.99,0-.24-.07-.39.06-.33-1-.55-.08,2.33-1.22,1.72-.75-1.15.38-.78-.02-1.19-.64-2.52-1.11.58-2.06-.77l.13-.18c-.67-.77-1.03,1.21-1.88,1.19,0,0,0-.23-.07-.39-.3,1.41-1.27,2.05-1.99,2.57.05-1.05.25-.6-.1-1.58-.32.21.43,1.61-.22,2.03-.34-.5-.94-.88-1.23-1.94l.65-.19c-.62-1.33-.85.22-1.25.05l-.08-.62c-.98.4-.69,1.95-1.8,2.05l.21.44c-.29,1.65-.67-.76-1.04.5l-.49-1.51c-.32.45-1.08,1.77-1.73,2.21.17-1.23.88-1.98,1.26-2.76-.39.07-1.31.38-1.36,1.18.13-.18.25-.6.45-.39-.24,1.31-.75,2.04-1.53,2.17-.46-3.03-2.18-.35-3.21-2.57-1.16,1.39-2.83.07-4.4.57,1.04,2.22-.46.16.12,2.54-.34.23-.49.22-.56.07l-1.42-1.21c-.41-.64.25-.6.11-1.13-.86-.02-.55-.95-1.22-1.48.28.84-.04,1.29-.57,1.05l.88.97c-.89,1.51-1.39-1.82-2.29-.32l.21-.83c-.5.56-2.19.42-2.38,2.46-.16-.26-.43-.88-.2-1.11-1.47,0-2.74,2.68-4.08,1.71v-.61c-.24.22-.25,1.19-.7.67-.03-.25-.01-.61-.14-.62-.1.23-.5,1.17-.92.9l.17-.72c-1.53-.49-1.8,2.03-2.88,2.66-.34-1.73-1.54-2.07-2.14-2.24l-.03-.25c-1.65.11-2.45,1.98-3.8,2.95-1.3-1.69-3.29-.16-4.98-.91.29.27.23,1.35,0,1.58-.42-.28-.72,1.39-.99-.2h.13c-.57-1.5-1.21-.94-1.77-.87l.32,2.09c-2.06-2.72-3.61,1.87-4.95-.67-.25.59-.69.67-.94,1.26l-.2-1.11c-1.03-.09-1.55-.13-2.71.38l.09-.84c-.7.06-.22,3.37-.84,3.57l-.52-1.62c-1.18.26-2.68-.95-3.56.79-.03-.25-.09-.73.09-.84-.57.07-2.39-.69-1.73,1.55-.31-1.48-1.26.1-1.77.88l-.12-1.11c-.26,1.5-.2,1.89-.88,2.43-.21-.11-.33-.84-.04-.61-.71-.45-.26,1.13-1.1.69l.13-.75c-.63.04-.51.4-.69,1.29-.3.52-1.22-.04-1.51-1.01.04.62-.14,1.49-.56,1.28-.12-.36-.04-.62,0-.75-1.18-.54-1.28,1.58-2.2.64-.09-.36-.17-.53-.25-.63.82-.14,1.49-.21,1.45-.12-.2-1.01-.9-1.05-.65-2.55-.38.87-.96,2.7-1.69,2.35-.05-.09-.1-.18-.15-.33l.04-.13c-.17-.07-.28.05-.37.24-.24-.12-.39-.22-.59-.2-.24-.82-.85-.3-1.19-.27.25,1.1-.22,1.01.37,1.84-.07-.07.04-.14.25-.23.04-.04.1-.07.12-.14,0,.03,0,.07,0,.1.21-.07.49-.16.8-.24-.15.61-.33,1.14-.81.6-.03.74-.07,1.51-.1,1.87-.76-1.45-1.79-2.11-2.1-3.03-.88.82-2.29.88-2.51,3.08-.23.32-.45-.53-.62-.83.12-.24.33-.25.36-.56-.47.65-1.65.54-1.5,2.02-.85-.51.14-1.41-.8-.98l.04-.47c-2.41-1.92-2.43,4.33-5.18,1.79.19.15.28.22.36.46-2.72-.82-4.83,2.24-7.67.65-.77-.28-.66.66-.95,1.45l-.39-1.15-.45,1.51c-.82,1.2-2.35-2.55-3.27-.4l.33.76c-.5-.06-1.38.76-1.48-.17-.02.16.01.86-.25.48l-.14-.62-.93,1.29c-.97-.27-.35-2.49-1.67-2.35-.43.33-1.01,2.08-.74,2.46.2,0,.57.29.71.91l-.37.41c.29,1.84.32,3.78,1.65,4.84l.53-1.27.42.84-.62.18c.52.76.6-.02.76-.58.15.46.33.77.51.91l.39-1.89c.23.7-.05,1.48.53,1.78.18-.88-.65-1.54-.19-2.18.53.76.56,1.46.84.66.15.46.12.78,0,1.02.26-.64.95-.44.95-1.45.58.95,1.21-.52,1.52,1.22.04-.44.39-1.49.72-1.63-.22,2.2,1.31-.14,1.59,2.12.09-1.95,1.52-1.16,2.14-2.36-.02.16-.05.47-.14.39.5.06.74.6,1.11.89-.25-1.55.41-2.04.61-3.07.87,1.37.01,1.87.48,3.26-.28-1.24.74-1.44.34-2.44.62.83.46.37.94,1.6-.31-1.94.34-.41.47-1.66.82.82.52,1.77,1.1,1.04.45.52-.03,1.33-.03,1.33Zm15.8-6.61s0,.02,0,.02c-.14.05-.25.1-.33.13.07-.03.16-.07.32-.15Zm1.38-.29c-.18,0-.39.02-.61.08-.12-.37-.15-.77,0-.78-.02.27.35.42.62.7Zm-4.45-7.06c.19-.2.3,0,.38.22-.1.04-.21.1-.36.21,0,.04,0,.09,0,.14-.02-.21-.04-.42-.02-.57Z"/>
        <path class="cls-2" d="m29.63,56.1s-.04.08-.07.1c.06.09.12.16.18.22,0-.12,0-.24,0-.36-.04.01-.08.03-.11.04Z"/>
        <path class="cls-2" d="m155.38,32.69l-.03-.02s.06.08.09.14c-.03-.05-.04-.08-.06-.13Z"/>
        <polygon class="cls-2" points="53.71 59.93 53.66 59.65 53.58 59.92 53.71 59.93"/>
        <path class="cls-2" d="m163.76,34.95c.03.09.08.19.16.26-.02-.07-.08-.16-.16-.26Z"/>
        <path class="cls-2" d="m167.1,34.54l.54.3c-.25-.18-.41-.26-.54-.3Z"/>
        <path class="cls-2" d="m169.74,34.58c0-.2-.03-.35-.04-.48,0,0,0,0,0,0l.05.49Z"/>
        <path class="cls-2" d="m129.76,43.92s-.06.03-.09.07c-.19.26-.05.14.09-.07Z"/>
        <path class="cls-2" d="m141.22,38.95c-.09.23-.17.45-.28.6.23.04.4.03.28-.6Z"/>
        <path class="cls-2" d="m116.65,47.91s0,0,0-.02c-.03,0-.05.01-.08.02h.08Z"/>
        <path class="cls-2" d="m140.38,39.64c.26.18.43.09.56-.09-.19-.04-.42-.11-.56.09Z"/>
        <path class="cls-2" d="m180.81,32.89l.13.02c-.02-.07-.02-.13-.02-.18l-.11.16Z"/>
        <path class="cls-2" d="m180.92,32.73l.11-.16c-.06.01-.11.03-.11.16Z"/>
        <path class="cls-2" d="m181.26,32.24l-.23.33c.1-.02.23,0,.23-.33Z"/>
        <path class="cls-2" d="m177.36,33.05l.04.41c0-.09,0-.22-.04-.41Z"/>
        <path class="cls-2" d="m176.36,33.37c.26.04.78.73,1.07.41l-.03-.32c-.04.63-.94-.81-1.04-.09Z"/>
        <path class="cls-2" d="m171.13,29.28l.92.15c-.23-.4-.54-.93-.18-1.11-1.33-1.06.41.91-.74.96Z"/>
        <path class="cls-2" d="m168.36,29.19c.42-.29-.13-.62-.15-.86-.21.45-.26.56.15.86Z"/>
        <path class="cls-2" d="m149.24,33l-.15-1.01c-.32.21.07.39.15,1.01Z"/>
        <polygon class="cls-2" points="146.62 38.92 147.09 39.47 147.07 38.52 146.62 38.92"/>
        <polygon class="cls-2" points="143.03 32.2 143.16 32.03 142.64 32.51 143.03 32.2"/>
        <path class="cls-2" d="m111,38.97l.35,1.21c.19-.27-.03-1.67-.35-1.21Z"/>
        <path class="cls-2" d="m97.39,43c-.27-.59-.74-.91-.86-.25.33.02.74.44.86.25Z"/>
        <polygon class="cls-2" points="55.41 49.29 55.61 48.82 55.15 49.27 55.41 49.29"/>
      </g>
      <g>
        <path class="cls-1" d="m30.85,17.33c.52-1.16,1.07-2.33,1.64-3.45.32-.61.89-.76,1.5-.44s.84.87.56,1.48c-.28.56-.52,1.12-.81,1.68.21-.04.37-.07.58-.1,8.43-1.52,13.69.39,14.58,5.36,1.26,6.99-4.93,12.92-18.99,17.33-.65.2-1.12-.05-1.32-.7-.2-.65.04-1.2.69-1.4,11.76-3.7,18.26-8.37,17.15-14.53-.72-4.01-5.59-4.97-11.71-3.87-.7.13-1.4.29-2.09.46-3.5,8.06-6.52,17.35-9.41,28.33-.17.71-.77.95-1.48.78-.71-.17-1.06-.66-.89-1.38,2.64-10.25,5.45-19.04,8.75-26.76-4.47,1.7-8.34,4.4-11.45,7.27-.48.43-1.08.41-1.55-.06-.47-.47-.5-1.11-.02-1.53,3.8-3.54,8.6-6.76,14.27-8.46Z"/>
        <path class="cls-1" d="m65.88,26.77c-.19-1.08-1.13-1.55-2.44-1.44.14.06.29.16.39.27.36.36.68.94.9,2.14.95,5.25-5.39,11.77-10.64,12.72-2.89.52-4.48-.69-4.88-2.92-1.12-6.2,7.18-13.24,13.17-14.32,3.14-.57,5.47.25,5.93,2.82.18.99.01,1.96-.47,2.82-.32.57-.94.68-1.51.36s-.58-.88-.44-1.5c.07-.31.06-.61,0-.94Zm-12.1,11.48c3.97-.71,9.37-5.83,8.61-10.04-.09-.5-.29-.89-.44-1.25-.21-.47-.26-.98.25-1.45-4.86,1.22-11.38,6.7-10.55,11.33.19,1.08.97,1.62,2.13,1.41Z"/>
        <path class="cls-1" d="m74.97,23.47c.1.58-.11,1.26-.49,2.01-1.52,3.39-2.86,6.15-2.54,7.93.11.62.48.98,1.3.83,1.74-.31,3.87-1.72,6.66-4.02.52-.43,1.09-.37,1.53.2.44.56.38,1.17-.14,1.6-3.18,2.49-5.84,4.08-7.86,4.45-2.4.43-3.58-.42-3.9-2.24-.49-2.73,2.19-8.25,2.76-9.55.21-.47.12-.53-.08-.67-.33-.2-.64-.7-.41-1.33.14-.41.43-.72,1-.82.95-.17,1.96.46,2.17,1.62Zm5.22-10.59c.51-.48,1.04-.4,1.51.11.48.51.49,1.06.02,1.53-1.79,1.69-3.11,3.12-4.28,4.7-.37.54-.99.65-1.53.28-.54-.37-.68-.94-.31-1.48,1.3-1.77,2.65-3.29,4.58-5.13Z"/>
        <path class="cls-1" d="m86.51,30.44c.03.17.09.24.21.22.12-.02.19-.12.4-.37,8.1-9.53,12.8-13.28,15.95-13.84,2.07-.37,3.32.43,3.64,2.2.26,1.45-.06,2.74-.91,5.16-.42,1.23-.87,2.5-.69,3.5.21,1.16,1.23,1.4,2.81,1.12,3.22-.58,6.73-2.71,9.46-5.08.48-.43,1.05-.32,1.49.2.44.52.42,1.12-.1,1.56-2.96,2.5-6.89,4.87-10.45,5.51-3.6.65-5.19-.39-5.59-2.62-.25-1.41.31-3.26.86-4.94.56-1.85.88-2.68.71-3.63-.11-.62-.58-.83-1.28-.71-2.44.44-6.67,4.66-14.28,13.12-.82.91-1.59,1.35-2.13,1.45-.95.17-2.11-.13-2.47-2.12-.53-2.94,1.37-8.74,3.63-13.29.32-.61.89-.76,1.54-.45s.84.87.56,1.48c-1.89,3.97-3.76,9.21-3.34,11.53Z"/>
        <path class="cls-1" d="m125.06,5.87c1.14-1.96,2.26-3.82,3.26-5.37.37-.58.95-.64,1.53-.28.58.37.76.89.39,1.47-.7,1.11-1.45,2.35-2.2,3.64,1.28-.23,2.57-.42,4.28-.64.67-.08,1.07.28,1.15.95.07.63-.22,1.15-.89,1.23-2.24.36-3.86.61-5.55.92-.17.03-.29.05-.45.08-1.33,2.33-2.57,4.69-3.54,6.66-1.49,3.09-3.56,7-3.08,9.69.28,1.57,1.33,2.15,3.23,1.81,3.27-.59,7.11-2.69,10.45-5.51.48-.43,1.05-.36,1.48.16.44.52.42,1.12-.1,1.56-3.62,2.91-7.54,5.28-11.84,6.06-3.06.55-5.12-.44-5.65-3.38-.61-3.39,1.67-7.81,3.4-11.45.75-1.5,1.68-3.25,2.64-5-4.77.99-10.01,2.27-15.3,3.69-.65.16-1.18-.13-1.34-.78-.16-.66.08-1.21.73-1.37,6.06-1.65,12.08-3.07,17.4-4.12Z"/>
        <path class="cls-1" d="m144.31,4.92c.68-.46,1.26-.57,1.83-.25.67.39.89,1.12.57,1.73-3.51,7.03-4.98,10.71-8.3,19.34-.26.69-.87.88-1.55.62-.69-.26-1.01-.84-.74-1.49,2.77-6.9,4.4-10.91,7.03-16.42-2.23,1.6-4.42,3.19-6.99,5.27-.52.44-1.14.33-1.57-.19-.44-.52-.42-1.16.1-1.6,3.92-3.14,6.61-5.03,9.62-7.03Z"/>
      </g>
    </g>
  </g>
</svg>