<?xml version="1.0" encoding="UTF-8"?>
<svg id="_レイヤー_2" data-name="レイヤー 2" xmlns="http://www.w3.org/2000/svg" viewBox="0 0 168.3 62.44">
  <defs>
    <style>
      .cls-1 {
        fill: #bda5d1;
      }

      .cls-1, .cls-2 {
        stroke-width: 0px;
      }

      .cls-2 {
        fill: #5b330a;
      }
    </style>
  </defs>
  <g id="_レイヤー_1-2" data-name="レイヤー 1">
    <g>
      <g>
        <path class="cls-2" d="m42.79,3.05c.87-.93,1.78-1.85,2.68-2.73.5-.47,1.09-.42,1.56.08.47.5.51,1.1.05,1.58-.45.44-.86.89-1.31,1.32.21.03.37.06.58.09,8.47,1.33,12.8,4.86,12.02,9.84-1.1,7.01-8.89,10.59-23.62,10.15-.68-.02-1.04-.42-1.02-1.1.02-.68.43-1.12,1.11-1.1,12.32.36,19.99-1.92,20.96-8.11.63-4.03-3.65-6.53-9.79-7.49-.71-.11-1.42-.18-2.13-.25-5.95,6.46-11.85,14.26-18.18,23.68-.39.62-1.04.65-1.66.25-.62-.39-.78-.97-.39-1.59,5.85-8.82,11.39-16.2,17.04-22.41-4.78.14-9.32,1.43-13.2,3.11-.59.25-1.15.03-1.44-.57s-.11-1.21.48-1.45c4.75-2.1,10.34-3.56,16.25-3.32Z"/>
        <path class="cls-2" d="m72.79,23.46c.17-1.08-.56-1.83-1.83-2.16.11.1.22.25.28.38.23.46.34,1.12.15,2.32-.83,5.27-8.95,9.35-14.22,8.52-2.9-.46-4-2.12-3.65-4.36.98-6.23,11.12-10.16,17.14-9.22,3.15.5,5.08,2.03,4.68,4.6-.16,1-.63,1.86-1.37,2.51-.49.43-1.12.33-1.55-.16-.43-.49-.27-1.02.08-1.56.17-.27.26-.56.31-.89Zm-15.2,6.88c3.98.63,10.76-2.44,11.42-6.67.08-.5.02-.93,0-1.32-.05-.52.07-1.01.71-1.29-4.99-.44-12.95,2.6-13.68,7.25-.17,1.08.39,1.85,1.55,2.03Z"/>
        <path class="cls-2" d="m82.46,23.32c-.09.58-.52,1.15-1.12,1.74-2.55,2.7-4.72,4.87-5,6.66-.1.62.13,1.08.96,1.21,1.74.27,4.22-.36,7.61-1.61.63-.24,1.15,0,1.38.68.23.67-.02,1.23-.66,1.47-3.82,1.31-6.85,1.94-8.89,1.62-2.41-.38-3.24-1.57-2.95-3.4.43-2.74,4.77-7.08,5.74-8.11.36-.37.29-.47.15-.66-.25-.29-.37-.87.05-1.4.27-.34.64-.54,1.22-.45.95.15,1.7,1.08,1.52,2.24Zm8.4-8.29c.64-.28,1.11-.04,1.39.6.28.64.11,1.17-.48,1.45-2.24,1.01-3.96,1.93-5.58,3.04-.53.38-1.15.29-1.54-.24-.38-.53-.34-1.12.19-1.5,1.81-1.25,3.58-2.24,6.01-3.35Z"/>
        <path class="cls-2" d="m91.08,33.68c-.03.17,0,.26.13.27.12.02.22-.05.5-.22,10.78-6.34,16.45-8.35,19.6-7.85,2.07.33,3,1.49,2.72,3.28-.23,1.45-.96,2.57-2.55,4.58-.8,1.02-1.64,2.08-1.8,3.08-.18,1.16.71,1.73,2.28,1.98,3.24.51,7.24-.35,10.6-1.7.59-.25,1.1.04,1.34.68.24.63.03,1.19-.61,1.44-3.62,1.39-8.11,2.34-11.68,1.78-3.61-.57-4.78-2.07-4.43-4.31.22-1.41,1.36-2.98,2.43-4.38,1.14-1.56,1.71-2.24,1.86-3.19.1-.62-.27-.98-.98-1.09-2.45-.38-7.83,2.21-17.79,7.71-1.07.6-1.95.76-2.49.67-.95-.15-1.96-.82-1.64-2.81.46-2.95,4.16-7.81,7.78-11.37.5-.47,1.09-.42,1.6.08.52.51.51,1.1.05,1.58-3.09,3.13-6.57,7.47-6.94,9.8Z"/>
        <path class="cls-2" d="m135.55,23.1c1.72-1.47,3.38-2.87,4.84-4,.53-.43,1.11-.29,1.54.24.43.53.42,1.09-.11,1.51-1.02.82-2.15,1.75-3.28,2.72,1.29.2,2.57.45,4.25.8.66.15.92.61.78,1.27-.14.62-.58,1.01-1.24.87-2.23-.39-3.85-.69-5.55-.96-.17-.03-.29-.05-.46-.07-2.02,1.77-3.96,3.59-5.53,5.13-2.42,2.43-5.66,5.45-6.08,8.14-.25,1.58.55,2.47,2.46,2.77,3.28.51,7.6-.21,11.68-1.78.59-.25,1.11,0,1.35.64.24.63.03,1.19-.61,1.44-4.37,1.57-8.86,2.52-13.17,1.84-3.07-.48-4.69-2.1-4.23-5.04.53-3.4,4.13-6.83,6.97-9.71,1.2-1.17,2.65-2.52,4.14-3.86-4.83-.63-10.2-1.13-15.66-1.52-.67-.06-1.07-.51-1.01-1.18.06-.67.47-1.12,1.14-1.05,6.27.43,12.42,1.06,17.79,1.81Z"/>
        <path class="cls-2" d="m146.2,39.49c5.72-.68,9.04-2.62,9.48-5.4.34-2.16-1.1-3.57-3.88-4.01-2.2-.35-4.56.3-6.71,1.33-.6.29-1.21.15-1.55-.41-.33-.6-.23-1.23.41-1.55,2.4-1.2,5.33-2.01,8.57-1.5,4.19.66,6.27,2.85,5.73,6.3-.54,3.44-4.39,6.03-10.17,7.08.9,1.33,1.1,2.77.88,4.18-.67,4.27-4.51,7.03-10.73,6.05-2.07-.33-4-1.05-5.28-1.85-.66-.4-.69-1.04-.25-1.65.43-.57,1-.69,1.62-.3,1.24.79,2.71,1.4,4.5,1.68,4.23.66,7.06-.85,7.57-4.04.22-1.41-.18-2.62-1.47-3.63-.9.07-1.84.09-2.78.12-.68-.02-1-.41-.98-1.05.01-.64.38-1.05,1.02-1.07.34.01.72-.01,1.07-.04.01-.08.07-.2.13-.28.45-.7,1.12-.93,1.83-.56.4.19.7.41,1.01.63Z"/>
      </g>
      <g>
        <path class="cls-1" d="m167.58,61.99c.14-.33.21-1.11-.05-.99l-.38,1.28.43-.29Z"/>
        <path class="cls-1" d="m166.32,59.31c-.39.59-.89,1.65-.89,2.88.48-1.21.47-.68,1.01-2.13.27-.11.36.49.24.96.14-.32.33.35.59-.45-.16-1.06-.55-1.17-1.1-.4-.04-.3.1-.63.15-.87Z"/>
        <path class="cls-1" d="m142.88,53.54l.13.18c-.03-.09-.07-.15-.13-.18Z"/>
        <path class="cls-1" d="m128.27,50.51c.12-.01.18-.14.21-.25-.12.07-.22.14-.21.25Z"/>
        <path class="cls-1" d="m125.98,48.68s.09.08.13.11c-.04-.13-.08-.21-.13-.11Z"/>
        <path class="cls-1" d="m142.88,53.54l-.33-.47c-.09.42.15.35.33.47Z"/>
        <path class="cls-1" d="m162.55,61.95c.09-.05.18-.16.27-.31-.08.05-.15.08-.22.11-.02.07-.03.13-.05.2Z"/>
        <path class="cls-1" d="m149.54,53.5l.12.02c.06-.14.12-.32.18-.52l-.3.5Z"/>
        <path class="cls-1" d="m154.55,54.08c-.1-.07-.32,1.04-.44,1.52.14-.45.25-.65.37-.72.04-.21.06-.47.07-.79Z"/>
        <path class="cls-1" d="m162.14,57.28l.16-.13s-.11.08-.16.13Z"/>
        <path class="cls-1" d="m146.01,52.7c.02-.17.02-.31.02-.4-.02.14-.02.28-.02.4Z"/>
        <path class="cls-1" d="m5.39,39.18c.02-.08.02-.13.03-.2-.05.11-.07.18-.03.2Z"/>
        <path class="cls-1" d="m.48,32.77l.09-.05c.04-.21.08-.41.12-.62l-.2.67Z"/>
        <path class="cls-1" d="m121.61,46.53s0,.01.02.02c.14-.11.07-.1-.02-.02Z"/>
        <path class="cls-1" d="m79.25,40.72c.32,1.07-.98,1.15-.43,2.37,0-.44.93-1.63.43-2.37Z"/>
        <path class="cls-1" d="m162.44,61.79c-.07,0-.14,0-.21-.02.09.05.15.06.21.02Z"/>
        <path class="cls-1" d="m78.81,43.09s0,0,0,0l.06.12c-.02-.05-.04-.08-.06-.13Z"/>
        <path class="cls-1" d="m110.9,45.54c0,.2,0,.35.03.5.01-.11.01-.26-.03-.5Z"/>
        <path class="cls-1" d="m118.55,48.36l-.17-.18c.06.11.12.16.17.18Z"/>
        <path class="cls-1" d="m106.55,46.46c-.09-.1-.1-.26-.27-.13,0,.06.01.1.02.14.08-.14.16-.2.25,0Z"/>
        <path class="cls-1" d="m102.29,45.8c0,.09.03.16.04.24.05-.02.1-.03.14-.04l-.19-.2Z"/>
        <path class="cls-1" d="m18.44,40.68c-.04-.33-.05-.68-.04-1.03-.06.8-.73.98.04,1.03Z"/>
        <path class="cls-1" d="m162.65,61.33c-.07.28-.13.41-.2.46.05,0,.1-.02.15-.04.04-.16.07-.32.05-.42Z"/>
        <path class="cls-1" d="m105.01,55.2l-.65-.27c.17.14.41.23.65.27Z"/>
        <path class="cls-1" d="m49.08,45.33l-.18.11c.06.03.12.01.18-.11Z"/>
        <path class="cls-1" d="m102.32,54.77c-.06-.41-.15-.66-.26-.83-.04.08-.08.15-.12.27l.38.55Z"/>
        <path class="cls-1" d="m18.4,39.64s0,.01,0,.01c0,0,0,0,0-.01Z"/>
        <path class="cls-1" d="m13.52,41.58c.64.13.53-1.38.8-2.2.84-.29.19,1.13.33,1.92.54-.31,1.12-1.59,1.47-1.48-.01.24.05.34-.08.63.69-1.08,1.52.18,2.34-1.18.02.14.03.26.02.37.02-.75.12-1.49.22-2.02.29.02.68-.84.64.13-.17-.06-.25.33-.38.61l.37-.37c.06,1.41-.49.41-.65,1.43.66-.35,1.53-1.38,1.92-.92-.12,1.36-1.13.29-.71,1.57l-.62-.62c.2,2.2-.4-.21-.27,2.13.86.53,1.14-.52,2,.01.32-.71.1-1.11.43-1.83,1.52-1.13.5,3.54,1.74,1.9.39-.86.75-2.54,1.3-1.53l-.47,1.48c.87.29.85-2.1,1.63-.93-.26.57-.78.39-.67.59.42,1.29.56-.79,1.03-.72l-.11,1.36c.99-.06,2.19-.87,3.28-.95-.12.39-.37.78-.19,1.23,1.44-.46,2.81.61,3.97,1.61l.67-1.08c.11.03.13.56-.03.76.43.52.14-.73.45-1.15.3-.04.27.73.04,1.05,1.04-.84,2.84-1.72,3.58-.34l-.23.32c.65.58,1.19-2.25,1.69-1.06l-.16.19c1.49.75,3.39-.04,4.32,1.9.49-1.63,1.44.99,1.9-1.33.72,1.3.39,1.67,1.53,2.65.32.16.73-1.38,1.19-1.55l-.18,1.22.77-1.19.07,1.5.44-.25c-.15-.1-.25-.6-.17-.95.7-.45,1.36,1.08,1.27,1.71l1.61-.8c-.11.48-.38.61-.62.9.97-1.12-.06,1.31.82.28-.05-.29.17-.72.22-.96.24.79,1.04.92,1.68.71l-.25.82c1.04.38,2.32-.05,3.52.16-.37-.46-.04-1.9.33-1.98l-.06,1.31c.35-.76-.29-.54.33-1.44.43.22.07,1.51-.25,1.89l.62-.36c-.03.39-.19.57-.3,1.06.35-.76.74,1.44,1.28.1l-.03.39c1.2.2,1.82-.16,2.81-.07.19-1.11.54-.8.97-1.65.66.47,1.33,1.47,2.21,1.51.7-.46.33-.91.7-1.53-.11,1.02.77,1.06.2,1.72,1.07,0,1.36,0,2.81-.61-.08-.44-.21-.64-.07-.98.27-.13.48.51.37.99l-.08.09c1.72-1.28,2.95,3.49,4.46,1.56l-.08.09,1.39-.91c.53.26-.46.71-.14,1.4,1.58-1.48,2.04.57,3.3-.38.37,3.12,3.01.26,3.84,2.34l.04-.71c.4-.64.29.46.48.65.06-.55-.22-.68.02-1.04,2.61-.46,4.96,1.83,7.4,2.86.9.33,1.1-3.55,2.01-1.69l-.54,1.25c2.12-1.27,3.83.66,5.88-.38-.16.28-.22.68-.4.64.24,1.01,1.43.27,1.56-.5.27.13-.04.71.07,1.13.3.62,1.17-1.06,1.23-.08.01.16-.16.29-.24.35.33-.42,1.16.3,1.09-.83.61.63,1.4-.28,1.84.45.55-1.17,1.09.77,1.47-.94-.33,1.78.98,1.63,1.55.86-.23.52.29.62,0,1.34.5.05,1.01-.21,1.07-1.14.58,2.28,2.11-1.43,2.2,1.39,1.63-.73,3.1-1.16,4.49-1.37-.33,1.78-1.5-.05-1.73,1.83,1.38-.54,2.34-1.95,3.53-1.33.29.29-.31.74-.46,1.03,1.38-.54,2.41.54,3.68-.25-.03.17-.18.33-.31.45.23-.02.47.34.57-.47l-.25.19c-.17-1.23,1.26-2.32,1.4-2.93-.74,2.26,1.02.76-.04,3.6.17-.13.41-.49.46-1.03.19.19.21.52-.11,1.1.86-.32.71-1.22,1.43-1.09-.06.39-.23.52-.38.97.48-.71.97-1.42,1.52-.99-.07.23-.05.55-.23.52,1.06.04,2.09-1.76,3.12-.84-.6,1.65.3.62.13,2.11l.68-.34-.13-.75c.53.11,1.18-.89,1.56-.33l-.5.55,1.05-.12-.48-.65c.66-.67.23-1.88.89-1.35-.17.13.54.1.68,1.02,0,0,0,0,0,0,.34-.43.69-.88,1.03-.45.03.49-.34,1.62-.32,1.94.46-1.19,1.31-.14,1.85-1.41-.16.29-.29,1.06-.27,1.23l.38-.97c.2.36.21.52.07,1.13.72.3.06-1.91.82-.96-.08.07-.07.22-.24.35.83.56,1.83-.36,2.57.26,0,1.52-.77.25-.69,1.55,1.23-.08,2.73-1.4,3.82-.87l-.19-.2c.49-2.07.69,1.17,1.42.27-.17.13-.37,1.13-.29.91.73.46,1.68-.26,2.98-.74l-.23.52c.39.55,1.17.47,1.63.79.23-.51.5-.38.45-1.19,1.06,3.31,3.19-1.18,4.16,1.59-.16-.02-.46.41-.33.43l1.24-.31c.05-.93-.07-.58-.2-1.33.23-.52.63-.89.92-.84-.62.52-.23,1.47-.08,2.01,0-.29.13-.58.16-.87.35,1.72.39-1.82,1.05-.6l-.12.47c.35-.2.73-.79,1.05-.6-.03,1.08-.41.44-.57,1.31.48.01,1.24-1.86,1.5-.74-.25.26-.53.22-.78.48.27,1.31.37,1.01.69,1.26l-.03-.03.71.69-.15-.37c1.02-2.66,1.28-.32,2.35-1.99-1.04,1.59-.28.97-.53,2.16.15.36.4.78.26,1.11.53-.91.51.86,1.26-.47-.04.39.4.1.16,1.05.54-.23,0-.69.11-1.17.96-1.2,1.52,1.87,2.88.24,1.05-.6,1.42-1.87,2.39-2.38.19.66-.46,1.37-.46,1.37.38.64.75.59,1.27.22-.14.32-.09.62-.03,1.07.37-.04.46-1.37.84-.72-.15.42-.36,1.09-.6,1.49.48-.29,1-.94,1.49-1.22,0,.69-.42.98-.64,1.39.54-.23,1.36-.41,1.68-1.45l-.25-.43c.19-.02-.05.93-.21,1.1-.55.77-.55-.46-.51-.85l.35-.2c.04-2.31-1.3.17-1.9-.06l.52-1.6-.85,1.26c-.07-.45-.02-1.38.33-1.58-.32-.88-.49.52-.73-.44-.02-.15.01-.22.06-.28l-.51.42c.14-.33.11-1.17.34-.89-.63-1.07-1.46,1.03-1.55-.26l.08-.09c-1.17.39-.29,1.19-1.33,2.48l-.08-3.06-.3,1.19c-.1-.06-.31-.19-.2-.66-.55.76-.01.54-.38,1.28-.37-1.18-1.57.28-1.39-1.66-.34.89.4.79-.27,1.34.16-2.09-.72.25-1.06-.78.32-1.04.7-.4.35-1.44-.58,1.76-.9-.54-1.37-.26-.24,1.43-1,.46-1.77.83.12-.47-1.19-.99-1.76-1.62l.06-.24c-.35,1.43-.98,1.05-1.51,1.28.16-.87.3-1.19.62-1.54l-.46-.07c-.18.45-.36.67-.69.79l.29-1.07c-.62-.04-1.43,1.08-2.1.24-.2,1.01.18,2.92-.75,3.46.06-.55.17-1.49.42-1.68-.08.06-.32.41-.43.16l.48-.87c-.29-.46-.31.74-.58.61.13-.78-.12-.59.01-1.2.08-.06.2.36.36.07-.3-.19-.62-.71-.65-1.33-.04.45-.17,1.05-.42,1.11-.62-.04-.06-.97-.35-1.43-.23.52-.53-.1-.73,1.06-.18-.03-.12-.58-.14-.91-.4.47-1.5-.08-1.34,1.21l.07.09s-.04.02-.06.04h0s0,0,0,0c-1.22,1-2.04-1-3.15-.66l.06-.39c-.68.35-1.4.05-1.97.82-.18-.03-.32-.78-.17-1.23-.51.22-.64.65-1.21-.1.58-.61-.07-.63.56-.42-.56-.43-.59-1.08-1.42-.12.38-.96-.26-1.33-.6-1.08l.31.78c-.35.09-.62-.04-.89-.17l.36-1.29c-.99-1.8-2.67,2.37-3.2-.46-.47.87.57.75.11,1.78-.54-.27-.85-2.25-1.02-2.28-.67-.85-1.03,1.81-1.78,1.18.03.48-.07,1.75-.75,2.1-.55-.26-.4-2.08.03-2.4.14-.02.19.14.16.3.21-.14.49-.3.34-.85l-.15.46c-.21-.52-1.01-.6-.7-1.34-.5.38-.31.74-.02,1.03-.63-.79-1.15-.2-1.83-.78.08.28.1.85-.01.82-1.02-.76-.63.81-1.41.9-.31-.78.42-1.68-.43-1.2-.39-.56.1-1.26.34-1.61-.83.8-1.2-.8-1.56-1.02l.42-.32c-.25.19-.43.16-.61.12l.06.97c-.19-.2-.37-.23-.3-.62-.32.58-.08,1.59-.64,2.36-.21-.52-.95.38-.85-.88.83.56.1-1.27.89-1.35-.17.13-.35.09-.53-.11-.01-.14.07-.25.14-.32-.68-1.25-.61,1.35-1.5,1.18.22-.68,0-1.36-.17-1.24.35.07-.01,1.2-.42,1.68-.48-.64-.68.31-.97.2l.3.31c-.23.68-.5.55-.93.7.05-.55.42-.32.32-.58-.63,1.16-.79-1.43-1.54-.7-.21-.52.18-1.32-.02-1.68-.83.8-.59-1.08-1.43-.44.06.98.13.75-.52,1.59l1.29-.48-.98,1.25c.36.07.85-.47,1.04-.28-.48.71-.41.48-.36,1.29-.27-1.49-1.1.67-1.52-.37l.38-2.33c-.69-1.17-1.7.96-2.72.2l.29.46c-.29.9-.7.02-1.12.34.16-.78-.02-1.09-.1-1.6-.07.58-.8-.18-1.15,1.36l-.33-1.11c-.83-.56-1.37,2.06-2.19,1.66.39-.81.09-1.42.76-1.94-.29-.05-.52-.24-.61.3-.09-.52-.96.93-1.11.14-.17.32-.34,1.13-.65,1.02-.01-.16.06-.39.06-.39-.06.39-.59.45-.44,1.35-.5-2.57-2.5-.21-2.94-2.42-.67.16-1.46.3-2.04.26.07-.23.06-.39.16-.29-.67-.85-.83,2.16-1.6,1.21-.26-1.33.58-.61.37-1.13.28-2.59-1.13.18-1.5-1.41l.17-.13c-.32-.94-1.27.8-1.99.5,0,0,.07-.22.06-.39-.72,1.23-1.76,1.51-2.54,1.76.38-.97.41-.48.43-1.52-.35.09-.16,1.65-.85,1.84-.12-.58-.51-1.14-.4-2.24l.62.04c-.09-1.46-.8-.08-1.08-.37l.14-.61c-.96.05-1.22,1.6-2.21,1.34l.03.48c-.79,1.45-.32-.94-1.05.12l.08-1.59c-.42.32-1.5,1.31-2.2,1.5.55-1.1,1.4-1.57,1.98-2.18-.36-.07-1.24-.08-1.54.66.17-.13.41-.48.52-.22-.63,1.16-1.31,1.67-2.02,1.53.6-3-1.74-1.05-1.89-3.49-1.44.92-2.43-.87-3.93-.92.15,2.43-.44,0-.73,2.43-.37.1-.49.04-.5-.12l-.81-1.61c-.14-.74.41-.48.46-1.03-.72-.3-.15-1.07-.55-1.79-.03.88-.46,1.2-.83.8l.43,1.21c-1.25,1.12-.59-2.17-1.85-1.06l.45-.71c-.61.36-2-.33-2.84,1.53-.05-.29-.08-.97.19-1.11-1.25-.49-3.21,1.61-4.03.26l.19-.57c-.27.13-.6,1.04-.81.4.05-.24.19-.57.08-.63-.16.18-.81.93-1.07.54l.38-.62c-1.14-.97-2.2,1.31-3.32,1.55.28-1.74-.63-2.46-1.08-2.82l.06-.24c-1.44-.45-2.73,1.05-4.2,1.52-.55-2.02-2.75-1.24-3.94-2.51.16.35-.25,1.35-.52,1.49-.26-.4-1.07,1.07-.77-.52l.11.05c0-1.6-.72-1.29-1.22-1.41l-.41,2.07c-.86-3.25-3.69.56-3.99-2.27-.41.47-.81.4-1.21.87l.19-1.12c-.85-.43-1.28-.64-2.43-.54l.35-.76c-.61-.17-1.3,3.1-1.88,3.08l.09-1.7c-1.09-.15-1.97-1.78-3.28-.44.06-.24.16-.72.35-.76-.51-.12-1.81-1.44-1.98.88.22-1.49-1.1-.32-1.79.24l.26-1.09c-.72,1.33-.79,1.71-1.55,1.99-.14-.17,0-.9.17-.59-.46-.66-.59.98-1.16.29l.36-.66c-.55-.17-.56.21-1,.98-.42.39-1.03-.45-.95-1.45-.17.6-.61,1.36-.9,1.02.01-.38.17-.6.25-.7-.83-.9-1.6,1.06-2.08-.12.04-.37.03-.56,0-.67.75.14,1.34.3,1.27.37.16-1.02-.42-1.29.28-2.61-.61.69-1.7,2.22-2.21,1.65-.01-.1-.03-.2-.02-.36l.08-.1c-.12-.12-.26-.05-.4.11-.16-.2-.26-.34-.44-.38.06-.85-.62-.56-.92-.65-.15,1.12-.52.87-.29,1.85-.04-.09.08-.12.29-.14.05-.03.11-.03.15-.09-.01.03-.02.06-.04.09.2,0,.47.01.76.04-.33.53-.65.96-.89.29-.27.69-.55,1.4-.7,1.73-.17-1.61-.83-2.58-.8-3.55-1.02.48-2.24.07-3.14,2.07-.3.23-.21-.65-.25-.99.18-.19.36-.13.49-.41-.61.45-1.58-.04-1.94,1.4-.56-.76.58-1.28-.36-1.19l.19-.43c-1.42-2.61-3.49,3.27-5-.04.11.2.16.3.15.55-2.05-1.67-4.84.51-6.74-1.93-.57-.52-.78.4-1.28,1.05l.05-1.21-.88,1.27c-1.09.86-1.16-3.18-2.65-1.46l.03.83c-.4-.22-1.42.26-1.21-.65-.07.14-.27.81-.37.37l.08-.63-1.21.91c-.74-.58.52-2.46-.65-2.77-.48.17-1.54,1.62-1.44,2.06.17.06.39.46.31,1.09l-.45.26c-.36,1.83-.97,3.66-.18,5.1l.86-1.02.08.93-.59-.03c.2.89.52.18.83-.29-.02.48.03.83.13,1.03l.95-1.65c-.03.73-.53,1.38-.14,1.85.44-.77-.05-1.66.56-2.12.2.89,0,1.55.49.9-.02.48-.15.77-.33.96.43-.51.95-.1,1.28-1.05.18,1.09,1.2-.09.9,1.65.17-.4.82-1.27,1.15-1.29-.9,1.99,1.16.31.66,2.52.72-1.81,1.67-.59,2.59-1.51-.07.14-.2.43-.25.32.4.22.44.81.65,1.2.3-1.54,1.02-1.79,1.52-2.69.29,1.58-.6,1.77-.66,3.23.17-1.26,1.1-1.11,1.09-2.18.25.99.27.5.28,1.82.37-1.93.42-.27.94-1.41.43,1.04-.14,1.84.59,1.35.21.64-.46,1.24-.46,1.24Zm15.61-.98s0,.02,0,.02c-.13,0-.25,0-.32.01.07,0,.16-.01.32-.04Zm1.27.18c-.15-.07-.34-.11-.54-.13.02-.39.13-.78.25-.74-.11.24.15.51.29.87Zm-1.47-8.12c.23-.13.26.1.25.33-.1,0-.21.02-.37.08-.01.04-.03.09-.05.13.05-.21.11-.4.17-.55Z"/>
        <path class="cls-1" d="m28.34,34.06s-.06.06-.1.07c.03.1.05.19.08.27.04-.11.09-.23.13-.34-.04,0-.08,0-.11,0Z"/>
        <path class="cls-1" d="m143.03,53.75l-.02-.03s.03.09.03.17c0-.06,0-.09,0-.14Z"/>
        <polygon class="cls-1" points="47.58 45.65 47.62 45.37 47.47 45.6 47.58 45.65"/>
        <path class="cls-1" d="m149.42,58.66c0,.1,0,.2.05.3,0-.07-.02-.18-.05-.3Z"/>
        <path class="cls-1" d="m152.39,59.38l.36.46c-.15-.25-.27-.38-.36-.46Z"/>
        <path class="cls-1" d="m154.63,60.3c.06-.19.09-.34.12-.47,0,0,0,0,0,0l-.12.48Z"/>
        <path class="cls-1" d="m117.54,55.81s-.07.01-.1.04c-.24.18-.09.12.1-.04Z"/>
        <path class="cls-1" d="m128.93,54.94c-.15.18-.29.36-.44.47.18.12.33.16.44-.47Z"/>
        <path class="cls-1" d="m105.08,55.23s0,0,0-.02c-.03,0-.05,0-.08-.01l.07.03Z"/>
        <path class="cls-1" d="m127.98,55.31c.16.25.33.23.51.1-.15-.1-.32-.24-.51-.1Z"/>
        <path class="cls-1" d="m164.6,62.38l.1.06c0-.07.03-.13.04-.18l-.15.11Z"/>
        <path class="cls-1" d="m164.75,62.27l.15-.11c-.06,0-.11,0-.15.11Z"/>
        <path class="cls-1" d="m165.2,61.92l-.31.24c.09.02.2.07.31-.24Z"/>
        <path class="cls-1" d="m161.61,61.39l-.1.4c.03-.08.06-.21.1-.4Z"/>
        <path class="cls-1" d="m160.66,61.36c.21.13.42.95.77.74l.08-.32c-.24.58-.54-1.07-.85-.43Z"/>
        <path class="cls-1" d="m157.55,55.77l.73.44c-.07-.45-.16-1.06.21-1.1-.78-1.44.05.99-.94.66Z"/>
        <path class="cls-1" d="m155.22,54.76c.45-.13.09-.62.15-.86-.33.35-.41.44-.15.86Z"/>
        <path class="cls-1" d="m137.7,52.01l.2-1c-.35.09-.06.39-.2,1Z"/>
        <polygon class="cls-1" points="133.53 56.71 133.75 57.38 134.04 56.48 133.53 56.71"/>
        <polygon class="cls-1" points="132.68 49.2 132.85 49.07 132.25 49.35 132.68 49.2"/>
        <path class="cls-1" d="m103.2,44.93l-.1,1.26c.25-.19.52-1.58.1-1.26Z"/>
        <path class="cls-1" d="m90.3,44.21c-.04-.64-.33-1.1-.65-.52.27.13.48.66.65.52Z"/>
        <polygon class="cls-1" points="52.52 36.2 52.84 35.82 52.3 36.09 52.52 36.2"/>
      </g>
    </g>
  </g>
</svg>