<?xml version="1.0" encoding="UTF-8"?>
<svg id="_レイヤー_2" data-name="レイヤー 2" xmlns="http://www.w3.org/2000/svg" viewBox="0 0 172.84 68.93">
  <defs>
    <style>
      .cls-1 {
        fill: #5b330a;
      }

      .cls-1, .cls-2 {
        stroke-width: 0px;
      }

      .cls-2 {
        fill: #f79bae;
      }
    </style>
  </defs>
  <g id="_レイヤー_1-2" data-name="レイヤー 1">
    <g>
      <g>
        <g>
          <path class="cls-2" d="m171.87,68.65c.16-.32.27-1.09,0-.99l-.45,1.26.46-.26Z"/>
          <path class="cls-2" d="m170.7,65.89c-.43.57-1,1.6-1.06,2.83.55-1.18.51-.65,1.14-2.06.28-.1.35.51.2.98.16-.31.33.37.63-.42-.11-1.07-.52-1.2-1.12-.46-.03-.3.13-.62.2-.86Z"/>
          <path class="cls-2" d="m146.76,58.72l.12.19c-.02-.09-.07-.15-.12-.19Z"/>
          <path class="cls-2" d="m131.82,54.82c.12,0,.2-.13.23-.24-.12.06-.23.12-.23.24Z"/>
          <path class="cls-2" d="m129.54,52.84c.05.05.09.08.13.12-.03-.13-.08-.21-.13-.12Z"/>
          <path class="cls-2" d="m146.76,58.72l-.32-.49c-.12.42.14.36.32.49Z"/>
          <path class="cls-2" d="m166.68,68.31c.1-.05.19-.15.29-.29-.08.04-.16.07-.23.09-.02.07-.03.13-.06.2Z"/>
          <path class="cls-2" d="m153.64,59.08l.12.02c.07-.14.14-.31.21-.5l-.34.48Z"/>
          <path class="cls-2" d="m158.79,59.96c-.11-.07-.38,1.02-.52,1.49.16-.44.29-.64.41-.7.05-.21.08-.46.11-.79Z"/>
          <path class="cls-2" d="m166.48,63.61l.18-.12s-.12.07-.18.12Z"/>
          <path class="cls-2" d="m150.04,58.07c.03-.17.04-.31.04-.4-.03.14-.04.27-.04.4Z"/>
          <path class="cls-2" d="m5.43,36.12c.02-.08.03-.13.04-.2-.05.1-.08.18-.04.2Z"/>
          <path class="cls-2" d="m.66,29.42l.09-.04c.05-.21.1-.41.15-.61l-.24.65Z"/>
          <path class="cls-2" d="m125.12,50.44s0,.02.02.03c.15-.1.08-.09-.02-.03Z"/>
          <path class="cls-2" d="m81.64,42.09c.28,1.09-1.07,1.09-.56,2.34.02-.44,1.03-1.57.56-2.34Z"/>
          <path class="cls-2" d="m166.58,68.14c-.07,0-.14,0-.21-.03.09.06.15.06.21.03Z"/>
          <path class="cls-2" d="m81.08,44.43s0,0,0,0l.05.12c-.02-.05-.03-.09-.05-.13Z"/>
          <path class="cls-2" d="m114.11,48.8c-.02.2,0,.35,0,.5.02-.11.02-.26,0-.5Z"/>
          <path class="cls-2" d="m121.88,52.08l-.17-.19c.06.12.12.17.17.19Z"/>
          <path class="cls-2" d="m109.58,49.46c-.09-.11-.1-.27-.28-.15,0,.06,0,.1.02.14.09-.14.17-.19.26,0Z"/>
          <path class="cls-2" d="m105.2,48.54c0,.09.02.16.03.24.05-.01.1-.02.15-.03l-.19-.21Z"/>
          <path class="cls-2" d="m18.84,38.4c-.03-.33-.02-.68,0-1.03-.1.8-.8.94,0,1.03Z"/>
          <path class="cls-2" d="m166.81,67.69c-.08.27-.15.4-.23.45.05,0,.11-.01.16-.03.05-.16.08-.31.07-.42Z"/>
          <path class="cls-2" d="m107.57,58.1l-.66-.31c.17.15.41.26.66.31Z"/>
          <path class="cls-2" d="m50.26,44.89l-.19.1c.06.04.12.02.19-.1Z"/>
          <path class="cls-2" d="m104.81,57.52c-.04-.41-.13-.67-.23-.84-.05.08-.09.14-.14.27l.37.58Z"/>
          <path class="cls-2" d="m18.84,37.36s0,.01,0,.01c0,0,0,0,0-.01Z"/>
          <path class="cls-2" d="m13.71,39.01c.66.17.61-1.35.93-2.15.88-.24.14,1.14.25,1.94.57-.28,1.23-1.52,1.59-1.39-.02.24.03.35-.12.63.77-1.04,1.56.27,2.48-1.04.02.14.02.26,0,.37.05-.74.19-1.48.33-2,.3.04.74-.8.66.17-.18-.07-.27.31-.42.59l.4-.35c0,1.42-.52.38-.74,1.39.7-.31,1.65-1.29,2.03-.81-.18,1.35-1.18.22-.81,1.53l-.61-.66c.11,2.21-.41-.24-.38,2.11.87.59,1.2-.45,2.06.13.37-.69.16-1.11.53-1.8,1.62-1.04.35,3.57,1.71,2,.44-.83.9-2.49,1.41-1.45l-.56,1.45c.89.34.98-2.05,1.73-.84-.3.55-.83.35-.73.55.37,1.32.62-.76,1.1-.66l-.18,1.35c1.02,0,2.3-.74,3.43-.75-.14.38-.42.76-.25,1.22,1.5-.38,2.88.78,4.02,1.85l.75-1.04c.11.04.11.56-.07.76.42.54.18-.72.52-1.12.31-.02.25.74-.01,1.05,1.11-.78,3.02-1.55,3.71-.12l-.26.3c.64.62,1.34-2.18,1.8-.96l-.17.18c1.5.84,3.51.16,4.37,2.16.58-1.61,1.44,1.07,2.03-1.21.68,1.34.33,1.69,1.46,2.74.32.18.82-1.33,1.3-1.48l-.24,1.21.85-1.14v1.51s.47-.22.47-.22c-.14-.1-.23-.61-.13-.96.74-.41,1.35,1.16,1.23,1.79l1.7-.71c-.14.48-.42.59-.68.86,1.05-1.06-.12,1.3.84.33-.04-.29.2-.71.27-.95.21.81,1.03.99,1.7.81l-.29.81c1.05.44,2.4.09,3.63.37-.36-.48.05-1.9.44-1.96l-.12,1.3c.4-.74-.28-.56.41-1.42.43.24,0,1.52-.35,1.87l.65-.32c-.05.39-.22.56-.36,1.04.4-.74.7,1.48,1.32.18l-.05.39c1.23.27,1.88-.05,2.9.1.25-1.1.59-.77,1.08-1.6.66.51,1.3,1.54,2.21,1.64.74-.42.38-.89.8-1.49-.17,1.01.74,1.11.13,1.73,1.1.06,1.41.09,2.93-.44-.06-.44-.19-.66-.03-.98.28-.11.47.54.33,1.01l-.09.09c1.83-1.18,2.88,3.66,4.53,1.83l-.09.09,1.48-.82c.54.3-.5.68-.21,1.39,1.7-1.39,2.08.69,3.43-.18.23,3.14,3.1.44,3.86,2.57l.08-.71c.44-.62.28.48.47.68.08-.55-.19-.69.07-1.03,2.72-.3,5.03,2.13,7.51,3.31.91.39,1.3-3.49,2.15-1.57l-.61,1.22c2.25-1.15,3.92.89,6.09-.03-.18.27-.26.66-.44.62.2,1.02,1.46.36,1.63-.41.27.15-.08.71.02,1.14.28.64,1.26-.99,1.27,0,0,.16-.18.28-.27.34.36-.4,1.19.37,1.17-.76.6.67,1.46-.2,1.88.57.62-1.13,1.09.84,1.57-.85-.43,1.76.94,1.69,1.56.95-.26.5.27.64-.06,1.34.52.08,1.05-.15,1.16-1.07.49,2.32,2.25-1.31,2.21,1.52,1.72-.63,3.26-.98,4.71-1.1-.42,1.76-1.54-.14-1.88,1.72,1.45-.45,2.51-1.81,3.71-1.11.28.31-.35.73-.53,1,1.45-.45,2.46.69,3.82-.03-.04.16-.2.32-.35.43.24-.01.47.37.62-.44l-.27.17c-.12-1.24,1.41-2.24,1.58-2.85-.87,2.22,1.01.82-.21,3.6.18-.12.45-.46.53-1.01.19.2.19.53-.16,1.1.9-.27.8-1.18,1.53-1.01-.08.39-.27.51-.44.95.53-.68,1.07-1.36,1.62-.9-.09.23-.08.55-.26.5,1.09.11,2.25-1.63,3.26-.65-.7,1.61.28.64.03,2.11l.72-.3-.1-.76c.55.14,1.26-.82,1.63-.24l-.54.52,1.09-.06-.47-.68c.72-.63.33-1.86.98-1.3-.18.12.55.13.65,1.06,0,0,0,0,0,0,.37-.41.76-.84,1.09-.39,0,.49-.43,1.6-.42,1.92.53-1.16,1.36-.07,1.98-1.29-.18.28-.35,1.05-.34,1.21l.44-.94c.19.37.19.53.02,1.14.73.34.15-1.91.89-.91-.09.07-.09.22-.27.34.83.61,1.9-.26,2.64.41-.06,1.52-.81.2-.79,1.5,1.27,0,2.89-1.23,3.99-.64l-.18-.21c.6-2.04.66,1.21,1.46.36-.18.12-.43,1.11-.35.89.73.5,1.75-.16,3.11-.56l-.26.5c.37.58,1.19.54,1.65.89.26-.5.54-.35.53-1.16.94,3.37,3.36-.99,4.22,1.83-.17-.03-.5.38-.36.41l1.3-.24c.1-.92-.04-.58-.14-1.34.26-.5.69-.85.98-.79-.66.49-.3,1.45-.18,2.01.02-.29.16-.57.2-.86.28,1.74.49-1.8,1.11-.53l-.15.47c.37-.18.8-.74,1.11-.53-.08,1.08-.44.42-.65,1.27.5.04,1.37-1.78,1.59-.65-.27.25-.56.19-.83.44.22,1.33.34,1.03.65,1.3l-.03-.04.7.73-.14-.38c1.18-2.6,1.33-.24,2.53-1.85-1.15,1.52-.34.95-.65,2.12.14.37.38.81.22,1.12.59-.88.48.89,1.32-.39-.06.39.4.12.11,1.06.56-.19.02-.69.17-1.16,1.05-1.14,1.48,1.96,2.96.41,1.11-.53,1.56-1.78,2.58-2.24.17.67-.54,1.34-.54,1.34.36.66.75.64,1.3.3-.16.31-.13.62-.08,1.07.39-.02.54-1.34.9-.67-.17.41-.42,1.07-.69,1.46.5-.26,1.08-.88,1.6-1.13-.02.69-.48.95-.73,1.35.56-.19,1.42-.33,1.8-1.35l-.24-.44c.19-.01-.1.92-.27,1.09-.6.73-.54-.5-.48-.88l.37-.18c.15-2.31-1.35.09-1.96-.18l.61-1.57-.94,1.21c-.05-.45.05-1.38.41-1.56-.29-.9-.53.49-.73-.49-.01-.15.02-.22.08-.28l-.55.39c.16-.32.17-1.17.39-.87-.6-1.11-1.55.95-1.59-.35l.09-.09c-1.23.31-.36,1.17-1.49,2.4l.06-3.07-.36,1.17c-.11-.07-.31-.21-.17-.67-.6.73-.04.54-.45,1.25-.32-1.21-1.63.19-1.35-1.74-.39.87.38.81-.34,1.32.26-2.08-.76.21-1.06-.84.38-1.02.74-.36.43-1.41-.68,1.72-.9-.6-1.4-.35-.32,1.42-1.05.4-1.87.72.15-.47-1.18-1.06-1.74-1.72l.07-.23c-.43,1.41-1.06.99-1.62,1.19.2-.86.36-1.18.72-1.5l-.47-.09c-.21.44-.41.65-.75.75l.35-1.05c-.64-.07-1.53,1-2.18.11-.26.99.05,2.93-.94,3.41.08-.55.25-1.48.52-1.66-.09.05-.35.4-.45.13l.53-.84c-.28-.48-.35.72-.63.57.17-.77-.1-.6.07-1.2.09-.06.19.37.36.09-.3-.21-.6-.75-.61-1.36-.06.45-.22,1.04-.48,1.09-.64-.08-.02-.97-.3-1.45-.26.5-.55-.14-.8,1.02-.18-.04-.1-.59-.11-.92-.43.44-1.54-.17-1.44,1.13l.07.1s-.04.02-.06.04h0s0,0,0,0c-1.3.92-2.06-1.12-3.22-.85l.08-.39c-.72.31-1.45-.03-2.08.7-.19-.04-.29-.8-.11-1.24-.54.19-.69.61-1.25-.17.63-.57-.04-.63.6-.39-.55-.47-.56-1.11-1.46-.2.44-.94-.21-1.35-.57-1.11l.29.8c-.36.07-.64-.08-.92-.22l.44-1.27c-.94-1.85-2.87,2.21-3.28-.65-.53.84.56.79.03,1.79-.55-.3-.77-2.3-.95-2.34-.65-.89-1.15,1.74-1.89,1.07,0,.49-.15,1.75-.87,2.05-.55-.3-.31-2.1.14-2.39.15,0,.19.15.15.31.23-.13.52-.28.39-.83l-.17.45c-.19-.54-1.01-.66-.66-1.38-.54.35-.35.72-.07,1.03-.61-.83-1.17-.27-1.85-.89.07.28.07.85-.05.82-1.02-.82-.69.77-1.5.82-.29-.8.51-1.66-.39-1.23-.37-.58.16-1.25.43-1.59-.9.75-1.2-.87-1.57-1.12l.45-.3c-.27.18-.45.13-.64.09l.02.97c-.18-.21-.37-.25-.28-.64-.35.56-.15,1.58-.78,2.32-.19-.53-1,.32-.84-.94.83.61.16-1.26.98-1.29-.18.12-.36.07-.55-.14,0-.14.08-.25.16-.31-.64-1.29-.7,1.31-1.6,1.09.26-.67.07-1.36-.11-1.25.36.09-.07,1.2-.52,1.66-.47-.66-.72.27-1.01.14l.29.33c-.27.67-.54.52-.99.65.08-.55.45-.29.35-.56-.71,1.13-.75-1.48-1.56-.79-.19-.53.25-1.31.06-1.68-.9.75-.56-1.11-1.46-.53.02.98.1.76-.61,1.56l1.36-.4-1.07,1.19c.36.09.9-.42,1.09-.22-.53.68-.45.46-.43,1.27-.21-1.51-1.17.6-1.55-.46l.51-2.31c-.66-1.21-1.81.86-2.82.04l.28.48c-.35.89-.73-.02-1.17.27.2-.77.03-1.09-.03-1.61-.1.58-.82-.23-1.25,1.29l-.29-1.12c-.83-.61-1.51,1.98-2.34,1.53.44-.78.16-1.42.88-1.89-.29-.07-.53-.27-.65.27-.07-.52-1.04.87-1.15.08-.2.31-.41,1.11-.72.98,0-.16.08-.38.08-.38-.08.38-.63.41-.52,1.33-.4-2.6-2.57-.36-2.92-2.6-.7.12-1.52.21-2.12.14.09-.22.08-.38.18-.28-.65-.89-.96,2.11-1.71,1.12-.2-1.35.63-.57.44-1.11.41-2.57-1.18.11-1.48-1.5l.18-.12c-.29-.96-1.35.72-2.08.38,0,0,.08-.22.09-.38-.8,1.19-1.89,1.4-2.7,1.61.44-.95.45-.46.52-1.5-.36.07-.25,1.64-.97,1.79-.1-.59-.48-1.17-.31-2.26l.64.07c-.02-1.46-.82-.12-1.1-.44l.17-.6c-1,0-1.34,1.53-2.34,1.2v.48c-.88,1.4-.28-.96-1.08.06l.16-1.58c-.45.29-1.62,1.22-2.34,1.37.62-1.07,1.52-1.49,2.15-2.07-.37-.09-1.27-.15-1.63.57.18-.12.45-.46.54-.19-.71,1.12-1.43,1.59-2.16,1.41.76-2.97-1.75-1.16-1.79-3.6-1.53.83-2.47-1.02-4.02-1.16.04,2.44-.46-.03-.87,2.39-.38.08-.51,0-.51-.15l-.76-1.65c-.11-.75.45-.46.53-1-.73-.35-.11-1.08-.48-1.83-.08.88-.53,1.17-.9.75l.38,1.23c-1.35,1.05-.51-2.21-1.86-1.17l.5-.68c-.65.33-2.05-.45-3,1.36-.04-.3-.03-.98.25-1.1-1.27-.57-3.39,1.42-4.18.02l.22-.56c-.28.12-.66,1.01-.85.35.07-.24.22-.56.12-.62-.17.17-.88.89-1.13.48l.42-.6c-1.14-1.04-2.33,1.18-3.5,1.35.37-1.72-.54-2.5-.99-2.88l.07-.24c-1.47-.53-2.87.88-4.41,1.27-.47-2.05-2.78-1.41-3.95-2.75.15.36-.32,1.33-.6,1.46-.25-.42-1.16,1-.77-.56l.11.05c.08-1.6-.68-1.33-1.2-1.49l-.52,2.05c-.74-3.3-3.84.34-4.02-2.51-.44.45-.85.35-1.29.8l.25-1.1c-.86-.48-1.29-.71-2.48-.69l.4-.74c-.63-.21-1.48,3.02-2.09,2.96l.17-1.69c-1.12-.21-1.95-1.9-3.37-.64.07-.24.2-.71.4-.74-.52-.15-1.8-1.55-2.09.76.3-1.48-1.12-.39-1.87.14l.32-1.07c-.8,1.29-.9,1.66-1.69,1.9-.14-.18.04-.9.2-.58-.44-.69-.66.94-1.22.22l.4-.64c-.56-.21-.59.18-1.08.92-.46.36-1.04-.51-.92-1.51-.21.58-.69,1.32-.97.97.03-.38.21-.59.29-.69-.81-.95-1.71.96-2.15-.25.06-.36.06-.55.03-.67.76.19,1.37.38,1.29.45.21-1.01-.37-1.31.42-2.6-.66.65-1.86,2.12-2.36,1.52,0-.1-.02-.21,0-.36l.09-.1c-.12-.13-.26-.06-.42.08-.16-.21-.25-.35-.44-.41.1-.85-.62-.6-.92-.71-.21,1.11-.58.84-.39,1.83-.03-.09.09-.12.3-.12.05-.02.11-.03.16-.09-.01.03-.03.06-.04.09.21.01.48.04.78.09-.36.51-.72.92-.93.24-.31.67-.64,1.36-.81,1.68-.1-1.62-.74-2.63-.65-3.6-1.08.42-2.31-.06-3.34,1.88-.32.21-.18-.66-.22-1,.2-.17.38-.1.52-.38-.65.42-1.64-.13-2.07,1.29-.54-.79.66-1.25-.32-1.21l.22-.41c-1.34-2.69-3.75,3.06-5.16-.34.1.21.15.31.13.56-2.04-1.8-5.03.22-6.87-2.34-.56-.55-.83.35-1.37.97l.11-1.21-.97,1.22c-1.17.8-1.05-3.25-2.66-1.62v.83c-.42-.24-1.49.18-1.23-.72-.08.14-.32.8-.4.35l.12-.62-1.3.83c-.74-.62.65-2.43-.54-2.8-.5.14-1.66,1.53-1.58,1.98.18.07.38.48.27,1.11l-.48.23c-.46,1.81-1.17,3.61-.43,5.09l.94-.96.04.93-.61-.07c.16.9.53.21.88-.24-.04.48-.01.83.09,1.04l1.06-1.59c-.07.73-.61,1.35-.23,1.84.5-.74.03-1.66.68-2.08.16.9-.08,1.55.47.93-.04.48-.19.76-.39.94.47-.49.98-.04,1.37-.97.14,1.1,1.25-.01.85,1.7.2-.39.91-1.22,1.25-1.23-1.03,1.94,1.19.38.56,2.56.83-1.76,1.76-.49,2.75-1.36-.07.14-.22.42-.27.31.4.25.41.83.62,1.24.38-1.52,1.13-1.73,1.7-2.6.22,1.59-.71,1.73-.84,3.19.24-1.25,1.19-1.04,1.23-2.12.22,1,.26.52.2,1.83.48-1.9.45-.24,1.04-1.35.39,1.07-.23,1.83.55,1.38.19.65-.54,1.21-.54,1.21Zm16.18-.04s0,.02,0,.02c-.14,0-.26,0-.33,0,.07,0,.17,0,.34-.02Zm1.3.26c-.15-.08-.34-.13-.55-.16.03-.39.17-.77.29-.72-.12.24.14.52.26.88Zm-1.14-8.21c.24-.11.26.12.24.35-.1,0-.22.01-.39.06-.01.04-.04.08-.05.13.06-.21.13-.4.2-.53Z"/>
          <path class="cls-2" d="m29.38,32.38s-.06.06-.1.06c.02.11.04.2.07.27.05-.11.1-.22.15-.33-.04,0-.08,0-.11,0Z"/>
          <path class="cls-2" d="m146.91,58.94l-.02-.03s.03.1.02.17c0-.06,0-.09,0-.14Z"/>
          <polygon class="cls-2" points="48.7 45.12 48.76 44.85 48.59 45.06 48.7 45.12"/>
          <path class="cls-2" d="m153.27,64.23c0,.1,0,.21.03.3.01-.07,0-.18-.03-.3Z"/>
          <path class="cls-2" d="m156.31,65.13l.35.48c-.14-.26-.26-.4-.35-.48Z"/>
          <path class="cls-2" d="m158.58,66.18c.07-.19.11-.33.15-.46,0,0,0,0,0,0l-.14.47Z"/>
          <path class="cls-2" d="m120.49,59.47s-.07,0-.1.03c-.26.17-.1.11.1-.03Z"/>
          <path class="cls-2" d="m132.28,59.28c-.16.17-.32.35-.47.44.18.13.33.18.47-.44Z"/>
          <path class="cls-2" d="m107.64,58.14s0,0,0-.02c-.03,0-.05-.01-.08-.02l.07.04Z"/>
          <path class="cls-2" d="m131.29,59.6c.15.26.33.25.52.13-.15-.11-.32-.26-.52-.13Z"/>
          <path class="cls-2" d="m168.78,68.86l.1.07c.01-.07.03-.13.05-.17l-.16.1Z"/>
          <path class="cls-2" d="m168.94,68.75l.15-.1c-.06-.01-.11-.01-.15.1Z"/>
          <path class="cls-2" d="m169.42,68.43l-.33.22c.09.02.2.08.33-.22Z"/>
          <path class="cls-2" d="m165.74,67.68l-.12.39c.04-.08.08-.2.12-.39Z"/>
          <path class="cls-2" d="m164.76,67.6c.21.14.39.97.76.79l.1-.31c-.28.56-.5-1.11-.86-.48Z"/>
          <path class="cls-2" d="m161.81,61.82l.73.49c-.05-.45-.11-1.06.27-1.09-.74-1.48,0,.99-1.01.6Z"/>
          <path class="cls-2" d="m159.45,60.68c.47-.11.13-.62.2-.85-.36.33-.44.41-.2.85Z"/>
          <path class="cls-2" d="m141.49,56.88l.26-.99c-.36.07-.09.39-.26.99Z"/>
          <polygon class="cls-2" points="136.96 61.32 137.15 62.01 137.5 61.13 136.96 61.32"/>
          <polygon class="cls-2" points="136.44 53.76 136.61 53.65 135.98 53.9 136.44 53.76"/>
          <path class="cls-2" d="m106.18,47.74l-.16,1.25c.27-.17.61-1.55.16-1.25Z"/>
          <path class="cls-2" d="m92.89,46.24c-.01-.65-.29-1.12-.65-.56.27.15.47.69.65.56Z"/>
          <polygon class="cls-2" points="54.25 35.97 54.6 35.61 54.03 35.85 54.25 35.97"/>
        </g>
        <g>
          <path class="cls-1" d="m40.32,3.05c.87-.93,1.78-1.85,2.68-2.73.5-.47,1.09-.42,1.56.08.47.5.51,1.1.05,1.58-.45.44-.86.89-1.31,1.33.21.03.37.06.58.09,8.47,1.33,12.8,4.86,12.02,9.84-1.1,7.01-8.89,10.6-23.62,10.15-.68-.02-1.04-.42-1.02-1.09.02-.68.43-1.12,1.11-1.1,12.32.36,19.99-1.92,20.96-8.11.63-4.03-3.65-6.53-9.79-7.49-.71-.11-1.42-.18-2.13-.25-5.95,6.46-11.85,14.26-18.17,23.68-.39.62-1.04.65-1.66.25-.62-.39-.78-.97-.39-1.59,5.85-8.82,11.39-16.2,17.04-22.41-4.78.14-9.32,1.43-13.2,3.12-.59.25-1.15.03-1.44-.57-.29-.6-.11-1.21.48-1.46,4.75-2.1,10.34-3.56,16.25-3.32Z"/>
          <path class="cls-1" d="m70.32,23.45c.17-1.08-.56-1.83-1.83-2.16.11.1.22.25.28.38.23.46.34,1.12.15,2.32-.83,5.27-8.95,9.35-14.22,8.53-2.9-.46-4-2.12-3.65-4.36.98-6.23,11.12-10.16,17.14-9.22,3.15.5,5.08,2.03,4.68,4.6-.16,1-.63,1.86-1.37,2.51-.49.43-1.12.33-1.55-.16-.43-.49-.27-1.02.07-1.56.17-.27.26-.55.31-.89Zm-15.2,6.88c3.98.62,10.76-2.44,11.42-6.67.08-.5.02-.93,0-1.32-.05-.52.07-1.01.71-1.29-4.99-.44-12.95,2.6-13.68,7.25-.17,1.08.39,1.85,1.55,2.03Z"/>
          <path class="cls-1" d="m79.99,23.31c-.09.58-.52,1.15-1.12,1.74-2.55,2.7-4.72,4.87-5,6.66-.1.62.13,1.08.96,1.21,1.74.27,4.22-.36,7.61-1.61.63-.24,1.15,0,1.38.68.23.67-.02,1.23-.66,1.47-3.82,1.31-6.85,1.94-8.89,1.62-2.41-.38-3.24-1.57-2.95-3.4.43-2.74,4.77-7.08,5.74-8.11.36-.37.29-.47.15-.66-.25-.29-.37-.87.05-1.4.27-.34.64-.54,1.22-.45.95.15,1.7,1.08,1.52,2.24Zm8.4-8.29c.64-.28,1.11-.04,1.39.6s.11,1.17-.48,1.46c-2.24,1.01-3.96,1.93-5.58,3.04-.53.38-1.15.29-1.54-.24-.39-.53-.34-1.12.19-1.5,1.81-1.25,3.58-2.24,6.01-3.35Z"/>
          <path class="cls-1" d="m88.6,33.68c-.03.17,0,.25.13.28.12.02.22-.05.5-.22,10.78-6.35,16.45-8.35,19.6-7.85,2.07.33,3,1.49,2.72,3.28-.23,1.45-.96,2.57-2.55,4.58-.8,1.02-1.64,2.08-1.8,3.08-.18,1.16.71,1.73,2.28,1.98,3.24.51,7.24-.35,10.6-1.7.59-.25,1.1.04,1.34.68.24.63.03,1.19-.61,1.44-3.62,1.39-8.11,2.34-11.68,1.78-3.61-.57-4.78-2.07-4.43-4.31.22-1.41,1.36-2.98,2.43-4.38,1.14-1.56,1.71-2.24,1.86-3.19.1-.62-.27-.98-.98-1.09-2.45-.38-7.83,2.21-17.79,7.71-1.07.6-1.95.76-2.49.67-.95-.15-1.96-.82-1.64-2.81.46-2.95,4.16-7.81,7.78-11.37.5-.47,1.09-.42,1.6.08.52.51.51,1.1.05,1.58-3.09,3.13-6.57,7.47-6.94,9.8Z"/>
          <path class="cls-1" d="m133.08,23.1c1.72-1.47,3.38-2.87,4.84-4,.53-.43,1.11-.29,1.54.24.43.53.42,1.09-.11,1.51-1.02.82-2.15,1.75-3.28,2.72,1.29.2,2.57.45,4.26.79.66.15.92.61.78,1.27-.14.62-.58,1.01-1.24.87-2.23-.39-3.85-.69-5.55-.96-.17-.03-.29-.04-.46-.07-2.02,1.77-3.96,3.59-5.52,5.13-2.42,2.43-5.66,5.45-6.08,8.15-.25,1.58.55,2.47,2.46,2.77,3.28.51,7.6-.21,11.68-1.78.59-.25,1.11,0,1.35.64.24.63.03,1.19-.61,1.44-4.37,1.57-8.86,2.52-13.17,1.84-3.07-.48-4.69-2.1-4.23-5.04.53-3.4,4.13-6.83,6.97-9.71,1.2-1.17,2.65-2.52,4.13-3.86-4.83-.63-10.2-1.13-15.66-1.52-.67-.06-1.07-.51-1.01-1.18.06-.67.47-1.12,1.14-1.05,6.27.43,12.42,1.06,17.79,1.81Z"/>
          <path class="cls-1" d="m150.71,27.53c4.44.7,6.21,3.27,5.68,6.63-.94,6.02-8.14,7.99-18.7,10.21,2.9,1.56,5.55,2.57,7.96,2.95,1.16.18,2.01.23,2.87.15.73-.05,1.21.4,1.27,1.09.06.69-.22,1.16-.97,1.29-.92.15-2.14.09-3.63-.14-3.11-.49-6.73-2.08-10.57-4.47-.58-.39-.8-.85-.51-1.65.24-.69.79-.98,1.49-1.13,11.19-2.24,17.5-3.97,18.2-8.41.38-2.41-1.14-3.84-3.71-4.24-1.58-.25-3.02,0-4.32.43-.67.23-1.15,0-1.44-.61-.29-.6-.11-1.21.53-1.49,1.47-.71,3.72-.95,5.84-.61Z"/>
        </g>
      </g>
      <g>
        <path class="cls-2" d="m151.94,63.56c.15-.32.28-1.09.03-.99l-.45,1.26.42-.27Z"/>
        <path class="cls-2" d="m151.02,60.84c-.4.57-.94,1.6-1.04,2.82.53-1.18.48-.65,1.08-2.07.25-.1.28.5.14.97.15-.31.27.36.57-.42-.06-1.06-.4-1.18-.96-.44-.02-.3.14-.62.21-.86Z"/>
        <path class="cls-2" d="m130.28,54.01l.1.18c-.02-.09-.05-.15-.1-.18Z"/>
        <path class="cls-2" d="m117.3,50.32c.11,0,.18-.13.21-.24-.11.06-.21.13-.21.24Z"/>
        <path class="cls-2" d="m115.38,48.39c.04.05.08.08.11.12-.02-.13-.06-.21-.11-.12Z"/>
        <path class="cls-2" d="m130.28,54.01l-.26-.49c-.12.42.11.35.26.49Z"/>
        <path class="cls-2" d="m147.39,63.29c.09-.05.18-.15.27-.3-.07.04-.14.08-.21.1-.02.07-.04.13-.06.2Z"/>
        <path class="cls-2" d="m136.31,54.28l.11.02c.06-.14.13-.31.21-.5l-.31.48Z"/>
        <path class="cls-2" d="m140.8,55.09c-.09-.07-.37,1.02-.52,1.49.16-.44.28-.64.39-.7.05-.21.09-.46.13-.79Z"/>
        <path class="cls-2" d="m147.4,58.62l.16-.12s-.11.07-.16.12Z"/>
        <path class="cls-2" d="m133.18,53.32c.03-.16.05-.31.05-.4-.03.14-.04.27-.05.4Z"/>
        <path class="cls-2" d="m7.01,33.35c.02-.08.03-.13.04-.2-.05.1-.08.18-.04.2Z"/>
        <path class="cls-2" d="m3.09,26.75l.08-.04c.05-.21.11-.41.15-.61l-.24.65Z"/>
        <path class="cls-2" d="m111.6,46.06s0,.01.01.03c.14-.1.07-.09-.01-.03Z"/>
        <path class="cls-2" d="m73.74,38.31c.2,1.08-.98,1.1-.58,2.33.04-.44.97-1.58.58-2.33Z"/>
        <path class="cls-2" d="m147.31,63.12c-.06,0-.13,0-.19-.03.08.05.13.06.19.03Z"/>
        <path class="cls-2" d="m73.15,40.64s0,0,0,0l.04.12c-.02-.05-.03-.08-.04-.13Z"/>
        <path class="cls-2" d="m101.99,44.57c-.02.2-.02.35-.01.5.02-.11.03-.26.01-.5Z"/>
        <path class="cls-2" d="m108.68,47.73l-.14-.19c.05.12.09.16.14.19Z"/>
        <path class="cls-2" d="m97.98,45.28c-.08-.11-.07-.26-.24-.15,0,.06,0,.1,0,.14.08-.14.16-.2.23,0Z"/>
        <path class="cls-2" d="m94.17,44.43c0,.09.01.16.02.24.04-.01.09-.02.13-.03l-.15-.21Z"/>
        <path class="cls-2" d="m18.7,35.44c-.01-.33.01-.68.05-1.03-.12.79-.74.94-.05,1.03Z"/>
        <path class="cls-2" d="m147.53,62.67c-.08.27-.15.4-.22.45.05,0,.09-.01.14-.03.05-.16.09-.31.08-.42Z"/>
        <path class="cls-2" d="m95.86,53.9l-.57-.3c.15.14.35.25.57.3Z"/>
        <path class="cls-2" d="m46.05,41.49l-.17.1s.1.02.17-.1Z"/>
        <path class="cls-2" d="m93.46,53.35c-.02-.41-.08-.66-.17-.84-.04.08-.09.14-.13.27l.3.57Z"/>
        <path class="cls-2" d="m18.75,34.41s0,.01,0,.01c0,0,0,0,0-.01Z"/>
        <path class="cls-2" d="m14.18,36.11c.57.16.59-1.35.9-2.15.78-.25.08,1.13.14,1.92.52-.28,1.15-1.53,1.45-1.4-.03.24.01.34-.13.62.71-1.04,1.36.25,2.22-1.07.01.14,0,.26-.01.37.08-.74.23-1.48.37-2,.26.03.69-.8.57.16-.15-.06-.25.31-.39.59l.36-.35c-.06,1.41-.48.38-.7,1.39.63-.32,1.5-1.3,1.82-.83-.22,1.34-1.05.23-.77,1.53l-.51-.65c0,2.2-.35-.23-.42,2.1.74.57,1.07-.47,1.81.11.35-.69.19-1.1.54-1.8,1.47-1.06.16,3.54,1.42,1.97.42-.83.89-2.49,1.3-1.46l-.55,1.45c.76.33.94-2.05,1.55-.85-.28.55-.74.35-.66.56.27,1.31.58-.76.99-.67l-.21,1.35c.9-.02,2.05-.76,3.04-.79-.14.38-.4.76-.27,1.22,1.34-.39,2.5.74,3.46,1.78l.7-1.05c.1.04.07.56-.09.76.35.54.19-.72.5-1.12.27-.02.19.73-.05,1.04,1.01-.79,2.72-1.58,3.27-.17l-.24.3c.54.61,1.26-2.18,1.62-.98l-.16.18c1.29.81,3.07.12,3.75,2.09.58-1.6,1.22,1.05,1.83-1.23.54,1.32.22,1.68,1.17,2.7.28.17.77-1.33,1.2-1.49l-.26,1.2.79-1.15-.06,1.5.42-.23c-.12-.1-.17-.61-.07-.95.67-.42,1.14,1.14,1.01,1.76l1.52-.72c-.14.48-.39.59-.63.86.97-1.07-.16,1.29.72.31-.02-.29.21-.71.28-.95.15.8.86.97,1.46.78l-.29.81c.91.43,2.11.06,3.18.32-.3-.47.12-1.89.46-1.96l-.16,1.3c.38-.74-.22-.55.42-1.42.37.24-.06,1.51-.38,1.87l.59-.33c-.06.39-.22.56-.36,1.04.38-.74.55,1.47,1.15.16l-.06.38c1.07.25,1.66-.07,2.55.06.27-1.09.55-.77,1.01-1.6.56.5,1.08,1.52,1.88,1.6.67-.42.37-.89.76-1.49-.19,1.01.61,1.09.04,1.72.97.05,1.23.07,2.59-.47-.03-.44-.14-.65.01-.97.25-.12.39.53.25,1l-.08.09c1.66-1.2,2.38,3.6,3.91,1.76l-.08.09,1.34-.84c.46.29-.47.68-.24,1.39,1.55-1.4,1.8.66,3.02-.23.08,3.12,2.7.4,3.29,2.51l.1-.71c.42-.62.23.47.38.67.1-.55-.14-.69.11-1.03,2.4-.33,4.34,2.05,6.46,3.19.79.37,1.29-3.48,1.96-1.59l-.59,1.22c2.03-1.17,3.41.83,5.35-.11-.17.28-.26.66-.41.62.13,1.01,1.27.34,1.45-.43.24.15-.1.7-.03,1.13.22.63,1.14-1,1.12-.02,0,.16-.17.28-.25.34.33-.4,1.03.35,1.06-.77.5.65,1.29-.21,1.63.54.59-1.14.92.82,1.41-.86-.44,1.75.76,1.67,1.33.93-.25.5.21.63-.11,1.33.45.08.93-.16,1.06-1.08.34,2.3,2.03-1.33,1.88,1.48,1.53-.65,2.9-1.01,4.18-1.16-.44,1.75-1.35-.12-1.72,1.74,1.29-.47,2.28-1.83,3.3-1.15.23.31-.34.73-.5,1,1.29-.47,2.14.65,3.36-.08-.04.16-.19.32-.32.43.21-.01.4.36.56-.44l-.24.17c-.05-1.23,1.33-2.25,1.51-2.85-.85,2.22.86.8-.33,3.58.16-.12.41-.46.5-1.01.16.2.15.53-.19,1.09.81-.28.75-1.18,1.38-1.02-.09.39-.25.51-.42.95.5-.68.99-1.36,1.46-.91-.09.23-.09.54-.25.5.96.09,2.04-1.65,2.89-.69-.68,1.61.22.63-.06,2.1l.65-.31-.06-.76c.47.13,1.14-.83,1.44-.26l-.49.52.96-.07-.38-.67c.66-.64.37-1.85.91-1.3-.16.12.48.13.53,1.04,0,0,0,0,0,0,.34-.41.7-.84.97-.4-.01.49-.44,1.59-.45,1.92.51-1.16,1.2-.08,1.79-1.31-.17.28-.35,1.05-.35,1.21l.42-.94c.15.37.15.53-.03,1.13.63.33.21-1.9.82-.92-.08.07-.08.22-.25.34.7.6,1.68-.28,2.3.38-.12,1.51-.72.21-.75,1.51,1.12-.03,2.59-1.26,3.53-.68l-.15-.21c.61-2.04.53,1.19,1.27.34-.16.12-.43,1.11-.34.89.62.49,1.55-.18,2.75-.59l-.25.5c.3.57,1.02.52,1.41.86.25-.5.49-.36.51-1.16.69,3.34,2.99-1.03,3.63,1.77-.15-.03-.45.39-.34.41l1.15-.25c.12-.92-.01-.58-.07-1.33.25-.5.64-.85.9-.79-.6.49-.32,1.45-.24,2,.03-.28.17-.57.21-.86.18,1.73.5-1.79,1-.54l-.15.46c.33-.18.73-.75,1-.54-.11,1.07-.41.42-.62,1.27.43.04,1.28-1.79,1.42-.66-.24.25-.5.2-.75.44.14,1.32.25,1.02.52,1.28l-.02-.03.58.72-.11-.37c1.14-2.6,1.18-.25,2.29-1.87-1.07,1.53-.33.95-.66,2.12.11.37.3.8.14,1.11.55-.88.39.88,1.18-.41-.06.38.35.12.06,1.06.5-.2.05-.69.19-1.15.97-1.15,1.22,1.93,2.59.37,1-.54,1.44-1.79,2.36-2.26.12.67-.53,1.34-.53,1.34.29.66.63.62,1.13.28-.16.31-.14.61-.11,1.07.34-.03.53-1.34.82-.68-.17.41-.41,1.07-.66,1.46.45-.27.98-.89,1.45-1.15-.05.69-.46.95-.7,1.35.5-.2,1.26-.34,1.64-1.36l-.19-.44c.17-.02-.12.92-.28,1.08-.56.74-.46-.49-.39-.87l.33-.18c.22-2.3-1.19.11-1.72-.15l.6-1.57-.88,1.22c-.03-.45.1-1.37.43-1.56-.22-.89-.48.5-.62-.47,0-.15.03-.22.08-.28l-.5.39c.15-.32.2-1.16.38-.87-.49-1.09-1.4.96-1.39-.33l.08-.09c-1.09.33-.36,1.17-1.41,2.4l.18-3.05-.37,1.17c-.09-.07-.27-.2-.12-.67-.56.73-.05.53-.44,1.25-.23-1.19-1.44.21-1.12-1.72-.38.87.3.8-.35,1.32.32-2.07-.67.21-.9-.82.37-1.02.66-.37.44-1.41-.67,1.72-.77-.58-1.22-.33-.34,1.41-.94.41-1.67.74.15-.47-.99-1.04-1.46-1.69l.07-.23c-.44,1.41-.97,1-1.48,1.2.21-.86.37-1.17.69-1.5l-.41-.09c-.2.44-.38.65-.69.75l.35-1.05c-.56-.06-1.38,1.01-1.92.14-.27.99-.07,2.91-.97,3.41.1-.55.28-1.48.52-1.65-.08.06-.33.4-.4.14l.5-.84c-.23-.47-.34.72-.57.58.18-.77-.06-.59.11-1.2.08-.06.15.37.32.09-.26-.2-.5-.74-.48-1.35-.07.44-.24,1.04-.47,1.09-.56-.07.02-.97-.2-1.44-.25.5-.47-.13-.75,1.02-.16-.04-.06-.59-.06-.91-.4.44-1.35-.15-1.31,1.14l.05.1s-.04.02-.06.04h0s0,0,0,0c-1.18.94-1.77-1.09-2.8-.8l.09-.38c-.65.32-1.28-.02-1.85.72-.16-.04-.22-.79-.05-1.23-.48.19-.63.62-1.09-.16.57-.58,0-.63.54-.39-.47-.46-.45-1.1-1.27-.18.42-.94-.13-1.33-.45-1.1l.22.79c-.32.08-.56-.07-.8-.21l.43-1.27c-.75-1.83-2.61,2.23-2.86-.6-.5.84.46.78-.05,1.78-.47-.29-.58-2.27-.74-2.31-.54-.88-1.08,1.75-1.7,1.09-.01.48-.2,1.74-.85,2.05-.47-.29-.19-2.08.22-2.38.13-.01.16.15.12.3.2-.13.46-.28.38-.83l-.17.45c-.15-.53-.86-.64-.52-1.36-.49.35-.34.72-.11,1.03-.5-.82-1.02-.25-1.59-.86.05.28.02.85-.08.82-.86-.8-.64.78-1.35.83-.22-.79.52-1.65-.29-1.22-.3-.57.19-1.25.44-1.59-.82.75-1.02-.85-1.33-1.09l.41-.3c-.24.18-.4.14-.56.1l-.02.97c-.15-.2-.31-.25-.22-.63-.33.56-.2,1.57-.78,2.32-.15-.53-.89.33-.7-.92.7.6.19-1.25.91-1.3-.16.12-.32.08-.48-.13,0-.14.08-.25.15-.31-.51-1.27-.67,1.31-1.45,1.1.26-.67.11-1.36-.05-1.24.32.09-.11,1.19-.52,1.65-.39-.65-.64.28-.89.15l.25.32c-.26.67-.49.52-.9.66.09-.55.41-.3.33-.56-.67,1.13-.6-1.46-1.33-.77-.15-.53.27-1.31.12-1.67-.82.76-.45-1.1-1.26-.5-.03.97.06.75-.6,1.56l1.21-.41-.99,1.2c.32.09.81-.43.96-.23-.5.69-.41.46-.43,1.27-.12-1.5-1.05.62-1.35-.44l.54-2.3c-.53-1.2-1.62.88-2.48.07l.23.47c-.34.89-.64-.01-1.04.29.21-.76.07-1.09.04-1.6-.11.58-.71-.22-1.15,1.3l-.21-1.11c-.7-.6-1.41,1.99-2.12,1.55.42-.78.2-1.41.85-1.89-.25-.07-.45-.26-.58.27-.04-.52-.95.88-1.02.09-.19.31-.4,1.11-.68.98,0-.16.09-.38.09-.38-.09.38-.57.42-.51,1.33-.24-2.58-2.24-.33-2.46-2.55-.62.13-1.35.23-1.87.17.08-.22.09-.38.17-.28-.54-.88-.93,2.11-1.55,1.13-.12-1.34.58-.58.43-1.11.46-2.56-1.04.13-1.24-1.47l.16-.12c-.21-.95-1.22.73-1.85.4,0,0,.08-.22.09-.38-.75,1.19-1.71,1.42-2.44,1.63.43-.95.41-.46.52-1.49-.32.08-.28,1.64-.92,1.79-.06-.59-.37-1.15-.18-2.24l.56.07c.04-1.45-.71-.11-.95-.42l.17-.6c-.88,0-1.24,1.54-2.11,1.23v.48c-.85,1.41-.23-.95-.97.07l.2-1.57c-.41.3-1.47,1.23-2.11,1.39.59-1.07,1.4-1.5,1.97-2.08-.32-.08-1.11-.13-1.45.59.16-.12.41-.46.48-.19-.67,1.12-1.32,1.6-1.95,1.43.79-2.96-1.49-1.13-1.43-3.55-1.38.85-2.13-.98-3.49-1.1-.06,2.43-.4-.02-.86,2.38-.34.08-.45.02-.44-.14l-.6-1.64c-.06-.74.41-.46.5-1-.63-.34-.05-1.07-.35-1.81-.1.87-.51,1.17-.82.76l.29,1.22c-1.22,1.06-.35-2.19-1.58-1.14l.47-.68c-.58.33-1.78-.42-2.69,1.39-.02-.29.01-.97.26-1.1-1.09-.55-3.04,1.45-3.67.07l.22-.56c-.25.12-.62,1.01-.76.36.07-.24.22-.56.13-.62-.16.17-.81.89-1.01.49l.39-.6c-.96-1.02-2.1,1.2-3.13,1.39.39-1.72-.37-2.48-.75-2.85l.07-.24c-1.27-.51-2.56.92-3.93,1.31-.33-2.04-2.38-1.36-3.36-2.68.11.35-.33,1.33-.59,1.45-.21-.41-1.06,1.01-.66-.55l.09.05c.14-1.59-.54-1.32-.99-1.46l-.54,2.04c-.52-3.27-3.38.39-3.43-2.44-.41.45-.76.36-1.17.81l.27-1.1c-.74-.46-1.1-.69-2.15-.65l.38-.74c-.54-.2-1.43,3.02-1.96,2.97l.22-1.68c-.98-.2-1.64-1.87-2.94-.59.07-.24.21-.71.38-.74-.45-.15-1.52-1.52-1.87.78.32-1.48-.97-.37-1.64.16l.33-1.07c-.76,1.29-.86,1.66-1.57,1.91-.11-.17.07-.9.2-.58-.36-.68-.61.94-1.08.23l.38-.64c-.48-.2-.53.18-.99.93-.42.36-.89-.49-.74-1.49-.2.58-.66,1.32-.89.97.04-.38.2-.59.28-.69-.67-.93-1.54.98-1.87-.22.07-.36.07-.55.05-.67.66.18,1.19.36,1.12.43.23-1-.27-1.3.47-2.59-.6.66-1.72,2.13-2.14,1.54,0-.1,0-.2,0-.36l.08-.1c-.1-.13-.23-.06-.37.09-.13-.2-.21-.35-.37-.4.13-.84-.52-.59-.78-.69-.23,1.1-.54.85-.41,1.83-.02-.09.08-.12.27-.12.05-.02.1-.03.14-.09-.01.03-.03.06-.04.09.18,0,.42.04.69.08-.34.51-.67.93-.83.25-.3.67-.61,1.36-.78,1.68-.02-1.61-.54-2.6-.43-3.57-.96.43-2.03-.03-3.01,1.91-.29.21-.13-.65-.15-1,.18-.18.34-.11.48-.39-.59.42-1.43-.11-1.87,1.3-.44-.78.63-1.25-.23-1.2l.21-.42c-1.07-2.66-3.42,3.09-4.52-.27.08.21.12.31.09.55-1.72-1.76-4.42.28-5.94-2.24-.47-.54-.74.36-1.24.98l.15-1.21-.9,1.23c-1.06.81-.79-3.22-2.28-1.58l-.04.82c-.35-.24-1.31.19-1.04-.7-.07.14-.31.8-.37.35l.13-.62-1.17.84c-.62-.61.67-2.42-.36-2.78-.45.15-1.52,1.54-1.47,1.99.15.07.32.48.19,1.1l-.43.24c-.48,1.8-1.18,3.6-.58,5.07l.87-.97v.93s-.53-.06-.53-.06c.1.9.46.2.78-.25-.06.48-.05.83.04,1.03l1-1.6c-.09.73-.59,1.35-.28,1.83.47-.74.09-1.65.68-2.08.11.89-.13,1.55.37.92-.06.48-.2.76-.38.93.43-.49.87-.05,1.24-.98.07,1.09,1.1-.03.68,1.68.19-.39.85-1.23,1.15-1.23-.98,1.94,1.03.36.39,2.54.8-1.76,1.56-.51,2.47-1.38-.07.14-.21.42-.25.31.34.24.33.82.49,1.23.4-1.52,1.07-1.73,1.6-2.6.13,1.58-.69,1.73-.87,3.18.26-1.24,1.09-1.05,1.17-2.12.15.99.21.51.1,1.82.5-1.9.4-.25.97-1.35.3,1.06-.27,1.82.42,1.37.14.65-.52,1.21-.52,1.21Zm14.21-.25s0,.02,0,.02c-.12,0-.23,0-.29,0,.06,0,.15,0,.3-.02Zm1.14.24c-.13-.07-.3-.12-.48-.15.05-.39.18-.77.29-.72-.12.24.1.52.19.88Zm-.67-8.14c.21-.11.23.11.2.34-.09,0-.2.01-.34.06-.01.04-.04.08-.05.13.06-.21.13-.4.2-.53Z"/>
        <path class="cls-2" d="m28.21,29.32s-.06.06-.09.06c.01.1.03.2.05.27.05-.11.1-.22.14-.33-.03,0-.07,0-.1,0Z"/>
        <path class="cls-2" d="m130.4,54.23l-.02-.03s.02.1.01.17c0-.06,0-.09,0-.14Z"/>
        <polygon class="cls-2" points="44.67 41.74 44.73 41.47 44.58 41.69 44.67 41.74"/>
        <path class="cls-2" d="m135.78,59.41c0,.1,0,.2.02.3.01-.07,0-.18-.02-.3Z"/>
        <path class="cls-2" d="m138.41,60.26l.29.48c-.11-.26-.21-.39-.29-.48Z"/>
        <path class="cls-2" d="m140.36,61.28c.07-.19.11-.33.15-.46,0,0,0,0,0,0l-.15.47Z"/>
        <path class="cls-2" d="m107.16,55.1s-.06,0-.09.03c-.24.17-.09.12.09-.03Z"/>
        <path class="cls-2" d="m117.53,54.76c-.15.18-.3.35-.43.45.16.12.29.18.43-.45Z"/>
        <path class="cls-2" d="m95.93,53.93s0,0,0-.02c-.02,0-.04-.01-.07-.02l.06.03Z"/>
        <path class="cls-2" d="m116.65,55.08c.12.26.28.24.45.12-.13-.11-.27-.26-.45-.12Z"/>
        <path class="cls-2" d="m149.21,63.81l.09.07c.02-.07.03-.13.05-.17l-.14.1Z"/>
        <path class="cls-2" d="m149.36,63.71l.14-.1c-.05-.01-.1-.01-.14.1Z"/>
        <path class="cls-2" d="m149.79,63.38l-.3.22c.08.02.17.08.3-.22Z"/>
        <path class="cls-2" d="m146.59,62.68l-.12.39c.04-.08.08-.2.12-.39Z"/>
        <path class="cls-2" d="m145.73,62.61c.18.14.31.96.64.78l.1-.31c-.26.56-.4-1.09-.74-.46Z"/>
        <path class="cls-2" d="m143.37,56.9l.63.48c-.03-.45-.06-1.06.28-1.09-.59-1.46-.03.99-.91.61Z"/>
        <path class="cls-2" d="m141.35,55.8c.42-.11.14-.62.21-.85-.33.33-.41.42-.21.85Z"/>
        <path class="cls-2" d="m125.72,52.25l.26-.99c-.32.08-.09.39-.26.99Z"/>
        <polygon class="cls-2" points="121.56 56.73 121.7 57.41 122.04 56.52 121.56 56.73"/>
        <polygon class="cls-2" points="121.41 49.22 121.56 49.1 121 49.36 121.41 49.22"/>
        <path class="cls-2" d="m95.07,43.61l-.19,1.25c.25-.18.6-1.55.19-1.25Z"/>
        <path class="cls-2" d="m83.45,42.29c.02-.64-.21-1.11-.55-.55.24.14.38.68.55.55Z"/>
        <polygon class="cls-2" points="49.92 32.57 50.24 32.21 49.73 32.46 49.92 32.57"/>
      </g>
    </g>
  </g>
</svg>