<?xml version="1.0" encoding="UTF-8"?>
<svg id="_レイヤー_2" data-name="レイヤー 2" xmlns="http://www.w3.org/2000/svg" viewBox="0 0 190.99 67.76">
  <defs>
    <style>
      .cls-1 {
        fill: #abdc8a;
      }

      .cls-1, .cls-2 {
        stroke-width: 0px;
      }

      .cls-2 {
        fill: #5b330a;
      }
    </style>
  </defs>
  <g id="_レイヤー_1-2" data-name="レイヤー 1">
    <g>
      <g>
        <path class="cls-2" d="m34.84,17.42c.52-1.16,1.07-2.33,1.64-3.46.32-.61.89-.76,1.5-.44.61.32.84.87.57,1.48-.28.56-.52,1.12-.81,1.68.21-.04.37-.07.58-.1,8.43-1.53,13.69.38,14.59,5.34,1.26,6.99-4.92,12.93-18.97,17.35-.65.2-1.12-.05-1.32-.7-.2-.65.04-1.2.68-1.4,11.75-3.71,18.25-8.38,17.13-14.54-.73-4.01-5.59-4.96-11.71-3.86-.7.13-1.4.3-2.09.46-3.49,8.06-6.5,17.36-9.38,28.34-.17.71-.77.95-1.48.78-.71-.17-1.06-.66-.89-1.38,2.63-10.25,5.43-19.04,8.73-26.77-4.47,1.71-8.34,4.41-11.45,7.28-.48.43-1.08.41-1.55-.06-.47-.47-.5-1.1-.02-1.53,3.8-3.55,8.59-6.76,14.26-8.47Z"/>
        <path class="cls-2" d="m69.88,26.83c-.19-1.07-1.13-1.54-2.44-1.44.14.06.29.16.39.27.36.36.68.94.9,2.14.95,5.25-5.38,11.78-10.63,12.73-2.89.52-4.48-.68-4.88-2.91-1.12-6.2,7.16-13.25,13.16-14.34,3.14-.57,5.47.25,5.93,2.81.18.99.01,1.96-.47,2.82-.32.57-.94.68-1.51.36-.57-.32-.59-.88-.44-1.5.07-.31.06-.61,0-.94Zm-12.09,11.5c3.97-.72,9.36-5.84,8.6-10.05-.09-.5-.29-.89-.44-1.24-.21-.47-.26-.98.25-1.45-4.86,1.22-11.38,6.71-10.54,11.34.19,1.07.98,1.62,2.13,1.41Z"/>
        <path class="cls-2" d="m78.97,23.52c.1.58-.11,1.26-.49,2.01-1.52,3.39-2.86,6.15-2.53,7.93.11.62.48.98,1.3.83,1.74-.31,3.87-1.73,6.66-4.02.52-.44,1.09-.37,1.53.19.44.56.38,1.17-.14,1.6-3.18,2.5-5.83,4.09-7.86,4.45-2.4.43-3.58-.42-3.91-2.24-.49-2.73,2.18-8.25,2.75-9.55.21-.47.12-.53-.08-.67-.33-.2-.64-.7-.41-1.33.14-.41.43-.72,1-.82.95-.17,1.96.46,2.17,1.61Zm5.21-10.59c.51-.48,1.04-.4,1.51.11.48.51.49,1.06.02,1.53-1.79,1.69-3.11,3.12-4.27,4.7-.37.54-.99.65-1.53.28-.54-.37-.68-.94-.31-1.48,1.3-1.77,2.65-3.3,4.58-5.14Z"/>
        <path class="cls-2" d="m90.51,30.48c.03.17.09.24.21.22.12-.02.19-.12.4-.37,8.09-9.53,12.79-13.29,15.93-13.86,2.07-.37,3.32.42,3.64,2.2.26,1.45-.06,2.74-.9,5.16-.42,1.23-.87,2.51-.69,3.5.21,1.16,1.24,1.4,2.81,1.11,3.22-.58,6.72-2.71,9.45-5.08.48-.43,1.05-.32,1.49.2.44.52.42,1.12-.1,1.56-2.96,2.5-6.89,4.88-10.44,5.52-3.6.65-5.19-.38-5.6-2.61-.25-1.41.31-3.26.86-4.94.56-1.85.88-2.68.71-3.63-.11-.62-.58-.83-1.28-.71-2.44.44-6.67,4.67-14.27,13.13-.82.92-1.59,1.35-2.13,1.45-.95.17-2.12-.13-2.47-2.11-.53-2.93,1.36-8.74,3.61-13.29.32-.61.89-.76,1.54-.45.65.31.84.87.57,1.48-1.89,3.97-3.75,9.22-3.33,11.53Z"/>
        <path class="cls-2" d="m129.04,5.87c1.14-1.96,2.25-3.82,3.25-5.37.37-.58.95-.64,1.53-.28s.76.89.39,1.47c-.7,1.11-1.45,2.35-2.2,3.64,1.28-.23,2.57-.42,4.28-.65.67-.08,1.07.28,1.15.94.07.63-.22,1.15-.89,1.23-2.24.36-3.86.61-5.55.92-.17.03-.29.05-.45.08-1.33,2.33-2.57,4.69-3.53,6.66-1.49,3.09-3.56,7-3.07,9.69.28,1.57,1.33,2.15,3.23,1.81,3.27-.59,7.11-2.7,10.44-5.52.48-.43,1.04-.36,1.48.16.44.52.42,1.12-.1,1.56-3.61,2.92-7.54,5.29-11.84,6.07-3.06.55-5.12-.44-5.65-3.37-.61-3.39,1.66-7.81,3.39-11.46.75-1.5,1.67-3.25,2.64-5-4.77.99-10,2.28-15.29,3.71-.65.16-1.18-.13-1.34-.78-.16-.65.08-1.21.73-1.37,6.06-1.65,12.08-3.08,17.4-4.13Z"/>
        <path class="cls-2" d="m153.38,18.16c1.1-.28,2.17-.52,3.23-.8.65-.16,1.1.19,1.26.84.16.65-.09,1.17-.74,1.33-1.56.37-3.15.78-4.83,1.17-1.3,2.97-2.7,6.08-3.79,8.33-.31.65-.95.9-1.59.63-.65-.27-.92-.82-.61-1.47.86-1.86,1.95-4.32,3.04-6.78-3.32.77-6.72,1.56-10.09,2.3-.98.22-1.45,0-1.73-.58-.29-.63-.2-1.12.46-1.96,4.63-6,8.94-11.95,12.35-16.88.37-.54,1-.61,1.54-.24.54.37.69.99.32,1.52-3.05,4.35-7.55,10.63-11.35,15.59,2.91-.66,6.22-1.47,9.58-2.29.8-1.94,1.58-3.79,2.16-5.26.26-.69.86-.88,1.56-.58.69.3,1.01.88.71,1.58-.41,1.01-.91,2.26-1.49,3.56Z"/>
      </g>
      <g>
        <path class="cls-1" d="m190.99,31.34c.04-.36-.16-1.12-.41-.91l.04,1.34.37-.43Z"/>
        <path class="cls-1" d="m188.69,29.26c-.21.69-.38,1.87.04,3.03.09-1.31.27-.8.34-2.35.25-.2.56.33.6.82.04-.35.48.21.48-.64-.54-.94-1-.9-1.33.02-.15-.27-.12-.63-.14-.87Z"/>
        <path class="cls-1" d="m161.36,32.11l.2.12c-.06-.08-.13-.11-.2-.12Z"/>
        <path class="cls-1" d="m144.52,34.42c.12-.05.15-.19.14-.31-.1.11-.19.2-.14.31Z"/>
        <path class="cls-1" d="m141.41,33.5c.07.03.12.04.18.06-.09-.11-.16-.16-.18-.06Z"/>
        <path class="cls-1" d="m161.36,32.11l-.52-.33c.05.43.29.27.52.33Z"/>
        <path class="cls-1" d="m185.54,33.08c.08-.08.14-.22.18-.39-.07.07-.13.13-.2.18,0,.07.02.13.02.21Z"/>
        <path class="cls-1" d="m168.53,29.72l.14-.03c.01-.16.02-.34.02-.55l-.15.58Z"/>
        <path class="cls-1" d="m174.15,28.5c-.14-.02.02,1.09.06,1.58-.01-.47.04-.7.14-.81-.04-.21-.1-.46-.2-.77Z"/>
        <path class="cls-1" d="m183.47,28.82l.13-.18c-.03.06-.09.11-.13.18Z"/>
        <path class="cls-1" d="m164.44,30.22c-.04-.16-.09-.3-.12-.39.03.14.07.27.12.39Z"/>
        <path class="cls-1" d="m7.85,67.16c0-.08-.02-.13-.04-.2-.01.12,0,.2.04.2Z"/>
        <path class="cls-1" d="m.3,62.86l.08-.08c-.03-.21-.06-.42-.09-.62v.7Z"/>
        <path class="cls-1" d="m135.93,33.03s.02.01.03.02c.11-.15.04-.11-.03-.02Z"/>
        <path class="cls-1" d="m88.15,42.53c.72.89-.65,1.43.36,2.38-.15-.42.43-1.86-.36-2.38Z"/>
        <path class="cls-1" d="m185.37,32.96c-.07.03-.15.05-.23.05.11.02.18,0,.23-.05Z"/>
        <path class="cls-1" d="m88.52,44.91s0,0,0,0l.1.09s-.07-.07-.1-.1Z"/>
        <path class="cls-1" d="m124.02,35.88c.06.19.13.33.21.46-.02-.11-.08-.25-.21-.46Z"/>
        <path class="cls-1" d="m133.27,35.83l-.25-.11c.11.08.18.11.25.11Z"/>
        <path class="cls-1" d="m119.65,38.28c-.14-.06-.2-.21-.34-.03.03.05.05.09.07.13.03-.16.1-.25.27-.1Z"/>
        <path class="cls-1" d="m114.81,39.16c.04.08.09.14.13.21.04-.03.1-.06.14-.09l-.27-.12Z"/>
        <path class="cls-1" d="m22.47,63.96c-.16-.29-.29-.62-.4-.95.22.77-.44,1.18.4.95Z"/>
        <path class="cls-1" d="m185.43,32.46c.02.28,0,.43-.06.5.05-.02.1-.05.15-.09-.02-.17-.04-.32-.09-.41Z"/>
        <path class="cls-1" d="m121.04,47.04l-.8-.02c.23.07.52.07.8.02Z"/>
        <path class="cls-1" d="m57.19,57.51l-.15.16c.07.01.13-.03.15-.16Z"/>
        <path class="cls-1" d="m117.98,47.6c-.21-.37-.39-.57-.57-.69-.02.09-.04.17-.04.3l.61.38Z"/>
        <path class="cls-1" d="m22.06,62.99s0,.01,0,.01c0,0,0,0,0-.01Z"/>
        <path class="cls-1" d="m17.47,66.54c.74-.1.09-1.49.09-2.35.8-.57.6,1,1.03,1.69.48-.48.65-1.89,1.07-1.91.07.23.17.31.13.62.37-1.26,1.7-.37,2.11-1.94.07.12.12.24.15.34-.24-.71-.39-1.45-.46-1.98.32-.08.44-1.03.74-.1-.21,0-.15.39-.19.71l.27-.48c.56,1.31-.38.56-.2,1.57.59-.57,1.17-1.84,1.75-1.55.35,1.32-1.12.67-.22,1.73l-.89-.37c.99,2-.51-.06.46,2.1,1.12.2,1.05-.89,2.16-.69.1-.79-.28-1.09-.18-1.87,1.24-1.6,1.78,3.15,2.55,1.17.12-.94-.08-2.65.86-1.9v1.56c1.05-.03.19-2.28,1.44-1.45-.08.63-.71.65-.52.8.9,1.07.33-.95.86-1.04l.35,1.32c1.04-.41,2.06-1.59,3.21-2.05,0,.41-.12.87.23,1.22,1.39-.94,3.25-.42,4.85.11l.35-1.26c.13-.01.33.48.24.73.65.34-.1-.74.09-1.24.31-.14.55.59.4.97.82-1.16,2.47-2.63,3.75-1.58l-.14.38c.91.32.5-2.54,1.45-1.6l-.11.23c1.87.18,3.65-1.24,5.33.26-.04-1.71,1.9.42,1.59-1.92,1.23.97,1.01,1.43,2.58,1.95.4.04.31-1.55.74-1.88l.23,1.21.41-1.39.6,1.39.39-.39c-.19-.04-.47-.48-.51-.83.59-.67,1.84.54,1.97,1.16l1.45-1.32c.05.49-.19.71-.35,1.06.65-1.4.39,1.25.99-.03-.16-.26-.07-.73-.1-.98.53.66,1.44.5,2.06.07l.02.86c1.25,0,2.49-.87,3.86-1.1-.56-.3-.71-1.77-.34-1.98l.39,1.25c.12-.84-.51-.41-.15-1.47.54.06.61,1.4.39,1.87l.54-.56c.11.38,0,.61.05,1.1.11-.84,1.3,1.09,1.42-.36l.1.38c1.37-.24,1.91-.79,3.01-1.06-.18-1.11.3-.94.47-1.9.88.2,1.95.91,2.91.64.59-.68.03-.97.22-1.69.23,1,1.2.73.82,1.54,1.15-.38,1.47-.47,2.82-1.56-.24-.38-.45-.53-.42-.89.24-.22.69.31.74.8l-.05.12c1.4-1.81,4.4,2.24,5.36-.1l-.06.12,1.19-1.35c.67.06-.25.83.34,1.37,1.19-1.95,2.4-.18,3.43-1.53,1.49,2.8,3.34-.82,4.97.84l-.2-.69c.21-.75.47.33.75.44-.13-.54-.47-.56-.34-.98,2.66-1.35,6-.03,9,.08,1.09,0-.06-3.73,1.58-2.3l-.14,1.37c1.85-1.95,4.37-.73,6.21-2.44-.07.32,0,.71-.21.75.61.86,1.64-.25,1.5-1.02.34.03.2.68.47,1.04.54.48.89-1.41,1.3-.51.07.15-.07.33-.14.42.21-.51,1.36-.13.89-1.17.88.38,1.41-.76,2.15-.22.19-1.29,1.45.34,1.26-1.4.27,1.79,1.63,1.19,1.98.26-.07.57.53.48.47,1.26.56-.13,1.02-.55.75-1.45,1.43,1.94,1.78-2.09,2.86.53,1.5-1.26,2.94-2.19,4.37-2.88.27,1.79-1.64.48-1.23,2.33,1.3-.99,1.85-2.66,3.35-2.49.41.18-.07.81-.14,1.13,1.3-.99,2.79-.34,3.89-1.54.03.17-.08.37-.18.53.24-.1.63.15.46-.65l-.21.26c-.61-1.1.55-2.63.49-3.25,0,2.39,1.36.35,1.22,3.4.14-.18.28-.6.14-1.14.27.11.41.41.27,1.07.82-.6.34-1.4,1.16-1.53.07.39-.07.57-.07,1.05.27-.84.55-1.67,1.3-1.47,0,.24.14.54-.07.57,1.16-.33,1.65-2.39,3.08-1.89-.07,1.77.54.48.88,1.94l.62-.56-.41-.66c.61-.09.96-1.25,1.57-.87l-.34.69,1.09-.49-.75-.44c.48-.87-.4-1.85.48-1.59-.14.18.61-.09,1.09.72,0,0,0,0,0,0,.22-.52.44-1.07.96-.79.2.45.2,1.64.33,1.94.08-1.28,1.37-.6,1.51-1.98-.07.33.06,1.1.13,1.25l.07-1.04c.34.27.41.42.48,1.04.88.03-.61-1.82.55-1.19-.06.1,0,.24-.14.42,1.09.24,1.84-.99,2.86-.67.54,1.43-.75.51-.21,1.7,1.29-.51,2.46-2.28,3.82-2.16l-.27-.12c-.2-2.12,1.15.86,1.63-.25-.13.18,0,1.2,0,.96.95.17,1.73-.84,2.96-1.74l-.07.57c.61.38,1.43.03,2.04.17.07-.57.41-.54.07-1.28,2.3,2.74,3.04-2.24,5.05.02-.18.04-.36.55-.21.52l1.23-.73c-.27-.89-.27-.52-.68-1.18.07-.57.37-1.05.69-1.11-.48.71.27,1.46.62,1.92-.09-.27-.06-.59-.13-.87.98,1.49-.22-1.85.92-.93l.04.49c.31-.31.52-1,.92-.93.35,1.02-.29.56-.15,1.43.52-.16.69-2.18,1.37-1.22-.17.33-.5.4-.67.73.75,1.14.75.82,1.18.94l-.04-.02,1,.4-.29-.29c.17-2.86,1.27-.75,1.84-2.71-.57,1.86.03,1.01.18,2.21.29.29.71.6.67.95.25-1.04.85.63,1.19-.89.1.38.46-.04.54.94.5-.4-.25-.64-.29-1.13.61-1.47,2.29,1.23,3.19-.79.92-.93.88-2.26,1.75-3.08.44.55-.02,1.45-.02,1.45.64.47,1.02.29,1.44-.24-.04.35.12.62.35,1.02.39-.17.02-1.45.65-.98-.01.44,0,1.15-.12,1.62.41-.44.75-1.24,1.18-1.68.25.65-.11,1.07-.21,1.54.5-.4,1.33-.87,1.31-1.95l-.42-.31c.19-.09.27.89.15,1.11-.32.92-.75-.24-.85-.62l.31-.31c-.77-2.19-1.34.62-2.07.61v-1.69s-.48,1.49-.48,1.49c-.23-.4-.5-1.29-.2-1.6-.65-.72-.34.66-.94-.16-.07-.13-.07-.21-.03-.29l-.41.58c.03-.36-.29-1.14.06-.96-1.06-.78-1.21,1.49-1.77.31l.06-.11c-1.13.78.1,1.22-.57,2.8l-1.16-2.85.1,1.22c-.13-.02-.4-.06-.44-.55-.32.91.18.51.04,1.33-.81-.98-1.59.82-2.08-1.07-.05.95.71.6.17,1.35-.56-2.03-.69.49-1.42-.35-.02-1.09.61-.63-.12-1.47-.01,1.86-1.16-.2-1.57.23.24,1.43-.92.78-1.62,1.4-.04-.49-1.63-.52-2.46-.9l-.02-.24c.12,1.47-.69,1.34-1.19,1.74-.14-.87-.1-1.23.13-1.67l-.52.1c-.04.49-.16.76-.46.99l-.06-1.1c-.68.18-1.16,1.52-2.18.96.13,1.02,1.22,2.68.4,3.52-.13-.54-.34-1.46-.13-1.73-.07.08-.21.5-.41.3l.21-.98c-.48-.33-.07.8-.41.78-.13-.78-.34-.51-.41-1.14.07-.09.34.27.41-.06-.39-.07-.92-.45-1.17-1.02.11.44.19,1.05-.06,1.2-.68.18-.41-.89-.88-1.22-.07.57-.61.09-.41,1.25-.2.03-.34-.5-.47-.81-.27.58-1.65.45-1.02,1.61l.11.06s-.03.03-.05.06h0s0,0,0,0c-.96,1.37-2.56-.22-3.63.49l-.07-.39c-.62.57-1.5.54-1.84,1.47-.21.04-.61-.62-.61-1.1-.48.39-.46.84-1.34.33.41-.77-.29-.57.46-.6-.75-.21-1.02-.8-1.57.39.07-1.04-.75-1.16-1.02-.8l.61.63c-.34.21-.68.18-1.02.16l-.06-1.34c-1.7-1.34-2.06,3.17-3.62.7-.21.98.88.51.74,1.64-.68-.06-1.7-1.82-1.9-1.78-1.02-.56-.48,2.06-1.51,1.74.2.44.54,1.67-.07,2.24-.68-.06-1.15-1.81-.81-2.26.15-.07.25.07.27.23.18-.21.42-.46.07-.92v.48c-.41-.42-1.29-.21-1.22-1.01-.41.53-.07.81.34.98-.96-.53-1.31.22-2.25-.08.18.23.41.76.27.78-1.36-.35-.39.99-1.21,1.35-.61-.62-.13-1.73-.88-.98-.61-.39-.34-1.22-.2-1.64-.62,1.04-1.57-.33-2.05-.41l.34-.45c-.21.27-.41.3-.62.33l.4.89c-.27-.12-.48-.09-.54-.48-.14.66.47,1.52.13,2.45-.41-.42-.89.69-1.23-.53,1.09.24-.34-1.23.49-1.58-.14.18-.34.21-.61.09-.06-.13-.01-.26.04-.35-1.17-.93-.19,1.48-1.2,1.64,0-.72-.47-1.28-.61-1.1.41-.06.41,1.13.13,1.73-.74-.43-.63.53-.98.53l.43.19c0,.72-.34.69-.75.99-.14-.54.34-.45.14-.66-.28,1.32-1.36-1.07-1.91-.11-.41-.42-.27-1.31-.61-1.58-.62,1.05-1.02-.8-1.7.09.41.9.41.66,0,1.68l1.23-.91-.62,1.52c.41-.06.75-.75,1.02-.63-.27.84-.27.6.06,1.34-.81-1.31-.96,1.02-1.77.19l-.4-2.33c-1.16-.86-1.5,1.51-2.87,1.15l.48.33c0,.95-.75.27-1.09.72-.1-.78-.41-1.02-.67-1.47.13.57-.93.11-.76,1.69l-.75-.92c-1.09-.24-.76,2.42-1.78,2.34.14-.9-.4-1.37.14-2.09-.33.05-.65-.04-.55.5-.28-.45-.71,1.21-1.15.53-.08.37.03,1.19-.35,1.19-.07-.15-.07-.38-.07-.38.07.38-.48.63,0,1.43-1.44-2.24-2.77.68-4.02-1.24-.66.39-1.48.79-2.11.97,0-.24-.07-.39.07-.33-1.02-.56-.14,2.33-1.3,1.71-.75-1.16.41-.78,0-1.19-.6-2.53-1.16.57-2.11-.8l.14-.18c-.68-.77-1.1,1.2-1.98,1.17,0,0,0-.23-.06-.39-.35,1.41-1.37,2.04-2.12,2.55.07-1.05.28-.6-.06-1.59-.34.21.4,1.61-.28,2.03-.34-.5-.95-.89-1.22-1.96l.68-.18c-.61-1.34-.89.21-1.29.03l-.06-.62c-1.02.39-.76,1.94-1.92,2.04l.2.44c-.34,1.64-.68-.77-1.09.48l-.47-1.52c-.34.45-1.17,1.76-1.85,2.19.21-1.23.96-1.97,1.37-2.75-.41.06-1.36.36-1.44,1.17.14-.18.27-.6.48-.39-.28,1.31-.83,2.03-1.64,2.15-.4-3.04-2.25-.38-3.26-2.61-1.23,1.37-2.93.04-4.57.52,1.02,2.24-.48.15.06,2.54-.36.22-.52.21-.58.06l-1.44-1.22c-.41-.65.27-.6.14-1.13-.89-.03-.54-.96-1.22-1.49.27.84-.07,1.29-.62,1.05l.89.99c-.96,1.5-1.4-1.83-2.37-.35l.24-.83c-.54.56-2.28.4-2.53,2.44-.16-.26-.42-.89-.18-1.11-1.52-.02-2.9,2.65-4.27,1.67v-.61c-.24.22-.27,1.19-.72.66-.03-.25,0-.61-.13-.62-.11.23-.54,1.16-.97.89l.19-.72c-1.58-.51-1.91,2.01-3.04,2.63-.31-1.73-1.54-2.09-2.16-2.27l-.02-.25c-1.71.09-2.58,1.95-4.01,2.91-1.3-1.71-3.4-.2-5.14-.97.29.27.21,1.36-.04,1.58-.43-.29-.78,1.38-1.01-.22h.13c-.56-1.5-1.23-.95-1.82-.89l.28,2.1c-2.07-2.75-3.79,1.83-5.11-.72-.27.59-.73.66-1,1.25l-.18-1.12c-1.07-.1-1.6-.15-2.81.35l.11-.84c-.72.05-.31,3.38-.96,3.56l-.5-1.63c-1.23.25-2.75-.98-3.7.75-.02-.25-.07-.73.11-.84-.59.06-2.46-.72-1.83,1.53-.28-1.48-1.3.09-1.85.86l-.09-1.12c-.31,1.5-.26,1.89-.98,2.42-.21-.11-.32-.85-.02-.61-.73-.46-.3,1.13-1.16.68l.15-.75c-.66.03-.54.4-.74,1.28-.32.51-1.26-.06-1.54-1.03.02.62-.18,1.49-.61,1.27-.12-.37-.02-.62.02-.75-1.21-.55-1.36,1.56-2.29.62-.08-.36-.16-.53-.24-.63.85-.13,1.55-.19,1.5-.1-.18-1.01-.9-1.06-.61-2.56-.41.86-1.06,2.69-1.81,2.33-.05-.09-.1-.18-.15-.33l.05-.13c-.17-.07-.29.05-.39.24-.24-.13-.4-.23-.61-.2-.23-.82-.87-.31-1.22-.29.23,1.1-.25,1.01.33,1.84-.07-.07.04-.14.26-.23.05-.04.1-.07.12-.14,0,.03,0,.07,0,.1.22-.07.51-.15.84-.23-.17.61-.37,1.13-.86.59-.05.74-.11,1.51-.15,1.87-.75-1.46-1.8-2.13-2.1-3.06-.93.81-2.39.86-2.67,3.05-.25.32-.45-.53-.62-.84.13-.24.34-.24.38-.56-.5.64-1.72.53-1.6,2-.87-.52.18-1.41-.81-.99l.06-.47c-2.45-1.95-2.62,4.3-5.41,1.73.19.15.28.23.36.46-2.8-.85-5.05,2.19-7.96.56-.79-.29-.7.65-1.01,1.44l-.37-1.16-.5,1.51c-.88,1.2-2.37-2.58-3.37-.44l.32.77c-.51-.06-1.44.75-1.53-.19-.02.15,0,.86-.27.48l-.13-.62-.99,1.28c-1-.28-.3-2.49-1.67-2.37-.46.33-1.09,2.07-.83,2.45.21,0,.58.29.71.91l-.4.41c.25,1.85.24,3.79,1.59,4.86l.58-1.26.41.84-.65.17c.52.77.63-.01.8-.57.15.46.32.77.5.92l.45-1.89c.22.7-.09,1.49.5,1.79.21-.88-.64-1.55-.14-2.19.52.77.54,1.46.85.67.15.46.11.78-.03,1.02.29-.64.99-.43,1.01-1.44.58.96,1.27-.51,1.54,1.24.05-.44.44-1.49.79-1.62-.28,2.2,1.36-.12,1.59,2.14.15-1.95,1.6-1.15,2.27-2.34-.02.16-.06.47-.15.39.51.07.75.61,1.13.9-.22-1.55.47-2.04.7-3.07.86,1.38-.03,1.88.41,3.27-.26-1.24.8-1.43.41-2.44.62.84.47.38.94,1.61-.27-1.94.36-.4.52-1.66.83.83.5,1.78,1.11,1.06.45.53-.07,1.33-.07,1.33Zm16.52-6.44s0,.02,0,.02c-.14.05-.26.1-.34.13.07-.03.17-.07.34-.15Zm1.44-.28c-.18-.01-.4.02-.63.07-.12-.37-.14-.78.01-.78-.03.27.35.43.62.71Zm-4.43-7.12c.2-.2.31,0,.39.23-.1.04-.22.1-.37.2,0,.04,0,.09,0,.14-.02-.22-.03-.42-.01-.57Z"/>
        <path class="cls-1" d="m30.85,54.24s-.04.08-.08.1c.06.09.12.16.18.22,0-.12.01-.24.02-.36-.04.01-.08.02-.12.04Z"/>
        <path class="cls-1" d="m161.6,32.26l-.04-.02s.06.08.09.15c-.03-.05-.04-.08-.06-.13Z"/>
        <polygon class="cls-1" points="55.68 58.35 55.63 58.07 55.55 58.34 55.68 58.35"/>
        <path class="cls-1" d="m170.21,34.62c.03.09.08.19.16.26-.02-.07-.08-.17-.16-.26Z"/>
        <path class="cls-1" d="m173.68,34.25l.56.31c-.25-.19-.42-.27-.56-.31Z"/>
        <path class="cls-1" d="m176.41,34.32c0-.2-.02-.35-.03-.48,0,0,0,0,0,0l.04.49Z"/>
        <path class="cls-1" d="m134.79,43.2s-.07.03-.09.07c-.2.26-.05.14.09-.07Z"/>
        <path class="cls-1" d="m146.78,38.36c-.1.22-.19.45-.31.6.24.04.41.04.31-.6Z"/>
        <path class="cls-1" d="m121.12,47.05s0,0,0-.02c-.03,0-.06.01-.09.02h.09Z"/>
        <path class="cls-1" d="m145.89,39.04c.26.18.44.1.58-.09-.19-.04-.43-.12-.58.09Z"/>
        <path class="cls-1" d="m187.91,32.75l.14.02c-.02-.07-.02-.13-.02-.18l-.12.16Z"/>
        <path class="cls-1" d="m188.03,32.6l.12-.16c-.06.01-.12.03-.12.16Z"/>
        <path class="cls-1" d="m188.39,32.11l-.25.33c.1-.02.24,0,.25-.33Z"/>
        <path class="cls-1" d="m184.33,32.87l.03.41c0-.09,0-.22-.03-.41Z"/>
        <path class="cls-1" d="m183.29,33.18c.27.05.79.74,1.1.43l-.02-.33c-.06.63-.95-.82-1.07-.1Z"/>
        <path class="cls-1" d="m177.98,29.02l.95.16c-.23-.4-.54-.94-.16-1.11-1.35-1.07.4.91-.79.95Z"/>
        <path class="cls-1" d="m175.11,28.9c.44-.29-.12-.62-.14-.87-.23.44-.29.56.14.87Z"/>
        <path class="cls-1" d="m155.23,32.5l-.13-1.02c-.34.21.07.39.13,1.02Z"/>
        <polygon class="cls-1" points="152.37 38.39 152.84 38.95 152.84 38 152.37 38.39"/>
        <polygon class="cls-1" points="148.83 31.62 148.96 31.45 148.41 31.93 148.83 31.62"/>
        <path class="cls-1" d="m115.5,38.03l.34,1.22c.21-.27,0-1.67-.34-1.22Z"/>
        <path class="cls-1" d="m101.31,41.9c-.27-.59-.75-.92-.89-.26.34.03.75.45.89.26Z"/>
        <polygon class="cls-1" points="57.71 47.71 57.92 47.24 57.44 47.69 57.71 47.71"/>
      </g>
    </g>
  </g>
</svg>