<?xml version="1.0" encoding="UTF-8"?>
<svg id="_レイヤー_2" data-name="レイヤー 2" xmlns="http://www.w3.org/2000/svg" viewBox="0 0 197.31 44.21">
  <defs>
    <style>
      .cls-1 {
        fill: #732d11;
      }

      .cls-1, .cls-2 {
        stroke-width: 0px;
      }

      .cls-2 {
        fill: #1f8eda;
      }
    </style>
  </defs>
  <g id="_レイヤー_1-2" data-name="レイヤー 1">
    <g>
      <g>
        <path class="cls-1" d="m5.43,32.68c-.3.1-.58.08-.85-.04-.27-.12-.46-.33-.55-.62-.1-.3-.07-.59.08-.84.15-.26.37-.44.68-.53,4.06-1.3,8.14-2.52,12.23-3.65.86-.24,1.49-.48,1.88-.72.39-.25.62-.58.66-.98.04-.41-.03-.97-.21-1.68-.04-.14-.07-.28-.11-.42-4.81,1.27-9.59,2.66-14.35,4.17-.3.1-.59.08-.87-.04-.27-.12-.46-.33-.55-.62-.1-.3-.07-.59.09-.85.15-.26.39-.44.69-.53,4.79-1.52,9.6-2.92,14.44-4.2-.02-.08-.05-.17-.07-.25-.19-.73-.41-1.26-.66-1.59-.25-.33-.61-.51-1.08-.52-.48-.01-1.16.1-2.04.34-4.18,1.15-8.34,2.39-12.49,3.72-.31.1-.6.09-.87-.04-.28-.12-.46-.33-.55-.62-.1-.3-.08-.58.08-.83.15-.25.38-.43.69-.53,2.55-.82,5.11-1.6,7.67-2.35-.73-2.49-1.46-4.97-2.19-7.46-.09-.31-.05-.6.13-.86.18-.27.43-.45.75-.54.33-.1.65-.08.93.06.28.14.47.35.56.66.71,2.49,1.42,4.99,2.13,7.48.86-.25,1.72-.49,2.59-.73,1.43-.39,2.58-.55,3.45-.47s1.54.41,2.04,1.01c.5.59.89,1.48,1.19,2.65.23.91.47,1.83.7,2.74.29,1.15.37,2.1.24,2.86-.14.76-.55,1.39-1.23,1.88-.69.49-1.71.93-3.09,1.31-4.07,1.12-8.12,2.33-12.15,3.62Zm.64-14.16c-.23.24-.51.37-.84.38-.32.02-.6-.08-.83-.3-.31-.31-.71-.66-1.2-1.07-.49-.41-.99-.81-1.5-1.22-.51-.4-.96-.72-1.35-.97-.24-.16-.36-.39-.37-.68-.01-.29.09-.55.29-.78.22-.24.49-.38.8-.42.32-.04.61.02.88.19.41.26.88.59,1.4,1,.52.41,1.04.82,1.53,1.22.5.41.9.77,1.21,1.08.22.22.34.47.34.76,0,.29-.13.56-.38.8Zm8.06-2.24c-.31-.08-.53-.24-.67-.49-.14-.24-.15-.5-.05-.76.18-.46.37-1.02.58-1.68.21-.66.42-1.32.61-2,.2-.67.35-1.24.46-1.7.07-.33.25-.59.53-.76.28-.17.59-.24.92-.19.33.03.6.16.81.4.2.24.26.52.17.86-.12.49-.29,1.08-.5,1.77-.21.68-.44,1.36-.68,2.03-.24.67-.45,1.24-.65,1.7-.12.3-.32.53-.61.69-.29.16-.6.2-.92.13Z"/>
        <path class="cls-1" d="m28.85,27c-.27.06-.52.03-.75-.11-.23-.13-.38-.35-.46-.64-1.35-5.65-2.7-11.3-4.06-16.94-.19-.78-.23-1.4-.12-1.88.11-.48.43-.87.96-1.16.53-.3,1.31-.56,2.35-.8,1.65-.37,2.79-.3,3.43.19.63.49.78,1.28.45,2.37-.15.52-.33,1.1-.52,1.73-.2.63-.38,1.24-.55,1.82-.13.4-.15.69-.1.85.05.16.27.36.66.6.52.29.99.66,1.41,1.08.43.42.76.9,1.04,1.43.02-.2.11-.38.26-.55.15-.16.34-.27.59-.32,4.18-.89,8.38-1.69,12.59-2.4.33-.06.61,0,.83.16.22.17.36.39.41.67.04.27,0,.52-.17.76-.16.24-.4.38-.73.44-1.23.21-2.46.43-3.68.65.32,1.75.64,3.49.95,5.24.08.47.25.76.48.86.23.1.65.1,1.25,0,.52-.09.85-.25,1-.49.15-.24.25-.7.32-1.39.02-.33.16-.57.4-.73.24-.15.53-.21.85-.17.67.07.98.43.96,1.08-.03,1.25-.3,2.15-.81,2.7-.51.55-1.3.91-2.38,1.1-1.27.22-2.21.2-2.85-.08-.63-.28-1.05-.95-1.25-2-.36-1.91-.72-3.82-1.08-5.73-.6.11-1.2.23-1.8.35.28,2.15.09,4.01-.57,5.59-.66,1.58-1.86,2.94-3.59,4.08-.26.17-.54.25-.83.25-.29,0-.55-.13-.78-.39-.18-.21-.25-.45-.21-.74.04-.29.19-.52.45-.69,1.48-.99,2.48-2.09,3-3.3.52-1.21.68-2.68.49-4.4-.94.19-1.89.39-2.83.59-.18.04-.35.04-.51,0-.17-.04-.3-.1-.4-.2.02.11.05.22.07.33.28,1.28.12,2.32-.45,3.12-.57.8-1.44,1.33-2.6,1.61-.71.16-1.18-.04-1.39-.62-.24-.65.04-1.11.84-1.37.66-.23,1.1-.54,1.3-.93.2-.39.21-.99.04-1.8-.14-.64-.44-1.19-.91-1.65-.47-.46-.97-.86-1.49-1.2-.49-.31-.79-.64-.88-.98-.1-.34-.07-.81.07-1.42.07-.3.17-.66.28-1.09.11-.43.22-.85.32-1.28.1-.42.18-.76.23-1,.09-.45.07-.74-.1-.89-.17-.14-.61-.13-1.34.03-.64.15-1.04.31-1.19.5-.15.18-.17.52-.06,1.02,1.31,5.64,2.62,11.28,3.94,16.92.07.3.03.56-.11.78-.14.22-.36.37-.64.43Zm4.09-15.03c-.32.07-.61.03-.89-.12-.28-.14-.45-.38-.52-.71-.08-.36-.16-.72-.23-1.08-.24-1.14-.16-2,.26-2.58.43-.58,1.36-1.03,2.8-1.32.8-.16,1.61-.32,2.42-.48-.13-.67-.26-1.33-.39-2-.07-.35,0-.64.2-.9.2-.25.47-.41.82-.47.34-.07.65-.02.93.14.28.16.45.41.52.76.12.67.25,1.34.38,2,.89-.17,1.79-.33,2.68-.49,1.47-.26,2.5-.19,3.11.19.6.38,1,1.15,1.2,2.31.06.36.12.73.18,1.09.06.33-.01.61-.21.85-.19.24-.46.38-.79.44-.32.05-.61,0-.88-.15-.27-.16-.43-.4-.49-.73-.05-.3-.1-.6-.16-.9-.09-.5-.27-.84-.53-1.02-.27-.17-.72-.2-1.36-.09-2.31.41-4.61.85-6.91,1.32-.64.13-1.06.32-1.25.59-.19.26-.23.64-.13,1.14.06.3.12.6.19.89.07.33,0,.61-.17.86-.19.24-.44.4-.75.46Zm2.54.18c-.32.06-.59.02-.81-.13-.22-.15-.36-.36-.42-.63-.05-.27,0-.52.13-.75.15-.23.37-.38.69-.45,2.57-.52,5.15-1.01,7.72-1.47.31-.06.59,0,.81.16.22.16.35.38.4.65.05.27,0,.51-.16.73-.15.22-.38.36-.7.42-2.56.46-5.12.94-7.67,1.46Z"/>
        <path class="cls-1" d="m64.06,18.34c-.3.1-.59.09-.88-.03-.29-.12-.49-.32-.6-.59-.12-.29-.11-.58,0-.86.12-.28.33-.48.64-.59,1.81-.68,3.15-1.6,4.01-2.79.86-1.19,1.22-2.62,1.05-4.31-.11-1.12-.47-2.08-1.1-2.88-.62-.8-1.45-1.42-2.49-1.84-1.04-.42-2.23-.59-3.58-.51.06,2.67-.13,5.02-.57,7.04-.44,2.03-1.04,3.63-1.81,4.82-.77,1.19-1.64,1.85-2.61,1.99-.82.11-1.58-.02-2.32-.41-.73-.39-1.36-.98-1.88-1.8-.52-.82-.87-1.81-1.05-2.98-.2-1.3-.13-2.55.23-3.74.36-1.19.95-2.28,1.79-3.25.84-.97,1.87-1.78,3.11-2.42,1.23-.64,2.62-1.06,4.14-1.24,1.87-.22,3.57-.08,5.09.44,1.52.51,2.76,1.34,3.7,2.46.95,1.13,1.49,2.5,1.63,4.1.2,2.23-.29,4.15-1.43,5.76-1.15,1.62-2.84,2.82-5.08,3.64Zm-8.22-2.8c.38-.05.75-.38,1.11-.98.36-.6.69-1.4.99-2.42.3-1.01.54-2.2.71-3.54.18-1.35.25-2.79.21-4.33-1.43.39-2.61,1.01-3.52,1.85-.91.84-1.54,1.8-1.91,2.88-.36,1.07-.47,2.15-.33,3.25.17,1.16.52,2.01,1.04,2.58.52.56,1.08.8,1.71.71Z"/>
        <path class="cls-1" d="m88.67,17.03c-.72.02-1.09-.35-1.12-1.11-.04-1.01-.08-2.01-.11-3.02-2.37.09-4.74.2-7.11.35-.79.05-1.2-.21-1.24-.79-.01-.32,0-.59.06-.82.06-.23.17-.47.32-.72,2.27-3.4,4.63-6.78,7.06-10.14.34-.49.86-.76,1.55-.78.78-.03,1.17.35,1.2,1.11.1,3.24.2,6.48.29,9.72.67-.02,1.35-.04,2.02-.05.8-.02,1.2.3,1.22.96.02.67-.35,1.02-1.1,1.03-.69.02-1.39.03-2.08.06.03,1.01.06,2.02.09,3.02.03.77-.32,1.16-1.04,1.19Zm-7.09-5.86c1.93-.11,3.85-.2,5.78-.27-.1-2.58-.19-5.16-.29-7.75-1.88,2.66-3.71,5.33-5.49,8.02Z"/>
        <path class="cls-1" d="m109.3,15.99c-.31.02-.59-.06-.84-.26-.25-.19-.39-.44-.43-.74-.02-.32.07-.6.27-.83.21-.23.46-.36.78-.38,2.15-.17,3.87-.51,5.15-1.05,1.28-.54,2.23-1.21,2.83-2.03.6-.82.93-1.71.99-2.68.09-1.45-.3-2.55-1.18-3.29-.87-.74-2.39-1.08-4.52-1.01-.99.02-2.1.11-3.33.28-1.23.16-2.45.36-3.66.59-1.21.23-2.28.47-3.21.72-.31.08-.6.04-.89-.12-.29-.15-.47-.38-.55-.69-.09-.29-.04-.57.12-.84.16-.27.4-.45.71-.52.73-.19,1.56-.37,2.47-.55.92-.18,1.86-.34,2.85-.48.98-.15,1.95-.26,2.9-.36.95-.1,1.81-.15,2.6-.17,1.94-.06,3.52.19,4.72.73,1.2.55,2.07,1.33,2.6,2.34.53,1.01.74,2.21.65,3.58-.14,2.16-1.16,3.91-3,5.27-1.84,1.37-4.52,2.18-8.03,2.49Z"/>
        <path class="cls-1" d="m137.42,18.75c-.32.02-.6-.05-.85-.24-.25-.18-.4-.42-.44-.72-.05-.31.02-.59.21-.83.19-.24.44-.39.76-.43,1.92-.23,3.44-.81,4.56-1.77,1.12-.95,1.8-2.26,2.05-3.94.16-1.11.03-2.13-.39-3.06-.42-.93-1.07-1.72-1.99-2.38-.9-.65-2.03-1.1-3.36-1.35-.57,2.61-1.32,4.84-2.22,6.71-.9,1.87-1.87,3.29-2.89,4.26-1.03.97-2.03,1.41-3.01,1.31-.82-.08-1.53-.4-2.15-.94-.62-.55-1.08-1.28-1.39-2.2-.31-.92-.42-1.97-.32-3.15.11-1.31.48-2.5,1.11-3.58.63-1.08,1.47-1.99,2.51-2.73,1.04-.74,2.24-1.29,3.59-1.62,1.35-.33,2.79-.41,4.32-.23,1.87.22,3.48.77,4.85,1.63,1.36.86,2.37,1.95,3.02,3.27.65,1.32.85,2.78.61,4.37-.33,2.22-1.26,3.96-2.76,5.26-1.5,1.3-3.43,2.06-5.8,2.33Zm-7.32-4.66c.38.04.81-.19,1.31-.69.49-.5,1-1.2,1.53-2.12.53-.92,1.03-2.01,1.53-3.27.49-1.26.9-2.65,1.23-4.16-1.49.04-2.77.36-3.86.97-1.08.6-1.93,1.39-2.54,2.34-.61.95-.97,1.98-1.09,3.08-.11,1.16.03,2.08.4,2.75.37.67.86,1.04,1.49,1.1Z"/>
        <path class="cls-1" d="m153.16,23.62c-.29-.05-.52-.19-.69-.43-.17-.23-.24-.5-.18-.8.38-2.14.75-4.27,1.13-6.41-.59.11-1.15.2-1.67.29-.52.09-.96.16-1.3.22-.4.06-.73,0-.99-.18-.26-.18-.43-.43-.5-.75-.05-.33.02-.61.2-.84.18-.23.46-.37.84-.42.49-.07,1.06-.15,1.73-.26.67-.11,1.36-.21,2.08-.31.29-1.64.58-3.28.87-4.92-.66-.12-1.33-.23-1.99-.34-.2.47-.4.92-.59,1.34-.19.42-.38.8-.58,1.14-.17.28-.38.46-.64.55-.26.09-.55.07-.85-.04-.26-.12-.44-.32-.55-.59-.11-.27-.1-.54.05-.81.28-.49.58-1.09.88-1.79.31-.7.6-1.43.87-2.17.28-.74.49-1.4.64-1.98.09-.29.25-.5.51-.61.26-.11.52-.13.81-.05.3.08.53.23.69.45.15.21.19.47.1.78-.17.57-.38,1.2-.64,1.89.54.09,1.08.19,1.62.28.26-1.48.52-2.96.78-4.44.06-.32.21-.55.47-.7.26-.15.54-.2.85-.14.33.06.59.2.77.43.19.23.25.5.2.82-.27,1.48-.54,2.96-.81,4.44.52.1,1.05.19,1.57.29.29.05.51.19.68.42.17.23.23.47.17.74-.05.25-.19.45-.43.61-.24.16-.5.21-.79.16-.52-.1-1.04-.19-1.56-.29-.25,1.39-.51,2.77-.76,4.16.31-.04.61-.08.9-.13.29-.04.54-.09.77-.12.27-.05.51,0,.75.14.23.14.36.35.39.64.06.17.05.34-.02.51.25-.13.5-.17.74-.12,2.31.45,4.62.93,6.92,1.43.17-.77.34-1.55.51-2.32-2.49-.54-4.98-1.06-7.48-1.54-.28-.05-.51-.2-.67-.42-.16-.23-.22-.47-.17-.74.05-.27.19-.47.43-.62.23-.14.5-.19.78-.13,1.55.3,3.1.61,4.64.94l.5-2.4c-1.28-.27-2.56-.53-3.84-.78-.27-.05-.49-.19-.65-.42-.17-.23-.22-.47-.17-.74.05-.27.19-.47.43-.61.24-.14.49-.19.77-.13,1.29.25,2.58.51,3.86.78.15-.71.3-1.42.45-2.14.07-.31.23-.55.51-.7.28-.15.57-.2.9-.13.33.07.58.23.77.48.19.25.25.54.18.85-.15.71-.31,1.42-.46,2.13,1.38.3,2.76.61,4.13.92.29.07.51.21.67.44.16.23.21.47.15.74-.06.27-.22.47-.46.61-.25.14-.51.18-.79.11-1.37-.32-2.74-.62-4.11-.92-.17.8-.35,1.6-.52,2.39,1.83.4,3.65.81,5.47,1.24.28.07.5.21.65.44.15.22.19.47.13.73-.06.26-.21.47-.45.61-.24.14-.5.18-.77.11-.88-.21-1.77-.41-2.66-.61-.17.77-.35,1.54-.52,2.32.82.19,1.64.38,2.46.57.28.06.5.22.65.45.15.23.2.48.13.75-.06.27-.21.47-.45.61-.24.14-.5.18-.78.11-.81-.19-1.63-.38-2.45-.56-.36,1.58-.72,3.17-1.08,4.75-.18.81-.44,1.44-.78,1.88-.34.44-.8.7-1.41.79-.61.09-1.41.02-2.41-.19-.3-.07-.55-.21-.72-.45-.17-.23-.24-.52-.19-.85.05-.3.19-.54.44-.72.25-.18.52-.24.83-.19.53.08.94.11,1.22.09.27-.02.47-.11.6-.28.13-.16.23-.41.3-.76.33-1.52.67-3.05,1-4.57-2.29-.5-4.58-.98-6.88-1.43-.28-.05-.5-.19-.66-.42-.16-.23-.22-.47-.16-.74,0-.04.01-.08.02-.12-.11.04-.25.09-.41.14-.28.06-.63.13-1.04.21-.41.08-.84.16-1.3.26-.44,2.41-.88,4.82-1.33,7.22-.05.3-.2.53-.45.69-.25.16-.52.21-.82.16Zm9.09-2.1c-.28.14-.57.17-.89.09-.31-.08-.53-.26-.66-.53-.12-.24-.28-.54-.5-.91-.22-.37-.43-.74-.64-1.11-.22-.37-.39-.66-.54-.86-.16-.24-.2-.5-.13-.78.07-.28.23-.49.48-.64.29-.16.58-.2.88-.13.3.07.54.23.71.5.15.21.33.49.56.85.22.36.45.71.67,1.08.22.36.39.67.51.93.16.29.2.58.11.86-.08.28-.27.5-.56.67Z"/>
        <path class="cls-1" d="m173.91,27.73c-.37-.03-.65-.14-.86-.34-.21-.2-.31-.48-.28-.84,0-.31.13-.55.36-.7.23-.16.52-.22.85-.18.13,0,.5.02,1.1.07.6.05,1.31.1,2.13.16.51-1.95,1.02-3.9,1.53-5.85-1.35-.35-2.7-.7-4.06-1.03-.26-.06-.46-.2-.59-.42-.13-.21-.17-.44-.11-.67.06-.25.2-.44.41-.57.21-.13.45-.16.71-.1,1.36.34,2.72.68,4.08,1.04.56-2.15,1.13-4.3,1.69-6.45.26-.97.58-1.71.98-2.2.4-.49.98-.76,1.75-.82.77-.05,1.8.1,3.12.47,3.29.91,6.56,1.88,9.83,2.9.28.09.49.25.63.49.14.23.16.48.08.74-.08.24-.24.42-.49.54-.25.12-.51.13-.79.04-3.25-1.01-6.5-1.97-9.77-2.88-.67-.19-1.2-.28-1.58-.29-.39,0-.68.09-.88.3-.2.2-.38.52-.53.96,3.75,1.01,7.48,2.09,11.2,3.24.25.08.44.22.57.44.13.22.16.44.09.67-.08.24-.23.42-.46.52-.23.1-.47.12-.72.04-3.7-1.14-7.41-2.21-11.14-3.22-.15.56-.3,1.11-.45,1.67,3.71,1,7.4,2.07,11.08,3.2.25.07.43.22.56.44.13.22.16.44.09.67-.07.23-.22.4-.45.51-.23.11-.46.13-.71.06-3.66-1.13-7.33-2.19-11.02-3.18-.16.58-.31,1.16-.47,1.74,4.88,1.31,9.73,2.75,14.55,4.3.26.08.45.24.57.46.12.23.15.46.07.7-.07.23-.23.4-.46.51s-.48.12-.73.04c-3.09-.99-6.18-1.94-9.29-2.83.27,1.36.74,2.59,1.38,3.7.37-.14.81-.3,1.32-.47.51-.17,1-.35,1.47-.52.47-.17.85-.32,1.14-.45.28-.11.57-.11.85,0,.28.11.49.31.61.58.13.27.12.54-.01.8-.13.26-.34.44-.62.54-.48.17-1.06.37-1.74.62-.68.24-1.3.45-1.86.61,1.13,1.36,2.58,2.56,4.34,3.61.34.19.53.44.58.74.05.3-.02.58-.21.84-.2.25-.47.38-.79.38-.33,0-.64-.1-.94-.3-2.13-1.38-3.86-2.99-5.2-4.85-1.34-1.86-2.15-4-2.42-6.41-1.03-.29-2.06-.57-3.09-.85-.49,1.81-.97,3.62-1.46,5.42.7.06,1.36.11,1.97.16.61.05,1.13.1,1.56.14.43.04.69.06.79.07.34.01.6.11.76.29.16.18.24.41.23.69,0,.3-.1.53-.3.68-.2.15-.46.22-.78.21-.09,0-.37-.03-.84-.06-.47-.04-1.07-.08-1.77-.12-.71-.04-1.46-.09-2.25-.14-.79-.05-1.54-.09-2.26-.13-.71-.04-1.31-.06-1.79-.08-.48-.02-.78-.03-.88-.04Z"/>
      </g>
      <g>
        <path class="cls-2" d="m43.21,44.21c-.71,0-1.34-.17-1.9-.51-.55-.34-.99-.82-1.31-1.43-.32-.61-.48-1.32-.48-2.13s.16-1.52.48-2.12c.32-.61.75-1.08,1.31-1.42.55-.34,1.19-.51,1.9-.51s1.34.17,1.9.51c.55.34.99.81,1.31,1.42.32.61.48,1.32.48,2.12s-.16,1.52-.48,2.13c-.32.61-.75,1.09-1.31,1.43-.55.34-1.19.51-1.9.51Zm0-1.32c.66,0,1.19-.24,1.61-.73.41-.49.62-1.16.62-2.01s-.21-1.52-.62-2c-.41-.48-.95-.73-1.61-.73s-1.19.24-1.61.73c-.41.48-.62,1.15-.62,2s.21,1.52.62,2.01c.41.49.95.73,1.61.73Z"/>
        <path class="cls-2" d="m51.25,44.21c-.82,0-1.48-.26-1.99-.78-.51-.52-.76-1.28-.76-2.27v-4.12c0-.51.24-.76.71-.76s.73.25.73.76v3.83c0,.67.15,1.17.45,1.51.3.34.69.51,1.16.51.55,0,1-.18,1.35-.54.35-.36.53-.85.53-1.46v-3.84c0-.51.24-.76.73-.76s.71.25.71.76v6.22c0,.52-.22.78-.65.78s-.66-.13-.69-.4l-.03-.6c-.23.32-.53.6-.91.83-.38.23-.83.35-1.33.35Z"/>
        <path class="cls-2" d="m57.78,44.03c-.48,0-.73-.26-.73-.78v-6.22c0-.51.25-.76.76-.76.17,0,.32.04.45.13.13.09.19.25.19.48v.6c.22-.42.54-.76.98-1.02s.91-.39,1.41-.39c.66,0,.99.26.99.79,0,.23-.06.39-.19.49-.12.1-.26.15-.41.14-.08-.01-.16-.02-.26-.02s-.2,0-.31,0c-.6,0-1.11.2-1.53.59-.42.39-.63.91-.63,1.54v3.65c0,.52-.24.78-.73.78Z"/>
        <path class="cls-2" d="m69.26,44.03c-.48,0-.73-.26-.73-.78v-5.72h-.78c-.51,0-.76-.21-.76-.63s.19-.63.57-.63h.97v-1.45c0-.64.1-1.14.31-1.5.2-.37.49-.62.86-.78.37-.15.79-.23,1.28-.23.38,0,.69.04.93.12.24.08.36.27.36.57-.01.18-.06.33-.16.45s-.26.17-.5.16c-.08-.01-.15-.02-.23-.02-.08,0-.16,0-.23,0-.36,0-.64.11-.85.34s-.31.57-.31,1.03v1.31h1.52c.52,0,.78.21.78.63s-.25.63-.76.63h-1.53v5.72c0,.52-.24.78-.71.78Z"/>
        <path class="cls-2" d="m76.86,44.21c-.71,0-1.34-.17-1.9-.51-.55-.34-.99-.82-1.31-1.43-.32-.61-.48-1.32-.48-2.13s.16-1.52.48-2.12c.32-.61.75-1.08,1.31-1.42.55-.34,1.19-.51,1.9-.51s1.34.17,1.9.51c.55.34.99.81,1.31,1.42.32.61.48,1.32.48,2.12s-.16,1.52-.48,2.13c-.32.61-.75,1.09-1.31,1.43-.55.34-1.19.51-1.9.51Zm0-1.32c.66,0,1.19-.24,1.61-.73.41-.49.62-1.16.62-2.01s-.21-1.52-.62-2c-.41-.48-.95-.73-1.61-.73s-1.19.24-1.61.73c-.41.48-.62,1.15-.62,2s.21,1.52.62,2.01c.41.49.95.73,1.61.73Z"/>
        <path class="cls-2" d="m84.9,44.21c-.82,0-1.48-.26-1.99-.78-.51-.52-.76-1.28-.76-2.27v-4.12c0-.51.24-.76.71-.76s.73.25.73.76v3.83c0,.67.15,1.17.45,1.51.3.34.69.51,1.16.51.55,0,1-.18,1.35-.54.35-.36.53-.85.53-1.46v-3.84c0-.51.24-.76.73-.76s.71.25.71.76v6.22c0,.52-.22.78-.65.78s-.66-.13-.69-.4l-.03-.6c-.23.32-.53.6-.91.83-.38.23-.83.35-1.33.35Z"/>
        <path class="cls-2" d="m91.43,44.03c-.48,0-.73-.26-.73-.78v-6.22c0-.51.25-.76.76-.76.17,0,.32.04.45.13.13.09.19.25.19.48v.6c.22-.42.54-.76.98-1.02s.91-.39,1.41-.39c.66,0,.99.26.99.79,0,.23-.06.39-.19.49-.12.1-.26.15-.41.14-.08-.01-.16-.02-.26-.02s-.2,0-.31,0c-.6,0-1.11.2-1.53.59-.42.39-.63.91-.63,1.54v3.65c0,.52-.24.78-.73.78Z"/>
        <path class="cls-2" d="m102.91,44.03c-.48,0-.73-.26-.73-.78v-5.72h-.78c-.51,0-.76-.21-.76-.63s.19-.63.57-.63h.97v-1.45c0-.64.1-1.14.31-1.5.2-.37.49-.62.86-.78.37-.15.79-.23,1.28-.23.38,0,.69.04.93.12.24.08.36.27.36.57-.01.18-.06.33-.16.45s-.26.17-.5.16c-.08-.01-.15-.02-.23-.02-.08,0-.16,0-.23,0-.36,0-.64.11-.85.34s-.31.57-.31,1.03v1.31h1.52c.52,0,.78.21.78.63s-.25.63-.76.63h-1.53v5.72c0,.52-.24.78-.71.78Z"/>
        <path class="cls-2" d="m110.54,44.21c-.73,0-1.38-.16-1.94-.47-.56-.31-1-.77-1.31-1.38-.31-.61-.47-1.34-.47-2.21s.16-1.55.47-2.16c.31-.61.74-1.08,1.28-1.41.54-.33,1.17-.5,1.88-.5s1.32.17,1.82.51c.5.34.88.77,1.15,1.3.26.53.4,1.07.4,1.63,0,.31-.06.52-.19.62-.13.1-.32.15-.57.15h-4.81c.02.86.24,1.52.65,1.96.41.45.97.67,1.66.67.82,0,1.44-.33,1.86-.99.17-.18.33-.3.48-.36.15-.06.31-.03.48.09.18.12.29.27.32.45.03.18-.05.38-.22.6-.36.51-.78.88-1.27,1.12-.49.24-1.05.36-1.67.36Zm-2.21-5.07h4.07c-.09-.56-.3-1.01-.65-1.36-.34-.34-.78-.52-1.31-.52-.56,0-1.02.16-1.39.48-.37.32-.61.78-.73,1.4Z"/>
        <path class="cls-2" d="m118,44.16c-.79.02-1.44-.16-1.95-.54-.51-.38-.77-.93-.77-1.66,0-.53.17-.99.51-1.37s.78-.69,1.31-.91c.53-.22,1.08-.33,1.66-.33.33-.02.64,0,.92.09.28.08.52.2.73.35v-.97c0-.6-.13-1-.38-1.18-.25-.18-.64-.27-1.17-.27-.33,0-.69.05-1.06.14-.37.09-.72.21-1.04.36-.23.09-.42.12-.58.09-.16-.03-.3-.13-.4-.3-.11-.18-.13-.36-.07-.52.06-.17.2-.3.43-.4.4-.19.84-.35,1.32-.47.48-.12.95-.18,1.41-.18.99,0,1.73.2,2.21.59s.73,1.11.73,2.14v3.89c0,.17.01.28.04.33.03.05.09.09.2.12.13.04.27.08.42.1.15.03.23.08.23.17,0,.36-.18.57-.55.65-.24.05-.45.08-.65.08-.34,0-.59-.06-.74-.19-.15-.13-.25-.36-.31-.69-.29.29-.66.51-1.1.65-.44.14-.89.22-1.34.24Zm.02-1.28c.45-.01.86-.08,1.24-.2.37-.12.66-.3.88-.53.22-.23.31-.51.29-.83-.02-.3-.18-.52-.46-.65-.29-.13-.65-.18-1.09-.16-.4.01-.76.08-1.1.22-.33.13-.6.31-.8.52-.2.22-.3.46-.3.73.01.3.13.53.37.69.24.16.56.23.97.22Z"/>
        <path class="cls-2" d="m127.42,44.21c-.73,0-1.29-.14-1.66-.43-.38-.29-.57-.83-.57-1.64v-4.6h-.81c-.51,0-.76-.21-.76-.63,0-.22.06-.37.17-.48.11-.1.31-.15.59-.15h.81v-2.02c0-.51.24-.76.73-.76s.71.25.71.76v2.02h1.49c.51,0,.76.21.76.63s-.25.63-.76.63h-1.49v4.3c0,.42.09.7.28.85.19.15.47.22.85.22h.1c.29,0,.53.02.73.07.19.05.29.22.29.51,0,.32-.15.53-.44.61-.3.08-.63.12-1.01.12Z"/>
        <path class="cls-2" d="m133.09,44.21c-.82,0-1.48-.26-1.99-.78-.51-.52-.76-1.28-.76-2.27v-4.12c0-.51.24-.76.71-.76s.73.25.73.76v3.83c0,.67.15,1.17.45,1.51.3.34.69.51,1.16.51.55,0,1-.18,1.35-.54.35-.36.53-.85.53-1.46v-3.84c0-.51.24-.76.73-.76s.71.25.71.76v6.22c0,.52-.22.78-.65.78s-.66-.13-.69-.4l-.03-.6c-.23.32-.53.6-.91.83-.38.23-.83.35-1.33.35Z"/>
        <path class="cls-2" d="m139.61,44.03c-.48,0-.73-.26-.73-.78v-6.22c0-.51.25-.76.76-.76.17,0,.32.04.45.13.13.09.19.25.19.48v.6c.22-.42.54-.76.98-1.02s.91-.39,1.41-.39c.66,0,.99.26.99.79,0,.23-.06.39-.19.49-.12.1-.26.15-.41.14-.08-.01-.16-.02-.26-.02s-.2,0-.31,0c-.6,0-1.11.2-1.53.59-.42.39-.63.91-.63,1.54v3.65c0,.52-.24.78-.73.78Z"/>
        <path class="cls-2" d="m148.31,44.21c-.73,0-1.38-.16-1.94-.47-.56-.31-1-.77-1.31-1.38-.31-.61-.47-1.34-.47-2.21s.16-1.55.47-2.16c.31-.61.74-1.08,1.28-1.41.54-.33,1.17-.5,1.88-.5s1.32.17,1.82.51c.5.34.88.77,1.15,1.3.26.53.4,1.07.4,1.63,0,.31-.06.52-.19.62-.13.1-.32.15-.57.15h-4.81c.02.86.24,1.52.65,1.96.41.45.97.67,1.66.67.82,0,1.44-.33,1.86-.99.17-.18.33-.3.48-.36.15-.06.31-.03.48.09.18.12.29.27.32.45.03.18-.05.38-.22.6-.36.51-.78.88-1.27,1.12-.49.24-1.05.36-1.67.36Zm-2.21-5.07h4.07c-.09-.56-.3-1.01-.65-1.36-.34-.34-.78-.52-1.31-.52-.56,0-1.02.16-1.39.48-.37.32-.61.78-.73,1.4Z"/>
        <path class="cls-2" d="m156.17,44.2c-1.1,0-2-.31-2.71-.92-.2-.15-.31-.32-.32-.5,0-.18.07-.35.22-.5.15-.15.31-.22.47-.21.16.01.34.09.55.23.48.42,1.1.63,1.86.63.47,0,.85-.09,1.13-.26.28-.17.42-.46.42-.86,0-.32-.15-.56-.44-.72-.29-.16-.81-.3-1.55-.44-.48-.1-.92-.23-1.3-.39-.38-.16-.69-.4-.91-.7-.23-.31-.34-.71-.34-1.2s.13-.88.39-1.22c.26-.34.6-.6,1.03-.78.43-.18.9-.27,1.41-.27.94,0,1.69.25,2.26.74.22.13.34.28.36.46.03.18-.03.34-.17.49-.14.17-.29.25-.45.24-.16-.01-.35-.07-.57-.18-.36-.31-.83-.47-1.42-.47-.46,0-.81.09-1.03.28-.23.19-.34.41-.34.67,0,.3.13.52.39.66.26.14.73.29,1.41.44.54.12,1.01.27,1.43.47.41.19.74.45.97.76.23.31.35.72.35,1.21,0,.74-.28,1.32-.85,1.73s-1.31.61-2.24.61Z"/>
      </g>
    </g>
  </g>
</svg>