<?xml version="1.0" encoding="UTF-8"?>
<svg id="_レイヤー_2" data-name="レイヤー 2" xmlns="http://www.w3.org/2000/svg" viewBox="0 0 3470.37 249.7">
  <defs>
    <style>
      .cls-1 {
        fill: #fff;
        stroke-width: 0px;
      }
    </style>
  </defs>
  <g id="_レイヤー_2-2" data-name="レイヤー 2">
    <path class="cls-1" d="m3437.93,193.95v-93.01h-26.96v28.6h-48.4v12.4h-11.27l-10.21-9.1-10.21,9.1h-11.49v-18.71h-50.43v25.24l-22.47-7.57-26.79,9.03v-40.94l-27.56-6.72v51.83h-11.79v-59.4h-42.23v-26.39h-58.01v67.99h-46.2v17.81h-17.38v-80.3h-49.47v120.16h-13.08v-126.07h-4.07v-21.22h-3.45v-19.4h-6.09V0h-3.83v27.27h-6.09v19.4h-3.45v21.22h-4.07v70.65h-10.09v-55.42h-50.43v110.83h-.02v-65.56h-49.47v65.56h-64.66v-93.01h-26.96v28.6h-48.4v12.4h-11.27l-10.21-9.1-10.21,9.1h-11.49v-18.71h-50.43v25.24l-22.47-7.57-26.79,9.03v-40.94l-27.56-6.72v51.83h-11.79v-59.4h-42.23v-26.39h-58.01v67.99h-46.2v17.81h-17.38v-80.3h-49.47v120.16h-13.08v-126.07h-4.07v-21.22h-3.45v-19.4h-6.09V0h-3.83v27.27h-6.09v19.4h-3.45v21.22h-4.07v70.65h-10.09v-55.42h-50.43v110.83h-.02v-65.56h-49.47v65.56h-67.66v-93.01h-26.96v28.6h-48.4v12.4h-11.27l-10.21-9.1-10.21,9.1h-11.49v-18.71h-50.43v25.24l-22.47-7.57-26.79,9.03v-40.94l-27.56-6.72v51.83h-11.79v-59.4h-42.23v-26.39h-58.01v67.99h-46.2v17.81h-17.38v-80.3h-49.47v120.16h-13.08v-126.07h-4.07v-21.22h-3.45v-19.4h-6.09V0h-3.83v27.27h-6.09v19.4h-3.45v21.22h-4.07v70.65h-10.09v-55.42h-50.43v110.83h-.02v-65.56h-49.47v65.56h-65.66v-93.01h-26.96v28.6h-48.4v12.4h-11.27l-10.21-9.1-10.21,9.1h-11.49v-18.71h-50.43v25.24l-22.47-7.57-26.79,9.03v-40.94l-27.56-6.72v51.83h-11.79v-59.4h-42.23v-26.39h-58.01v67.99h-46.2v17.81h-17.38v-80.3h-49.47v120.16h-13.08v-126.07h-4.07v-21.22h-3.45v-19.4h-6.09V0h-3.83v27.27h-6.09v19.4h-3.45v21.22h-4.07v70.65h-10.09v-55.42h-50.43v110.83h-.02v-65.56h-49.47v65.56h-71.66v-93.01h-26.96v28.6h-48.4v12.4h-11.27l-10.21-9.1-10.21,9.1h-11.49v-18.71h-50.43v25.24l-22.47-7.57-26.79,9.03v-40.94l-27.56-6.72v51.83h-11.79v-59.4h-42.23v-26.39h-58.01v67.99h-46.2v17.81h-17.38v-80.3h-49.47v120.16h-13.08v-126.07h-4.07v-21.22h-3.45v-19.4h-6.09V0h-3.83v27.27h-6.09v19.4h-3.45v21.22h-4.07v70.65h-10.09v-55.42h-50.43v110.83h-.02v-65.56h-49.47v65.56H0v55.75h3470.37v-55.75h-32.44ZM60.33,173.94h-5.92v-5.92h5.92v5.92Zm0-13.71h-5.92v-5.92h5.92v5.92Zm0-13.71h-5.92v-5.92h5.92v5.92Zm11.39,27.43h-5.92v-5.92h5.92v5.92Zm0-13.71h-5.92v-5.92h5.92v5.92Zm0-13.71h-5.92v-5.92h5.92v5.92Zm11.39,27.43h-5.92v-5.92h5.92v5.92Zm0-13.71h-5.92v-5.92h5.92v5.92Zm0-13.71h-5.92v-5.92h5.92v5.92Zm26.5,26.84h-3.06v-70.43h3.06v70.43Zm9.85,0h-3.06v-70.43h3.06v70.43Zm9.85,0h-3.06v-70.43h3.06v70.43Zm37.14-7.06h-3.06v-85.82h3.06v85.82Zm7.67,0h-3.06v-85.82h3.06v85.82Zm40.33,7.64h-5.92v-5.92h5.92v5.92Zm0-13.71h-5.92v-5.92h5.92v5.92Zm0-13.71h-5.92v-5.92h5.92v5.92Zm0-27.17h-5.92v-5.92h5.92v5.92Zm0-13.71h-5.92v-5.92h5.92v5.92Zm0-13.71h-5.92v-5.92h5.92v5.92Zm11.39,82.03h-5.92v-5.92h5.92v5.92Zm0-13.71h-5.92v-5.92h5.92v5.92Zm0-13.71h-5.92v-5.92h5.92v5.92Zm0-27.17h-5.92v-5.92h5.92v5.92Zm0-13.71h-5.92v-5.92h5.92v5.92Zm0-13.71h-5.92v-5.92h5.92v5.92Zm11.39,82.03h-5.92v-5.92h5.92v5.92Zm0-13.71h-5.92v-5.92h5.92v5.92Zm0-13.71h-5.92v-5.92h5.92v5.92Zm0-27.17h-5.92v-5.92h5.92v5.92Zm0-13.71h-5.92v-5.92h5.92v5.92Zm0-13.71h-5.92v-5.92h5.92v5.92Zm44.07,89.92h-5.92v-5.92h5.92v5.92Zm0-13.71h-5.92v-5.92h5.92v5.92Zm0-13.71h-5.92v-5.92h5.92v5.92Zm11.39,27.43h-5.92v-5.92h5.92v5.92Zm0-13.71h-5.92v-5.92h5.92v5.92Zm0-13.71h-5.92v-5.92h5.92v5.92Zm11.39,27.43h-5.92v-5.92h5.92v5.92Zm0-13.71h-5.92v-5.92h5.92v5.92Zm0-13.71h-5.92v-5.92h5.92v5.92Zm164.28,33.24h-5.92v-5.92h5.92v5.92Zm0-13.71h-5.92v-5.92h5.92v5.92Zm0-13.71h-5.92v-5.92h5.92v5.92Zm11.39,27.43h-5.92v-5.92h5.92v5.92Zm0-13.71h-5.92v-5.92h5.92v5.92Zm0-13.71h-5.92v-5.92h5.92v5.92Zm11.39,27.43h-5.92v-5.92h5.92v5.92Zm0-13.71h-5.92v-5.92h5.92v5.92Zm0-13.71h-5.92v-5.92h5.92v5.92Zm25.02,21.13h-3.06v-45.36h3.06v45.36Zm9.85,0h-3.06v-45.36h3.06v45.36Zm9.85,0h-3.06v-45.36h3.06v45.36Zm27.11,2.2h-5.92v-5.92h5.92v5.92Zm0-13.71h-5.92v-5.92h5.92v5.92Zm0-13.71h-5.92v-5.92h5.92v5.92Zm11.39,27.43h-5.92v-5.92h5.92v5.92Zm0-13.71h-5.92v-5.92h5.92v5.92Zm0-13.71h-5.92v-5.92h5.92v5.92Zm11.39,27.43h-5.92v-5.92h5.92v5.92Zm0-13.71h-5.92v-5.92h5.92v5.92Zm0-13.71h-5.92v-5.92h5.92v5.92Zm50.23,25.52h-37.54v-3.06h37.54v3.06Zm0-10.01h-37.54v-3.06h37.54v3.06Zm0-10.01h-37.54v-3.06h37.54v3.06Zm0-10.01h-37.54v-3.06h37.54v3.06Zm0-10.01h-37.54v-3.06h37.54v3.06Zm121.04,32.34h-5.92v-5.92h5.92v5.92Zm0-13.71h-5.92v-5.92h5.92v5.92Zm0-13.71h-5.92v-5.92h5.92v5.92Zm11.39,27.43h-5.92v-5.92h5.92v5.92Zm0-13.71h-5.92v-5.92h5.92v5.92Zm0-13.71h-5.92v-5.92h5.92v5.92Zm11.39,27.43h-5.92v-5.92h5.92v5.92Zm0-13.71h-5.92v-5.92h5.92v5.92Zm0-13.71h-5.92v-5.92h5.92v5.92Zm26.51,26.84h-3.06v-70.43h3.06v70.43Zm9.85,0h-3.06v-70.43h3.06v70.43Zm9.85,0h-3.06v-70.43h3.06v70.43Zm37.14-7.06h-3.06v-85.82h3.06v85.82Zm7.67,0h-3.06v-85.82h3.06v85.82Zm40.33,7.64h-5.92v-5.92h5.92v5.92Zm0-13.71h-5.92v-5.92h5.92v5.92Zm0-13.71h-5.92v-5.92h5.92v5.92Zm0-27.17h-5.92v-5.92h5.92v5.92Zm0-13.71h-5.92v-5.92h5.92v5.92Zm0-13.71h-5.92v-5.92h5.92v5.92Zm11.39,82.03h-5.92v-5.92h5.92v5.92Zm0-13.71h-5.92v-5.92h5.92v5.92Zm0-13.71h-5.92v-5.92h5.92v5.92Zm0-27.17h-5.92v-5.92h5.92v5.92Zm0-13.71h-5.92v-5.92h5.92v5.92Zm0-13.71h-5.92v-5.92h5.92v5.92Zm11.39,82.03h-5.92v-5.92h5.92v5.92Zm0-13.71h-5.92v-5.92h5.92v5.92Zm0-13.71h-5.92v-5.92h5.92v5.92Zm0-27.17h-5.92v-5.92h5.92v5.92Zm0-13.71h-5.92v-5.92h5.92v5.92Zm0-13.71h-5.92v-5.92h5.92v5.92Zm44.07,89.92h-5.92v-5.92h5.92v5.92Zm0-13.71h-5.92v-5.92h5.92v5.92Zm0-13.71h-5.92v-5.92h5.92v5.92Zm11.39,27.43h-5.92v-5.92h5.92v5.92Zm0-13.71h-5.92v-5.92h5.92v5.92Zm0-13.71h-5.92v-5.92h5.92v5.92Zm11.39,27.43h-5.92v-5.92h5.92v5.92Zm0-13.71h-5.92v-5.92h5.92v5.92Zm0-13.71h-5.92v-5.92h5.92v5.92Zm164.28,33.24h-5.92v-5.92h5.92v5.92Zm0-13.71h-5.92v-5.92h5.92v5.92Zm0-13.71h-5.92v-5.92h5.92v5.92Zm11.39,27.43h-5.92v-5.92h5.92v5.92Zm0-13.71h-5.92v-5.92h5.92v5.92Zm0-13.71h-5.92v-5.92h5.92v5.92Zm11.39,27.43h-5.92v-5.92h5.92v5.92Zm0-13.71h-5.92v-5.92h5.92v5.92Zm0-13.71h-5.92v-5.92h5.92v5.92Zm25.02,21.13h-3.06v-45.36h3.06v45.36Zm9.85,0h-3.06v-45.36h3.06v45.36Zm9.85,0h-3.06v-45.36h3.06v45.36Zm27.11,2.2h-5.92v-5.92h5.92v5.92Zm0-13.71h-5.92v-5.92h5.92v5.92Zm0-13.71h-5.92v-5.92h5.92v5.92Zm11.39,27.43h-5.92v-5.92h5.92v5.92Zm0-13.71h-5.92v-5.92h5.92v5.92Zm0-13.71h-5.92v-5.92h5.92v5.92Zm11.39,27.43h-5.92v-5.92h5.92v5.92Zm0-13.71h-5.92v-5.92h5.92v5.92Zm0-13.71h-5.92v-5.92h5.92v5.92Zm50.23,25.52h-37.54v-3.06h37.54v3.06Zm0-10.01h-37.54v-3.06h37.54v3.06Zm0-10.01h-37.54v-3.06h37.54v3.06Zm0-10.01h-37.54v-3.06h37.54v3.06Zm0-10.01h-37.54v-3.06h37.54v3.06Zm115.04,32.34h-5.92v-5.92h5.92v5.92Zm0-13.71h-5.92v-5.92h5.92v5.92Zm0-13.71h-5.92v-5.92h5.92v5.92Zm11.39,27.43h-5.92v-5.92h5.92v5.92Zm0-13.71h-5.92v-5.92h5.92v5.92Zm0-13.71h-5.92v-5.92h5.92v5.92Zm11.39,27.43h-5.92v-5.92h5.92v5.92Zm0-13.71h-5.92v-5.92h5.92v5.92Zm0-13.71h-5.92v-5.92h5.92v5.92Zm26.5,26.84h-3.06v-70.43h3.06v70.43Zm9.85,0h-3.06v-70.43h3.06v70.43Zm9.85,0h-3.06v-70.43h3.06v70.43Zm37.14-7.06h-3.06v-85.82h3.06v85.82Zm7.67,0h-3.06v-85.82h3.06v85.82Zm40.33,7.64h-5.92v-5.92h5.92v5.92Zm0-13.71h-5.92v-5.92h5.92v5.92Zm0-13.71h-5.92v-5.92h5.92v5.92Zm0-27.17h-5.92v-5.92h5.92v5.92Zm0-13.71h-5.92v-5.92h5.92v5.92Zm0-13.71h-5.92v-5.92h5.92v5.92Zm11.39,82.03h-5.92v-5.92h5.92v5.92Zm0-13.71h-5.92v-5.92h5.92v5.92Zm0-13.71h-5.92v-5.92h5.92v5.92Zm0-27.17h-5.92v-5.92h5.92v5.92Zm0-13.71h-5.92v-5.92h5.92v5.92Zm0-13.71h-5.92v-5.92h5.92v5.92Zm11.39,82.03h-5.92v-5.92h5.92v5.92Zm0-13.71h-5.92v-5.92h5.92v5.92Zm0-13.71h-5.92v-5.92h5.92v5.92Zm0-27.17h-5.92v-5.92h5.92v5.92Zm0-13.71h-5.92v-5.92h5.92v5.92Zm0-13.71h-5.92v-5.92h5.92v5.92Zm44.07,89.92h-5.92v-5.92h5.92v5.92Zm0-13.71h-5.92v-5.92h5.92v5.92Zm0-13.71h-5.92v-5.92h5.92v5.92Zm11.39,27.43h-5.92v-5.92h5.92v5.92Zm0-13.71h-5.92v-5.92h5.92v5.92Zm0-13.71h-5.92v-5.92h5.92v5.92Zm11.39,27.43h-5.92v-5.92h5.92v5.92Zm0-13.71h-5.92v-5.92h5.92v5.92Zm0-13.71h-5.92v-5.92h5.92v5.92Zm164.28,33.24h-5.92v-5.92h5.92v5.92Zm0-13.71h-5.92v-5.92h5.92v5.92Zm0-13.71h-5.92v-5.92h5.92v5.92Zm11.39,27.43h-5.92v-5.92h5.92v5.92Zm0-13.71h-5.92v-5.92h5.92v5.92Zm0-13.71h-5.92v-5.92h5.92v5.92Zm11.39,27.43h-5.92v-5.92h5.92v5.92Zm0-13.71h-5.92v-5.92h5.92v5.92Zm0-13.71h-5.92v-5.92h5.92v5.92Zm25.02,21.13h-3.06v-45.36h3.06v45.36Zm9.85,0h-3.06v-45.36h3.06v45.36Zm9.85,0h-3.06v-45.36h3.06v45.36Zm27.11,2.2h-5.92v-5.92h5.92v5.92Zm0-13.71h-5.92v-5.92h5.92v5.92Zm0-13.71h-5.92v-5.92h5.92v5.92Zm11.39,27.43h-5.92v-5.92h5.92v5.92Zm0-13.71h-5.92v-5.92h5.92v5.92Zm0-13.71h-5.92v-5.92h5.92v5.92Zm11.39,27.43h-5.92v-5.92h5.92v5.92Zm0-13.71h-5.92v-5.92h5.92v5.92Zm0-13.71h-5.92v-5.92h5.92v5.92Zm50.23,25.52h-37.54v-3.06h37.54v3.06Zm0-10.01h-37.54v-3.06h37.54v3.06Zm0-10.01h-37.54v-3.06h37.54v3.06Zm0-10.01h-37.54v-3.06h37.54v3.06Zm0-10.01h-37.54v-3.06h37.54v3.06Zm117.04,32.34h-5.92v-5.92h5.92v5.92Zm0-13.71h-5.92v-5.92h5.92v5.92Zm0-13.71h-5.92v-5.92h5.92v5.92Zm11.39,27.43h-5.92v-5.92h5.92v5.92Zm0-13.71h-5.92v-5.92h5.92v5.92Zm0-13.71h-5.92v-5.92h5.92v5.92Zm11.39,27.43h-5.92v-5.92h5.92v5.92Zm0-13.71h-5.92v-5.92h5.92v5.92Zm0-13.71h-5.92v-5.92h5.92v5.92Zm26.51,26.84h-3.06v-70.43h3.06v70.43Zm9.85,0h-3.06v-70.43h3.06v70.43Zm9.85,0h-3.06v-70.43h3.06v70.43Zm37.14-7.06h-3.06v-85.82h3.06v85.82Zm7.67,0h-3.06v-85.82h3.06v85.82Zm40.33,7.64h-5.92v-5.92h5.92v5.92Zm0-13.71h-5.92v-5.92h5.92v5.92Zm0-13.71h-5.92v-5.92h5.92v5.92Zm0-27.17h-5.92v-5.92h5.92v5.92Zm0-13.71h-5.92v-5.92h5.92v5.92Zm0-13.71h-5.92v-5.92h5.92v5.92Zm11.39,82.03h-5.92v-5.92h5.92v5.92Zm0-13.71h-5.92v-5.92h5.92v5.92Zm0-13.71h-5.92v-5.92h5.92v5.92Zm0-27.17h-5.92v-5.92h5.92v5.92Zm0-13.71h-5.92v-5.92h5.92v5.92Zm0-13.71h-5.92v-5.92h5.92v5.92Zm11.39,82.03h-5.92v-5.92h5.92v5.92Zm0-13.71h-5.92v-5.92h5.92v5.92Zm0-13.71h-5.92v-5.92h5.92v5.92Zm0-27.17h-5.92v-5.92h5.92v5.92Zm0-13.71h-5.92v-5.92h5.92v5.92Zm0-13.71h-5.92v-5.92h5.92v5.92Zm44.07,89.92h-5.92v-5.92h5.92v5.92Zm0-13.71h-5.92v-5.92h5.92v5.92Zm0-13.71h-5.92v-5.92h5.92v5.92Zm11.39,27.43h-5.92v-5.92h5.92v5.92Zm0-13.71h-5.92v-5.92h5.92v5.92Zm0-13.71h-5.92v-5.92h5.92v5.92Zm11.39,27.43h-5.92v-5.92h5.92v5.92Zm0-13.71h-5.92v-5.92h5.92v5.92Zm0-13.71h-5.92v-5.92h5.92v5.92Zm164.28,33.24h-5.92v-5.92h5.92v5.92Zm0-13.71h-5.92v-5.92h5.92v5.92Zm0-13.71h-5.92v-5.92h5.92v5.92Zm11.39,27.43h-5.92v-5.92h5.92v5.92Zm0-13.71h-5.92v-5.92h5.92v5.92Zm0-13.71h-5.92v-5.92h5.92v5.92Zm11.39,27.43h-5.92v-5.92h5.92v5.92Zm0-13.71h-5.92v-5.92h5.92v5.92Zm0-13.71h-5.92v-5.92h5.92v5.92Zm25.02,21.13h-3.06v-45.36h3.06v45.36Zm9.85,0h-3.06v-45.36h3.06v45.36Zm9.85,0h-3.06v-45.36h3.06v45.36Zm27.11,2.2h-5.92v-5.92h5.92v5.92Zm0-13.71h-5.92v-5.92h5.92v5.92Zm0-13.71h-5.92v-5.92h5.92v5.92Zm11.39,27.43h-5.92v-5.92h5.92v5.92Zm0-13.71h-5.92v-5.92h5.92v5.92Zm0-13.71h-5.92v-5.92h5.92v5.92Zm11.39,27.43h-5.92v-5.92h5.92v5.92Zm0-13.71h-5.92v-5.92h5.92v5.92Zm0-13.71h-5.92v-5.92h5.92v5.92Zm50.23,25.52h-37.54v-3.06h37.54v3.06Zm0-10.01h-37.54v-3.06h37.54v3.06Zm0-10.01h-37.54v-3.06h37.54v3.06Zm0-10.01h-37.54v-3.06h37.54v3.06Zm0-10.01h-37.54v-3.06h37.54v3.06Zm114.04,32.34h-5.92v-5.92h5.92v5.92Zm0-13.71h-5.92v-5.92h5.92v5.92Zm0-13.71h-5.92v-5.92h5.92v5.92Zm11.39,27.43h-5.92v-5.92h5.92v5.92Zm0-13.71h-5.92v-5.92h5.92v5.92Zm0-13.71h-5.92v-5.92h5.92v5.92Zm11.39,27.43h-5.92v-5.92h5.92v5.92Zm0-13.71h-5.92v-5.92h5.92v5.92Zm0-13.71h-5.92v-5.92h5.92v5.92Zm26.5,26.84h-3.06v-70.43h3.06v70.43Zm9.85,0h-3.06v-70.43h3.06v70.43Zm9.85,0h-3.06v-70.43h3.06v70.43Zm37.14-7.06h-3.06v-85.82h3.06v85.82Zm7.67,0h-3.06v-85.82h3.06v85.82Zm40.33,7.64h-5.92v-5.92h5.92v5.92Zm0-13.71h-5.92v-5.92h5.92v5.92Zm0-13.71h-5.92v-5.92h5.92v5.92Zm0-27.17h-5.92v-5.92h5.92v5.92Zm0-13.71h-5.92v-5.92h5.92v5.92Zm0-13.71h-5.92v-5.92h5.92v5.92Zm11.39,82.03h-5.92v-5.92h5.92v5.92Zm0-13.71h-5.92v-5.92h5.92v5.92Zm0-13.71h-5.92v-5.92h5.92v5.92Zm0-27.17h-5.92v-5.92h5.92v5.92Zm0-13.71h-5.92v-5.92h5.92v5.92Zm0-13.71h-5.92v-5.92h5.92v5.92Zm11.39,82.03h-5.92v-5.92h5.92v5.92Zm0-13.71h-5.92v-5.92h5.92v5.92Zm0-13.71h-5.92v-5.92h5.92v5.92Zm0-27.17h-5.92v-5.92h5.92v5.92Zm0-13.71h-5.92v-5.92h5.92v5.92Zm0-13.71h-5.92v-5.92h5.92v5.92Zm44.07,89.92h-5.92v-5.92h5.92v5.92Zm0-13.71h-5.92v-5.92h5.92v5.92Zm0-13.71h-5.92v-5.92h5.92v5.92Zm11.39,27.43h-5.92v-5.92h5.92v5.92Zm0-13.71h-5.92v-5.92h5.92v5.92Zm0-13.71h-5.92v-5.92h5.92v5.92Zm11.39,27.43h-5.92v-5.92h5.92v5.92Zm0-13.71h-5.92v-5.92h5.92v5.92Zm0-13.71h-5.92v-5.92h5.92v5.92Zm164.28,33.24h-5.92v-5.92h5.92v5.92Zm0-13.71h-5.92v-5.92h5.92v5.92Zm0-13.71h-5.92v-5.92h5.92v5.92Zm11.39,27.43h-5.92v-5.92h5.92v5.92Zm0-13.71h-5.92v-5.92h5.92v5.92Zm0-13.71h-5.92v-5.92h5.92v5.92Zm11.39,27.43h-5.92v-5.92h5.92v5.92Zm0-13.71h-5.92v-5.92h5.92v5.92Zm0-13.71h-5.92v-5.92h5.92v5.92Zm25.02,21.13h-3.06v-45.36h3.06v45.36Zm9.85,0h-3.06v-45.36h3.06v45.36Zm9.85,0h-3.06v-45.36h3.06v45.36Zm27.11,2.2h-5.92v-5.92h5.92v5.92Zm0-13.71h-5.92v-5.92h5.92v5.92Zm0-13.71h-5.92v-5.92h5.92v5.92Zm11.39,27.43h-5.92v-5.92h5.92v5.92Zm0-13.71h-5.92v-5.92h5.92v5.92Zm0-13.71h-5.92v-5.92h5.92v5.92Zm11.39,27.43h-5.92v-5.92h5.92v5.92Zm0-13.71h-5.92v-5.92h5.92v5.92Zm0-13.71h-5.92v-5.92h5.92v5.92Zm50.23,25.52h-37.54v-3.06h37.54v3.06Zm0-10.01h-37.54v-3.06h37.54v3.06Zm0-10.01h-37.54v-3.06h37.54v3.06Zm0-10.01h-37.54v-3.06h37.54v3.06Zm0-10.01h-37.54v-3.06h37.54v3.06Z"/>
  </g>
</svg>