<svg width="31" height="40" viewBox="0 0 31 40" fill="none" xmlns="http://www.w3.org/2000/svg">
<path d="M13.8578 39.193C2.50644 22.7368 0.399414 21.0479 0.399414 15C0.399414 6.7157 7.11512 0 15.3994 0C23.6837 0 30.3994 6.7157 30.3994 15C30.3994 21.0479 28.2924 22.7368 16.941 39.193C16.196 40.2691 14.6027 40.269 13.8578 39.193ZM15.3994 21.25C18.8512 21.25 21.6494 18.4518 21.6494 15C21.6494 11.5482 18.8512 8.75 15.3994 8.75C11.9476 8.75 9.14941 11.5482 9.14941 15C9.14941 18.4518 11.9476 21.25 15.3994 21.25Z" fill="#515151"/>
</svg>
