<?xml version="1.0" encoding="UTF-8"?>
<svg id="Layer_1" data-name="Layer 1" xmlns="http://www.w3.org/2000/svg" viewBox="0 0 999.99 1000">
  <defs>
    <style>
      .cls-1 {
        fill: #4c4c4c;
        stroke-width: 0px;
      }
    </style>
  </defs>
  <path class="cls-1" d="m292.92,3.5c-53.2,2.51-89.53,11-121.29,23.48-32.87,12.81-60.73,30-88.45,57.82-27.72,27.82-44.79,55.7-57.51,88.62-12.31,31.83-20.65,68.19-23,121.42C.32,348.07-.2,365.18.06,500.96s.86,152.8,3.44,206.14c2.54,53.19,11,89.51,23.48,121.28,12.83,32.87,30,60.72,57.83,88.45,27.83,27.73,55.69,44.76,88.69,57.5,31.8,12.29,68.17,20.67,121.39,23,53.22,2.33,70.35,2.87,206.09,2.61,135.74-.26,152.83-.86,206.16-3.39s89.46-11.05,121.24-23.47c32.87-12.86,60.74-30,88.45-57.84s44.77-55.74,57.48-88.68c12.32-31.8,20.69-68.17,23-121.35,2.33-53.37,2.88-70.41,2.62-206.17s-.87-152.78-3.4-206.1-11-89.53-23.47-121.32c-12.85-32.87-30-60.7-57.82-88.45s-55.74-44.8-88.67-57.48c-31.82-12.31-68.17-20.7-121.39-23S634.83-.2,499.04.06s-152.79.84-206.12,3.44m5.84,903.88c-48.75-2.12-75.22-10.22-92.86-17-23.36-9-40-19.88-57.58-37.29s-28.38-34.11-37.5-57.42c-6.85-17.64-15.1-44.08-17.38-92.83-2.48-52.69-3-68.51-3.29-202s.22-149.29,2.53-202c2.08-48.71,10.23-75.21,17-92.84,9-23.39,19.84-40,37.29-57.57s34.1-28.39,57.43-37.51c17.62-6.88,44.06-15.06,92.79-17.38,52.73-2.5,68.53-3,202-3.29,133.47-.29,149.31.21,202.06,2.53,48.71,2.12,75.22,10.19,92.83,17,23.37,9,40,19.81,57.57,37.29s28.4,34.07,37.52,57.45c6.89,17.57,15.07,44,17.37,92.76,2.51,52.73,3.08,68.54,3.32,202,.24,133.46-.23,149.31-2.54,202-2.13,48.75-10.21,75.23-17,92.89-9,23.35-19.85,40-37.31,57.56s-34.09,28.38-57.43,37.5c-17.6,6.87-44.07,15.07-92.76,17.39-52.73,2.48-68.53,3-202.05,3.29s-149.27-.25-202-2.53M706.37,232.77c.06,33.14,26.96,59.96,60.1,59.9s59.96-26.96,59.9-60.1c-.06-33.14-26.96-59.96-60.1-59.9,0,0-.01,0-.02,0-33.13.07-59.94,26.97-59.88,60.1M243.27,500.5c.28,141.8,115.44,256.49,257.21,256.22s256.54-115.42,256.27-257.22-115.46-256.52-257.25-256.24-256.5,115.46-256.23,257.24m90.06-.18c-.18-92.05,74.29-166.82,166.34-167,92.05-.18,166.82,74.29,167,166.34.18,92.05-74.29,166.82-166.34,167-92.04.19-166.81-74.26-167-166.3v-.04"/>
</svg>