<?xml version="1.0" encoding="UTF-8"?>
<svg id="_レイヤー_2" data-name="レイヤー 2" xmlns="http://www.w3.org/2000/svg" viewBox="0 0 355.71 308.99">
  <defs>
    <style>
      .cls-1 {
        stroke-width: .41px;
      }

      .cls-1, .cls-2, .cls-3, .cls-4, .cls-5 {
        stroke: #fff;
      }

      .cls-1, .cls-2, .cls-3, .cls-4, .cls-5, .cls-6, .cls-7, .cls-8, .cls-9 {
        stroke-miterlimit: 10;
      }

      .cls-1, .cls-3, .cls-5, .cls-6, .cls-8, .cls-10, .cls-9, .cls-11, .cls-12 {
        fill: none;
      }

      .cls-2 {
        stroke-width: 1.27px;
      }

      .cls-2, .cls-4, .cls-13 {
        fill: #112649;
      }

      .cls-3, .cls-9 {
        stroke-width: .47px;
      }

      .cls-4 {
        stroke-width: .93px;
      }

      .cls-5 {
        stroke-width: 1.12px;
      }

      .cls-6 {
        stroke-width: 1.55px;
      }

      .cls-6, .cls-12 {
        stroke: #cba166;
      }

      .cls-13, .cls-14, .cls-15, .cls-16, .cls-17 {
        stroke-width: 0px;
      }

      .cls-7 {
        stroke: #ef8bb5;
        stroke-width: 1.65px;
      }

      .cls-7, .cls-14 {
        fill: #fff;
      }

      .cls-8 {
        stroke: #e5e4f2;
        stroke-width: .96px;
      }

      .cls-10, .cls-9, .cls-11 {
        stroke: #112649;
      }

      .cls-15 {
        fill: #b81c22;
      }

      .cls-16 {
        fill: #e7e748;
      }

      .cls-11 {
        stroke-width: .5px;
      }

      .cls-12 {
        stroke-width: .75px;
      }

      .cls-17 {
        fill: #cba166;
      }
    </style>
  </defs>
  <g id="_レイヤー_1-2" data-name="レイヤー 1">
    <g>
      <g>
        <g>
          <path class="cls-12" d="m139.33,298.35c.17.43-.45.73-.66.28-.55-1.24-2.03-2.36-3.75-2.41-1.38-.06-2.09.9-2.28,1.73-.21.87-.11,2.71,3.33,3.33,5.67,1.04,4.86,6.78,1.47,7.54-1.66.38-2.86-.06-3.77-.64-.45-.3-.7.3-.73.49-.13.32-.55.32-.68-.04l-1-2.88c-.15-.45.41-.72.64-.3.6,1.09,2.34,2.85,4.48,2.85,2.49,0,4.07-4.69-.75-5.58-4.43-.83-4.37-3.54-3.98-4.88.45-1.51,1.73-2.35,3.26-2.35.73,0,1.41.19,2.07.51.32.17.58.11.75-.19.17-.28.53-.23.64.06l.94,2.49Z"/>
          <path class="cls-12" d="m150.16,308.66h-5.14c-.25,0-.36-.11-.36-.36s.11-.36.36-.36c1.43,0,1.9-.36,1.9-1.11v-9.16c0-.73-.43-1.05-1.88-1.05-.25,0-.36-.11-.36-.36s.11-.36.36-.36h5.13c.25,0,.36.11.36.36s-.11.36-.36.36c-1.51,0-1.87.36-1.87,1.09v9.14c0,.83.51,1.09,1.87,1.09.25,0,.36.11.36.36s-.11.36-.36.36Z"/>
          <path class="cls-12" d="m167.25,296.62c-1,0-1.26.25-1.26,1.07v10.66c0,.23-.15.4-.32.45-.21.06-.47-.04-.6-.25l-7.1-11.34v9.67c0,.83.25,1.04,1.7,1.04.24,0,.36.11.36.36s-.11.36-.36.36h-4.2c-.25,0-.36-.11-.36-.36s.11-.36.36-.36c1.21,0,1.66-.26,1.66-1.04v-9.04c0-1.07-.26-1.22-1.71-1.22-.24,0-.36-.11-.36-.36s.11-.36.36-.36h3.05c.09,0,.21.06.3.17l6.39,10.19v-8.57c0-.83-.34-1.07-1.49-1.07-.21,0-.38-.15-.38-.36s.17-.36.38-.36h3.6c.25,0,.36.11.36.36s-.11.36-.36.36Z"/>
          <path class="cls-12" d="m176.87,308.92c-2.69-.43-4.48-2.85-4.56-6.43-.08-3.67,1.62-6.18,4.33-6.84,1.58-.38,2.94.04,4.07.7.21.13.34-.09.28-.23-.06-.21.06-.38.23-.43.23-.06.38.02.45.23l.92,2.58c.09.24-.06.43-.21.49-.15.06-.34.02-.47-.19-.87-1.45-2.45-2.75-4.62-2.53-2.32.23-3.81,3.07-3.45,6.69.28,2.94,1.64,4.81,3.84,5.09,1.81.25,3.73-.96,4.48-2.81.09-.24.3-.3.51-.21.17.1.23.26.15.47-.9,2.39-3.47,3.83-5.97,3.41Z"/>
          <path class="cls-12" d="m197.29,308.39c-.06.17-.17.25-.34.25h-9.12c-.25,0-.36-.11-.36-.36s.11-.36.36-.36c1.05,0,1.45-.3,1.45-.96v-9.38c0-.62-.34-.96-1.47-.96-.24,0-.36-.11-.36-.36s.11-.36.36-.36h8.84c.17,0,.28.08.34.25l.9,2.41c.08.21.02.36-.19.45-.21.1-.36.04-.47-.15-.85-1.6-1.58-2.24-3.09-2.24h-2.2q-1.36,0-1.36.96v4.13l2.18.02c1.06,0,1.53-.64,1.53-1.77,0-.24.11-.36.36-.36s.36.11.36.36v4.26c0,.25-.11.36-.36.36s-.36-.11-.36-.36c0-1.3-.66-1.79-1.47-1.79h-2.24v4.54q0,.96,1.36.96h2.22c1.41,0,2.54-.83,3.43-2.51.1-.17.28-.25.45-.17s.25.28.19.45l-.94,2.69Z"/>
          <path class="cls-12" d="m216.28,308.62h-5.26c-.21,0-.38-.15-.38-.36s.17-.38.38-.38c1.38,0,2.15-.28,2.15-.94v-9.14c0-.4-.23-.89-2.03-.89-.55,0-.51-.7-.02-.72.9-.04,2.15-.28,2.77-.68.28-.17.55.02.55.3v11.1c0,.7.64.98,1.85.96.28,0,.45.17.43.38,0,.23-.11.36-.43.36Z"/>
          <path class="cls-12" d="m226.22,308.73c-.96.3-2.02.13-2.69-.51-.87-.85-1.02-1.98.11-2.26.3-.08.89.17,1.09,1.36.13.7.47.98,1.28.68,2.26-.85,2.58-3.94,2.58-5.46-.81.9-1.81,1.56-3.11,1.49-.51-.08-2.94-.38-3.01-3.98-.06-2.05,1.22-4.45,3.56-4.45,1.88,0,4.05,1.53,4.05,5.84s-1.92,6.69-3.86,7.29Zm-.23-12.42c-1.64-.04-2.09,2.98-2.09,3.69,0,1.41.4,3.01,2.19,3.05,1.51.02,2.52-1.49,2.47-2.51-.19-2.79-1.04-4.2-2.56-4.24Z"/>
          <path class="cls-12" d="m238.73,308.85c-2.03-.04-3.5-.79-3.56-2.53-.02-.6.38-1.02.9-1.02.98,0,.9.9.75,1.6-.08.36-.04.47.24.75.47.47,1.39.47,1.64.47,1.45-.06,2.58-1.45,2.58-3.3,0-.58-.23-1.39-.81-1.92-.75-.7-1.68-.73-2.64-.73-.47,0-.47-.66-.02-.72.62-.06,1.24-.06,1.85-.3.96-.4,1.43-1.21,1.43-2.47,0-1.43-.79-2.22-2.22-2.28-.83-.02-1.53.49-1.47,1.39.06.66-.15,1.23-.89,1.23-.36,0-.7-.26-.7-.89,0-1.66,1.75-2.47,3.18-2.47,2.36,0,3.52,1.41,3.52,3s-1.11,2.56-2.39,3.07c1.66.53,2.66,1.64,2.66,3.45,0,2.79-2.77,3.67-4.07,3.66Z"/>
          <path class="cls-12" d="m251.5,308.85c-2.3,0-3.33-1.47-3.39-2.43-.06-.62.28-1.07.79-1.15.9-.15.96.73.9,1.36-.1,1.21.96,1.45,1.96,1.45,1.15,0,2.41-1.3,2.41-3.66s-1.41-3.3-2.37-3.3c-1.17,0-2.24,1.07-2.54,1.38-.23.25-.64.1-.62-.26l.21-5.99c0-.23.11-.34.36-.34h5.07c.15-.47.83-.3.7.21l-.25.87c-.06.17-.17.25-.36.25h-4.84l-.13,4.01c.36-.21,1.28-.83,2.54-.83,1.79,0,3.67,1.39,3.67,3.9s-1.9,4.54-4.11,4.54Z"/>
        </g>
        <g>
          <path class="cls-17" d="m139.33,298.35c.17.43-.45.73-.66.28-.55-1.24-2.03-2.36-3.75-2.41-1.38-.06-2.09.9-2.28,1.73-.21.87-.11,2.71,3.33,3.33,5.67,1.04,4.86,6.78,1.47,7.54-1.66.38-2.86-.06-3.77-.64-.45-.3-.7.3-.73.49-.13.32-.55.32-.68-.04l-1-2.88c-.15-.45.41-.72.64-.3.6,1.09,2.34,2.85,4.48,2.85,2.49,0,4.07-4.69-.75-5.58-4.43-.83-4.37-3.54-3.98-4.88.45-1.51,1.73-2.35,3.26-2.35.73,0,1.41.19,2.07.51.32.17.58.11.75-.19.17-.28.53-.23.64.06l.94,2.49Z"/>
          <path class="cls-17" d="m150.16,308.66h-5.14c-.25,0-.36-.11-.36-.36s.11-.36.36-.36c1.43,0,1.9-.36,1.9-1.11v-9.16c0-.73-.43-1.05-1.88-1.05-.25,0-.36-.11-.36-.36s.11-.36.36-.36h5.13c.25,0,.36.11.36.36s-.11.36-.36.36c-1.51,0-1.87.36-1.87,1.09v9.14c0,.83.51,1.09,1.87,1.09.25,0,.36.11.36.36s-.11.36-.36.36Z"/>
          <path class="cls-17" d="m167.25,296.62c-1,0-1.26.25-1.26,1.07v10.66c0,.23-.15.4-.32.45-.21.06-.47-.04-.6-.25l-7.1-11.34v9.67c0,.83.25,1.04,1.7,1.04.24,0,.36.11.36.36s-.11.36-.36.36h-4.2c-.25,0-.36-.11-.36-.36s.11-.36.36-.36c1.21,0,1.66-.26,1.66-1.04v-9.04c0-1.07-.26-1.22-1.71-1.22-.24,0-.36-.11-.36-.36s.11-.36.36-.36h3.05c.09,0,.21.06.3.17l6.39,10.19v-8.57c0-.83-.34-1.07-1.49-1.07-.21,0-.38-.15-.38-.36s.17-.36.38-.36h3.6c.25,0,.36.11.36.36s-.11.36-.36.36Z"/>
          <path class="cls-17" d="m176.87,308.92c-2.69-.43-4.48-2.85-4.56-6.43-.08-3.67,1.62-6.18,4.33-6.84,1.58-.38,2.94.04,4.07.7.21.13.34-.09.28-.23-.06-.21.06-.38.23-.43.23-.06.38.02.45.23l.92,2.58c.09.24-.06.43-.21.49-.15.06-.34.02-.47-.19-.87-1.45-2.45-2.75-4.62-2.53-2.32.23-3.81,3.07-3.45,6.69.28,2.94,1.64,4.81,3.84,5.09,1.81.25,3.73-.96,4.48-2.81.09-.24.3-.3.51-.21.17.1.23.26.15.47-.9,2.39-3.47,3.83-5.97,3.41Z"/>
          <path class="cls-17" d="m197.29,308.39c-.06.17-.17.25-.34.25h-9.12c-.25,0-.36-.11-.36-.36s.11-.36.36-.36c1.05,0,1.45-.3,1.45-.96v-9.38c0-.62-.34-.96-1.47-.96-.24,0-.36-.11-.36-.36s.11-.36.36-.36h8.84c.17,0,.28.08.34.25l.9,2.41c.08.21.02.36-.19.45-.21.1-.36.04-.47-.15-.85-1.6-1.58-2.24-3.09-2.24h-2.2q-1.36,0-1.36.96v4.13l2.18.02c1.06,0,1.53-.64,1.53-1.77,0-.24.11-.36.36-.36s.36.11.36.36v4.26c0,.25-.11.36-.36.36s-.36-.11-.36-.36c0-1.3-.66-1.79-1.47-1.79h-2.24v4.54q0,.96,1.36.96h2.22c1.41,0,2.54-.83,3.43-2.51.1-.17.28-.25.45-.17s.25.28.19.45l-.94,2.69Z"/>
          <path class="cls-17" d="m216.28,308.62h-5.26c-.21,0-.38-.15-.38-.36s.17-.38.38-.38c1.38,0,2.15-.28,2.15-.94v-9.14c0-.4-.23-.89-2.03-.89-.55,0-.51-.7-.02-.72.9-.04,2.15-.28,2.77-.68.28-.17.55.02.55.3v11.1c0,.7.64.98,1.85.96.28,0,.45.17.43.38,0,.23-.11.36-.43.36Z"/>
          <path class="cls-17" d="m226.22,308.73c-.96.3-2.02.13-2.69-.51-.87-.85-1.02-1.98.11-2.26.3-.08.89.17,1.09,1.36.13.7.47.98,1.28.68,2.26-.85,2.58-3.94,2.58-5.46-.81.9-1.81,1.56-3.11,1.49-.51-.08-2.94-.38-3.01-3.98-.06-2.05,1.22-4.45,3.56-4.45,1.88,0,4.05,1.53,4.05,5.84s-1.92,6.69-3.86,7.29Zm-.23-12.42c-1.64-.04-2.09,2.98-2.09,3.69,0,1.41.4,3.01,2.19,3.05,1.51.02,2.52-1.49,2.47-2.51-.19-2.79-1.04-4.2-2.56-4.24Z"/>
          <path class="cls-17" d="m238.73,308.85c-2.03-.04-3.5-.79-3.56-2.53-.02-.6.38-1.02.9-1.02.98,0,.9.9.75,1.6-.08.36-.04.47.24.75.47.47,1.39.47,1.64.47,1.45-.06,2.58-1.45,2.58-3.3,0-.58-.23-1.39-.81-1.92-.75-.7-1.68-.73-2.64-.73-.47,0-.47-.66-.02-.72.62-.06,1.24-.06,1.85-.3.96-.4,1.43-1.21,1.43-2.47,0-1.43-.79-2.22-2.22-2.28-.83-.02-1.53.49-1.47,1.39.06.66-.15,1.23-.89,1.23-.36,0-.7-.26-.7-.89,0-1.66,1.75-2.47,3.18-2.47,2.36,0,3.52,1.41,3.52,3s-1.11,2.56-2.39,3.07c1.66.53,2.66,1.64,2.66,3.45,0,2.79-2.77,3.67-4.07,3.66Z"/>
          <path class="cls-17" d="m251.5,308.85c-2.3,0-3.33-1.47-3.39-2.43-.06-.62.28-1.07.79-1.15.9-.15.96.73.9,1.36-.1,1.21.96,1.45,1.96,1.45,1.15,0,2.41-1.3,2.41-3.66s-1.41-3.3-2.37-3.3c-1.17,0-2.24,1.07-2.54,1.38-.23.25-.64.1-.62-.26l.21-5.99c0-.23.11-.34.36-.34h5.07c.15-.47.83-.3.7.21l-.25.87c-.06.17-.17.25-.36.25h-4.84l-.13,4.01c.36-.21,1.28-.83,2.54-.83,1.79,0,3.67,1.39,3.67,3.9s-1.9,4.54-4.11,4.54Z"/>
        </g>
      </g>
      <path class="cls-6" d="m66.46,73.52c-43.54,101.05,35.6,182.12,35.6,182.12"/>
      <path class="cls-6" d="m73.93,247.24c-19.94-25.96-31.95-58.37-32.34-93.62-.25-22.54-1.7-18.26,3.79-34.35"/>
      <g>
        <g>
          <path class="cls-10" d="m168.72,28.95h5.79v-8.94c.86-1.47,1.68-1.47,2.54,0v8.94h5.84c1.73.61,1.73,1.17,0,1.78h-5.84v3.61c.76,1.63,1.73,3.25,2.89,4.77,1.17,1.57,1.63,2.69,1.37,3.4-.25.76-.81,1.02-1.63.76-.81-.2-1.52-1.02-2.13-2.39-.2-.41-.41-.81-.51-1.12v20.11c-.86,1.27-1.68,1.27-2.54,0v-21.23c-1.73,6.7-4.82,11.02-9.45,13.05,4.52-5.23,7.62-12.19,9.45-20.82v-.15h-5.79c-1.93-.66-1.93-1.27,0-1.78Zm39.11-.05c-.1.1-.25.2-.51.36h-19.35v7.41c5.99-1.52,11.78-3.1,17.32-4.77,1.98-.15,2.23.61.76,2.34-2.59.86-4.98,1.47-7.21,1.93v3.71l7.21-.81c2.08.86,2.18,1.57.36,2.13l-7.57.76v5.03l9.75-.81c1.98.76,2.03,1.47.05,2.03l-9.8.86v5.74c-.2,2.29.3,3.5,1.42,3.66,1.17.2,2.95.3,5.33.41,2.39.05,3.56-1.22,3.56-3.81s.3-2.49.96.41c.61,2.89.05,4.47-1.78,4.67-1.78.25-4.42.3-7.87.15s-4.93-2.03-4.37-5.54v-5.38l-5.64.51c-2.84-.05-2.89-.76-.2-2.08l5.84-.51v-5.03l-4.52.41c-3.1-.36-3-1.07.25-2.03l4.27-.41v-3.71c-2.29.36-4.98.56-8.13.51v6.2c-.41,8.79-2.13,14.27-5.13,16.35-3.05,2.13-3.35,2.08-1.07-.15,2.34-2.23,3.61-7.62,3.91-16.2v-21.43c.46-.66.81-.96,1.07-.96l.2-.2h20.21c.46.3.76.56.81.76.1.2.25.46.46.81v6.09l-.61.61Zm-19.86-6.09v4.27h18.18v-4.27h-18.18Z"/>
          <path class="cls-10" d="m172.53,84.1h4.93v-8.94c.86-1.47,1.73-1.47,2.59,0v8.94h4.22c1.78.56,1.78,1.17,0,1.78h-4.22v3.61c.76,1.63,1.73,3.2,2.89,4.77,1.12,1.52,1.57,2.69,1.37,3.4-.25.71-.81.96-1.63.76-.86-.25-1.57-1.02-2.13-2.39-.25-.46-.41-.81-.51-1.17v20.16c-.86,1.27-1.73,1.27-2.59,0v-21.28c-.61,6.7-3.25,11.07-7.82,13.15,3.96-5.28,6.55-12.24,7.82-20.87v-.15h-4.93c-1.98-.66-1.98-1.27,0-1.78Zm19.81,30.83c5.84.25,8.79-4.11,8.74-13.1v-16.35h-9.34c-3.45-.46-3.45-1.07-.05-1.78h9.4v-8.02c.86-2.39,1.88-2.44,3-.05v8.08h6.7c2.13.56,2.13,1.17,0,1.78h-6.7v16.35c-.61,10.97-4.52,15.34-11.73,13.1Zm2.56-15.42c-1.45-.39-2.64-1.17-3.47-2.45s-1.25-2.67-1.31-4.12c-.01-1.52,1.03-1.84,3.04-1.11,2.02.79,3.43,1.89,4.32,3.34.94,1.43,1.04,4.71.38,9.87-.44-3.36-1.45-5.22-2.94-5.53Z"/>
          <path class="cls-10" d="m171.42,133.54h16v-4.32c.81-2.79,1.73-2.79,2.79,0v4.32h18.79c1.98.61,1.98,1.17,0,1.78h-11.17l-2.34,6.91h10.87v.15c.2,0,.46.41.66,1.12v21.64c.15,3.5-.61,5.54-2.23,6.04-1.63.56-3.4.36-5.43-.61-2.03-.91-2.03-1.17-.05-.76s3.3.41,4.01,0c.71-.46,1.02-1.98.91-4.67v-15.64c0,.1-.05.15-.05.2-.66,2.64-3,3.86-7.01,3.76-4.01-.05-5.84-2.23-5.54-6.5v-2.95h-5.08c-.05,2.23-.76,4.37-2.08,6.45-1.27,2.13-3.56,3.4-6.75,3.81-1.52.25-2.39.25-2.64.1v15.49c-.96,2.39-1.88,2.39-2.79-.05v-26.31c.71-.76,1.17-1.12,1.32-1.12v-.15h9.5l-2.49-6.91h-9.14c-2.69-.41-2.74-1.02-.05-1.78Zm10.77,15.69c.96-1.42,1.47-3.2,1.47-5.23h-8.58v10.11c.2-.2.76-.51,1.73-.91,2.59-1.22,4.37-2.54,5.38-3.96Zm1.93,17.57c-.15.25-.41.66-.81,1.22-.36.56-.81.51-1.37-.1-.51-.66-.76-1.22-.71-1.68.05-.46.05-.97-.05-1.42v-7.21c.41-1.32,1.32-1.93,2.69-1.93h10.72c1.37,0,2.23.61,2.59,1.93v7.16c0,2.08-.91,2.79-2.69,2.03h-10.36Zm-.66-31.49l2.49,6.91h6.65l2.34-6.91h-11.48Zm.66,22.4v7.21h10.31v-7.21h-10.31Zm10.36-13.71v2.79c-.3,3.05.81,4.57,3.5,4.47,2.64-.1,4.47-1.02,5.59-2.79.25-.46.46-.76.66-.97v-3.5h-9.75Z"/>
          <path class="cls-10" d="m177.05,217.73c-.56,3-4.01,5.84-10.46,8.48,5.38-4.27,8.13-7.52,8.23-9.75.15-2.23.2-5.18.2-8.89v-16.56c1.02-1.02,1.73-1.37,2.13-1.17l.1-.05h11.88v-4.27c.86-2.03,1.88-2.03,2.89,0v4.27h14.07c1.98.56,1.98,1.17,0,1.73h-28.24v16.05c0,3.71-.25,7.11-.81,10.16Zm6.65,6.65c-1.88,2.03-3.05,1.52-3.45-1.52v-10.16c.81-1.07,1.88-1.57,3.25-1.42h5.99v-15.34c1.12-1.22,2.13-1.22,2.95.05v5.13h8.02c2.13.61,2.13,1.17,0,1.78h-8.02v8.38h6.45c1.42-.2,2.49.3,3.2,1.47v10.11c-.41,1.68-1.47,2.23-3.25,1.52h-15.13Zm0-11.43v9.85h15.13v-9.85h-15.13Z"/>
        </g>
        <g>
          <path class="cls-13" d="m168.72,28.95h5.79v-8.94c.86-1.47,1.68-1.47,2.54,0v8.94h5.84c1.73.61,1.73,1.17,0,1.78h-5.84v3.61c.76,1.63,1.73,3.25,2.89,4.77,1.17,1.57,1.63,2.69,1.37,3.4-.25.76-.81,1.02-1.63.76-.81-.2-1.52-1.02-2.13-2.39-.2-.41-.41-.81-.51-1.12v20.11c-.86,1.27-1.68,1.27-2.54,0v-21.23c-1.73,6.7-4.82,11.02-9.45,13.05,4.52-5.23,7.62-12.19,9.45-20.82v-.15h-5.79c-1.93-.66-1.93-1.27,0-1.78Zm39.11-.05c-.1.1-.25.2-.51.36h-19.35v7.41c5.99-1.52,11.78-3.1,17.32-4.77,1.98-.15,2.23.61.76,2.34-2.59.86-4.98,1.47-7.21,1.93v3.71l7.21-.81c2.08.86,2.18,1.57.36,2.13l-7.57.76v5.03l9.75-.81c1.98.76,2.03,1.47.05,2.03l-9.8.86v5.74c-.2,2.29.3,3.5,1.42,3.66,1.17.2,2.95.3,5.33.41,2.39.05,3.56-1.22,3.56-3.81s.3-2.49.96.41c.61,2.89.05,4.47-1.78,4.67-1.78.25-4.42.3-7.87.15s-4.93-2.03-4.37-5.54v-5.38l-5.64.51c-2.84-.05-2.89-.76-.2-2.08l5.84-.51v-5.03l-4.52.41c-3.1-.36-3-1.07.25-2.03l4.27-.41v-3.71c-2.29.36-4.98.56-8.13.51v6.2c-.41,8.79-2.13,14.27-5.13,16.35-3.05,2.13-3.35,2.08-1.07-.15,2.34-2.23,3.61-7.62,3.91-16.2v-21.43c.46-.66.81-.96,1.07-.96l.2-.2h20.21c.46.3.76.56.81.76.1.2.25.46.46.81v6.09l-.61.61Zm-19.86-6.09v4.27h18.18v-4.27h-18.18Z"/>
          <path class="cls-13" d="m172.53,84.1h4.93v-8.94c.86-1.47,1.73-1.47,2.59,0v8.94h4.22c1.78.56,1.78,1.17,0,1.78h-4.22v3.61c.76,1.63,1.73,3.2,2.89,4.77,1.12,1.52,1.57,2.69,1.37,3.4-.25.71-.81.96-1.63.76-.86-.25-1.57-1.02-2.13-2.39-.25-.46-.41-.81-.51-1.17v20.16c-.86,1.27-1.73,1.27-2.59,0v-21.28c-.61,6.7-3.25,11.07-7.82,13.15,3.96-5.28,6.55-12.24,7.82-20.87v-.15h-4.93c-1.98-.66-1.98-1.27,0-1.78Zm19.81,30.83c5.84.25,8.79-4.11,8.74-13.1v-16.35h-9.34c-3.45-.46-3.45-1.07-.05-1.78h9.4v-8.02c.86-2.39,1.88-2.44,3-.05v8.08h6.7c2.13.56,2.13,1.17,0,1.78h-6.7v16.35c-.61,10.97-4.52,15.34-11.73,13.1Zm2.56-15.42c-1.45-.39-2.64-1.17-3.47-2.45s-1.25-2.67-1.31-4.12c-.01-1.52,1.03-1.84,3.04-1.11,2.02.79,3.43,1.89,4.32,3.34.94,1.43,1.04,4.71.38,9.87-.44-3.36-1.45-5.22-2.94-5.53Z"/>
          <path class="cls-13" d="m171.42,133.54h16v-4.32c.81-2.79,1.73-2.79,2.79,0v4.32h18.79c1.98.61,1.98,1.17,0,1.78h-11.17l-2.34,6.91h10.87v.15c.2,0,.46.41.66,1.12v21.64c.15,3.5-.61,5.54-2.23,6.04-1.63.56-3.4.36-5.43-.61-2.03-.91-2.03-1.17-.05-.76s3.3.41,4.01,0c.71-.46,1.02-1.98.91-4.67v-15.64c0,.1-.05.15-.05.2-.66,2.64-3,3.86-7.01,3.76-4.01-.05-5.84-2.23-5.54-6.5v-2.95h-5.08c-.05,2.23-.76,4.37-2.08,6.45-1.27,2.13-3.56,3.4-6.75,3.81-1.52.25-2.39.25-2.64.1v15.49c-.96,2.39-1.88,2.39-2.79-.05v-26.31c.71-.76,1.17-1.12,1.32-1.12v-.15h9.5l-2.49-6.91h-9.14c-2.69-.41-2.74-1.02-.05-1.78Zm10.77,15.69c.96-1.42,1.47-3.2,1.47-5.23h-8.58v10.11c.2-.2.76-.51,1.73-.91,2.59-1.22,4.37-2.54,5.38-3.96Zm1.93,17.57c-.15.25-.41.66-.81,1.22-.36.56-.81.51-1.37-.1-.51-.66-.76-1.22-.71-1.68.05-.46.05-.97-.05-1.42v-7.21c.41-1.32,1.32-1.93,2.69-1.93h10.72c1.37,0,2.23.61,2.59,1.93v7.16c0,2.08-.91,2.79-2.69,2.03h-10.36Zm-.66-31.49l2.49,6.91h6.65l2.34-6.91h-11.48Zm.66,22.4v7.21h10.31v-7.21h-10.31Zm10.36-13.71v2.79c-.3,3.05.81,4.57,3.5,4.47,2.64-.1,4.47-1.02,5.59-2.79.25-.46.46-.76.66-.97v-3.5h-9.75Z"/>
          <path class="cls-13" d="m177.05,217.73c-.56,3-4.01,5.84-10.46,8.48,5.38-4.27,8.13-7.52,8.23-9.75.15-2.23.2-5.18.2-8.89v-16.56c1.02-1.02,1.73-1.37,2.13-1.17l.1-.05h11.88v-4.27c.86-2.03,1.88-2.03,2.89,0v4.27h14.07c1.98.56,1.98,1.17,0,1.73h-28.24v16.05c0,3.71-.25,7.11-.81,10.16Zm6.65,6.65c-1.88,2.03-3.05,1.52-3.45-1.52v-10.16c.81-1.07,1.88-1.57,3.25-1.42h5.99v-15.34c1.12-1.22,2.13-1.22,2.95.05v5.13h8.02c2.13.61,2.13,1.17,0,1.78h-8.02v8.38h6.45c1.42-.2,2.49.3,3.2,1.47v10.11c-.41,1.68-1.47,2.23-3.25,1.52h-15.13Zm0-11.43v9.85h15.13v-9.85h-15.13Z"/>
        </g>
      </g>
      <path class="cls-13" d="m187.38,266.58c-3.6-1.48-7.39-2.58-11.15-3.58-8.71-2.31-17.69-3.76-26.7-4.08-9.27-.33-18.85.29-27.55,3.74-8.35,3.31-16.08,8.04-24.03,12.2-9.31,4.87-19.23,9.54-29.87,10.23-.73.05-1.1.94-.15.88,18.35-1.21,33.82-13,49.93-20.58,3.55-1.67,7.22-3.2,11.06-4.07,5.24-1.2,10.77-1.55,16.14-1.57,9.42-.04,18.84,1.24,27.98,3.49,4.56,1.12,9.17,2.4,13.53,4.19.5.21,1.59-.51.81-.83h0Z"/>
      <path class="cls-13" d="m130.24,260.5c28.73-5.13,61.89,6.7,61.89,6.7l-8.87,3.24s-13.53-8.02-40.66-8.62c-17.49-.39-24.73,3.07-24.73,3.07"/>
      <path class="cls-6" d="m109.71,278.92s24.57,21.8,89.8-12.94c30.04-16,77.88-.9,77.88-.9"/>
      <path class="cls-6" d="m293.21,272.5c12.18,4.44,5.52,2.2,24.51,8.55"/>
      <path class="cls-6" d="m310.18,239.54c39.32-48.94,52.22-114.4,9.04-182.46-10.33-16.28-26.26-30.31-45.39-40.81"/>
      <path class="cls-13" d="m197.72,273.74c7.4,3.63,15.75,5.79,23.83,7.18,17.27,2.99,35.39,1.4,51.29-6.26,12.03-5.79,21.75-14.66,30.14-24.91.54-.66-.77-.78-1.13-.34-7.56,9.24-16.16,17.42-26.76,23.09-8.34,4.46-17.49,7.27-26.88,8.37-13.99,1.64-28.35-.29-41.66-4.8-2.63-.89-5.3-1.85-7.77-3.07-.48-.24-1.71.43-1.07.75h0Z"/>
      <path class="cls-6" d="m278.42,18.9c50.26,25.62,75.83,70.92,76.5,131.25.43,38.64-8.82,65.88-31.71,93.45"/>
      <path class="cls-13" d="m49.18,279.95s1.54-15.76,17.12-11.92c15.58,3.83-7.75,20.82-17.12,11.92Z"/>
      <path class="cls-15" d="m58.4,217.94s11.5-14.99,22.52-16.15c11.01-1.17,14.2.98,19.09,6.61,4.89,5.63,24.11,13.46,25.21,20.8.83,5.59,1.71,14.44-4.16,22.03-5.87,7.59-13.74,5.79-16.64,7.34-5.5,2.94-10.52,11.99-18.11,11.75-7.59-.24-16.4-5.38-22.27-9.06-5.87-3.67-20.18-16.46-18.66-25.36,1.52-8.9,1.52-9.15,13.03-17.96Z"/>
      <path class="cls-16" d="m77.86,233.81s1.47-2.88,6.36-2.14c4.89.73,5.51,1.59,5.51,2.39s-.98,2.75-7.04,2.45-4.83-2.69-4.83-2.69Z"/>
      <path class="cls-8" d="m77.43,236.54s-1.71,4.68-3.24,6.09"/>
      <path class="cls-8" d="m79.02,237.61s-1.04,5.32-2.14,6.61"/>
      <path class="cls-8" d="m80.86,238.04s-1.28,5.87-2.26,6.79"/>
      <path class="cls-8" d="m82.36,238.62l-.61,6.36.61-6.36Z"/>
      <path class="cls-8" d="m83.9,238.86l-.44,6.7.44-6.7Z"/>
      <path class="cls-8" d="m84.98,238.62c.69.99,1.44,6.95,1.44,6.95"/>
      <path class="cls-8" d="m86.37,238.46s.37,2.39,2.02,4.77"/>
      <path class="cls-8" d="m87.77,237.61s-.37,1.16,1.16,3.24c1.53,2.08,1.9,2.39,1.9,2.39l-.37-.31"/>
      <path class="cls-8" d="m89.28,236.93s-.47,1.07,1.24,2.65,2.26,2.06,2.26,2.06"/>
      <g>
        <path class="cls-15" d="m280.7,5.89c3.47-7.87,6.29-5.32,6.29-5.32,0,0-.33,1.84,1.41,1.84s2.82-1.51,2.6-2.24,5.21.7,6.18,5.3c.98,4.6.54,8.89.54,8.89,0,0-6.83,6.03-7.38,9.61,0,0-3.9-1.33-3.36,0,0,0-9.76-10.22-6.29-18.1"/>
        <path class="cls-15" d="m289.96,23.65s7.06-12.04,16.08-11.52,7.39,3.86,7.39,3.86c0,0-1.95.31-1.38,1.86.57,1.55,2.43,2.02,3.09,1.59s1,4.87-3.29,7.24c-4.29,2.37-8.74,3.39-8.74,3.39,0,0-8.28-4.11-12.05-3.43,0,0,.06-3.91-1.1-2.99Z"/>
        <path class="cls-15" d="m291.69,26.9s14.21,2.36,15.8,11.87c1.41,8.42-2.16,7.7-2.16,7.7,0,0-.8-1.71-2.25-.81s-1.48,2.72-.87,3.22-4.76,2.11-8.26-1.23-5.64-7.15-5.64-7.15c0,0,2.2-8.58.57-11.85,0,0,4.04-.91,2.81-1.74Z"/>
        <path class="cls-15" d="m288.72,27.57s1.25,14.92-6.53,19.28c-7.78,4.35-8.42.71-8.42.71,0,0,1.43-1.29.04-2.27s-3.22-.38-3.51.32-3.73-3.5-1.59-7.74,5.21-7.43,5.21-7.43c0,0,9.3-.98,12.01-3.54,0,0,2.37,2.04,2.78.67Z"/>
        <path class="cls-15" d="m288.29,25.93s-15.67,6.93-22.7,1.56-3.62-7.19-3.62-7.19c0,0,1.78.82,2.27-.75s-.73-2.98-1.54-2.99,2.19-4.51,7.15-4.08c4.96.42,9.2,2.03,9.2,2.03,0,0,4.94,8.9,8.42,10.4,0,0-.69,1.14.81,1.02Z"/>
        <ellipse class="cls-14" cx="288.89" cy="26.03" rx="3.56" ry="3.35"/>
        <g>
          <line class="cls-1" x1="288.29" y1="19.9" x2="288.29" y2="23.48"/>
          <ellipse class="cls-14" cx="288.31" cy="19.9" rx=".92" ry=".87"/>
        </g>
        <g>
          <line class="cls-1" x1="293.81" y1="30.83" x2="290.99" y2="28.43"/>
          <ellipse class="cls-14" cx="293.79" cy="30.84" rx=".92" ry=".87"/>
        </g>
        <g>
          <line class="cls-1" x1="295.1" y1="23.73" x2="291.56" y2="25.04"/>
          <ellipse class="cls-14" cx="295.1" cy="23.75" rx=".92" ry=".87"/>
        </g>
        <g>
          <line class="cls-1" x1="282.66" y1="23.96" x2="286.17" y2="25.33"/>
          <ellipse class="cls-14" cx="282.67" cy="23.94" rx=".92" ry=".87"/>
        </g>
        <g>
          <line class="cls-1" x1="284.73" y1="30.6" x2="287.11" y2="27.81"/>
          <ellipse class="cls-14" cx="284.71" cy="30.58" rx=".92" ry=".87"/>
        </g>
      </g>
      <path class="cls-17" d="m315.25,77.54c9.99.36,17.29-.1,15.17-2-3.43-3.07-7.97-8.4-12.97-9.87-6.23-1.83-13.98.87-14.82,4.39-.85,3.52,7.25,7.28,12.62,7.48Z"/>
      <path class="cls-17" d="m85.13,37.47c-6.48,14.49-10.16,25.53-6.09,23.53,6.56-3.22,17.12-6.74,22.26-13.22,6.4-8.08,7.05-21.1,2.37-24.44-4.68-3.35-15.05,6.34-18.53,14.14Z"/>
      <path class="cls-2" d="m321.75,227.82c-13.39,12.32-22.27,22.27-17.09,22.01,8.36-.42,19.35-3.18,27.71-7.68,10.41-5.61,18.72-15.16,15.31-20.81-3.41-5.65-18.72-.15-25.93,6.48Z"/>
      <path class="cls-4" d="m283.66,242.38c8.89,9.78,10.17,16.55,11.06,12.88,1.43-5.91,4.81-14.55,3.4-21.29-1.76-8.4-7.12-11.86-11.76-10.64-4.64,1.22-8.66,12.49-2.69,19.05Z"/>
      <g>
        <g>
          <path class="cls-11" d="m262.04,104.9c-.29,1.61-2.14,3.11-5.52,4.5,2.84-2.25,4.29-3.99,4.34-5.17.08-1.18.11-2.3.11-3.38v-8.81c.48-.51.83-.7,1.05-.62l.16-.05h6.67v-2.28c.48-1.04.99-1.04,1.55,0v2.28h7.42c1.04.32,1.04.64,0,.94h-15.35v8.55c0,1.07-.16,2.41-.43,4.05Zm13.72-.19c.43.62.83,1.31,1.23,2.09.43.8.35,1.34-.19,1.61-.54.27-.96.03-1.26-.72s-.56-1.37-.8-1.87c-1.37.21-3,.56-4.93,1.07s-3.54.96-4.77,1.37c-1.26.38-1.98.24-2.14-.43-.16-.7.29-1.1,1.34-1.26l3.51-9.64c.62-.48,1.1-.46,1.5.11l-3.43,9.35c.94-.13,2.25-.38,3.91-.72,1.69-.35,3.27-.48,4.74-.4-.27-.62-1.37-2.25-3.27-4.96,2.62,2.36,4.13,3.83,4.55,4.42Z"/>
          <path class="cls-11" d="m271.77,141.06h-11.44v.16c-.59.94-1.1.94-1.55,0v-3.48c.46-1.1.96-1.1,1.55,0v2.38h4.31v-3.99h-3.03c-.32,0-.51-.03-.56-.05-.19.03-.43-.19-.67-.67v-11.25c.13-.29.27-.46.4-.54.08-.05.24-.11.54-.16h4.21c1.02-.8,1.53-1.42,1.55-1.8,0-.43.32-.8.91-1.15.59-.35.94-.19,1.04.46.13.67-.03,1.15-.48,1.45-.35.27-1.18.62-2.41,1.05h6.7c.35.05.59.08.67.13.21.03.43.21.62.56v5.79c-.27.43-.54.62-.78.56-.08.03-.27.05-.51.08h-11.04v1.47h16.26c1.07.4,1.07.7,0,.94h-16.26v2.2h15.48l.08.03c.27-.03.54.19.83.59v2.36c-.29,3.75-2.09,5.17-5.38,4.29,2.6.11,3.91-1.34,3.88-4.29v-2.04h-10.5v3.99h5.47v-2.28c.46-1.1.96-1.1,1.53,0v2.95c-.51.88-.97.96-1.42.27Zm.86-14.55v-2.09h-10.82v2.09h10.82Zm-10.82.94v2.2h10.82v-2.2h-10.82Z"/>
          <path class="cls-11" d="m259.93,168.55c-.16.72-.8,2.25-1.93,4.61-1.61.91-2.28.51-2.04-1.26,1.61-2.14,2.68-3.62,3.16-4.45.51-.8,1.29-.51,2.38.86-.91-.59-1.42-.51-1.58.24Zm-2.2-6.54c-1.26-1.47-.99-2.22.8-2.22,1.53,1.1,2.33,2.79,2.41,5.06-.64-1.85-1.71-2.79-3.21-2.84Zm.19-5.89c-1.26-1.47-.99-2.22.83-2.25,1.5,1.1,2.3,2.79,2.39,5.09-.62-1.85-1.69-2.81-3.21-2.84Zm7.66-.7h1.82v-2.25c.38-1.07.91-1.1,1.58-.03v2.28h2.62v-2.28c.62-1.07,1.12-1.04,1.53.03v2.25h2.12c.86.32.86.64,0,.96h-2.12v3.43h4.45c.83.29.83.62,0,.94h-4.29c.7,3.35,3.08,5.55,7.23,6.56-4.85-.19-7.82-2.36-8.87-6.56h-2.55c-.64,2.14-1.5,3.75-2.62,4.82.13-.05.32-.13.62-.21h5.79c.21.05.35.13.43.19.11.11.24.27.37.54v3.7c-.19.24-.37.4-.56.46-.08.03-.16.03-.24,0h-6v2.06c-.24.86,1.21,1.31,4.37,1.37,3.19.05,4.69-1.42,4.55-4.42.96,3.56-.56,5.41-4.63,5.52-4.07.13-5.92-.75-5.55-2.65v-2.06c-.56-.24-.4-.48.51-.72h6.32v-3.13l-.11.11h-5.25c-.62-.19-.88-.38-.8-.56-1.53,1.39-3.51,1.85-5.97,1.37,3.51.05,5.84-2.06,6.97-6.35h-3.64c-1.04-.32-1.04-.64,0-.94h3.75v-3.43h-1.82c-1.05-.32-1.05-.64,0-.96Zm3.4.96v3.43h2.62v-3.43h-2.62Z"/>
        </g>
        <g>
          <path class="cls-13" d="m262.04,104.9c-.29,1.61-2.14,3.11-5.52,4.5,2.84-2.25,4.29-3.99,4.34-5.17.08-1.18.11-2.3.11-3.38v-8.81c.48-.51.83-.7,1.05-.62l.16-.05h6.67v-2.28c.48-1.04.99-1.04,1.55,0v2.28h7.42c1.04.32,1.04.64,0,.94h-15.35v8.55c0,1.07-.16,2.41-.43,4.05Zm13.72-.19c.43.62.83,1.31,1.23,2.09.43.8.35,1.34-.19,1.61-.54.27-.96.03-1.26-.72s-.56-1.37-.8-1.87c-1.37.21-3,.56-4.93,1.07s-3.54.96-4.77,1.37c-1.26.38-1.98.24-2.14-.43-.16-.7.29-1.1,1.34-1.26l3.51-9.64c.62-.48,1.1-.46,1.5.11l-3.43,9.35c.94-.13,2.25-.38,3.91-.72,1.69-.35,3.27-.48,4.74-.4-.27-.62-1.37-2.25-3.27-4.96,2.62,2.36,4.13,3.83,4.55,4.42Z"/>
          <path class="cls-13" d="m271.77,141.06h-11.44v.16c-.59.94-1.1.94-1.55,0v-3.48c.46-1.1.96-1.1,1.55,0v2.38h4.31v-3.99h-3.03c-.32,0-.51-.03-.56-.05-.19.03-.43-.19-.67-.67v-11.25c.13-.29.27-.46.4-.54.08-.05.24-.11.54-.16h4.21c1.02-.8,1.53-1.42,1.55-1.8,0-.43.32-.8.91-1.15.59-.35.94-.19,1.04.46.13.67-.03,1.15-.48,1.45-.35.27-1.18.62-2.41,1.05h6.7c.35.05.59.08.67.13.21.03.43.21.62.56v5.79c-.27.43-.54.62-.78.56-.08.03-.27.05-.51.08h-11.04v1.47h16.26c1.07.4,1.07.7,0,.94h-16.26v2.2h15.48l.08.03c.27-.03.54.19.83.59v2.36c-.29,3.75-2.09,5.17-5.38,4.29,2.6.11,3.91-1.34,3.88-4.29v-2.04h-10.5v3.99h5.47v-2.28c.46-1.1.96-1.1,1.53,0v2.95c-.51.88-.97.96-1.42.27Zm.86-14.55v-2.09h-10.82v2.09h10.82Zm-10.82.94v2.2h10.82v-2.2h-10.82Z"/>
          <path class="cls-13" d="m259.93,168.55c-.16.72-.8,2.25-1.93,4.61-1.61.91-2.28.51-2.04-1.26,1.61-2.14,2.68-3.62,3.16-4.45.51-.8,1.29-.51,2.38.86-.91-.59-1.42-.51-1.58.24Zm-2.2-6.54c-1.26-1.47-.99-2.22.8-2.22,1.53,1.1,2.33,2.79,2.41,5.06-.64-1.85-1.71-2.79-3.21-2.84Zm.19-5.89c-1.26-1.47-.99-2.22.83-2.25,1.5,1.1,2.3,2.79,2.39,5.09-.62-1.85-1.69-2.81-3.21-2.84Zm7.66-.7h1.82v-2.25c.38-1.07.91-1.1,1.58-.03v2.28h2.62v-2.28c.62-1.07,1.12-1.04,1.53.03v2.25h2.12c.86.32.86.64,0,.96h-2.12v3.43h4.45c.83.29.83.62,0,.94h-4.29c.7,3.35,3.08,5.55,7.23,6.56-4.85-.19-7.82-2.36-8.87-6.56h-2.55c-.64,2.14-1.5,3.75-2.62,4.82.13-.05.32-.13.62-.21h5.79c.21.05.35.13.43.19.11.11.24.27.37.54v3.7c-.19.24-.37.4-.56.46-.08.03-.16.03-.24,0h-6v2.06c-.24.86,1.21,1.31,4.37,1.37,3.19.05,4.69-1.42,4.55-4.42.96,3.56-.56,5.41-4.63,5.52-4.07.13-5.92-.75-5.55-2.65v-2.06c-.56-.24-.4-.48.51-.72h6.32v-3.13l-.11.11h-5.25c-.62-.19-.88-.38-.8-.56-1.53,1.39-3.51,1.85-5.97,1.37,3.51.05,5.84-2.06,6.97-6.35h-3.64c-1.04-.32-1.04-.64,0-.94h3.75v-3.43h-1.82c-1.05-.32-1.05-.64,0-.96Zm3.4.96v3.43h2.62v-3.43h-2.62Z"/>
        </g>
      </g>
      <line class="cls-9" x1="243.2" y1="81.77" x2="243.2" y2="184.09"/>
      <line class="cls-9" x1="292.86" y1="81.77" x2="292.86" y2="184.09"/>
      <g>
        <g>
          <path class="cls-17" d="m336.27,68.4c3.33,9.42,2.24,14.51,3.93,12.22,2.73-3.7,7.61-8.73,8.6-13.84,1.23-6.37-1.49-10.35-5.08-10.86-3.59-.51-9.69,6.17-7.45,12.49Z"/>
          <path class="cls-17" d="m344.99,56.26c-7.04,2.34-2.52,18.71-4.79,24.36"/>
          <path class="cls-17" d="m344.99,56.26c2.56.5-2.22,24.87-4.79,24.36"/>
        </g>
        <g>
          <path class="cls-17" d="m336.27,68.4c3.33,9.42,2.24,14.51,3.93,12.22,2.73-3.7,7.61-8.73,8.6-13.84,1.23-6.37-1.49-10.35-5.08-10.86-3.59-.51-9.69,6.17-7.45,12.49Z"/>
          <path class="cls-3" d="m344.99,56.26c-7.04,2.34-2.52,18.71-4.79,24.36"/>
          <path class="cls-3" d="m344.99,56.26c2.56.5-2.22,24.87-4.79,24.36"/>
        </g>
      </g>
      <g>
        <g>
          <path class="cls-7" d="m41.97,78.46c13.74,16.85,15.23,28.08,17.01,22.14,2.88-9.58,9.2-23.46,7.47-34.67-2.15-13.96-10.65-20.11-18.37-18.52s-15.33,19.74-6.11,31.05Z"/>
          <path class="cls-7" d="m50.92,47.18c-12.7,9.96,8.56,40.19,8.06,53.42"/>
          <path class="cls-7" d="m50.92,47.18c5.62-.85,13.68,52.58,8.06,53.42"/>
        </g>
        <g>
          <path class="cls-6" d="m41.97,78.46c13.74,16.85,15.23,28.08,17.01,22.14,2.88-9.58,9.2-23.46,7.47-34.67-2.15-13.96-10.65-20.11-18.37-18.52s-15.33,19.74-6.11,31.05Z"/>
          <path class="cls-6" d="m50.92,47.18c-12.7,9.96,8.56,40.19,8.06,53.42"/>
          <path class="cls-6" d="m50.92,47.18c5.62-.85,13.68,52.58,8.06,53.42"/>
        </g>
      </g>
      <path class="cls-15" d="m44.32,129.1c10.22,9.83,24.58-5.32,25.41-7.18s.64-16.99-9.12-23.97c-9.76-6.98-18.78,1.75-18.78,1.75,0,0-9.73,7.57-6.86,16.57,2.88,8.99,9.35,12.83,9.35,12.83Z"/>
      <circle class="cls-17" cx="55.77" cy="111.1" r="4.17"/>
      <g>
        <path class="cls-17" d="m65.35,155.56s-4.56,14.72-28.54,7.28C11.89,155.11,10.8,126.53.07,119.62c0,0,76.44-4.19,65.29,35.94Z"/>
        <path class="cls-5" d="m64.64,158.04S41.46,124.52.07,119.62"/>
      </g>
    </g>
  </g>
</svg>