<?xml version="1.0" encoding="UTF-8"?>
<svg id="_レイヤー_1" data-name="レイヤー 1" xmlns="http://www.w3.org/2000/svg" viewBox="0 0 128.7 43.55">
  <defs>
    <style>
      .cls-1 {
        fill: none;
        stroke: #fff;
        stroke-miterlimit: 10;
        stroke-width: .14px;
      }

      .cls-2 {
        fill: #112649;
      }

      .cls-3 {
        fill: #b81c22;
      }

      .cls-4 {
        fill: #cba166;
      }
    </style>
  </defs>
  <g>
    <path class="cls-2" d="m21.73,5.53h3V.9c.45-.76.87-.76,1.32,0v4.63h3.03c.89.32.89.6,0,.92h-3.03v1.87c.39.84.89,1.68,1.5,2.47.61.82.84,1.39.71,1.76-.13.39-.42.53-.84.39-.42-.1-.79-.53-1.1-1.24-.11-.21-.21-.42-.26-.58v10.42c-.45.66-.87.66-1.32,0v-11c-.89,3.47-2.5,5.71-4.89,6.76,2.34-2.71,3.95-6.32,4.89-10.79v-.08h-3c-1-.34-1-.66,0-.92Zm20.26-.03c-.05.05-.13.11-.26.18h-10.03v3.84c3.11-.79,6.1-1.61,8.97-2.47,1.03-.08,1.16.32.39,1.21-1.34.45-2.58.76-3.74,1v1.92l3.74-.42c1.08.45,1.13.82.18,1.1l-3.92.39v2.6l5.05-.42c1.03.39,1.05.76.03,1.05l-5.08.45v2.97c-.11,1.18.16,1.82.74,1.89.61.11,1.53.16,2.76.21,1.24.03,1.84-.63,1.84-1.97s.16-1.29.5.21c.32,1.5.03,2.32-.92,2.42-.92.13-2.29.16-4.08.08-1.79-.08-2.55-1.05-2.26-2.87v-2.79l-2.92.26c-1.47-.03-1.5-.4-.11-1.08l3.03-.26v-2.6l-2.34.21c-1.61-.18-1.55-.55.13-1.05l2.21-.21v-1.92c-1.18.18-2.58.29-4.21.26v3.21c-.21,4.55-1.1,7.39-2.66,8.47-1.58,1.1-1.74,1.08-.55-.08,1.21-1.16,1.87-3.95,2.03-8.39V1.82c.24-.34.42-.5.55-.5l.11-.11h10.47c.24.16.39.29.42.39.05.11.13.24.24.42v3.16l-.32.32Zm-10.29-3.16v2.21h9.42v-2.21h-9.42Z"/>
    <path class="cls-2" d="m52.65,5.95h2.55V1.32c.45-.76.89-.76,1.34,0v4.63h2.18c.92.29.92.61,0,.92h-2.18v1.87c.4.84.89,1.66,1.5,2.47.58.79.82,1.39.71,1.76-.13.37-.42.5-.84.39-.45-.13-.82-.53-1.1-1.24-.13-.24-.21-.42-.26-.61v10.45c-.45.66-.89.66-1.34,0v-11.03c-.32,3.47-1.68,5.74-4.05,6.82,2.05-2.74,3.39-6.34,4.05-10.81v-.08h-2.55c-1.03-.34-1.03-.66,0-.92Zm10.26,15.97c3.03.13,4.55-2.13,4.53-6.79V6.66h-4.84c-1.79-.24-1.79-.55-.03-.92h4.87V1.59c.45-1.24.97-1.26,1.55-.03v4.18h3.47c1.11.29,1.11.61,0,.92h-3.47v8.47c-.32,5.68-2.34,7.95-6.08,6.79Zm1.45-7.5c-.55-.34-.95-.82-1.13-1.45-.18-.63-.18-1.26-.03-1.87.18-.63.66-.63,1.39-.08.74.58,1.18,1.21,1.37,1.92.21.71-.16,2.08-1.08,4.13.24-1.45.05-2.34-.53-2.66Z"/>
    <path class="cls-2" d="m81.01,3.32h8.29V1.09c.42-1.45.89-1.45,1.45,0v2.24h9.74c1.03.32,1.03.61,0,.92h-5.79l-1.21,3.58h5.63v.08c.1,0,.24.21.34.58v11.21c.08,1.82-.32,2.87-1.16,3.13-.84.29-1.76.18-2.82-.32-1.05-.47-1.05-.6-.03-.39,1.03.21,1.71.21,2.08,0,.37-.24.53-1.03.47-2.42v-8.1c0,.05-.03.08-.03.1-.34,1.37-1.55,2-3.63,1.95-2.08-.03-3.03-1.16-2.87-3.37v-1.53h-2.63c-.03,1.16-.39,2.26-1.08,3.34-.66,1.11-1.84,1.76-3.5,1.97-.79.13-1.24.13-1.37.05v8.03c-.5,1.24-.97,1.24-1.45-.03v-13.63c.37-.39.6-.58.68-.58v-.08h4.92l-1.29-3.58h-4.74c-1.39-.21-1.42-.53-.03-.92Zm5.58,8.13c.5-.74.76-1.66.76-2.71h-4.45v5.24c.1-.11.39-.26.89-.47,1.34-.63,2.26-1.32,2.79-2.05Zm1,9.1c-.08.13-.21.34-.42.63-.18.29-.42.26-.71-.05-.26-.34-.39-.63-.37-.87.03-.24.03-.5-.03-.74v-3.74c.21-.68.68-1,1.39-1h5.55c.71,0,1.16.32,1.34,1v3.71c0,1.08-.47,1.45-1.39,1.05h-5.37Zm-.34-16.31l1.29,3.58h3.45l1.21-3.58h-5.95Zm.34,11.6v3.74h5.34v-3.74h-5.34Zm5.37-7.1v1.45c-.16,1.58.42,2.37,1.82,2.32,1.37-.05,2.32-.53,2.89-1.45.13-.24.24-.39.34-.5v-1.82h-5.05Z"/>
    <path class="cls-2" d="m112.88,18.56c-.29,1.55-2.08,3.03-5.42,4.4,2.79-2.21,4.21-3.89,4.26-5.05.08-1.16.1-2.68.1-4.61V4.72c.53-.53.89-.71,1.1-.61l.05-.03h6.16V1.87c.45-1.05.97-1.05,1.5,0v2.21h7.29c1.03.29,1.03.61,0,.89h-14.63v8.32c0,1.92-.13,3.68-.42,5.26Zm3.45,3.45c-.97,1.05-1.58.79-1.79-.79v-5.26c.42-.55.97-.82,1.68-.74h3.11v-7.95c.58-.63,1.1-.63,1.53.03v2.66h4.16c1.1.32,1.1.6,0,.92h-4.16v4.34h3.34c.74-.11,1.29.16,1.66.76v5.24c-.21.87-.76,1.16-1.68.79h-7.84Zm0-5.92v5.11h7.84v-5.11h-7.84Z"/>
  </g>
  <g>
    <path class="cls-4" d="m24.74,37.66c-1.06-.29-1.44-.75-1.44-1.6s.62-1.39,1.59-1.39c.65,0,1.09.17,1.5.58.09.09.14.17.14.29,0,.26-.18.42-.43.42-.13,0-.24-.05-.3-.13-.3-.36-.57-.47-.88-.47-.5,0-.79.27-.79.64,0,.46.19.68.88.87l.25.07c1.1.31,1.48.72,1.48,1.63s-.68,1.6-1.77,1.6c-.79,0-1.35-.27-1.72-.75-.08-.11-.12-.2-.12-.3,0-.21.19-.38.42-.38.13,0,.24.06.29.13.33.43.65.6,1.14.6.57,0,.92-.34.92-.88,0-.42-.22-.67-.92-.87l-.25-.07Z"/>
    <path class="cls-4" d="m28.38,35.12c0-.26.2-.4.45-.4s.43.14.43.4v4.61c0,.26-.18.4-.43.4s-.45-.14-.45-.4v-4.61Z"/>
    <path class="cls-4" d="m34.37,39.26c-.03-.55-.06-1.15-.06-1.7v-2.46c0-.25.19-.38.41-.38s.41.13.41.38v4.36c0,.44-.24.67-.6.67-.39,0-.59-.13-.84-.7l-1.13-2.58c-.21-.48-.36-.88-.51-1.34h-.06c.01.52.04,1.04.04,1.56v2.69c0,.25-.18.38-.41.38s-.41-.13-.41-.38v-4.38c0-.42.22-.65.6-.65.46,0,.71.19.94.72l.98,2.27c.22.51.41,1.02.59,1.55h.06Z"/>
    <path class="cls-4" d="m40.6,35.13c.19.14.26.25.26.42,0,.22-.2.41-.41.41-.13,0-.22-.03-.33-.13-.31-.3-.62-.41-.99-.41-.85,0-1.46.76-1.46,2.02s.62,2.02,1.46,2.02c.44,0,.78-.1,1.13-.41.08-.08.19-.12.29-.12.22,0,.4.15.4.36,0,.14-.05.23-.15.32-.47.41-1.03.58-1.67.58-1.32,0-2.35-.97-2.35-2.75s1.03-2.75,2.35-2.75c.58,0,1.04.14,1.48.46Z"/>
    <path class="cls-4" d="m45.61,39.35c.22,0,.34.16.34.36s-.12.36-.34.36h-2.12c-.83,0-1.06-.27-1.06-.95v-3.39c0-.67.23-.95,1.06-.95h1.93c.22,0,.34.16.34.36s-.12.36-.34.36h-1.73c-.32,0-.39.09-.39.37v1.08h1.72c.22,0,.34.16.34.36s-.12.36-.34.36h-1.72v1.32c0,.28.07.37.39.37h1.91Z"/>
    <path class="cls-4" d="m51.19,35.89c-.22.22-.42.41-.67.63-.1.08-.19.12-.31.12-.24,0-.39-.15-.39-.38,0-.14.04-.22.16-.32.38-.29.69-.55,1.06-.88.16-.15.29-.23.52-.23.3,0,.46.2.46.48v4.42c0,.27-.15.41-.42.41s-.41-.14-.41-.41v-3.83Z"/>
    <path class="cls-4" d="m56.18,38.11c-1.06,0-1.69-.67-1.69-1.67s.71-1.65,1.77-1.65,1.76.72,1.76,1.65c0,.74-.13,1.22-.49,1.9-.33.62-.85,1.21-1.45,1.68-.08.06-.15.09-.24.09-.23,0-.4-.17-.4-.36,0-.12.04-.22.13-.29.64-.48,1.11-.97,1.4-1.58-.24.16-.46.23-.78.23Zm-.88-1.64c0,.62.37,1,.92,1,.45,0,.76-.17.94-.44.05-.18.06-.36.06-.56,0-.6-.39-1.03-.96-1.03s-.95.42-.95,1.03Z"/>
    <path class="cls-4" d="m60.94,36.97c.57,0,.87-.29.87-.79,0-.41-.32-.69-.83-.69-.29,0-.6.13-.85.35-.09.08-.17.1-.25.1-.21,0-.39-.17-.39-.39,0-.11.03-.19.1-.25.34-.29.88-.51,1.39-.51,1.02,0,1.65.56,1.65,1.36,0,.57-.28.96-.83,1.11.62.19,1,.65,1,1.25,0,1-.76,1.68-1.85,1.68-.57,0-1.11-.16-1.46-.44-.11-.09-.15-.19-.15-.32,0-.2.15-.36.37-.36.08,0,.14.01.2.06.35.26.69.37,1.04.37.62,0,1.01-.41,1.01-.95s-.36-.87-.98-.87h-.44c-.2,0-.33-.15-.33-.35s.13-.34.33-.34h.4Z"/>
    <path class="cls-4" d="m65.18,36.92c.22-.12.43-.17.64-.17,1.08,0,1.84.6,1.84,1.67s-.78,1.76-1.83,1.76c-.57,0-1.09-.17-1.45-.46-.12-.1-.15-.19-.15-.32,0-.21.17-.36.4-.36.06,0,.13.03.21.08.36.27.64.35.98.35.59,0,1-.42,1-1.04s-.39-1.01-1-1.01c-.22,0-.43.07-.6.17-.15.09-.22.13-.35.13-.26,0-.48-.16-.46-.46l.15-1.86c.03-.33.29-.53.66-.53h1.91c.21,0,.34.15.34.36s-.13.36-.34.36h-1.62c-.15,0-.22.06-.23.2l-.09,1.09Z"/>
  </g>
  <g>
    <path class="cls-2" d="m2.97,8.12c-.14.78-1.04,1.51-2.68,2.18,1.38-1.09,2.08-1.94,2.11-2.51.04-.57.05-1.12.05-1.64V1.88c.23-.25.4-.34.51-.3l.08-.03h3.24V.45c.23-.51.48-.51.75,0v1.1h3.6c.51.16.51.31,0,.45H3.18v4.15c0,.52-.08,1.17-.21,1.96Zm6.66-.09c.21.3.4.64.6,1.01.21.39.17.65-.09.78-.26.13-.47.01-.61-.35-.14-.36-.27-.66-.39-.91-.66.1-1.46.27-2.39.52-.94.25-1.72.47-2.31.66-.61.18-.96.12-1.04-.21-.08-.34.14-.53.65-.61l1.7-4.68c.3-.23.53-.22.73.05l-1.66,4.54c.46-.06,1.09-.18,1.9-.35.82-.17,1.59-.23,2.3-.2-.13-.3-.66-1.09-1.59-2.4,1.27,1.14,2,1.86,2.21,2.15Z"/>
    <path class="cls-2" d="m7.69,24.36H2.14v.08c-.29.46-.53.46-.75,0v-1.69c.22-.53.47-.53.75,0v1.16h2.09v-1.94h-1.47c-.16,0-.25-.01-.27-.03-.09.01-.21-.09-.33-.32v-5.46c.06-.14.13-.22.19-.26.04-.03.12-.05.26-.08h2.04c.49-.39.74-.69.75-.87,0-.21.16-.39.44-.56.29-.17.45-.09.51.22.06.32-.01.56-.23.7-.17.13-.57.3-1.17.51h3.25c.17.03.29.04.32.06.1.01.21.1.3.27v2.81c-.13.21-.26.3-.38.27-.04.01-.13.03-.25.04H2.86v.71h7.89c.52.2.52.34,0,.46H2.86v1.07h7.55c.13,0,.26.1.4.3v1.14c-.14,1.82-1.01,2.51-2.61,2.08,1.26.05,1.9-.65,1.89-2.08v-.99h-5.1v1.94h2.65v-1.1c.22-.53.47-.53.74,0v1.43c-.25.43-.47.47-.69.13Zm.42-7.06v-1.01H2.86v1.01h5.25Zm-5.25.46v1.07h5.25v-1.07H2.86Z"/>
    <path class="cls-2" d="m1.95,36.4c-.08.35-.39,1.09-.94,2.24-.78.44-1.11.25-.99-.61.78-1.04,1.3-1.75,1.53-2.16.25-.39.62-.25,1.16.42-.44-.29-.69-.25-.77.12Zm-1.07-3.17c-.61-.71-.48-1.08.39-1.08.74.53,1.13,1.35,1.17,2.46-.31-.9-.83-1.35-1.56-1.38Zm.09-2.86c-.61-.71-.48-1.08.4-1.09.73.53,1.12,1.35,1.16,2.47-.3-.9-.82-1.37-1.56-1.38Zm3.72-.34h.88v-1.09c.18-.52.44-.53.77-.01v1.11h1.27v-1.11c.3-.52.55-.51.74.01v1.09h1.03c.42.16.42.31,0,.47h-1.03v1.66h2.16c.4.14.4.3,0,.46h-2.08c.34,1.62,1.5,2.69,3.51,3.19-2.35-.09-3.8-1.14-4.3-3.19h-1.23c-.31,1.04-.73,1.82-1.27,2.34.06-.03.16-.06.3-.1h2.81c.1.03.17.07.21.09.05.05.12.13.18.26v1.79c-.09.12-.18.19-.27.22-.04.01-.08.01-.12,0h-2.91v1c-.12.42.58.64,2.12.66,1.55.03,2.27-.69,2.21-2.15.47,1.73-.27,2.63-2.25,2.68-1.98.06-2.87-.36-2.69-1.29v-1c-.27-.12-.2-.23.25-.35h3.07v-1.52l-.05.05h-2.55c-.3-.09-.43-.18-.39-.27-.74.68-1.7.9-2.9.66,1.7.03,2.83-1,3.38-3.08h-1.77c-.51-.16-.51-.31,0-.46h1.82v-1.66h-.88c-.51-.16-.51-.31,0-.47Zm1.65.47v1.66h1.27v-1.66h-1.27Z"/>
  </g>
  <path class="cls-4" d="m21.41,29.45c1.96-.31,3.95-.43,5.93-.56,6.41-.42,12.84-.5,19.26-.44,4.13.03,8.22.13,12.31.73,3.74.55,7.43,1.38,11.1,2.31,7.75,1.96,15.4,4.34,23.22,6.04,8.9,1.93,17.98,2.89,27.07,1.85.31-.04.63-.37.12-.31-16.91,1.94-32.93-3.54-49.07-7.69-7.15-1.83-14.26-3.11-21.66-3.23-6.95-.1-13.91-.07-20.85.34-2.43.14-4.9.28-7.3.65-.31.05-.63.39-.12.31h0Z"/>
  <g>
    <path class="cls-4" d="m101.34,32.05s1.27,1.25-1.34,3.26c-2.71,2.09-5.91.66-7.47,1.37,0,0,5.25-7.92,8.8-4.63Z"/>
    <path class="cls-1" d="m101.55,32.26s-5.39.53-9.02,4.43"/>
  </g>
  <g>
    <path class="cls-4" d="m91.54,41.85s-.72,1.63-3.53-.08c-2.92-1.78-2.73-5.28-3.95-6.48,0,0,9.27,2.07,7.48,6.56Z"/>
    <path class="cls-1" d="m91.43,42.12s-2.42-4.85-7.36-6.84"/>
  </g>
  <g>
    <path class="cls-3" d="m114.48,42.42c3.52,3.39,8.47-1.83,8.76-2.47s.22-5.85-3.14-8.26-6.47.6-6.47.6c0,0-3.35,2.61-2.36,5.71s3.22,4.42,3.22,4.42Z"/>
    <circle class="cls-4" cx="118.43" cy="36.22" r="1.44"/>
  </g>
</svg>