<!--?xml version="1.0" encoding="utf-8"?-->
<!-- Generator: Adobe Illustrator 18.1.1, SVG Export Plug-In . SVG Version: 6.00 Build 0)  -->

<svg version="1.1" id="_x32_" xmlns="http://www.w3.org/2000/svg" xmlns:xlink="http://www.w3.org/1999/xlink" x="0px" y="0px" viewBox="0 0 512 512" style="width: 64px; height: 64px; opacity: 1;" xml:space="preserve">
<style type="text/css">
	.st0{fill:#f2f2f2;}
</style>
<g>
	<path class="st0" d="M261.417,371.347c10.623-0.018,19.998-4.232,26.983-11.174c6.942-6.993,11.156-16.36,11.174-26.982
		c-0.018-10.623-4.232-19.998-11.174-26.983c-6.985-6.941-16.36-11.156-26.983-11.174c-10.622,0.018-19.998,4.232-26.983,11.174
		c-6.94,6.985-11.164,16.36-11.173,26.983c0.009,10.622,4.232,19.99,11.173,26.982C241.419,367.115,250.795,371.33,261.417,371.347z
		" style="fill: f2f2f2;"></path>
	<path class="st0" d="M423.891,253.843c-10.158-3.106-20.402-5.961-30.682-8.481c-22.433-5.488-38.035-25.229-37.923-48.014
		c0.068-6.348,0.085-12.593,0.076-18.829l-11.156-2.933c-17.624-4.077-51.816-10.846-79.082-10.846h-7.397
		c-27.353,0-61.587,6.786-79.186,10.864l-0.017,0.043l-11.053,2.881c-0.009,6.254,0.018,12.472,0.086,18.682
		c0.094,22.932-15.517,42.681-37.968,48.168c-10.244,2.512-20.472,5.359-30.63,8.456l-10.115,29.434l-45.416,96.887v53.261
		c0,28.962,23.473,52.435,52.435,52.435h165.562h165.562c28.961,0,52.434-23.473,52.434-52.435v-53.261l-45.416-96.887
		L423.891,253.843z M170.414,333.191c-0.018-25.048,10.227-47.962,26.656-64.348c16.385-16.429,39.3-26.673,64.347-26.656
		c25.048-0.017,47.962,10.228,64.348,26.656c16.428,16.386,26.664,39.3,26.656,64.348c0.008,25.047-10.228,47.962-26.656,64.348
		c-16.386,16.429-39.3,26.674-64.348,26.656c-25.047,0.018-47.962-10.227-64.347-26.656
		C180.64,381.153,170.396,358.238,170.414,333.191z" style="fill:#f2f2f2;"></path>
	<path class="st0" d="M465.755,52.85c-41.966-18.123-141.09-36.573-227.836-20.618c-87.22,13.203-174.886,62.955-208.647,93.792
		c-35.069,30.492-38.191,62.894-11.706,83.365c8.464,8.516,16.816,17.109,25.039,25.805c7.225,7.552,18.923,8.997,28.256,3.767
		c18.536-10.433,37.554-19.835,56.959-28.195c9.839-4.232,15.68-14.511,13.9-24.876c-1.333-7.474-2.615-14.975-3.844-22.493
		c-1.592-9.513,4.034-19.362,13.925-23.791c-0.336-0.396,56.039-25.667,98.763-31.912c42.431-8.034,103.966-2.52,103.777-2.047
		c10.804,0.964,19.345,8.447,20.937,17.951c1.29,7.509,2.529,15.01,3.707,22.518c1.694,10.382,10.554,18.192,21.237,18.975
		c21.074,1.583,42.105,4.266,63.032,8.086c10.545,1.91,21.125-3.277,25.486-12.782c4.955-10.889,10.046-21.753,15.277-32.548
		C522.379,99.858,508.84,70.251,465.755,52.85z" style="fill:#f2f2f2;"></path>
</g>
</svg>
