<?xml version="1.0" encoding="UTF-8"?>
<svg id="_レイヤー_2" data-name="レイヤー 2" xmlns="http://www.w3.org/2000/svg" viewBox="0 0 314.65 408">
  <defs>
    <style>
      .cls-1 {
        fill: #e8c793;
      }

      .cls-1, .cls-2, .cls-3, .cls-4, .cls-5, .cls-6, .cls-7, .cls-8, .cls-9 {
        stroke-width: 0px;
      }

      .cls-10 {
        stroke: #d2b8ab;
        stroke-width: 1.74px;
      }

      .cls-10, .cls-11 {
        fill: none;
        stroke-linecap: round;
        stroke-linejoin: round;
      }

      .cls-11 {
        stroke: #a48264;
        stroke-width: 3.32px;
      }

      .cls-2 {
        fill: #e0e0e0;
      }

      .cls-3 {
        fill: #fffaf5;
      }

      .cls-4 {
        fill: #f3d4a1;
      }

      .cls-5 {
        fill: #fadce5;
      }

      .cls-6 {
        fill: #f8c6bd;
      }

      .cls-7 {
        fill: #5a4f4a;
      }

      .cls-8 {
        fill: #f3ae6a;
      }

      .cls-9 {
        fill: #f9ead2;
      }
    </style>
  </defs>
  <g id="_レイヤー_1-2" data-name="レイヤー 1">
    <g>
      <ellipse class="cls-2" cx="176.46" cy="380.98" rx="138.19" ry="27.03"/>
      <g>
        <path class="cls-4" d="m140.49,335.55c-21.14,3.02-39.91-4.31-59.11-20.05-19.2-15.74.79-47.09-7.56-79.81-7.01-27.5-61.11-58.61-71.4-36.01-9.38,20.6,10.14,22.43,31.07,28.69,20.92,6.25,25.56,31.57,23.62,46.7-2.91,22.76-3.77,43.68,11.01,55.43,13.61,10.83,54.47,19.95,66.55,18.22,12.08-1.73,5.82-13.16,5.82-13.16Z"/>
        <path class="cls-1" d="m178.48,382.26l60.97-.62c30.6-34.43,1.91-89.89-1.91-107.11-26.67,1.12-59.06,3.68-59.06,3.68,0,0-32.39-2.55-59.06-3.68-3.83,17.21-32.51,72.68-1.91,107.11l60.97.62Z"/>
        <g>
          <path class="cls-1" d="m177.35,371.81c27.14-11.17,8.09-91.96-43.11-91.96s-65.9,80.78-38.77,91.96h81.88Z"/>
          <path class="cls-1" d="m176.93,382.56h-96.71c0-9.71,26.14-24.7,51.25-24.7s45.46,14.99,45.46,24.7Z"/>
        </g>
        <g>
          <path class="cls-1" d="m179.6,371.81c-27.14-11.17-8.09-91.96,43.11-91.96s65.9,80.78,38.77,91.96h-81.88Z"/>
          <path class="cls-1" d="m180.03,382.56h96.71c0-9.71-26.14-24.7-51.25-24.7s-45.46,14.99-45.46,24.7Z"/>
        </g>
        <path class="cls-4" d="m178.48,283.45c11.49,0,53.88,11.54,64.13,0,30.63-34.46,1.91-89.97-1.91-107.2-26.69,1.12-62.22,3.68-62.22,3.68,0,0-35.52-2.55-62.22-3.68-3.83,17.23-32.54,72.74-1.91,107.2,10.25,11.54,52.64,0,64.13,0Z"/>
        <path class="cls-4" d="m101.86,228.56c-5.74,49.77,16.17,67.22,25.89,90.76,6.74,16.31,9.01,32.54,9.01,59.34,11.49,3.83,19.14,3.83,32.54,1.91,1.91-9.57,10.13-134-1.36-153.15-21.06-9.57-58.43,3.04-66.09,1.13Z"/>
        <path class="cls-9" d="m151.26,364.34c9.51,0,26.96,6.87,29.08,19.56,2.46,14.76-25.7,17.37-44.41,12.69-12.69-3.17-13.21-10.05-8.46-19.56,4.76-9.52,23.79-12.69,23.79-12.69Z"/>
        <g>
          <path class="cls-8" d="m100.88,252.38c3.58-.91,32.48,1.22,32.48,4.88s-27.38,5.8-30.96,4.88c-.32-1.6-1.28-7.54-1.51-9.76Z"/>
          <path class="cls-8" d="m105.45,274.08c3.58-.91,32.48,1.22,32.48,4.88s-25.5,5.79-29.07,4.88c-.32-1.6-3.16-7.54-3.4-9.77Z"/>
          <path class="cls-8" d="m115,295.78c3.58-.91,27.5,1.22,27.5,4.88s-18.5,5.79-22.08,4.88c-1.28-2.48-3.67-6.39-5.42-9.76Z"/>
        </g>
        <path class="cls-4" d="m255.1,228.56c5.74,49.77-16.17,67.22-25.89,90.76-6.74,16.31-9.01,32.54-9.01,59.34-11.49,3.83-19.14,3.83-32.54,1.91-1.91-9.57-10.13-134,1.36-153.15,21.06-9.57,58.43,3.04,66.09,1.13Z"/>
        <path class="cls-9" d="m205.69,364.34c-9.51,0-26.96,6.87-29.08,19.56-2.46,14.76,25.7,17.37,44.41,12.69,12.69-3.17,13.21-10.05,8.46-19.56-4.76-9.52-23.79-12.69-23.79-12.69Z"/>
        <g>
          <path class="cls-8" d="m256.08,252.38c-3.58-.91-32.48,1.22-32.48,4.88s27.39,5.8,30.96,4.88c.32-1.6,1.28-7.54,1.52-9.76Z"/>
          <path class="cls-8" d="m251.51,274.08c-3.58-.91-32.48,1.22-32.48,4.88s25.5,5.79,29.07,4.88c.32-1.6,3.16-7.54,3.4-9.77Z"/>
          <path class="cls-8" d="m241.96,295.78c-3.58-.91-27.5,1.22-27.5,4.88s18.5,5.79,22.08,4.88c1.28-2.48,3.67-6.39,5.42-9.76Z"/>
        </g>
        <path class="cls-8" d="m37.09,197.82c1.91,8.29-7.13,26.16-13.19,27.76,4.04,1.38,6.25,1.6,10.29,2.98,4.79-2.34,18.32-15,16.19-22.76-2.55-2.02-9.36-6.38-13.29-7.98Z"/>
        <path class="cls-8" d="m67.84,223.3c-3.32,7.84-16.82,13.9-22.66,11.63,2.79,3.04,4.17,4.86,6.25,8.51,4.28,2.45,19.95,1.58,22.78-5.96-.21-4.04-4.12-10.58-6.37-14.19Z"/>
        <path class="cls-8" d="m75.91,256.24c-6.69,5.26-15.71,4.78-19.73-.03.9,4.2,1.01,6.27,1.31,10.47,2.57,4.21,11.36,8.28,17.48,3.06.5-4.23.98-9.03.94-13.5Z"/>
        <path class="cls-8" d="m73.28,285.19c-7.62,3.8-13.98,1.81-16.95-3.71-.52,4.15-.73,9.62-.84,13.76,3.51,3.83,10.26,4.84,17.31.96.2-3.51-.16-6.58.48-11.01Z"/>
        <path class="cls-8" d="m75.09,307.18c-3.28,7.86-12.14,8-18,5.77.91,3.38,2.53,7.66,4.79,10.77,6.7,5.03,15.79-1.54,18.59-9.09-2.18-2.26-3.67-3.51-5.37-7.45Z"/>
        <path class="cls-1" d="m217.58,185.16c-16.6,5.53-31.91,11.49-43.39,11.49s-13.61,2.12-9.78,11.49c19.57,20,73.6,11.49,85.67-1.63-1.65-8.8-5.9-18.58-6.97-23.69-10.21-4.46-4.85-4.55-25.53,2.34Z"/>
        <path class="cls-4" d="m95.48,73.23c-5.69-20.98-7.79-67.39,3.91-72.65,11.7-5.27,54.94,27.35,63.03,35.4l-66.93,37.25Z"/>
        <path class="cls-5" d="m98.62,70.04c-4.56-16.82-6.24-54.02,3.13-58.24,9.38-4.22,44.04,21.92,50.52,28.38l-53.66,29.86Z"/>
        <path class="cls-4" d="m264.47,73.23c5.69-20.98,7.79-67.39-3.91-72.65-11.7-5.27-54.94,27.35-63.03,35.4l66.93,37.25Z"/>
        <path class="cls-5" d="m261.34,70.04c4.56-16.82,6.24-54.02-3.13-58.24-9.38-4.22-44.04,21.92-50.52,28.38l53.66,29.86Z"/>
        <path class="cls-4" d="m179.98,212.25c35.38,1.47,106.87-33.91,106.87-79.6s-26.92-75.36-48.75-89.92c-13.27-8.85-36.01-13.27-58.12-13.27s-44.85,4.42-58.12,13.27c-21.84,14.56-48.75,45.31-48.75,89.92s71.49,78.13,106.87,79.6Z"/>
        <path class="cls-3" d="m229.37,156.66c0,18.19-22.78,32.92-50.89,32.92s-50.89-14.73-50.89-32.92,22.79-38.72,50.89-38.72,50.89,20.53,50.89,38.72Z"/>
        <path class="cls-6" d="m195.7,133.67c0,3.91-7.04,12.42-15.72,12.42s-15.72-8.51-15.72-12.42,7.04-7.08,15.72-7.08,15.72,3.17,15.72,7.08Z"/>
        <path class="cls-7" d="m130.47,99.66c0,8.84,3.25,16,7.34,16s3.5-7.15,3.5-16,.53-16.02-3.5-16.02-7.34,7.16-7.34,16.02Z"/>
        <path class="cls-7" d="m229.49,99.66c0,8.84-3.25,16-7.34,16s-3.5-7.15-3.5-16-.52-16.02,3.5-16.02,7.34,7.16,7.34,16.02Z"/>
        <g>
          <path class="cls-10" d="m211.2,146.11c19.14-15.32,79.13-19.14,102.1-2.55"/>
          <path class="cls-10" d="m213.75,154.96c17.49-5.46,60.28,8.16,71.77,25.95"/>
        </g>
        <g>
          <path class="cls-10" d="m148.76,146.11c-19.14-15.32-79.13-19.14-102.1-2.55"/>
          <path class="cls-10" d="m146.21,154.96c-17.49-5.46-60.28,8.16-71.77,25.95"/>
        </g>
        <g>
          <path class="cls-8" d="m152.97,31.69c0,8.93,3.35,34.3,7.18,34.3s5.32-32.07,5.32-35.9c-2.59.16-10.14,1.16-12.5,1.6Z"/>
          <path class="cls-8" d="m206.99,31.69c0,8.93-3.35,34.3-7.18,34.3s-5.32-32.07-5.32-35.9c2.59.16,10.14,1.16,12.5,1.6Z"/>
          <path class="cls-8" d="m179.98,29.46c1.52,0,4.31-.04,4.88.08.91,3.58-1.22,28.09-4.88,28.09s-5.8-24.51-4.88-28.09c.57-.12,3.36-.08,4.88-.08Z"/>
        </g>
        <path class="cls-11" d="m203.39,160.28c-3.46,8.75-20.15,6.72-23.41-1.43-3.25,8.14-19.95,10.18-23.4,1.43"/>
      </g>
    </g>
  </g>
</svg>