<?xml version="1.0" encoding="UTF-8"?>
<svg id="_レイヤー_2" data-name="レイヤー 2" xmlns="http://www.w3.org/2000/svg" viewBox="0 0 249.74 218.68">
  <defs>
    <style>
      .cls-1 {
        fill: #5a4e49;
        stroke: #5a4e49;
        stroke-width: 1.9px;
      }

      .cls-1, .cls-2, .cls-3 {
        stroke-linecap: round;
        stroke-linejoin: round;
      }

      .cls-4 {
        fill: #d2d3d2;
      }

      .cls-4, .cls-5, .cls-6, .cls-7, .cls-8, .cls-9 {
        stroke-width: 0px;
      }

      .cls-2 {
        stroke: #d1b8aa;
        stroke-width: 1.1px;
      }

      .cls-2, .cls-3 {
        fill: none;
      }

      .cls-5 {
        fill: #dee0e1;
      }

      .cls-6 {
        fill: #fffaf4;
      }

      .cls-3 {
        stroke: #a48164;
        stroke-width: 2.1px;
      }

      .cls-7 {
        fill: #f9dbe5;
      }

      .cls-8 {
        fill: #bdc2c3;
      }

      .cls-9 {
        fill: #a7988f;
      }
    </style>
  </defs>
  <g id="_レイヤー_1-2" data-name="レイヤー 1">
    <g>
      <path class="cls-5" d="m119.19,65.63c19.6-10.68,58.09-25.19,97.56,6.64,27.64,22.29,28.97,88.54,6.96,100.13-22.01,11.59-94.29,6.41-112.23,1.08-17.94-5.33-30.91-25.17-28.58-36.48,2.33-11.32,24.09-64.72,36.29-71.37Z"/>
      <path class="cls-5" d="m52.38,173.83c6.86.71,33.02,23.46,75.66,7.15,32.87-12.57,7.98-54.66-8.9-70.28-16.01-.98-45.12-1.76-45.12-1.76,0,0-21.06-3.72-36.94-6.05-3.35,10.06-33.43,36.25-20.52,60.75,7.73,14.67,28.95,9.47,35.82,10.18Z"/>
      <path class="cls-4" d="m124.35,74.17c-11.4,2.53-53.17,44.58-60.79,43.79s-13.55,11.49,13.06,15.23c41.78,5.87,67.42-18.45,68.92-32.93s-6.99-29.24-21.19-26.08Z"/>
      <path class="cls-5" d="m31.15,39.6c-1.92-11.77-.44-37.21,6.24-39.43,6.68-2.21,28.44,18.03,32.39,22.88l-38.63,16.54Z"/>
      <path class="cls-7" d="m33.04,38.04c-1.54-9.44-.35-29.83,5-31.61,5.36-1.77,14.96,16.41,18.13,20.31l-23.13,11.3Z"/>
      <path class="cls-5" d="m132,50.53c4.7-12.18,8.83-39.77,2.17-43.64-6.66-3.87-34.51,12.94-39.84,17.25l37.68,26.4Z"/>
      <path class="cls-7" d="m130.33,48.43c3.76-9.76,7.07-31.88,1.73-34.99-5.34-3.1-27.67,10.37-31.94,13.83l30.2,21.16Z"/>
      <path class="cls-5" d="m72.92,128.34c21.05,3.07,65.94-13.64,68.77-40.94s-11.41-46.69-23.56-56.74c-7.38-6.11-20.69-10.15-33.9-11.52s-27.07-.14-35.54,4.33c-13.95,7.35-31.93,24.05-34.69,50.7-2.83,27.3,37.87,51.1,58.92,54.17Z"/>
      <g>
        <path class="cls-8" d="m67.96,18.81c-8.76,4.94-8.41,18.84-6.12,19.08s5.09-14.37,13.68-19.26c-1.56-.06-6.13.06-7.56.18Z"/>
        <path class="cls-8" d="m100.23,22.15c-6.68,7.21-11.71,18.5-14,18.26s1.47-14.23,6.63-19.99c1.54.26,5.99,1.32,7.37,1.73Z"/>
        <path class="cls-8" d="m84.24,19.15c.91.1,2.58.24,2.91.35-3.74,3.67-9.43,15.41-11.62,15.19s-.42-10.83,5.78-15.79c.35-.04,2.01.16,2.92.25Z"/>
      </g>
      <path class="cls-1" d="m105.78,64.28c-2.36,5.03-16.52,5.7-17.42-4.63,4.06,3.43,11.02,8.3,17.42,4.63Z"/>
      <path class="cls-1" d="m39.14,58.66c1.28,5.41,10.63,7.23,13.64-2.7-4.68,2.53-8.12,7.6-13.64,2.7Z"/>
      <path class="cls-8" d="m152.9,54.01c19.52,12.43,21.86,43.11,16.41,43.7-2.29.25-.34-22.77-25.32-41.93,1.58-.35,7.54-2.18,8.92-1.77Z"/>
      <path class="cls-8" d="m179.31,54.14c16.89,10.8,19.87,40.36,14.41,40.95-2.29.25-.47-23.04-25.46-42.2,1.55-.13,9.67.83,11.04,1.24Z"/>
      <path class="cls-8" d="m205.15,64.17c14.47,13.89,10.28,29.71,7.19,29.77-2.3.05.75-14.69-16.45-34.58,1.55.18,7.99,4.14,9.26,4.81Z"/>
      <path class="cls-5" d="m221.15,137.52c12.87-4.22,33.29,21.42,27.63,37.4-8.99,25.4-48,28.76-57.52,28.13-18.92-1.27-39.91,6.27-48.57,12.78-14.84,11.17-31.88-13.16-2.83-26.04,13.21-5.86,47.34-3.03,61.54-3.85,14.2-.82,37.61-9.58,35-21.13-2.61-11.55-8.24-8.62-15.32-13.09-7.08-4.47-2.6-13.32.07-14.2Z"/>
      <path class="cls-8" d="m142.33,188.83c11.94,3.74,12.54,17.61,10.49,21.46,2.62-1.41,5.82-2.29,7.33-2.9,3.04-2.43,4.49-16.34-4.97-20.79-2.48.18-10.13,1.12-12.85,2.23Z"/>
      <path class="cls-8" d="m174.75,185.86c6.32,3.48,5.35,14.27,2.72,17.75,2.82-.54,5.74-.29,7.33-.65,3.28-.69,7.26-13.05.48-17.03-2.47-.22-7.96-.05-10.53-.06Z"/>
      <path class="cls-8" d="m199.61,185.95c6.32,3.48,4.61,13.25,1.98,16.73,2.82-.54,5.75-.7,7.34-1.07,3.28-.69,7.13-12.89.35-16.87-1.68.4-7.09,1.22-9.66,1.21Z"/>
      <path class="cls-8" d="m219.02,181.97c6.75,2.54,5.98,12.16,3.87,15.97,2.71-.94,5.08-2.29,6.59-2.88,3.15-1.15,3.39-12.84-3.88-15.82-1.6.64-4.18,1.88-6.58,2.72Z"/>
      <g>
        <path class="cls-6" d="m97.22,97.3c-1.13,10.86-15.65,18.25-32.44,16.51-16.79-1.74-29.49-11.95-28.37-22.81,1.13-10.87,16.01-21.72,32.8-19.98,16.79,1.74,29.13,15.41,28,26.28Z"/>
        <path class="cls-6" d="m71.83,45.6c-6.1-.63-8.08,12.85-10.44,18.95-3.16,8.15-8.23,8.78-4.66,11.46,3.58,2.68,20.95,5.79,23.93,3.38,1.96-1.59-2.3-5.12-3.26-13.18-.75-6.28-.99-20.14-5.57-20.61Z"/>
      </g>
      <g>
        <path class="cls-2" d="m82.79,88.56c15.01-10.98,63.05-6,74.35,11.35"/>
        <path class="cls-2" d="m83.76,94c10.78-2.18,39.03,10.11,44.79,21.44"/>
      </g>
      <g>
        <path class="cls-2" d="m47.74,84.05c-10.49-10.33-32.44-14.46-47.19-5.97"/>
        <path class="cls-2" d="m45.67,89.18c-10.11-4.35-26.19-2.92-34.15,6.99"/>
      </g>
      <path class="cls-3" d="m75.86,97.27c-2.61,5.01-12.45,2.76-13.9-2.3-2.45,4.66-12.55,4.84-14.07-.6"/>
      <path class="cls-9" d="m72.91,80.9c-.24,2.33-4.98,6.98-10.16,6.45s-8.86-6.06-8.62-8.39,4.64-3.79,9.83-3.26,9.2,2.87,8.95,5.2Z"/>
    </g>
  </g>
</svg>