<?xml version="1.0" encoding="UTF-8"?>
<svg id="_レイヤー_2" data-name="レイヤー 2" xmlns="http://www.w3.org/2000/svg" viewBox="0 0 386.36 339">
  <defs>
    <style>
      .cls-1 {
        fill: #fbb558;
      }

      .cls-1, .cls-2 {
        stroke-width: 0px;
      }

      .cls-2 {
        fill: #8cc5ec;
      }
    </style>
  </defs>
  <g id="_レイヤー_1-2" data-name="レイヤー 1">
    <g>
      <g>
        <path class="cls-1" d="m196.25,254.7c-.68-1.59-.48-4.21-.14-6.23,2.33-13.74,6.66-24,11.7-31.68-9.64-10.88-20.19-12.5-20.71-12.57l-1.99-.23c-3.5,9.05-8.89,21.21-12.86,32.35-1.17,3.27-2.77,6.62-4.67,7.95-1.9,1.33-6.27,2.12-9.96,3.2-17.27,5.04-29.89,20.98-29.88,39.88,0,22.93,18.59,41.53,41.53,41.53s41.53-18.59,41.53-41.53c0-11.35-4.55-21.62-11.93-29.13-1.24-1.26-1.95-1.96-2.63-3.54Zm-26.97,55.11c-12.4,0-22.45-10.05-22.45-22.45s10.05-22.45,22.45-22.45c12.4,0,22.45,10.04,22.45,22.45,0,12.4-10.05,22.45-22.45,22.45Z"/>
        <path class="cls-1" d="m292.26,312.34c5.24-6.96,8.34-15.6,8.35-24.98,0-18.89-12.62-34.84-29.89-39.88-3.69-1.08-8.06-1.86-9.96-3.2-1.89-1.34-3.5-4.68-4.66-7.95-5.72-16.05-14.42-34.29-16.1-42.14,0,0-11.22-149.3-13.47-168.38C224.28,6.73,220.92,0,214.18,0c-6.73,0-10.1,6.73-12.35,25.81-2.24,19.09-13.47,168.38-13.47,168.38,0,0,35.36,3.92,43.88,54.28.34,2.02.54,4.64-.14,6.23-.67,1.58-1.38,2.28-2.62,3.55-7.37,7.49-11.93,17.77-11.93,29.11,0,22.94,18.59,41.53,41.53,41.53,7.84,0,15.18-2.18,21.45-5.96,14.21,12.81,26.07,16.07,26.07,16.07l6.74-12.35c-10.23-3.06-19.49-12.62-21.07-14.31Zm-78.09-124.88c-4.34,0-7.85-3.52-7.85-7.86s3.52-7.86,7.85-7.85c4.34,0,7.85,3.52,7.85,7.85.01,4.33-3.51,7.86-7.85,7.86Zm44.9,122.35c-12.4,0-22.45-10.05-22.45-22.45,0-12.41,10.05-22.45,22.44-22.45,12.4,0,22.46,10.04,22.45,22.45,0,12.4-10.04,22.44-22.45,22.45Z"/>
        <path class="cls-1" d="m84.55,3H8.87C3.98,3,0,6.98,0,11.87v17.69c0,4.11,3.34,7.45,7.45,7.45h54.23c7.04,0,12.77,5.74,12.77,12.79s-5.73,12.77-12.77,12.77H7.45C3.34,62.56,0,65.91,0,70.02v7.83c0,4.11,3.34,7.45,7.45,7.45h54.23c7.04,0,12.77,5.73,12.77,12.78s-5.73,12.78-12.77,12.78H7.45C3.34,110.85,0,114.2,0,118.31v7.84c0,4.11,3.34,7.45,7.45,7.45h54.23c7.04,0,12.77,5.73,12.77,12.78s-5.73,12.77-12.77,12.77H7.45C3.34,159.14,0,162.49,0,166.59v7.84c0,4.11,3.34,7.45,7.45,7.45h54.23c7.04,0,12.77,5.73,12.77,12.77s-5.73,12.78-12.77,12.78H7.45C3.34,207.43,0,210.77,0,214.88v7.84c0,4.11,3.34,7.45,7.45,7.45h54.23c7.04,0,12.77,5.73,12.77,12.78s-5.73,12.77-12.77,12.77H7.45C3.34,255.72,0,259.06,0,263.17v7.84c0,4.11,3.34,7.45,7.45,7.45h54.23c7.04,0,12.77,5.73,12.77,12.77s-5.73,12.78-12.77,12.78H7.45C3.34,304.01,0,307.35,0,311.46v15.67c0,4.89,3.98,8.87,8.87,8.87h75.67c12.74,0,23.11-10.37,23.11-23.11V26.11c0-12.74-10.36-23.11-23.11-23.11Z"/>
      </g>
      <g>
        <path class="cls-2" d="m378.66,33.71c-12.04-6.18-27.45-11.57-41.5-17.61-.46-.2-.78-.34-.96-.32-6.49-2.5-13.52-3.84-20.83-3.84-3.72,0-7.24.2-10.57.58-7.86.9-14.71,2.86-20.6,5.81-12.53,5.17-25.65,9.97-36.19,15.38-7.4,3.8-8.08,10.89-7.58,13.91,1.34,8.11,6.88,29.38,8.02,33.62.97,3.62,4.98,6.33,9.82,6.97,2.75,14.7,9.75,27.65,19.6,37.05h0c5.03,4.8,10.81,8.67,17.14,11.34,6.33,2.67,13.2,4.15,20.36,4.14,8.15,0,15.94-1.91,22.97-5.33,10.55-5.14,19.4-13.64,25.62-24.21,4.24-7.21,7.26-15.41,8.75-24.2,2.78-1.26,4.85-3.3,5.51-5.76,1.14-4.23,6.69-25.51,8.02-33.62.5-3.02-.18-10.11-7.58-13.91Zm-29.17,80.9c-4.44,5.1-9.68,9.19-15.45,11.99-5.77,2.81-12.05,4.34-18.67,4.34-5.81,0-11.37-1.19-16.54-3.37-5.17-2.18-9.96-5.38-14.19-9.41h0c-1.21-1.15-2.37-2.38-3.48-3.67.03.03.06.06.09.08,24.86-12.79,46.56-37.36,44.99-65.09-.77-13.46-6.75-22.11-13.89-27.68.99-.03,1.99-.05,3.02-.05,6.74,0,13.11,1.34,18.89,3.81,2.32.99,4.54,2.17,6.66,3.51,1.8,4.91,4.12,11.54,6.99,20.48-4.05,25.87,5.25,36.32,14.63,38.39-2.19,10.32-6.8,19.49-13.04,26.66Z"/>
        <path class="cls-2" d="m316.42,99.76c-7.26,0-13.15,4.79-13.15,10.7s5.89,10.7,13.15,10.7,13.15-4.79,13.15-10.7-5.89-10.7-13.15-10.7Z"/>
      </g>
    </g>
  </g>
</svg>