<?xml version="1.0" encoding="UTF-8"?>
<svg id="_レイヤー_2" data-name="レイヤー 2" xmlns="http://www.w3.org/2000/svg" viewBox="0 0 464 517.17">
  <defs>
    <style>
      .cls-1 {
        fill: #685e59;
      }

      .cls-1, .cls-2, .cls-3, .cls-4, .cls-5, .cls-6, .cls-7, .cls-8, .cls-9, .cls-10 {
        stroke-width: 0px;
      }

      .cls-2 {
        fill: #deb971;
      }

      .cls-3 {
        fill: #f4e8d1;
      }

      .cls-4 {
        fill: #e0e0e0;
      }

      .cls-5 {
        fill: #fadce5;
      }

      .cls-6 {
        fill: #6c9bd2;
      }

      .cls-7 {
        fill: #a7a09d;
      }

      .cls-8 {
        fill: #be9e7f;
      }

      .cls-9 {
        fill: #f3d28c;
      }

      .cls-10 {
        fill: #5a4f4a;
      }
    </style>
  </defs>
  <g id="layer01">
    <g>
      <ellipse class="cls-4" cx="232" cy="484.04" rx="232" ry="33.13"/>
      <g>
        <g>
          <path class="cls-3" d="m154.12,369.51c-10.07,41.76-50.38,57.65-75.85,24.34-23-30.07,5.63-56.21,24.96-64.26,2.23-21.36-17.39-20.91-21.38-7.5-27.91-9.81-46.87,8.3-27.02,20.95-29.14,14.46-28.13,44.15-4.22,46.85-28.58,29.64-7.37,68.77,21.41,49.52-11.33,32.08,20.21,29.96,33.16,8.3,2.96,24.39,33.75,31.48,40.23-6.83,3.34,16.65,30.01,17.7,27.74-11.37,17.97,2.63,25.13-18.44,12.03-39.88,0,0-23.29-18.95-31.05-20.13Z"/>
          <path class="cls-9" d="m173.4,374.16c7.32,34.34-52.97,80.3-88.56,48.88-23.36-20.64-36.29-84.91,18.39-93.45-23.18,7.76-29.52,40.03-10.55,64.77,16.11,21.02,56.4-7.51,49.46-43.54l31.26,23.33Z"/>
        </g>
        <g>
          <path class="cls-2" d="m182.17,323.57c-50.25,4.4-87.74,67.02-72.31,105.49,15.42,38.48,26.68,45.65,44.03,49.37,17.36,3.72,92.87,11.45,103.47-.97,10.61-12.41,36.64-64.54,29.41-107.36-9.09-53.83-62.18-50.27-104.6-46.54Z"/>
          <path class="cls-2" d="m184.1,452.14c-20.9,2.61-39.32,7.72-53.78,7.72-20.35,0-49.03,11.69-47.24,21.21,2.89,15.42,27,13.5,48.2,14.46,18.4.84,102.23-5.02,119.34-9.64,22.42-6.06,7.71-31.82-4.82-34.71-12.53-2.9-53.99,0-61.7.96Z"/>
        </g>
        <g>
          <path class="cls-2" d="m299.45,323.57c50.26,4.4,87.74,67.02,72.31,105.49-15.42,38.48-26.68,45.65-44.03,49.37-17.35,3.72-92.87,11.45-103.48-.97-10.6-12.41-36.63-64.54-29.4-107.36,9.09-53.83,62.18-50.27,104.6-46.54Z"/>
          <path class="cls-2" d="m297.53,452.14c20.89,2.61,39.32,7.72,53.78,7.72,20.34,0,49.02,11.69,47.24,21.21-2.89,15.42-26.99,13.5-48.21,14.46-18.4.84-100.08-5.02-119.33-9.64-22.58-5.42-7.71-31.82,4.82-34.71,12.53-2.9,53.98,0,61.7.96Z"/>
        </g>
        <path class="cls-9" d="m143.39,315.61c19.28,36.08,37.44,143.28,22.6,164.9-15.65,7.74-25.39,34.25,3.96,33.44,18.28-.5,36.74-20.03,42.71-37.21,14.36-41.3,32.24-126.9,23.34-140.08-8.9-13.18-60.32-33.34-92.62-21.06Z"/>
        <path class="cls-9" d="m338.23,315.61c-19.28,36.08-37.44,143.28-22.6,164.9,15.65,7.74,25.39,34.25-3.96,33.44-18.28-.5-36.73-20.03-42.71-37.21-14.37-41.3-32.25-126.9-23.35-140.08,8.9-13.18,60.33-33.34,92.62-21.06Z"/>
        <path class="cls-9" d="m328.97,186.31c5.38,16.16,21.62,97.51,11.35,134.2-18.85,67.34-72.56,68.43-99.5,68.43s-80.64-1.09-99.49-68.43c-10.27-36.68,5.96-118.04,11.35-134.2h176.3Z"/>
        <path class="cls-3" d="m298.42,186.31c5.39,16.16,31.8,97.51,21.52,134.2-18.85,67.34-52.19,44-79.13,44s-56.21,23.35-75.06-44c-10.27-36.68,16.13-118.04,21.53-134.2h111.14Z"/>
        <path class="cls-6" d="m155.09,201.37c7.18,16.16,27.01,63.35,85.72,63.35,55.55,0,82.48-42.4,85.48-65.15l-10.18-21.55-148.45-1.8-12.57,25.14Z"/>
        <g>
          <g>
            <path class="cls-9" d="m214.57,70.13c10.77-26.15-20.44-60.61-27.03-67.17-10.2-10.17-22.31,8.37-26.52,18.32-6.79,16.04-11.92,63.36,7.23,68.15,18.9,4.72,43-11.25,46.32-19.3Z"/>
            <path class="cls-9" d="m240.81,242.32c16.16,0,36.64-2.28,61.79-14.85,25.14-12.57,44.9-45.86,48.49-78.18-14.97-13.17-19.76-28.14-30.53-55.07-10.78-26.94-51.01-41.9-79.75-41.9s-68.97,14.96-79.74,41.9c-10.77,26.94-15.56,41.9-30.54,55.07,3.6,32.32,23.35,65.61,48.49,78.18,25.14,12.57,45.62,14.85,61.78,14.85Z"/>
            <path class="cls-3" d="m240.81,242.32c16.16,0,36.64-2.28,61.79-14.85,15.12-7.56,28.29-22.62,37.18-40.46,2.33-24.25-6.16-48.48-34.78-43.71-14.37,2.39-17.96,25.14-64.18,25.08-46.22-.06-49.81-22.69-64.18-25.08-28.62-4.77-37.11,19.46-34.78,43.71,8.88,17.84,22.05,32.9,37.17,40.46,25.14,12.57,45.62,14.85,61.78,14.85Z"/>
            <path class="cls-1" d="m264.44,162.72c0,5.87-10.58,18.67-23.63,18.67s-23.63-12.8-23.63-18.67,10.58-10.63,23.63-10.63,23.63,4.76,23.63,10.63Z"/>
            <path class="cls-7" d="m234.07,166.74c3.56-1.61,8.82-4.19,8.93-6.08.36-6.05-9.15-5.4-12.89-3.68-3.75,1.72-6.34,5.8-5.57,7.74,1.9,4.79,6.44,3.43,9.53,2.02Z"/>
            <path class="cls-8" d="m240.81,191.6c-.82,0-1.55.5-1.86,1.26-3.1,7.76-13.57,11.81-22.31,11.8-8.34-.01-14.67-3.44-16.93-9.17-.41-1.03-1.57-1.53-2.6-1.13-1.03.41-1.53,1.57-1.12,2.6,2.89,7.31,10.61,11.69,20.65,11.71,8.55.01,19.04-3.41,24.17-10.86,5.14,7.46,15.65,10.88,24.21,10.86,10.03-.02,17.74-4.4,20.63-11.7.41-1.03-.1-2.19-1.12-2.6-1.03-.41-2.19.1-2.59,1.12-2.27,5.73-8.59,9.16-16.92,9.18-8.75.02-19.23-4.03-22.34-11.8-.3-.76-1.04-1.26-1.86-1.26Z"/>
            <path class="cls-10" d="m193.64,124.15c0,8.12,3.08,14.68,6.95,14.68s3.32-6.57,3.32-14.68.49-14.69-3.32-14.69-6.95,6.57-6.95,14.69Z"/>
            <path class="cls-10" d="m287.99,124.15c0,8.12-3.09,14.68-6.96,14.68s-3.31-6.57-3.31-14.68-.5-14.69,3.31-14.69,6.96,6.57,6.96,14.69Z"/>
            <path class="cls-3" d="m224.58,109.78c5.43-5.42-3.22-17.73-9.88-16.16-7.63,1.79-5.63,14.3,0,17.51,3.14,1.8,7.63.9,9.88-1.35Z"/>
            <path class="cls-3" d="m257.04,109.78c-5.42-5.42,3.22-17.73,9.88-16.16,7.63,1.79,5.62,14.3,0,17.51-3.14,1.8-7.63.9-9.88-1.35Z"/>
            <path class="cls-5" d="m183.07,19.99c-3.54-2.77-8.53-3.59-12.13,2.69s-10.77,35.47-5.39,48.49c2.43,5.87,8.08,6.74,14.37,7.18-2.7-2.69-5.24-7.33-3.89-9.58,2.31-3.85,3.89-2.1,8.38-.3-.3-3.59-.44-5.74.9-8.08,1.79-3.14,7.18-.9,10.77,1.8,3.59,2.69,5.83,0,8.08-4.49,2.62-5.22.87-9.59-2.69-17.06-4.49-9.43-12.12-15.71-18.4-20.65Z"/>
            <path class="cls-9" d="m267.06,70.13c-10.77-26.15,20.44-60.61,27.03-67.17,10.19-10.17,22.3,8.37,26.52,18.32,6.79,16.04,11.93,63.36-7.23,68.15-18.9,4.72-43-11.25-46.32-19.3Z"/>
            <path class="cls-5" d="m298.55,19.99c3.53-2.77,8.53-3.59,12.12,2.69,3.59,6.29,10.77,35.47,5.39,48.49-2.43,5.87-8.08,6.74-14.37,7.18,2.7-2.69,5.24-7.33,3.9-9.58-2.31-3.85-3.9-2.1-8.39-.3.3-3.59.44-5.74-.89-8.08-1.8-3.14-7.19-.9-10.78,1.8-3.59,2.69-5.84,0-8.08-4.49-2.61-5.22-.86-9.59,2.69-17.06,4.49-9.43,12.13-15.71,18.41-20.65Z"/>
          </g>
          <path class="cls-2" d="m240.81,143.59c8.44,0,16.89,1.08,24.56,3.76-3.84-5.75-16.12-11.59-24.56-11.59s-20.72,5.84-24.55,11.59c7.67-2.68,16.12-3.76,24.55-3.76Z"/>
        </g>
      </g>
    </g>
  </g>
</svg>