<?xml version="1.0" encoding="UTF-8"?>
<svg id="_レイヤー_2" data-name="レイヤー 2" xmlns="http://www.w3.org/2000/svg" viewBox="0 0 491.87 508.22">
  <defs>
    <style>
      .cls-1 {
        fill: #fce38a;
      }

      .cls-1, .cls-2 {
        stroke-width: 0px;
      }

      .cls-2 {
        fill: #f4d369;
      }
    </style>
  </defs>
  <g id="_レイヤー_1-2" data-name="レイヤー 1">
    <g>
      <path class="cls-1" d="m94.3,263.98l27.21-14.31c.87-.46,1.92-.46,2.79,0l27.27,14.32c2.2,1.16,4.77-.71,4.35-3.16l-5.19-30.34c-.17-.97.16-1.97.86-2.66l22.04-21.47c1.78-1.73.8-4.76-1.66-5.12l-30.48-4.47c-.98-.14-1.82-.76-2.25-1.64l-13.63-27.6c-1.1-2.23-4.28-2.23-5.38,0l-13.57,27.59c-.44.89-1.28,1.5-2.26,1.64l-30.48,4.47c-2.46.36-3.44,3.38-1.66,5.12l22.02,21.47c.71.69,1.03,1.68.86,2.65l-5.18,30.34c-.42,2.45,2.15,4.32,4.35,3.16Z"/>
      <path class="cls-1" d="m150.8,75.42l19.84-10.44c.87-.46,1.92-.46,2.79,0l19.88,10.44c2.2,1.16,4.77-.71,4.35-3.16l-3.79-22.13c-.17-.97.16-1.97.86-2.66l16.08-15.65c1.78-1.73.8-4.76-1.66-5.12l-22.24-3.27c-.98-.14-1.82-.76-2.25-1.64l-9.94-20.13c-1.1-2.23-4.28-2.23-5.38,0l-9.9,20.12c-.44.89-1.28,1.5-2.26,1.64l-22.23,3.27c-2.46.36-3.44,3.38-1.66,5.12l16.06,15.66c.71.69,1.03,1.68.86,2.65l-3.78,22.13c-.42,2.45,2.15,4.32,4.35,3.16Z"/>
      <path class="cls-1" d="m15.33,113.93l14.86-7.81c.87-.46,1.92-.46,2.79,0l14.87,7.81c2.2,1.16,4.77-.71,4.35-3.16l-2.84-16.56c-.17-.97.16-1.97.86-2.66l12.04-11.72c1.78-1.73.8-4.76-1.66-5.12l-16.65-2.44c-.98-.14-1.82-.76-2.26-1.64l-7.43-15.07c-1.1-2.23-4.28-2.23-5.38,0l-7.43,15.07c-.44.88-1.28,1.5-2.26,1.64l-16.64,2.44c-2.46.36-3.44,3.38-1.66,5.12l12.03,11.72c.71.69,1.03,1.68.86,2.65l-2.82,16.56c-.42,2.45,2.15,4.32,4.35,3.16Z"/>
      <path class="cls-2" d="m326.75,22.93c-2.77-1-5.39,1.87-4.14,4.54,14.23,30.23,22.4,63.94,22.4,99.57,0,129.39-104.85,234.28-234.24,234.28-35.66,0-69.37-8.13-99.62-22.42-2.67-1.26-5.55,1.36-4.55,4.13,34.43,95.28,124.99,163.75,231.81,165.16,140.15,1.85,255.3-113.3,253.45-253.45-1.41-106.81-69.83-197.4-165.11-231.81Z"/>
    </g>
  </g>
</svg>