<?xml version="1.0" encoding="UTF-8"?>
<svg id="_レイヤー_2" data-name="レイヤー 2" xmlns="http://www.w3.org/2000/svg" viewBox="0 0 362.96 369.86">
  <defs>
    <style>
      .cls-1 {
        fill: #f4d369;
      }

      .cls-1, .cls-2 {
        stroke-width: 0px;
      }

      .cls-2 {
        fill: #fbb558;
      }
    </style>
  </defs>
  <g id="_レイヤー_1-2" data-name="レイヤー 1">
    <g>
      <g>
        <path class="cls-2" d="m118.81,339.21h124.6c65.62,0,118.81-53.19,118.81-118.81H0c0,65.62,53.19,118.81,118.81,118.81Z"/>
        <path class="cls-2" d="m12.89,179.84v-35.71c0-19.72,5.76-38.97,16.43-55.51l3.43,2.61,9.19-10.75-18.35-14.05-7.75,11.94,3.27,2.48C6.76,99.63.1,121.61.1,144.12v35.71h-.1v23.18h362.21v-23.18H12.89Z"/>
        <path class="cls-2" d="m184.87,68.54c.93-.05,1.82-.46,2.45-1.15.62-.7.94-1.62.91-2.55-.06-.93-.47-1.82-1.16-2.45s-1.62-.95-2.54-.91c-.93.04-1.83.46-2.45,1.16-.62.68-.95,1.61-.89,2.55.04.92.46,1.81,1.15,2.43.68.63,1.61.96,2.54.91Z"/>
        <path class="cls-2" d="m116.7,40.1c.93-.05,1.81-.48,2.44-1.17.63-.68.95-1.61.91-2.54-.04-.93-.47-1.82-1.15-2.45-.7-.62-1.63-.96-2.55-.9-.93.05-1.82.46-2.45,1.15-.62.69-.96,1.61-.9,2.55.04.93.47,1.82,1.15,2.45.69.62,1.62.95,2.55.91Z"/>
        <path class="cls-2" d="m166.29,61.17c1.81.75,3.88-.1,4.62-1.9.75-1.79-.1-3.87-1.9-4.62-1.81-.75-3.87.1-4.62,1.9-.75,1.79.09,3.86,1.89,4.61Z"/>
        <path class="cls-2" d="m149.25,54.05c1.79.75,3.87-.1,4.61-1.91.75-1.79-.1-3.86-1.9-4.61-1.79-.75-3.87.1-4.61,1.9-.76,1.79.1,3.87,1.9,4.62Z"/>
        <path class="cls-2" d="m132.2,46.94c1.8.76,3.87-.09,4.62-1.89.75-1.8-.1-3.87-1.9-4.63-1.81-.74-3.87.1-4.62,1.9-.75,1.81.11,3.88,1.9,4.62Z"/>
        <path class="cls-2" d="m105.15,46.99c.05.93.48,1.81,1.16,2.44.69.62,1.61.96,2.55.91.93-.06,1.81-.48,2.44-1.16.63-.7.96-1.63.91-2.56-.04-.92-.46-1.82-1.16-2.44-.69-.63-1.61-.96-2.54-.91-.93.05-1.82.48-2.45,1.17-.62.68-.95,1.62-.91,2.55Z"/>
        <path class="cls-2" d="m121.88,59.45c1.65,1.05,3.83.55,4.88-1.08,1.05-1.64.57-3.83-1.07-4.87-1.64-1.05-3.83-.57-4.87,1.07-1.06,1.65-.57,3.83,1.06,4.88Z"/>
        <path class="cls-2" d="m151.03,73.87c-1.06,1.65-.58,3.83,1.07,4.87,1.63,1.06,3.81.58,4.87-1.06,1.05-1.65.57-3.83-1.08-4.88-1.64-1.05-3.83-.57-4.87,1.08Z"/>
        <path class="cls-2" d="m135.91,64.21c-1.05,1.65-.57,3.83,1.08,4.88,1.64,1.06,3.83.57,4.87-1.07,1.06-1.64.57-3.83-1.07-4.86-1.65-1.07-3.82-.57-4.88,1.06Z"/>
        <path class="cls-2" d="m166.48,83.05c-.62.7-.96,1.62-.91,2.55.04.93.46,1.82,1.15,2.44.7.62,1.62.96,2.55.91s1.82-.46,2.44-1.16c.63-.68.95-1.61.91-2.55-.05-.92-.47-1.81-1.16-2.44-.68-.62-1.61-.95-2.55-.91-.93.04-1.81.46-2.43,1.15Z"/>
        <path class="cls-2" d="m90.39,64.92c-.62.69-.95,1.62-.91,2.55.05.93.46,1.82,1.17,2.44.68.62,1.61.96,2.55.91.92-.04,1.81-.48,2.44-1.16.62-.69.94-1.63.9-2.55-.05-.93-.47-1.82-1.15-2.45-.69-.62-1.62-.95-2.55-.91-.92.05-1.82.46-2.45,1.15Z"/>
        <path class="cls-2" d="m106.51,84.67c1.55-1.19,1.82-3.42.62-4.95-1.19-1.55-3.41-1.82-4.95-.63-1.55,1.19-1.81,3.41-.62,4.96,1.19,1.54,3.41,1.82,4.95.62Z"/>
        <path class="cls-2" d="m117.83,99.26c1.55-1.21,1.82-3.41.63-4.95-1.21-1.55-3.42-1.83-4.96-.63-1.55,1.2-1.82,3.42-.63,4.95,1.2,1.54,3.42,1.83,4.95.63Z"/>
        <path class="cls-2" d="m124.83,108.26c-1.54,1.21-1.83,3.42-.62,4.96,1.19,1.55,3.41,1.82,4.95.62,1.55-1.19,1.82-3.41.62-4.95-1.2-1.54-3.41-1.82-4.95-.63Z"/>
        <path class="cls-2" d="m138.15,122.12c-.93.04-1.82.46-2.45,1.16-.63.68-.95,1.62-.91,2.54.05.92.47,1.83,1.17,2.44.68.63,1.6.96,2.53.91.93-.05,1.82-.46,2.44-1.16.62-.68.96-1.61.91-2.54-.05-.92-.47-1.83-1.16-2.45-.69-.62-1.61-.95-2.54-.9Z"/>
        <path class="cls-2" d="m104.37,56.88c-.05-.93-.46-1.82-1.16-2.45-.69-.62-1.62-.95-2.55-.91-.92.04-1.82.48-2.45,1.16-.62.7-.94,1.62-.91,2.55.06.93.47,1.82,1.17,2.44.68.63,1.61.95,2.55.91.93-.05,1.81-.46,2.43-1.16.62-.7.96-1.62.91-2.55Z"/>
        <path class="cls-2" d="m124.78,78.78c-1.31,1.44-1.2,3.67.24,4.99,1.45,1.31,3.67,1.21,4.99-.24,1.31-1.44,1.21-3.67-.24-4.98-1.44-1.32-3.68-1.2-4.99.24Z"/>
        <path class="cls-2" d="m138.05,90.82c-1.31,1.44-1.21,3.68.24,4.99,1.44,1.31,3.68,1.2,4.98-.24,1.32-1.44,1.21-3.67-.24-4.99-1.44-1.31-3.67-1.2-4.98.24Z"/>
        <path class="cls-2" d="m116.74,71.48c1.31-1.45,1.2-3.68-.24-4.99-1.44-1.31-3.68-1.19-5,.23-1.31,1.45-1.19,3.68.25,5,1.44,1.31,3.67,1.19,4.99-.24Z"/>
        <path class="cls-2" d="m153.75,101.72c-.93.06-1.82.46-2.44,1.16-.63.68-.96,1.61-.92,2.55.05.92.46,1.82,1.16,2.43.68.63,1.61.96,2.55.92.93-.05,1.82-.47,2.44-1.17.62-.68.96-1.61.91-2.54-.04-.93-.46-1.82-1.16-2.44-.68-.62-1.61-.95-2.54-.91Z"/>
        <path class="cls-2" d="m66.03,51.74l3.89,2.72,28.05-36.67-15.7-13.97-2.39-1.81c-2.06-1.58-4.68-2.26-7.24-1.9-2.58.36-4.9,1.73-6.45,3.81,0,0-7.49,7.92-10.67,12.33-27.23,37.71-29.02,45.68-29.02,45.68l18.8,14.38,20.73-24.56Z"/>
        <path class="cls-2" d="m77.39,59.65c2.13,1.47,5.03,1,6.59-1.04l21.51-28.13c1.54-2.02,1.27-4.88-.63-6.58l-3.05-2.71-27.69,36.18,3.27,2.27Z"/>
        <path class="cls-2" d="m50.33,337c-9.04,0-16.4,7.36-16.4,16.4s7.36,16.46,16.4,16.46,16.05-4.87,19.3-15.36c1.04-3.24,2.43-9.85,3.36-16.23-5.91-2.09-11.65-4.64-17.1-7.48-1.39,4.75-3.94,6.2-5.56,6.2Z"/>
        <path class="cls-2" d="m311.82,337c-1.62,0-4.18-1.45-5.56-6.2-5.45,2.84-11.19,5.39-17.1,7.48.98,6.38,2.38,12.98,3.36,16.23,3.24,10.49,10.25,15.36,19.3,15.36s16.46-7.36,16.46-16.46-7.36-16.4-16.46-16.4Z"/>
      </g>
      <path class="cls-1" d="m331.65,113.2c0-16.91-14.4-31.31-31.31-31.31,16.91,0,31.31-14.4,31.31-31.31,0,16.91,14.4,31.31,31.31,31.31-16.91,0-31.31,14.4-31.31,31.31Z"/>
      <path class="cls-1" d="m294.31,173.4c0-16.91-14.4-31.31-31.31-31.31,16.91,0,31.31-14.4,31.31-31.31,0,16.91,14.4,31.31,31.31,31.31-16.91,0-31.31,14.4-31.31,31.31Z"/>
      <path class="cls-1" d="m264.87,64.35c0-16.91-14.4-31.31-31.31-31.31,16.91,0,31.31-14.4,31.31-31.31,0,16.91,14.4,31.31,31.31,31.31-16.91,0-31.31,14.4-31.31,31.31Z"/>
    </g>
  </g>
</svg>