<?xml version="1.0" encoding="UTF-8"?>
<svg id="_レイヤー_2" data-name="レイヤー 2" xmlns="http://www.w3.org/2000/svg" viewBox="0 0 320.9 327.56">
  <defs>
    <style>
      .cls-1 {
        fill: #f38181;
      }

      .cls-1, .cls-2, .cls-3 {
        stroke-width: 0px;
      }

      .cls-2 {
        fill: #fbb558;
      }

      .cls-3 {
        fill: #8cc5ec;
      }
    </style>
  </defs>
  <g id="_レイヤー_1-2" data-name="レイヤー 1">
    <g>
      <g>
        <path class="cls-2" d="m29.81,25.82c3.42-2.99,7.79-4.65,12.32-4.69h18.83v31.96h16.51v26.69h-13.51c-5.13,0-9.28,4.15-9.28,9.28v28.15h72v-28.15c0-5.13-4.16-9.28-9.28-9.28h-13.51v-26.69h16.51v-31.96h12.64V0H41.93c-9.58.09-18.81,3.61-26.03,9.91L0,23.8l13.91,15.92,15.9-13.9Z"/>
        <path class="cls-2" d="m122.7,127.04H58.65c-25.51,0-46.19,20.68-46.19,46.19v133.54c0,11.48,9.31,20.79,20.79,20.79h114.86c11.48,0,20.79-9.31,20.79-20.79v-133.54c0-25.51-20.68-46.19-46.19-46.19Z"/>
      </g>
      <g>
        <path class="cls-3" d="m310.04,21.77c-12.04-6.18-27.45-11.57-41.5-17.61-.46-.2-.78-.34-.96-.32C261.08,1.34,254.06,0,246.74,0,243.02,0,239.5.2,236.17.58c-7.86.9-14.71,2.86-20.6,5.81-12.53,5.17-25.65,9.97-36.19,15.38-7.4,3.8-8.08,10.89-7.58,13.91,1.34,8.11,6.88,29.38,8.02,33.62.97,3.62,4.98,6.33,9.82,6.97,2.75,14.7,9.75,27.65,19.6,37.05h0c5.03,4.8,10.81,8.67,17.14,11.34,6.33,2.67,13.2,4.15,20.36,4.14,8.15,0,15.94-1.91,22.97-5.33,10.55-5.14,19.4-13.64,25.62-24.21,4.24-7.21,7.26-15.41,8.75-24.2,2.78-1.26,4.85-3.3,5.51-5.76,1.14-4.23,6.69-25.51,8.02-33.62.5-3.02-.18-10.11-7.58-13.91Zm-29.17,80.9c-4.44,5.1-9.68,9.19-15.45,11.99-5.77,2.81-12.05,4.34-18.67,4.34-5.81,0-11.37-1.19-16.54-3.37-5.17-2.18-9.96-5.38-14.19-9.41h0c-1.21-1.15-2.37-2.38-3.48-3.67.03.03.06.06.09.08,24.86-12.79,46.56-37.36,44.99-65.09-.77-13.46-6.75-22.11-13.89-27.68.99-.03,1.99-.05,3.02-.05,6.74,0,13.11,1.34,18.89,3.81,2.32.99,4.54,2.17,6.66,3.51,1.8,4.91,4.12,11.54,6.99,20.48-4.05,25.87,5.25,36.32,14.63,38.39-2.19,10.32-6.8,19.49-13.04,26.66Z"/>
        <path class="cls-3" d="m247.8,87.82c-7.26,0-13.15,4.79-13.15,10.7s5.89,10.7,13.15,10.7,13.15-4.79,13.15-10.7-5.89-10.7-13.15-10.7Z"/>
      </g>
      <path class="cls-1" d="m314.67,209.46l4.02-.93c1.55-.36,2.51-1.92,2.14-3.47h0c-.37-1.52-1.9-2.47-3.43-2.11l-4.28.99c0-.09,0-.18,0-.27,0-10.37-2.82-19.85-7.78-28.01-.39-.64-.5-1.39-.31-2.12,2.88-11.54-1.09-25.37-3.12-31.27-.55-1.6-2.35-2.36-3.89-1.65-4.57,2.1-13.74,6.64-20.15,11.93-.71.59-1.63.79-2.52.55-8.52-2.3-18.04-3.06-28.1-3.06s-19.69.65-28.25,2.95c-.89.24-1.79.04-2.51-.54-6.41-5.24-15.48-9.74-20.02-11.83-1.54-.71-3.34.05-3.89,1.65-2.04,5.9-6,19.73-3.12,31.27.18.73.08,1.48-.31,2.12-4.96,8.16-7.79,17.65-7.79,28.01,0,.09,0,.18,0,.27l-4.28-.99c-1.53-.35-3.06.59-3.43,2.11h0c-.38,1.55.59,3.11,2.14,3.47l4.01.93c1.15.26,1.98,1.22,2.16,2.38.75,4.82,2.17,9.26,4.16,13.33.73,1.49-.05,3.29-1.59,3.89l-5.12,2c-1.49.58-2.21,2.27-1.61,3.75h0c.59,1.46,2.24,2.16,3.69,1.59l7.4-2.89c1.15-.45,2.43-.09,3.22.86,11.77,14.02,32.06,21.5,55.11,21.5s43.34-7.48,55.11-21.5c.79-.95,2.07-1.31,3.22-.86l7.4,2.89c1.46.57,3.1-.14,3.69-1.58h0c.6-1.49-.12-3.18-1.61-3.76l-5.12-2c-1.55-.6-2.32-2.4-1.59-3.89,2-4.06,3.41-8.51,4.16-13.33.18-1.16,1.02-2.12,2.16-2.38Z"/>
    </g>
  </g>
</svg>