<?xml version="1.0" encoding="UTF-8"?>
<svg id="_レイヤー_2" data-name="レイヤー 2" xmlns="http://www.w3.org/2000/svg" xmlns:xlink="http://www.w3.org/1999/xlink" viewBox="0 0 398.71 399.7">
  <defs>
    <style>
      .cls-1 {
        stroke: #b76c6c;
      }

      .cls-1, .cls-2, .cls-3, .cls-4 {
        fill: none;
      }

      .cls-1, .cls-3, .cls-4 {
        stroke-linecap: round;
        stroke-miterlimit: 10;
        stroke-width: 2.54px;
      }

      .cls-5 {
        fill: #f4c689;
      }

      .cls-5, .cls-6, .cls-7, .cls-8, .cls-2, .cls-9, .cls-10, .cls-11, .cls-12, .cls-13, .cls-14, .cls-15, .cls-16, .cls-17, .cls-18 {
        stroke-width: 0px;
      }

      .cls-6 {
        fill: #aa694f;
      }

      .cls-7 {
        fill: #cc7f7f;
      }

      .cls-8 {
        fill: #cc7575;
      }

      .cls-9 {
        fill: #aa6950;
      }

      .cls-10 {
        fill: #fff;
      }

      .cls-3 {
        stroke: #3a3a3a;
      }

      .cls-11 {
        fill: #f2d768;
      }

      .cls-4 {
        stroke: #aa694f;
      }

      .cls-12 {
        fill: #dba993;
      }

      .cls-13 {
        fill: #c6ae47;
      }

      .cls-19 {
        clip-path: url(#clippath);
      }

      .cls-14 {
        fill: #d6a48e;
      }

      .cls-15 {
        fill: #e5b9a1;
      }

      .cls-16 {
        fill: #3a3a3a;
      }

      .cls-17 {
        fill: #bc6868;
      }

      .cls-18 {
        fill: #bf7858;
      }
    </style>
    <clipPath id="clippath">
      <path class="cls-2" d="m312.41,320.51c-4.88-16.17-11.92-28.14-17.22-35.78-5.41-7.77-14.49-18.9-28.25-28.62-15.43-10.91-30.08-15.36-39.27-17.33l-1.7.14c-5.2,2.35-14.89,5.92-27.49,5.83-12.13-.08-21.47-3.51-26.62-5.83l-1.7-.14c-9.2,1.97-23.84,6.41-39.27,17.33-13.76,9.73-22.84,20.85-28.25,28.62-5.31,7.64-12.34,19.61-17.22,35.78-5.59,18.5-5.99,34.65-5.51,44.82h238.01c.47-10.17.08-26.32-5.51-44.82Z"/>
    </clipPath>
  </defs>
  <g id="_レイヤー_1-2" data-name="レイヤー 1">
    <g>
      <circle class="cls-5" cx="199.35" cy="199.35" r="199.35"/>
      <g>
        <path class="cls-9" d="m236.34,85.75c5.03.09,9.38,2.9,11.67,7-.49-5.99-5.46-10.76-11.6-10.87s-11.28,4.46-12,10.43c2.45-4.01,6.89-6.65,11.93-6.56Z"/>
        <path class="cls-9" d="m222.29,78.68c2.95,4.08,3.31,9.24,1.41,13.54,4.5-3.99,5.32-10.82,1.73-15.8-3.59-4.98-10.34-6.34-15.54-3.33,4.67-.45,9.46,1.52,12.4,5.6Z"/>
      </g>
      <path class="cls-18" d="m301.13,227.97c-.26,0-.52-.01-.8-.01-7.21,0-7.21,3.53-14.43,3.53-4.47,0-6.17-1.35-8.54-2.38-1.45-.64-3.15-1.14-5.89-1.14-7.21,0-7.21,3.53-14.43,3.53s-7.21-3.53-14.43-3.53-7.21,3.53-14.42,3.53-7.21-3.53-14.43-3.53-7.21,3.53-14.43,3.53-7.21-3.53-14.42-3.53-7.21,3.53-14.43,3.53-7.21-3.53-14.43-3.53-7.21,3.53-14.42,3.53-7.21-3.53-14.43-3.53c-2.73,0-4.42.5-5.87,1.13-2.38,1.03-4.07,2.4-8.56,2.4-7.21,0-7.21-3.53-14.42-3.53-.27,0-.53,0-.79.01,4.07-6.16,9.26-18.02,18.88-38.72,14.28-30.72,6.97-51.54,24.38-82.26,15.37-27.11,50.6-31.63,58.49-32.31h.05c7.89.69,43.12,5.2,58.49,32.31,17.41,30.72,10.1,51.54,24.38,82.26,9.62,20.7,14.82,32.55,18.88,38.72Z"/>
      <path class="cls-6" d="m277.36,229.1c-1.45-.64-3.15-1.14-5.89-1.14-7.21,0-7.21,3.53-14.43,3.53s-7.21-3.53-14.43-3.53-7.21,3.53-14.42,3.53-7.21-3.53-14.43-3.53-7.21,3.53-14.43,3.53-7.21-3.53-14.42-3.53-7.21,3.53-14.43,3.53-7.21-3.53-14.43-3.53-7.21,3.53-14.42,3.53-7.21-3.53-14.43-3.53c-2.73,0-4.42.5-5.87,1.13,2.96-5.29,6.82-13.9,13.07-27.25,11.19-23.88,5.46-40.06,19.1-63.94,12.04-21.07,39.63-24.58,45.81-25.11.01,0,.03,0,.04,0,6.18.53,33.77,4.04,45.81,25.11,13.64,23.88,7.91,40.06,19.1,63.94,6.26,13.36,10.12,21.98,13.08,27.27Z"/>
      <path class="cls-14" d="m226.55,241.38c-3.37.26-6.58-1.44-8.27-4.36-1.28-2.2-2.53-4.75-3.6-7.65-2.84-7.71-3.15-14.5-3.01-18.71h-27.12c.14,4.21-.17,11.01-3.01,18.71-1.04,2.82-2.25,5.3-3.48,7.46-1.68,2.94-4.91,4.63-8.28,4.37h0c4.2,12.31,15.85,21.16,29.58,21.16s25.38-8.85,29.58-21.16l-2.39.19Z"/>
      <path class="cls-8" d="m312.85,320.51c-4.88-16.17-11.92-28.14-17.22-35.78-5.41-7.77-14.49-18.9-28.25-28.62-15.43-10.91-30.08-15.36-39.27-17.33l-1.7.14c-5.2,2.35-14.89,5.92-27.49,5.83-12.13-.08-21.47-3.51-26.62-5.83l-1.7-.14c-9.2,1.97-23.84,6.41-39.27,17.33-13.76,9.73-22.84,20.85-28.25,28.62-5.31,7.64-12.34,19.61-17.22,35.78-5.59,18.5-5.99,34.65-5.51,44.82h238.01c.47-10.17.08-26.32-5.51-44.82Z"/>
      <path class="cls-1" d="m224.18,246.89c1.11-.47,2.16-.94,3.15-1.43"/>
      <path class="cls-1" d="m171.38,245.47c6.12,2.75,18.42,7.31,33.5,6.13"/>
      <g class="cls-19">
        <g>
          <rect class="cls-10" x="60.63" y="267.69" width="271.55" height="8"/>
          <rect class="cls-10" x="60.63" y="282.81" width="271.55" height="8"/>
          <rect class="cls-10" x="60.63" y="297.93" width="271.55" height="8"/>
          <rect class="cls-10" x="60.63" y="313.04" width="271.55" height="8"/>
          <rect class="cls-10" x="60.63" y="328.16" width="271.55" height="8"/>
          <rect class="cls-10" x="60.63" y="343.28" width="271.55" height="8"/>
          <rect class="cls-10" x="60.63" y="358.4" width="271.55" height="8"/>
        </g>
      </g>
      <path class="cls-17" d="m205.22,336.67l78.78,3.17c18.86.76,34.84,13.61,37.42,30.1h0c2.01,12.82-11.43,22.69-25.61,18.8l-95.1-26.11,4.5-25.95Z"/>
      <path class="cls-17" d="m191.75,336.67l-78.78,3.17c-18.86.76-34.84,13.61-37.42,30.1h0c-2.01,12.82,11.43,22.69,25.61,18.8l95.1-26.11-4.5-25.95Z"/>
      <path class="cls-12" d="m152.24,174.14c1.5,8.64,2.97,17.13-1.75,17.95s-13.87-6.34-15.37-14.98,1.12-16.3,5.85-17.12c4.73-.82,9.77,5.52,11.27,14.15Z"/>
      <path class="cls-12" d="m243.22,174.14c-1.5,8.64-2.97,17.13,1.75,17.95s13.87-6.34,15.37-14.98c1.5-8.64-1.12-16.3-5.85-17.12s-9.77,5.52-11.27,14.15Z"/>
      <ellipse class="cls-15" cx="199.35" cy="160.73" rx="55.15" ry="63.84"/>
      <path class="cls-16" d="m203.14,189.02c0,2.09-1.7,2-3.79,2s-3.79.09-3.79-2,1.7-3.79,3.79-3.79,3.79,1.7,3.79,3.79Z"/>
      <path class="cls-3" d="m209.66,199.31c-2.06,2.48-5.9,4.15-10.31,4.15s-8.25-1.67-10.31-4.15"/>
      <circle class="cls-16" cx="181.18" cy="171.51" r="3.01"/>
      <circle class="cls-16" cx="217.53" cy="171.51" r="3.01"/>
      <path class="cls-3" d="m185.23,156.86c-1.59-1.26-3.82-1.67-6.11-1.14-2.09.49-3.79,1.66-4.73,3.25"/>
      <path class="cls-7" d="m177.6,188.45c-.77,4.93-5.17,9.68-10.51,8.85-5.35-.83-9.61-6.93-8.85-11.85.77-4.93,5.45-6.54,10.8-5.71s9.33,3.79,8.56,8.71Z"/>
      <path class="cls-7" d="m220.87,188.45c.77,4.93,5.17,9.68,10.51,8.85,5.35-.83,9.61-6.93,8.85-11.85-.77-4.93-5.45-6.54-10.8-5.71-5.35.83-9.33,3.79-8.56,8.71Z"/>
      <path class="cls-3" d="m213.34,156.86c1.59-1.26,3.82-1.67,6.11-1.14,2.09.49,3.79,1.66,4.73,3.25"/>
      <path class="cls-18" d="m139.18,151.45c11.2,1.26,27.62,1.83,46.85-2.06,18.69-3.78,33.26-10.42,42.99-15.78,2.76,3.37,6.45,7.27,11.25,11.08,6.73,5.35,13.28,8.63,18.29,10.66.21-1.04.43-2.33.61-3.81.23-1.93.35-3.9.35-5.88,0-29.92-27.1-54.18-60.52-54.18s-59.83,30.04-59.83,59.96Z"/>
      <path class="cls-4" d="m220.77,116.66c-6.58,6.61-18.58,16.76-36.32,22.6-8.05,2.65-15.41,3.79-21.47,4.24"/>
      <path class="cls-4" d="m178.16,116.66c-6.13,6.15-16.95,15.38-32.74,21.34"/>
      <path class="cls-18" d="m169.77,132.72c-19.8,1.54-35.98,18.71-37.97,42.21-1.99,23.5,10.86,45.6,29.84,53.73-11.18-13.47-17.45-32.04-15.82-51.35,1.63-19.31,10.83-35.25,23.94-44.59Z"/>
      <path class="cls-11" d="m258.77,399.7h-118.83c-6.87,0-12.62-5.21-13.29-12.05l-8.22-83.63c-.73-7.46,5.13-13.92,12.62-13.92h136.62c7.49,0,13.35,6.46,12.62,13.92l-8.22,83.63c-.67,6.84-6.42,12.05-13.29,12.05Z"/>
      <g>
        <path class="cls-13" d="m209.71,337.82c-2.78-1.48-7.01.3-10.35,4.04-3.34-3.75-7.58-5.52-10.35-4.04-3.38,1.8-3.31,7.75.15,13.29,2.66,4.25,6.55,7.02,9.74,7.27,0,0,0,0,0,0,.1,0,.2.01.3.02.05,0,.11,0,.17,0,.06,0,.11,0,.17,0,.1,0,.2,0,.3-.02,0,0,0,0,0,0,3.19-.24,7.08-3.01,9.74-7.27,3.46-5.54,3.53-11.49.15-13.29Z"/>
        <path class="cls-13" d="m205.37,336.05c2.57-.66,4.53-2.12,5.01-3.58-1.13-1.05-3.54-1.38-6.12-.72s-4.53,2.12-5.01,3.58c1.13,1.05,3.54,1.38,6.12.72Z"/>
      </g>
    </g>
  </g>
</svg>