<?xml version="1.0" encoding="UTF-8"?>
<svg id="_レイヤー_2" data-name="レイヤー 2" xmlns="http://www.w3.org/2000/svg" viewBox="0 0 1200 193.73">
  <defs>
    <style>
      .cls-1 {
        fill: #ecebeb;
        stroke-width: 0px;
      }
    </style>
  </defs>
  <g id="_レイヤー_1-2" data-name="レイヤー 1">
    <g>
      <g>
        <path class="cls-1" d="m63.82,112.02c.95,2.23.26,5.34-1.81,8.52-1.19,1.84-3.02,3.91-4.96,5.77-.98.92-1.97,1.81-2.94,2.56-.97.75-1.91,1.4-2.75,1.86-.74.4-1.42.71-2.16.96-.74.25-1.53.45-2.5.63-1.23.22-2.24.52-3.31,1.01-1.08.49-2.24,1.16-3.74,2.18-.94.63-1.31.87-1.35.84-.03-.03-.82-.72-1.76-1.55-.94-.82-2.77-2.4-4.08-3.51-.65-.55-1.26-1.06-1.7-1.43-.44-.37-.72-.62-.74-.64-.08-.12.17-1.09.45-1.76.34-.81.99-1.93,1.7-2.95.39-.56.83-1.15,1.31-1.76.49-.6,1.02-1.23,1.57-1.86,1.11-1.27,2.36-2.55,3.62-3.76,1.26-1.21,2.55-2.33,3.74-3.29,1.2-.95,2.31-1.73,3.21-2.24,4.51-2.53,7.44-3.68,10.01-4.03,1.58-.21,2.97-.09,4.17.35,1.2.44,2.2,1.2,2.97,2.26.34.47.75,1.21,1.03,1.85Z"/>
        <path class="cls-1" d="m46.12,165.38c.42.93.63,1.78.67,2.64.12,2.79-1.43,5.53-4.83,8.78-1.04.98-2.83,2.55-3.45,2.99-1.66,1.2-4.08,2.56-6.59,3.8-2.51,1.24-5.13,2.36-7.2,3.02-1.88.59-3.59.86-4.54.69l-.25-.05-.34-.64c-.18-.35-.67-1.28-1.08-2.07-.77-1.48-3.15-6.06-3.44-6.59-.14-.24-.15-.33-.1-.43.04-.07.54-.53,1.11-1.03,1.52-1.31,2.59-2.4,3.41-3.47.48-.63.77-1.12,1.31-2.17.51-.99.78-1.45,1.19-2,1.56-2.11,3.77-3.74,7.79-5.61,4.06-1.89,7.91-2.62,10.75-2.14,1.62.27,3.1,1,3.98,1.93.41.44,1.41,1.88,1.63,2.36Z"/>
        <path class="cls-1" d="m35.56,139.47s-.11.31-.26.68c-1.95,4.47-4.79,7.64-7.95,8.74-2.13.75-4.21.52-5.79-.63-.55-.4-1.33-1.41-1.58-2.06-.24-.64-.42-1.63-.41-2.32.02-1.38.45-2.88,1.24-4.43.8-1.53,1.96-3.11,3.46-4.62.7-.7,1.57-1.52,1.99-1.85l.28-.22,1.01.74c.55.41,1.91,1.42,2.99,2.24,2.23,1.7,3.39,2.57,4.34,3.24.36.26.66.47.67.49Z"/>
        <path class="cls-1" d="m11.34,179.38s.06.13.15.33c.09.2.2.47.33.76.5,1.16.95,2.14,2.42,5.19.53,1.09,1.16,2.41,1.41,2.92l.45.94-.27.2c-2.85,2.11-5.46,3.39-7.93,3.85-1.77.33-3.59.16-4.91-.49-.68-.34-.94-.53-1.53-1.13-.49-.51-.6-.64-.82-1.06-.14-.26-.32-.7-.41-.97-.58-1.83-.12-3.88,1.3-5.77.45-.59,1.55-1.62,2.24-2.09,1.92-1.3,4.24-2.17,7.06-2.62.26-.04.49-.06.5-.06Z"/>
      </g>
      <g>
        <path class="cls-1" d="m170.48,75.58c.02,1.22-.43,2.48-1.28,3.72-.85,1.24-2.1,2.41-3.67,3.54-.9.64-1.98,1.27-3.14,1.87-1.16.6-2.4,1.2-3.66,1.71-.63.26-1.26.49-1.87.72-.62.23-1.23.44-1.82.63-1.18.37-2.3.63-3.26.77-1.68.26-3,.21-4.97-.13-1.24-.2-2.29-.26-3.49-.17-.6.05-1.23.12-1.93.26-.7.14-1.48.32-2.37.54-1.11.28-1.54.38-1.57.34-.02-.04-.54-.96-1.15-2.05-.61-1.09-1.83-3.18-2.7-4.65-.44-.74-.84-1.41-1.14-1.91-.3-.5-.48-.82-.49-.84-.04-.14.53-.98,1.04-1.53.61-.66,1.63-1.49,2.67-2.23,1.14-.79,2.53-1.66,4.06-2.46,1.53-.81,3.18-1.64,4.84-2.32.83-.35,1.65-.68,2.46-.99.4-.15.8-.3,1.19-.44.39-.14.78-.26,1.15-.38,1.51-.47,2.86-.82,3.92-.99,1.32-.2,2.52-.33,3.61-.44,1.09-.1,2.07-.17,2.97-.17,1.8,0,3.26.14,4.55.44,3.18.77,5.15,2.52,5.8,5.06.14.56.24,1.4.26,2.1Z"/>
        <path class="cls-1" d="m135.36,119.35c.1,1.01.04,1.89-.19,2.71-.37,1.34-1.12,2.53-2.3,3.61-.59.55-1.28,1.09-2.08,1.6-.8.51-1.72,1-2.75,1.51-1.25.61-3.39,1.5-4.09,1.74-.95.31-2.09.59-3.33.85-1.24.27-2.58.51-3.94.7-1.36.22-2.73.39-4.04.5-1.3.12-2.53.2-3.61.2-.49,0-.96-.02-1.4-.05-.45-.03-.87-.07-1.25-.13-.77-.12-1.41-.29-1.84-.51l-.22-.12-.14-.71c-.07-.39-.27-1.42-.43-2.3-.3-1.64-1.25-6.71-1.37-7.31-.06-.27-.05-.36.03-.44.06-.06.67-.35,1.36-.65,1.83-.79,3.16-1.53,4.26-2.29.64-.45,1.07-.83,1.88-1.68.78-.8,1.17-1.14,1.72-1.54,1.06-.76,2.22-1.39,3.69-1.85,1.46-.47,3.19-.84,5.39-1.09,1.1-.13,2.17-.21,3.19-.21,1.02,0,2,.07,2.91.18,1.82.22,3.42.73,4.67,1.41,1.43.78,2.58,1.94,3.11,3.1.25.55.73,2.23.78,2.75Z"/>
        <path class="cls-1" d="m133.79,91.44s-.21.26-.47.55c-.84.88-1.7,1.7-2.57,2.41-.87.7-1.76,1.3-2.64,1.78-1.76,1-3.54,1.51-5.21,1.54-2.26.05-4.18-.82-5.33-2.42-.4-.55-.82-1.76-.86-2.45-.03-.69.12-1.67.35-2.33.47-1.31,1.36-2.61,2.63-3.83,1.27-1.21,2.91-2.33,4.86-3.31.91-.44,2.02-.92,2.54-1.11l.35-.12.72,1.02c.39.57,1.35,1.95,2.11,3.09,1.57,2.34,2.38,3.55,3.06,4.49.25.36.47.66.47.68Z"/>
        <path class="cls-1" d="m98.41,121.92s.02.14.05.36c.02.21.06.51.09.82.15,1.26.29,2.33.81,5.67.19,1.2.42,2.64.51,3.2l.16,1.02-.31.11c-3.32,1.18-6.18,1.65-8.69,1.38-1.8-.21-3.49-.88-4.57-1.88-.55-.52-.75-.78-1.13-1.52-.32-.63-.38-.79-.48-1.25-.06-.29-.1-.76-.11-1.05,0-.96.24-1.9.74-2.78.5-.87,1.23-1.67,2.18-2.37.6-.45,1.95-1.1,2.75-1.35,2.21-.7,4.69-.84,7.49-.46.26.04.49.08.49.1Z"/>
      </g>
      <g>
        <path class="cls-1" d="m283.17,92.1c-1.12,2.16-3.92,3.6-7.69,4.01-1.08.11-2.31.15-3.61.1-1.29-.05-2.65-.15-3.98-.32-1.33-.18-2.65-.4-3.85-.67-1.2-.28-2.3-.6-3.2-.96-.79-.32-1.45-.66-2.12-1.07-.67-.41-1.33-.9-2.1-1.54-.96-.81-1.85-1.39-2.93-1.92-.54-.26-1.13-.51-1.81-.75-.68-.24-1.45-.47-2.33-.73-1.11-.32-1.54-.45-1.54-.5,0-.04.01-1.09.03-2.34.01-1.25,0-3.68-.03-5.39-.02-.86-.03-1.65-.04-2.23,0-.58-.01-.95,0-.98.04-.14.96-.57,1.69-.79.87-.25,2.2-.49,3.48-.58,1.4-.11,3.06-.14,4.8-.07.87.04,1.77.08,2.67.16.9.08,1.8.17,2.69.28.45.05.89.11,1.33.17.43.07.86.14,1.28.21.84.14,1.65.3,2.42.46,1.52.33,2.83.71,3.82,1.1,2.42.97,4.32,1.83,5.82,2.68.75.42,1.42.84,2.01,1.26.59.42,1.1.85,1.57,1.29.57.54,1.05,1.1,1.43,1.67.38.57.67,1.16.87,1.76.4,1.2.44,2.44.11,3.72-.15.56-.46,1.34-.78,1.97Z"/>
        <path class="cls-1" d="m231.43,112.76c-.4.93-.87,1.66-1.45,2.27-.95.99-2.14,1.68-3.62,2.08-.74.21-1.56.36-2.46.43-.45.04-.92.05-1.41.06-.49.01-1.01.01-1.55,0-.65-.02-1.52-.1-2.31-.15-.79-.06-1.51-.13-1.85-.19-.92-.18-1.99-.41-3.13-.74-.57-.16-1.16-.36-1.77-.53-.6-.18-1.22-.38-1.83-.59-1.22-.44-2.46-.86-3.61-1.32-.58-.23-1.13-.48-1.66-.7-.53-.23-1.03-.45-1.49-.68-.83-.41-1.58-.87-2.2-1.31-.62-.43-1.1-.85-1.38-1.23l-.14-.2.17-.71c.1-.39.35-1.4.56-2.27.41-1.61,1.67-6.61,1.82-7.2.06-.27.11-.35.21-.39.08-.03.74-.03,1.48,0,1.95.05,3.44.01,4.73-.22.76-.13,1.3-.29,2.38-.67,1.03-.36,1.53-.5,2.19-.61,2.54-.43,5.21-.02,9.25,1.54,1.02.41,1.97.85,2.86,1.32.88.48,1.69,1.01,2.42,1.55,1.46,1.06,2.59,2.28,3.33,3.48.85,1.36,1.26,2.95,1.15,4.22-.05.6-.46,2.3-.67,2.78Z"/>
        <path class="cls-1" d="m243.79,87.68s-.31.13-.69.25c-4.72,1.42-9.01,1.46-12.01-.13-2.03-1.05-3.32-2.74-3.59-4.68-.1-.68.11-1.94.41-2.56.31-.62.92-1.43,1.44-1.89,1.05-.92,2.5-1.62,4.24-2.08.87-.22,1.81-.37,2.82-.46,1.01-.09,2.08-.11,3.19-.04,1.04.07,2.27.19,2.83.28l.37.07.13,1.25c.07.69.22,2.38.33,3.74.22,2.81.33,4.26.45,5.41.04.44.08.81.08.82Z"/>
        <path class="cls-1" d="m198.46,98.34s-.04.14-.11.35c-.07.2-.16.48-.26.79-.38,1.2-.7,2.22-1.58,5.49-.31,1.17-.69,2.58-.83,3.13l-.26,1-.31-.03c-.84-.07-1.64-.2-2.4-.31-.76-.12-1.48-.28-2.16-.46-.68-.18-1.32-.42-1.93-.66-.61-.24-1.17-.52-1.71-.83-1.52-.89-2.78-2.22-3.37-3.54-.3-.69-.38-1.01-.44-1.84-.05-.71-.05-.87.05-1.34.06-.29.2-.74.31-1.01.72-1.78,2.38-3.03,4.66-3.57.72-.16,2.21-.21,3.03-.12.57.07,1.14.17,1.72.3.57.15,1.15.34,1.72.56s1.15.48,1.73.78c.58.3,1.16.63,1.75,1.03.22.15.4.28.4.29Z"/>
      </g>
      <g>
        <path class="cls-1" d="m381.33,123.58c-.29,1.17-1,2.3-2.06,3.25-1.06.95-2.49,1.76-4.2,2.36-.98.34-2.12.59-3.34.79-.61.1-1.24.18-1.87.25-.64.06-1.28.1-1.92.12-1.28.04-2.56.03-3.73-.09-1.17-.12-2.24-.3-3.13-.56-1.55-.45-2.66-1.06-4.18-2.19-.95-.71-1.8-1.26-2.82-1.71-.51-.23-1.07-.44-1.71-.64-.63-.22-1.35-.43-2.17-.66-1.03-.28-1.43-.41-1.43-.46,0-.04.04-1.09.09-2.33.05-1.24.14-3.66.2-5.36.03-.85.06-1.63.09-2.21.03-.57.05-.94.05-.96.04-.14.87-.58,1.49-.81.75-.26,1.89-.54,2.98-.71,1.19-.18,2.58-.29,4.05-.38.73-.04,1.48-.06,2.24-.07.75-.01,1.52-.03,2.26-.02.75,0,1.49.03,2.2.06.71.03,1.4.06,2.05.11,1.29.1,2.42.28,3.28.47,1.06.26,2.01.52,2.87.78.86.26,1.63.5,2.32.76,1.38.52,2.47,1.09,3.4,1.73,1.14.79,1.99,1.74,2.55,2.81.56,1.07.83,2.26.78,3.57-.02.58-.15,1.41-.31,2.09Z"/>
        <path class="cls-1" d="m330.55,148.09c-.52.88-1.11,1.55-1.85,2.07-1.19.84-2.67,1.32-4.51,1.42-.92.05-1.94.02-3.04-.12-1.1-.14-2.3-.37-3.61-.69-1.58-.39-4.18-1.19-4.99-1.52-1.07-.44-2.3-1.04-3.59-1.73-1.28-.7-2.62-1.5-3.94-2.34-1.3-.85-2.59-1.74-3.76-2.62-1.16-.88-2.22-1.75-3.08-2.55-1.54-1.45-2.68-2.91-2.99-3.85l-.08-.25.43-.59c.24-.32.87-1.17,1.4-1.88,1.01-1.34,4.06-5.52,4.4-6.03.16-.23.23-.29.34-.29.09,0,.75.24,1.48.54,1.94.76,3.46,1.22,4.84,1.43.81.13,1.4.16,2.61.12,1.15-.03,1.7-.02,2.39.07,1.35.16,2.66.52,4.13,1.14.73.31,1.5.69,2.34,1.14.83.45,1.73.97,2.7,1.58,3.94,2.44,6.93,5.23,8.34,7.85.81,1.5,1.17,3.13.96,4.4-.1.6-.67,2.25-.93,2.71Z"/>
        <path class="cls-1" d="m344.81,123.97s-.3.12-.66.23c-4.52,1.3-8.73.92-11.34-1.03-1.77-1.3-2.69-3.15-2.57-5.1.04-.68.46-1.88.85-2.45.39-.56,1.08-1.26,1.63-1.65,1.1-.77,2.49-1.3,4.07-1.57.79-.14,1.63-.2,2.52-.21.88-.01,1.8.04,2.76.16.89.12,1.94.28,2.41.39l.31.08v1.24c-.01.68-.03,2.36-.04,3.71-.02,2.8,0,4.24.04,5.39.01.44.03.8.03.82Z"/>
        <path class="cls-1" d="m298.26,124.67s-.09.11-.23.28c-.14.16-.34.39-.55.63-.83.96-1.52,1.79-3.66,4.43-.77.94-1.7,2.08-2.06,2.53l-.66.81-.31-.17c-3.36-1.75-5.74-3.66-7.27-5.76-1.1-1.52-1.71-3.27-1.66-4.74.03-.76.1-1.08.42-1.85.27-.66.35-.8.65-1.17.19-.23.52-.57.74-.76,1.46-1.25,3.56-1.65,5.89-1.12.73.17,2.15.75,2.88,1.18,2.03,1.21,3.84,2.94,5.55,5.29.16.22.29.42.28.43Z"/>
      </g>
      <g>
        <path class="cls-1" d="m483.45,121.76c.09,2.42-1.56,5.05-4.56,7.2-1.73,1.19-4.14,2.34-6.6,3.21-1.23.44-2.46.8-3.63,1.07-1.16.27-2.26.45-3.2.47-1.64.04-2.9-.16-4.73-.74-2.3-.74-3.97-.86-7.45-.55-1.08.09-1.5.09-1.52.05-.01-.04-.34-1.04-.72-2.22-.39-1.18-1.14-3.48-1.67-5.1-.26-.81-.51-1.55-.69-2.1-.18-.55-.29-.9-.29-.92-.01-.14.62-.85,1.15-1.28.63-.52,1.62-1.15,2.63-1.68,2.22-1.19,5.32-2.41,8.32-3.36,1.5-.48,2.98-.87,4.32-1.19,1.33-.33,2.52-.55,3.45-.62,2.31-.17,4.16-.22,5.72-.13.78.04,1.49.12,2.14.23.65.11,1.26.26,1.82.42,2.77.83,4.55,2.58,5.2,5.12.14.56.25,1.4.28,2.1Z"/>
        <path class="cls-1" d="m443.06,161.34c-.18,1.01-.49,1.85-.99,2.59-.8,1.21-2.02,2.16-3.69,2.91-.84.37-1.79.7-2.87.97-1.08.28-2.29.46-3.62.62-1.62.19-4.35.38-5.24.34-4.71-.1-12.63-1.84-17.11-3.73-2.03-.86-3.65-1.88-4.28-2.66l-.16-.21.23-.7c.13-.38.46-1.39.73-2.24.53-1.59,2.07-6.54,2.22-7.13.07-.27.12-.35.23-.38.08-.03.8,0,1.6.02,2.11.06,3.73-.03,5.11-.29.82-.15,1.39-.34,2.52-.79,1.08-.43,1.6-.6,2.29-.76.66-.16,1.34-.26,2.04-.33.71-.07,1.45-.09,2.25-.05,1.6.06,3.43.35,5.69.78,4.56.92,8.32,2.43,10.56,4.42,1.28,1.13,2.18,2.52,2.42,3.78.12.59.16,2.34.08,2.86Z"/>
        <path class="cls-1" d="m448.01,133.76s-.24.22-.55.45c-3.82,2.79-7.9,3.91-11.03,3-1.06-.3-1.97-.79-2.68-1.44-.72-.66-1.24-1.48-1.53-2.42-.21-.65-.23-1.92-.07-2.59.17-.66.57-1.56.95-2.11.76-1.1,1.87-2.1,3.27-2.91,1.39-.82,3.07-1.44,4.96-1.91.88-.21,1.94-.42,2.42-.47l.32-.04.43,1.16c.24.64.81,2.22,1.28,3.49.96,2.63,1.48,3.96,1.92,5.03.17.41.31.74.31.76Z"/>
        <path class="cls-1" d="m404.39,150.52s-.05.14-.13.34c-.08.2-.2.48-.32.77-.49,1.18-.87,2.18-2.1,5.36-.44,1.14-.98,2.51-1.2,3.04l-.39.97-.37-.06c-.98-.16-1.91-.33-2.78-.55-.87-.23-1.69-.48-2.46-.76-1.53-.57-2.84-1.22-3.94-2.04-1.58-1.15-2.73-2.68-3.11-4.11-.19-.74-.21-1.06-.12-1.89.09-.71.12-.87.32-1.31.12-.27.35-.69.52-.93,1.1-1.61,3.04-2.55,5.46-2.73.77-.06,2.32.08,3.15.28,1.17.29,2.33.68,3.5,1.22,1.17.54,2.35,1.24,3.56,2.08.22.16.41.3.41.31Z"/>
      </g>
      <g>
        <path class="cls-1" d="m585.69,99.41c.44,2.39-.85,5.22-3.53,7.78-1.54,1.48-3.77,2.97-6.07,4.21-1.15.62-2.32,1.17-3.44,1.62-1.11.45-2.17.78-3.1.96-1.61.31-2.89.32-4.8.04-1.2-.18-2.22-.23-3.36-.13-1.14.11-2.41.35-4.11.76-1.06.26-1.48.34-1.51.3-.02-.04-.51-.97-1.08-2.07-.58-1.1-1.72-3.24-2.51-4.74-.4-.75-.77-1.44-1.04-1.95-.27-.51-.44-.84-.44-.86-.03-.14.49-.95.95-1.46.55-.62,1.46-1.42,2.39-2.11,2.02-1.48,4.92-3.22,7.77-4.65,1.43-.72,2.84-1.36,4.13-1.88,1.29-.53,2.45-.94,3.38-1.15,4.58-1.06,7.43-1.34,9.82-1.01,2.92.42,4.96,1.89,5.98,4.31.22.53.45,1.35.58,2.03Z"/>
        <path class="cls-1" d="m552.19,144.88c0,1.02-.15,1.9-.49,2.71-.56,1.32-1.54,2.48-3,3.51-.73.52-1.58,1.01-2.55,1.47-.98.46-2.09.87-3.33,1.27-1.51.48-4.07,1.16-4.91,1.31-1.12.2-2.45.34-3.88.44-1.44.08-2.98.11-4.53.09-3.1-.04-6.2-.27-8.52-.7-2.1-.41-3.85-1.05-4.63-1.67l-.2-.17.06-.73c.03-.4.12-1.45.19-2.34.14-1.67.49-6.83.51-7.44,0-.28.04-.37.14-.42.08-.04.76-.19,1.54-.33,2.04-.39,3.57-.85,4.85-1.4.75-.33,1.27-.62,2.27-1.29.95-.64,1.42-.91,2.05-1.21,2.45-1.13,5.19-1.62,9.76-1.59,4.61.05,8.54.85,11.06,2.4,1.44.88,2.56,2.11,3.02,3.3.22.56.58,2.27.58,2.8Z"/>
        <path class="cls-1" d="m552.25,116.86s-.2.25-.47.53c-.83.86-1.69,1.63-2.57,2.26-.88.64-1.77,1.17-2.66,1.59-1.78.84-3.55,1.22-5.19,1.08-1.1-.1-2.09-.4-2.93-.91-.83-.52-1.51-1.22-1.97-2.08-.33-.6-.6-1.84-.56-2.53.04-.68.27-1.64.55-2.26,1.11-2.47,3.74-4.73,7.39-6.29.85-.36,1.88-.75,2.36-.89l.32-.09.63,1.07c.35.59,1.19,2.03,1.88,3.2,1.41,2.41,2.15,3.65,2.78,4.62.23.37.43.68.44.7Z"/>
        <path class="cls-1" d="m512.82,141.95s-.02.15-.05.36c-.03.21-.08.51-.13.82-.2,1.25-.33,2.33-.76,5.7-.16,1.21-.35,2.67-.42,3.24l-.14,1.04-.36.03c-.96.08-1.87.13-2.75.12-.87-.01-1.7-.07-2.49-.16-1.57-.19-2.97-.53-4.21-1.03-1.77-.72-3.24-1.9-3.97-3.18-.37-.67-.47-.97-.6-1.8-.1-.71-.11-.87-.04-1.34.04-.29.16-.76.25-1.03.63-1.83,2.24-3.26,4.53-4.02.72-.24,2.25-.47,3.1-.49,1.19,0,2.4.1,3.65.35,1.25.25,2.55.64,3.9,1.18.25.1.47.2.47.21Z"/>
      </g>
      <g>
        <path class="cls-1" d="m689.42,69.76c.31,2.41-1.19,5.17-4.02,7.67-1.63,1.42-3.95,2.88-6.33,4.08-2.36,1.23-4.79,2.19-6.67,2.55-1.64.32-2.94.33-4.88.09-2.44-.31-4.15-.13-7.6.81-1.08.29-1.5.4-1.53.36-.02-.04-.54-.95-1.16-2.03-.62-1.08-1.84-3.17-2.71-4.64-.43-.73-.83-1.41-1.13-1.91-.29-.5-.48-.82-.48-.84-.04-.14.48-.97.95-1.51.56-.64,1.48-1.5,2.45-2.23,2.1-1.59,5.14-3.39,8.15-4.91,3.03-1.49,6.04-2.7,8-3.13,2.43-.55,4.43-.85,6.11-1,1.69-.14,3.07-.11,4.32.09,1.52.24,2.8.74,3.82,1.51,1.01.76,1.76,1.77,2.21,3,.2.54.39,1.37.48,2.06Z"/>
        <path class="cls-1" d="m656.18,115.34c.07,1.02-.02,1.9-.3,2.72-.45,1.34-1.31,2.54-2.63,3.64-1.32,1.1-3.1,2.08-5.41,3.04-1.4.58-3.78,1.42-4.57,1.62-2.1.53-5.03.95-8.01,1.18-2.97.23-5.98.27-8.28.07-2.07-.19-3.84-.63-4.66-1.16l-.21-.15-.03-.73c-.02-.4-.06-1.45-.09-2.34-.06-1.67-.3-6.84-.35-7.45-.02-.28,0-.37.09-.44.07-.05.73-.27,1.47-.5,1.97-.6,3.43-1.18,4.62-1.86.71-.4,1.18-.73,2.1-1.5.87-.72,1.31-1.04,1.9-1.4,2.29-1.38,4.98-2.05,9.48-2.36,4.53-.33,8.46.31,11.02,1.71,1.46.8,2.62,1.97,3.14,3.14.25.55.69,2.24.73,2.77Z"/>
        <path class="cls-1" d="m654.88,87.38s-.2.26-.46.55c-3.25,3.56-6.98,5.59-10.29,5.51-2.24-.05-4.09-1-5.14-2.65-.37-.57-.73-1.79-.74-2.49,0-.69.17-1.67.41-2.31.97-2.56,3.57-4.97,7.26-6.79.86-.42,1.92-.87,2.41-1.05l.33-.11.69,1.04c.38.57,1.3,1.98,2.06,3.12,1.53,2.35,2.33,3.55,3,4.5.25.36.46.66.47.68Z"/>
        <path class="cls-1" d="m617.54,115.57s0,.15,0,.36c0,.22-.02.51-.03.83-.04,1.27-.05,2.35-.06,5.74,0,1.22-.01,2.68-.02,3.26v1.04s-.36.07-.36.07c-3.7.74-6.78.77-9.32.09-1.82-.49-3.42-1.48-4.31-2.66-.46-.61-.6-.91-.83-1.71-.2-.69-.22-.85-.22-1.32,0-.3.05-.77.11-1.05.37-1.89,1.78-3.5,3.93-4.56.68-.33,2.15-.76,2.99-.89,2.34-.33,4.85-.12,7.64.64.26.07.48.14.49.16Z"/>
      </g>
      <g>
        <path class="cls-1" d="m799.66,57.45c-.15,1.21-.76,2.39-1.76,3.48-.5.55-1.09,1.07-1.77,1.56-.68.49-1.45.97-2.3,1.4-3.91,1.99-10.48,3.4-14.33,3.34-1.68-.06-2.96-.34-4.81-1.04-2.34-.91-4.06-1.05-7.68-.86-1.13.06-1.57.07-1.59.02-.01-.04-.33-1.04-.71-2.23-.38-1.19-1.15-3.49-1.7-5.12-.28-.81-.53-1.56-.72-2.11-.19-.55-.3-.9-.3-.93-.01-.14.7-.84,1.29-1.27.71-.51,1.84-1.14,2.97-1.65,1.24-.56,2.72-1.12,4.33-1.65.4-.13.81-.26,1.22-.39.41-.12.83-.23,1.25-.34.84-.22,1.7-.43,2.55-.62,1.7-.38,3.37-.7,4.88-.92.75-.11,1.47-.19,2.12-.25.65-.06,1.25-.09,1.77-.06,5.14.19,8.22.66,10.6,1.65.36.15.71.31,1.03.49.32.18.62.37.9.58.56.41,1.04.86,1.44,1.35.8.99,1.27,2.14,1.4,3.45.05.57.04,1.42-.05,2.11Z"/>
        <path class="cls-1" d="m757.23,94.28c-.12,1.01-.37,1.85-.78,2.6-.66,1.23-1.68,2.21-3.11,3.03-1.42.85-3.26,1.51-5.55,2.02-.7.16-1.63.33-2.49.47-.43.07-.84.13-1.19.18-.35.06-.64.1-.83.12-2.04.2-4.83.13-7.64-.12-1.41-.14-2.82-.26-4.14-.45-1.33-.18-2.57-.4-3.64-.66-1.92-.46-3.55-1.15-4.28-1.78l-.19-.17.05-.73c.03-.4.1-1.45.16-2.33.12-1.66.46-6.8.48-7.41,0-.28.04-.36.14-.42.07-.04.74-.18,1.49-.3,1.98-.33,3.47-.72,4.72-1.23.74-.3,1.24-.58,2.24-1.19.95-.58,1.42-.83,2.05-1.08,1.22-.5,2.5-.82,4.04-.96.77-.07,1.6-.1,2.51-.08.91.02,1.92.11,3.02.23,2.23.25,4.26.69,6.01,1.31.88.31,1.68.65,2.4,1.05.72.41,1.36.85,1.91,1.32,1.25,1.08,2.15,2.46,2.42,3.71.13.59.24,2.33.18,2.86Z"/>
        <path class="cls-1" d="m761.46,66.59s-.25.22-.57.45c-1.98,1.44-3.99,2.47-5.91,3.05-.96.29-1.9.47-2.8.53-.45.03-.9.03-1.33,0-.43-.02-.85-.07-1.26-.15-2.21-.44-3.88-1.69-4.64-3.5-.27-.63-.41-1.89-.3-2.58.12-.68.47-1.61.84-2.2.73-1.18,1.86-2.26,3.33-3.18.73-.47,1.56-.86,2.45-1.23.89-.36,1.86-.67,2.89-.94.96-.24,2.12-.49,2.66-.56l.36-.05.48,1.15c.27.63.91,2.19,1.42,3.45,1.04,2.6,1.59,3.94,2.06,5,.17.4.32.74.32.76Z"/>
        <path class="cls-1" d="m720.12,88.36s-.02.15-.04.36c-.03.21-.07.51-.12.83-.17,1.25-.3,2.33-.64,5.7-.12,1.21-.27,2.66-.32,3.23l-.11,1.03-.34.03c-1.79.16-3.42.16-4.9,0-1.48-.13-2.81-.41-4.01-.86-1.71-.64-3.19-1.76-3.97-3.01-.4-.65-.52-.95-.7-1.77-.15-.7-.16-.86-.13-1.34.02-.3.1-.76.18-1.04.49-1.85,1.99-3.35,4.2-4.22.7-.27,2.18-.59,3.02-.61,2.34-.08,4.78.39,7.42,1.45.25.1.45.2.46.21Z"/>
      </g>
      <g>
        <path class="cls-1" d="m907.55,65.47c-.45,2.39-2.68,4.58-6.11,6-3.94,1.63-10.53,2.5-14.28,1.91-1.63-.26-2.84-.69-4.56-1.61-2.16-1.16-3.8-1.59-7.33-1.93-1.1-.11-1.53-.16-1.54-.21,0-.04-.16-1.08-.34-2.31-.19-1.23-.56-3.62-.84-5.31-.14-.84-.26-1.62-.36-2.19-.09-.57-.15-.94-.14-.96.01-.14.79-.73,1.42-1.06.75-.4,1.9-.86,3.04-1.2,4.97-1.49,13.6-2.45,17.44-1.95,4.77.63,7.58,1.37,9.71,2.55,2.61,1.45,4,3.55,4.08,6.17.01.58-.06,1.42-.19,2.11Z"/>
        <path class="cls-1" d="m860.75,96.79c-.31.97-.72,1.76-1.28,2.42-1.83,2.16-4.98,3.19-9.94,3.27-1.51.02-4.01-.06-4.81-.16-2.14-.27-4.97-.94-7.78-1.8-2.8-.85-5.57-1.89-7.59-2.88-1.82-.9-3.28-1.93-3.84-2.72l-.15-.21.22-.69c.12-.38.45-1.38.72-2.23.52-1.59,2.08-6.51,2.25-7.1.08-.27.13-.35.23-.38.08-.02.77,0,1.54.05,2.03.13,3.59.11,4.94-.09.8-.12,1.36-.26,2.48-.65,1.07-.36,1.59-.5,2.27-.62,1.31-.23,2.65-.26,4.2-.06,1.55.2,3.31.63,5.45,1.3,4.33,1.36,7.76,3.37,9.63,5.62,1.07,1.28,1.73,2.8,1.78,4.08.03.6-.17,2.34-.33,2.84Z"/>
        <path class="cls-1" d="m869.72,70.26s-.28.17-.62.35c-4.3,2.15-8.52,2.66-11.56,1.38-2.06-.86-3.43-2.42-3.82-4.34-.14-.67-.02-1.94.22-2.59.25-.64.77-1.49,1.23-1.99,1.84-2.03,5.14-3.33,9.22-3.67.95-.07,2.09-.12,2.61-.1h.35s.27,1.23.27,1.23c.14.67.49,2.31.77,3.65.57,2.74.88,4.16,1.16,5.28.1.43.19.79.19.8Z"/>
        <path class="cls-1" d="m824.84,83.06s-.05.14-.13.34c-.08.2-.19.47-.31.77-.47,1.17-.85,2.18-2.01,5.37-.41,1.14-.91,2.52-1.11,3.06l-.36.98-.34-.05c-1.81-.29-3.41-.67-4.83-1.17-1.42-.5-2.65-1.13-3.7-1.86-1.51-1.05-2.67-2.49-3.11-3.9-.23-.73-.27-1.05-.24-1.88.03-.71.06-.87.21-1.32.1-.28.29-.71.43-.96.94-1.67,2.77-2.77,5.13-3.04.74-.08,2.26,0,3.09.16,2.29.46,4.56,1.53,6.89,3.2.22.16.4.3.4.31Z"/>
      </g>
      <g>
        <path class="cls-1" d="m1012.59,69.91c-.16,2.41-2.07,4.87-5.28,6.65-1.84,1.01-4.36,1.93-6.9,2.52-2.53.59-5.08.92-6.95.78-1.63-.12-2.87-.45-4.63-1.22-2.21-.97-3.86-1.3-7.36-1.37-1.09-.02-1.52-.06-1.53-.1,0-.04-.23-1.07-.49-2.29-.27-1.22-.79-3.58-1.16-5.24-.19-.83-.36-1.6-.48-2.16-.12-.56-.2-.92-.2-.95,0-.14.72-.78,1.3-1.15.7-.45,1.78-.97,2.86-1.4,4.69-1.84,12.88-3.49,16.59-3.39,1.15.04,2.19.11,3.14.19.94.07,1.79.17,2.56.29,1.54.24,2.77.59,3.86,1.07,2.65,1.14,4.23,3.06,4.61,5.66.08.57.1,1.42.06,2.11Z"/>
        <path class="cls-1" d="m968.51,105.04c-.26.99-.65,1.79-1.19,2.48-.89,1.13-2.14,1.99-3.81,2.59-1.67.6-3.77.97-6.35,1.08-1.56.07-4.18.05-5.02-.03-2.24-.21-5.21-.85-8.15-1.66-2.93-.84-5.83-1.86-7.93-2.86-1.89-.91-3.41-1.96-3.99-2.75l-.15-.21.23-.69c.13-.38.47-1.38.76-2.22.55-1.58,2.17-6.5,2.34-7.08.08-.27.13-.34.24-.38.08-.02.78,0,1.56.06,2.06.15,3.65.1,5.02-.11.81-.12,1.37-.27,2.51-.67,1.08-.37,1.6-.52,2.29-.65,2.65-.5,5.41-.19,9.8,1.02,2.21.62,4.21,1.38,5.91,2.27,1.7.89,3.09,1.9,4.1,2.97,1.15,1.22,1.91,2.71,2.03,3.98.06.6-.05,2.35-.18,2.86Z"/>
        <path class="cls-1" d="m976.03,78.06s-.26.19-.59.39c-2.06,1.22-4.13,1.98-6.07,2.32-.97.17-1.91.23-2.8.18-.89-.06-1.72-.23-2.49-.52-2.08-.78-3.49-2.28-3.94-4.18-.16-.66-.09-1.94.13-2.59.22-.65.7-1.52,1.13-2.04.86-1.05,2.08-1.94,3.58-2.63.75-.34,1.57-.64,2.44-.88.88-.25,1.81-.44,2.8-.58.92-.12,2.02-.23,2.52-.24h.34s.32,1.2.32,1.2c.18.66.61,2.28.96,3.6.71,2.7,1.1,4.09,1.44,5.2.13.42.24.77.24.79Z"/>
        <path class="cls-1" d="m931.48,92.02s-.05.14-.14.34c-.08.2-.2.47-.33.77-.5,1.17-.89,2.17-2.13,5.33-.44,1.13-.98,2.5-1.19,3.03l-.39.97-.35-.06c-3.74-.63-6.63-1.73-8.76-3.28-1.52-1.11-2.66-2.61-3.06-4.03-.2-.74-.23-1.06-.16-1.89.07-.71.1-.87.27-1.31.11-.28.33-.7.48-.94,1.03-1.63,2.92-2.64,5.31-2.84.75-.06,2.28.07,3.11.26,2.31.53,4.57,1.62,6.91,3.34.22.16.4.31.4.32Z"/>
      </g>
      <g>
        <path class="cls-1" d="m1113.27,53.78c.55,2.36-.55,5.21-3.07,7.82-.72.76-1.63,1.49-2.63,2.22-1,.72-2.1,1.42-3.22,2.06-.56.32-1.13.61-1.7.87-.57.26-1.13.51-1.68.73-1.1.43-2.14.76-3.05.94-.79.16-1.51.22-2.26.21-.75-.01-1.54-.1-2.47-.26-1.18-.21-2.18-.27-3.3-.2-1.13.05-2.38.26-4.06.62-1.05.23-1.46.3-1.49.26-.02-.04-.46-.98-.99-2.11-.53-1.12-1.57-3.31-2.3-4.84-.36-.77-.7-1.48-.95-2-.24-.52-.4-.86-.4-.88-.03-.14.5-.92.97-1.4.55-.58,1.44-1.37,2.34-2.02.98-.71,2.18-1.46,3.46-2.19,1.28-.75,2.65-1.5,4-2.17.68-.34,1.35-.65,2.01-.95.65-.31,1.29-.59,1.89-.84,1.21-.5,2.3-.88,3.17-1.07,1.08-.23,2.04-.46,2.93-.62.88-.17,1.69-.29,2.43-.37.74-.08,1.42-.11,2.06-.1.63,0,1.22.03,1.78.11,2.75.38,4.77,1.81,5.87,4.19.24.53.51,1.33.66,2.01Z"/>
        <path class="cls-1" d="m1079.35,98.79c-.05,1.02-.27,1.89-.67,2.68-.65,1.29-1.74,2.41-3.32,3.37-1.58.94-3.64,1.72-6.25,2.38-1.58.4-4.26.87-5.14.96-.58.06-1.22.1-1.89.13-.34.01-.68.02-1.04.03-.35,0-.72,0-1.09-.01-1.48-.03-3.05-.11-4.63-.25-1.58-.12-3.15-.34-4.61-.58-1.47-.25-2.83-.53-3.98-.84-2.09-.57-3.8-1.38-4.51-2.07l-.19-.19.13-.72c.07-.4.26-1.43.41-2.31.3-1.65,1.14-6.76,1.21-7.36.03-.28.07-.36.18-.41.08-.04.78-.12,1.57-.2,2.09-.21,3.66-.52,5-.96.78-.25,1.33-.5,2.39-1.1,1.01-.56,1.5-.8,2.16-1.05,1.27-.49,2.61-.76,4.2-.9,1.59-.14,3.44-.12,5.73.07,2.32.17,4.45.5,6.32,1.03,1.87.54,3.47,1.2,4.7,2.04,1.41.95,2.48,2.24,2.88,3.45.19.57.45,2.3.43,2.83Z"/>
        <path class="cls-1" d="m1080.8,70.79s-.21.24-.48.51c-.85.82-1.74,1.53-2.63,2.14-.9.6-1.81,1.08-2.71,1.45-.9.37-1.8.62-2.67.76-.87.14-1.72.15-2.52.02-2.18-.35-3.85-1.54-4.65-3.32-.28-.62-.47-1.88-.39-2.57.08-.68.37-1.62.68-2.22.62-1.2,1.6-2.31,2.88-3.27,1.28-.97,2.85-1.85,4.66-2.52.84-.31,1.87-.63,2.33-.76l.31-.08.57,1.1c.31.61,1.08,2.09,1.7,3.29,1.27,2.48,1.96,3.75,2.54,4.75.22.38.4.7.4.72Z"/>
        <path class="cls-1" d="m1039.75,92.95s-.03.14-.08.35c-.05.21-.13.5-.21.81-.32,1.23-.55,2.29-1.31,5.61-.28,1.19-.61,2.62-.74,3.18l-.24,1.02h-.37c-1.95-.05-3.7-.23-5.26-.55-1.56-.33-2.93-.82-4.11-1.44-1.7-.89-3.05-2.22-3.64-3.57-.3-.7-.37-1.02-.41-1.85-.03-.71-.02-.88.1-1.34.07-.29.24-.74.36-1,.82-1.76,2.57-3.01,4.93-3.54.37-.08.94-.14,1.53-.18.59-.04,1.18-.05,1.61-.02,1.19.09,2.39.33,3.61.71.61.19,1.24.42,1.87.68.63.25,1.27.55,1.92.87.24.12.45.24.45.25Z"/>
      </g>
      <g>
        <path class="cls-1" d="m1198.72,3.3c1.49,1.91,1.7,4.95.52,8.39-.71,1.93-2.02,4.2-3.53,6.28-.37.53-.78,1.01-1.18,1.48-.41.47-.82.92-1.23,1.34-.82.84-1.63,1.56-2.38,2.1-.33.23-.64.44-.97.62-.33.18-.65.34-1,.48-.69.29-1.44.52-2.36.75-1.16.28-2.09.61-3.08,1.13-.49.26-1.01.55-1.58.9-.57.35-1.18.77-1.87,1.26-.87.62-1.21.84-1.25.81-.03-.03-.81-.72-1.74-1.55-.93-.82-2.73-2.42-3.99-3.54-.63-.56-1.21-1.08-1.64-1.47-.43-.39-.7-.64-.71-.66-.04-.06-.02-.32.04-.63.06-.32.15-.71.26-1.03.26-.76.75-1.8,1.3-2.74.3-.51.64-1.05,1.02-1.61.19-.28.38-.56.59-.84.1-.14.21-.28.31-.43.1-.15.21-.3.31-.44.84-1.19,1.76-2.4,2.7-3.53.47-.57.95-1.11,1.41-1.64.46-.54.91-1.05,1.34-1.52.87-.94,1.7-1.71,2.39-2.23.88-.63,1.64-1.23,2.37-1.74.72-.51,1.39-.95,2.02-1.32,1.26-.75,2.39-1.21,3.45-1.54,2.62-.79,5.04-.33,7.04,1.38.44.38,1.02.99,1.44,1.55Z"/>
        <path class="cls-1" d="m1185.73,58.23c.34.96.46,1.85.38,2.75-.27,2.89-2.43,5.88-6.98,9.07-.69.49-1.62,1.12-2.49,1.68-.88.53-1.68,1-2.09,1.21-1.08.54-2.39,1.11-3.82,1.65-.36.13-.72.27-1.09.41-.37.13-.75.25-1.14.37-.77.24-1.55.48-2.34.7-1.58.44-3.16.85-4.67,1.15-1.51.28-2.94.49-4.17.6-1.11.1-2.15.12-3.02.06-.87-.05-1.59-.21-2.05-.41l-.24-.11-.11-.72c-.06-.4-.23-1.44-.37-2.32-.24-1.65-1.16-6.78-1.3-7.37-.06-.27-.05-.37.03-.45.06-.06.7-.39,1.43-.74.96-.46,1.79-.89,2.52-1.32.37-.21.71-.43,1.03-.64.32-.22.61-.44.89-.67.65-.53,1.08-.95,1.88-1.89.76-.88,1.14-1.28,1.68-1.75,1.04-.88,2.18-1.67,3.63-2.38.72-.35,1.52-.69,2.42-1.02.9-.33,1.9-.65,3-1.02,2.22-.73,4.36-1.2,6.32-1.41,1.93-.25,3.69-.24,5.16.06,1.68.34,3.19,1.11,4.03,2.08.4.46,1.3,1.95,1.48,2.45Z"/>
        <path class="cls-1" d="m1176.28,31.83s-.1.3-.24.65c-.46,1.07-1,2.07-1.58,2.97-.59.9-1.22,1.72-1.92,2.39-1.39,1.35-2.92,2.28-4.48,2.67-.26.07-.53.12-.79.15-.26.03-.52.04-.78.04-.51,0-1-.06-1.47-.18-.94-.24-1.79-.7-2.49-1.38-.49-.47-1.13-1.57-1.32-2.24-.18-.66-.27-1.64-.21-2.3.06-.66.21-1.34.44-2.02.12-.34.26-.67.41-1.02.15-.35.33-.69.52-1.04.78-1.38,1.88-2.75,3.26-4.02.16-.15.33-.3.5-.45.17-.15.34-.31.5-.45.32-.29.61-.53.8-.68l.25-.19.94.8c.52.44,1.79,1.52,2.83,2.39,2.13,1.8,3.26,2.71,4.17,3.41.35.27.64.49.65.51Z"/>
        <path class="cls-1" d="m1146.04,67.32s.02.15.04.36c.02.22.04.51.07.83.1,1.27.22,2.34.57,5.74.13,1.22.27,2.69.32,3.27l.09,1.05-.36.12c-.95.33-1.88.56-2.76.77-.89.2-1.74.35-2.55.45-1.63.2-3.1.22-4.46-.02-1.94-.32-3.66-1.16-4.65-2.27-.51-.58-.67-.85-.96-1.64-.24-.67-.28-.83-.31-1.31-.01-.3,0-.78.04-1.06.13-.96.52-1.88,1.14-2.7.31-.41.68-.8,1.1-1.17.21-.18.43-.36.67-.53.23-.17.48-.34.74-.5.66-.4,2.1-.99,2.94-1.2,1.17-.29,2.4-.43,3.69-.49,1.29-.06,2.65,0,4.12.2.27.04.51.08.51.09Z"/>
      </g>
    </g>
  </g>
</svg>