<?xml version="1.0" encoding="UTF-8"?>
<svg id="_レイヤー_2" data-name=" レイヤー 2" xmlns="http://www.w3.org/2000/svg" viewBox="0 0 472.57 230.79">
  <defs>
    <style>
      .cls-1 {
        font-size: 7.78px;
      }

      .cls-1, .cls-2, .cls-3 {
        fill: #14274c;
      }

      .cls-1, .cls-4, .cls-5, .cls-6, .cls-3 {
        font-family: ZenMaruGothic-Regular, 'Zen Maru Gothic';
      }

      .cls-7 {
        stroke: #fff;
      }

      .cls-7, .cls-8, .cls-9, .cls-10 {
        fill: none;
      }

      .cls-7, .cls-9, .cls-10 {
        stroke-miterlimit: 10;
      }

      .cls-2, .cls-11, .cls-12, .cls-8, .cls-13, .cls-14 {
        stroke-width: 0px;
      }

      .cls-15, .cls-4, .cls-6 {
        isolation: isolate;
      }

      .cls-12 {
        fill: #d93b2b;
      }

      .cls-13, .cls-5 {
        fill: #fff;
      }

      .cls-4 {
        fill: #f5f4f1;
        font-size: 16.59px;
      }

      .cls-5, .cls-3 {
        font-size: 5.83px;
      }

      .cls-9 {
        stroke: #231815;
      }

      .cls-9, .cls-10 {
        stroke-width: .5px;
      }

      .cls-6 {
        fill: #3c3133;
        font-size: 7.62px;
      }

      .cls-14 {
        fill: #87caf0;
      }

      .cls-10 {
        stroke: #000;
      }
    </style>
  </defs>
  <polyline class="cls-10" points="35.36 75.79 77.06 75.79 84.34 69.78 84.34 49.32 104.05 49.32 104.05 51.13 84.34 51.13"/>
  <polyline class="cls-10" points="84.34 69.72 136.29 69.72 136.29 49.26"/>
  <polyline class="cls-10" points="214.72 49.67 214.72 64.76 136.29 64.76"/>
  <line class="cls-10" x1="152.83" y1="64.76" x2="152.83" y2="49.54"/>
  <line class="cls-10" x1="170.71" y1="49.4" x2="170.71" y2="64.76"/>
  <line class="cls-10" x1="193.21" y1="49.62" x2="193.21" y2="64.76"/>
  <rect class="cls-14" x="0" y="172.4" width="472.57" height="58.38" rx="10.39" ry="10.39"/>
  <polyline class="cls-10" points="255.1 49.58 255.1 69.72 214.72 69.72 214.72 64.76"/>
  <polyline class="cls-10" points="255.1 69.72 255.1 74.69 345.43 74.69 345.43 49.58"/>
  <line class="cls-10" x1="312.34" y1="49.58" x2="312.34" y2="74.69"/>
  <line class="cls-10" x1="335.56" y1="49.58" x2="335.18" y2="74.69"/>
  <polyline class="cls-10" points="345.43 69.72 385.47 69.72 385.47 78.65 435.59 78.65"/>
  <polyline class="cls-10" points="435.59 86.93 386.81 86.93 386.81 113.74 435.59 113.74"/>
  <polyline class="cls-10" points="397.39 149.14 397.39 121.68 436.3 121.68"/>
  <polyline class="cls-10" points="35.36 121.68 74.24 121.68 74.24 147.87"/>
  <rect class="cls-11" x="140.92" y="131.71" width="11.08" height="2.81"/>
  <rect class="cls-11" x="156.23" y="131.71" width="11.08" height="2.81"/>
  <rect class="cls-11" x="306.8" y="130.39" width="11.08" height="2.81"/>
  <rect class="cls-11" x="306.8" y="135.5" width="11.08" height="2.81"/>
  <rect class="cls-11" x="306.8" y="140.61" width="11.08" height="2.81"/>
  <rect class="cls-11" x="156.23" y="136.57" width="11.08" height="2.81"/>
  <rect class="cls-11" x="156.23" y="141.43" width="11.08" height="2.81"/>
  <rect class="cls-11" x="140.92" y="136.57" width="11.08" height="2.81"/>
  <rect class="cls-11" x="140.92" y="141.43" width="11.08" height="2.81"/>
  <g>
    <path class="cls-8" d="m201.48,147.44l-1.48,2.52c1.49.96,3.03,1.87,4.62,2.7l1.34-2.59c-1.55-.82-3.04-1.69-4.48-2.63h0Z"/>
    <path class="cls-8" d="m187.47,142.01l-2.13,1.97c1.18,1.26,2.43,2.47,3.71,3.64l1.94-2.16c-1.22-1.11-2.42-2.26-3.54-3.45h0Z"/>
    <path class="cls-8" d="m194.44,135.56l-2.14,1.98c.96,1.08,1.99,2.11,3.05,3.11l1.95-2.16c-.99-.94-1.96-1.92-2.87-2.94h0Z"/>
    <path class="cls-8" d="m191.1,138.65l-2.14,1.98c1.06,1.17,2.2,2.28,3.37,3.36l1.95-2.16c-1.11-1.02-2.18-2.08-3.19-3.18h0Z"/>
    <path class="cls-8" d="m197.57,154.08c1.57.99,3.2,1.92,4.87,2.78l1.34-2.58c-1.62-.84-3.21-1.74-4.73-2.7l-1.48,2.51h0Z"/>
    <path class="cls-8" d="m203.71,143.64l-1.48,2.51c1.41.94,2.88,1.83,4.39,2.64l1.34-2.59c-1.47-.8-2.89-1.65-4.26-2.58h0Z"/>
    <path class="cls-8" d="m198.58,131.72l-2.14,1.98c.84.98,1.72,1.92,2.62,2.83l1.95-2.17c-.85-.86-1.66-1.73-2.44-2.65h0Z"/>
    <path class="cls-8" d="m187.47,147.97c.41,0,.67.2.83.46.01,0,.03,0,.04,0l.74-.82h-.02c-1.29-1.17-2.55-2.37-3.71-3.64-.12-.13-.23-.26-.35-.4l-3.01,2.79c1.63,1.3,3.27,2.53,4.88,3.69l.13-.14c-.83-.43-.67-1.96.48-1.96Zm-2.22.58c-1.08-.25-1.01-2.03.24-2.03.22,0,.39.07.54.16,1.08.25,1.01,2.03-.24,2.03-.22,0-.39-.07-.54-.16Z"/>
    <path class="cls-8" d="m231.28,51.16l-95.49-.4c.03.2.06.41.1.61-.04-.2-.07-.41-.1-.61l-99.95-.42v96.77h136.44v-3.7l5.75-.28.15.13c1.27,1.08,2.54,2.11,3.79,3.11l3.01-2.79c-2.21-2.41-4.19-4.99-5.94-7.71-5.32-8.29-8.38-17.89-8.38-28.1,0-30.42,26.95-55.3,60.61-56.61h0Z"/>
    <path class="cls-8" d="m199.99,157.9s-.01,0-.02,0c-.35,0-.6-.14-.77-.35-.02,0-.03.01-.05.01-.42,0-.69-.21-.85-.49-.3-.05-.52-.21-.66-.43-.2-.05-.34-.16-.46-.29-.04,0-.06.02-.1.02-.3,0-.53-.12-.7-.28l-.08.13c1.69.98,3.37,1.9,5.04,2.74l.09-.17c-.33-.02-.57-.17-.73-.38-.35-.05-.58-.26-.71-.52Z"/>
    <path class="cls-8" d="m197.57,154.08l-.17.28c.17.06.33.14.43.26.02,0,.04-.01.06-.01.39,0,.66.19.82.44.28.07.47.24.6.46.26.04.47.15.6.32.02,0,.03-.01.05-.01.45,0,.73.24.88.55,0,0,0,0,0,0,.26,0,.45.09.61.22.03,0,.06-.01.09-.01.38,0,.65.18.81.42l.07-.13c-1.67-.87-3.3-1.78-4.87-2.78Z"/>
    <path class="cls-8" d="m196.24,155.91c-.37-.03-.62-.23-.76-.49-.01,0-.02,0-.04,0-.39,0-.65-.18-.81-.42-.05-.05-.09-.11-.13-.17-.04,0-.07.02-.11.02-.45,0-.73-.24-.88-.55-.27-.06-.46-.21-.59-.4-.35-.06-.57-.27-.7-.54-.1-.04-.17-.09-.25-.15-.48,0-.78-.28-.92-.63-.08-.03-.15-.09-.21-.14-.03,0-.04.01-.07.01-.55,0-.86-.35-.96-.76-.27,0-.47-.11-.63-.25-.36-.05-.59-.27-.72-.54-.11-.06-.19-.15-.27-.24-.21-.04-.36-.15-.48-.27-.28-.06-.46-.22-.59-.42-.05-.02-.1-.03-.14-.06l-.13.15c3.2,2.3,6.35,4.35,9.45,6.15l.08-.13c-.05-.06-.09-.12-.13-.19Z"/>
    <path class="cls-8" d="m189.06,147.63l-.73.81c.15.06.27.14.36.26.21.06.38.16.5.31.36.07.6.3.71.59.03.02.07.04.1.07.44.06.71.37.8.73.24,0,.43.09.58.21.03,0,.04-.01.07-.01.08,0,.14.02.21.03.02,0,.03,0,.04,0,.55,0,.86.35.96.76.42.03.7.27.83.58.18.08.32.2.41.35.33.06.56.25.69.5.27.05.47.2.6.4.03,0,.06-.02.1-.02.4,0,.67.18.83.44.07.07.12.14.16.23,0,0,.02,0,.03,0,.41,0,.68.2.84.47.08.01.16.02.23.05l.17-.28c-3.04-1.92-5.89-4.09-8.5-6.45Z"/>
    <path class="cls-10" d="m186.85,150.07c-1.61-1.17-3.24-2.39-4.88-3.69"/>
    <path class="cls-10" d="m201.33,158.97c-1.66-.85-3.34-1.75-5.04-2.74"/>
    <path class="cls-10" d="m196.3,156.23c-3.1-1.81-6.25-3.85-9.45-6.15"/>
    <path class="cls-8" d="m188.62,140.24l-1.5,1.38c.12.13.23.26.35.4l1.49-1.38c-.12-.13-.22-.26-.34-.4Z"/>
    <path class="cls-8" d="m188.62,140.24c-2-2.24-3.8-4.63-5.38-7.14l-1.77,1.18c1.66,2.59,3.55,5.05,5.65,7.35l1.5-1.38h0Z"/>
    <path class="cls-8" d="m192.34,144l-1.33,1.47c2.48,2.24,5.16,4.28,8.04,6.1l.95-1.62c-2.74-1.79-5.31-3.78-7.66-5.96h0Z"/>
    <path class="cls-8" d="m188.97,140.63l-1.49,1.38c1.12,1.2,2.3,2.34,3.54,3.45l1.33-1.47c-1.17-1.08-2.3-2.2-3.37-3.36h0Z"/>
    <path class="cls-8" d="m200,149.95l-.95,1.62c1.53.96,3.11,1.87,4.73,2.7l.85-1.61c-1.58-.84-3.13-1.74-4.62-2.7h0Z"/>
    <path class="cls-8" d="m195.35,140.65l-1.06,1.18c2.22,2.04,4.62,3.92,7.19,5.61l.76-1.28c-2.47-1.65-4.77-3.49-6.89-5.49h0Z"/>
    <path class="cls-8" d="m202.23,146.15l-.76,1.28c1.44.94,2.94,1.82,4.48,2.63l.66-1.27c-1.52-.82-2.97-1.7-4.39-2.64h0Z"/>
    <path class="cls-8" d="m234.31,59.71c8.9,0,17.29,1.96,24.69,5.4-4.38-2.65-9.24-4.61-14.45-5.73-3.36-.56-6.82-.87-10.36-.87-2.68,0-5.32.17-7.9.51-5.43.94-10.54,2.79-15.15,5.4,7.02-3.01,14.87-4.7,23.16-4.7h0Z"/>
    <path class="cls-8" d="m194.28,141.83l1.06-1.18c-1.06-1-2.09-2.03-3.05-3.11l-1.2,1.11c1,1.11,2.08,2.16,3.19,3.18Z"/>
    <path class="cls-8" d="m180.63,107.71c0-11.92,4.9-22.83,12.97-31.23,1.89-2.71,4.06-5.21,6.47-7.49-12.95,9.02-21.3,23.04-21.3,38.76,0,8.6,2.5,16.69,6.88,23.74l1.43-.95c-4.12-6.79-6.45-14.56-6.45-22.81h0Z"/>
    <path class="cls-8" d="m187.1,130.52l-1.43.95c1.49,2.39,3.2,4.65,5.09,6.78l1.21-1.11c-1.82-2.08-3.45-4.29-4.87-6.62h0Z"/>
    <path class="cls-8" d="m191.96,137.14l-1.21,1.11c.12.13.22.26.34.39l1.2-1.11c-.12-.13-.22-.26-.34-.4h0Z"/>
    <path class="cls-8" d="m185.15,103.26c0-3.4.38-6.73,1.08-9.93-1.72,4.52-2.66,9.35-2.66,14.39,0,7.66,2.17,14.87,5.97,21.19l2.34-1.57c-4.27-7.08-6.73-15.31-6.73-24.09h0Z"/>
    <path class="cls-8" d="m209,144.24c-1.4-.83-2.76-1.71-4.06-2.66l-1.22,2.06c1.37.92,2.78,1.78,4.26,2.58l1.03-1.97h0Z"/>
    <path class="cls-8" d="m191.87,127.35l-2.34,1.57c1.33,2.21,2.87,4.3,4.58,6.26l2.01-1.86c-1.57-1.88-2.98-3.87-4.25-5.97h0Z"/>
    <path class="cls-8" d="m196.43,133.71l-2,1.86c.9,1.02,1.87,1.99,2.87,2.94l1.77-1.95c-.91-.91-1.8-1.86-2.62-2.83h0Z"/>
    <path class="cls-8" d="m199.07,136.54l-1.77,1.95c1.97,1.87,4.12,3.59,6.42,5.14l1.22-2.06c-2.09-1.53-4.05-3.22-5.87-5.04h0Z"/>
    <path class="cls-8" d="m196.11,133.31l-2.01,1.86c.12.13.22.26.33.39l2-1.86c-.11-.13-.21-.26-.32-.4h0Z"/>
    <path class="cls-11" d="m201.02,134.37l-1.95,2.17c1.82,1.82,3.77,3.51,5.87,5.04l1.49-2.53c-1.92-1.42-3.73-2.98-5.4-4.68h0Z"/>
    <path class="cls-11" d="m198.26,131.33l-2.15,1.98c.11.14.21.27.32.4l2.14-1.98c-.11-.13-.21-.26-.32-.4h0Z"/>
    <path class="cls-11" d="m194.29,125.72l-2.43,1.62c1.26,2.09,2.68,4.09,4.25,5.97l2.15-1.98c-1.46-1.76-2.78-3.64-3.96-5.6h0Z"/>
    <path class="cls-11" d="m181.47,134.28l-2.42,1.61c1.74,2.72,3.73,5.29,5.94,7.71l2.14-1.97c-2.1-2.3-3.99-4.75-5.65-7.35h0Z"/>
    <path class="cls-11" d="m187.12,141.62l-2.14,1.97c.12.13.23.26.35.4l2.13-1.97c-.12-.13-.23-.26-.35-.4h0Z"/>
    <path class="cls-11" d="m199.05,151.57c-2.88-1.83-5.56-3.87-8.04-6.1l-1.94,2.16c2.61,2.36,5.45,4.53,8.51,6.45l1.48-2.51Z"/>
    <path class="cls-11" d="m185.66,131.48l-2.42,1.61c1.57,2.52,3.37,4.9,5.38,7.14l2.14-1.97c-1.9-2.13-3.61-4.38-5.09-6.78h0Z"/>
    <path class="cls-11" d="m191.1,138.65c-.12-.13-.22-.26-.34-.39l-2.14,1.97c.12.13.22.26.34.4l2.14-1.98h0Z"/>
    <path class="cls-11" d="m194.28,141.83l-1.95,2.16c2.35,2.18,4.92,4.17,7.66,5.96l1.48-2.52c-2.58-1.68-4.98-3.56-7.19-5.61h0Z"/>
    <path class="cls-11" d="m203.71,143.64c-2.3-1.56-4.44-3.28-6.42-5.14l-1.95,2.16c2.12,2,4.42,3.84,6.89,5.49l1.48-2.51Z"/>
    <path class="cls-11" d="m189.53,128.91l-2.43,1.62c1.42,2.33,3.05,4.54,4.87,6.62l2.14-1.97c-1.71-1.96-3.25-4.05-4.58-6.26h0Z"/>
    <path class="cls-11" d="m194.1,135.17l-2.14,1.97c.12.13.22.26.34.4l2.14-1.98c-.12-.13-.22-.26-.33-.39h0Z"/>
  </g>
  <g>
    <line class="cls-8" x1="253.21" y1="50.65" x2="259.49" y2="50.68"/>
    <path class="cls-8" d="m206.67,138.54l-1.49,2.53c1.3.95,2.66,1.84,4.06,2.66l1.35-2.59c-1.36-.81-2.66-1.67-3.93-2.61h0Z"/>
    <path class="cls-8" d="m288.94,147.58c2.36-1.68,4.4-5.03,7.49-5.36,3.7-.4,4.54,2.26,3.59,5.25,35.41,1.65,70.86,1.39,106.29.99,10.08-.11,20.17-.24,30.25-.33-.02-.99-.03-1.99-.07-2.98,0,.99,0,1.99.07,2.98-1.78-31.68.36-63.76-1.78-95.85-16.04-3.21-33.16,0-48.77-1.01"/>
    <path class="cls-8" d="m205.15,160.79c21.05,13.42,49.93,9.14,71.24-3.85"/>
    <path class="cls-8" d="m204.2,160.36c2.03,1.49,4.17,2.89,6.55,3.75-.48-.59-1-1.15-1.55-1.67"/>
    <path class="cls-8" d="m204.4,160.46c1.22.91,4.21,3.75,5.73,2.63"/>
    <path class="cls-8" d="m286.02,143.78c-1-1.2-2.74-1.18-3.46.27"/>
    <path class="cls-8" d="m346.12,51.84l.03-.71c-28.14-.12-56.28.16-84.42-.08-7.97-.07-15.94-.19-23.91-.37,5.05.25,10.11.59,15.17.69-5.03-.38-10.12-.63-15.17-.69,29.89.68,62.25,26.62,59.6,58.4-.41,4.97-1.46,9.87-2.8,14.66-.64,2.29-1.36,4.56-2.12,6.81-.91,2.69-1.62,3.6,1.27,4.77l-3.13-2.05c-1.33,3.14-7.37,6.66-4.49,10.51"/>
    <path class="cls-10" d="m182.28,146.61c-1.25-1-2.59-2.77-3.86-3.86l-.15-.13-5.75.28.09,5.32H35.25"/>
    <polyline class="cls-10" points="84.54 49.28 35.57 49.08 35.23 49.07 35.16 148.51"/>
    <path class="cls-8" d="m278.21,144.2c.49-.47.99-.93,1.46-1.41l-1.3-1.29c-1.07,1.09-2.18,2.14-3.35,3.15,1.06-.18,2.12-.33,3.19-.45Z"/>
    <path class="cls-8" d="m278.37,141.49l1.3,1.29c.84-.84,1.63-1.7,2.41-2.59l-1.37-1.25c-.75.87-1.54,1.72-2.34,2.55Z"/>
    <path class="cls-8" d="m282.09,140.2c2.32-2.65,4.36-5.5,6.1-8.53l-1.62-1.06c-1.66,2.95-3.63,5.74-5.85,8.33l1.37,1.25Z"/>
    <path class="cls-8" d="m278.57,136.98c2.13-2.48,4-5.15,5.56-7.97l-1.29-.85c-1.51,2.77-3.31,5.39-5.36,7.83l1.09.99h0Z"/>
    <path class="cls-8" d="m276.3,139.45c.78-.8,1.55-1.62,2.26-2.47l-1.09-.99c-.7.84-1.45,1.64-2.21,2.44l1.03,1.02Z"/>
    <path class="cls-8" d="m282.84,128.17l1.29.85c3.66-6.57,5.74-13.97,5.74-21.78,0-14.83-7.43-28.14-19.14-37.17,2.13,2.21,4.04,4.6,5.71,7.16,7.38,8.22,11.8,18.64,11.8,29.98,0,7.51-1.94,14.63-5.4,20.97h0Z"/>
    <path class="cls-8" d="m267.92,146.06c.27-.06.53-.11.8-.17.31-.22.63-.43.93-.66l-.78-1.15c-1.06.79-2.15,1.54-3.28,2.25h0l.17.26c.73-.19,1.45-.38,2.16-.53Z"/>
    <path class="cls-8" d="m268.88,144.09l.78,1.15c2.4-1.76,4.62-3.69,6.65-5.78l-1.03-1.02c-1.95,2.04-4.09,3.93-6.4,5.65h0Z"/>
    <path class="cls-8" d="m274.12,78.97c-9.31-10.27-23.57-16.87-39.54-16.87s-29.1,6.09-38.42,15.67c-4.95,7.14-7.84,15.74-7.84,24.96,0,8.19,2.27,15.85,6.24,22.47,1.18,1.96,2.5,3.84,3.96,5.6.11.13.21.26.32.4.78.91,1.59,1.8,2.44,2.65,1.67,1.69,3.48,3.26,5.4,4.68,1.26.93,2.56,1.79,3.91,2.6h0c2.15,1.28,4.4,2.38,6.76,3.3.95.37,1.91.72,2.9,1.03,2.79.89,5.7,1.53,8.69,1.89,1.02.13,2.04.21,3.08.27.89.05,1.8.08,2.71.08,1.92,0,3.82-.13,5.69-.35,1.16-.14,2.29-.31,3.42-.52,2.63-.51,5.18-1.24,7.63-2.16.95-.36,1.9-.75,2.82-1.17,2.45-1.11,4.77-2.41,6.97-3.9,1.05-.71,2.08-1.46,3.06-2.25,1.81-1.45,3.5-3.04,5.06-4.73.67-.73,1.31-1.49,1.93-2.26,1.71-2.12,3.23-4.38,4.52-6.78,3.38-6.24,5.32-13.33,5.32-20.85,0-8.72-2.59-16.87-7.04-23.77Zm-41.61,63.79v-2.2h7.86v2.2h-7.86Zm26.19-10.31c-4.75,0-4.75-7.38,0-7.38s4.75,7.38,0,7.38Z"/>
    <path class="cls-8" d="m275.33,134.03c1.94-2.32,3.65-4.82,5.06-7.46l-2.1-1.37c-1.39,2.53-3,4.91-4.82,7.14l1.86,1.69Z"/>
    <path class="cls-8" d="m275.33,134.03l-1.86-1.69c-.65.8-1.31,1.57-2.01,2.33l1.75,1.72c.74-.77,1.45-1.56,2.13-2.36h0Z"/>
    <path class="cls-8" d="m267.23,141.67l-1.28-1.89c-1,.8-2.05,1.56-3.12,2.27l1.18,1.83c1.11-.7,2.18-1.44,3.22-2.22h0Z"/>
    <path class="cls-8" d="m273.2,136.39l-1.75-1.72c-1.69,1.84-3.53,3.55-5.5,5.11l1.28,1.89c2.15-1.61,4.14-3.37,5.97-5.28h0Z"/>
    <path class="cls-8" d="m259.63,145.41c.64-.13,1.22-.1,1.74.03.89-.5,1.78-1.01,2.64-1.56l-1.17-1.82c-2.33,1.57-4.8,2.96-7.4,4.12l.15.35c1.33-.42,2.67-.83,4.04-1.12Z"/>
    <path class="cls-8" d="m212.44,146.5c1.21.46,2.42.81,3.65,1.1l.19-.47c-2.44-.96-4.79-2.1-7.03-3.41l-1.03,1.97c.54.3,1.1.58,1.65.86.7-.35,1.57-.44,2.57-.06Z"/>
    <path class="cls-8" d="m278.29,125.2l2.1,1.37c3.16-5.87,4.93-12.44,4.93-19.37,0-4.25-.68-8.35-1.92-12.25.43,2.54.66,5.14.66,7.8,0,8.11-2.1,15.75-5.77,22.46Z"/>
    <path class="cls-11" d="m228.58,150.24l.35-2.9c-2.99-.36-5.9-1-8.69-1.89l-.75,2.82c2.92.92,5.96,1.58,9.08,1.96h0Z"/>
    <path class="cls-11" d="m217.36,144.44c-2.35-.92-4.62-2.03-6.76-3.3l-1.35,2.59c2.24,1.31,4.58,2.45,7.03,3.41l1.08-2.7Z"/>
    <path class="cls-11" d="m271.45,134.67l-2.08-2.05c-1.57,1.7-3.25,3.29-5.06,4.73l1.64,2.42c1.96-1.57,3.8-3.28,5.5-5.11h0Z"/>
    <path class="cls-11" d="m278.29,125.2l-2.45-1.6c-1.3,2.39-2.82,4.66-4.52,6.78l2.16,1.96c1.81-2.23,3.43-4.62,4.82-7.14h0Z"/>
    <path class="cls-11" d="m262.84,142.06l-1.58-2.45c-2.2,1.49-4.52,2.79-6.97,3.9l1.15,2.68c2.6-1.17,5.07-2.56,7.4-4.12h0Z"/>
    <path class="cls-11" d="m234.73,150.62c1.99,0,3.96-.13,5.89-.35l-.2-2.92c-1.87.22-3.76.35-5.69.35-.91,0-1.82-.03-2.71-.08l-.17,2.91c.95.06,1.92.09,2.89.09Z"/>
    <path class="cls-11" d="m252.29,147.48l-.82-2.81c-2.45.92-5,1.65-7.63,2.16l.41,2.89c2.77-.52,5.46-1.28,8.05-2.25h0Z"/>
    <path class="cls-11" d="m282.09,140.2l2.15,1.96c2.43-2.77,4.57-5.75,6.4-8.88l-2.44-1.59c-1.74,3.01-3.78,5.87-6.1,8.53h0Z"/>
    <path class="cls-11" d="m272.27,149.09l1.63,2.41c2.83-2.02,5.45-4.26,7.85-6.68l-2.07-2.04c-2.26,2.28-4.74,4.39-7.42,6.32h0Z"/>
    <path class="cls-11" d="m216.73,158.7l-.75,2.82c3.54.96,7.2,1.65,10.97,2.04l.35-2.9c-3.64-.38-7.17-1.04-10.58-1.96h0Z"/>
    <path class="cls-11" d="m259.67,156.06l1.15,2.67c3.37-1.39,6.59-3.04,9.61-4.92l-1.58-2.45c-2.89,1.79-5.96,3.36-9.18,4.69h0Z"/>
    <path class="cls-11" d="m234.33,161.03c-1.04,0-2.07-.03-3.1-.08l-.17,2.91c1.08.05,2.17.09,3.27.09,2.44,0,4.84-.14,7.2-.38l-.2-2.92c-2.3.23-4.64.37-7,.37h0Z"/>
    <path class="cls-11" d="m212.21,157.29c-2.84-1-5.58-2.18-8.19-3.53l-1.34,2.58c2.7,1.4,5.52,2.61,8.46,3.66l1.08-2.7h0Z"/>
    <path class="cls-11" d="m245.69,160.07l.41,2.89c3.43-.58,6.79-1.39,10-2.45l-.82-2.8c-3.08,1.01-6.29,1.8-9.58,2.36h0Z"/>
    <path class="cls-11" d="m213.94,152.95c-2.68-.96-5.28-2.09-7.74-3.39l-1.34,2.59c2.55,1.35,5.22,2.53,8,3.52l1.08-2.7h0Z"/>
    <path class="cls-11" d="m245.06,155.56l.41,2.89c3.22-.55,6.34-1.33,9.34-2.34l-.82-2.8c-2.87.96-5.85,1.72-8.93,2.26Z"/>
    <path class="cls-11" d="m234.45,156.47c-.99,0-1.97-.03-2.96-.08l-.17,2.91c1.03.05,2.07.08,3.12.08,2.29,0,4.55-.14,6.77-.36l-.2-2.92c-2.16.22-4.35.36-6.57.36h.02Z"/>
    <path class="cls-11" d="m257.86,151.84l1.15,2.67c3.13-1.3,6.1-2.85,8.9-4.61l-1.57-2.45c-2.66,1.67-5.49,3.14-8.47,4.37h0Z"/>
    <path class="cls-11" d="m280.72,138.95c2.24-2.6,4.19-5.39,5.85-8.33l-2.44-1.59c-1.57,2.82-3.44,5.48-5.56,7.97l2.15,1.96h0Z"/>
    <path class="cls-11" d="m227.87,156.12c-3.42-.36-6.75-1-9.94-1.9l-.75,2.82c3.32.93,6.79,1.59,10.34,1.97l.35-2.9Z"/>
    <path class="cls-11" d="m269.65,145.23l1.63,2.41c2.56-1.87,4.93-3.93,7.1-6.14l-2.07-2.04c-2.03,2.09-4.26,4.02-6.65,5.78h0Z"/>
    <path class="cls-11" d="m275.27,138.44l-2.07-2.04c-1.83,1.91-3.82,3.66-5.97,5.28l1.63,2.42c2.3-1.72,4.44-3.62,6.4-5.65h0Z"/>
    <path class="cls-11" d="m265.6,146.33l-1.57-2.45c-2.45,1.56-5.06,2.94-7.82,4.09l1.15,2.67c2.9-1.22,5.66-2.67,8.24-4.32Z"/>
    <path class="cls-11" d="m277.48,135.99c2.05-2.44,3.85-5.05,5.36-7.83l-2.45-1.59c-1.42,2.63-3.12,5.13-5.06,7.46l2.15,1.96h0Z"/>
    <path class="cls-11" d="m215.54,148.98c-2.55-.92-5-2.02-7.32-3.28l-1.34,2.59c2.41,1.3,4.95,2.44,7.58,3.4l1.08-2.7h0Z"/>
    <path class="cls-11" d="m228.38,151.95c-3.23-.35-6.36-.97-9.36-1.84l-.75,2.82c3.14.9,6.4,1.55,9.76,1.92l.35-2.9h0Z"/>
    <path class="cls-11" d="m234.56,155.21c2.16,0,4.28-.13,6.37-.35l-.2-2.92c-2.02.22-4.08.35-6.17.35-.94,0-1.89-.03-2.82-.08l-.17,2.91c.99.05,1.98.08,2.98.08h.02Z"/>
    <path class="cls-11" d="m253.62,152.07l-.82-2.8c-2.67.92-5.46,1.65-8.33,2.16l.41,2.89c3.01-.52,5.93-1.28,8.75-2.24h0Z"/>
  </g>
  <polyline class="cls-10" points="322.36 90.51 294.19 90.51 255.51 90.51 255.51 109.68 294.19 109.27 322.36 109.27"/>
  <polyline class="cls-10" points="322.36 95.47 294.19 95.47 294.19 104.32 322.36 104.32"/>
  <g class="cls-15">
    <text class="cls-6" transform="translate(225.15 104.32)"><tspan x="0" y="0">ホー</tspan></text>
    <text class="cls-6" transform="translate(240.23 104.32)"><tspan x="0" y="0">ル</tspan></text>
  </g>
  <path class="cls-10" d="m201.33,158.97c24.12,12.28,44.76,10.29,59.11,5.44,20.34-6.87,32.8-20.74,32.92-20.88l.16-.17,5.75.18v5.11h137.02l.27-99.08h-51.06v20.14"/>
  <polyline class="cls-9" points="214.67 51.67 230.04 51.67 230.04 49.55 214.67 49.55 214.96 49.55 136.52 49.26 115.96 49.29 115.96 51.21 136.54 51.21"/>
  <line class="cls-9" x1="109.87" y1="47.76" x2="110" y2="53.41"/>
  <line class="cls-9" x1="234.67" y1="47.76" x2="234.8" y2="53.41"/>
  <line class="cls-9" x1="365.56" y1="48.21" x2="365.7" y2="53.86"/>
  <line class="cls-10" x1="296.07" y1="95.47" x2="296.07" y2="104.32"/>
  <line class="cls-10" x1="298.05" y1="95.47" x2="298.05" y2="104.32"/>
  <line class="cls-10" x1="300.03" y1="95.47" x2="300.03" y2="104.32"/>
  <line class="cls-10" x1="302.01" y1="95.47" x2="302.01" y2="104.32"/>
  <line class="cls-10" x1="303.98" y1="95.47" x2="303.98" y2="104.32"/>
  <line class="cls-10" x1="305.96" y1="95.47" x2="305.96" y2="104.32"/>
  <line class="cls-10" x1="307.94" y1="95.47" x2="307.94" y2="104.32"/>
  <line class="cls-10" x1="309.91" y1="95.47" x2="309.91" y2="104.32"/>
  <line class="cls-10" x1="311.9" y1="95.47" x2="311.9" y2="104.32"/>
  <line class="cls-10" x1="313.87" y1="95.47" x2="313.87" y2="104.32"/>
  <line class="cls-10" x1="315.84" y1="95.47" x2="315.84" y2="104.32"/>
  <line class="cls-10" x1="317.83" y1="95.47" x2="317.83" y2="104.32"/>
  <line class="cls-10" x1="319.8" y1="95.47" x2="319.8" y2="104.32"/>
  <line class="cls-10" x1="321.78" y1="95.47" x2="321.78" y2="104.32"/>
  <line class="cls-10" x1="294.19" y1="90.51" x2="294.19" y2="109.27"/>
  <g>
    <line class="cls-10" x1="320.31" y1="106.81" x2="299.37" y2="106.81"/>
    <polygon class="cls-11" points="299.75 105.49 297.49 106.81 299.75 108.11 299.75 105.49"/>
  </g>
  <circle class="cls-11" cx="297.74" cy="92.98" r=".52"/>
  <g>
    <line class="cls-10" x1="297.74" y1="92.98" x2="318.68" y2="92.98"/>
    <polygon class="cls-11" points="318.3 94.29 320.57 92.98 318.3 91.68 318.3 94.29"/>
  </g>
  <line class="cls-10" x1="407.32" y1="86.93" x2="407.32" y2="113.97"/>
  <g>
    <polyline class="cls-10" points="35.36 83.95 84.34 83.95 84.34 113.74 35.36 113.74"/>
    <g>
      <line class="cls-10" x1="397.06" y1="105.57" x2="397.06" y2="86.92"/>
      <circle class="cls-11" cx="402.19" cy="88.61" r=".52"/>
      <line class="cls-10" x1="386.81" y1="88.61" x2="407.32" y2="88.61"/>
      <line class="cls-10" x1="386.81" y1="90.57" x2="407.32" y2="90.57"/>
      <line class="cls-10" x1="386.81" y1="92.53" x2="407.32" y2="92.53"/>
      <line class="cls-10" x1="386.81" y1="94.49" x2="407.32" y2="94.49"/>
      <line class="cls-10" x1="386.81" y1="96.44" x2="407.32" y2="96.44"/>
      <line class="cls-10" x1="386.81" y1="98.41" x2="407.32" y2="98.41"/>
      <line class="cls-10" x1="386.81" y1="100.37" x2="407.32" y2="100.37"/>
      <line class="cls-10" x1="386.81" y1="102.32" x2="407.32" y2="102.32"/>
      <line class="cls-10" x1="386.81" y1="104.29" x2="407.32" y2="104.29"/>
      <line class="cls-8" x1="402.19" y1="88.61" x2="402.2" y2="108.61"/>
      <line class="cls-10" x1="402.19" y1="89.12" x2="402.2" y2="108.67"/>
      <g>
        <polyline class="cls-10" points="402.19 108.44 392.09 108.44 392.09 88.79"/>
        <polygon class="cls-11" points="393.16 89.1 392.09 87.26 391.03 89.1 393.16 89.1"/>
      </g>
      <line class="cls-10" x1="74.24" y1="104.05" x2="74.24" y2="83.95"/>
      <circle class="cls-11" cx="79.37" cy="87.54" r=".52"/>
      <line class="cls-10" x1="63.98" y1="87.54" x2="84.5" y2="87.54"/>
      <line class="cls-10" x1="63.98" y1="89.49" x2="84.5" y2="89.49"/>
      <line class="cls-10" x1="63.98" y1="91.46" x2="84.5" y2="91.46"/>
      <line class="cls-10" x1="63.98" y1="93.41" x2="84.5" y2="93.41"/>
      <line class="cls-10" x1="63.98" y1="95.37" x2="84.5" y2="95.37"/>
      <line class="cls-10" x1="63.98" y1="97.33" x2="84.5" y2="97.33"/>
      <line class="cls-10" x1="63.98" y1="99.29" x2="84.5" y2="99.29"/>
      <line class="cls-10" x1="63.98" y1="101.25" x2="84.5" y2="101.25"/>
      <line class="cls-10" x1="63.98" y1="103.21" x2="84.5" y2="103.21"/>
      <line class="cls-8" x1="79.37" y1="87.54" x2="79.38" y2="107.53"/>
      <line class="cls-10" x1="79.37" y1="88.04" x2="79.38" y2="107.59"/>
      <g>
        <polyline class="cls-10" points="79.37 107.37 69.28 107.37 69.28 87.72"/>
        <polygon class="cls-11" points="70.34 88.03 69.28 86.19 68.21 88.03 70.34 88.03"/>
      </g>
    </g>
  </g>
  <line class="cls-10" x1="63.98" y1="83.95" x2="63.98" y2="113.74"/>
  <rect class="cls-2" x="170.91" y="49.67" width="22.07" height="15.1"/>
  <circle class="cls-13" cx="181.15" cy="39.04" r="6.08"/>
  <path class="cls-12" d="m215.63,32.59h-26.05l-7.48,23.2-8.35-23.2h-21.3c-5.53,0-10.01-4.48-10.01-10.01v-12.57c0-5.53,4.48-10.01,10.01-10.01h63.18c5.53,0,10.01,4.48,10.01,10.01v12.57c0,5.53-4.48,10.01-10.01,10.01Z"/>
  <g class="cls-15">
    <text class="cls-4" transform="translate(151.01 21.89)"><tspan x="0" y="0">梶村商店</tspan></text>
  </g>
  <line class="cls-10" x1="66.78" y1="49.38" x2="66.78" y2="75.73"/>
  <line class="cls-10" x1="402.27" y1="49.66" x2="402.2" y2="78.65"/>
  <text class="cls-3" transform="translate(101.53 45.12)"><tspan x="0" y="0">出入口</tspan></text>
  <text class="cls-3" transform="translate(225.64 45.12)"><tspan x="0" y="0">出入口</tspan></text>
  <text class="cls-3" transform="translate(357.64 45.12)"><tspan x="0" y="0">出入口</tspan></text>
  <text class="cls-1" transform="translate(223.96 143.14)"><tspan x="0" y="0">待合所</tspan></text>
  <g>
    <rect class="cls-2" x="89.51" y="136.94" width="36.15" height="11.38"/>
    <text class="cls-5" transform="translate(93.23 144.53)"><tspan x="0" y="0">1~5 乗り場</tspan></text>
  </g>
  <rect class="cls-2" x="339.56" y="137.45" width="39.03" height="11.38"/>
  <text class="cls-5" transform="translate(342.52 145.46)"><tspan x="0" y="0">6~10 乗り場</tspan></text>
  <polyline class="cls-10" points="385.49 49.58 370.32 49.58 370.32 51.99 385.47 51.99"/>
  <polyline class="cls-10" points="345.43 49.58 360.95 49.58 360.95 51.99 345.43 51.99"/>
  <polyline class="cls-10" points="255.1 49.58 239.6 49.58 239.6 51.99 255.1 51.99"/>
  <line class="cls-10" x1="345.43" y1="49.58" x2="255.1" y2="49.58"/>
  <polyline class="cls-10" points="151.01 109.52 202.98 109.68 202.98 90.51 151.01 90.51"/>
  <path class="cls-10" d="m151.01,90.52c.07,0,.15,0,.22,0"/>
  <path class="cls-10" d="m151.23,109.52c-5.25,0-9.5-4.25-9.5-9.5s4.13-9.38,9.28-9.5"/>
  <path class="cls-10" d="m152.34,109.46c.14.18-.73.06-1.11.06"/>
  <path class="cls-10" d="m151.23,90.51c.5,0,.99-.07,1.47,0"/>
  <g>
    <path class="cls-7" d="m43.1,198.13s3.81-7.13,7.74,0c.96-.37,5.04-7.96,9.66,0"/>
    <path class="cls-7" d="m52.94,205.44s3.81-7.13,7.74,0c.96-.37,5.04-7.96,9.66,0"/>
  </g>
  <g>
    <path class="cls-7" d="m230.22,190.85s3.81-7.13,7.74,0c.96-.37,5.04-7.96,9.66,0"/>
    <path class="cls-7" d="m240.06,198.16s3.81-7.13,7.74,0c.96-.37,5.04-7.96,9.66,0"/>
  </g>
  <g>
    <path class="cls-7" d="m422.68,196.31s3.81-7.13,7.74,0c.96-.37,5.04-7.96,9.66,0"/>
    <path class="cls-7" d="m432.52,203.63s3.81-7.13,7.74,0c.96-.37,5.04-7.96,9.66,0"/>
  </g>
</svg>