<?xml version="1.0" encoding="UTF-8"?>
<svg id="_レイヤー_2" data-name="レイヤー 2" xmlns="http://www.w3.org/2000/svg" viewBox="0 0 53.72 64.85">
  <defs>
    <style>
      .cls-1 {
        fill: #fff;
      }

      .cls-1, .cls-2 {
        stroke-width: 0px;
      }

      .cls-2 {
        fill: #fbb558;
      }
    </style>
  </defs>
  <g id="_レイヤー_1-2" data-name="レイヤー 1">
    <g>
      <path class="cls-2" d="m45.85,7.87C35.36-2.62,18.36-2.62,7.87,7.87c-10.49,10.49-10.49,27.5,0,37.99l18.99,18.99,18.99-18.99c10.49-10.49,10.49-27.5,0-37.99Z"/>
      <g>
        <path class="cls-1" d="m22.69,29.93s0-.03,0-.05c-.05-2.01,1.91-3.67,4.38-3.72s4.51,1.54,4.55,3.55c0,0,0,0,0,0,1.9.39,3.33,1.77,3.37,3.44.05,2.01-1.91,3.67-4.38,3.72-.53.01-1.05-.06-1.53-.19-1.09-.3-2.25-.28-3.33.06-.47.15-.98.24-1.52.25-2.47.05-4.51-1.54-4.55-3.55-.04-1.62,1.22-3.01,3-3.52Z"/>
        <g>
          <ellipse class="cls-1" cx="29.86" cy="20.26" rx="3.13" ry="2.11" transform="translate(8.46 49.31) rotate(-87.78)"/>
          <ellipse class="cls-1" cx="36.15" cy="23.48" rx="3.12" ry="2.11" transform="translate(4.87 53.15) rotate(-76.5)"/>
        </g>
        <g>
          <ellipse class="cls-1" cx="23.73" cy="20.37" rx="2.1" ry="3.13" transform="translate(-1.84 2.36) rotate(-5.48)"/>
          <ellipse class="cls-1" cx="17.6" cy="23.84" rx="2.1" ry="3.13" transform="translate(-6.1 6.05) rotate(-16.67)"/>
        </g>
      </g>
    </g>
  </g>
</svg>