<?xml version="1.0" encoding="UTF-8"?>
<svg id="_レイヤー_2" data-name="レイヤー 2" xmlns="http://www.w3.org/2000/svg" viewBox="0 0 61.64 61.84">
  <defs>
    <style>
      .cls-1 {
        fill: #fbb558;
      }

      .cls-1, .cls-2 {
        stroke-width: 0px;
      }

      .cls-2 {
        fill: #8cc5ec;
      }
    </style>
  </defs>
  <g id="_レイヤー_1-2" data-name="レイヤー 1">
    <g>
      <path class="cls-1" d="m24.81,1.57L5.24,12.51c-3.24,1.81-5.24,5.23-5.24,8.93v40.39h24.86v-18.09h11.93v18.09h24.86V21.44c0-3.71-2-7.12-5.24-8.93L36.83,1.57c-3.73-2.09-8.29-2.09-12.02,0Zm-9.47,48.11h-4.98v-5.94h4.98v5.94Zm0-13.17h-4.98v-5.94h4.98v5.94Zm17.97,0h-4.98v-5.94h4.98v5.94Zm12.98-5.94h4.67v5.94h-4.67v-5.94Zm4.99,19.11h-4.98v-5.94h4.98v5.94Z"/>
      <polygon class="cls-2" points="39.69 12.21 34.46 12.21 34.46 6.98 27.18 6.98 27.18 12.21 21.95 12.21 21.95 19.49 27.18 19.49 27.18 24.72 34.46 24.72 34.46 19.49 39.69 19.49 39.69 12.21"/>
    </g>
  </g>
</svg>