<?xml version="1.0" encoding="UTF-8"?>
<svg id="_レイヤー_2" data-name="レイヤー 2" xmlns="http://www.w3.org/2000/svg" viewBox="0 0 40.6 55.35">
  <defs>
    <style>
      .cls-1 {
        fill: #fbb558;
      }

      .cls-1, .cls-2 {
        stroke-width: 0px;
      }

      .cls-2 {
        fill: #9fd779;
      }
    </style>
  </defs>
  <g id="_レイヤー_1-2" data-name="レイヤー 1">
    <g>
      <path class="cls-1" d="m20.3,22.6v-9.62L8.3,1.38C6.89.01,4.8-.38,2.98.39,1.18,1.16,0,2.93,0,4.9v29.62c0,1.99.81,3.9,2.24,5.28l14.66,14.17c.95.92,2.18,1.38,3.41,1.38V22.6Z"/>
      <path class="cls-2" d="m37.61.39c-1.81-.77-3.9-.38-5.32.99l-12,11.6v42.37c1.23,0,2.46-.46,3.4-1.38l14.66-14.17c1.43-1.38,2.24-3.29,2.24-5.28V4.9c0-1.97-1.18-3.74-2.98-4.51Z"/>
    </g>
  </g>
</svg>