<?xml version="1.0" encoding="UTF-8"?>
<svg id="_レイヤー_2" data-name="レイヤー 2" xmlns="http://www.w3.org/2000/svg" viewBox="0 0 208.23 417.22">
  <defs>
    <style>
      .cls-1 {
        fill: #f3d4a1;
      }

      .cls-1, .cls-2, .cls-3 {
        stroke-width: 0px;
      }

      .cls-2 {
        fill: #f5b2b2;
      }

      .cls-3 {
        fill: #f6c285;
      }
    </style>
  </defs>
  <g id="layer01">
    <g>
      <g>
        <path class="cls-1" d="m184.74,336.35c0,44.66-36.21,80.87-80.87,80.87h0c-44.67,0-80.88-36.21-80.88-80.87V116.63c0-44.67,36.21-80.88,80.88-80.88h0c44.67,0,80.87,36.21,80.87,80.88v219.72Z"/>
        <g>
          <path class="cls-1" d="m91.21,40.07h0c-4.01,25.69,10.32,48.56,32.63,52.07,22.33,3.5,42.98-13.9,47.02-39.61,4.02-25.72-10.33-48.59-32.66-52.09-22.33-3.49-42.97,13.91-47,39.62Z"/>
          <path class="cls-1" d="m153.7,44.03c-11.16,5.39-20.12,15.81-24.58,28.6-2.01,5.75-3.01,11.7-3.01,17.51,0,7.11,1.5,14.03,4.46,20.17,4.49,9.3,12.07,16.19,21.34,19.42,9.21,3.23,19.43,2.54,28.73-1.94,11.16-5.38,20.12-15.81,24.58-28.61,4.46-12.75,3.94-26.48-1.44-37.63-4.48-9.3-12.06-16.21-21.32-19.45-9.26-3.23-19.47-2.54-28.76,1.94Zm-24.59,28.61h0s0,0,0,0Z"/>
          <path class="cls-1" d="m70.01.45c-22.32,3.49-36.67,26.36-32.65,52.07,2.11,13.41,9.06,25.28,19.08,32.57,8.34,6.07,18.26,8.58,27.94,7.05,22.31-3.5,36.65-26.37,32.63-52.07h0c-2.09-13.39-9.04-25.25-19.05-32.55C89.63,1.44,79.7-1.07,70.01.45Z"/>
          <path class="cls-1" d="m25.77,42.09c-9.26,3.23-16.84,10.13-21.32,19.44-5.38,11.16-5.91,24.89-1.44,37.66,4.46,12.79,13.42,23.22,24.58,28.6,9.29,4.48,19.51,5.16,28.77,1.92,9.22-3.2,16.8-10.1,21.29-19.38,5.39-11.16,5.92-24.89,1.46-37.69h0c-4.46-12.79-13.43-23.22-24.59-28.6-9.29-4.48-19.5-5.17-28.75-1.94Z"/>
        </g>
      </g>
      <g>
        <path class="cls-2" d="m103.87,77.03c-37.24,0-28.69,30.74-41.53,37.15-12.56,6.28-31.33,32.09-7.46,49.08,29.24,20.81,35.57-4.16,49-4.15,13.41.02,19.75,24.95,48.99,4.15,23.86-16.98,5.1-42.8-7.47-49.08-12.84-6.42-4.28-37.15-41.52-37.15Z"/>
        <path class="cls-2" d="m112.35,43.38c-2.14,13.64,4.5,26,14.82,27.62,10.32,1.62,20.41-8.14,22.55-21.79,2.13-13.64-4.51-26.01-14.82-27.62-10.32-1.61-20.41,8.15-22.54,21.79Z"/>
        <path class="cls-2" d="m149.32,79.69c-4.56,13.04-.25,26.39,9.62,29.83,9.86,3.46,21.53-4.33,26.07-17.38,4.56-13.04.25-26.39-9.61-29.84-9.85-3.44-21.53,4.35-26.08,17.39Z"/>
        <path class="cls-2" d="m95.88,43.37c2.13,13.65-4.5,26.01-14.82,27.62-10.31,1.63-20.41-8.14-22.55-21.79-2.13-13.64,4.51-26.01,14.83-27.62,10.32-1.62,20.41,8.14,22.55,21.79Z"/>
        <path class="cls-2" d="m58.91,79.68c4.55,13.05.24,26.4-9.62,29.83-9.87,3.45-21.53-4.34-26.08-17.39-4.56-13.03-.25-26.39,9.62-29.83,9.85-3.44,21.54,4.35,26.08,17.39Z"/>
      </g>
      <path class="cls-3" d="m22.99,220.44c38.65-5.41,103.32,5.33,103.32,13.87,0,8.05-71.5,13.91-103.32,10.29v-24.16Z"/>
      <path class="cls-3" d="m184.74,266.56c-38.65-5.41-103.32,5.33-103.32,13.87,0,8.05,71.5,13.91,103.32,10.29v-24.16Z"/>
      <path class="cls-3" d="m22.99,307.36c38.65-5.41,103.32,5.33,103.32,13.87,0,8.05-71.5,13.91-103.32,10.29v-24.16Z"/>
      <path class="cls-3" d="m182.98,353.27c-38.83-4.83-101.55,5.68-101.55,14.08,0,7.16,56.55,12.59,91.46,11.17,2.62-3.63,8.4-15.94,10.1-25.26Z"/>
    </g>
  </g>
</svg>