<?xml version="1.0" encoding="UTF-8"?>
<svg id="_レイヤー_2" data-name="レイヤー 2" xmlns="http://www.w3.org/2000/svg" viewBox="0 0 59.93 46.23">
  <defs>
    <style>
      .cls-1 {
        fill: #fafdfc;
      }

      .cls-1, .cls-2 {
        stroke-width: 0px;
      }

      .cls-2 {
        fill: #89c4ec;
      }
    </style>
  </defs>
  <g id="_レイヤー_1-2" data-name="レイヤー 1">
    <g>
      <g>
        <path class="cls-1" d="m54.23,4.61C46.85.39,37.08,0,29.96,0S13.08.39,5.7,4.61C-1.68,8.83.17,16.73.3,17.52c.13.79,1.58,3.56,4.08,3.29,2.5-.27,8.98-2.37,10.3-3.16,1.32-.79,1.58-3.03.66-4.61l-1.21-2.11h15.84s15.84,0,15.84,0l-1.21,2.11c-.92,1.58-.66,3.82.66,4.61,1.32.79,7.8,2.9,10.3,3.16,2.5.26,3.95-2.5,4.08-3.29.13-.79,1.97-8.69-5.4-12.91Z"/>
        <path class="cls-1" d="m47.09,46.23h1.37c1.89,0,3.43-1.54,3.43-3.43v-4.16c0-3.16-.76-6.27-2.23-9.07l-8.38-16.05c-.2-.38-.59-.62-1.02-.62h-3.82c-.2,0-.35.16-.35.35v3.16c0,.2-.16.36-.36.36h-11.54c-.2,0-.36-.16-.36-.36v-3.15c0-.2-.16-.36-.36-.36h-3.82c-.43,0-.82.24-1.02.62l-8.38,16.05c-1.46,2.8-2.23,5.91-2.23,9.07v4.16c0,1.89,1.54,3.43,3.43,3.43h1.37s3.91,0,3.91,0h30.34Zm-7.58-10.66v4.31h-4.31v-4.31h4.31Zm0-6.82v4.31h-4.31s0-4.31,0-4.31h4.31Zm-4.31-2.51v-4.31h4.31v4.31h-4.31Zm-3.08,9.33v4.31h-4.31v-4.31h4.31Zm0-6.82v4.31h-4.31v-4.31h4.31Zm0-6.82v4.31h-4.31s0-4.31,0-4.31h4.31Zm-7.39,13.64v4.31h-4.31v-4.31h4.31Zm0-6.82v4.31h-4.31v-4.31h4.31Zm-4.31-2.51v-4.31h4.31v4.31s-4.31,0-4.31,0Z"/>
      </g>
      <g>
        <path class="cls-2" d="m54.23,4.61C46.85.39,37.08,0,29.96,0S13.08.39,5.7,4.61C-1.68,8.83.17,16.73.3,17.52c.13.79,1.58,3.56,4.08,3.29,2.5-.27,8.98-2.37,10.3-3.16,1.32-.79,1.58-3.03.66-4.61l-1.21-2.11h15.84s15.84,0,15.84,0l-1.21,2.11c-.92,1.58-.66,3.82.66,4.61,1.32.79,7.8,2.9,10.3,3.16,2.5.26,3.95-2.5,4.08-3.29.13-.79,1.97-8.69-5.4-12.91Z"/>
        <path class="cls-2" d="m47.09,46.23h1.37c1.89,0,3.43-1.54,3.43-3.43v-4.16c0-3.16-.76-6.27-2.23-9.07l-8.38-16.05c-.2-.38-.59-.62-1.02-.62h-3.82c-.2,0-.35.16-.35.35v3.16c0,.2-.16.36-.36.36h-11.54c-.2,0-.36-.16-.36-.36v-3.15c0-.2-.16-.36-.36-.36h-3.82c-.43,0-.82.24-1.02.62l-8.38,16.05c-1.46,2.8-2.23,5.91-2.23,9.07v4.16c0,1.89,1.54,3.43,3.43,3.43h1.37s3.91,0,3.91,0h30.34Zm-7.58-10.66v4.31h-4.31v-4.31h4.31Zm0-6.82v4.31h-4.31s0-4.31,0-4.31h4.31Zm-4.31-2.51v-4.31h4.31v4.31h-4.31Zm-3.08,9.33v4.31h-4.31v-4.31h4.31Zm0-6.82v4.31h-4.31v-4.31h4.31Zm0-6.82v4.31h-4.31s0-4.31,0-4.31h4.31Zm-7.39,13.64v4.31h-4.31v-4.31h4.31Zm0-6.82v4.31h-4.31v-4.31h4.31Zm-4.31-2.51v-4.31h4.31v4.31s-4.31,0-4.31,0Z"/>
      </g>
    </g>
  </g>
</svg>