<?xml version="1.0" encoding="UTF-8"?>
<svg id="_レイヤー_2" data-name="レイヤー 2" xmlns="http://www.w3.org/2000/svg" viewBox="0 0 410.19 340.34">
  <defs>
    <style>
      .cls-1 {
        fill: none;
      }

      .cls-1, .cls-2, .cls-3, .cls-4 {
        stroke-width: 0px;
      }

      .cls-2 {
        fill: #f2b059;
      }

      .cls-3 {
        fill: #732d11;
      }

      .cls-4 {
        fill: #5c2314;
      }
    </style>
  </defs>
  <g id="_レイヤー_1-2" data-name="レイヤー 1">
    <g>
      <path class="cls-3" d="m8.49,43.13c-.67,0-1.25-.22-1.73-.67-.48-.44-.71-1.03-.71-1.77v-22.22c-.25.4-.48.8-.71,1.2-.23.4-.47.77-.71,1.1-.37.55-.91.89-1.63,1.01-.72.12-1.39-.03-2-.46-.55-.37-.87-.9-.97-1.59-.09-.69.06-1.33.46-1.91.64-.98,1.34-2.17,2.09-3.56.75-1.4,1.49-2.85,2.21-4.37.72-1.52,1.37-2.99,1.96-4.42.58-1.43,1.03-2.66,1.33-3.7.21-.74.64-1.25,1.27-1.54.63-.29,1.29-.31,2-.07.64.21,1.12.61,1.43,1.2s.34,1.21.09,1.89c-.03.21-.09.42-.18.62-.09.2-.17.41-.23.62.4-.25.83-.37,1.29-.37h2.62c2.3,0,3.76.54,4.39,1.63.63,1.09.64,2.51.02,4.25-.37,1.01-.68,1.86-.92,2.53-.25.67-.57,1.47-.97,2.39-.25.67-.28,1.14-.11,1.4.17.26.59.45,1.26.58,1.01.12,1.77.51,2.28,1.15.51.64.7,1.79.57,3.45-.15,2.18-.45,4.26-.9,6.26-.44,1.99-1.04,3.88-1.77,5.66,1.23,1.32,2.75,2.28,4.58,2.88,1.82.6,4.15.93,6.97.99-.61-.03-1.14-.25-1.59-.67-.44-.41-.67-.96-.67-1.63v-1.89h-5.29c-.58,0-1.07-.2-1.47-.6-.4-.4-.6-.89-.6-1.47s.25-1.07.74-1.47c.49-.4,1.03-.6,1.61-.6h5.01v-2.21h-4.28c-.58,0-1.07-.2-1.47-.6-.4-.4-.6-.89-.6-1.47s.2-1.07.6-1.47c.4-.4.89-.6,1.47-.6h4.28v-2.16h-4.6c-.58,0-1.08-.19-1.49-.58-.41-.38-.62-.87-.62-1.45,0-.61.21-1.1.62-1.47.41-.37.91-.55,1.49-.55h4.6v-2.12h-6.3c-.52,0-.97-.19-1.36-.58-.38-.38-.58-.83-.58-1.36s.19-.97.58-1.36c.38-.38.83-.57,1.36-.57h6.3v-2.12h-4.32c-.58,0-1.08-.19-1.5-.58-.41-.38-.62-.87-.62-1.45,0-.61.21-1.1.62-1.47.41-.37.91-.55,1.5-.55h4.32v-1.89c0-.71.23-1.26.69-1.68s1.01-.62,1.66-.62,1.19.21,1.63.62c.44.41.67.97.67,1.68v1.89c1.84,0,3.29.18,4.35.55,1.06.37,1.81,1,2.25,1.91.44.9.68,2.14.71,3.7h1.43c.52,0,.97.19,1.33.57.37.38.55.84.55,1.36s-.18.97-.55,1.36c-.37.38-.81.58-1.33.58h-1.43c-.03,1.56-.27,2.79-.71,3.68-.44.89-1.2,1.53-2.25,1.91-1.06.38-2.51.58-4.35.58v2.16h5.29c.58,0,1.07.2,1.47.6.4.4.6.89.6,1.47s-.2,1.07-.6,1.47c-.4.4-.89.6-1.47.6h-5.29v2.21h7.18c.58,0,1.07.2,1.47.6.4.4.6.89.6,1.47s-.2,1.07-.6,1.47c-.4.4-.89.6-1.47.6h-7.18v1.89c0,.71-.22,1.26-.67,1.68-.44.41-.99.62-1.63.62h.74c1.81,0,3.45-.02,4.92-.05,1.47-.03,2.82-.08,4.05-.14.83-.06,1.5.12,2.02.53.52.41.77,1.02.74,1.82-.03.8-.33,1.39-.9,1.77-.57.38-1.25.57-2.05.57h-8.74c-3.34,0-6.18-.33-8.51-.99-2.33-.66-4.31-1.74-5.93-3.24-.43.71-.88,1.4-1.36,2.07-.48.67-.99,1.32-1.54,1.93-.4.49-.94.76-1.63.81-.69.05-1.3-.15-1.82-.58-.52-.43-.78-.96-.78-1.59s.2-1.17.6-1.63c.67-.8,1.29-1.62,1.84-2.46.55-.84,1.06-1.71,1.52-2.6-1.04-1.81-1.98-4-2.81-6.58-.21-.61-.18-1.18.11-1.7s.71-.86,1.27-1.01c.61-.15,1.18-.1,1.7.16.52.26.87.7,1.06,1.31.15.43.29.84.41,1.24.12.4.26.8.41,1.2.21-.8.39-1.59.53-2.37.14-.78.25-1.56.34-2.32.12-.95.07-1.59-.16-1.91-.23-.32-.84-.54-1.82-.67-1.17-.15-1.98-.65-2.44-1.5-.46-.84-.38-2.09.23-3.75.34-.89.67-1.74.99-2.55.32-.81.65-1.69.99-2.65.21-.55.25-.95.12-1.2-.14-.25-.51-.37-1.13-.37h-1.1c-.52,0-1-.16-1.43-.48-.43-.32-.72-.73-.87-1.22-.12.4-.29.83-.51,1.29v32.25c0,.74-.24,1.33-.71,1.77-.48.44-1.05.67-1.73.67ZM34.16,10.43h2.85c-.03-.86-.23-1.43-.6-1.7-.37-.28-1.12-.41-2.25-.41v2.12Zm0,5.98c1.13,0,1.89-.14,2.25-.41.37-.28.57-.84.6-1.7h-2.85v2.12Z"/>
      <path class="cls-3" d="m64.08,39.32c-.64.11-1.22-.04-1.74-.44s-.83-.93-.94-1.6c-.29-2.35-.79-4.97-1.5-7.86-.71-2.89-1.55-5.75-2.54-8.58-1.47.51-2.87.99-4.22,1.46-1.35.47-2.57.9-3.66,1.3-.61.21-1.22.17-1.82-.12-.6-.29-1.01-.75-1.22-1.36-.21-.61-.17-1.22.12-1.82.29-.6.75-1.01,1.36-1.22,1.09-.37,2.31-.79,3.64-1.24,1.33-.45,2.72-.91,4.16-1.36-.43-1.12-.88-2.2-1.36-3.24s-.97-2.01-1.48-2.92c-.32-.56-.39-1.16-.22-1.8.17-.64.55-1.12,1.14-1.44.59-.32,1.2-.39,1.84-.2.64.19,1.12.57,1.44,1.16.53,1.01,1.06,2.11,1.58,3.3.52,1.19,1.03,2.42,1.54,3.7,1.09-.35,2.18-.69,3.26-1.02,1.08-.33,2.11-.63,3.1-.9-.67-.13-1.2-.48-1.6-1.04l-2.36-3.6c-.37-.56-.49-1.17-.36-1.82.13-.65.48-1.15,1.04-1.5.53-.37,1.13-.49,1.78-.34.65.15,1.17.49,1.54,1.02l2.36,3.6c.35.51.48,1.05.4,1.64-.08.59-.35,1.08-.8,1.48l.92-.28c2.61-.72,4.89-.93,6.84-.62,1.95.31,3.49,1.07,4.62,2.28,1.13,1.21,1.77,2.85,1.9,4.9.11,1.63-.13,3.08-.7,4.36-.57,1.28-1.4,2.33-2.48,3.14-1.08.81-2.33,1.36-3.76,1.64-1.43.28-2.95.25-4.58-.1-1.63-.35-3.25-1.05-4.88-2.12-.56-.37-.92-.88-1.08-1.52s-.07-1.24.28-1.8c.37-.56.88-.92,1.52-1.08.64-.16,1.24-.05,1.8.32,1.2.8,2.35,1.31,3.44,1.54,1.09.23,2.07.2,2.94-.08.87-.28,1.53-.77,2-1.46.47-.69.66-1.55.58-2.56-.11-1.17-.71-2.01-1.8-2.52-1.09-.51-2.93-.45-5.52.16-1.28.29-2.67.67-4.18,1.12-1.51.45-3.05.93-4.62,1.44.69,2.03,1.33,4.08,1.92,6.16.59,2.08,1.09,4.07,1.52,5.96.43,1.89.73,3.63.92,5.2.08.67-.08,1.26-.48,1.78-.4.52-.93.82-1.6.9Z"/>
      <path class="cls-3" d="m99.32,37.72c-.67-.08-1.2-.38-1.6-.9-.4-.52-.56-1.11-.48-1.78.11-.67.42-1.2.94-1.6.52-.4,1.1-.56,1.74-.48.85.11,1.6.13,2.24.06.64-.07,1.21-.34,1.7-.82.49-.48.93-1.27,1.3-2.36.37-1.09.69-2.6.96-4.52.24-1.68.25-2.99.04-3.94-.21-.95-.72-1.6-1.52-1.96-.8-.36-1.99-.49-3.56-.38-.64,2.19-1.4,4.37-2.28,6.56-.88,2.19-1.86,4.26-2.94,6.22s-2.25,3.73-3.5,5.3c-.4.51-.93.81-1.58.9-.65.09-1.25-.06-1.78-.46-.51-.43-.81-.97-.9-1.62-.09-.65.07-1.23.5-1.74,1.57-1.92,3.01-4.17,4.3-6.76,1.29-2.59,2.38-5.25,3.26-8-.83.11-1.67.21-2.54.3-.87.09-1.73.18-2.58.26-.64.05-1.22-.12-1.74-.52-.52-.4-.82-.93-.9-1.6-.05-.67.13-1.26.54-1.78.41-.52.94-.81,1.58-.86,1.15-.13,2.31-.25,3.48-.34,1.17-.09,2.32-.17,3.44-.22.56-2.45.91-4.75,1.04-6.88.05-.67.32-1.22.8-1.66s1.05-.63,1.72-.58c.67.03,1.22.29,1.66.78.44.49.63,1.07.58,1.74-.08.99-.21,2.01-.38,3.08-.17,1.07-.38,2.16-.62,3.28,3.65.05,6.12,1.03,7.4,2.92,1.28,1.89,1.65,4.76,1.12,8.6-.43,3.31-1.11,5.87-2.06,7.68-.95,1.81-2.19,3.02-3.72,3.62-1.53.6-3.42.75-5.66.46Zm22.48-11.84c-.59.32-1.19.39-1.82.2-.63-.19-1.11-.56-1.46-1.12-.45-.85-1.03-1.76-1.72-2.72-.69-.96-1.41-1.89-2.14-2.78-.73-.89-1.43-1.66-2.1-2.3-.48-.45-.73-1-.76-1.64-.03-.64.19-1.2.64-1.68.45-.48,1.01-.73,1.66-.76.65-.03,1.22.19,1.7.64.85.8,1.71,1.71,2.58,2.74.87,1.03,1.68,2.07,2.44,3.14.76,1.07,1.39,2.08,1.9,3.04.35.59.43,1.2.24,1.84-.19.64-.57,1.11-1.16,1.4Z"/>
      <path class="cls-3" d="m135.36,37.4c-.67.11-1.27-.03-1.8-.4-.53-.37-.87-.88-1-1.52-.24-1.36-.43-2.94-.56-4.74-.13-1.8-.2-3.7-.2-5.7s.05-4.01.16-6.04c.11-2.03.27-3.97.5-5.82.23-1.85.5-3.51.82-4.98.13-.64.48-1.14,1.04-1.5.56-.36,1.16-.47,1.8-.34.64.16,1.14.51,1.5,1.06.36.55.47,1.15.34,1.82-.43,1.89-.76,3.95-1,6.16-.24,2.21-.39,4.46-.46,6.74-.07,2.28-.03,4.49.1,6.64.13,2.15.36,4.1.68,5.86.13.64,0,1.23-.38,1.76-.39.53-.9.87-1.54,1Zm16.4-2.16c-3.47,0-6.05-.63-7.74-1.88-1.69-1.25-2.71-3.09-3.06-5.52-.11-.64.03-1.23.42-1.76.39-.53.91-.85,1.58-.96.64-.08,1.23.07,1.76.46.53.39.85.91.96,1.58.16,1.15.71,2,1.64,2.56.93.56,2.45.84,4.56.84s4.41-.31,7.24-.92c.64-.16,1.24-.05,1.8.32s.91.88,1.04,1.52c.13.64.01,1.23-.36,1.78-.37.55-.88.9-1.52,1.06-1.44.35-2.87.59-4.3.72-1.43.13-2.77.2-4.02.2Zm-7.32-19.8c-.64.13-1.23.02-1.78-.34-.55-.36-.89-.87-1.02-1.54-.13-.64-.02-1.24.34-1.8s.87-.89,1.54-1c1.49-.29,3.16-.49,5-.58,1.84-.09,3.67-.11,5.48-.04,1.81.07,3.41.22,4.8.46.67.11,1.19.43,1.56.98.37.55.49,1.15.36,1.82-.11.67-.43,1.18-.98,1.54-.55.36-1.14.49-1.78.38-2.16-.37-4.4-.55-6.72-.54-2.32.01-4.59.23-6.8.66Z"/>
    </g>
    <g>
      <path class="cls-3" d="m21.44,120.64c-.77,0-1.43-.25-1.98-.76-.55-.51-.83-1.19-.83-2.05v-5.7H5.38c-.64,0-1.19-.23-1.63-.69-.45-.46-.67-1.01-.67-1.66s.22-1.2.67-1.66c.44-.46.99-.69,1.63-.69h13.25v-3.59H3.31c-.64,0-1.19-.22-1.63-.67-.44-.44-.67-.99-.67-1.63s.22-1.14.67-1.59.99-.67,1.63-.67h8.42c-.21-.43-.41-.85-.6-1.27s-.32-.7-.41-.85c-.31-.61-.34-1.23-.11-1.86.23-.63.64-1.11,1.22-1.45H2.3c-.64,0-1.19-.22-1.63-.67-.44-.44-.67-.99-.67-1.63s.22-1.2.67-1.66c.44-.46.99-.69,1.63-.69h16.33v-3.22H7.27c-.64,0-1.19-.22-1.63-.67-.44-.44-.67-.99-.67-1.63s.22-1.14.67-1.59c.44-.44.99-.67,1.63-.67h11.36v-2.25c0-.86.28-1.54.83-2.05.55-.51,1.21-.76,1.98-.76s1.47.25,2.02.76c.55.51.83,1.19.83,2.05v2.25h11.41c.61,0,1.14.22,1.59.67.44.44.67.97.67,1.59,0,.64-.22,1.19-.67,1.63s-.97.67-1.59.67h-11.41v3.22h16.42c.64,0,1.2.23,1.66.69.46.46.69,1.01.69,1.66s-.23,1.19-.69,1.63c-.46.45-1.01.67-1.66.67h-9.48c.58.34.98.82,1.2,1.45.21.63.17,1.25-.14,1.86-.09.18-.24.48-.44.87-.2.4-.42.81-.67,1.24h8.6c.61,0,1.15.22,1.61.67.46.44.69.97.69,1.59,0,.64-.23,1.19-.69,1.63-.46.45-1,.67-1.61.67h-15.5v3.59h13.48c.64,0,1.2.23,1.66.69s.69,1.01.69,1.66-.23,1.2-.69,1.66-1.01.69-1.66.69h-13.48v5.7c0,.86-.28,1.54-.83,2.05-.55.51-1.23.76-2.02.76Zm-3.86-21.34h7.73c.18-.43.39-.94.62-1.52.23-.58.45-1.13.67-1.66.21-.52.37-.87.46-1.06.21-.52.54-.92.97-1.2h-13.06c.46.31.8.71,1.01,1.2.09.18.23.54.41,1.06s.39,1.07.62,1.66c.23.58.42,1.09.57,1.52Z"/>
      <path class="cls-3" d="m74.25,113.66c-3.65.4-6.83.43-9.54.08-2.71-.35-4.91-1.28-6.62-2.8-1.15-1.07-2-2.37-2.56-3.9-.56-1.53-.84-3.43-.84-5.7v-3.68c-1.28.16-2.49.33-3.64.5-1.15.17-2.21.35-3.2.54-.64.11-1.23-.03-1.76-.4-.53-.37-.85-.88-.96-1.52-.11-.64.02-1.23.38-1.76.36-.53.86-.85,1.5-.96,1.09-.16,2.29-.33,3.58-.5,1.29-.17,2.66-.34,4.1-.5v-6.68c0-.67.23-1.23.7-1.7s1.03-.7,1.7-.7,1.23.23,1.68.7c.45.47.68,1.03.68,1.7v6.2c1.39-.13,2.79-.25,4.22-.36,1.43-.11,2.83-.21,4.22-.32.13-1.15.23-2.25.3-3.32.07-1.07.11-2.07.14-3,.03-.67.27-1.23.74-1.68.47-.45,1.03-.67,1.7-.64.67.03,1.23.27,1.7.74.47.47.69,1.03.66,1.7-.03.91-.07,1.86-.14,2.86-.07,1-.15,2.02-.26,3.06,1.17-.08,2.32-.14,3.44-.18s2.19-.07,3.2-.1c.67,0,1.23.23,1.68.7.45.47.68,1.02.68,1.66s-.23,1.19-.68,1.66c-.45.47-1.01.7-1.68.7-2.21-.05-4.59-.01-7.12.12-.19,1.31-.39,2.58-.62,3.82-.23,1.24-.46,2.37-.7,3.38-.16.64-.52,1.13-1.08,1.46-.56.33-1.16.43-1.8.3-.67-.16-1.17-.52-1.5-1.08-.33-.56-.43-1.16-.3-1.8.21-.88.41-1.81.6-2.8.19-.99.35-1.99.48-3-1.31.08-2.62.18-3.94.3-1.32.12-2.63.25-3.94.38v4.2c0,1.49.16,2.73.48,3.72.32.99.8,1.77,1.44,2.36,1.01.91,2.48,1.46,4.4,1.66s4.59.13,8-.22c.67-.08,1.26.09,1.78.52.52.43.81.97.86,1.64.08.67-.09,1.26-.5,1.78-.41.52-.97.81-1.66.86Z"/>
      <path class="cls-3" d="m94.05,114.26c-.67.11-1.27-.03-1.8-.4-.53-.37-.87-.88-1-1.52-.24-1.36-.43-2.94-.56-4.74-.13-1.8-.2-3.7-.2-5.7s.05-4.01.16-6.04c.11-2.03.27-3.97.5-5.82.23-1.85.5-3.51.82-4.98.13-.64.48-1.14,1.04-1.5.56-.36,1.16-.47,1.8-.34.64.16,1.14.51,1.5,1.06.36.55.47,1.15.34,1.82-.43,1.89-.76,3.95-1,6.16-.24,2.21-.39,4.46-.46,6.74-.07,2.28-.03,4.49.1,6.64.13,2.15.36,4.1.68,5.86.13.64,0,1.23-.38,1.76-.39.53-.9.87-1.54,1Zm16.4-2.16c-3.47,0-6.05-.63-7.74-1.88-1.69-1.25-2.71-3.09-3.06-5.52-.11-.64.03-1.23.42-1.76.39-.53.91-.85,1.58-.96.64-.08,1.23.07,1.76.46.53.39.85.91.96,1.58.16,1.15.71,2,1.64,2.56.93.56,2.45.84,4.56.84s4.41-.31,7.24-.92c.64-.16,1.24-.05,1.8.32.56.37.91.88,1.04,1.52.13.64.01,1.23-.36,1.78-.37.55-.88.9-1.52,1.06-1.44.35-2.87.59-4.3.72-1.43.13-2.77.2-4.02.2Zm-7.32-19.8c-.64.13-1.23.02-1.78-.34-.55-.36-.89-.87-1.02-1.54-.13-.64-.02-1.24.34-1.8s.87-.89,1.54-1c1.49-.29,3.16-.49,5-.58,1.84-.09,3.67-.11,5.48-.04,1.81.07,3.41.22,4.8.46.67.11,1.19.43,1.56.98.37.55.49,1.15.36,1.82-.11.67-.43,1.18-.98,1.54-.55.36-1.14.49-1.78.38-2.16-.37-4.4-.55-6.72-.54-2.32.01-4.59.23-6.8.66Z"/>
    </g>
    <path class="cls-1" d="m202.77,239.34h4.74c.33,0,.62.28.62.62v2.74c0,.33-.28.62-.62.62h-4.74c-.33,0-.62-.28-.62-.62v-2.74c0-.33.28-.62.62-.62Z"/>
    <path class="cls-1" d="m261.75,260.35c1.38-2.41,2.51-4.77,3.43-7.05.08-.13.08-.26,0-.38-.08-.13-.21-.18-.38-.18h-20.33s-.23.05-.31.15c-.08.1-.08.23,0,.33,1.46,2.46,2.51,4.67,3.18,6.66.21.46.05.77-.49.92v.05h14.02c.41,0,.72-.18.87-.56v.05Z"/>
    <path class="cls-1" d="m202.77,247.74h4.74c.33,0,.62.28.62.62v2.82c0,.33-.28.62-.62.62h-4.74c-.33,0-.62-.28-.62-.62v-2.82c0-.33.28-.62.62-.62Z"/>
    <path class="cls-1" d="m180.45,256.66h-3.49c-.21,0-.36.1-.44.31l-.13.18c-.28.67-.77,1.15-1.44,1.49-.41.21-.85.31-1.31.31-.26,0-.49,0-.74-.05-.62-.15-1.08-.54-1.38-1.13-.28-.59-.28-1.15,0-1.74,2.02-4.41,4.31-9.71,6.79-15.89.05-.13,0-.26-.05-.38-.08-.13-.18-.18-.31-.18h-1.44c-1.08,0-2-.38-2.77-1.15-.77-.77-1.15-1.72-1.15-2.85h-.05s-.05-.05-.05,0c-.87,2.33-1.82,4.64-2.87,6.92-.15.38-.26.77-.26,1.18v39.17s.05.23.18.28.23.05.31-.03c2.13-1.74,3.95-4,5.49-6.74.21-.38.21-.74,0-1.13-1.49-2.82-2.74-6.23-3.74-10.23-.18-.67-.08-1.28.26-1.87.33-.59.82-.95,1.49-1.13.62-.21,1.2-.15,1.74.18s.9.82,1.05,1.44c.54,2.13,1.15,4.02,1.82,5.74.05.08.1.13.23.13s.18-.05.23-.13c1.15-3.59,2.02-7.61,2.61-12.1,0-.15-.05-.31-.15-.44s-.23-.18-.41-.18l-.03.03Z"/>
    <path class="cls-4" d="m214.56,243.31h-.95c-.26,0-.38-.13-.38-.38v-2.61c0-1.49-.54-2.77-1.59-3.84s-2.33-1.59-3.84-1.59h-5.18c-.33,0-.49-.15-.49-.49v-1.74c0-.74-.28-1.38-.82-1.9-.54-.51-1.18-.77-1.9-.77s-1.36.26-1.87.77c-.51.51-.77,1.15-.77,1.9v1.74c0,.33-.15.49-.49.49h-6c-.62,0-1.15.21-1.59.67-.44.44-.67.95-.67,1.56s.23,1.13.67,1.56.97.67,1.59.67h5.87c.41,0,.62.21.62.62v2.74c0,.41-.21.62-.62.62h-10.1c-.62,0-1.15.23-1.56.67-.41.44-.62.95-.62,1.56s.21,1.13.62,1.56.92.67,1.56.67h10.1c.41,0,.62.21.62.62v2.82c0,.41-.21.62-.62.62h-5.87c-.62,0-1.15.23-1.59.67s-.67.95-.67,1.56.23,1.13.67,1.56.97.67,1.59.67h5.87c.41,0,.62.21.62.62v2.82c0,.41-.21.62-.62.62h-6.87c-.59,0-1.1.21-1.54.67s-.67.95-.67,1.56.21,1.13.67,1.56c.44.44.95.67,1.54.67h6.87c.41,0,.62.21.62.62v2.92c0,.41-.21.62-.62.62h-8.54c-.62,0-1.15.23-1.59.67s-.67.95-.67,1.56.23,1.13.67,1.56.97.67,1.59.67h8.54c.41,0,.62.21.62.62v3.36c0,.74.26,1.38.77,1.9.51.51,1.15.77,1.87.77s1.36-.26,1.9-.77c.54-.51.82-1.15.82-1.9v-3.36c0-.41.21-.62.62-.62h10.53c.62,0,1.15-.21,1.59-.67.44-.44.67-.95.67-1.56s-.23-1.13-.67-1.56-.97-.67-1.59-.67h-10.53c-.41,0-.62-.21-.62-.62v-2.92c0-.41.21-.62.62-.62h8.87c.59,0,1.1-.23,1.54-.67s.67-.95.67-1.56-.21-1.13-.67-1.56-.95-.67-1.54-.67h-8.87c-.41,0-.62-.21-.62-.62v-2.82c0-.41.21-.62.62-.62h5.05c1.49,0,2.77-.54,3.84-1.59,1.05-1.05,1.59-2.33,1.59-3.84v-2.69c0-.26.13-.38.38-.38h.95c.59,0,1.1-.21,1.54-.67.44-.44.67-.95.67-1.56s-.23-1.13-.67-1.56-.95-.67-1.54-.67Zm-6.43,7.87c0,.41-.21.62-.62.62h-4.74c-.41,0-.62-.21-.62-.62v-2.82c0-.41.21-.62.62-.62h4.74c.41,0,.62.21.62.62v2.82Zm0-8.48c0,.41-.21.62-.62.62h-4.74c-.41,0-.62-.21-.62-.62v-2.74c0-.41.21-.62.62-.62h4.74c.41,0,.62.21.62.62v2.74Z"/>
    <path class="cls-4" d="m214.2,281.73h-14.79c-3.95,0-7.33-.41-10.18-1.26-2.82-.82-5.23-2.31-7.18-4.43-.28-.33-.36-.69-.18-1.05,2.2-5.43,3.69-12.35,4.43-20.71.05-.46-.08-.87-.38-1.2s-.64-.56-1.05-.67c-.59-.13-1.64-.18-3.18-.18h-2.56s-.21-.05-.28-.13c-.05-.08-.08-.18-.03-.31,2.33-5.28,4.33-10.12,6-14.53.21-.46.21-.92-.03-1.41-.23-.49-.59-.79-1.1-.97l-1.05-.26c-.54-.15-1.08-.15-1.61,0-.05.05-.1.05-.18.05h-7.74c-.26,0-.33-.13-.26-.38.05-.13.08-.26.13-.38.13-.28.18-.59.18-.87,0-.41-.1-.82-.31-1.26-.38-.67-.92-1.1-1.61-1.31-.28-.08-.56-.13-.82-.13-.46,0-.9.13-1.31.38-.67.38-1.13.92-1.38,1.61-2.33,7.15-5.36,13.33-9.1,18.53-.74,1.05-1.13,2.15-1.13,3.31,0,.79.18,1.59.56,2.44.28.67.82,1.05,1.56,1.13.13.08.26.13.38.13.59,0,1.05-.28,1.44-.82.72-.95,1.49-2.08,2.31-3.36.05-.08.1-.1.18-.05s.13.1.13.18v31.5c0,.74.26,1.38.77,1.9.51.51,1.15.77,1.87.77s1.36-.26,1.87-.77c.51-.51.77-1.15.77-1.9v-1.26s.05-.13.13-.15c.08,0,.15,0,.26.03q-.05.05,0,.05c.95.95,2.02,1.51,3.26,1.69.21.05.38.05.56.05,1,0,1.87-.38,2.61-1.18.95-1.08,1.82-2.23,2.61-3.43.21-.38.46-.41.74-.13,2.28,2.28,5,3.87,8.18,4.77,3.15.9,7,1.33,11.48,1.33h13.05c.82,0,1.59-.28,2.26-.82.67-.54,1.15-1.2,1.44-2,.08-.26.13-.49.13-.74,0-.38-.1-.72-.31-1.05-.38-.54-.87-.82-1.49-.82l-.05.08Zm-35.81-12.35s-.1.13-.23.13-.18-.05-.23-.13c-.67-1.69-1.26-3.61-1.82-5.74-.18-.62-.51-1.1-1.05-1.44s-1.13-.38-1.74-.18c-.67.18-1.15.54-1.49,1.13s-.41,1.2-.26,1.87c1,4,2.26,7.41,3.74,10.23.21.38.21.74,0,1.13-1.54,2.74-3.36,5-5.49,6.74-.08.08-.18.1-.31.03-.13-.05-.18-.15-.18-.28v-39.17c0-.41.08-.82.26-1.18,1.05-2.28,2-4.59,2.87-6.92q0-.05.05,0h.05c0,1.13.38,2.08,1.15,2.85s1.69,1.15,2.77,1.15h1.44s.23.05.31.18c.08.13.1.26.05.38-2.49,6.2-4.77,11.51-6.79,15.89-.28.59-.28,1.15,0,1.74.28.59.74.95,1.38,1.13.26.05.49.05.74.05.46,0,.9-.1,1.31-.31.67-.33,1.15-.82,1.44-1.49l.13-.18c.08-.21.23-.31.44-.31h3.49c.15,0,.31.05.41.18.1.13.15.28.15.44-.59,4.49-1.46,8.54-2.61,12.1l.03-.03Z"/>
    <path class="cls-4" d="m277.46,277.14c.51-.51.77-1.15.77-1.87s-.26-1.36-.77-1.87c-.51-.51-1.13-.77-1.85-.77h-17.84c-.41,0-.62-.21-.62-.62v-5.23c0-.41.21-.62.62-.62h20.84c.74,0,1.36-.26,1.87-.77.49-.51.74-1.15.74-1.87s-.26-1.33-.74-1.85c-.49-.49-1.13-.74-1.87-.74h-10.97s-.23-.05-.28-.18c-.05-.13-.08-.26-.03-.38,1.08-1.59,2.59-3.95,4.56-7.1.21-.33.51-.49.92-.49h7.48c.74,0,1.38-.26,1.9-.77s.77-1.15.77-1.9-.26-1.36-.77-1.87c-.33-.31-.69-.49-1.1-.62h-53.49c-.41.13-.79.31-1.1.62-.51.49-.77,1.13-.77,1.87s.26,1.38.77,1.9c.51.51,1.15.77,1.9.77h10.74c-.41.13-.72.38-.87.82s-.15.82.05,1.18c1.05,1.92,1.9,3.77,2.56,5.56.05.15,0,.31-.05.44-.08.13-.21.18-.38.18h-10.41c-.74,0-1.38.26-1.87.74s-.74,1.1-.74,1.85.26,1.36.74,1.87,1.13.77,1.87.77h20.4c.41,0,.62.21.62.62v5.23c0,.41-.21.62-.62.62h-16.89c-.74,0-1.38.26-1.9.77-.51.51-.77,1.15-.77,1.87s.26,1.36.77,1.87c.51.51,1.15.77,1.9.77h16.89c.41,0,.62.21.62.62v6.54c0,.82.31,1.54.9,2.15s1.31.9,2.15.9,1.54-.31,2.15-.9c.59-.62.9-1.33.9-2.15v-6.54c0-.41.21-.62.62-.62h17.84c.72,0,1.31-.26,1.85-.77v-.03Zm-31.09-16.25v-.05c.54-.15.72-.49.49-.92-.67-2-1.72-4.23-3.18-6.66-.08-.13-.08-.23,0-.33s.18-.15.31-.15h20.33c.15,0,.28.05.38.18.08.13.08.26,0,.38-.92,2.28-2.05,4.64-3.43,7.05-.15.38-.46.56-.87.56h-14.02v-.05Z"/>
    <path class="cls-4" d="m60.64,298.57c-.82-.64-1.64-.59-2.46.13s-.97,1.54-.44,2.44c1.05,1.74,1.67,2.97,1.9,3.69.23.64.44,1.1.62,1.38.36.54.85.82,1.49.85s1.18-.18,1.61-.67c.44-.46.56-1.03.41-1.67-.69-2.9-1.74-4.97-3.13-6.15Z"/>
    <path class="cls-4" d="m60.16,332.64c-.33-.36-.79-.54-1.41-.59-.59-.05-1.13-.05-1.61,0-.49.05-1.08.13-1.77.26-.72.13-1.18.21-1.41.23-4.08.51-7.41.67-9.95.49-3.95-.28-6.33-1.26-7.1-2.95-.54-1.38-.59-2.72-.13-3.95.46-1.26,1.23-2.36,2.31-3.31,1.46-1.23,4.05-2.69,7.82-4.41.9-.38,2.31-1,4.28-1.85,1.97-.85,3.49-1.51,4.54-1.95,1.44-.56,2.05-1.46,1.9-2.69-.05-.56-.33-1.05-.79-1.46s-.97-.64-1.54-.67c-.44,0-.9.08-1.41.26-.49.18-1.05.44-1.72.77-.64.33-1.08.54-1.26.64l-4.56,1.9c-.26-1-.38-2.1-.44-3.31-.03-1.18,0-2.49.08-3.9.08-1.41.1-2.51.08-3.31-.03-1.61-.51-3.23-1.46-4.87s-2.15-2.13-3.64-1.49c-.67.31-1.1.82-1.33,1.51s-.15,1.36.18,2c.1.15.28.36.56.62.28.26.49.46.56.62.18.38.28.97.28,1.74.03.82,0,2.02,0,3.59s-.05,2.97,0,4.25c.05,1.26.21,2.46.46,3.61.03.1.08.26.18.46.08.21.1.36.08.44-.03.08-.15.15-.33.26l-1.18.56c-.51.31-1.28.79-2.33,1.44-1.9,1.23-3.36,2.54-4.36,3.95-1.13,1.54-1.82,3.31-2.05,5.28-.23,1.97.08,3.82.97,5.56,1.46,2.95,4.51,4.72,9.15,5.31,3.31.44,7.56.36,12.71-.28.23-.03.64-.08,1.23-.13s1.1-.08,1.49-.13c.38-.03.87-.13,1.44-.28s.97-.33,1.28-.54c.31-.21.54-.51.74-.9.18-.38.23-.85.15-1.36-.1-.59-.31-1.08-.64-1.44h-.05Z"/>
    <path class="cls-4" d="m54.18,305.49s.13.36.38,1.03c.26.64.49,1.1.72,1.36.79.79,1.59.9,2.38.28.79-.59,1.08-1.41.79-2.41-.95-3.23-2.05-5.2-3.28-5.92-.92-.51-1.72-.33-2.41.51s-.69,1.67,0,2.46c.38.44.85,1.33,1.44,2.69h-.03Z"/>
    <path class="cls-4" d="m97.09,304.54c2.31.05,3.59-.64,3.84-2.08.15-.77-.03-1.44-.56-2.05-.54-.59-1.2-.87-2.05-.79-1.36.13-2.82.03-4.36-.28s-2.87-.82-3.97-1.51c-.1-.08-.28-.18-.56-.36-.28-.18-.49-.28-.62-.36s-.31-.15-.54-.23-.44-.15-.59-.15-.36.05-.62.13c-.26.08-.49.21-.72.36-.67.54-.97,1.2-.92,2.02.05.79.38,1.49,1.03,2.02,2.26,2.05,5.79,3.15,10.66,3.31l-.03-.03Z"/>
    <path class="cls-4" d="m104.91,310.9c-1.28-1.44-2.9-2.36-4.87-2.77-.72-.23-1.69-.28-2.87-.18-1.18.1-2.1.21-2.77.33s-1.59.33-2.77.59c-1.18.28-2.13.46-2.82.59-.9.15-1.64.21-2.23.15-.28-.03-.64-.15-1.1-.33-.44-.18-.77-.31-.95-.38-.72-.18-1.41,0-2.05.49-.64.51-.92,1.2-.9,2.02.03.85.38,1.54,1.1,2.05.69.51,1.56.79,2.59.87s1.95.1,2.79.05,1.64-.13,2.38-.26c.38-.05,1.18-.26,2.41-.59s2.2-.56,2.92-.72c.72-.13,1.56-.15,2.56-.05s1.82.41,2.44.92c.92.67,1.46,1.67,1.64,3s.13,2.59-.15,3.77-.62,2.31-1.08,3.41c-1.44,3.49-3.79,6.25-7.1,8.3-1.61,1.05-3.2,1.77-4.79,2.18-.1.03-.31.08-.64.15-.33.05-.56.13-.69.15-.13.05-.33.13-.59.23s-.46.21-.59.31c-.13.1-.26.23-.41.38s-.26.33-.33.54c-.08.21-.13.46-.13.74-.03.82.15,1.44.59,1.85s1,.62,1.72.59c.72,0,1.38-.08,2-.21s1.2-.31,1.79-.51c3.08-1.1,5.79-2.79,8.2-5.02,2.44-2.26,4.31-4.92,5.59-8.05,1.31-3.13,1.74-6.23,1.33-9.33-.26-2.05-1.03-3.79-2.31-5.23l.08-.05Z"/>
    <path class="cls-4" d="m156.07,304.39c.23.67.44,1.13.62,1.44.36.54.85.82,1.49.85s1.18-.21,1.61-.69c.44-.49.56-1.05.41-1.69-.69-2.9-1.74-4.95-3.13-6.13-.82-.64-1.64-.59-2.46.13-.82.72-.97,1.51-.44,2.44,1.05,1.72,1.67,2.92,1.9,3.64v.03Z"/>
    <path class="cls-4" d="m150.64,305.11c.05.15.15.41.26.74.1.33.23.64.36.92s.26.51.44.72c.79.77,1.59.85,2.41.26s1.1-1.38.79-2.38c-.95-3.23-2.05-5.2-3.31-5.92-.9-.51-1.69-.33-2.38.49-.72.85-.72,1.64,0,2.44.41.46.9,1.38,1.46,2.74h-.03Z"/>
    <path class="cls-4" d="m159.48,318.9c-1.26-.85-2.67-1.51-4.25-2.02-1.56-.49-2.87-.49-3.92,0-.54.26-.92.67-1.15,1.2-.23.56-.28,1.1-.13,1.69.31,1.05,1.18,1.64,2.61,1.74,1.23.1,2.54.49,3.95,1.2,1.38.72,2.26,1.59,2.56,2.64-.59.05-1.1.26-1.46.62-.38.36-.59.77-.62,1.23-.03.49.05.95.21,1.41.18.46.49.85.95,1.13s1,.44,1.59.41c1.38-.05,2.51-.49,3.36-1.28s1.2-1.87,1.05-3.23c-.36-2.74-1.92-5-4.74-6.74Z"/>
    <path class="cls-4" d="m145.25,316.05s-.21-.21-.44-.41c-.23-.21-.41-.38-.56-.54-.15-.15-.36-.36-.62-.64-.26-.26-.46-.51-.59-.74-.15-.23-.26-.46-.36-.72s-.13-.49-.1-.72.13-.41.28-.56c.49-.49,1.38-.9,2.69-1.26,1.33-.36,2.2-.79,2.67-1.31.79-1.05,1-2.05.64-3.05-.36-1-1.08-1.77-2.15-2.36-2.13-1.13-3.72-2.36-4.84-3.64-.15-.15-.36-.41-.62-.77-.26-.36-.44-.59-.56-.77-.64-.72-1.46-.97-2.51-.77-.92.23-1.41.85-1.51,1.85-.1.85.1,1.64.62,2.36.95,1.54,2.49,3.02,4.64,4.46-1.72.87-2.92,2.08-3.64,3.56s-.74,3.08-.05,4.79c.46,1.18,1.56,2.61,3.28,4.36s2.82,3.02,3.31,3.9c.56.95,1,1.92,1.28,2.95.28,1,.28,2.05,0,3.08-.28,1.05-.95,1.82-2,2.33-1.36.59-2.85.77-4.43.51s-2.97-.85-4.15-1.74c-.77-.44-1.54-.56-2.31-.41-.77.18-1.31.67-1.61,1.44-.31.79-.15,1.56.46,2.33.87,1.1,2.18,1.95,3.9,2.49s3.38.82,5.02.82c1.95,0,3.77-.41,5.41-1.23s2.9-2.05,3.79-3.64c1.67-3.13,1.41-6.69-.77-10.66-.9-1.61-2.28-3.38-4.18-5.31l.03.03Z"/>
    <path class="cls-4" d="m136.44,324.79s.28-.15.56-.31c.79-.41,1.33-1,1.67-1.74.1-.18.13-.38.13-.62s-.05-.46-.13-.72c-.26-.9-.79-1.41-1.61-1.56s-1.61-.03-2.36.38c-2.67,1.23-4.54,2.2-5.64,2.9-.92.56-1.79,1.2-2.61,1.9l-.74.74c-.41.41-.74.69-1.05.87s-.59.23-.82.15c-.85-.38-1.67-.28-2.44.28s-1.1,1.31-.97,2.23c.13.95.64,1.67,1.54,2.13s1.82.62,2.77.44c.51-.1,1-.28,1.49-.54.49-.26.9-.54,1.23-.79.33-.26.74-.59,1.23-1.05.49-.44.87-.77,1.1-.95,1.46-1.13,3.49-2.28,6.07-3.46.28-.13.49-.21.56-.26l.03-.03Z"/>
    <path class="cls-4" d="m190.6,306.39c-2.59.64-6.41,1.74-11.48,3.36-1.64.46-2.69.72-3.18.72-.15,0-.38-.18-.67-.56-.56-.69-1.28-1-2.13-.9-.77.08-1.33.41-1.74,1.03s-.51,1.28-.33,2.02c.18.77.69,1.44,1.46,2.05,1.72,1.33,3.87,1.64,6.48.9.87-.26,1.59-.46,2.1-.64s1.2-.41,2.02-.74,1.46-.54,1.9-.67c5.05-1.54,9.05-2.49,11.94-2.79,4.77-.51,7.74.64,8.92,3.41.56,1.18.74,2.33.54,3.51s-.56,2.26-1.05,3.26-1.2,1.95-2.13,2.87-1.85,1.72-2.77,2.41-1.87,1.31-2.9,1.85c-3,1.64-6.07,2.69-9.2,3.13-1.54.26-2.41.95-2.56,2.08-.1.59,0,1.15.36,1.67.33.51.77.85,1.31,1.05.72.23,2.2.03,4.46-.56,1.67-.44,3.28-.97,4.84-1.61,3.08-1.31,5.77-2.9,8.1-4.84,2.54-2.15,4.36-4.67,5.51-7.51,1.15-2.87,1.2-5.74.15-8.66-2.28-6.48-8.95-8.41-20.02-5.79h.05Z"/>
    <path class="cls-4" d="m252.65,301.52c-.67-.56-1.41-.82-2.26-.82s-1.61.28-2.31.85c-.1.13-.26.23-.49.28s-.41.1-.59.1h-1.26c-.64.03-2.79.08-6.46.15-.15,0-.26-.05-.28-.13-.03-.08-.05-.21,0-.41s0-.31,0-.38c-.13-.79-.36-1.54-.67-2.23-.79-1.59-1.85-2.31-3.18-2.18-.77.1-1.33.46-1.74,1.1s-.49,1.33-.23,2.05c.05.23.23.51.51.9s.44.72.46,1c.03.77-.1,1.54-.38,2.38-.44,1.18-1.33,2.82-2.67,4.92-1.13,1.72-2.13,3.08-3,4.08-.03.03-.33.33-.87.9-.56.56-.9,1.03-1.03,1.38s-.13.77,0,1.23c.15.67.54,1.15,1.13,1.49s1.2.44,1.85.31c.28-.05.56-.18.82-.33s.56-.38.85-.69c.31-.31.51-.54.67-.72.15-.18.38-.46.72-.87s.51-.64.54-.72c.85-1.2,1.82-2.61,2.9-4.25.44-.72.9-1.54,1.38-2.41.05-.13.15-.33.31-.59.15-.26.26-.46.31-.59.05-.1.1-.18.13-.23,0-.05.05-.1.1-.13s.08,0,.13,0h.44c4.92-.03,8.36-.15,10.28-.33-.95,7.36-3.54,14-7.77,19.86-2.41,3.26-4.87,5.66-7.41,7.25-1.44.92-1.87,2-1.38,3.23.26.64.69,1.08,1.33,1.33.64.26,1.26.26,1.85,0,2-.82,4.41-2.87,7.25-6.13,2.26-2.61,4.15-5.46,5.74-8.54,1.74-3.41,3.05-6.74,3.95-10,.51-1.82.9-3.64,1.18-5.46.31-2.33.41-3.84.28-4.56-.13-.82-.51-1.51-1.18-2.05l.05-.05Z"/>
    <path class="cls-4" d="m290.69,302.77c-.15-.82-.64-1.74-1.44-2.72-.79-1-1.64-1.64-2.54-1.92s-1.72.15-2.44,1.33c-.51,1-.18,2.1,1,3.28.44.23.67.72.67,1.46v10.87c.03,9.1-2.36,15.3-7.2,18.58-.38.26-.77.49-1.2.69s-.79.36-1.1.49-.74.26-1.28.46c-.54.18-.95.33-1.23.44-.72.28-1.2.82-1.44,1.64-.23.79-.1,1.51.38,2.1.72,1,2.2,1.13,4.41.38,1.92-.69,3.69-1.72,5.31-3.02,5.51-4.38,8.25-11.71,8.25-21.94v-6.79c0-.31,0-.87.05-1.64.03-.77.03-1.44,0-2.02-.03-.56-.1-1.1-.18-1.61l-.03-.05Z"/>
    <path class="cls-4" d="m274.57,323.66c.79-.38,1.2-1.1,1.2-2.1v-15.61c0-2.31-.41-4.02-1.23-5.18-1.2-1.67-2.41-2.36-3.64-2.05-.79.15-1.36.59-1.69,1.33-.33.72-.31,1.46.08,2.18.1.15.38.46.9.9s.77.85.77,1.23v17.17c0,1.03.41,1.72,1.2,2.1s1.61.38,2.41,0v.03Z"/>
    <path class="cls-4" d="m311.68,312.54l18.12-.79c.64-.03,1.08-.05,1.36-.1.26-.03.62-.15,1.05-.36.44-.21.74-.49.97-.87.28-.51.36-1.05.21-1.67-.15-.59-.46-1.08-.92-1.41-.23-.18-.49-.31-.79-.38-.31-.05-.59-.1-.79-.1s-.54,0-.97.05c-.44.03-.69.05-.82.05-10,.46-15.4.77-16.23.85-1.05.1-1.9.1-2.59.05-.69-.05-1.28-.26-1.82-.56-.92-.44-1.74-.51-2.49-.21s-1.2.87-1.41,1.74c-.21.85.05,1.59.74,2.23,1.18,1.1,3.31,1.61,6.46,1.51l-.08-.03Z"/>
    <path class="cls-4" d="m336.85,324.69c-.67.1-2.38.15-5.13.15-4.43.1-7.74.18-9.95.28-11.43.49-17.17.72-17.2.72-.64-.03-1.13-.23-1.51-.56-.59-.56-1.28-.82-2.05-.77-.77.08-1.36.38-1.77,1-.41.72-.51,1.44-.28,2.08.23.67.69,1.23,1.38,1.72.54.41,1.13.72,1.79.95s1.41.36,2.2.41,1.49.05,2.05.05,1.31-.05,2.31-.15,1.67-.13,2.05-.15c7.48-.36,14.56-.56,21.2-.67h2.79c.44,0,1,0,1.67-.05.67-.03,1.2-.13,1.64-.26s.85-.33,1.26-.56c.41-.23.69-.56.82-1,.15-.44.15-.9,0-1.44-.31-1.49-1.38-2.08-3.23-1.74h-.05Z"/>
    <path class="cls-4" d="m370.97,310.59c-.44-.72-.95-1.26-1.51-1.56-.72-.36-1.49-.28-2.26.21s-1.15,1.18-1.15,2.05c0,.51.21,1.03.59,1.54.38.51.62.87.64,1.03.05,1.05-.18,2.49-.72,4.36-1.67,5.87-5.31,10.56-10.87,14.07-1.2.77-2.41,1.38-3.61,1.9-.05.03-.28.13-.69.26-.38.15-.67.26-.82.36s-.38.26-.67.46c-.28.23-.49.49-.56.79-.1.31-.15.67-.15,1.05.03,1.44.67,2.15,1.9,2.23,1.05.05,2.82-.56,5.36-1.85,2.72-1.38,5.18-3.23,7.38-5.51,2.2-2.28,4-4.82,5.38-7.64,2.31-4.9,3.18-8.84,2.61-11.84-.13-.56-.41-1.2-.85-1.95v.05Z"/>
    <path class="cls-4" d="m350.34,324.77c.56.41,1.15.51,1.77.33.36-.1.64-.23.9-.44.26-.18.44-.41.51-.67.26-.67.28-1.51.1-2.51-.03-.26-.13-.56-.28-.95-.54-1.38-1.13-2.79-1.74-4.23-.31-.67-.67-1.31-1.05-1.9s-.87-1.05-1.44-1.36-1.18-.33-1.77-.13c-.56.23-1,.64-1.31,1.28s-.33,1.26-.13,1.85c.13.26.44.77.9,1.56.38.59.72,1.26,1.05,1.95.64,1.38,1.08,2.59,1.33,3.61.23.64.62,1.15,1.15,1.56v.03Z"/>
    <path class="cls-4" d="m355.39,318.28c.1.23.26.77.49,1.61.23.85.44,1.46.67,1.85.26.56.69.97,1.36,1.23.64.26,1.23.26,1.74,0,1.18-.69,1.54-1.9,1.13-3.61-.38-1.31-.79-2.56-1.28-3.79-.56-1.9-1.18-3.31-1.79-4.23-.41-.56-1-.87-1.72-.9-.74-.03-1.36.18-1.82.67-.82.79-.85,1.97-.05,3.56.51,1.13.95,2.33,1.33,3.61h-.05Z"/>
    <path class="cls-4" d="m410.16,303.59c-.13-.82-.51-1.51-1.18-2.05-.67-.56-1.41-.82-2.26-.82s-1.61.28-2.31.85c-.1.13-.26.23-.49.28s-.41.1-.59.1h-1.26c-.64.03-2.79.08-6.46.15-.15,0-.26-.05-.28-.13-.03-.08-.05-.21,0-.41v-.38c-.13-.79-.36-1.54-.67-2.23-.79-1.59-1.85-2.31-3.18-2.18-.77.1-1.33.46-1.74,1.1s-.49,1.33-.23,2.05c.05.23.23.51.51.9s.44.72.49,1c.03.77-.1,1.54-.38,2.38-.44,1.18-1.33,2.82-2.67,4.92-1.13,1.72-2.13,3.08-3,4.08-.03.03-.33.33-.87.9-.56.56-.9,1.03-1.03,1.38-.13.36-.13.77,0,1.23.15.67.54,1.15,1.13,1.49s1.2.44,1.85.31c.28-.05.56-.18.82-.33s.56-.38.85-.69.51-.54.67-.72.38-.46.72-.87.51-.64.54-.72c.85-1.2,1.82-2.61,2.9-4.25.44-.72.9-1.54,1.38-2.41.05-.13.15-.33.31-.59s.26-.46.31-.59c.05-.1.1-.18.13-.23s.05-.1.1-.13h.56c4.92-.03,8.36-.15,10.28-.33-.95,7.36-3.54,14-7.77,19.86-2.41,3.26-4.87,5.66-7.41,7.25-1.44.92-1.87,2-1.38,3.23.26.64.69,1.08,1.33,1.33.64.26,1.26.26,1.85,0,2-.82,4.41-2.87,7.25-6.13,2.26-2.61,4.15-5.46,5.74-8.54,1.74-3.41,3.05-6.74,3.95-10,.51-1.82.9-3.64,1.18-5.46.31-2.33.41-3.84.28-4.56l.03-.05Z"/>
    <path class="cls-2" d="m264.55,237.44h-7.38v-4.82c0-1.67-1.36-3.02-3.02-3.02h0c-1.67,0-3.02,1.36-3.02,3.02v4.82h-7.38c-1.56,0-2.82,1.26-2.82,2.82h0c0,1.56,1.26,2.82,2.82,2.82h7.38v4.49h6.02v-4.49h7.38c1.56,0,2.82-1.26,2.82-2.82h0c0-1.56-1.26-2.82-2.82-2.82h.03Z"/>
  </g>
</svg>