<?xml version="1.0" encoding="UTF-8"?>
<svg id="_レイヤー_2" data-name="レイヤー 2" xmlns="http://www.w3.org/2000/svg" viewBox="0 0 334.08 120.64">
  <defs>
    <style>
      .cls-1, .cls-2, .cls-3, .cls-4, .cls-5 {
        stroke-width: 0px;
      }

      .cls-1, .cls-6 {
        fill: none;
      }

      .cls-2 {
        fill: #f2b059;
      }

      .cls-3 {
        fill: #732d11;
      }

      .cls-4 {
        fill: #fff;
      }

      .cls-5 {
        fill: #ed8e23;
      }

      .cls-6 {
        stroke: #fff;
        stroke-linecap: round;
        stroke-miterlimit: 10;
        stroke-width: 1.92px;
      }
    </style>
  </defs>
  <g id="_レイヤー_1-2" data-name="レイヤー 1">
    <g>
      <g>
        <path class="cls-3" d="m8.49,43.13c-.67,0-1.25-.22-1.73-.67-.48-.44-.71-1.03-.71-1.77v-22.22c-.25.4-.48.8-.71,1.2-.23.4-.47.77-.71,1.1-.37.55-.91.89-1.63,1.01-.72.12-1.39-.03-2-.46-.55-.37-.87-.9-.97-1.59-.09-.69.06-1.33.46-1.91.64-.98,1.34-2.17,2.09-3.56.75-1.4,1.49-2.85,2.21-4.37.72-1.52,1.37-2.99,1.96-4.42.58-1.43,1.03-2.66,1.33-3.7.21-.74.64-1.25,1.27-1.54.63-.29,1.29-.31,2-.07.64.21,1.12.61,1.43,1.2s.34,1.21.09,1.89c-.03.21-.09.42-.18.62-.09.2-.17.41-.23.62.4-.25.83-.37,1.29-.37h2.62c2.3,0,3.76.54,4.39,1.63.63,1.09.64,2.51.02,4.25-.37,1.01-.68,1.86-.92,2.53-.25.67-.57,1.47-.97,2.39-.25.67-.28,1.14-.11,1.4.17.26.59.45,1.26.58,1.01.12,1.77.51,2.28,1.15.51.64.7,1.79.57,3.45-.15,2.18-.45,4.26-.9,6.26-.44,1.99-1.04,3.88-1.77,5.66,1.23,1.32,2.75,2.28,4.58,2.88,1.82.6,4.15.93,6.97.99-.61-.03-1.14-.25-1.59-.67-.44-.41-.67-.96-.67-1.63v-1.89h-5.29c-.58,0-1.07-.2-1.47-.6-.4-.4-.6-.89-.6-1.47s.25-1.07.74-1.47c.49-.4,1.03-.6,1.61-.6h5.01v-2.21h-4.28c-.58,0-1.07-.2-1.47-.6-.4-.4-.6-.89-.6-1.47s.2-1.07.6-1.47c.4-.4.89-.6,1.47-.6h4.28v-2.16h-4.6c-.58,0-1.08-.19-1.49-.58-.41-.38-.62-.87-.62-1.45,0-.61.21-1.1.62-1.47.41-.37.91-.55,1.49-.55h4.6v-2.12h-6.3c-.52,0-.97-.19-1.36-.58-.38-.38-.58-.83-.58-1.36s.19-.97.58-1.36c.38-.38.83-.57,1.36-.57h6.3v-2.12h-4.32c-.58,0-1.08-.19-1.5-.58-.41-.38-.62-.87-.62-1.45,0-.61.21-1.1.62-1.47.41-.37.91-.55,1.5-.55h4.32v-1.89c0-.71.23-1.26.69-1.68s1.01-.62,1.66-.62,1.19.21,1.63.62c.44.41.67.97.67,1.68v1.89c1.84,0,3.29.18,4.35.55,1.06.37,1.81,1,2.25,1.91.44.9.68,2.14.71,3.7h1.43c.52,0,.97.19,1.33.57.37.38.55.84.55,1.36s-.18.97-.55,1.36c-.37.38-.81.58-1.33.58h-1.43c-.03,1.56-.27,2.79-.71,3.68-.44.89-1.2,1.53-2.25,1.91-1.06.38-2.51.58-4.35.58v2.16h5.29c.58,0,1.07.2,1.47.6.4.4.6.89.6,1.47s-.2,1.07-.6,1.47c-.4.4-.89.6-1.47.6h-5.29v2.21h7.18c.58,0,1.07.2,1.47.6.4.4.6.89.6,1.47s-.2,1.07-.6,1.47c-.4.4-.89.6-1.47.6h-7.18v1.89c0,.71-.22,1.26-.67,1.68-.44.41-.99.62-1.63.62h.74c1.81,0,3.45-.02,4.92-.05,1.47-.03,2.82-.08,4.05-.14.83-.06,1.5.12,2.02.53.52.41.77,1.02.74,1.82-.03.8-.33,1.39-.9,1.77-.57.38-1.25.57-2.05.57h-8.74c-3.34,0-6.18-.33-8.51-.99-2.33-.66-4.31-1.74-5.93-3.24-.43.71-.88,1.4-1.36,2.07-.48.67-.99,1.32-1.54,1.93-.4.49-.94.76-1.63.81-.69.05-1.3-.15-1.82-.58-.52-.43-.78-.96-.78-1.59s.2-1.17.6-1.63c.67-.8,1.29-1.62,1.84-2.46.55-.84,1.06-1.71,1.52-2.6-1.04-1.81-1.98-4-2.81-6.58-.21-.61-.18-1.18.11-1.7s.71-.86,1.27-1.01c.61-.15,1.18-.1,1.7.16.52.26.87.7,1.06,1.31.15.43.29.84.41,1.24.12.4.26.8.41,1.2.21-.8.39-1.59.53-2.37.14-.78.25-1.56.34-2.32.12-.95.07-1.59-.16-1.91-.23-.32-.84-.54-1.82-.67-1.17-.15-1.98-.65-2.44-1.5-.46-.84-.38-2.09.23-3.75.34-.89.67-1.74.99-2.55.32-.81.65-1.69.99-2.65.21-.55.25-.95.12-1.2-.14-.25-.51-.37-1.13-.37h-1.1c-.52,0-1-.16-1.43-.48-.43-.32-.72-.73-.87-1.22-.12.4-.29.83-.51,1.29v32.25c0,.74-.24,1.33-.71,1.77-.48.44-1.05.67-1.73.67ZM34.16,10.43h2.85c-.03-.86-.23-1.43-.6-1.7-.37-.28-1.12-.41-2.25-.41v2.12Zm0,5.98c1.13,0,1.89-.14,2.25-.41.37-.28.57-.84.6-1.7h-2.85v2.12Z"/>
        <path class="cls-3" d="m64.08,39.32c-.64.11-1.22-.04-1.74-.44s-.83-.93-.94-1.6c-.29-2.35-.79-4.97-1.5-7.86-.71-2.89-1.55-5.75-2.54-8.58-1.47.51-2.87.99-4.22,1.46-1.35.47-2.57.9-3.66,1.3-.61.21-1.22.17-1.82-.12-.6-.29-1.01-.75-1.22-1.36-.21-.61-.17-1.22.12-1.82.29-.6.75-1.01,1.36-1.22,1.09-.37,2.31-.79,3.64-1.24,1.33-.45,2.72-.91,4.16-1.36-.43-1.12-.88-2.2-1.36-3.24s-.97-2.01-1.48-2.92c-.32-.56-.39-1.16-.22-1.8.17-.64.55-1.12,1.14-1.44.59-.32,1.2-.39,1.84-.2.64.19,1.12.57,1.44,1.16.53,1.01,1.06,2.11,1.58,3.3.52,1.19,1.03,2.42,1.54,3.7,1.09-.35,2.18-.69,3.26-1.02,1.08-.33,2.11-.63,3.1-.9-.67-.13-1.2-.48-1.6-1.04l-2.36-3.6c-.37-.56-.49-1.17-.36-1.82.13-.65.48-1.15,1.04-1.5.53-.37,1.13-.49,1.78-.34.65.15,1.17.49,1.54,1.02l2.36,3.6c.35.51.48,1.05.4,1.64-.08.59-.35,1.08-.8,1.48l.92-.28c2.61-.72,4.89-.93,6.84-.62,1.95.31,3.49,1.07,4.62,2.28,1.13,1.21,1.77,2.85,1.9,4.9.11,1.63-.13,3.08-.7,4.36-.57,1.28-1.4,2.33-2.48,3.14-1.08.81-2.33,1.36-3.76,1.64-1.43.28-2.95.25-4.58-.1-1.63-.35-3.25-1.05-4.88-2.12-.56-.37-.92-.88-1.08-1.52s-.07-1.24.28-1.8c.37-.56.88-.92,1.52-1.08.64-.16,1.24-.05,1.8.32,1.2.8,2.35,1.31,3.44,1.54,1.09.23,2.07.2,2.94-.08.87-.28,1.53-.77,2-1.46.47-.69.66-1.55.58-2.56-.11-1.17-.71-2.01-1.8-2.52-1.09-.51-2.93-.45-5.52.16-1.28.29-2.67.67-4.18,1.12-1.51.45-3.05.93-4.62,1.44.69,2.03,1.33,4.08,1.92,6.16.59,2.08,1.09,4.07,1.52,5.96.43,1.89.73,3.63.92,5.2.08.67-.08,1.26-.48,1.78-.4.52-.93.82-1.6.9Z"/>
        <path class="cls-3" d="m99.32,37.72c-.67-.08-1.2-.38-1.6-.9-.4-.52-.56-1.11-.48-1.78.11-.67.42-1.2.94-1.6.52-.4,1.1-.56,1.74-.48.85.11,1.6.13,2.24.06.64-.07,1.21-.34,1.7-.82.49-.48.93-1.27,1.3-2.36.37-1.09.69-2.6.96-4.52.24-1.68.25-2.99.04-3.94-.21-.95-.72-1.6-1.52-1.96-.8-.36-1.99-.49-3.56-.38-.64,2.19-1.4,4.37-2.28,6.56-.88,2.19-1.86,4.26-2.94,6.22s-2.25,3.73-3.5,5.3c-.4.51-.93.81-1.58.9-.65.09-1.25-.06-1.78-.46-.51-.43-.81-.97-.9-1.62-.09-.65.07-1.23.5-1.74,1.57-1.92,3.01-4.17,4.3-6.76,1.29-2.59,2.38-5.25,3.26-8-.83.11-1.67.21-2.54.3-.87.09-1.73.18-2.58.26-.64.05-1.22-.12-1.74-.52-.52-.4-.82-.93-.9-1.6-.05-.67.13-1.26.54-1.78.41-.52.94-.81,1.58-.86,1.15-.13,2.31-.25,3.48-.34,1.17-.09,2.32-.17,3.44-.22.56-2.45.91-4.75,1.04-6.88.05-.67.32-1.22.8-1.66s1.05-.63,1.72-.58c.67.03,1.22.29,1.66.78.44.49.63,1.07.58,1.74-.08.99-.21,2.01-.38,3.08-.17,1.07-.38,2.16-.62,3.28,3.65.05,6.12,1.03,7.4,2.92,1.28,1.89,1.65,4.76,1.12,8.6-.43,3.31-1.11,5.87-2.06,7.68-.95,1.81-2.19,3.02-3.72,3.62-1.53.6-3.42.75-5.66.46Zm22.48-11.84c-.59.32-1.19.39-1.82.2-.63-.19-1.11-.56-1.46-1.12-.45-.85-1.03-1.76-1.72-2.72-.69-.96-1.41-1.89-2.14-2.78-.73-.89-1.43-1.66-2.1-2.3-.48-.45-.73-1-.76-1.64-.03-.64.19-1.2.64-1.68.45-.48,1.01-.73,1.66-.76.65-.03,1.22.19,1.7.64.85.8,1.71,1.71,2.58,2.74.87,1.03,1.68,2.07,2.44,3.14.76,1.07,1.39,2.08,1.9,3.04.35.59.43,1.2.24,1.84-.19.64-.57,1.11-1.16,1.4Z"/>
        <path class="cls-3" d="m135.36,37.4c-.67.11-1.27-.03-1.8-.4-.53-.37-.87-.88-1-1.52-.24-1.36-.43-2.94-.56-4.74-.13-1.8-.2-3.7-.2-5.7s.05-4.01.16-6.04c.11-2.03.27-3.97.5-5.82.23-1.85.5-3.51.82-4.98.13-.64.48-1.14,1.04-1.5.56-.36,1.16-.47,1.8-.34.64.16,1.14.51,1.5,1.06.36.55.47,1.15.34,1.82-.43,1.89-.76,3.95-1,6.16-.24,2.21-.39,4.46-.46,6.74-.07,2.28-.03,4.49.1,6.64.13,2.15.36,4.1.68,5.86.13.64,0,1.23-.38,1.76-.39.53-.9.87-1.54,1Zm16.4-2.16c-3.47,0-6.05-.63-7.74-1.88-1.69-1.25-2.71-3.09-3.06-5.52-.11-.64.03-1.23.42-1.76.39-.53.91-.85,1.58-.96.64-.08,1.23.07,1.76.46.53.39.85.91.96,1.58.16,1.15.71,2,1.64,2.56.93.56,2.45.84,4.56.84s4.41-.31,7.24-.92c.64-.16,1.24-.05,1.8.32s.91.88,1.04,1.52c.13.64.01,1.23-.36,1.78-.37.55-.88.9-1.52,1.06-1.44.35-2.87.59-4.3.72-1.43.13-2.77.2-4.02.2Zm-7.32-19.8c-.64.13-1.23.02-1.78-.34-.55-.36-.89-.87-1.02-1.54-.13-.64-.02-1.24.34-1.8s.87-.89,1.54-1c1.49-.29,3.16-.49,5-.58,1.84-.09,3.67-.11,5.48-.04,1.81.07,3.41.22,4.8.46.67.11,1.19.43,1.56.98.37.55.49,1.15.36,1.82-.11.67-.43,1.18-.98,1.54-.55.36-1.14.49-1.78.38-2.16-.37-4.4-.55-6.72-.54-2.32.01-4.59.23-6.8.66Z"/>
      </g>
      <g>
        <path class="cls-3" d="m21.44,120.64c-.77,0-1.43-.25-1.98-.76-.55-.51-.83-1.19-.83-2.05v-5.7H5.38c-.64,0-1.19-.23-1.63-.69-.45-.46-.67-1.01-.67-1.66s.22-1.2.67-1.66c.44-.46.99-.69,1.63-.69h13.25v-3.59H3.31c-.64,0-1.19-.22-1.63-.67-.44-.44-.67-.99-.67-1.63s.22-1.14.67-1.59.99-.67,1.63-.67h8.42c-.21-.43-.41-.85-.6-1.27s-.32-.7-.41-.85c-.31-.61-.34-1.23-.11-1.86.23-.63.64-1.11,1.22-1.45H2.3c-.64,0-1.19-.22-1.63-.67-.44-.44-.67-.99-.67-1.63s.22-1.2.67-1.66c.44-.46.99-.69,1.63-.69h16.33v-3.22H7.27c-.64,0-1.19-.22-1.63-.67-.44-.44-.67-.99-.67-1.63s.22-1.14.67-1.59c.44-.44.99-.67,1.63-.67h11.36v-2.25c0-.86.28-1.54.83-2.05.55-.51,1.21-.76,1.98-.76s1.47.25,2.02.76c.55.51.83,1.19.83,2.05v2.25h11.41c.61,0,1.14.22,1.59.67.44.44.67.97.67,1.59,0,.64-.22,1.19-.67,1.63s-.97.67-1.59.67h-11.41v3.22h16.42c.64,0,1.2.23,1.66.69.46.46.69,1.01.69,1.66s-.23,1.19-.69,1.63c-.46.45-1.01.67-1.66.67h-9.48c.58.34.98.82,1.2,1.45.21.63.17,1.25-.14,1.86-.09.18-.24.48-.44.87-.2.4-.42.81-.67,1.24h8.6c.61,0,1.15.22,1.61.67.46.44.69.97.69,1.59,0,.64-.23,1.19-.69,1.63-.46.45-1,.67-1.61.67h-15.5v3.59h13.48c.64,0,1.2.23,1.66.69s.69,1.01.69,1.66-.23,1.2-.69,1.66-1.01.69-1.66.69h-13.48v5.7c0,.86-.28,1.54-.83,2.05-.55.51-1.23.76-2.02.76Zm-3.86-21.34h7.73c.18-.43.39-.94.62-1.52.23-.58.45-1.13.67-1.66.21-.52.37-.87.46-1.06.21-.52.54-.92.97-1.2h-13.06c.46.31.8.71,1.01,1.2.09.18.23.54.41,1.06s.39,1.07.62,1.66c.23.58.42,1.09.57,1.52Z"/>
        <path class="cls-3" d="m74.25,113.66c-3.65.4-6.83.43-9.54.08-2.71-.35-4.91-1.28-6.62-2.8-1.15-1.07-2-2.37-2.56-3.9-.56-1.53-.84-3.43-.84-5.7v-3.68c-1.28.16-2.49.33-3.64.5-1.15.17-2.21.35-3.2.54-.64.11-1.23-.03-1.76-.4-.53-.37-.85-.88-.96-1.52-.11-.64.02-1.23.38-1.76.36-.53.86-.85,1.5-.96,1.09-.16,2.29-.33,3.58-.5,1.29-.17,2.66-.34,4.1-.5v-6.68c0-.67.23-1.23.7-1.7s1.03-.7,1.7-.7,1.23.23,1.68.7c.45.47.68,1.03.68,1.7v6.2c1.39-.13,2.79-.25,4.22-.36,1.43-.11,2.83-.21,4.22-.32.13-1.15.23-2.25.3-3.32.07-1.07.11-2.07.14-3,.03-.67.27-1.23.74-1.68.47-.45,1.03-.67,1.7-.64.67.03,1.23.27,1.7.74.47.47.69,1.03.66,1.7-.03.91-.07,1.86-.14,2.86-.07,1-.15,2.02-.26,3.06,1.17-.08,2.32-.14,3.44-.18s2.19-.07,3.2-.1c.67,0,1.23.23,1.68.7.45.47.68,1.02.68,1.66s-.23,1.19-.68,1.66c-.45.47-1.01.7-1.68.7-2.21-.05-4.59-.01-7.12.12-.19,1.31-.39,2.58-.62,3.82-.23,1.24-.46,2.37-.7,3.38-.16.64-.52,1.13-1.08,1.46-.56.33-1.16.43-1.8.3-.67-.16-1.17-.52-1.5-1.08-.33-.56-.43-1.16-.3-1.8.21-.88.41-1.81.6-2.8.19-.99.35-1.99.48-3-1.31.08-2.62.18-3.94.3-1.32.12-2.63.25-3.94.38v4.2c0,1.49.16,2.73.48,3.72.32.99.8,1.77,1.44,2.36,1.01.91,2.48,1.46,4.4,1.66s4.59.13,8-.22c.67-.08,1.26.09,1.78.52.52.43.81.97.86,1.64.08.67-.09,1.26-.5,1.78-.41.52-.97.81-1.66.86Z"/>
        <path class="cls-3" d="m94.05,114.26c-.67.11-1.27-.03-1.8-.4-.53-.37-.87-.88-1-1.52-.24-1.36-.43-2.94-.56-4.74-.13-1.8-.2-3.7-.2-5.7s.05-4.01.16-6.04c.11-2.03.27-3.97.5-5.82.23-1.85.5-3.51.82-4.98.13-.64.48-1.14,1.04-1.5.56-.36,1.16-.47,1.8-.34.64.16,1.14.51,1.5,1.06.36.55.47,1.15.34,1.82-.43,1.89-.76,3.95-1,6.16-.24,2.21-.39,4.46-.46,6.74-.07,2.28-.03,4.49.1,6.64.13,2.15.36,4.1.68,5.86.13.64,0,1.23-.38,1.76-.39.53-.9.87-1.54,1Zm16.4-2.16c-3.47,0-6.05-.63-7.74-1.88-1.69-1.25-2.71-3.09-3.06-5.52-.11-.64.03-1.23.42-1.76.39-.53.91-.85,1.58-.96.64-.08,1.23.07,1.76.46.53.39.85.91.96,1.58.16,1.15.71,2,1.64,2.56.93.56,2.45.84,4.56.84s4.41-.31,7.24-.92c.64-.16,1.24-.05,1.8.32.56.37.91.88,1.04,1.52.13.64.01,1.23-.36,1.78-.37.55-.88.9-1.52,1.06-1.44.35-2.87.59-4.3.72-1.43.13-2.77.2-4.02.2Zm-7.32-19.8c-.64.13-1.23.02-1.78-.34-.55-.36-.89-.87-1.02-1.54-.13-.64-.02-1.24.34-1.8s.87-.89,1.54-1c1.49-.29,3.16-.49,5-.58,1.84-.09,3.67-.11,5.48-.04,1.81.07,3.41.22,4.8.46.67.11,1.19.43,1.56.98.37.55.49,1.15.36,1.82-.11.67-.43,1.18-.98,1.54-.55.36-1.14.49-1.78.38-2.16-.37-4.4-.55-6.72-.54-2.32.01-4.59.23-6.8.66Z"/>
      </g>
      <g id="_レイヤー_1-2" data-name=" レイヤー 1-2">
        <g>
          <path class="cls-4" d="m314.85,19.41c-.28-.14-.51-.4-.8-.52s-.63-.14-.92-.26-.57-.28-.87-.37-.65-.02-.95-.12-.54-.42-.85-.49-.62-.13-.93-.2-.63-.09-.94-.15-.64.02-.95-.02-.59-.37-.91-.41-.65.13-.97.1-.62-.19-.94-.2-.64.2-.95.2-.63.01-.94.01-.63-.08-.94-.07-.62.15-.94.17-.65-.29-.97-.27-.59.41-.91.44-.64-.07-.95-.03-.65-.09-.97-.05-.57.43-.87.49-.66-.1-.97-.03-.64.05-.94.13-.59.24-.9.33-.59.2-.91.28-.59.22-.9.31-.64.05-.94.15-.59.2-.9.3-.52.41-.83.51-.65.05-.95.16-.59.22-.88.35-.5.44-.79.57-.56.29-.85.42-.65.09-.94.22-.49.44-.77.58-.69.03-.97.17-.59.22-.87.37-.52.36-.8.51-.58.24-.86.41-.45.48-.72.64-.64.15-.92.31-.43.51-.7.69-.55.31-.81.49-.56.3-.83.48-.6.23-.87.41-.44.48-.7.66-.49.41-.74.59-.59.27-.84.45-.55.34-.79.52-.47.43-.72.62-.5.38-.76.58-.37.55-.62.74-.45.44-.69.65-.55.45-.78.67c-.23-.21-.42-.6-.65-.8s-.58-.3-.83-.5-.35-.57-.59-.77-.69-.16-.93-.36-.5-.37-.76-.57-.33-.6-.58-.8-.67-.15-.93-.34-.48-.41-.74-.59-.47-.44-.72-.62-.49-.42-.74-.59-.64-.17-.91-.35-.42-.51-.69-.69-.65-.15-.92-.31-.54-.34-.8-.5-.42-.54-.7-.7-.55-.33-.83-.48-.71-.01-.99-.16-.54-.33-.81-.48-.56-.3-.84-.44-.52-.38-.8-.51-.57-.28-.85-.41-.65-.08-.94-.21-.48-.49-.77-.6-.67-.02-.97-.14-.49-.51-.78-.62-.66-.03-.97-.14-.64-.09-.93-.2-.54-.42-.84-.51-.63-.13-.93-.22-.65-.03-.95-.12-.6-.17-.92-.24-.62-.12-.93-.19-.62-.14-.92-.2-.6-.19-.92-.24-.6-.27-.91-.31-.63-.06-.94-.09-.65.17-.97.15-.62-.15-.93-.17-.63-.22-.93-.23-.64.05-.95.05-.63.07-.94.07-.64-.03-.95-.02-.62.19-.93.22-.64-.09-.95-.06-.62.15-.93.2-.62.12-.93.17-.59.23-.9.3-.69-.13-.99-.06-.54.42-.84.51-.69-.07-.98.03-.5.47-.79.58-.66.03-.95.16-.48.47-.76.6c-.29.14-.7.02-.98.17s-.56.31-.84.48-.43.51-.7.69-.47.43-.72.62-.51.36-.77.56-.49.4-.73.6c-.24.21-.69.2-.91.41s-.33.58-.55.81-.37.51-.58.74-.48.43-.67.67-.55.38-.73.64-.19.64-.37.91-.54.41-.7.69-.14.65-.29.93-.23.59-.37.87-.52.44-.66.73-.23.59-.36.88-.1.64-.22.93-.3.56-.41.86-.08.64-.16.94-.3.57-.38.88,0,.65-.07.97-.15.62-.21.93-.28.59-.34.91.13.66.09.98-.29.6-.31.92.14.65.12.97-.33.62-.34.93.19.64.19.97.06.63.06.95-.17.64-.16.95.17.63.2.94-.14.64-.12.95.24.62.27.93.07.63.12.94-.26.67-.21.99.4.58.44.9.05.63.1.94.14.62.2.93.09.63.16.94.13.62.21.93-.05.66.03.98.26.59.34.9.13.63.22.93.21.59.31.91.22.59.33.9.35.55.47.85.2.6.3.91.1.63.22.93.34.55.45.84.14.63.27.92.12.64.24.93.27.58.4.87.5.47.64.76.08.66.23.95.29.57.43.85.48.47.62.76.2.6.36.88.38.51.54.79.23.59.4.87.19.63.35.91.31.56.49.83.52.42.7.7.38.51.56.78.28.57.47.84.34.55.52.81c.17.26.22.62.4.87s.6.34.79.59.33.54.51.79.43.47.62.71.19.65.38.9.51.4.71.64.26.59.45.84.45.44.66.67.47.43.66.66.35.54.55.77.57.34.78.57.4.48.62.71.36.52.57.76.49.4.71.62.41.48.63.7.34.56.56.77.49.41.71.62.42.48.65.69c.23.21.62.26.85.47s.4.5.63.71.42.47.66.67.59.27.84.47.4.5.64.7.62.23.86.43.4.51.64.71.47.43.71.62.48.42.73.59.55.33.8.5.54.33.8.5.51.37.77.55.58.27.84.43.48.42.74.58.45.47.72.63.7.06.97.21.48.42.76.57.48.44.74.59.58.24.86.38.66.08.94.22.49.42.77.56.5.42.78.55.57.28.85.41.66.06.94.19.63.13.91.24.49.47.78.58.59.2.88.31.58.22.88.33.58.24.88.34.59.22.88.31.59.23.9.31.63.1.93.17.6.15.91.22.64.03.94.09.58.26.9.31.63.06.93.1.65-.1.95-.06.6.2.91.23.6.2.92.23.64-.15.95-.14.62.02.93.05.62.31.92.33.63-.16.94-.16c.21,0,.42.21.63.22.21,0,.42-.02.63-.03.31,0,.62-.31.93-.33s.63.19.94.16.62-.08.93-.1.63.03.94,0,.62-.13.93-.17.64.03.94-.01.59-.27.9-.31.63-.02.94-.08.57-.33.87-.4.69.17.99.1.6-.17.91-.26.6-.15.91-.23.6-.17.91-.27.57-.26.87-.36.54-.35.84-.45.62-.13.91-.23.54-.34.84-.45.62-.14.91-.26.55-.31.84-.43.63-.13.91-.26.62-.17.9-.3.48-.45.76-.59.62-.16.9-.31.58-.23.86-.38.49-.42.76-.57.63-.15.91-.3.49-.42.76-.57.45-.47.72-.63.54-.31.8-.48.56-.28.83-.45.62-.2.88-.37.47-.42.73-.6.41-.5.66-.69.63-.2.88-.38.54-.33.79-.51.38-.52.64-.71.65-.19.9-.38.3-.63.55-.83.69-.15.93-.35.36-.55.6-.74.59-.27.83-.48.43-.45.66-.66.4-.49.63-.71.52-.35.76-.57.49-.41.71-.62.23-.66.45-.88.64-.24.86-.48.31-.57.54-.79.35-.54.57-.76.59-.3.8-.54.48-.42.69-.65.2-.66.4-.9.52-.37.73-.62.44-.45.64-.7.41-.48.6-.72.42-.47.62-.71.37-.5.57-.76.37-.51.56-.76.42-.48.6-.72.26-.59.44-.85.49-.43.66-.69c.19-.27.26-.6.43-.86s.49-.44.66-.71.15-.66.31-.93.27-.58.43-.85.44-.48.6-.74.44-.48.59-.76.28-.57.44-.85.35-.54.51-.81.17-.63.33-.92.17-.63.31-.91.56-.43.7-.72.24-.59.37-.88.16-.63.29-.92.38-.52.51-.81.3-.57.43-.86.1-.65.23-.94.41-.52.52-.83.07-.65.19-.95.3-.57.41-.87,0-.67.09-.98.44-.52.54-.83.08-.64.17-.94.3-.58.4-.88-.14-.7-.06-1,.2-.6.28-.91.37-.57.44-.87.13-.63.19-.94-.1-.66-.05-.98.14-.62.19-.93.35-.59.4-.91.09-.63.13-.94-.19-.66-.15-.98.05-.63.07-.94-.05-.64-.03-.95.01-.63.02-.94.34-.63.34-.94.01-.64,0-.95-.2-.63-.22-.94.07-.64.05-.95-.02-.64-.06-.95-.12-.63-.15-.94-.15-.63-.2-.94-.12-.63-.17-.94.06-.66,0-.98-.45-.55-.52-.85-.19-.6-.27-.91.01-.67-.08-.97-.31-.56-.42-.86-.1-.64-.22-.93-.37-.54-.5-.81-.07-.67-.21-.95-.43-.49-.59-.77-.31-.56-.48-.83-.44-.47-.63-.72-.14-.69-.33-.93-.64-.31-.84-.56-.31-.56-.52-.79-.33-.56-.55-.79-.54-.36-.77-.57-.31-.6-.56-.8-.67-.17-.93-.37-.33-.62-.58-.8-.58-.28-.85-.45-.57-.28-.84-.44-.49-.42-.78-.57-.64-.14-.93-.28h-.01Z"/>
          <g>
            <path class="cls-2" d="m306.75,102.19c0,.23-.15.54-.42.76-.17.15-.5.17-.79.31-.22.12-.49.16-.78.27-.24.09-.43.4-.71.49-.26.08-.57-.05-.86.03-.26.07-.54.08-.81.15-.26.06-.52.15-.8.21-.27.06-.51.22-.79.28-.27.05-.56-.02-.85.02s-.51.3-.79.35-.55.06-.84.1-.56.05-.84.08-.56-.02-.85,0-.55.07-.83.1-.52.24-.8.28-.55.05-.83.08-.57-.12-.85-.08-.54.2-.81.23-.55.14-.83.16-.56.01-.84.03-.56.02-.84.05-.57-.09-.85-.07-.55.08-.84.1-.56.05-.84.07-.55.19-.83.21-.57-.22-.85-.21-.54.34-.81.35-.57-.26-.85-.24-.55.16-.83.17-.56.06-.84.07-.57-.13-.85-.12-.55.28-.83.29-.57-.14-.85-.14-.56.05-.84.06-.56-.1-.84-.09-.56.19-.84.2-.56.12-.84.13-.57-.16-.85-.15-.56.06-.84.07-.56-.02-.85-.02-.56.09-.84.09-.56-.14-.85-.14-.56-.02-.85-.02-.56.27-.85.27-.57-.21-.85-.21-.57.08-.85.08-.56-.02-.84-.02-.56-.12-.84-.13-.56.12-.84.12-.56.14-.84.14-.56-.17-.84-.17-.56.12-.84.12-.56-.19-.84-.2-.56.09-.84.08-.56-.13-.84-.13-.57.09-.85.08-.56-.05-.84-.06-.56.03-.84.03-.57.08-.85.07-.56-.19-.84-.2-.56.02-.84.01-.56-.03-.84-.05-.56-.19-.83-.2-.57.1-.85.08-.57.16-.85.15-.56-.07-.84-.08-.56-.05-.84-.07-.55-.31-.81-.33-.57.12-.85.09-.55-.14-.83-.16-.57.12-.85.09-.56-.06-.84-.09-.57.06-.85.03-.55-.15-.83-.17-.55-.15-.83-.19-.57.06-.85.02-.57.02-.85-.01-.54-.3-.8-.34-.56-.06-.84-.09-.55-.14-.83-.17-.58.05-.85,0-.55-.17-.81-.22-.55-.1-.81-.15c-.28-.05-.55-.14-.81-.2-.28-.06-.56-.09-.83-.15-.28-.06-.59.03-.85-.03-.28-.07-.58-.03-.84-.1-.28-.08-.56-.14-.81-.21-.28-.09-.55-.2-.79-.29-.29-.1-.47-.4-.7-.5-.29-.14-.58-.21-.76-.35-.27-.22-.28-.49-.28-.72s0-.52.28-.74c.17-.15.4-.37.69-.51.22-.12.51-.19.79-.29.24-.09.5-.22.78-.3.26-.08.58.08.87,0,.26-.07.48-.33.76-.4.26-.06.54-.1.83-.16.27-.06.52-.21.8-.27.27-.05.59.2.87.15s.52-.19.8-.23.55-.09.83-.13.54-.14.81-.19.55-.13.83-.17.56,0,.84-.03.56.07.84.03.55-.06.83-.09.52-.26.81-.28.57.13.85.1.54-.19.81-.21.54-.21.81-.23.57.16.85.13.55-.08.84-.1.55-.1.84-.13.57.08.85.06.56-.02.84-.05.55-.06.83-.07.55-.15.83-.16.56.1.84.09.56,0,.84,0,.55-.31.83-.33.56.09.85.07.57.15.85.14.55-.22.84-.23.57.15.85.15.55-.21.83-.21.56.13.84.12.56-.09.84-.09.56-.09.84-.09.57.15.85.15.56.03.85.03.56-.09.84-.1.56-.15.84-.16.57.21.85.2.56-.22.85-.22h.85c.28,0,.57.03.86.03s.56.07.84.07.56.16.84.16.56-.15.84-.14.56-.15.84-.15.56.21.84.21h.84c.28,0,.56,0,.84.01s.56.08.84.08.57-.17.85-.17.56.23.84.24.56-.05.84-.03c.28.01.57-.12.85-.1s.56.05.84.06.56.16.84.17.56.06.84.07.57-.22.85-.21.56.03.84.06.56.13.84.14.57-.13.85-.1.56.15.83.17.57-.12.85-.09.56.08.84.09.54.31.81.34.56,0,.84.02.57-.13.85-.1.57-.03.84,0,.56.03.84.07.55.15.83.19.56.01.84.03.55.15.83.19.56.09.84.13.58-.08.86-.05.54.29.8.33.57.02.84.06.55.14.81.19.58-.1.86-.06.52.3.79.35c.28.05.57.05.83.09.28.06.55.15.81.21.28.06.58.01.84.08.28.07.59,0,.85.07.28.08.56.14.81.21.28.09.52.28.76.36.29.1.59.14.81.24.29.14.56.3.73.45.27.22.37.57.37.8h.02Z"/>
            <g>
              <g>
                <path class="cls-1" d="m303.83,90.64c.1-.07.21-.14.3-.21.07-.06.12-.08.17-.13-.21.06-.42.1-.58.22-.27.19-.42.51-.69.71.09-.07.17-.14.26-.21.19-.15.36-.27.54-.38Z"/>
                <path class="cls-1" d="m288.82,99.5c.13,0,.26.02.4.05.19.02.36.05.5.03.19-.01.36-.07.56-.12l.34-.09c.29-.07.58-.16.88-.28.05-.01.09-.01.14-.02.09-.06.19-.12.27-.17.15-.1.31-.21.48-.3l.4-.22c.16-.09.34-.19.5-.28.17-.1.35-.19.52-.27.13-.06.27-.13.38-.2.13-.08.24-.17.36-.26.15-.12.31-.23.48-.34.14-.08.27-.19.41-.28.14-.1.29-.21.43-.3.19-.12.37-.21.57-.3.12-.06.23-.1.34-.17.1-.07.19-.15.27-.24.16-.16.33-.31.51-.43.16-.1.33-.2.49-.3.13-.08.27-.15.38-.24.15-.1.3-.2.47-.3.14-.08.27-.16.4-.26l.8-.57c.17-.13.3-.23.43-.34.14-.12.27-.22.41-.33.16-.12.33-.22.48-.33.13-.08.26-.16.36-.24.07-.05.15-.15.24-.26.13-.15.28-.33.48-.49.19-.15.35-.27.49-.38-.27.19-.57.33-.84.51-.28.19-.69.21-.97.4-.28.19-.45.52-.73.7-.29.19-.51.44-.8.62s-.67.21-.97.38-.62.29-.91.47-.59.33-.88.49-.5.48-.79.64c-.3.16-.54.43-.83.59-.3.16-.7.16-1,.31s-.54.43-.84.58-.64.24-.94.4c-.31.15-.67.17-.99.31-.31.14-.52.48-.84.62-.31.14-.67.19-.99.31-.31.13-.69.14-1.01.27-.3.12-.58.3-.87.43.07.02.14.06.21.07.29.08.57.13.85.15h-.01Z"/>
                <path class="cls-5" d="m334.07,40.23c0-.33.01-.66,0-.98,0-.33-.22-.65-.24-.98-.01-.33.08-.66.05-.99-.02-.33-.03-.65-.07-.98s-.12-.65-.16-.97c-.05-.33-.16-.64-.22-.97s-.13-.64-.2-.97.07-.69,0-1c-.08-.33-.5-.56-.58-.87-.09-.31-.2-.62-.3-.93-.1-.31.02-.69-.09-1-.12-.31-.35-.58-.47-.88-.13-.3-.12-.66-.24-.97-.14-.3-.41-.55-.56-.84-.15-.3-.08-.7-.23-.98-.16-.29-.48-.5-.65-.79-.17-.28-.35-.57-.52-.85-.19-.28-.49-.48-.69-.74-.2-.27-.15-.7-.36-.97-.21-.27-.7-.31-.92-.57s-.35-.57-.58-.81-.36-.57-.6-.8c-.24-.23-.59-.36-.85-.59-.26-.22-.35-.62-.62-.83-.27-.21-.74-.17-1.02-.38-.28-.2-.36-.64-.64-.83-.28-.19-.64-.29-.93-.47s-.63-.29-.93-.45c-.3-.16-.55-.43-.85-.58s-.71-.14-1.02-.29c-.31-.14-.57-.41-.88-.54-.31-.13-.69-.14-1.01-.27-.33-.12-.63-.28-.95-.38s-.72-.02-1.06-.12-.59-.43-.93-.51-.69-.13-1.02-.2-.69-.09-1.04-.15c-.34-.06-.71.02-1.05-.02-.34-.05-.65-.38-1-.42s-.71.13-1.06.1c-.35-.02-.69-.19-1.04-.21-.35-.01-.7.21-1.05.2-.35,0-.69.01-1.04.01s-.7-.09-1.05-.08-.69.15-1.04.17-.72-.3-1.07-.28c-.35.03-.65.42-1,.45s-.71-.08-1.06-.03c-.34.05-.72-.1-1.07-.05-.34.06-.62.44-.97.5-.34.06-.73-.1-1.07-.03s-.7.06-1.04.13-.65.26-.99.34-.66.21-1,.29c-.34.09-.65.23-.99.33-.33.09-.71.06-1.05.15-.33.1-.66.21-.99.31-.33.1-.58.42-.91.52-.33.12-.72.05-1.05.17-.33.12-.65.23-.98.35-.33.13-.55.45-.87.58-.31.13-.62.3-.93.43-.31.13-.72.09-1.04.23s-.54.45-.85.59c-.31.14-.76.03-1.07.19-.31.15-.65.23-.97.38-.3.15-.57.37-.88.54-.3.15-.64.26-.94.42-.3.16-.5.49-.8.65s-.71.15-1.01.33c-.3.16-.47.52-.77.7-.29.17-.6.33-.9.5-.29.17-.62.3-.91.49-.29.17-.67.24-.95.42-.29.19-.49.49-.77.67s-.54.42-.81.62c-.28.19-.65.28-.93.47-.28.2-.59.35-.87.55s-.52.44-.79.64-.56.4-.83.6-.41.56-.67.77c-.27.21-.5.47-.77.67s-.59.48-.86.69c-.27-.21-.45-.62-.72-.83s-.64-.3-.91-.51c-.27-.21-.38-.59-.65-.79-.27-.21-.76-.16-1.02-.37-.28-.2-.56-.38-.84-.58s-.36-.63-.64-.83c-.28-.2-.74-.16-1.02-.35s-.54-.42-.81-.62c-.29-.19-.51-.45-.8-.64s-.54-.43-.83-.6c-.29-.19-.71-.19-1-.36s-.47-.54-.76-.71-.71-.16-1.01-.33c-.3-.17-.58-.35-.88-.51s-.47-.56-.77-.71c-.3-.16-.6-.34-.91-.49s-.78-.01-1.09-.16c-.31-.15-.59-.34-.91-.49s-.6-.31-.92-.45-.57-.4-.88-.52c-.31-.14-.63-.29-.94-.42-.31-.13-.72-.08-1.04-.21-.33-.13-.52-.5-.85-.63s-.73-.02-1.06-.14-.54-.52-.86-.64c-.33-.12-.73-.03-1.06-.14s-.7-.1-1.04-.2c-.34-.1-.58-.43-.92-.52s-.69-.14-1.02-.22c-.34-.09-.71-.03-1.05-.12s-.67-.17-1.01-.24c-.34-.07-.69-.12-1.02-.19-.34-.07-.67-.14-1.02-.2s-.67-.2-1.01-.24c-.35-.06-.66-.28-1-.33-.35-.05-.7-.06-1.05-.09-.35-.03-.72.19-1.07.15-.35-.03-.69-.15-1.02-.17-.35-.02-.69-.23-1.04-.24-.35-.01-.7.05-1.05.05s-.7.07-1.05.08c-.35,0-.7-.03-1.05-.02-.35.01-.69.2-1.04.22s-.71-.09-1.06-.06c-.35.03-.67.16-1.02.21s-.69.12-1.02.17c-.34.06-.65.24-.99.31s-.76-.14-1.08-.06c-.34.08-.59.43-.92.52-.34.09-.76-.07-1.08.03-.33.1-.55.48-.87.59s-.73.03-1.05.16c-.31.13-.52.49-.84.63-.31.14-.77.03-1.08.19-.31.15-.62.33-.92.49s-.48.54-.77.71c-.29.17-.51.44-.8.64-.29.19-.57.37-.84.57-.28.2-.55.41-.8.62-.27.21-.76.2-1,.42-.26.22-.35.6-.59.84s-.42.52-.65.77-.52.44-.74.69c-.22.26-.59.4-.8.66s-.21.66-.41.93c-.2.27-.59.42-.78.7-.19.28-.15.67-.33.95-.17.28-.26.6-.41.9-.16.29-.58.45-.73.76-.15.29-.27.6-.4.91-.13.3-.12.65-.24.97-.12.3-.34.58-.44.9-.1.31-.08.65-.19.98-.09.31-.33.59-.42.91-.08.31,0,.67-.07.99-.08.31-.16.63-.23.95-.07.31-.31.6-.37.93-.06.33.14.67.1,1-.05.33-.31.62-.35.94-.03.33.15.66.13.99s-.35.63-.37.97c-.01.33.21.66.21.99s.06.65.06.98-.19.65-.17.98c0,.33.2.64.21.98.02.33-.15.66-.13.99s.27.63.3.95c.03.33.08.64.13.97.05.33-.28.69-.23,1.01.05.33.43.59.49.92s.06.65.12.97.15.63.22.95c.07.31.1.64.17.97.07.31.14.64.23.95.08.31-.05.69.03,1,.09.31.28.6.38.92.09.31.14.64.24.95.1.31.23.62.34.93s.24.62.36.92c.1.31.4.56.51.87.12.3.21.62.34.93.12.3.12.65.24.95.13.3.37.56.5.87.13.3.16.64.29.94.14.3.13.66.28.95.14.3.29.59.44.9.15.29.56.48.71.78.15.29.09.69.26.98.15.29.31.58.48.87s.52.49.69.78c.16.29.22.63.4.92.16.29.42.52.59.81.17.28.26.62.43.9s.2.65.38.93c.17.28.35.57.54.85.19.28.58.43.77.71s.42.52.62.8c.19.28.31.59.51.86.2.27.37.56.57.84.2.27.24.63.44.9s.66.35.87.6c.2.26.36.55.57.81.21.26.47.48.67.73s.21.66.42.92c.21.26.57.41.78.65.22.26.29.62.5.86.22.24.5.45.72.7s.51.44.73.69c.22.24.38.55.6.79.23.24.63.35.86.58.23.24.44.5.67.73s.4.54.63.77c.24.23.55.41.79.64.24.23.45.49.7.71.24.23.37.57.62.79.24.22.54.42.78.64.26.22.47.49.72.7.26.22.69.26.94.48s.44.51.7.72c.26.21.47.49.73.7s.65.28.92.49c.27.21.44.51.71.72.27.2.67.24.94.44s.43.52.71.72c.28.2.51.44.79.63.28.2.52.43.8.62.28.19.59.34.88.52.28.19.59.34.88.52.29.19.56.38.85.56s.64.28.93.45.54.43.83.59c.29.17.5.49.79.65s.77.06,1.07.22.54.43.83.59c.3.16.52.45.83.6s.64.24.95.4c.3.15.73.08,1.05.22.31.15.54.43.85.57.31.14.55.43.86.57.31.14.63.29.94.42s.73.06,1.05.19.69.13,1,.26c.02,0,.06.03.08.05.17-.05.34-.08.43-.14.14-.07.27-.21.42-.37l.22-.22c.1-.12.28-.28.3-.35.03-.1,0-.31-.02-.51l-.03-.24c-.02-.16-.05-.36-.09-.44-.14-.28-.28-.52-.41-.7-.13-.17-.29-.28-.4-.35l-.23-.19s-.02-.03-.03-.05c-.12-.06-.23-.12-.35-.19-.17-.09-.35-.2-.51-.29-.13-.07-.26-.15-.37-.22-.07-.03-.19-.07-.3-.1-.2-.06-.43-.13-.66-.27-.19-.1-.36-.23-.54-.36-.1-.08-.21-.15-.31-.22-.19-.1-.35-.22-.52-.35-.12-.08-.22-.16-.34-.23-.17-.1-.34-.21-.5-.31-.13-.08-.24-.16-.37-.23-.06-.03-.19-.08-.29-.12-.19-.07-.43-.15-.66-.29-.24-.15-.43-.34-.58-.49-.07-.07-.16-.16-.21-.2-.09-.06-.21-.1-.33-.15-.21-.09-.42-.19-.6-.3-.17-.12-.34-.23-.49-.35-.12-.08-.23-.17-.34-.24-.17-.12-.34-.24-.5-.36-.12-.08-.22-.16-.34-.24l-.37-.24c-.16-.1-.33-.22-.49-.33-.13-.09-.26-.17-.38-.24-.16-.1-.33-.21-.48-.31-.13-.09-.27-.17-.38-.26-.16-.1-.33-.21-.47-.31l-.34-.24c-.19-.14-.35-.26-.49-.37-.38-.29-.52-.48-.64-.66-.02-.05-.03-.05-.1-.1-.41-.34-.45-.94-.12-1.35.34-.41.94-.45,1.35-.12.26.22.37.38.47.52.02.05.05.07.21.2.13.1.29.21.45.34l.35.26c.1.08.22.15.34.22.16.1.34.21.5.33.12.08.23.16.36.24.15.09.31.2.47.3.14.09.28.19.43.29l.41.27c.13.09.26.19.38.28.14.1.28.21.43.31.14.09.28.2.42.3.13.09.26.2.4.28.09.06.2.09.3.14.21.08.42.17.6.3.23.15.41.33.55.47.08.08.17.17.22.21.05.03.17.07.28.1.19.07.43.15.66.29.14.08.28.17.42.27s.28.19.43.27c.16.09.31.21.48.31.12.08.23.17.36.24.17.09.33.21.49.34.12.08.22.16.34.23.06.03.17.07.29.1.19.06.43.13.66.27.14.08.29.16.43.24s.29.17.44.26c.17.09.35.19.52.28l.37.19c.19.1.36.22.54.35.1.07.21.15.33.21.15.08.3.15.47.22.08.03.16.08.24.12.06.01.12,0,.16.03.2.08.41.12.6.16l.24.06c.14.03.27.07.4.1.17.05.34.09.45.1.09,0,.23-.03.38-.07s.3-.08.44-.1c.2-.03.42-.03.62-.03h.24s.14-.14.21-.22c.09-.1.19-.2.28-.28s.33-.29.35-.37c.02-.09-.09-.44-.14-.58l-.05-.14c-.08-.26-.16-.51-.29-.69-.13-.16-.31-.34-.51-.51l-.2-.1c-.21-.1-.41-.24-.6-.4-.09-.07-.19-.15-.29-.21-.19-.09-.37-.2-.55-.3l-.38-.22c-.06-.03-.19-.07-.31-.1-.2-.06-.45-.13-.7-.27-.19-.1-.36-.21-.54-.33-.13-.08-.26-.16-.38-.23-.2-.12-.37-.24-.55-.38-.1-.08-.21-.16-.33-.23s-.23-.12-.36-.16c-.21-.09-.42-.17-.6-.29-.13-.08-.27-.15-.4-.23-.17-.1-.35-.2-.52-.3-.2-.12-.37-.27-.55-.42-.09-.08-.2-.17-.3-.23l-.36-.22c-.19-.12-.36-.22-.54-.34-.17-.1-.34-.22-.5-.34-.13-.09-.24-.17-.37-.26-.09-.06-.2-.1-.3-.14-.19-.08-.43-.17-.65-.33-.19-.12-.35-.27-.51-.41-.1-.09-.21-.17-.31-.26-.17-.12-.34-.26-.5-.4-.1-.09-.22-.19-.34-.27-.16-.12-.33-.24-.49-.36-.12-.09-.24-.19-.36-.28-.07-.05-.19-.1-.31-.15-.2-.08-.42-.19-.64-.35-.24-.17-.42-.38-.56-.55-.07-.08-.15-.19-.2-.22-.1-.08-.22-.13-.34-.19-.21-.1-.41-.22-.58-.35s-.34-.27-.5-.41c-.1-.09-.21-.19-.31-.27-.17-.14-.35-.28-.5-.41-.1-.09-.21-.17-.31-.26l-.41-.31c-.16-.12-.3-.23-.43-.34-.22-.19-.31-.24-.4-.3-.12-.08-.21-.14-.45-.35-.41-.34-.45-.94-.1-1.35.34-.41.94-.45,1.35-.1.15.13.21.17.28.22.1.07.23.15.54.4.12.09.24.19.38.29s.29.22.44.34c.12.09.24.2.36.3.14.12.28.24.44.36.13.1.26.21.4.33.13.12.27.22.41.34.09.07.2.12.3.17.21.1.41.22.6.36.22.16.38.35.51.5.08.09.17.2.23.24.06.03.17.09.28.14.19.08.42.19.65.35.14.1.28.21.42.31s.28.21.42.31c.15.1.3.23.45.36.12.09.23.2.36.29.16.12.31.24.48.37.1.09.22.19.34.27.06.05.19.09.3.14.22.09.44.19.64.31.14.09.29.2.43.29.14.1.28.2.43.29.16.1.34.21.51.31l.37.23c.19.12.35.26.51.4.1.08.21.17.31.24.15.09.3.19.47.27.15.08.29.16.44.26.12.07.24.12.36.17.2.08.4.17.58.28s.35.23.52.36c.1.08.22.17.34.24.16.09.31.19.47.29.14.09.28.17.43.26.06.03.19.07.31.1.2.06.44.13.67.26.14.08.29.16.43.24.16.09.31.19.49.27.2.1.38.24.57.38.09.07.2.15.3.21l.37.19h0l.06.03c.16.09.34.17.5.26.07.03.2.06.33.09.15.03.34.08.52.15.03,0,.07,0,.1.01.35.13.58.22.79.26.22.03.44.03.71.03h.45c.17,0,.35.01.45,0,.19-.05.38-.14.6-.26l.3-.15c.15-.07.35-.16.41-.22.03-.03.08-.21.12-.34l.12-.4c.03-.12.09-.28.09-.34-.01,0-.12-.14-.2-.22-.1-.13-.21-.26-.29-.38-.12-.17-.22-.34-.31-.48-.16-.08-.33-.15-.49-.24-.13-.07-.26-.13-.38-.2-.2-.09-.38-.21-.57-.34-.09-.06-.19-.12-.29-.17-.28-.07-.6-.16-.94-.37-.1-.07-.19-.15-.24-.24-.1-.06-.22-.12-.33-.19-.13-.07-.24-.15-.37-.22-.06-.03-.17-.06-.29-.09-.2-.06-.45-.13-.7-.26-.17-.09-.35-.2-.52-.3l-.37-.22c-.2-.12-.38-.27-.57-.42-.08-.07-.17-.15-.27-.21-.17-.1-.34-.21-.51-.31l-.37-.23s-.17-.07-.29-.1c-.2-.07-.44-.14-.67-.29-.17-.1-.34-.22-.5-.34-.12-.08-.24-.16-.36-.24-.19-.12-.36-.26-.52-.4-.09-.08-.2-.16-.3-.23s-.22-.12-.34-.17c-.2-.09-.4-.19-.58-.3l-.38-.24c-.16-.1-.33-.2-.49-.3-.19-.13-.36-.28-.52-.43-.09-.08-.17-.16-.28-.23l-.86-.57c-.16-.12-.33-.23-.48-.35-.12-.09-.23-.17-.35-.27-.06-.05-.17-.09-.29-.14-.19-.08-.41-.17-.63-.34-.17-.13-.34-.27-.5-.42-.09-.09-.19-.17-.29-.26-.17-.13-.34-.27-.49-.41-.1-.09-.2-.17-.3-.26-.16-.13-.33-.24-.48-.37-.12-.09-.22-.19-.34-.27-.07-.05-.17-.1-.3-.16-.19-.09-.4-.19-.6-.35-.24-.19-.42-.41-.55-.57-.06-.07-.13-.16-.16-.19-.12-.09-.24-.16-.36-.22-.2-.1-.37-.21-.52-.33-.33-.27-.42-.36-.52-.47-.06-.06-.12-.12-.26-.23-.41-.34-.45-.94-.1-1.35.34-.41.95-.45,1.35-.1.2.16.28.24.36.33.07.07.14.14.38.34.07.06.15.09.23.14.2.12.42.23.63.4.2.16.34.34.47.5.08.1.16.21.23.26.03.03.15.08.24.13.19.09.42.2.65.37.13.09.26.2.38.31.13.1.27.22.41.33.15.1.29.23.43.36.12.09.22.2.35.29.15.12.3.24.45.38.1.09.21.2.33.28.06.03.16.09.28.14.19.08.41.17.64.34.14.09.27.2.41.3s.27.21.41.3l.84.57c.17.12.34.26.49.41.09.08.19.17.29.24.14.09.28.17.43.27.14.09.29.17.43.27.1.07.22.12.34.17.2.09.38.19.57.3.17.1.34.24.5.37.1.08.2.17.31.24.15.09.3.2.44.3.13.09.26.19.4.27.05.03.17.07.28.1.19.06.43.14.66.28.14.08.28.17.41.26.15.09.29.19.45.28.2.12.37.26.55.41.09.07.17.15.28.21.14.08.28.16.42.24.15.09.3.19.47.27.06.03.19.07.29.09.2.06.43.12.67.24.15.08.3.17.45.26.14.08.28.17.43.24.27.14.54.27.81.41l.13.03c.2.06.42.07.73.07h.27c.2,0,.4,0,.49-.03.21-.08.43-.21.62-.36.2-.16.34-.34.41-.49,0-.01,0-.15-.01-.24,0-.12-.01-.22-.01-.34v-.13c0-.21,0-.38-.03-.51-.1-.31-.17-.52-.27-.65-.15-.21-.29-.37-.41-.49-.08-.03-.16-.05-.24-.07-.21-.06-.45-.13-.7-.26-.26-.14-.45-.31-.62-.45-.09-.08-.19-.16-.24-.19-.1-.06-.22-.09-.34-.14-.22-.08-.44-.16-.64-.27-.17-.1-.35-.21-.52-.33-.13-.08-.26-.16-.38-.23-.17-.1-.35-.21-.52-.33-.13-.08-.26-.16-.38-.23l-.4-.22c-.17-.1-.35-.2-.52-.3-.13-.08-.26-.15-.4-.22-.17-.09-.36-.19-.52-.29-.13-.08-.26-.15-.4-.22-.19-.09-.36-.2-.54-.3l-.37-.23c-.17-.12-.35-.22-.52-.34-.23-.15-.42-.34-.56-.48-.08-.08-.15-.16-.24-.22l-.36-.23c-.17-.12-.35-.23-.52-.35-.1-.07-.22-.13-.34-.17-.21-.1-.42-.2-.59-.33-.17-.12-.34-.24-.49-.37-.12-.09-.23-.19-.35-.27-.14-.09-.27-.19-.4-.27-.16-.1-.33-.21-.48-.33-.19-.14-.36-.3-.52-.45-.09-.09-.17-.17-.28-.24-.13-.09-.27-.19-.4-.27-.17-.12-.34-.22-.48-.33-.21-.16-.38-.34-.55-.51-.08-.08-.15-.15-.22-.21-.16-.14-.21-.15-.28-.17-.17-.07-.36-.16-.64-.4-.41-.35-.45-.95-.1-1.35.34-.41.95-.44,1.35-.1.03.03.07.06.09.07.23.09.43.19.78.47.13.1.26.23.38.37.1.1.22.23.36.34.1.08.22.16.35.23.16.1.34.22.5.35.15.12.29.24.44.38.1.1.21.21.34.29.12.09.24.17.38.26.15.1.31.21.48.31.14.09.28.21.41.31.13.1.27.21.41.31.09.07.21.12.31.16.21.09.41.2.6.33l.55.36c.13,0,.26.02.38.08.06.02.14.07.24.13.15.09.36.21.64.3.28.09.6.17.95.24l.2.03c.24.05.5.1.76.13.08,0,.23-.03.37-.07.17-.05.36-.08.54-.1.33-.03.58-.08.83-.17.12-.05.23-.08.36-.12.16-.05.34-.1.41-.16.24-.17.43-.33.55-.47v-.34c0-.17,0-.27-.1-.41l-.12-.16c-.13-.19-.26-.36-.42-.5-.09-.08-.21-.14-.34-.2-.17-.09-.35-.19-.52-.3-.16-.12-.35-.22-.54-.33l-.36-.21c-.16-.1-.33-.22-.49-.35-.12-.09-.24-.2-.37-.27-.14-.08-.28-.15-.43-.23-.15-.08-.33-.17-.5-.27-.19-.1-.38-.23-.6-.36l-.34-.21c-.08-.05-.16-.07-.26-.1-.21-.08-.48-.19-.76-.37-.17-.12-.34-.26-.51-.41-.1-.09-.22-.2-.35-.29-.16-.12-.33-.26-.49-.41-.1-.1-.22-.2-.35-.3-.16-.13-.33-.26-.49-.41-.12-.09-.23-.2-.36-.3-.08-.06-.17-.1-.27-.15-.2-.1-.44-.23-.66-.42-.41-.34-.45-.94-.12-1.35s.94-.45,1.35-.12c.07.06.2.13.33.2.21.12.42.22.58.36.14.12.27.22.4.34.14.12.28.23.41.34.16.13.31.26.45.4.12.1.22.2.34.29.17.13.34.27.49.4.1.09.21.19.33.27.09.06.22.12.37.17.21.08.41.16.57.27l.36.22c.19.12.35.22.51.31s.31.17.45.24c.16.09.33.17.48.26.22.13.43.28.62.43.1.08.2.15.29.22l.34.2c.23.13.44.26.64.4.13.08.24.15.37.21.24.13.47.26.64.41.37.3.6.64.78.88l.09.13c.35.49.5,1,.48,1.59-.02.44-.06,1-.43,1.47-.28.35-.6.59-.83.76-.42.31-.79.43-1.08.52-.08.02-.16.05-.24.08-.44.16-.87.23-1.27.28-.05,0-.1.02-.15.03.03.01.06.03.09.05l.43.24c.14.08.29.17.43.27.15.09.3.19.45.28s.3.19.45.28c.14.09.28.17.43.27.1.06.22.09.34.14.21.07.43.15.63.26.24.13.43.3.58.43.09.08.19.16.24.2.07.03.2.07.33.1.23.07.47.14.69.24.06.03.1.07.16.1.29.23.56.54.85.93.26.36.38.74.49,1.05.19.52.17.93.17,1.24v.33c.02.3.05.72-.15,1.15-.19.41-.49.8-.92,1.16-.26.22-.55.38-.84.54.1.15.22.33.31.47.05.07.1.13.15.2.2.23.45.54.58.97.15.55,0,1.05-.12,1.4l-.09.3c-.08.31-.21.79-.6,1.2-.29.3-.64.47-.94.6l-.17.08c-.37.19-.72.36-1.15.45-.22.05-.43.06-.62.06h-.58c-.42,0-.78,0-1.17-.08-.08-.01-.15-.03-.23-.06.12.41.23.93.06,1.48-.17.57-.59.95-.91,1.22-.05.05-.09.1-.15.15-.2.22-.48.52-.91.7-.36.15-.71.15-.99.14h-.29c-.08.01-.16.03-.26.06-.23.06-.52.14-.85.14h-.1c-.34-.01-.63-.1-.88-.17-.09-.02-.2-.06-.29-.08l-.21-.05c-.1-.02-.22-.05-.33-.08l.02.17c.07.41.13.88-.03,1.4-.15.5-.5.85-.77,1.13l-.19.19-.17.17c.22.08.43.15.65.23.33.1.64.24.97.35.33.1.65.23.98.33s.65.23.98.33c.34.09.69.1,1.02.19.34.08.67.15,1.01.23.34.08.7.03,1.04.1s.65.26.99.33c.34.06.69.06,1.02.12.34.06.72-.1,1.06-.06.34.05.66.2,1,.24.34.03.67.2,1.01.23.35.03.71-.16,1.05-.14.35.02.69.02,1.02.05.35.01.67.33,1.02.34.35,0,.69-.16,1.04-.16.23,0,.45.22.69.22s.47-.02.69-.03c.34,0,.69-.33,1.02-.34.34,0,.69.19,1.04.17.34-.01.69-.08,1.02-.1s.7.03,1.04,0,.67-.14,1.02-.17c.34-.03.7.03,1.05-.01.34-.05.65-.27.99-.33.34-.06.7-.02,1.04-.08s.63-.34.97-.41.76.19,1.08.1c.34-.07.66-.17,1-.26s.67-.15,1-.24.66-.17,1-.27c.33-.09.63-.27.97-.37.33-.1.59-.36.92-.47.2-.07.41-.1.62-.15-.07-.06-.14-.1-.2-.16-.36-.37-.62-.8-.76-1.27-.15-.5-.08-.95-.02-1.29.02-.12.05-.2.07-.3-.19.09-.38.17-.62.23-.42.09-.81.15-1.2.17h-.22c-.16.02-.34.03-.52.03-.16,0-.34,0-.51-.03-.41-.07-.73-.22-1-.35l-.2-.09c-.42-.17-.8-.42-1.14-.72-.38-.35-.65-.78-.81-1.28-.15-.48-.16-.97-.06-1.45-.06,0-.12.01-.17.02-.09.02-.19.06-.28.08-.24.08-.54.19-.88.19h0c-.4,0-.72-.13-.95-.21-.08-.02-.15-.06-.23-.08l-.26-.05c-.29-.05-.62-.1-.94-.27-.42-.21-.79-.47-1.08-.77-.33-.33-.67-.73-.83-1.26-.17-.6-.01-1.15.1-1.56.13-.43.31-.84.59-1.26.13-.19.27-.37.42-.55-.28-.14-.55-.3-.81-.52l-.17-.14c-.26-.2-.62-.49-.83-.94-.19-.43-.17-.85-.16-1.15v-.2c0-.37,0-.8.16-1.27.13-.36.31-.72.58-1.09.23-.33.52-.55.77-.74l.12-.09s.1-.07.16-.1c.14-.07.27-.15.4-.23.16-.1.33-.21.5-.3.15-.08.29-.16.43-.26.15-.09.3-.19.47-.27.19-.1.38-.19.59-.26.13-.05.26-.09.36-.16.1-.06.2-.14.29-.22.17-.15.36-.29.55-.41.16-.09.34-.17.5-.27.14-.07.28-.14.42-.22.13-.08.27-.15.4-.22h-.07c-.4-.05-.74-.19-1.05-.31l-.22-.08c-.08-.03-.16-.06-.26-.08-.29-.09-.66-.2-1.01-.47-.26-.2-.41-.45-.55-.67-.06-.09-.1-.19-.17-.28l-.1-.12c-.21-.23-.57-.62-.6-1.22-.03-.65.28-1.19.59-1.62l.09-.13c.17-.24.41-.58.78-.9.19-.15.41-.28.65-.41.12-.07.24-.13.37-.21.09-.06.19-.14.29-.21.2-.15.41-.3.64-.44.19-.12.4-.21.62-.29.13-.06.27-.1.4-.19.15-.08.31-.17.49-.26.14-.07.29-.15.45-.24.05-.02.15-.12.23-.19.17-.15.36-.31.58-.45.16-.1.35-.19.55-.26.15-.06.29-.12.38-.19.12-.08.23-.17.36-.28.14-.12.29-.24.47-.36l.24-.17c.19-.14.4-.28.59-.44.14-.1.29-.21.45-.31.14-.09.28-.19.42-.29.12-.09.22-.2.33-.3.14-.14.29-.28.45-.42.41-.34,1.01-.29,1.35.12s.29,1.01-.12,1.35c-.12.1-.23.21-.34.31-.15.15-.3.3-.47.43-.19.15-.38.28-.57.41-.12.07-.22.14-.33.22-.22.17-.44.33-.65.48l-.23.17c-.13.09-.26.2-.37.29-.17.14-.34.28-.51.4-.27.17-.52.29-.73.37-.09.03-.19.07-.27.12-.13.07-.22.17-.33.26-.16.14-.34.3-.57.43-.19.1-.35.19-.51.27-.14.07-.28.14-.41.22-.2.12-.41.21-.62.29-.13.05-.24.09-.36.16-.19.1-.34.23-.5.35-.13.09-.24.17-.36.26-.17.12-.35.22-.52.3-.13.07-.24.13-.35.21-.17.14-.29.33-.43.51l-.1.15c-.13.17-.19.28-.21.34.02.03.06.06.08.08.07.07.14.15.2.22.12.15.22.31.31.48.05.07.08.14.13.2.01,0,.2.06.36.1.13.03.26.08.37.13l.26.1c.21.08.41.16.56.19.2.02.43,0,.67-.01h.24c.15-.02.29-.02.44-.03.19,0,.36,0,.52-.03.24-.05.48-.13.7-.2l.26-.08c.37-.12.66-.21.83-.28.03-.02.06-.05.09-.07l.86-.57c.16-.12.34-.21.51-.31.13-.07.26-.14.37-.22.19-.13.38-.23.57-.34.12-.06.23-.12.33-.19.06-.05.15-.14.23-.24.14-.15.29-.34.5-.49.24-.17.48-.28.67-.36.09-.03.21-.09.24-.12.13-.09.22-.2.33-.3.14-.15.29-.29.43-.4.28-.22.54-.42.74-.59.28-.22.34-.29.41-.36.08-.09.16-.19.38-.37.4-.35,1-.3,1.35.1s.3,1.01-.1,1.35c-.13.1-.17.16-.22.21-.1.12-.2.22-.57.51-.27.22-.52.42-.83.65-.08.07-.16.15-.24.23-.16.16-.34.34-.54.49-.22.16-.44.26-.64.35-.13.06-.24.1-.3.15-.05.03-.13.13-.2.21-.14.16-.31.36-.56.54-.17.13-.36.23-.57.33-.12.06-.24.12-.35.2-.16.12-.34.22-.52.33-.13.07-.26.14-.38.23-.24.16-.5.34-.76.51l-.12.08s-.14.13-.23.21c-.15.15-.34.34-.57.49-.16.1-.34.21-.52.3-.13.07-.27.14-.4.22-.13.08-.24.16-.36.24-.16.12-.34.24-.51.35-.29.19-.59.36-.9.55-.17.1-.35.2-.52.29-.13.07-.27.14-.4.22-.17.1-.36.2-.54.28-.13.07-.27.13-.4.21-.1.06-.19.14-.28.22-.19.15-.37.3-.58.42-.2.1-.41.2-.62.27-.13.05-.24.09-.36.15-.13.07-.26.15-.38.22-.17.1-.35.21-.54.31-.13.07-.24.14-.36.22-.15.09-.3.2-.47.28l-.06.05c-.17.14-.31.24-.4.35-.15.22-.27.42-.33.6-.06.16-.06.37-.06.62v.62s.15.13.24.2c.08.06.15.12.23.19.2.17.37.28.58.35l.24.09c.19.07.35.14.47.14.19-.01.44-.06.69-.13.02,0,.05-.02.07-.03.15-.07.29-.15.43-.23.15-.09.3-.17.47-.26.19-.09.37-.16.57-.24.13-.05.26-.09.37-.15.13-.07.26-.15.38-.23.16-.1.31-.2.48-.29.19-.1.37-.17.57-.26.13-.05.24-.09.36-.16.09-.06.19-.14.27-.21.17-.15.35-.29.55-.41.27-.15.54-.22.74-.27.08-.02.2-.05.23-.07.05-.02.14-.12.21-.2.14-.14.33-.33.57-.48.17-.1.36-.2.54-.28.13-.06.24-.12.36-.19s.21-.16.31-.24c.16-.13.33-.27.49-.37.19-.12.37-.21.57-.3.12-.06.23-.1.34-.17.13-.08.26-.17.37-.27.15-.12.29-.22.44-.33.19-.12.37-.22.57-.31.12-.06.22-.1.33-.17.14-.09.28-.19.43-.28.14-.09.28-.19.42-.28.06-.05.15-.14.24-.23.16-.17.33-.34.51-.47.19-.14.41-.24.62-.34.1-.05.2-.08.29-.15.13-.09.24-.19.35-.29.14-.13.29-.24.43-.35l.38-.28c.15-.1.29-.21.44-.31.16-.13.34-.23.51-.34.12-.07.23-.14.34-.22.13-.09.23-.2.35-.3.14-.13.28-.26.42-.36.14-.12.28-.22.4-.34.13-.12.26-.22.37-.31.2-.15.41-.28.59-.4.09-.06.19-.1.26-.16.16-.14.19-.17.22-.22.09-.14.21-.29.47-.51.41-.34,1.01-.29,1.35.1.34.41.29,1.01-.1,1.35-.08.07-.09.08-.12.13-.12.17-.24.35-.6.63-.14.12-.3.22-.49.33-.12.07-.26.15-.38.24-.09.08-.2.16-.29.26-.15.14-.31.28-.49.42-.09.07-.19.16-.29.26-.15.14-.31.29-.49.42-.15.12-.33.22-.5.33-.13.07-.24.15-.37.24-.15.12-.31.22-.48.34l-.36.27c-.1.08-.21.16-.31.26-.15.14-.31.27-.49.4-.19.13-.4.23-.6.34-.1.05-.21.09-.3.16-.08.06-.15.14-.22.22-.14.15-.31.34-.55.49-.15.1-.31.21-.47.31l-.4.26c-.19.13-.37.22-.58.31-.12.06-.23.1-.34.17-.12.08-.23.16-.34.24-.16.13-.33.24-.49.36-.19.12-.38.21-.58.3-.12.06-.23.1-.34.17s-.2.15-.3.23c-.16.14-.34.28-.52.4-.17.12-.37.21-.56.29-.12.06-.24.12-.36.19-.05.02-.14.12-.21.19-.15.15-.34.34-.58.49-.27.16-.54.22-.76.28-.08.02-.21.05-.24.07-.09.06-.17.13-.26.21-.19.15-.37.31-.58.43-.19.1-.4.19-.59.27-.12.05-.24.09-.36.15-.13.07-.24.15-.36.22-.17.12-.35.22-.52.31-.2.1-.4.19-.6.26-.02,0-.05.02-.07.03-.07.12-.16.23-.29.3-.37.23-.76.34-1.06.41l-.14.03c-.09.03-.19.08-.28.13-.13.06-.27.12-.4.17-.1.05-.2.12-.3.19-.1.07-.21.13-.31.19l-.02.02c-.2.19-.37.4-.51.6-.17.27-.29.5-.35.71-.06.19-.14.47-.12.56,0,.03.07.15.34.43.14.15.34.28.57.4.07.03.26.07.41.09.12.02.23.03.34.07.16.03.33.09.49.15.09.03.24.09.29.09.03,0,.17-.05.27-.08.17-.06.36-.12.55-.15.13-.02.27-.05.41-.06.13-.01.23-.03.33-.05l.02-.02c.14-.07.28-.15.42-.22.16-.09.33-.19.5-.27.19-.09.38-.16.58-.23.13-.05.27-.09.4-.15.1-.06.2-.14.3-.21.19-.14.37-.28.57-.38.27-.14.54-.2.76-.24.09-.02.22-.05.27-.07.06-.02.15-.12.24-.2.15-.14.35-.31.59-.45.17-.1.37-.19.56-.27.13-.06.27-.12.4-.19.12-.07.23-.15.34-.24.16-.13.34-.26.51-.36.19-.1.38-.2.58-.28.13-.05.24-.1.36-.16.14-.08.27-.17.4-.27.15-.1.3-.22.47-.31.19-.12.38-.21.58-.29.12-.06.24-.1.36-.17.14-.09.29-.19.44-.27.15-.09.3-.19.44-.28.07-.05.16-.14.26-.23.17-.16.34-.33.54-.45s.41-.22.63-.31c.1-.05.22-.09.31-.15.13-.08.24-.19.36-.28.15-.13.3-.24.45-.35l.4-.27c.16-.1.31-.21.47-.31.17-.12.35-.22.52-.33.13-.07.26-.14.37-.23.13-.09.24-.2.36-.29.15-.13.29-.26.45-.37.14-.1.27-.21.4-.31.14-.12.28-.23.42-.34.19-.14.37-.24.57-.35.12-.06.22-.13.33-.2.1-.08.2-.19.28-.28.15-.16.3-.33.47-.45.17-.13.34-.24.5-.36.13-.08.24-.16.35-.24.17-.14.35-.26.5-.37.13-.09.23-.16.34-.24l.17-.14c.19-.15.36-.29.51-.42l.1-.08c.41-.34,1.01-.29,1.35.1.34.41.29,1.01-.1,1.35l-.1.08c-.16.14-.35.29-.55.45l-.17.14c-.13.1-.27.21-.43.31-.14.09-.28.2-.43.31-.14.12-.3.22-.47.34-.13.08-.27.17-.4.28-.08.06-.15.15-.22.23-.16.17-.34.36-.54.51-.16.13-.35.23-.55.35-.12.07-.24.13-.36.22-.12.08-.22.17-.34.27-.16.13-.31.27-.49.38-.1.08-.21.17-.33.27-.16.14-.33.28-.5.41-.16.12-.35.22-.52.33-.13.07-.26.15-.38.23-.16.12-.34.23-.5.34l-.37.26c-.12.08-.22.17-.34.27-.16.13-.33.27-.5.38-.2.13-.41.23-.63.33-.1.05-.22.09-.33.15-.09.06-.16.14-.24.22-.15.14-.33.33-.56.48-.16.1-.33.21-.5.3l-.41.24c-.2.12-.4.22-.6.31-.12.06-.24.1-.36.17-.13.08-.24.16-.36.24-.17.12-.34.24-.52.35-.19.12-.4.21-.6.29-.12.05-.24.09-.35.16-.12.07-.22.15-.33.23-.17.14-.36.27-.55.38-.19.1-.38.2-.59.28-.13.06-.26.1-.38.17-.06.03-.15.12-.24.2-.16.14-.36.33-.62.47-.28.15-.56.21-.78.26-.09.02-.22.05-.27.07-.1.06-.2.13-.29.2-.15.12-.3.21-.45.3-.02.03-.05.07-.08.1l-.21.17c-.22.19-.41.34-.52.5-.22.29-.36.56-.44.78-.07.2-.07.38,0,.58.06.17.14.3.26.42.17.15.37.28.6.38l.26.12c.19.08.36.16.49.19.15.02.37,0,.6,0h.24c.27-.02.56-.07.86-.14.09-.02.23-.09.38-.16.14-.07.27-.13.42-.2.09-.03.2-.05.3-.06.02-.01.06-.03.08-.05.16-.09.31-.19.48-.27.2-.1.4-.17.6-.24.03-.01.07-.03.12-.05.03-.06.08-.12.14-.17.21-.22.5-.3.79-.27.07-.03.14-.07.21-.1s.16-.12.26-.2c.15-.13.34-.28.56-.41.2-.12.42-.19.64-.27.1-.03.21-.07.3-.12.13-.07.26-.16.37-.24.15-.1.3-.21.47-.3l.41-.23c.16-.09.31-.17.48-.27.17-.1.35-.19.52-.27.13-.06.26-.12.37-.19.13-.08.24-.16.36-.26.15-.12.3-.23.47-.33.14-.09.27-.19.41-.28.14-.1.29-.2.43-.29.19-.12.37-.21.57-.3.12-.06.23-.1.33-.16.09-.07.19-.15.27-.23.16-.15.33-.3.5-.43.16-.1.33-.21.49-.3.13-.07.26-.14.37-.22.15-.1.31-.2.47-.29.13-.08.27-.16.38-.24.29-.21.56-.41.81-.58.15-.1.28-.22.41-.33s.26-.21.37-.3c.17-.13.35-.24.51-.35.12-.07.22-.14.31-.21.15-.12.17-.15.2-.19.09-.15.21-.31.48-.54.41-.34,1.01-.29,1.35.12s.29,1.01-.12,1.35c-.03.02-.06.05-.07.07-.14.22-.28.41-.66.71-.13.1-.28.2-.44.3-.13.08-.27.17-.41.28-.09.07-.2.15-.29.24-.16.13-.33.27-.51.41-.26.19-.54.38-.84.6-.15.1-.31.21-.48.31-.13.08-.26.15-.38.24-.15.1-.33.21-.49.3-.13.07-.26.15-.38.23-.09.06-.16.14-.24.21-.17.16-.35.33-.55.47-.17.12-.37.21-.57.3-.12.06-.23.1-.35.17-.12.07-.23.16-.35.24-.16.12-.33.23-.5.34-.12.07-.22.15-.33.23-.16.13-.34.26-.51.36s-.36.2-.55.28c-.13.06-.26.12-.37.19-.16.1-.34.2-.51.29l-.38.22c-.12.07-.22.14-.34.22-.17.12-.34.23-.52.34-.2.12-.42.2-.64.27-.1.03-.22.07-.31.12-.06.03-.15.12-.24.2-.15.13-.35.29-.59.43-.16.09-.34.17-.51.26l-.16.08c-.08.14-.16.27-.27.42-.16.23-.3.45-.41.66-.09.19-.15.38-.19.64-.05.26-.07.43-.05.49.06.19.15.35.3.5.14.14.38.28.63.41.17.09.36.17.55.26.3-.13.57-.3.87-.43.31-.13.69-.13,1.01-.27.31-.13.67-.17.99-.31.31-.14.52-.47.84-.62.31-.14.67-.17.99-.31.3-.14.64-.24.94-.4.3-.15.54-.43.84-.58s.7-.15,1-.31.54-.43.83-.59.5-.48.79-.64.59-.33.88-.49c.29-.17.62-.29.91-.47s.69-.21.97-.38c.29-.17.51-.43.8-.62.28-.19.45-.51.73-.7.28-.19.69-.21.97-.4.27-.19.57-.33.84-.51.02-.01.03-.02.05-.05.26-.2.42-.52.69-.71.16-.12.37-.16.58-.22.2-.15.35-.24.48-.31.05-.02.07-.05.12-.08.13-.22.22-.49.41-.63.27-.2.76-.15,1.02-.36.27-.21.4-.56.66-.77.26-.21.65-.28.92-.49.26-.21.48-.48.73-.69.26-.21.44-.5.7-.72s.58-.36.84-.58.54-.42.78-.64.26-.69.5-.91c.24-.23.7-.26.94-.49.24-.23.35-.58.58-.81.24-.23.38-.55.63-.78.23-.23.66-.31.9-.55s.52-.43.76-.67c.23-.24.21-.69.44-.93.22-.24.58-.38.8-.63s.49-.47.71-.71.45-.49.67-.74.47-.48.69-.73c.21-.26.42-.52.63-.78.21-.26.41-.52.62-.78.21-.26.47-.49.66-.74.21-.26.28-.6.48-.87.2-.27.54-.44.73-.71s.28-.62.48-.88c.2-.27.54-.45.72-.73.2-.28.16-.69.35-.95.19-.28.29-.6.48-.87.19-.28.49-.49.67-.77s.49-.5.66-.78c.17-.28.31-.59.49-.87.17-.29.4-.55.56-.84.17-.29.2-.65.36-.94s.2-.65.35-.94c.16-.29.62-.44.77-.74.15-.29.27-.62.42-.91.15-.3.17-.65.33-.94.15-.3.42-.55.56-.84.14-.3.34-.58.48-.88s.12-.66.26-.97c.13-.3.44-.55.57-.85s.08-.67.21-.98c.13-.31.34-.58.45-.9s0-.7.1-1c.12-.31.48-.55.59-.86.1-.31.09-.66.2-.98s.34-.59.43-.91-.15-.72-.06-1.04c.09-.31.22-.62.3-.94.08-.31.41-.58.49-.91s.14-.64.21-.97-.12-.69-.05-1.01c.06-.33.15-.64.21-.95.06-.33.38-.6.44-.93.05-.33.1-.65.14-.98.05-.33-.2-.67-.16-1s.06-.65.08-.98-.05-.65-.03-.98c.02-.33.02-.65.02-.98s.37-.65.37-.98h-.01Z"/>
                <path class="cls-4" d="m256.1,76.72c.09.09.19.19.26.23.16.1.33.21.49.3l.4.24c.13.08.26.15.4.22.17.09.34.19.51.28.14.08.28.16.42.23.16.08.33.17.48.27.13.07.26.15.37.22.05-.01.1-.02.15-.03.4-.05.83-.12,1.27-.28.08-.03.16-.06.24-.08.29-.09.66-.2,1.08-.52.22-.16.55-.41.83-.76.37-.47.4-1.02.43-1.47.03-.6-.12-1.1-.48-1.59l-.09-.13c-.17-.24-.41-.58-.78-.88-.19-.15-.41-.28-.64-.41-.12-.07-.24-.13-.37-.21-.2-.13-.41-.26-.64-.4l-.34-.2c-.1-.06-.2-.14-.29-.22-.19-.15-.4-.3-.62-.43-.15-.08-.31-.17-.48-.26-.14-.08-.3-.15-.45-.24-.16-.09-.33-.2-.51-.31l-.36-.22c-.16-.1-.36-.19-.57-.27-.14-.06-.28-.1-.37-.17-.1-.07-.21-.17-.33-.27-.15-.13-.31-.27-.49-.4-.12-.08-.22-.19-.34-.29-.14-.13-.29-.27-.45-.4-.14-.1-.27-.22-.41-.34-.13-.1-.26-.22-.4-.34-.17-.14-.37-.26-.58-.36-.13-.07-.26-.13-.33-.2-.41-.34-1.01-.29-1.35.12s-.29,1.01.12,1.35c.23.2.48.33.66.42.09.05.2.09.27.15.13.1.24.2.36.3.16.14.33.28.49.41.13.09.24.2.35.3.16.15.33.29.49.41.13.09.24.2.35.29.17.15.34.29.51.41.27.19.54.29.76.37.09.03.19.06.26.1l.34.21c.21.14.41.26.6.36.17.09.34.19.5.27.15.08.29.15.43.23s.26.17.37.27c.16.13.33.26.49.35l.36.21c.2.12.37.22.54.33.17.12.35.21.52.3.13.07.24.13.34.2.16.14.29.31.42.5l.12.16c.1.15.12.23.1.41,0,.13-.02.33,0,.34-.12.15-.3.29-.55.47-.08.06-.24.1-.41.16-.13.03-.24.07-.36.12-.24.09-.5.14-.83.17-.19.02-.36.07-.54.1-.14.03-.29.08-.37.07-.26-.01-.51-.07-.76-.13l-.2-.03c-.35-.07-.67-.16-.95-.24-.28-.08-.49-.21-.64-.3-.1-.06-.19-.1-.24-.13-.13-.06-.26-.08-.38-.08l.31.21c.19.13.36.29.52.45v.07Z"/>
                <path class="cls-4" d="m262.24,88.32c-.29,0-.62-.03-.97-.14l-.2-.05s-.08-.02-.12-.03c.09.06.2.12.29.17.19.12.37.24.57.34.13.06.26.13.38.2l.49.24c-.09-.14-.17-.24-.21-.29-.13-.13-.2-.27-.23-.43h-.01Z"/>
                <path class="cls-4" d="m259.73,86.41c.28-.44.87-.58,1.33-.29.1.07.29.12.49.16l.14.03c-.27-.14-.55-.27-.81-.41-.15-.07-.29-.16-.43-.24-.15-.09-.3-.17-.45-.26-.24-.13-.49-.2-.67-.24-.12-.03-.23-.07-.29-.09-.15-.08-.3-.17-.47-.27-.14-.08-.28-.16-.42-.24-.1-.06-.19-.14-.28-.21-.17-.15-.35-.29-.55-.41-.15-.09-.3-.19-.45-.28-.14-.08-.28-.17-.41-.26-.23-.14-.48-.22-.66-.28-.1-.03-.23-.08-.28-.1-.14-.08-.27-.17-.4-.27-.15-.1-.29-.21-.44-.3-.12-.07-.21-.16-.31-.24-.16-.14-.33-.27-.5-.37-.19-.12-.37-.21-.57-.3-.12-.06-.23-.1-.34-.17-.14-.09-.29-.19-.43-.27-.14-.09-.29-.17-.43-.27-.1-.07-.2-.16-.29-.24-.16-.14-.31-.29-.49-.41l-.84-.57c-.14-.09-.28-.2-.41-.3-.14-.1-.27-.21-.41-.3-.22-.16-.45-.26-.64-.34-.1-.05-.22-.09-.28-.14-.12-.08-.22-.19-.33-.28-.15-.14-.29-.27-.45-.38-.13-.09-.23-.2-.35-.29-.14-.13-.28-.26-.43-.36-.14-.1-.28-.21-.41-.33l-.38-.31c-.23-.17-.47-.28-.65-.37-.09-.05-.21-.09-.24-.13-.07-.05-.14-.15-.23-.26-.13-.16-.27-.34-.47-.5-.21-.16-.43-.29-.63-.4-.08-.05-.16-.08-.23-.14-.24-.2-.31-.27-.38-.34-.08-.08-.16-.16-.36-.33-.4-.34-1.01-.29-1.35.1-.34.41-.29,1.01.1,1.35.14.12.2.17.26.23.1.09.2.2.52.47.14.12.33.22.52.33.12.06.24.13.36.22.03.02.1.12.16.19.14.17.3.38.55.57.21.16.42.26.6.35.12.06.23.1.3.16.12.08.22.17.34.27.15.13.3.26.48.37.1.08.2.16.3.26.15.14.31.28.49.41.1.07.2.16.29.26.16.14.33.29.5.42.22.16.44.26.63.34.12.05.23.1.29.14.12.08.23.17.35.27.15.12.31.23.48.35l.86.57c.09.07.19.15.28.23.16.15.34.3.52.43.16.1.33.21.49.3l.38.24c.19.12.38.21.58.3.12.06.23.1.34.17s.2.15.3.23c.16.14.34.28.52.4.13.08.24.16.36.24.16.12.33.23.5.34.24.15.48.22.67.29.12.03.23.08.29.1l.37.23c.17.1.34.21.51.31.09.06.17.13.27.21.19.15.37.3.57.42l.37.22c.17.1.35.21.52.3.24.14.5.21.7.26.12.03.23.07.29.09.13.07.26.14.37.22.1.06.21.12.33.19-.23-.31-.27-.73-.05-1.08v.02Z"/>
                <path class="cls-4" d="m258,91c.22.19.44.4.65.62.2-.13.44-.17.69-.12-.19-.07-.37-.12-.52-.15-.13-.02-.26-.06-.33-.09-.17-.08-.34-.17-.5-.26l-.06-.03-.62.71.67-.69h.01Z"/>
                <path class="cls-4" d="m257.32,91.69l.62-.71-.37-.19c-.1-.06-.21-.14-.3-.21-.19-.14-.37-.28-.57-.38-.16-.08-.33-.17-.49-.27-.14-.08-.28-.16-.43-.24-.24-.13-.49-.2-.67-.26-.12-.03-.24-.07-.31-.1-.14-.08-.29-.17-.43-.26-.15-.09-.3-.2-.47-.29-.12-.07-.23-.15-.34-.24-.17-.13-.34-.26-.52-.36s-.38-.2-.58-.28c-.13-.05-.24-.1-.36-.17-.15-.09-.29-.17-.44-.26-.15-.09-.31-.17-.47-.27-.12-.07-.21-.16-.31-.24-.16-.14-.34-.28-.51-.4l-.37-.23c-.17-.1-.34-.21-.51-.31-.15-.09-.29-.2-.43-.29-.14-.1-.28-.2-.43-.29-.2-.13-.42-.23-.64-.31-.12-.05-.24-.09-.3-.14-.12-.08-.23-.17-.34-.27-.15-.13-.3-.26-.48-.37-.13-.09-.24-.19-.36-.29-.15-.13-.3-.26-.45-.36-.14-.1-.28-.21-.42-.31s-.28-.21-.42-.31c-.23-.16-.47-.27-.65-.35-.12-.05-.23-.1-.28-.14-.06-.05-.15-.14-.23-.24-.13-.15-.29-.34-.51-.5-.19-.14-.4-.26-.6-.36-.1-.06-.21-.1-.3-.17-.14-.1-.28-.22-.41-.34-.13-.12-.26-.22-.4-.33-.15-.12-.3-.24-.44-.36-.13-.1-.24-.21-.36-.3-.15-.13-.3-.23-.44-.34-.14-.1-.27-.2-.38-.29-.3-.24-.43-.33-.54-.4-.07-.05-.13-.09-.28-.22-.41-.35-1.01-.29-1.35.1-.34.41-.29,1.01.1,1.35.24.21.34.27.45.35.08.06.17.12.4.3.13.1.28.21.43.34l.41.31c.1.08.21.17.31.26.16.13.33.27.5.41.1.08.21.17.31.27.16.14.33.28.5.41.17.13.37.24.58.35.12.06.23.12.34.19.05.03.13.13.2.22.14.16.31.37.56.55.22.16.44.26.64.35.13.06.24.1.31.15.12.09.24.17.36.28.16.12.31.24.49.36.12.08.22.17.34.27.16.14.33.27.5.4.1.08.21.16.31.26.16.14.34.28.51.41.23.15.47.24.65.33.1.05.21.08.3.14.13.08.26.17.37.26.16.12.33.23.5.34.17.12.36.23.54.34l.36.22c.1.07.2.15.3.23.17.15.35.29.55.42.17.1.35.21.52.3.13.07.27.15.4.23.19.12.4.21.6.29.12.05.24.1.36.16.12.07.22.15.33.23.17.14.36.27.55.38.13.07.26.15.38.23.17.12.35.22.54.33.24.14.5.21.7.27.12.03.24.07.31.1l.38.22c.19.1.36.21.55.3.1.06.2.13.29.21.2.15.38.29.6.4l.2.1s-.1-.09-.15-.14l.57-.77.03-.02Z"/>
                <path class="cls-4" d="m250.54,94.34c.35-.34.88-.36,1.26-.07.2.14.58.4.91.84.03.05.06.09.09.15.21-.13.45-.17.7-.13-.08-.03-.16-.08-.24-.12-.15-.07-.31-.14-.47-.22-.12-.06-.22-.14-.33-.21-.17-.13-.35-.24-.54-.35l-.37-.19c-.17-.09-.35-.17-.52-.28-.15-.08-.3-.17-.44-.26-.14-.08-.29-.17-.43-.24-.23-.13-.48-.21-.66-.27-.12-.03-.23-.07-.29-.1-.12-.07-.23-.15-.34-.23-.16-.12-.33-.23-.49-.34-.13-.07-.24-.16-.36-.24-.15-.12-.31-.22-.48-.31-.14-.08-.29-.17-.43-.27s-.28-.19-.42-.27c-.23-.14-.48-.22-.66-.29-.1-.03-.22-.08-.28-.1-.06-.03-.14-.13-.22-.21-.14-.14-.31-.31-.55-.47-.2-.12-.4-.21-.6-.3-.1-.05-.21-.08-.3-.14-.14-.09-.27-.19-.4-.28-.14-.1-.28-.21-.42-.3-.15-.1-.29-.21-.43-.31-.13-.09-.26-.19-.38-.28l-.41-.27c-.15-.09-.29-.19-.43-.29-.16-.12-.31-.21-.47-.3-.13-.08-.26-.16-.36-.24-.17-.13-.34-.23-.5-.33-.12-.07-.23-.14-.34-.22l-.35-.26c-.16-.13-.33-.23-.45-.34-.16-.13-.17-.15-.21-.2-.09-.14-.21-.3-.47-.52-.41-.34-1.01-.29-1.35.12-.34.41-.29,1.01.12,1.35q.07.06.1.1c.12.17.26.36.64.66.14.12.31.23.49.37l.34.24c.14.1.3.21.47.31.13.08.26.16.38.26.15.1.31.21.48.31.13.08.26.16.38.24.15.1.31.22.49.33l.37.24c.1.08.22.16.34.24.16.12.33.24.5.36.12.08.23.16.34.24.16.12.33.24.49.35.19.12.4.21.6.3.1.05.22.09.33.15.05.02.13.12.21.2.15.15.34.34.58.49.23.14.47.23.66.29.12.03.23.08.29.12.13.07.24.15.37.23.16.1.33.22.5.31.12.07.22.15.34.23.16.12.34.24.52.35.1.07.21.14.31.22.17.13.35.24.54.36.23.14.48.21.66.27.12.03.23.07.3.1.13.07.26.14.37.22.17.1.34.2.51.29.12.06.23.13.35.19-.33-.38-.31-.95.05-1.3h0Z"/>
                <path class="cls-4" d="m259.99,87.62c-.07-.03-.14-.08-.21-.12.07.09.15.17.24.24.33.21.65.3.94.37-.01,0-.02-.02-.05-.02-.31-.15-.63-.31-.93-.47h0Z"/>
                <path class="cls-4" d="m262.3,86.67c.12.07.22.15.34.21.15.07.29.15.44.22.03.01.07.03.1.05.24,0,.49.1.67.28.09.09.26.31.43.57.29-.14.58-.31.84-.54.42-.36.73-.76.92-1.16.2-.43.17-.85.15-1.15v-.33c0-.33,0-.72-.17-1.24-.1-.3-.23-.69-.49-1.05-.29-.41-.56-.7-.85-.93-.05-.03-.1-.07-.16-.1-.21-.1-.44-.19-.69-.24-.13-.03-.26-.07-.33-.1-.06-.03-.15-.12-.24-.2-.15-.13-.34-.3-.58-.43-.2-.1-.41-.19-.63-.26-.12-.03-.23-.07-.34-.14-.14-.08-.29-.17-.43-.27-.15-.09-.3-.2-.45-.28-.15-.09-.3-.19-.45-.28-.14-.09-.29-.19-.43-.27l-.43-.24s-.06-.03-.09-.05c-.05.01-.1.02-.15.03-.23.06-.51.13-.81.13h-.13c-.35-.02-.7-.09-1.04-.16l-.19-.03c-.43-.08-.83-.2-1.15-.3-.48-.15-.83-.36-1.02-.47-.49-.22-.73-.8-.51-1.28.16-.36.49-.57.85-.58l-.55-.36c-.19-.13-.4-.23-.6-.33-.1-.05-.22-.09-.31-.16-.14-.1-.28-.21-.41-.31-.14-.1-.28-.22-.41-.31-.16-.12-.31-.22-.48-.31-.13-.08-.27-.16-.38-.26-.13-.09-.23-.2-.34-.29-.15-.14-.29-.28-.44-.38-.16-.13-.34-.24-.5-.35-.13-.08-.24-.15-.35-.23-.14-.1-.26-.22-.36-.34-.14-.14-.27-.27-.38-.37-.35-.28-.55-.37-.78-.47-.02-.01-.05-.03-.09-.07-.4-.34-1.01-.3-1.35.1-.35.41-.3,1.01.1,1.35.28.24.47.33.64.4.06.02.1.05.28.17.07.06.14.14.22.21.16.16.34.35.55.51.14.12.3.22.48.33.13.08.26.16.4.27.09.07.19.16.28.24.16.15.33.31.52.45.15.12.31.22.48.33.13.08.27.17.4.27.12.08.23.17.35.27.16.13.33.26.49.37.19.13.38.23.59.33.12.06.23.1.34.17.17.12.34.23.52.35l.36.23c.09.06.16.14.24.22.15.14.33.33.56.48.17.12.35.22.52.34l.37.23c.17.1.35.21.54.3.13.07.27.14.4.22.17.1.35.2.52.29.13.07.27.14.4.22.17.1.35.2.52.3l.4.22c.13.07.26.15.38.23.17.1.35.22.52.33.13.07.26.15.38.23.17.1.35.22.52.33.2.12.42.2.64.27.12.03.23.08.34.14.06.03.15.12.24.19.16.14.36.31.62.45.24.13.49.2.7.26l.24.07c.13.12.27.28.41.49.09.13.16.34.27.65.05.12.03.3.03.51v.47c0,.09.01.23.01.24-.07.15-.21.33-.41.49-.19.16-.41.29-.62.36-.09.03-.29.03-.49.03h-.27c-.31,0-.54,0-.73-.07l-.13-.03s.07.03.09.05c.19.09.36.2.54.31v-.02Z"/>
                <path class="cls-4" d="m254.42,76.64c-.22.49.03,1.07.51,1.28.19.1.55.31,1.02.47.34.1.73.22,1.15.3l.19.03c.33.07.67.14,1.04.16h.13c.31,0,.59-.07.81-.13.06-.01.1-.02.15-.03-.13-.07-.26-.14-.37-.22-.16-.09-.33-.19-.48-.27-.14-.07-.28-.15-.42-.23-.16-.1-.34-.2-.51-.28-.14-.07-.27-.14-.4-.22l-.4-.24c-.16-.1-.33-.2-.49-.3-.07-.05-.16-.14-.26-.23-.16-.16-.34-.33-.52-.45l-.31-.21c-.36,0-.69.22-.85.58Z"/>
                <path class="cls-4" d="m261.27,88.19c.36.1.69.13.97.14-.08-.3,0-.64.23-.9.19-.2.44-.28.7-.28-.03-.01-.07-.03-.1-.05-.14-.07-.29-.15-.44-.22-.12-.06-.23-.13-.34-.21-.17-.12-.35-.22-.54-.31-.03-.01-.07-.03-.09-.05l-.14-.03c-.2-.05-.37-.09-.49-.16-.44-.29-1.04-.15-1.33.29-.22.35-.19.77.05,1.08.07.03.14.08.21.12.31.16.62.31.93.47.01,0,.02.02.05.02.03,0,.08.02.12.03l.2.05h.02Z"/>
                <path class="cls-4" d="m259.98,92.84c-.09.2-.24.34-.42.44l.02.06c.02.08.06.17.08.27.08.02.15.05.23.06.4.07.76.08,1.17.07h.27c.1,0,.21.01.31.01.2,0,.41-.01.62-.06.43-.09.78-.27,1.15-.45l.17-.08c.3-.14.65-.31.94-.6.4-.4.52-.87.6-1.2l.09-.3c.12-.36.27-.85.12-1.4-.13-.43-.38-.74-.58-.97-.06-.07-.12-.13-.15-.2-.09-.15-.21-.31-.31-.47-.07.03-.14.07-.2.09.02.17.01.34-.06.51-.16.35-.51.56-.87.56-.13,0-.27-.02-.4-.08-.02,0-.05-.02-.07-.03.09.13.2.29.31.48.08.13.19.26.29.38.07.08.19.21.2.22,0,.06-.06.22-.09.34l-.12.4c-.03.13-.08.3-.12.34-.06.06-.24.15-.41.22l-.3.15c-.22.12-.42.21-.6.26-.1.02-.28.01-.45,0h-.45c-.27,0-.49,0-.71-.03-.21-.03-.44-.13-.79-.26-.03-.01-.07,0-.1-.01.06.02.12.03.17.06.48.22.69.79.47,1.27l-.02-.03Z"/>
                <path class="cls-4" d="m263.15,89.16c.36,0,.71-.21.87-.56.07-.16.08-.34.06-.51-.06.02-.1.06-.16.08-.41.15-.8.15-1.13.15h-.56c.03.15.1.3.23.43.03.05.12.15.21.29.02,0,.05.02.07.03.13.06.27.08.4.08h.01Z"/>
                <path class="cls-4" d="m258.65,91.63c.1.1.21.21.3.34.31.43.47.87.58,1.23l.02.07c.17-.09.33-.24.42-.44.22-.48,0-1.05-.47-1.27-.06-.02-.12-.05-.17-.06-.24-.06-.49-.01-.69.12h0Z"/>
                <path class="cls-4" d="m263.19,87.15c.13.06.24.13.37.19.31.14.5.44.54.76.07-.02.14-.06.2-.09-.17-.26-.34-.48-.43-.57-.19-.17-.43-.27-.67-.28Z"/>
                <path class="cls-4" d="m263.55,87.34c-.13-.06-.24-.12-.37-.19-.26,0-.51.08-.7.28-.24.26-.31.59-.23.9h.56c.33,0,.72,0,1.13-.15.06-.02.1-.06.16-.08-.03-.33-.22-.62-.54-.76h-.01Z"/>
                <path class="cls-4" d="m254.15,96.53c-.13.26-.36.43-.62.5,0,.03.01.07.01.09h0c.12.05.22.07.33.09l.21.05c.1.02.2.05.29.08.26.07.56.16.88.17h.1c.34,0,.62-.07.85-.14.08-.02.17-.05.26-.06.09-.01.19,0,.29,0,.28,0,.63,0,.99-.14.43-.19.71-.49.91-.7.05-.06.1-.1.15-.15.3-.28.72-.65.91-1.22.16-.55.06-1.07-.06-1.48-.28-.07-.55-.16-.8-.26h-.01s-.09,0-.14-.03c-.07-.03-.2-.06-.31-.08-.21-.05-.47-.1-.72-.23-.2-.09-.38-.2-.57-.29l-.2-.1c.2.17.4.35.51.51.13.17.21.42.29.69l.05.14c.05.13.16.49.14.58-.03.08-.26.28-.35.37-.09.08-.19.17-.28.28-.07.08-.2.22-.21.22h-.24c-.2,0-.42,0-.62.03-.14.02-.29.06-.44.1-.15.03-.29.07-.38.07-.1,0-.28-.06-.45-.1-.13-.03-.26-.07-.4-.1l-.24-.06c-.2-.05-.41-.08-.6-.16-.06-.02-.1-.02-.16-.03.07.03.14.07.21.1.48.23.66.81.43,1.28v-.02Z"/>
                <path class="cls-4" d="m257.67,92.99c.26.13.52.19.72.23.13.02.24.06.31.08.05.02.09.01.14.03-.49-.2-.77-.74-.58-1.23.08-.21.22-.36.4-.48-.21-.22-.43-.43-.65-.62l-.67.69-.57.77s.1.09.15.14l.2.1c.19.1.38.2.57.29h-.01Z"/>
                <path class="cls-4" d="m252.8,95.26c.2.3.37.62.48.84.15.33.21.64.24.92.26-.07.49-.24.62-.5.23-.48.05-1.05-.43-1.28-.07-.03-.14-.07-.21-.1-.24-.06-.49,0-.7.13Z"/>
                <path class="cls-4" d="m259.56,93.28c-.14.07-.29.12-.45.12-.09,0-.17-.03-.27-.06h.01c.26.09.52.19.8.26-.02-.09-.06-.19-.08-.27l-.02-.06h.01Z"/>
                <path class="cls-4" d="m259.56,93.28l-.02-.07c-.12-.36-.26-.81-.58-1.23-.09-.13-.2-.23-.3-.34-.17.1-.31.27-.4.48-.19.49.1,1.05.58,1.23.09.02.17.06.27.06.16,0,.31-.05.45-.12h0Z"/>
                <path class="cls-4" d="m252.78,99.83c.28-.28.62-.63.77-1.13.16-.51.1-.99.03-1.4l-.02-.17c-.09-.02-.2-.06-.29-.08-.13,0-.27-.03-.4-.09-.14-.07-.27-.13-.41-.2-.17-.08-.36-.16-.52-.26-.2-.1-.38-.23-.57-.36-.1-.07-.2-.15-.3-.2l-.35-.17c-.07-.03-.14-.07-.21-.1.01.01.02.03.03.05l.23.19c.1.07.27.17.4.35s.27.43.41.7c.05.08.07.28.09.44l.03.24c.03.2.06.41.02.51-.02.07-.2.23-.3.35l-.22.22c-.15.16-.28.3-.42.37-.09.05-.26.09-.43.14.28.15.49.44.78.55.33.12.65.21.98.33.1.03.21.07.31.12.06-.06.13-.12.17-.17l.19-.19v-.02Z"/>
                <path class="cls-4" d="m251.06,95.93c.1.06.2.13.3.2.19.13.37.27.57.36.17.09.35.17.52.26.14.06.27.13.41.2.13.06.27.09.4.09-.1-.03-.21-.06-.31-.1-.49-.2-.72-.76-.52-1.24.08-.19.22-.33.38-.43-.03-.05-.06-.1-.09-.15-.33-.45-.71-.71-.91-.84-.37-.29-.92-.27-1.26.07-.36.36-.37.93-.05,1.3.07.03.14.07.21.1l.35.17h0Z"/>
                <path class="cls-4" d="m253.53,97.01c-.08.02-.16.03-.24.03h-.03c.1.03.2.06.29.08h0s-.01-.08-.01-.12Z"/>
                <path class="cls-4" d="m253.53,97.01c-.03-.28-.09-.59-.24-.92-.1-.23-.28-.55-.48-.84-.16.1-.3.24-.38.43-.2.49.03,1.05.52,1.24.1.05.21.07.31.1h.03c.08,0,.16-.01.24-.03h-.01Z"/>
                <path class="cls-4" d="m278.96,78.57l.87-.54c.14-.09.28-.19.42-.28.15-.1.29-.21.44-.3.16-.1.34-.2.5-.29.14-.07.27-.15.4-.23.07-.05.16-.14.26-.23.12-.13.27-.26.43-.38-.16.06-.47.16-.83.28l-.26.08c-.21.07-.44.15-.7.2-.16.03-.35.03-.52.03-.14,0-.29,0-.44.01h-.24c-.24.03-.49.06-.67.03-.15-.02-.35-.09-.56-.19l-.26-.1c-.12-.05-.24-.08-.37-.13-.16-.05-.34-.1-.36-.1-.05-.05-.08-.12-.13-.2-.09-.15-.2-.33-.31-.48-.06-.07-.13-.15-.2-.22l-.08-.08c.02-.06.08-.16.21-.34l.1-.15c.13-.19.26-.37.43-.51.09-.08.22-.14.35-.21.16-.09.35-.19.52-.3.12-.08.23-.16.36-.26.15-.12.31-.23.5-.35.1-.07.23-.12.36-.16.2-.08.41-.17.62-.29.13-.07.27-.14.41-.22.16-.08.34-.17.51-.27.23-.13.41-.29.57-.43.09-.08.2-.19.33-.26.08-.05.17-.08.27-.12.21-.08.47-.2.73-.37.17-.12.34-.26.51-.4.12-.09.23-.2.37-.29l.23-.17c.21-.15.43-.3.65-.48.1-.08.21-.15.33-.22.19-.13.38-.26.57-.41.16-.13.31-.28.47-.43.1-.1.22-.22.34-.31.41-.34.45-.94.12-1.35s-.94-.45-1.35-.12c-.16.14-.31.28-.45.42-.1.1-.21.21-.33.3-.14.1-.28.2-.42.29-.15.1-.31.21-.45.31-.21.16-.41.3-.59.44l-.24.17c-.16.12-.31.24-.47.36-.13.1-.24.2-.36.28-.1.07-.24.13-.38.19-.2.08-.38.16-.55.26-.22.14-.41.3-.58.45-.08.07-.19.16-.23.19-.16.09-.31.16-.45.24-.17.08-.34.17-.49.26-.13.07-.27.13-.4.19-.22.09-.43.17-.62.29-.23.14-.44.29-.64.44-.1.07-.2.14-.29.21-.13.08-.24.15-.37.21-.24.13-.47.26-.65.41-.37.3-.6.65-.78.9l-.09.13c-.31.43-.63.97-.59,1.62.03.59.38.99.6,1.22l.1.12c.07.08.13.19.17.28.14.23.29.49.55.67.35.26.72.37,1.01.47.08.02.17.05.26.08l.22.08c.3.12.64.26,1.05.31h.07s.06-.03.08-.05c.14-.08.29-.15.43-.23v.02Z"/>
                <path class="cls-4" d="m276.44,86.29c.2-.05.38-.09.49-.16.44-.29,1.04-.15,1.33.29.21.33.19.71,0,1.01.02,0,.05-.02.07-.03.21-.08.41-.15.6-.26.19-.09.35-.21.52-.31.12-.08.24-.15.36-.22.12-.06.23-.1.36-.15.2-.08.41-.16.59-.27.21-.12.4-.27.58-.43.08-.07.16-.15.26-.21.03-.02.16-.05.24-.07.22-.06.49-.12.76-.28.26-.15.44-.34.58-.49.07-.07.16-.16.21-.19.12-.07.24-.13.36-.19.2-.09.38-.19.56-.29.19-.12.36-.26.52-.4.09-.08.2-.16.3-.23s.22-.12.34-.17c.2-.09.4-.19.58-.3.17-.12.34-.23.49-.36.12-.08.22-.17.34-.24.1-.07.22-.12.34-.17.2-.09.4-.2.58-.31l.4-.26c.16-.1.31-.21.47-.31.23-.16.41-.35.55-.49.07-.08.14-.16.22-.22.09-.07.2-.12.3-.16.21-.09.42-.2.6-.34.17-.13.34-.26.49-.4.1-.09.21-.17.31-.26l.36-.27c.16-.12.31-.23.48-.34.12-.09.24-.16.37-.24.17-.1.34-.21.5-.33.17-.14.34-.28.49-.42.09-.09.19-.17.29-.26.17-.14.34-.28.49-.42.1-.09.2-.17.29-.26.13-.1.26-.17.38-.24.19-.1.35-.21.49-.33.36-.29.49-.47.6-.63.03-.05.03-.06.12-.13.41-.34.45-.94.1-1.35s-.94-.45-1.35-.1c-.26.22-.37.37-.47.51-.03.05-.06.08-.22.22-.07.06-.16.1-.26.16-.19.12-.4.23-.59.4-.12.09-.24.21-.37.31s-.26.22-.4.34c-.14.1-.28.23-.42.36-.1.1-.22.21-.35.3-.1.08-.22.15-.34.22-.17.1-.35.21-.51.34-.14.1-.29.21-.44.31l-.38.28c-.15.1-.29.23-.43.35-.12.09-.23.2-.35.29-.08.06-.19.1-.29.15-.21.09-.42.2-.62.34-.19.13-.35.29-.51.47-.09.09-.17.19-.24.23-.14.09-.28.19-.42.28s-.29.19-.43.28c-.1.07-.21.12-.33.17-.2.09-.4.19-.57.31-.15.1-.3.21-.44.33-.12.09-.24.19-.37.27-.1.07-.22.12-.34.17-.2.09-.38.19-.57.3-.17.1-.34.24-.49.37-.1.08-.21.17-.31.24-.12.07-.24.13-.36.19-.19.08-.36.17-.54.28-.24.15-.42.33-.57.48-.07.07-.16.16-.21.2-.03.02-.16.05-.23.07-.21.05-.48.12-.74.27-.2.12-.37.26-.55.41-.08.07-.17.15-.27.21-.12.07-.24.12-.36.16-.2.08-.38.15-.57.26-.16.09-.33.19-.48.29-.13.08-.26.16-.38.23-.12.06-.24.1-.37.15-.2.07-.38.15-.57.24-.15.08-.3.16-.47.26-.14.08-.28.16-.43.23-.02,0-.05.02-.07.03.02,0,.03,0,.06-.01l.26-.07h-.01Z"/>
                <path class="cls-4" d="m275.73,88.39c-.03.17-.12.34-.24.47h0c.1-.06.22-.12.31-.19.09-.07.2-.14.3-.19.13-.06.27-.12.4-.17.09-.03.19-.08.28-.13h-.06c-.3.1-.64.17-.98.2h-.01Z"/>
                <path class="cls-4" d="m279.33,91.67c.19-.19.37-.36.55-.51l.19-.15c.4-.35,1.01-.3,1.35.1.31.37.29.9-.02,1.24.15-.09.31-.19.45-.3.09-.07.19-.15.29-.2.05-.02.17-.05.27-.07.22-.05.5-.1.78-.26.26-.14.45-.31.62-.47.08-.08.19-.16.24-.2.12-.07.26-.12.38-.17.2-.08.41-.17.59-.28.2-.12.37-.24.55-.38.1-.08.21-.16.33-.23s.23-.12.35-.16c.21-.09.42-.17.6-.29.19-.1.35-.23.52-.35.12-.08.23-.17.36-.24.12-.07.23-.12.36-.17.21-.09.41-.19.6-.31l.41-.24c.16-.1.34-.2.5-.3.23-.15.42-.34.56-.48.08-.08.15-.16.24-.22.1-.07.21-.1.33-.15.22-.09.44-.2.63-.33.17-.12.34-.24.5-.38.12-.09.22-.19.34-.27l.37-.26c.17-.12.34-.23.5-.34.12-.08.26-.16.38-.23.19-.1.36-.21.52-.33.17-.13.34-.27.5-.41.1-.09.21-.19.33-.27.17-.13.34-.26.49-.38.12-.09.22-.19.34-.27s.23-.15.36-.22c.2-.1.38-.22.55-.35.2-.15.37-.34.54-.51.07-.08.14-.16.22-.23.14-.1.27-.2.4-.28.16-.12.33-.22.47-.34.15-.12.29-.22.43-.31.15-.12.3-.22.43-.31l.17-.14c.2-.16.38-.31.55-.45l.1-.08c.41-.34.45-.94.1-1.35s-.94-.45-1.35-.1l-.1.08c-.16.13-.33.27-.51.42l-.17.14c-.09.08-.21.16-.34.24-.15.12-.33.23-.5.37-.1.08-.22.16-.35.24-.16.1-.33.22-.5.36-.16.13-.31.29-.47.45-.08.09-.17.2-.28.28-.09.07-.21.14-.33.2-.19.1-.38.22-.57.35-.14.1-.28.22-.42.34-.13.1-.26.21-.4.31-.15.12-.3.24-.45.37-.12.1-.23.21-.36.29-.12.08-.24.15-.37.23-.17.1-.35.21-.52.33-.15.1-.3.21-.47.31l-.4.27c-.16.1-.3.23-.45.35-.12.09-.23.2-.36.28-.09.07-.21.1-.31.15-.21.09-.43.19-.63.31s-.36.29-.54.45c-.09.09-.19.19-.26.23-.15.09-.29.19-.44.28s-.3.17-.44.27c-.12.07-.23.12-.36.17-.2.09-.4.17-.58.29-.16.09-.31.21-.47.31-.13.09-.26.19-.4.27-.12.07-.23.12-.36.16-.2.08-.4.17-.58.28-.17.1-.35.23-.51.36-.1.08-.22.17-.34.24-.13.07-.26.13-.4.19-.19.08-.38.16-.56.27-.24.14-.44.31-.59.45-.09.08-.19.17-.24.2-.05.02-.17.05-.27.07-.22.05-.49.1-.76.24-.2.1-.38.24-.57.38-.09.07-.19.15-.3.21-.13.06-.26.1-.4.15-.2.07-.4.14-.58.23-.17.08-.34.17-.5.27-.14.08-.28.16-.42.22l-.02.02s.07-.01.1-.02c.26-.09.54-.07.77.06h0Z"/>
                <path class="cls-4" d="m287.46,95.47c-.07.14-.15.29-.24.45l.16-.08c.17-.08.34-.17.51-.26.24-.13.44-.29.59-.43.09-.08.19-.16.24-.2.09-.06.21-.08.31-.12.22-.07.44-.15.64-.27.19-.1.35-.22.52-.34.12-.08.22-.15.34-.22l.38-.22c.17-.09.35-.2.51-.29.12-.07.24-.13.37-.19.19-.09.37-.17.55-.28.19-.1.35-.23.51-.36.1-.08.22-.16.33-.23.17-.1.34-.22.5-.34.12-.08.23-.16.35-.24.1-.07.23-.13.35-.17.2-.09.4-.19.57-.3.2-.13.38-.29.55-.47.08-.08.15-.15.24-.21.13-.08.26-.16.38-.23.17-.1.34-.2.49-.3.13-.09.26-.16.38-.24.16-.1.33-.21.48-.31.3-.21.58-.41.84-.6.19-.13.35-.27.51-.41.1-.08.2-.16.29-.24.14-.1.28-.2.41-.28.16-.1.31-.21.44-.3.38-.3.52-.49.66-.71.01-.02.03-.03.07-.07.41-.34.45-.94.12-1.35s-.94-.45-1.35-.12c-.27.22-.38.4-.48.54-.02.03-.05.07-.2.19-.09.07-.2.14-.31.21-.16.1-.33.22-.51.35-.12.09-.24.2-.37.3s-.26.22-.41.33c-.26.19-.52.38-.81.58-.12.08-.24.16-.38.24-.15.09-.3.19-.47.29-.12.08-.24.15-.37.22-.16.09-.33.19-.49.3-.17.12-.34.27-.5.43-.08.08-.16.17-.27.23-.1.07-.21.12-.33.16-.2.09-.38.19-.57.3-.14.09-.29.2-.43.29-.13.09-.27.19-.41.28-.16.09-.31.21-.47.33-.12.09-.23.17-.36.26-.12.07-.24.13-.37.19-.17.08-.36.17-.52.27-.15.09-.31.17-.48.27l-.41.23c-.16.09-.31.2-.47.3-.13.08-.24.17-.37.24-.09.06-.2.08-.3.12-.22.07-.44.15-.64.27-.23.13-.42.28-.56.41-.09.08-.2.16-.26.2-.07.03-.14.07-.21.1.21.02.41.09.57.26.34.33.38.85.13,1.22v.03Z"/>
                <path class="cls-4" d="m285.32,95.32s.05-.07.07-.1c.16-.22.27-.43.34-.56.03-.08.08-.15.12-.21-.03.01-.07.03-.12.05-.21.07-.41.14-.6.24-.16.08-.33.17-.48.27-.02.01-.06.03-.08.05.28-.02.56.08.76.28h0Z"/>
                <path class="cls-4" d="m304.29,90.29c.15-.05.29-.09.41-.17.08-.06.14-.14.19-.22-.05.03-.07.06-.12.08-.13.07-.28.16-.48.31Z"/>
                <path class="cls-4" d="m303.04,91.22s-.03.02-.05.05c0,0,.02,0,.03-.02l.02-.02h-.01Z"/>
                <path class="cls-4" d="m274.39,87.29c.1-.05.21-.13.31-.2.19-.13.36-.24.56-.34.15-.07.31-.14.47-.21.13-.06.27-.12.4-.17-.24.07-.5.12-.69.13-.12,0-.29-.07-.47-.14l-.24-.09c-.2-.07-.37-.19-.58-.35-.07-.06-.15-.13-.23-.19-.09-.07-.23-.17-.24-.2-.01-.05,0-.21,0-.31v-.3c0-.24,0-.45.06-.62.06-.19.17-.38.33-.6.08-.1.22-.22.4-.35l.06-.05c.16-.08.31-.19.47-.28.12-.08.23-.15.36-.22.19-.09.36-.21.54-.31.13-.08.26-.15.38-.22.12-.06.24-.1.36-.15.21-.08.42-.16.62-.27.21-.12.4-.27.58-.42.09-.08.19-.15.28-.22.13-.07.27-.14.4-.21.19-.09.37-.19.54-.28.13-.08.27-.15.4-.22.17-.09.36-.19.52-.29.3-.19.6-.37.9-.55.17-.1.35-.23.51-.35.12-.08.24-.17.36-.24.13-.08.26-.15.4-.22.17-.09.36-.2.52-.3.24-.15.42-.34.57-.49.08-.08.17-.17.23-.21l.12-.08c.26-.17.51-.34.76-.51.13-.08.26-.15.38-.23.19-.1.36-.21.52-.33.12-.08.23-.14.35-.2.2-.1.4-.21.57-.33.24-.17.42-.37.56-.54.07-.08.15-.17.2-.21.07-.05.19-.09.3-.15.2-.08.42-.19.64-.35.2-.15.37-.33.54-.49.08-.08.16-.16.24-.23.29-.23.55-.43.83-.65.36-.29.47-.41.57-.51.05-.05.09-.1.22-.21.41-.35.44-.95.1-1.35-.35-.41-.95-.44-1.35-.1-.22.19-.3.28-.38.37-.06.07-.13.14-.41.36-.21.17-.47.37-.74.59-.15.12-.29.26-.43.4-.09.1-.2.21-.33.3-.03.02-.16.08-.24.12-.2.08-.43.19-.67.36-.21.15-.37.34-.5.49-.08.09-.17.2-.23.24-.09.07-.21.13-.33.19-.2.1-.38.21-.57.34-.12.08-.24.15-.37.22-.17.09-.34.2-.51.31l-.86.57s-.06.05-.09.07c.03-.01.08-.02.1-.03.49-.21,1.05,0,1.27.49.21.48,0,1.05-.48,1.26-.15.07-.57.21-1.14.4l-.22.07c-.28.09-.59.2-.93.27-.31.06-.62.07-.88.07h-.57c-.19.03-.4.05-.6.05-.12,0-.24,0-.37-.02-.13.07-.27.14-.4.22s-.27.15-.42.22c-.17.08-.34.17-.5.27-.2.12-.37.26-.55.41-.09.08-.19.16-.29.22-.12.06-.24.1-.36.16-.2.08-.4.16-.59.26-.15.08-.3.17-.47.27-.14.08-.28.17-.43.26-.17.09-.34.2-.5.3-.13.08-.26.16-.4.23-.06.03-.1.07-.16.1l-.12.09c-.24.2-.52.42-.77.74-.27.37-.47.73-.58,1.09-.16.47-.16.9-.16,1.27v.2c-.02.3-.03.73.15,1.15.21.45.56.73.83.94l.17.14c.27.23.54.38.81.52.09-.1.2-.21.3-.31.09-.13.21-.23.36-.3h-.02Z"/>
                <path class="cls-4" d="m277.59,87.77c-.17.1-.36.21-.54.29-.09.05-.19.08-.29.13l.14-.03c.3-.08.69-.17,1.06-.41.13-.08.22-.19.29-.3-.09.03-.2.07-.29.12-.13.07-.26.14-.37.21Z"/>
                <path class="cls-4" d="m279.42,78.83h.22c.12-.02.23-.02.35-.02.27,0,.57,0,.88-.07.34-.07.65-.17.93-.27l.22-.07c.56-.17.99-.33,1.14-.4.48-.22.7-.78.48-1.26-.22-.48-.78-.7-1.27-.49-.02,0-.06.02-.1.03-.17.13-.31.27-.43.38-.09.09-.19.19-.26.23-.13.08-.26.15-.4.23-.16.09-.34.19-.5.29-.15.09-.29.2-.44.3-.14.09-.27.2-.42.28l-.87.54c-.14.08-.28.16-.43.23-.02.01-.06.03-.08.05.13.01.26.02.37.02.22,0,.42-.01.6-.03h0Z"/>
                <path class="cls-4" d="m275.26,86.75c-.2.09-.38.21-.56.34-.1.07-.2.14-.31.2-.15.07-.27.19-.36.3.03-.03.07-.08.12-.12.38-.35,1-.34,1.36.03.23.24.29.57.22.87.34-.03.67-.1.98-.19h.06c.09-.06.2-.09.29-.14.19-.09.36-.2.54-.29.13-.07.24-.14.37-.21.09-.05.19-.08.29-.12.19-.3.2-.7,0-1.01-.28-.44-.87-.58-1.33-.29-.1.07-.29.12-.49.16l-.26.07s-.03,0-.06.01c-.13.06-.26.12-.4.17-.15.07-.31.13-.47.21h0Z"/>
                <path class="cls-4" d="m278.34,93.28c-.14-.09-.26-.22-.33-.38-.22-.47-.01-1.02.44-1.26-.09.02-.21.03-.33.05-.14.01-.28.03-.41.06-.19.03-.37.09-.55.15-.09.03-.22.08-.27.08s-.2-.06-.29-.09c-.16-.06-.33-.12-.49-.15-.12-.02-.23-.05-.34-.07-.15-.02-.33-.06-.41-.09-.23-.12-.43-.26-.57-.4-.28-.28-.34-.4-.34-.43-.02-.08.06-.36.12-.56.06-.21.17-.44.35-.71.14-.21.31-.42.51-.6l.02-.02c-.09.06-.19.13-.28.16-.13.06-.27.08-.4.08-.36,0-.71-.21-.87-.56-.08-.2-.09-.4-.05-.58-.05-.02-.09-.05-.14-.06-.15.17-.29.35-.42.55-.28.43-.47.83-.59,1.26-.12.41-.28.97-.1,1.56.14.52.5.93.83,1.26.29.3.65.56,1.08.77.33.16.65.22.94.27l.26.05c.08.01.15.05.23.08.24.09.57.21.95.21h0c.35,0,.65-.1.88-.19.09-.03.19-.07.28-.08.06,0,.12-.01.17-.02.02-.1.05-.2.07-.3,0-.01,0-.02.01-.03v.02Z"/>
                <path class="cls-4" d="m275.73,88.39c-.08,0-.17.02-.26.02h-.09c-.44-.01-.81-.16-1.12-.28l-.19-.07c-.07-.02-.14-.07-.21-.09-.03.19-.03.4.05.58.16.35.51.56.87.56.13,0,.27-.02.4-.08.09-.05.19-.12.28-.16h0c.14-.13.21-.29.24-.47h.02Z"/>
                <path class="cls-4" d="m278.02,92.9c.07.16.19.29.33.38.15-.42.37-.85.71-1.29.08-.12.19-.21.28-.31-.23-.12-.51-.15-.77-.06-.02,0-.07.01-.1.02-.45.23-.66.78-.44,1.26Z"/>
                <path class="cls-4" d="m274.04,87.59c-.1.1-.21.21-.3.31.05.02.09.05.14.06.02-.14.08-.27.16-.37Z"/>
                <path class="cls-4" d="m274.26,88.14c.29.12.66.27,1.12.28h.09c.09,0,.17-.02.26-.02.07-.3,0-.63-.22-.87-.36-.38-.97-.4-1.36-.03-.03.03-.07.08-.12.12-.08.12-.14.24-.16.37.07.03.14.07.21.09,0,0,.19.07.19.07Z"/>
                <path class="cls-4" d="m283.82,96.5c-.23-.48-.05-1.05.43-1.28.1-.06.21-.12.31-.19-.1,0-.2.01-.3.06-.14.06-.28.13-.42.2-.15.07-.29.15-.38.16-.3.07-.59.12-.86.13h-.24c-.23.02-.45.05-.6.02-.14-.02-.31-.1-.49-.19l-.26-.12c-.23-.09-.43-.22-.6-.38-.13-.12-.21-.24-.26-.42-.06-.2-.06-.38,0-.58.08-.23.22-.49.44-.78.12-.15.3-.31.52-.5l.21-.17s.05-.07.08-.1c-.05.03-.09.07-.15.1-.2.1-.41.17-.63.26-.13.05-.26.08-.37.14-.13.06-.26.14-.38.21s-.27.14-.4.21c-.07.05-.14.1-.22.14-.33.12-.63.15-.88.19-.03,0-.06,0-.09.01-.1.49-.09.97.06,1.45.15.5.43.93.81,1.28.33.29.71.54,1.14.72l.2.09c.27.13.6.28,1,.35.17.02.34.03.51.03.19,0,.36,0,.52-.02h.22c.38-.03.78-.09,1.2-.19.23-.06.43-.14.62-.23,0-.02.01-.06.02-.08-.3-.05-.57-.22-.71-.51h-.05Z"/>
                <path class="cls-4" d="m281.41,91.12c-.34-.41-.95-.44-1.35-.1l-.19.15c-.17.15-.37.33-.55.51.21.1.37.28.47.51.15.41,0,.85-.34,1.09.13-.07.27-.14.4-.21.13-.07.26-.14.38-.21.12-.06.24-.1.37-.14.21-.07.43-.15.63-.26.06-.02.1-.07.15-.1.31-.35.34-.88.02-1.24h0Z"/>
                <path class="cls-4" d="m283.82,96.5c.14.29.42.47.71.51.07-.31.16-.6.28-.85.14-.29.3-.57.5-.85-.2-.2-.47-.29-.76-.28-.1.06-.21.13-.31.19-.48.23-.66.81-.43,1.28h.01Z"/>
                <path class="cls-4" d="m279.23,93.42c.08-.03.15-.09.22-.14-.06.02-.1.06-.16.09-.13.06-.27.09-.4.09-.2,0-.38-.07-.55-.17,0,.01,0,.02-.01.03-.03.1-.06.2-.07.3.03,0,.06,0,.09-.01.24-.02.56-.06.88-.19h-.01Z"/>
                <path class="cls-4" d="m279.8,92.19c-.08-.23-.26-.41-.47-.51-.09.1-.2.2-.28.31-.34.44-.56.87-.71,1.29.16.12.35.17.55.17.14,0,.27-.02.4-.09.06-.02.12-.06.16-.09.34-.24.49-.69.34-1.09h.01Z"/>
                <path class="cls-4" d="m286.73,99.56c.33-.12.67-.14,1-.27.01,0,.03-.01.05-.02-.19-.07-.37-.16-.55-.26-.24-.13-.49-.27-.63-.41-.14-.15-.24-.31-.3-.5-.02-.07,0-.24.05-.49s.1-.45.19-.64c.1-.22.24-.44.41-.66.1-.14.19-.28.27-.42l-.23.12c-.2.1-.41.17-.62.26-.12.05-.24.08-.35.14-.13.06-.24.14-.37.21-.17.1-.35.21-.54.3-.14.07-.28.1-.43.1h-.02s-.09.05-.14.06c-.02.1-.05.19-.07.3-.06.34-.13.79.02,1.29.14.48.4.9.76,1.27.06.06.14.1.2.16.13-.02.26-.06.38-.09.33-.12.59-.35.92-.47h.01Z"/>
                <path class="cls-4" d="m286.52,94.12c.08-.03.16-.08.24-.13-.28-.03-.57.05-.79.27-.06.06-.09.12-.14.17.08-.02.16-.06.23-.09.15-.08.3-.15.44-.22h.01Z"/>
                <path class="cls-4" d="m285.39,95.21s-.05.07-.07.1c.08.08.15.19.2.3.2.49-.03,1.05-.52,1.24-.1.05-.2.09-.29.14-.02,0-.03.02-.06.02h.02c.14,0,.29-.03.43-.1.19-.09.36-.2.54-.3.13-.07.24-.15.37-.21.12-.06.23-.09.35-.14.21-.07.42-.15.62-.26l.23-.12c.09-.15.17-.3.24-.45.26-.37.21-.9-.13-1.22-.16-.15-.36-.23-.57-.26-.08.05-.16.08-.24.13-.15.07-.3.15-.44.22-.07.03-.15.07-.23.09-.05.07-.08.14-.12.21-.07.13-.17.34-.34.56v.03Z"/>
                <path class="cls-4" d="m284.53,97.01s-.01.05-.02.08c.05-.02.09-.05.14-.06-.03,0-.08,0-.12-.01h0Z"/>
                <path class="cls-4" d="m285,96.86c.49-.2.72-.76.52-1.24-.05-.12-.12-.22-.2-.3-.2.28-.36.56-.5.85-.12.26-.21.54-.28.85.03,0,.08.01.12.01.02,0,.03-.02.06-.02.09-.05.2-.09.29-.14h-.01Z"/>
              </g>
              <g>
                <g>
                  <path class="cls-4" d="m285.43,30.09c-.24.49-.24.48-.49.97s-.21.5-.45.99-.31.45-.56.94-.26.49-.5.98-.35.43-.59.92c-.22.42,0,.9.23,1.22s.6.54,1.07.45c.52-.08.51-.1,1.04-.19s.54,0,1.05-.08.52-.05,1.04-.14.5-.22,1.01-.31.55.05,1.06-.05.52-.06,1.05-.14.52-.1,1.04-.2c.33-.06.58-.3.74-.54.17-.24.34-.57.29-.87-.03-.28-.3-.51-.56-.71-.4-.3-.38-.31-.79-.62s-.38-.33-.78-.63-.36-.36-.76-.66-.4-.3-.8-.62-.47-.22-.87-.52-.4-.31-.8-.62c-.29-.22-.64-.38-.97-.3s-.55.38-.71.71h.02Z"/>
                  <path class="cls-4" d="m312.76,30.04c.24.49.14.54.38,1.02s.29.47.54.95c.24.49.19.51.44,1s.31.45.56.94.28.48.52.95c.22.42.17.92-.07,1.24s-.71.56-1.17.48c-.52-.08-.52-.05-1.05-.13s-.5-.16-1.02-.24-.51-.09-1.04-.17-.5-.2-1.02-.29-.55.07-1.07-.01-.52-.1-1.04-.2-.52-.07-1.05-.16c-.33-.06-.54-.3-.71-.54-.17-.24-.21-.52-.16-.81.03-.28.07-.62.33-.81.4-.3.48-.2.87-.5s.42-.28.81-.58.38-.33.79-.63.36-.36.76-.66.45-.24.85-.55.33-.41.72-.71c.29-.22.66-.27.99-.2s.64.28.8.6h.03Z"/>
                </g>
                <g>
                  <path class="cls-6" d="m275.11,40.95c.47.17.42.3.88.48s.51.06.98.23.43.28.9.45.49.13.95.3c.47.17.44.23.92.41s.49.1.97.28.49.14.95.31.49.13.95.3"/>
                  <path class="cls-6" d="m274.88,50.57c.49-.15.48-.19.98-.34s.5-.1.99-.26.54-.02,1.02-.17.45-.27.94-.42c.49-.15.52-.05,1.01-.2s.48-.2.97-.35.51-.09,1.01-.24.48-.22.97-.37"/>
                  <g>
                    <path class="cls-6" d="m323.73,40.95c-.47.17-.43.27-.91.44s-.45.2-.93.37-.45.2-.92.37-.48.13-.95.3-.52.05-.99.21-.43.29-.9.47-.51.07-.98.24-.45.22-.93.4"/>
                    <path class="cls-6" d="m323.9,50.7c-.49-.15-.47-.26-.95-.41s-.49-.17-.98-.33-.52-.06-1.01-.21-.5-.13-.99-.28-.5-.13-.99-.28-.48-.2-.98-.35-.45-.29-.94-.44-.54-.03-1.02-.19"/>
                  </g>
                </g>
                <path class="cls-6" d="m218.79,28.52c.34-.01.69-.07,1,.01s.57.35.85.52.59.3.84.52.37.55.56.81.36.54.5.83.43.54.52.85c.09.31.09.66.16.99s.17.64.21.97-.03.66,0,.99.02.66.05.99c.02.35.14.69.15,1.04s.06.69.07,1.04.05.7.05,1.05-.05.7-.06,1.05-.16.69-.19,1.04.07.71.03,1.05-.2.67-.27,1.01-.08.69-.17,1.02-.24.65-.35.98-.17.67-.31.99-.27.64-.45.94-.34.62-.55.9-.45.56-.72.8-.52.51-.81.71-.66.3-.99.43-.69.21-1.05.23-.67-.12-1.04-.22c-.35-.09-.72-.1-1-.31s-.52-.48-.73-.77-.4-.58-.54-.91-.15-.69-.23-1.02-.09-.69-.12-1.04-.16-.71-.13-1.05c.03-.34.21-.66.28-1s.19-.65.28-.98.2-.65.33-.97.21-.65.37-.95.4-.55.58-.84.27-.64.48-.92.43-.52.66-.79.48-.49.72-.73.54-.43.79-.65.51-.44.79-.65.48-.5.76-.7.57-.37.86-.56.64-.26.94-.43.56-.41.86-.56c.3-.15.59-.35.91-.49s.64-.26.95-.4.64-.24.95-.37.66-.16.99-.28.63-.26.95-.37.65-.23.97-.34.62-.3.94-.41.7-.06,1.02-.16"/>
                <path class="cls-6" d="m258.76,28.24c-.34-.01-.67-.05-.99.05s-.58.3-.86.48-.51.38-.76.6-.44.47-.64.73-.38.52-.52.81-.4.56-.49.87-.17.64-.23.97-.05.66-.08.99.03.66,0,.99-.19.65-.21.98c-.02.35.03.7.02,1.05s-.15.69-.16,1.04,0,.7-.01,1.05.17.7.19,1.04-.06.7-.05,1.05.1.69.15,1.04-.01.71.05,1.05.12.69.2,1.02.28.64.4.97.27.64.41.95.33.6.5.9.33.6.54.88.35.64.6.9.62.38.92.57.57.47.9.59.71.16,1.06.2.73.06,1.08-.05c.35-.09.65-.33.93-.52s.5-.48.72-.77.34-.59.48-.93.24-.64.33-.99.08-.69.1-1.04.09-.7.06-1.05c-.03-.34-.08-.67-.14-1.01s-.05-.7-.14-1.02-.37-.59-.5-.91-.26-.63-.42-.93-.34-.58-.52-.87-.3-.62-.51-.9-.4-.57-.62-.83-.56-.41-.8-.65-.4-.57-.65-.8-.5-.48-.77-.69-.56-.4-.84-.59-.6-.33-.9-.5-.55-.43-.85-.59-.66-.21-.97-.36-.6-.31-.92-.47-.62-.3-.93-.43-.6-.33-.93-.44-.64-.24-.97-.36-.67-.13-1-.24-.64-.23-.97-.34-.62-.31-.94-.42-.67-.13-1-.23"/>
                <g>
                  <path class="cls-4" d="m235.5,41.01c0,.35-.06.67-.22.95s-.44.47-.74.63-.57.33-.92.33-.7-.05-.98-.21-.49-.45-.65-.76-.35-.59-.35-.94.07-.72.23-1.01.44-.58.73-.74.66-.23,1.01-.23.64.22.93.38.52.38.69.67.27.58.27.93Z"/>
                  <path class="cls-4" d="m245.88,41.01c0,.35-.19.65-.35.93s-.4.49-.7.66-.57.34-.92.34-.65-.14-.94-.3-.55-.37-.72-.67-.17-.6-.17-.95.01-.67.19-.95.38-.57.67-.74.63-.2.98-.2.71,0,.99.17.58.42.76.71.22.65.22,1.01Z"/>
                </g>
                <g>
                  <path class="cls-4" d="m234.67,60.35c-.36,0-.7-.06-1.04-.13s-.72-.09-1.04-.24-.64-.34-.91-.56-.54-.49-.76-.76-.41-.59-.56-.91-.31-.65-.4-1-.12-.71-.12-1.07c0-.34.36-.64.7-.64s.54.3.54.64c0,.37.05.77.15,1.1s.37.65.58.95.45.6.74.81.65.36,1,.47.71.26,1.08.26.74-.14,1.09-.24.66-.33.95-.55.6-.43.83-.73.3-.66.42-1.01.14-.69.14-1.07c0-.34.36-.7.69-.7s.66.36.66.7c0,.36-.17.7-.26,1.04s-.19.67-.34.99-.28.65-.5.92-.41.6-.69.83-.65.29-.98.44-.62.35-.97.42-.7.03-1.06.03h.01Z"/>
                  <path class="cls-4" d="m242.88,60.34c-.36,0-.7-.03-1.04-.12s-.72-.09-1.04-.24-.64-.34-.91-.56-.55-.48-.76-.76-.43-.58-.58-.9-.17-.69-.26-1.04-.21-.69-.21-1.05c0-.34.34-.56.67-.56s.55.22.55.56c0,.37.17.72.28,1.07s.29.66.5.95.47.55.76.77c.29.22.6.38.95.5s.69.13,1.07.13.71-.06,1.06-.16.69-.23.99-.44.64-.41.85-.71.42-.64.52-.99.09-.73.09-1.1c0-.34.27-.55.6-.55s.59.21.59.55c0,.36-.12.69-.2,1.02s-.13.7-.28,1.01-.3.64-.52.92-.52.48-.79.7-.52.49-.84.64-.65.3-1,.38-.71-.03-1.07-.03h-.01Z"/>
                </g>
                <g>
                  <path class="cls-4" d="m302.86,41.01c0,.35.09.69.27.98s.43.52.72.69.6.31.97.31.72-.07,1-.24.56-.44.73-.73.15-.65.15-1-.1-.65-.27-.94-.4-.51-.69-.67-.58-.23-.93-.23-.7,0-.98.15-.47.47-.64.77-.33.58-.33.93h-.01Z"/>
                  <path class="cls-4" d="m292.49,41.01c0,.35.14.71.3.99s.47.49.77.66.6.29.95.29.69-.09.98-.26.55-.42.71-.72.23-.63.23-.98-.05-.71-.21-.99-.42-.58-.71-.74-.65-.27-1-.27-.66.2-.94.37-.51.41-.67.7-.4.58-.4.94h-.01Z"/>
                </g>
                <g>
                  <path class="cls-4" d="m303.77,60.33c.36,0,.7-.01,1.04-.09s.72-.08,1.04-.23.64-.34.92-.56.42-.58.64-.86.43-.55.58-.86.27-.64.35-.99.21-.69.21-1.05c0-.34-.33-.7-.66-.7s-.65.36-.65.7c0,.37.01.74-.09,1.09s-.33.66-.54.95-.48.55-.78.77-.62.38-.97.5-.7.2-1.08.2-.73-.12-1.07-.22-.65-.3-.94-.51-.55-.45-.76-.76-.49-.57-.59-.92-.19-.72-.19-1.09-.21-.54-.55-.54-.52.21-.52.54c0,.36-.07.72.01,1.06s.28.65.43.97.24.67.47.95.47.55.74.77.64.31.95.47.64.26.99.34.67.09,1.04.09h-.01Z"/>
                  <path class="cls-4" d="m295.56,60.35c.36,0,.71-.01,1.05-.09s.67-.21.99-.36.67-.26.95-.48.52-.5.73-.77.33-.63.48-.94.35-.62.43-.97.16-.7.16-1.06c0-.34-.35-.52-.67-.52s-.55.19-.55.52c0,.37-.19.72-.29,1.06s-.29.65-.51.94-.37.66-.66.88-.65.36-1,.48-.71.17-1.09.17-.72-.15-1.06-.26-.65-.3-.94-.51-.57-.44-.79-.73-.45-.58-.57-.94-.13-.71-.13-1.09c0-.34-.28-.63-.62-.63s-.63.29-.63.63c0,.36.07.71.14,1.05s.15.7.3,1.01.33.64.55.92.49.54.76.76.64.31.95.47.64.26.99.34.67.13,1.04.13Z"/>
                </g>
                <path class="cls-4" d="m242.05,49c.05.35,0,.76-.24,1.1-.2.29-.56.5-.88.73-.3.21-.63.43-.99.56s-.74.16-1.12.16-.74-.13-1.12-.26-.79-.16-1.1-.37c-.34-.23-.64-.52-.85-.81-.26-.35-.42-.78-.37-1.13.05-.31.3-.6.58-.84.23-.2.54-.36.86-.5.3-.13.62-.27.94-.34s.69-.08,1-.08.65.05.99.12.62.24.92.37c.33.14.64.24.87.45.27.23.45.51.5.83h.01Z"/>
                <path class="cls-4" d="m302.61,49.01c.05.35.07.73-.16,1.08-.2.29-.48.59-.8.83-.3.21-.66.4-1.04.52s-.76.12-1.14.13c-.38,0-.79.02-1.16-.09s-.69-.4-1-.6c-.34-.23-.66-.48-.86-.77-.26-.35-.35-.74-.3-1.09.05-.31.27-.54.55-.78.23-.2.44-.5.77-.64.3-.13.64-.23.97-.3s.69-.13,1-.13.65.1.99.17.65.17.95.3c.33.14.65.28.88.49.27.23.33.57.36.88Z"/>
              </g>
            </g>
          </g>
        </g>
      </g>
    </g>
  </g>
</svg>