<?xml version="1.0" encoding="UTF-8"?>
<svg id="_レイヤー_2" data-name="レイヤー 2" xmlns="http://www.w3.org/2000/svg" viewBox="0 0 147.72 54.76">
  <defs>
    <style>
      .cls-1 {
        fill: #8bbee3;
      }

      .cls-1, .cls-2, .cls-3, .cls-4 {
        stroke-width: 0px;
      }

      .cls-2 {
        fill: none;
      }

      .cls-3 {
        fill: #f2b059;
      }

      .cls-4 {
        fill: #5c2314;
      }
    </style>
  </defs>
  <g id="_レイヤー_1-2" data-name="レイヤー 1">
    <g>
      <g>
        <path class="cls-1" d="m10.93,54.66c-.36,0-.54-.18-.54-.53v-5.82c0-.35.18-.53.54-.53h.02c.35,0,.53.18.53.53v3.63l1.35-1.61c.1-.13.21-.22.33-.28.12-.06.23-.09.33-.09.13,0,.24.04.32.11.09.07.13.17.14.29s-.06.26-.18.41l-1.2,1.33,1.46,1.9c.13.18.15.34.06.48-.09.14-.22.21-.41.21-.17,0-.31-.02-.4-.07-.09-.05-.17-.11-.24-.2l-1.57-2.13v1.82c0,.35-.18.53-.53.53h-.02Z"/>
        <path class="cls-1" d="m18.86,54.76c-.68,0-1.22-.2-1.64-.61-.42-.41-.63-1.02-.63-1.82,0-.5.09-.93.28-1.3s.45-.64.78-.84.72-.29,1.15-.29.8.1,1.1.3.53.46.7.77.24.64.24.98c0,.24-.05.39-.14.47-.1.07-.24.11-.43.11h-2.61c.03.46.15.79.37.99.22.2.5.29.85.29.39,0,.7-.14.92-.41.13-.14.25-.22.36-.27.11-.04.23-.02.36.07.13.09.2.21.22.35.02.14-.04.29-.17.44-.22.26-.47.46-.75.57-.28.12-.6.18-.96.18Zm-1.15-3.07h2.06c-.05-.3-.16-.54-.33-.7-.17-.16-.39-.25-.65-.25-.28,0-.52.08-.7.23-.18.15-.31.39-.37.71Z"/>
        <path class="cls-1" d="m23.95,54.66c-.37,0-.55-.19-.55-.57v-3.5c0-.38.16-.57.49-.57s.5.08.51.25l.03.3c.13-.18.3-.34.51-.47.21-.13.46-.2.75-.2.48,0,.88.15,1.18.46.31.31.46.76.46,1.36v2.37c0,.38-.18.57-.54.57s-.55-.19-.55-.57v-2.1c0-.37-.07-.64-.22-.83-.15-.18-.35-.27-.6-.27-.28,0-.5.1-.68.28s-.26.47-.26.84v2.08c0,.38-.18.57-.54.57Z"/>
        <path class="cls-1" d="m30.61,54.66c-.36,0-.54-.18-.54-.53v-5.82c0-.35.18-.53.54-.53h.02c.35,0,.53.18.53.53v3.63l1.35-1.61c.1-.13.21-.22.33-.28.12-.06.23-.09.33-.09.13,0,.24.04.32.11.09.07.13.17.14.29s-.06.26-.18.41l-1.2,1.33,1.46,1.9c.13.18.15.34.06.48-.09.14-.22.21-.41.21-.17,0-.31-.02-.4-.07-.09-.05-.17-.11-.24-.2l-1.57-2.13v1.82c0,.35-.18.53-.53.53h-.02Z"/>
        <path class="cls-1" d="m38.51,54.76c-.42,0-.81-.1-1.14-.3s-.6-.49-.8-.85c-.2-.36-.29-.79-.29-1.28s.1-.92.29-1.28.46-.65.8-.85.72-.3,1.14-.3.83.1,1.16.3.6.49.8.85c.19.36.29.79.29,1.28s-.1.92-.29,1.28c-.19.36-.46.65-.8.85s-.73.3-1.16.3Zm0-.98c.34,0,.62-.13.84-.38s.32-.61.32-1.07-.11-.82-.32-1.07-.49-.38-.84-.38-.61.13-.82.38c-.21.25-.32.61-.32,1.07s.11.82.32,1.07c.21.25.49.38.82.38Z"/>
        <path class="cls-1" d="m43.79,52.78c-.14,0-.26-.05-.36-.15-.1-.1-.15-.22-.15-.36s.05-.26.15-.36.22-.15.36-.15h2.36c.14,0,.26.05.36.15s.15.22.15.36-.05.26-.15.36c-.1.1-.22.15-.36.15h-2.36Z"/>
        <path class="cls-1" d="m51.42,54.76c-.42,0-.81-.1-1.14-.29-.34-.19-.6-.47-.8-.84-.2-.36-.29-.8-.29-1.31s.1-.94.29-1.31c.2-.36.46-.64.8-.84.34-.19.72-.29,1.14-.29.49,0,.89.18,1.21.53v-2.09c0-.38.18-.57.54-.57s.55.19.55.57v5.74c0,.38-.16.57-.47.57s-.47-.07-.49-.22l-.03-.31c-.16.2-.35.36-.57.47-.22.11-.47.17-.73.17Zm.05-.98c.34,0,.62-.13.85-.38s.34-.61.34-1.07-.11-.82-.34-1.07-.51-.38-.85-.38-.62.13-.85.38-.34.61-.34,1.07.11.82.34,1.07.51.38.85.38Z"/>
        <path class="cls-1" d="m58.44,54.76c-.42,0-.81-.1-1.14-.3s-.6-.49-.8-.85c-.2-.36-.29-.79-.29-1.28s.1-.92.29-1.28.46-.65.8-.85.72-.3,1.14-.3.83.1,1.16.3.6.49.8.85c.19.36.29.79.29,1.28s-.1.92-.29,1.28c-.19.36-.46.65-.8.85s-.73.3-1.16.3Zm0-.98c.34,0,.62-.13.84-.38s.32-.61.32-1.07-.11-.82-.32-1.07-.49-.38-.84-.38-.61.13-.82.38c-.21.25-.32.61-.32,1.07s.11.82.32,1.07c.21.25.49.38.82.38Z"/>
        <path class="cls-1" d="m68.94,54.72c-.5.02-.92-.09-1.24-.33-.33-.24-.49-.58-.49-1.03,0-.33.1-.61.3-.84s.46-.41.77-.55c.32-.13.64-.2.98-.21.17-.01.32,0,.47.04.15.04.28.09.4.16v-.41c0-.3-.06-.5-.19-.59-.13-.09-.32-.14-.57-.14-.18,0-.37.02-.56.07-.2.04-.39.11-.57.18-.17.07-.31.1-.43.08-.12-.02-.22-.1-.29-.23s-.1-.27-.05-.39c.04-.13.15-.22.32-.29.23-.11.48-.2.76-.26s.55-.1.84-.1c.6,0,1.05.12,1.35.36.3.24.45.68.45,1.31v2.13c0,.06,0,.12.02.15.02.04.03.07.04.09.06.08.12.13.19.14s.13.02.18.02c.05,0,.08.03.08.09,0,.12-.03.22-.09.3s-.16.14-.3.17c-.15.03-.29.05-.43.05-.2,0-.35-.03-.46-.1-.11-.07-.18-.18-.23-.34-.16.14-.35.24-.56.31s-.43.12-.67.13Zm-.02-.95c.36-.01.66-.08.89-.21s.35-.31.33-.55c0-.15-.09-.26-.24-.32-.15-.06-.34-.08-.56-.07-.32,0-.58.09-.78.24s-.31.32-.3.51c.01.29.23.43.66.41Z"/>
        <path class="cls-1" d="m74.66,54.66c-.37,0-.55-.19-.55-.57v-3.5c0-.38.16-.57.49-.57s.5.08.51.25l.03.3c.13-.18.3-.34.51-.47.21-.13.46-.2.75-.2.48,0,.88.15,1.18.46.31.31.46.76.46,1.36v2.37c0,.38-.18.57-.54.57s-.55-.19-.55-.57v-2.1c0-.37-.07-.64-.22-.83-.15-.18-.35-.27-.6-.27-.28,0-.5.1-.68.28s-.26.47-.26.84v2.08c0,.38-.18.57-.54.57Z"/>
        <path class="cls-1" d="m81.47,49.25c-.19,0-.35-.07-.48-.2s-.2-.3-.2-.48.07-.35.2-.48.3-.2.48-.2.35.07.48.2.2.3.2.48-.07.35-.2.48-.3.2-.48.2Zm0,5.41c-.36,0-.54-.19-.54-.57v-3.5c0-.38.18-.57.54-.57s.54.19.54.57v3.5c0,.38-.18.57-.54.57Z"/>
        <path class="cls-1" d="m85.43,54.66c-.37,0-.55-.19-.55-.57v-3.5c0-.38.16-.57.49-.57s.49.08.51.25l.04.31c.09-.19.24-.35.45-.48.21-.13.46-.19.73-.19.3,0,.57.07.79.21.22.14.4.34.52.61.12-.24.3-.43.54-.59s.5-.23.81-.23c.46,0,.83.16,1.11.48.28.32.42.77.42,1.35v2.37c0,.38-.18.57-.54.57s-.56-.19-.56-.57v-2.11c0-.34-.06-.61-.18-.8-.12-.19-.29-.29-.51-.29-.28,0-.49.1-.64.3s-.23.48-.23.85v2.06c0,.38-.18.57-.54.57s-.55-.19-.55-.57v-2.11c0-.34-.06-.61-.19-.8-.13-.19-.3-.29-.52-.29-.27,0-.48.1-.63.3-.15.2-.22.48-.22.84v2.06c0,.38-.18.57-.54.57Z"/>
        <path class="cls-1" d="m95.53,54.72c-.5.02-.92-.09-1.24-.33-.33-.24-.49-.58-.49-1.03,0-.33.1-.61.3-.84s.46-.41.77-.55c.32-.13.64-.2.98-.21.17-.01.32,0,.47.04.15.04.28.09.4.16v-.41c0-.3-.06-.5-.19-.59-.13-.09-.32-.14-.57-.14-.18,0-.37.02-.56.07-.2.04-.39.11-.57.18-.17.07-.31.1-.43.08-.12-.02-.22-.1-.29-.23s-.1-.27-.05-.39c.04-.13.15-.22.32-.29.23-.11.48-.2.76-.26s.55-.1.84-.1c.6,0,1.05.12,1.35.36.3.24.45.68.45,1.31v2.13c0,.06,0,.12.02.15.02.04.03.07.04.09.06.08.12.13.19.14s.13.02.18.02c.05,0,.08.03.08.09,0,.12-.03.22-.09.3s-.16.14-.3.17c-.15.03-.29.05-.43.05-.2,0-.35-.03-.46-.1-.11-.07-.18-.18-.23-.34-.16.14-.35.24-.56.31s-.43.12-.67.13Zm-.02-.95c.36-.01.66-.08.89-.21s.35-.31.33-.55c0-.15-.09-.26-.24-.32-.15-.06-.34-.08-.56-.07-.32,0-.58.09-.78.24s-.31.32-.3.51c.01.29.23.43.66.41Z"/>
        <path class="cls-1" d="m101.26,54.66c-.37,0-.55-.19-.55-.57v-5.74c0-.38.18-.57.55-.57s.54.19.54.57v5.74c0,.38-.18.57-.54.57Z"/>
        <path class="cls-1" d="m110.77,54.76c-.42,0-.81-.1-1.14-.3s-.6-.49-.8-.85c-.2-.36-.29-.79-.29-1.28s.1-.92.29-1.28.46-.65.8-.85.72-.3,1.14-.3c.55,0,1.02.15,1.39.46.15.12.22.24.21.39-.02.14-.09.26-.23.37-.14.1-.26.14-.36.13s-.23-.07-.39-.17c-.18-.12-.39-.18-.62-.18-.33,0-.61.13-.82.38-.21.25-.32.61-.32,1.07s.11.82.32,1.07c.21.25.49.38.82.38.24,0,.44-.06.6-.17.15-.09.28-.15.39-.18.11-.03.24,0,.37.11.14.1.22.22.24.36s-.04.27-.19.38c-.39.32-.86.48-1.41.48Z"/>
        <path class="cls-1" d="m115.6,54.66c-.37,0-.55-.19-.55-.57v-5.74c0-.38.18-.57.55-.57s.54.19.54.57v5.74c0,.38-.18.57-.54.57Z"/>
        <path class="cls-1" d="m119.55,49.25c-.19,0-.35-.07-.48-.2s-.2-.3-.2-.48.07-.35.2-.48.3-.2.48-.2.35.07.48.2.2.3.2.48-.07.35-.2.48-.3.2-.48.2Zm0,5.41c-.36,0-.54-.19-.54-.57v-3.5c0-.38.18-.57.54-.57s.54.19.54.57v3.5c0,.38-.18.57-.54.57Z"/>
        <path class="cls-1" d="m123.51,54.66c-.37,0-.55-.19-.55-.57v-3.5c0-.38.16-.57.49-.57s.5.08.51.25l.03.3c.13-.18.3-.34.51-.47.21-.13.46-.2.75-.2.48,0,.88.15,1.18.46.31.31.46.76.46,1.36v2.37c0,.38-.18.57-.54.57s-.55-.19-.55-.57v-2.1c0-.37-.07-.64-.22-.83-.15-.18-.35-.27-.6-.27-.28,0-.5.1-.68.28s-.26.47-.26.84v2.08c0,.38-.18.57-.54.57Z"/>
        <path class="cls-1" d="m130.32,49.25c-.19,0-.35-.07-.48-.2s-.2-.3-.2-.48.07-.35.2-.48.3-.2.48-.2.35.07.48.2.2.3.2.48-.07.35-.2.48-.3.2-.48.2Zm0,5.41c-.36,0-.54-.19-.54-.57v-3.5c0-.38.18-.57.54-.57s.54.19.54.57v3.5c0,.38-.18.57-.54.57Z"/>
        <path class="cls-1" d="m135.72,54.76c-.42,0-.81-.1-1.14-.3s-.6-.49-.8-.85c-.2-.36-.29-.79-.29-1.28s.1-.92.29-1.28.46-.65.8-.85.72-.3,1.14-.3c.55,0,1.02.15,1.39.46.15.12.22.24.21.39-.02.14-.09.26-.23.37-.14.1-.26.14-.36.13s-.23-.07-.39-.17c-.18-.12-.39-.18-.62-.18-.33,0-.61.13-.82.38-.21.25-.32.61-.32,1.07s.11.82.32,1.07c.21.25.49.38.82.38.24,0,.44-.06.6-.17.15-.09.28-.15.39-.18.11-.03.24,0,.37.11.14.1.22.22.24.36s-.04.27-.19.38c-.39.32-.86.48-1.41.48Z"/>
      </g>
      <path class="cls-2" d="m66.79,3.8h1.85c.13,0,.24.11.24.24v1.07c0,.13-.11.24-.24.24h-1.85c-.13,0-.24-.11-.24-.24v-1.07c0-.13.11-.24.24-.24Z"/>
      <path class="cls-2" d="m89.8,12c.54-.94.98-1.86,1.34-2.75.03-.05.03-.1,0-.15-.03-.05-.08-.07-.15-.07h-7.93s-.09.02-.12.06c-.03.04-.03.09,0,.13.57.96.98,1.82,1.24,2.6.08.18.02.3-.19.36v.02h5.47c.16,0,.28-.07.34-.22Z"/>
      <path class="cls-2" d="m66.79,7.08h1.85c.13,0,.24.11.24.24v1.1c0,.13-.11.24-.24.24h-1.85c-.13,0-.24-.11-.24-.24v-1.1c0-.13.11-.24.24-.24Z"/>
      <path class="cls-2" d="m58.08,10.56h-1.36c-.08,0-.14.04-.17.12l-.05.07c-.11.26-.3.45-.56.58-.16.08-.33.12-.51.12-.1,0-.19,0-.29-.02-.24-.06-.42-.21-.54-.44-.11-.23-.11-.45,0-.68.79-1.72,1.68-3.79,2.65-6.2.02-.05,0-.1-.02-.15-.03-.05-.07-.07-.12-.07h-.56c-.42,0-.78-.15-1.08-.45-.3-.3-.45-.67-.45-1.11h-.02s-.02-.02-.02,0c-.34.91-.71,1.81-1.12,2.7-.06.15-.1.3-.1.46v15.28s.02.09.07.11c.05.02.09.02.12-.01.83-.68,1.54-1.56,2.14-2.63.08-.15.08-.29,0-.44-.58-1.1-1.07-2.43-1.46-3.99-.07-.26-.03-.5.1-.73.13-.23.32-.37.58-.44.24-.08.47-.06.68.07.21.13.35.32.41.56.21.83.45,1.57.71,2.24.02.03.04.05.09.05s.07-.02.09-.05c.45-1.4.79-2.97,1.02-4.72,0-.06-.02-.12-.06-.17-.04-.05-.09-.07-.16-.07Z"/>
      <path class="cls-4" d="m71.39,5.35h-.37c-.1,0-.15-.05-.15-.15v-1.02c0-.58-.21-1.08-.62-1.5s-.91-.62-1.5-.62h-2.02c-.13,0-.19-.06-.19-.19v-.68c0-.29-.11-.54-.32-.74-.21-.2-.46-.3-.74-.3s-.53.1-.73.3c-.2.2-.3.45-.3.74v.68c0,.13-.06.19-.19.19h-2.34c-.24,0-.45.08-.62.26-.17.17-.26.37-.26.61s.09.44.26.61c.17.17.38.26.62.26h2.29c.16,0,.24.08.24.24v1.07c0,.16-.08.24-.24.24h-3.94c-.24,0-.45.09-.61.26-.16.17-.24.37-.24.61s.08.44.24.61c.16.17.36.26.61.26h3.94c.16,0,.24.08.24.24v1.1c0,.16-.08.24-.24.24h-2.29c-.24,0-.45.09-.62.26s-.26.37-.26.61.09.44.26.61c.17.17.38.26.62.26h2.29c.16,0,.24.08.24.24v1.1c0,.16-.08.24-.24.24h-2.68c-.23,0-.43.08-.6.26s-.26.37-.26.61.08.44.26.61c.17.17.37.26.6.26h2.68c.16,0,.24.08.24.24v1.14c0,.16-.08.24-.24.24h-3.33c-.24,0-.45.09-.62.26-.17.17-.26.37-.26.61s.09.44.26.61c.17.17.38.26.62.26h3.33c.16,0,.24.08.24.24v1.31c0,.29.1.54.3.74.2.2.45.3.73.3s.53-.1.74-.3c.21-.2.32-.45.32-.74v-1.31c0-.16.08-.24.24-.24h4.11c.24,0,.45-.08.62-.26.17-.17.26-.37.26-.61s-.09-.44-.26-.61-.38-.26-.62-.26h-4.11c-.16,0-.24-.08-.24-.24v-1.14c0-.16.08-.24.24-.24h3.46c.23,0,.43-.09.6-.26.17-.17.26-.37.26-.61s-.08-.44-.26-.61-.37-.26-.6-.26h-3.46c-.16,0-.24-.08-.24-.24v-1.1c0-.16.08-.24.24-.24h1.97c.58,0,1.08-.21,1.5-.62.41-.41.62-.91.62-1.5v-1.05c0-.1.05-.15.15-.15h.37c.23,0,.43-.08.6-.26.17-.17.26-.37.26-.61s-.09-.44-.26-.61-.37-.26-.6-.26Zm-2.51,3.07c0,.16-.08.24-.24.24h-1.85c-.16,0-.24-.08-.24-.24v-1.1c0-.16.08-.24.24-.24h1.85c.16,0,.24.08.24.24v1.1Zm0-3.31c0,.16-.08.24-.24.24h-1.85c-.16,0-.24-.08-.24-.24v-1.07c0-.16.08-.24.24-.24h1.85c.16,0,.24.08.24.24v1.07Z"/>
      <path class="cls-4" d="m71.25,20.34h-5.77c-1.54,0-2.86-.16-3.97-.49-1.1-.32-2.04-.9-2.8-1.73-.11-.13-.14-.27-.07-.41.86-2.12,1.44-4.82,1.73-8.08.02-.18-.03-.34-.15-.47s-.25-.22-.41-.26c-.23-.05-.64-.07-1.24-.07h-1s-.08-.02-.11-.05c-.02-.03-.03-.07-.01-.12.91-2.06,1.69-3.95,2.34-5.67.08-.18.08-.36-.01-.55-.09-.19-.23-.31-.43-.38l-.41-.1c-.21-.06-.42-.06-.63,0-.02.02-.04.02-.07.02h-3.02c-.1,0-.13-.05-.1-.15.02-.05.03-.1.05-.15.05-.11.07-.23.07-.34,0-.16-.04-.32-.12-.49-.15-.26-.36-.43-.63-.51-.11-.03-.22-.05-.32-.05-.18,0-.35.05-.51.15-.26.15-.44.36-.54.63-.91,2.79-2.09,5.2-3.55,7.23-.29.41-.44.84-.44,1.29,0,.31.07.62.22.95.11.26.32.41.61.44.05.03.1.05.15.05.23,0,.41-.11.56-.32.28-.37.58-.81.9-1.31.02-.03.04-.04.07-.02s.05.04.05.07v12.29c0,.29.1.54.3.74.2.2.45.3.73.3s.53-.1.73-.3c.2-.2.3-.45.3-.74v-.49s.02-.05.05-.06c.03,0,.06,0,.1.01-.02.02-.02.02,0,.02.37.37.79.59,1.27.66.08.02.15.02.22.02.39,0,.73-.15,1.02-.46.37-.42.71-.87,1.02-1.34.08-.15.18-.16.29-.05.89.89,1.95,1.51,3.19,1.86,1.23.35,2.73.52,4.48.52h5.09c.32,0,.62-.11.88-.32.26-.21.45-.47.56-.78.03-.1.05-.19.05-.29,0-.15-.04-.28-.12-.41-.15-.21-.34-.32-.58-.32Zm-13.97-4.82s-.04.05-.09.05-.07-.02-.09-.05c-.26-.66-.49-1.41-.71-2.24-.07-.24-.2-.43-.41-.56-.21-.13-.44-.15-.68-.07-.26.07-.45.21-.58.44-.13.23-.16.47-.1.73.39,1.56.88,2.89,1.46,3.99.08.15.08.29,0,.44-.6,1.07-1.31,1.95-2.14,2.63-.03.03-.07.04-.12.01-.05-.02-.07-.06-.07-.11V5.5c0-.16.03-.32.1-.46.41-.89.78-1.79,1.12-2.7,0-.02,0-.02.02,0h.02c0,.44.15.81.45,1.11.3.3.66.45,1.08.45h.56s.09.02.12.07c.03.05.04.1.02.15-.97,2.42-1.86,4.49-2.65,6.2-.11.23-.11.45,0,.68.11.23.29.37.54.44.1.02.19.02.29.02.18,0,.35-.04.51-.12.26-.13.45-.32.56-.58l.05-.07c.03-.08.09-.12.17-.12h1.36c.06,0,.12.02.16.07.04.05.06.11.06.17-.23,1.75-.57,3.33-1.02,4.72Z"/>
      <path class="cls-4" d="m95.93,18.55c.2-.2.3-.45.3-.73s-.1-.53-.3-.73c-.2-.2-.44-.3-.72-.3h-6.96c-.16,0-.24-.08-.24-.24v-2.04c0-.16.08-.24.24-.24h8.13c.29,0,.53-.1.73-.3.19-.2.29-.45.29-.73s-.1-.52-.29-.72c-.19-.19-.44-.29-.73-.29h-4.28s-.09-.02-.11-.07c-.02-.05-.03-.1-.01-.15.42-.62,1.01-1.54,1.78-2.77.08-.13.2-.19.36-.19h2.92c.29,0,.54-.1.74-.3.2-.2.3-.45.3-.74s-.1-.53-.3-.73c-.13-.12-.27-.19-.43-.24h-20.87c-.16.05-.31.12-.43.24-.2.19-.3.44-.3.73s.1.54.3.74c.2.2.45.3.74.3h4.19c-.16.05-.28.15-.34.32s-.06.32.02.46c.41.75.74,1.47,1,2.17.02.06,0,.12-.02.17-.03.05-.08.07-.15.07h-4.06c-.29,0-.54.1-.73.29-.19.19-.29.43-.29.72s.1.53.29.73c.19.2.44.3.73.3h7.96c.16,0,.24.08.24.24v2.04c0,.16-.08.24-.24.24h-6.59c-.29,0-.54.1-.74.3-.2.2-.3.45-.3.73s.1.53.3.73c.2.2.45.3.74.3h6.59c.16,0,.24.08.24.24v2.55c0,.32.12.6.35.84s.51.35.84.35.6-.12.84-.35c.23-.24.35-.52.35-.84v-2.55c0-.16.08-.24.24-.24h6.96c.28,0,.51-.1.72-.3Zm-12.13-6.34v-.02c.21-.06.28-.19.19-.36-.26-.78-.67-1.65-1.24-2.6-.03-.05-.03-.09,0-.13.03-.04.07-.06.12-.06h7.93c.06,0,.11.02.15.07.03.05.03.1,0,.15-.36.89-.8,1.81-1.34,2.75-.06.15-.18.22-.34.22h-5.47Z"/>
      <path class="cls-4" d="m11.34,26.91c-.32-.25-.64-.23-.96.05s-.38.6-.17.95c.41.68.65,1.16.74,1.44.09.25.17.43.24.54.14.21.33.32.58.33.25.01.46-.07.63-.26.17-.18.22-.4.16-.65-.27-1.13-.68-1.94-1.22-2.4Z"/>
      <path class="cls-4" d="m11.15,40.2c-.13-.14-.31-.21-.55-.23-.23-.02-.44-.02-.63,0-.19.02-.42.05-.69.1-.28.05-.46.08-.55.09-1.59.2-2.89.26-3.88.19-1.54-.11-2.47-.49-2.77-1.15-.21-.54-.23-1.06-.05-1.54.18-.49.48-.92.9-1.29.57-.48,1.58-1.05,3.05-1.72.35-.15.9-.39,1.67-.72.77-.33,1.36-.59,1.77-.76.56-.22.8-.57.74-1.05-.02-.22-.13-.41-.31-.57s-.38-.25-.6-.26c-.17,0-.35.03-.55.1-.19.07-.41.17-.67.3-.25.13-.42.21-.49.25l-1.78.74c-.1-.39-.15-.82-.17-1.29-.01-.46,0-.97.03-1.52.03-.55.04-.98.03-1.29-.01-.63-.2-1.26-.57-1.9s-.84-.83-1.42-.58c-.26.12-.43.32-.52.59-.09.27-.06.53.07.78.04.06.11.14.22.24.11.1.19.18.22.24.07.15.11.38.11.68.01.32,0,.79,0,1.4s-.02,1.16,0,1.66c.02.49.08.96.18,1.41.01.04.03.1.07.18.03.08.04.14.03.17-.01.03-.06.06-.13.1l-.46.22c-.2.12-.5.31-.91.56-.74.48-1.31.99-1.7,1.54-.44.6-.71,1.29-.8,2.06-.09.77.03,1.49.38,2.17.57,1.15,1.76,1.84,3.57,2.07,1.29.17,2.95.14,4.96-.11.09-.01.25-.03.48-.05.23-.02.43-.03.58-.05.15-.01.34-.05.56-.11.22-.06.38-.13.5-.21.12-.08.21-.2.29-.35.07-.15.09-.33.06-.53-.04-.23-.12-.42-.25-.56Z"/>
      <path class="cls-4" d="m8.82,29.61s.05.14.15.4c.1.25.19.43.28.53.31.31.62.35.93.11.31-.23.42-.55.31-.94-.37-1.26-.8-2.03-1.28-2.31-.36-.2-.67-.13-.94.2s-.27.65,0,.96c.15.17.33.52.56,1.05Z"/>
      <path class="cls-4" d="m25.56,29.24c.9.02,1.4-.25,1.5-.81.06-.3-.01-.56-.22-.8-.21-.23-.47-.34-.8-.31-.53.05-1.1.01-1.7-.11-.6-.12-1.12-.32-1.55-.59-.04-.03-.11-.07-.22-.14-.11-.07-.19-.11-.24-.14s-.12-.06-.21-.09-.17-.06-.23-.06-.14.02-.24.05c-.1.03-.19.08-.28.14-.26.21-.38.47-.36.79.02.31.15.58.4.79.88.8,2.26,1.23,4.16,1.29Z"/>
      <path class="cls-4" d="m28.61,31.72c-.5-.56-1.13-.92-1.9-1.08-.28-.09-.66-.11-1.12-.07-.46.04-.82.08-1.08.13s-.62.13-1.08.23c-.46.11-.83.18-1.1.23-.35.06-.64.08-.87.06-.11-.01-.25-.06-.43-.13-.17-.07-.3-.12-.37-.15-.28-.07-.55,0-.8.19-.25.2-.36.47-.35.79.01.33.15.6.43.8.27.2.61.31,1.01.34s.76.04,1.09.02c.33-.02.64-.05.93-.1.15-.02.46-.1.94-.23s.86-.22,1.14-.28c.28-.05.61-.06,1-.02s.71.16.95.36c.36.26.57.65.64,1.17s.05,1.01-.06,1.47-.24.9-.42,1.33c-.56,1.36-1.48,2.44-2.77,3.24-.63.41-1.25.69-1.87.85-.04.01-.12.03-.25.06-.13.02-.22.05-.27.06-.05.02-.13.05-.23.09s-.18.08-.23.12c-.05.04-.1.09-.16.15-.06.06-.1.13-.13.21-.03.08-.05.18-.05.29-.01.32.06.56.23.72s.39.24.67.23c.28,0,.54-.03.78-.08s.47-.12.7-.2c1.2-.43,2.26-1.09,3.2-1.96.95-.88,1.68-1.92,2.18-3.14.51-1.22.68-2.43.52-3.64-.1-.8-.4-1.48-.9-2.04Z"/>
      <path class="cls-4" d="m48.57,29.18c.09.26.17.44.24.56.14.21.33.32.58.33.25.01.46-.08.63-.27.17-.19.22-.41.16-.66-.27-1.13-.68-1.93-1.22-2.39-.32-.25-.64-.23-.96.05-.32.28-.38.59-.17.95.41.67.65,1.14.74,1.42Z"/>
      <path class="cls-4" d="m46.45,29.46c.02.06.06.16.1.29.04.13.09.25.14.36.05.11.1.2.17.28.31.3.62.33.94.1.32-.23.43-.54.31-.93-.37-1.26-.8-2.03-1.29-2.31-.35-.2-.66-.13-.93.19-.28.33-.28.64,0,.95.16.18.35.54.57,1.07Z"/>
      <path class="cls-4" d="m49.9,34.84c-.49-.33-1.04-.59-1.66-.79-.61-.19-1.12-.19-1.53,0-.21.1-.36.26-.45.47-.09.22-.11.43-.05.66.12.41.46.64,1.02.68.48.04.99.19,1.54.47.54.28.88.62,1,1.03-.23.02-.43.1-.57.24-.15.14-.23.3-.24.48-.01.19.02.37.08.55.07.18.19.33.37.44s.39.17.62.16c.54-.02.98-.19,1.31-.5.33-.31.47-.73.41-1.26-.14-1.07-.75-1.95-1.85-2.63Z"/>
      <path class="cls-4" d="m44.35,33.73s-.08-.08-.17-.16c-.09-.08-.16-.15-.22-.21-.06-.06-.14-.14-.24-.25-.1-.1-.18-.2-.23-.29-.06-.09-.1-.18-.14-.28-.04-.1-.05-.19-.04-.28.01-.09.05-.16.11-.22.19-.19.54-.35,1.05-.49.52-.14.86-.31,1.04-.51.31-.41.39-.8.25-1.19-.14-.39-.42-.69-.84-.92-.83-.44-1.45-.92-1.89-1.42-.06-.06-.14-.16-.24-.3-.1-.14-.17-.23-.22-.3-.25-.28-.57-.38-.98-.3-.36.09-.55.33-.59.72-.04.33.04.64.24.92.37.6.97,1.18,1.81,1.74-.67.34-1.14.81-1.42,1.39-.28.58-.29,1.2-.02,1.87.18.46.61,1.02,1.28,1.7.67.68,1.1,1.18,1.29,1.52.22.37.39.75.5,1.15.11.39.11.8,0,1.2-.11.41-.37.71-.78.91-.53.23-1.11.3-1.73.2-.62-.1-1.16-.33-1.62-.68-.3-.17-.6-.22-.9-.16-.3.07-.51.26-.63.56-.12.31-.06.61.18.91.34.43.85.76,1.52.97s1.32.32,1.96.32c.76,0,1.47-.16,2.11-.48.64-.32,1.13-.8,1.48-1.42.65-1.22.55-2.61-.3-4.16-.35-.63-.89-1.32-1.63-2.07Z"/>
      <path class="cls-4" d="m40.91,37.14s.11-.06.22-.12c.31-.16.52-.39.65-.68.04-.07.05-.15.05-.24,0-.09-.02-.18-.05-.28-.1-.35-.31-.55-.63-.61-.32-.06-.63-.01-.92.15-1.04.48-1.77.86-2.2,1.13-.36.22-.7.47-1.02.74-.04.04-.13.13-.29.29s-.29.27-.41.34c-.12.07-.23.09-.32.06-.33-.15-.65-.11-.95.11-.3.22-.43.51-.38.87.05.37.25.65.6.83s.71.24,1.08.17c.2-.04.39-.11.58-.21.19-.1.35-.21.48-.31.13-.1.29-.23.48-.41.19-.17.34-.3.43-.37.57-.44,1.36-.89,2.37-1.35.11-.05.19-.08.22-.1Z"/>
      <path class="cls-4" d="m62.04,29.96c-1.01.25-2.5.68-4.48,1.31-.64.18-1.05.28-1.24.28-.06,0-.15-.07-.26-.22-.22-.27-.5-.39-.83-.35-.3.03-.52.16-.68.4s-.2.5-.13.79c.07.3.27.56.57.8.67.52,1.51.64,2.53.35.34-.1.62-.18.82-.25s.47-.16.79-.29.57-.21.74-.26c1.97-.6,3.53-.97,4.66-1.09,1.86-.2,3.02.25,3.48,1.33.22.46.29.91.21,1.37-.08.46-.22.88-.41,1.27-.19.39-.47.76-.83,1.12s-.72.67-1.08.94c-.36.27-.73.51-1.13.72-1.17.64-2.37,1.05-3.59,1.22-.6.1-.94.37-1,.81-.04.23,0,.45.14.65.13.2.3.33.51.41.28.09.86.01,1.74-.22.65-.17,1.28-.38,1.89-.63,1.2-.51,2.25-1.13,3.16-1.89.99-.84,1.7-1.82,2.15-2.93.45-1.12.47-2.24.06-3.38-.89-2.53-3.49-3.28-7.81-2.26Z"/>
      <path class="cls-4" d="m86.25,28.06c-.26-.22-.55-.32-.88-.32s-.63.11-.9.33c-.04.05-.1.09-.19.11s-.16.04-.23.04-.16,0-.28,0c-.12,0-.19,0-.21,0-.25.01-1.09.03-2.52.06-.06,0-.1-.02-.11-.05-.01-.03-.02-.08,0-.16s0-.12,0-.15c-.05-.31-.14-.6-.26-.87-.31-.62-.72-.9-1.24-.85-.3.04-.52.18-.68.43s-.19.52-.09.8c.02.09.09.2.2.35.11.15.17.28.18.39.01.3-.04.6-.15.93-.17.46-.52,1.1-1.04,1.92-.44.67-.83,1.2-1.17,1.59-.01.01-.13.13-.34.35-.22.22-.35.4-.4.54-.05.14-.05.3,0,.48.06.26.21.45.44.58.23.13.47.17.72.12.11-.02.22-.07.32-.13.1-.06.22-.15.33-.27.12-.12.2-.21.26-.28.06-.07.15-.18.28-.34.13-.16.2-.25.21-.28.33-.47.71-1.02,1.13-1.66.17-.28.35-.6.54-.94.02-.05.06-.13.12-.23.06-.1.1-.18.12-.23.02-.04.04-.07.05-.09,0-.02.02-.04.04-.05s.03,0,.05,0h.17c1.92-.01,3.26-.06,4.01-.13-.37,2.87-1.38,5.46-3.03,7.75-.94,1.27-1.9,2.21-2.89,2.83-.56.36-.73.78-.54,1.26.1.25.27.42.52.52.25.1.49.1.72,0,.78-.32,1.72-1.12,2.83-2.39.88-1.02,1.62-2.13,2.24-3.33.68-1.33,1.19-2.63,1.54-3.9.2-.71.35-1.42.46-2.13.12-.91.16-1.5.11-1.78-.05-.32-.2-.59-.46-.8Z"/>
      <path class="cls-4" d="m101.09,28.55c-.06-.32-.25-.68-.56-1.06-.31-.39-.64-.64-.99-.75s-.67.06-.95.52c-.2.39-.07.82.39,1.28.17.09.26.28.26.57v4.24c.01,3.55-.92,5.97-2.81,7.25-.15.1-.3.19-.47.27-.17.08-.31.14-.43.19s-.29.1-.5.18c-.21.07-.37.13-.48.17-.28.11-.47.32-.56.64-.09.31-.04.59.15.82.28.39.86.44,1.72.15.75-.27,1.44-.67,2.07-1.18,2.15-1.71,3.22-4.57,3.22-8.56v-2.65c0-.12,0-.34.02-.64.01-.3.01-.56,0-.79-.01-.22-.04-.43-.07-.63Z"/>
      <path class="cls-4" d="m94.8,36.7c.31-.15.47-.43.47-.82v-6.09c0-.9-.16-1.57-.48-2.02-.47-.65-.94-.92-1.42-.8-.31.06-.53.23-.66.52-.13.28-.12.57.03.85.04.06.15.18.35.35.2.17.3.33.3.48v6.7c0,.4.16.67.47.82.31.15.63.15.94,0Z"/>
      <path class="cls-4" d="m109.28,32.36l7.07-.31c.25-.01.42-.02.53-.04.1-.01.24-.06.41-.14.17-.08.29-.19.38-.34.11-.2.14-.41.08-.65-.06-.23-.18-.42-.36-.55-.09-.07-.19-.12-.31-.15-.12-.02-.23-.04-.31-.04s-.21,0-.38.02c-.17.01-.27.02-.32.02-3.9.18-6.01.3-6.33.33-.41.04-.74.04-1.01.02-.27-.02-.5-.1-.71-.22-.36-.17-.68-.2-.97-.08-.29.12-.47.34-.55.68-.08.33.02.62.29.87.46.43,1.29.63,2.52.59Z"/>
      <path class="cls-4" d="m119.1,37.1c-.26.04-.93.06-2,.06-1.73.04-3.02.07-3.88.11-4.46.19-6.7.28-6.71.28-.25-.01-.44-.09-.59-.22-.23-.22-.5-.32-.8-.3-.3.03-.53.15-.69.39-.16.28-.2.56-.11.81.09.26.27.48.54.67.21.16.44.28.7.37s.55.14.86.16c.31.02.58.02.8.02.22,0,.51-.02.9-.06s.65-.05.8-.06c2.92-.14,5.68-.22,8.27-.26.06,0,.22,0,.46,0,.25,0,.46,0,.63,0s.39,0,.65-.02c.26-.01.47-.05.64-.1s.33-.13.49-.22c.16-.09.27-.22.32-.39.06-.17.06-.35,0-.56-.12-.58-.54-.81-1.26-.68Z"/>
      <path class="cls-4" d="m132.41,31.6c-.17-.28-.37-.49-.59-.61-.28-.14-.58-.11-.88.08-.3.19-.45.46-.45.8,0,.2.08.4.23.6.15.2.24.34.25.4.02.41-.07.97-.28,1.7-.65,2.29-2.07,4.12-4.24,5.49-.47.3-.94.54-1.41.74-.02.01-.11.05-.27.1-.15.06-.26.1-.32.14-.06.04-.15.1-.26.18-.11.09-.19.19-.22.31-.04.12-.06.26-.06.41.01.56.26.84.74.87.41.02,1.1-.22,2.09-.72,1.06-.54,2.02-1.26,2.88-2.15.86-.89,1.56-1.88,2.1-2.98.9-1.91,1.24-3.45,1.02-4.62-.05-.22-.16-.47-.33-.76Z"/>
      <path class="cls-4" d="m124.36,37.13c.22.16.45.2.69.13.14-.04.25-.09.35-.17.1-.07.17-.16.2-.26.1-.26.11-.59.04-.98-.01-.1-.05-.22-.11-.37-.21-.54-.44-1.09-.68-1.65-.12-.26-.26-.51-.41-.74s-.34-.41-.56-.53-.46-.13-.69-.05c-.22.09-.39.25-.51.5-.12.25-.13.49-.05.72.05.1.17.3.35.61.15.23.28.49.41.76.25.54.42,1.01.52,1.41.09.25.24.45.45.61Z"/>
      <path class="cls-4" d="m126.33,34.6c.04.09.1.3.19.63.09.33.17.57.26.72.1.22.27.38.53.48.25.1.48.1.68,0,.46-.27.6-.74.44-1.41-.15-.51-.31-1-.5-1.48-.22-.74-.46-1.29-.7-1.65-.16-.22-.39-.34-.67-.35-.29-.01-.53.07-.71.26-.32.31-.33.77-.02,1.39.2.44.37.91.52,1.41Z"/>
      <path class="cls-4" d="m147.7,28.87c-.05-.32-.2-.59-.46-.8-.26-.22-.55-.32-.88-.32s-.63.11-.9.33c-.04.05-.1.09-.19.11-.09.02-.16.04-.23.04s-.16,0-.28,0c-.12,0-.19,0-.21,0-.25.01-1.09.03-2.52.06-.06,0-.1-.02-.11-.05-.01-.03-.02-.08,0-.16,0-.07,0-.12,0-.15-.05-.31-.14-.6-.26-.87-.31-.62-.72-.9-1.24-.85-.3.04-.52.18-.68.43s-.19.52-.09.8c.02.09.09.2.2.35.11.15.17.28.19.39.01.3-.04.6-.15.93-.17.46-.52,1.1-1.04,1.92-.44.67-.83,1.2-1.17,1.59-.01.01-.13.13-.34.35-.22.22-.35.4-.4.54-.05.14-.05.3,0,.48.06.26.21.45.44.58s.47.17.72.12c.11-.02.22-.07.32-.13.1-.06.22-.15.33-.27s.2-.21.26-.28c.06-.07.15-.18.28-.34s.2-.25.21-.28c.33-.47.71-1.02,1.13-1.66.17-.28.35-.6.54-.94.02-.05.06-.13.12-.23.06-.1.1-.18.12-.23.02-.04.04-.07.05-.09s.02-.04.04-.05c.02,0,.03,0,.05,0h.17c1.92-.01,3.26-.06,4.01-.13-.37,2.87-1.38,5.46-3.03,7.75-.94,1.27-1.9,2.21-2.89,2.83-.56.36-.73.78-.54,1.26.1.25.27.42.52.52.25.1.49.1.72,0,.78-.32,1.72-1.12,2.83-2.39.88-1.02,1.62-2.13,2.24-3.33.68-1.33,1.19-2.63,1.54-3.9.2-.71.35-1.42.46-2.13.12-.91.16-1.5.11-1.78Z"/>
      <path class="cls-3" d="m90.89,3.06h-2.88v-1.88c0-.65-.53-1.18-1.18-1.18h0c-.65,0-1.18.53-1.18,1.18v1.88h-2.88c-.61,0-1.1.49-1.1,1.1h0c0,.61.49,1.1,1.1,1.1h2.88v1.75h2.35v-1.75h2.88c.61,0,1.1-.49,1.1-1.1h0c0-.61-.49-1.1-1.1-1.1Z"/>
    </g>
  </g>
</svg>