<?xml version="1.0" encoding="UTF-8"?>
<svg id="_レイヤー_2" data-name="レイヤー 2" xmlns="http://www.w3.org/2000/svg" viewBox="0 0 147.72 168.5">
  <defs>
    <style>
      .cls-1 {
        stroke: #fff;
        stroke-linecap: round;
        stroke-miterlimit: 10;
        stroke-width: 1.84px;
      }

      .cls-1, .cls-2 {
        fill: none;
      }

      .cls-2, .cls-3, .cls-4, .cls-5, .cls-6 {
        stroke-width: 0px;
      }

      .cls-3 {
        fill: #f2b059;
      }

      .cls-4 {
        fill: #fff;
      }

      .cls-5 {
        fill: #5c2314;
      }

      .cls-6 {
        fill: #ed8e23;
      }
    </style>
  </defs>
  <g id="_レイヤー_1-2" data-name="レイヤー 1">
    <g>
      <g>
        <path class="cls-4" d="m118.02,5.98c-.27-.13-.49-.38-.77-.5s-.6-.14-.89-.25-.55-.26-.84-.36-.63-.02-.92-.11-.52-.4-.81-.48-.6-.12-.89-.19-.6-.09-.9-.14-.62.03-.92-.02-.57-.36-.87-.39-.62.12-.93.1-.6-.18-.9-.19-.61.19-.92.19-.6.01-.91.01-.61-.08-.91-.07-.6.15-.9.17-.63-.28-.94-.26-.57.39-.87.43-.62-.07-.92-.03-.63-.09-.93-.04-.54.41-.84.47-.64-.1-.93-.03-.61.05-.91.12-.57.24-.86.31-.58.19-.87.27-.57.22-.86.3-.62.05-.91.14-.58.19-.86.29-.51.39-.79.49-.63.05-.91.16-.57.22-.85.33-.48.43-.76.55-.54.28-.82.4-.63.09-.9.22-.47.42-.74.56-.66.03-.93.17-.57.22-.84.36-.5.35-.77.5-.56.24-.83.39-.44.46-.7.61-.62.15-.88.3-.41.49-.67.66-.53.31-.78.47-.54.29-.79.46-.58.22-.84.4-.42.46-.67.63-.47.39-.71.57-.57.26-.81.44-.52.32-.76.51-.45.41-.69.6-.49.37-.72.56-.36.53-.59.72-.43.43-.67.63-.52.44-.75.64c-.23-.2-.4-.58-.63-.78s-.56-.29-.79-.48-.34-.55-.57-.74-.66-.15-.9-.34-.49-.36-.73-.55-.32-.59-.56-.77-.65-.15-.89-.33-.46-.4-.71-.57-.45-.42-.7-.6-.46-.4-.72-.57-.62-.17-.87-.34-.4-.5-.66-.66-.62-.15-.88-.3-.51-.33-.77-.48-.4-.52-.67-.67-.53-.31-.79-.46-.68-.01-.95-.16-.52-.32-.79-.45-.53-.29-.81-.42-.5-.37-.77-.49-.55-.27-.82-.39-.63-.08-.91-.2-.46-.47-.74-.59-.64-.03-.93-.14-.47-.49-.75-.59-.64-.03-.93-.13-.61-.09-.9-.19-.51-.41-.8-.5-.6-.13-.89-.21-.62-.03-.92-.11-.59-.16-.88-.23-.6-.11-.89-.17-.59-.13-.89-.19-.58-.18-.88-.23-.58-.26-.88-.3-.61-.05-.91-.09-.63.17-.93.15-.6-.15-.9-.17-.6-.22-.9-.23-.61.05-.91.04-.61.06-.91.07-.61-.04-.91-.02-.6.18-.9.21-.62-.09-.92-.06-.59.15-.89.2-.6.11-.89.17-.57.22-.87.29-.66-.13-.95-.05-.52.41-.81.49-.66-.06-.94.03-.48.45-.76.56-.64.03-.92.15-.46.45-.73.59c-.28.13-.67.03-.94.17s-.54.3-.8.46-.42.5-.67.66-.45.42-.7.59-.5.35-.74.54-.47.38-.7.58-.66.19-.88.4-.31.56-.52.78-.36.49-.56.72-.46.41-.65.65-.52.37-.7.62-.18.62-.35.87-.52.39-.68.66-.13.63-.28.9-.22.57-.36.84-.51.43-.64.71-.23.57-.35.85-.11.61-.21.9-.29.54-.39.83-.07.61-.16.91-.29.55-.36.85,0,.63-.06.93-.14.59-.2.89-.27.57-.32.87.13.63.09.94-.28.58-.31.89.14.62.11.93-.31.59-.32.9.18.62.18.92.05.61.05.92-.16.61-.15.92.17.6.19.91-.13.62-.11.92.23.59.26.89.07.6.11.9-.25.65-.2.95.38.56.43.86.05.61.1.91.13.59.19.89.09.6.16.9.13.6.2.89-.04.64.03.94.25.57.33.86.12.6.21.9.21.58.3.87.22.57.31.86.34.53.44.82.19.58.29.87.11.61.22.9.32.53.44.81.14.6.26.88.12.62.24.9.25.56.38.84.48.45.62.73.08.64.22.91.28.55.42.82.45.45.6.73.19.59.34.86.37.49.52.76.22.58.38.84.18.61.33.87.3.54.47.8.5.41.67.67.37.49.54.75.27.55.45.81.33.52.5.78c.17.25.21.59.38.84s.58.33.76.57.31.52.5.76.41.45.59.69.18.63.36.86.5.38.69.61.25.58.44.81.44.42.63.65.44.42.64.64.33.51.53.74.54.32.75.55.39.46.59.69.34.51.55.72.48.38.69.6.4.46.61.67.32.53.54.74.47.39.69.6.4.45.63.66.59.24.82.45.38.48.61.68.41.45.64.65.57.26.8.45.38.48.62.67.59.23.83.41.38.49.62.68.45.41.69.59.46.4.7.58.52.31.77.49.52.31.77.48.49.36.74.53.56.26.81.42.46.4.72.56.43.45.69.61.67.05.93.2.46.41.72.55.46.43.72.57.56.23.83.37.64.07.91.21.47.4.74.54.48.4.75.53.54.27.82.39.64.06.91.17.6.12.88.24.47.45.75.55.57.2.85.3.56.22.85.32.56.23.85.32.57.22.85.31.57.22.86.3.6.1.89.17.59.15.88.22.61.03.91.09.57.24.86.3.6.05.9.11.63-.1.92-.06.58.19.88.22.59.19.88.22.62-.15.91-.13.6.03.9.04.59.31.89.31.6-.15.9-.16c.2,0,.4.2.6.21.2,0,.4-.02.6-.03.3,0,.6-.31.9-.31s.6.17.91.16.6-.08.9-.1.61.04.91,0,.59-.13.89-.16.61.03.91-.01.57-.25.87-.3.61-.02.9-.08.55-.32.84-.38.66.17.95.1.58-.16.87-.24.59-.14.88-.23.58-.17.87-.26.55-.25.84-.35.52-.34.81-.44.59-.12.88-.23.52-.32.8-.43.59-.13.87-.25.53-.3.8-.42.6-.12.88-.25.59-.16.86-.29.46-.44.73-.57.59-.16.86-.3.56-.22.83-.37.47-.4.73-.54.61-.14.87-.29.47-.4.73-.55.43-.44.69-.6.52-.3.78-.46.54-.27.79-.43.59-.19.85-.36.45-.41.7-.58.4-.48.64-.66.6-.19.85-.37.52-.31.76-.49.37-.5.61-.69.62-.18.86-.37.29-.61.52-.8.66-.14.89-.34.35-.52.58-.72.57-.26.8-.46.41-.44.64-.64.38-.47.61-.68.51-.34.73-.55.47-.39.68-.6.22-.64.43-.85.61-.24.83-.46.3-.55.51-.76.34-.51.54-.73.57-.29.78-.51.46-.4.66-.63.19-.64.38-.87.51-.36.7-.59.42-.43.62-.67.4-.46.59-.69.41-.45.59-.69.36-.48.55-.72.36-.49.54-.73.4-.45.58-.7.24-.57.42-.82.47-.41.64-.66c.17-.25.24-.58.41-.83s.47-.43.63-.68.14-.64.3-.9.26-.56.42-.82.43-.45.59-.72.42-.46.58-.73.27-.55.42-.82.34-.51.49-.78.17-.61.31-.88.17-.6.31-.88.54-.42.68-.69.23-.57.36-.85.16-.61.28-.88.37-.51.49-.79.29-.54.41-.83.1-.62.22-.91.39-.51.5-.79.07-.63.18-.92.29-.55.39-.84,0-.65.09-.94.42-.51.51-.8.08-.62.17-.91.29-.56.38-.85-.13-.67-.05-.97.19-.58.26-.88.36-.55.42-.84.12-.6.18-.9-.1-.64-.04-.94.13-.6.18-.9.34-.57.38-.87.09-.61.12-.91-.17-.64-.15-.94.05-.61.07-.91-.05-.61-.03-.92.02-.61.02-.91.33-.61.33-.91.01-.62,0-.92-.2-.61-.21-.91.07-.62.05-.92-.03-.61-.06-.92-.11-.61-.15-.91-.14-.6-.19-.9-.11-.6-.17-.9.06-.64,0-.94-.43-.53-.51-.82-.18-.58-.26-.87.02-.65-.08-.93-.3-.54-.41-.83-.1-.62-.22-.9-.36-.51-.48-.79-.07-.65-.21-.92-.42-.47-.57-.74-.3-.53-.46-.79-.43-.45-.6-.7-.13-.66-.31-.9-.61-.3-.8-.54-.31-.54-.51-.76-.32-.54-.53-.76-.52-.34-.74-.55-.3-.58-.53-.78-.65-.17-.89-.35-.31-.6-.56-.77-.56-.27-.81-.44-.55-.27-.81-.43-.47-.4-.75-.55-.62-.14-.89-.27Z"/>
        <g>
          <path class="cls-3" d="m110.14,85.7c0,.23-.17.38-.44.6-.17.14-.4.24-.68.38-.22.11-.41.31-.69.41-.23.09-.48.19-.75.28-.24.07-.47.27-.74.35-.25.07-.56-.08-.83-.01-.25.06-.52.08-.79.14-.25.05-.49.22-.76.27-.26.05-.52.13-.79.18s-.54-.02-.81.02-.53.06-.8.1-.5.25-.77.29-.55-.06-.82-.03-.52.14-.79.17-.54,0-.8.02-.53.02-.8.05-.53.08-.8.11-.51.22-.78.25-.54-.09-.81-.06-.53.12-.8.14-.52.18-.79.21-.55-.17-.82-.15-.52.2-.79.22-.54-.05-.81-.03-.54-.04-.81-.02-.52.24-.79.26-.54-.08-.81-.06-.54-.09-.81-.07-.52.24-.79.25-.54-.16-.81-.15-.54.01-.81.03-.53.18-.8.19-.54.04-.81.05-.54-.02-.81,0-.54.13-.81.14-.54-.26-.81-.25-.54.04-.81.05-.54.09-.81.1-.54-.04-.81-.04-.54.25-.81.26-.54-.21-.81-.2-.54-.05-.81-.05-.54.15-.81.16-.54-.1-.81-.1-.54,0-.82,0-.55.07-.82.07-.54.05-.81.05-.54-.1-.81-.1-.54.04-.81.04-.54-.02-.81-.03-.54-.05-.81-.05-.54,0-.81,0-.54-.1-.81-.1-.54.12-.81.12-.55.16-.81.15-.54-.09-.81-.1-.54,0-.81,0-.54-.18-.8-.18-.54.06-.81.05-.54.07-.81.06-.54.03-.81.02-.53-.31-.8-.33-.55.19-.82.17-.55.06-.81.04-.53-.23-.8-.25-.54-.1-.8-.12-.55.16-.82.14-.54.03-.81.02-.52-.29-.79-.31-.56.19-.82.17-.53-.2-.79-.22-.55.06-.81.04-.53-.15-.79-.18-.53-.08-.8-.11-.54-.06-.8-.09-.53-.11-.79-.14-.54,0-.81-.03-.56.13-.82.1-.54-.12-.8-.15-.55-.02-.81-.06-.54-.1-.8-.14-.54-.05-.8-.09-.53-.11-.79-.16c-.27-.05-.51-.24-.77-.29-.27-.05-.57.05-.82,0-.27-.06-.53-.14-.79-.2-.27-.06-.49-.32-.73-.38-.27-.07-.53-.12-.77-.2-.27-.09-.5-.23-.73-.32-.28-.1-.59-.05-.8-.16-.28-.14-.58-.22-.75-.36-.26-.22-.43-.56-.43-.78s.21-.52.47-.74c.17-.14.39-.35.68-.49.22-.11.53-.07.81-.17.23-.09.49-.15.77-.23.24-.07.52-.07.79-.15.25-.07.46-.33.73-.39.25-.06.54,0,.81-.05.25-.05.53-.05.8-.1.26-.05.51-.14.78-.18s.51-.19.78-.24.52-.11.79-.15.53-.06.8-.1.55.08.82.05.5-.32.77-.35.53-.04.8-.08.53-.07.8-.1.55.16.82.13.52-.15.79-.18.52-.19.79-.21.55.19.82.16.53-.03.8-.05.51-.28.79-.3.55.2.82.18.53-.17.8-.19.54.09.82.07.53-.07.8-.09.53-.09.8-.1.54.05.81.03.52-.27.79-.28.55.19.82.17.53-.1.8-.11.54.05.81.04.53-.14.8-.15.54-.11.81-.12.54,0,.81-.01.54.13.81.12.54-.1.81-.11.54.04.81.04.54.06.81.05.54.07.81.07.54-.02.81-.03.54,0,.81,0,.54-.18.81-.18.54.06.81.06.54,0,.82,0,.55.09.82.09.54-.22.81-.22.54.11.81.11.54-.08.81-.08.54.14.81.14.54-.11.81-.11.54-.09.81-.08.54.11.81.12.54.04.81.04.54-.02.81-.01.54.12.81.12.55-.19.82-.18.54.15.81.16.54.09.81.1.54-.05.81-.04.54.15.8.16.55-.22.82-.21.53.23.8.24.55-.1.81-.09.54.03.81.04.53.23.79.25.55-.12.82-.1.53.13.8.15.53.11.8.13.54,0,.81.02.55-.08.81-.06.54,0,.81.01.54.02.81.04.54.04.8.07.53.13.79.15.52.19.79.22.55-.04.81,0,.55-.01.81.02.52.23.78.27.56-.1.83-.06.53.11.8.15.54.06.8.11.54.07.8.12c.27.05.54.09.79.14.27.05.5.29.75.35.27.06.54.08.79.14.27.06.51.21.76.28.27.07.59-.06.83.01.27.09.44.41.68.5.28.1.56.1.78.21.28.14.51.26.69.4.26.22.37.43.37.66Z"/>
          <g>
            <g>
              <path class="cls-2" d="m107.4,74.58c.11-.07.2-.14.29-.21.07-.06.11-.08.17-.13-.2.06-.4.1-.56.21-.26.18-.41.5-.66.69.09-.07.17-.13.25-.2.18-.14.35-.26.51-.37Z"/>
              <path class="cls-2" d="m92.96,83.11c.12,0,.25.03.38.04.18.02.35.05.48.04.18-.02.35-.07.53-.12l.33-.08c.28-.07.56-.16.85-.27.04-.02.09-.01.13-.02.09-.05.17-.11.26-.17.15-.1.3-.21.46-.29l.38-.21c.16-.09.32-.18.48-.27.16-.1.34-.18.51-.26.13-.06.25-.12.37-.19.12-.08.24-.16.35-.25.15-.11.3-.22.46-.32.13-.08.26-.18.39-.27.14-.1.28-.2.42-.29.18-.11.36-.2.54-.29.11-.05.23-.1.33-.17.1-.06.18-.15.26-.23.16-.15.32-.3.49-.42.15-.1.31-.2.47-.29.13-.07.25-.15.37-.23.15-.1.3-.19.44-.29.13-.08.26-.16.38-.25l.77-.55c.17-.12.29-.22.41-.33.13-.11.26-.21.39-.31.15-.11.31-.22.46-.31.12-.08.24-.16.35-.24.07-.05.15-.14.23-.25.12-.15.27-.32.46-.47.18-.14.33-.26.47-.37-.26.18-.55.32-.81.49-.27.18-.66.2-.93.38-.27.18-.44.5-.71.67-.27.18-.5.42-.77.6-.28.17-.65.2-.93.37-.28.17-.6.28-.88.44-.28.17-.57.31-.85.47-.28.16-.48.46-.76.62-.29.16-.51.41-.8.57-.29.15-.67.15-.96.3-.29.15-.51.42-.81.56-.29.15-.62.24-.91.38-.3.14-.65.17-.95.31-.3.14-.5.46-.8.59-.3.13-.65.17-.95.3-.3.13-.67.13-.97.25-.29.12-.55.29-.84.41.07.02.13.05.2.07.29.08.55.12.82.14Z"/>
              <path class="cls-6" d="m136.53,26.03c0-.32.01-.63,0-.95,0-.32-.22-.62-.23-.94-.02-.32.07-.64.05-.95-.03-.32-.03-.63-.06-.94-.03-.31-.12-.62-.16-.93-.04-.31-.16-.62-.21-.93-.05-.31-.12-.62-.19-.93-.06-.31.06-.66,0-.97-.07-.31-.48-.54-.56-.85-.08-.31-.19-.6-.29-.9-.1-.3.02-.66-.09-.96-.11-.3-.33-.56-.45-.85-.12-.3-.11-.64-.24-.92-.13-.29-.39-.53-.53-.81-.14-.29-.08-.67-.23-.95-.15-.28-.46-.49-.63-.76-.17-.27-.33-.55-.51-.81-.18-.27-.47-.46-.66-.72-.19-.26-.15-.68-.35-.93-.2-.25-.67-.31-.89-.55-.21-.24-.34-.55-.56-.79-.22-.23-.35-.55-.59-.78-.23-.22-.57-.35-.82-.57-.24-.21-.33-.6-.59-.8-.25-.2-.72-.17-.99-.36-.26-.19-.35-.61-.62-.8-.27-.18-.61-.28-.9-.45-.28-.17-.6-.28-.89-.44-.29-.16-.52-.42-.82-.56-.3-.15-.68-.14-.98-.28-.3-.14-.54-.39-.85-.52-.31-.12-.66-.14-.98-.25-.31-.11-.61-.27-.92-.37-.32-.1-.69-.02-1.01-.11-.32-.09-.57-.41-.9-.49-.32-.08-.66-.13-.99-.2-.33-.07-.67-.09-1-.14-.33-.06-.68.03-1.01-.02-.33-.05-.62-.37-.96-.4-.33-.04-.69.13-1.02.1-.33-.03-.66-.18-.99-.2-.33-.02-.68.2-1.01.19-.33,0-.67.01-1,.02-.33,0-.67-.09-1-.07-.33.01-.66.15-.99.17-.33.02-.7-.29-1.03-.26-.33.03-.63.4-.96.44-.33.04-.68-.07-1.02-.03-.33.04-.7-.1-1.03-.05-.33.05-.6.42-.93.48-.33.06-.7-.1-1.03-.03-.33.07-.67.05-1,.12-.32.07-.62.25-.95.32-.32.08-.64.2-.96.28-.32.08-.63.22-.95.31-.32.09-.68.05-1,.15-.32.1-.64.2-.95.3-.32.1-.56.4-.87.51-.31.11-.69.05-1.01.16-.31.11-.63.22-.94.34-.31.12-.53.44-.84.56-.31.12-.59.29-.9.41-.3.13-.69.09-1,.22-.3.13-.52.44-.82.57-.3.14-.73.04-1.03.18-.3.14-.63.22-.93.37-.29.15-.55.36-.85.51-.29.15-.62.25-.91.4-.29.15-.48.47-.77.63-.29.16-.68.15-.97.31-.29.16-.45.51-.74.67-.28.17-.58.31-.86.49-.28.17-.59.3-.87.47-.28.17-.64.23-.92.41-.28.18-.47.47-.74.65-.27.18-.51.4-.79.59-.27.18-.63.26-.89.45-.27.19-.58.33-.84.52-.27.19-.5.42-.76.62-.26.19-.54.38-.8.58-.26.2-.4.54-.65.74-.26.2-.48.44-.73.65-.26.2-.57.46-.83.66-.25-.21-.44-.6-.7-.8-.26-.2-.61-.29-.87-.49-.26-.2-.37-.57-.63-.76-.26-.2-.72-.16-.99-.35-.26-.19-.54-.37-.8-.56-.27-.19-.35-.6-.62-.79-.27-.19-.71-.15-.98-.34-.27-.18-.51-.41-.78-.59-.27-.18-.49-.44-.77-.61-.28-.18-.51-.41-.79-.59-.28-.17-.68-.18-.96-.34-.28-.17-.45-.51-.73-.68-.29-.17-.69-.15-.97-.31-.29-.16-.56-.34-.85-.5-.29-.16-.45-.53-.74-.69-.29-.15-.58-.32-.87-.47-.29-.15-.75-.02-1.05-.16-.3-.15-.57-.33-.87-.47-.3-.14-.59-.3-.89-.44-.3-.14-.55-.38-.85-.51-.3-.13-.6-.28-.91-.41-.31-.13-.69-.08-1-.2-.31-.12-.51-.49-.82-.6-.31-.12-.71-.03-1.02-.14-.31-.11-.52-.5-.83-.61-.32-.11-.7-.03-1.02-.13-.32-.1-.67-.1-.99-.19-.32-.1-.56-.42-.88-.51-.32-.09-.66-.13-.98-.21-.32-.09-.69-.03-1.01-.11-.33-.08-.65-.17-.97-.24-.33-.07-.66-.11-.99-.18-.33-.07-.65-.13-.98-.19-.33-.06-.64-.19-.97-.24-.33-.05-.64-.27-.97-.31-.33-.04-.67-.06-1-.09-.33-.04-.69.18-1.03.15-.33-.03-.66-.15-.99-.17-.34-.02-.66-.22-.99-.23-.34-.01-.68.05-1.01.04-.34,0-.67.07-1.01.07-.34,0-.68-.04-1.01-.02-.34.02-.66.19-.99.22-.33.03-.68-.09-1.02-.06-.33.04-.66.16-.98.2-.33.05-.66.12-.99.17-.33.06-.63.23-.96.3-.33.07-.72-.13-1.05-.05-.32.08-.57.42-.89.51-.32.09-.73-.07-1.04.03-.32.1-.53.46-.84.58-.31.11-.71.03-1.01.16-.31.12-.5.47-.8.6-.31.14-.74.03-1.04.18-.3.15-.6.31-.89.47-.29.16-.46.51-.74.68-.28.17-.5.43-.77.61-.28.18-.55.36-.81.55-.27.2-.52.39-.78.6-.26.21-.72.19-.97.41-.25.22-.34.58-.58.8-.23.23-.4.51-.62.74s-.5.42-.72.67c-.21.24-.58.38-.78.63-.2.25-.2.64-.39.9-.19.26-.57.41-.74.67-.18.27-.15.65-.31.92-.16.27-.24.59-.39.87-.15.28-.56.44-.7.73-.14.28-.25.59-.38.88-.13.29-.12.63-.23.93-.12.29-.32.56-.43.86-.11.3-.08.63-.18.94-.09.3-.32.57-.4.87-.08.3,0,.64-.07.95-.07.31-.16.61-.22.92-.06.31-.3.59-.35.9-.05.31.14.65.1.96-.04.31-.3.6-.34.91-.03.31.15.64.13.96-.02.31-.34.61-.36.93-.02.31.2.63.2.95,0,.31.06.63.06.94,0,.31-.18.63-.17.95,0,.31.19.62.21.94.02.31-.15.63-.12.95.02.31.26.61.29.92.03.31.08.62.12.93.04.31-.27.66-.22.98.05.31.42.57.47.89.05.31.05.62.11.94.06.31.15.61.21.92.07.31.1.62.17.93.07.31.14.61.22.92.08.3-.05.66.04.96.08.3.27.58.36.89.09.3.13.62.23.92.1.3.23.59.33.89.1.3.24.59.34.89.11.3.38.54.49.84.11.3.2.6.32.89.12.29.12.63.24.92.12.29.35.54.48.83.13.29.15.62.28.91.13.29.13.63.26.92.14.29.28.57.42.86.14.29.53.46.68.75.14.28.09.66.24.94.15.28.3.56.46.84.15.28.5.47.66.75.16.28.21.6.38.88.16.28.41.51.57.78.17.27.25.59.42.87.17.27.19.63.37.9.17.27.33.55.51.82.18.27.56.42.74.69.18.27.41.51.59.77.18.26.3.57.49.83.19.26.36.54.55.8.19.26.23.61.42.86.19.25.64.34.84.59.2.25.35.53.55.78.2.25.45.46.65.71.2.25.2.64.4.89.21.24.55.39.76.63.21.24.28.59.49.83.21.24.48.43.7.67.22.24.49.43.71.66.22.24.36.53.59.76.22.23.6.33.82.56.22.23.42.48.65.7.23.23.38.52.61.74.23.22.52.39.76.61.23.22.44.47.67.69.24.22.36.55.6.76.24.22.51.4.76.61.24.21.45.47.69.68.24.21.66.25.9.46.25.21.42.49.67.7.25.21.45.47.7.67.25.2.63.27.88.47.26.2.42.5.68.69.26.2.65.23.91.43.26.19.42.51.68.7.26.19.49.42.76.61.27.19.51.41.78.59.27.18.58.32.85.5.27.18.57.32.85.5.28.18.54.37.82.54.28.17.61.26.89.43.28.17.51.41.79.58.28.17.48.47.76.63.29.16.74.05,1.03.21.29.16.51.42.8.57.29.15.5.44.79.59.29.15.62.24.91.38.29.15.71.08,1,.22.3.14.52.42.82.55.3.14.53.41.83.55.3.13.6.28.9.4.3.13.7.06,1.01.18.31.12.66.13.97.24.03.01.05.03.08.04.17-.04.33-.08.42-.13.13-.07.25-.2.4-.36l.21-.22c.11-.11.27-.27.29-.34.03-.11,0-.3-.03-.49l-.03-.23c-.02-.16-.05-.35-.09-.43-.13-.27-.27-.51-.39-.68-.12-.17-.28-.27-.38-.34l-.23-.18s-.02-.03-.03-.05c-.11-.06-.23-.12-.34-.18-.17-.09-.33-.19-.5-.28-.12-.07-.24-.14-.36-.21-.06-.03-.18-.07-.29-.11-.18-.06-.42-.13-.64-.26-.18-.1-.35-.22-.51-.34-.1-.07-.2-.15-.31-.21-.18-.1-.34-.22-.5-.33-.11-.08-.21-.15-.32-.22-.17-.1-.32-.2-.48-.31-.12-.08-.24-.16-.35-.23-.06-.04-.18-.08-.29-.12-.18-.06-.41-.14-.64-.28-.24-.15-.42-.33-.56-.47-.07-.07-.15-.16-.2-.18-.1-.06-.2-.1-.31-.15-.21-.09-.4-.18-.58-.29-.17-.11-.32-.22-.48-.34-.11-.08-.22-.16-.33-.24-.17-.11-.33-.23-.49-.35-.11-.08-.21-.16-.32-.23l-.36-.24c-.16-.11-.32-.21-.46-.31-.12-.09-.25-.16-.37-.24-.16-.1-.32-.2-.46-.3-.13-.09-.25-.17-.37-.25-.16-.1-.32-.2-.45-.3l-.32-.24c-.18-.13-.34-.25-.48-.36-.37-.28-.5-.46-.61-.64-.03-.04-.03-.05-.1-.1-.39-.33-.44-.91-.11-1.3.33-.39.91-.44,1.3-.11.25.21.36.37.45.5.03.04.04.07.2.19.13.1.27.21.44.33l.33.25c.1.07.21.14.32.21.16.1.32.2.48.32.11.08.23.15.35.23.15.09.3.19.45.29.13.09.27.18.41.28l.39.26c.12.09.25.18.37.27.13.1.27.2.42.3.14.09.27.19.41.29.12.09.25.19.38.27.09.06.19.09.29.14.2.08.4.17.58.29.22.14.39.31.52.45.08.08.17.17.22.2.05.03.16.07.27.11.18.06.41.14.64.28.14.08.27.17.41.26.13.09.27.18.41.26.16.09.31.2.46.31.11.08.23.17.35.24.16.09.32.21.47.32.11.08.21.16.33.23.05.03.17.07.28.1.18.06.41.13.64.25.14.08.28.16.41.24.14.08.28.17.43.25.17.09.34.18.51.26l.35.18c.18.1.35.21.52.33.1.07.2.15.31.21.14.07.29.14.44.21.08.04.16.08.24.11.05.01.11,0,.16.03.19.08.39.12.58.16l.24.05c.13.03.25.07.38.1.17.05.33.09.43.1.08,0,.22-.03.36-.07.14-.04.29-.07.43-.1.2-.03.4-.03.59-.03.09,0,.2,0,.24,0,0,0,.13-.14.2-.22.09-.1.18-.19.26-.27.09-.08.31-.28.34-.35.03-.09-.09-.43-.13-.56l-.04-.14c-.08-.25-.16-.49-.28-.66-.12-.16-.3-.32-.49-.49l-.18-.1c-.2-.1-.39-.24-.58-.38-.09-.07-.18-.14-.29-.2-.18-.09-.35-.19-.53-.29l-.37-.21c-.06-.03-.18-.07-.3-.1-.19-.06-.44-.13-.68-.26-.18-.1-.34-.2-.51-.31-.12-.08-.24-.16-.37-.23-.19-.11-.36-.24-.53-.37-.1-.08-.2-.16-.31-.22-.11-.06-.23-.11-.34-.16-.2-.09-.4-.17-.58-.28-.13-.08-.25-.15-.38-.22-.17-.1-.34-.19-.51-.3-.19-.12-.36-.26-.53-.4-.09-.08-.19-.16-.29-.23l-.35-.21c-.18-.11-.35-.22-.52-.33-.16-.11-.32-.22-.48-.33-.12-.09-.24-.17-.36-.25-.09-.06-.2-.1-.3-.14-.18-.07-.41-.17-.63-.31-.17-.12-.33-.25-.49-.39-.1-.09-.2-.17-.31-.25-.17-.12-.33-.25-.48-.38-.11-.09-.21-.18-.32-.25-.16-.11-.32-.23-.47-.35-.12-.09-.23-.18-.35-.26-.06-.05-.18-.1-.3-.15-.19-.08-.4-.18-.61-.33-.23-.17-.4-.36-.53-.52-.07-.08-.15-.18-.2-.21-.1-.07-.21-.13-.32-.18-.2-.1-.39-.21-.56-.34-.17-.13-.33-.26-.48-.39-.1-.09-.21-.18-.31-.26-.17-.13-.33-.27-.48-.4-.11-.09-.21-.17-.3-.25l-.4-.3c-.15-.12-.29-.22-.42-.32-.22-.17-.3-.23-.38-.29-.11-.07-.2-.14-.44-.34-.39-.33-.44-.91-.11-1.3.33-.39.91-.44,1.3-.11.15.12.2.16.27.21.1.07.22.15.52.39.11.09.23.18.36.28.13.1.28.21.43.33.11.09.23.19.35.29.13.11.27.23.42.35.13.1.25.2.38.31.12.11.25.22.39.32.09.07.19.11.29.17.2.1.4.21.58.35.21.16.37.34.49.49.08.09.16.19.22.23.05.04.16.09.27.14.18.08.41.18.63.34.13.1.27.2.4.3.13.1.26.2.4.3.15.11.3.22.44.35.11.09.23.19.35.28.16.11.31.23.46.36.11.09.21.18.33.26.06.04.18.09.29.13.22.09.43.18.62.31.14.09.28.19.41.29.14.1.27.19.41.28.16.1.32.21.49.31l.36.23c.17.11.33.24.49.38.1.08.2.17.31.24.15.09.3.17.45.26.14.08.29.16.43.25.11.07.23.11.35.16.19.08.38.16.56.27.17.1.34.22.5.35.11.08.21.16.32.23.15.09.3.18.45.28.13.09.27.17.41.25.06.03.18.07.3.1.19.05.42.12.65.25.14.08.28.15.41.23.15.09.31.18.46.26.19.1.37.23.55.37.1.07.19.15.29.2l.35.18h0s0,0,0,0l.06.03c.16.09.32.17.48.25.06.03.19.06.31.09.15.03.32.08.5.15.03,0,.07,0,.1.02.34.13.56.21.77.25.21.04.43.04.68.04.22,0,.33,0,.44,0,.17,0,.34.01.44,0,.18-.04.37-.13.58-.24l.29-.14c.15-.07.33-.16.39-.22.04-.04.08-.21.11-.33l.11-.38c.03-.11.09-.27.09-.32-.01,0-.12-.13-.19-.21-.11-.12-.2-.25-.28-.37-.11-.17-.22-.33-.3-.46-.16-.07-.31-.15-.47-.23-.12-.06-.25-.13-.37-.19-.19-.09-.37-.21-.55-.32-.09-.06-.18-.12-.28-.17-.27-.07-.59-.16-.9-.36-.1-.06-.17-.14-.24-.23-.1-.06-.21-.11-.31-.17-.12-.07-.24-.14-.36-.21-.05-.03-.17-.06-.28-.09-.19-.05-.43-.12-.67-.25-.17-.09-.34-.19-.51-.29l-.36-.21c-.2-.11-.38-.25-.55-.4-.08-.07-.16-.14-.26-.2-.17-.1-.33-.2-.49-.3l-.36-.22c-.05-.03-.17-.07-.28-.11-.19-.06-.42-.14-.65-.28-.17-.1-.32-.21-.48-.32-.11-.08-.23-.16-.35-.24-.18-.11-.35-.25-.51-.38-.09-.08-.19-.16-.29-.22-.1-.07-.22-.11-.33-.17-.19-.09-.39-.18-.56-.3-.12-.08-.25-.16-.37-.23-.16-.1-.32-.19-.47-.3-.18-.12-.34-.26-.5-.41-.09-.08-.17-.16-.26-.22l-.82-.55c-.16-.11-.31-.22-.46-.34-.11-.09-.23-.17-.34-.25-.06-.04-.17-.09-.28-.14-.18-.08-.4-.17-.61-.32-.17-.12-.33-.26-.48-.4-.09-.08-.18-.17-.28-.24-.17-.12-.32-.26-.47-.39-.1-.09-.19-.17-.29-.25-.16-.12-.31-.24-.45-.36-.11-.09-.22-.18-.32-.26-.06-.05-.17-.1-.29-.15-.18-.08-.39-.18-.58-.34-.24-.18-.4-.39-.53-.55-.05-.07-.13-.16-.16-.18-.11-.09-.24-.15-.35-.21-.19-.1-.36-.21-.5-.32-.32-.26-.41-.35-.51-.44-.05-.05-.11-.11-.24-.22-.39-.33-.44-.91-.11-1.3.33-.39.91-.43,1.3-.11.19.16.27.24.34.31.07.07.14.13.37.32.06.05.14.09.22.13.2.11.41.23.61.39.19.15.33.32.45.48.08.1.16.2.22.25.04.03.15.08.24.12.18.08.4.19.62.36.12.09.25.2.38.3.12.1.25.21.39.31.14.11.28.22.41.35.11.09.22.19.33.28.15.11.29.24.43.37.1.09.2.19.31.27.05.04.16.08.27.13.18.08.4.17.61.32.13.09.26.19.39.29.13.1.26.2.4.29l.81.54c.17.11.32.25.47.39.09.08.18.17.28.24.13.09.27.17.41.26.14.08.28.17.41.26.1.07.21.11.32.16.19.09.38.18.55.29.17.11.32.23.48.36.1.08.19.17.3.23.15.09.29.19.43.29.12.09.25.18.38.26.05.03.17.07.27.1.18.06.41.14.64.27.13.08.27.16.4.25.14.09.29.18.43.27.19.11.36.25.53.39.09.07.17.15.26.2.14.08.27.16.4.24.15.09.29.18.44.26.05.03.17.06.28.09.19.05.42.12.65.24.15.08.29.16.44.25.14.08.27.16.42.24.26.13.52.26.78.39l.12.03c.19.05.4.07.71.07h.25c.18,0,.38,0,.47-.04.21-.07.41-.2.6-.35.19-.16.33-.33.39-.47,0-.02,0-.15-.01-.24,0-.11-.01-.21-.01-.32v-.13c0-.2,0-.37-.04-.49-.1-.3-.17-.5-.26-.63-.14-.2-.27-.35-.4-.47-.08-.03-.16-.05-.24-.07-.2-.06-.44-.12-.67-.25-.25-.13-.44-.3-.59-.43-.09-.08-.18-.15-.23-.18-.1-.06-.22-.09-.33-.13-.21-.07-.43-.15-.62-.26-.17-.1-.34-.2-.51-.31-.12-.08-.24-.16-.37-.23-.17-.1-.34-.21-.5-.31-.12-.08-.24-.15-.36-.23l-.38-.21c-.17-.1-.34-.19-.5-.29-.12-.07-.25-.14-.38-.21-.17-.09-.34-.18-.51-.29-.12-.08-.25-.14-.38-.21-.18-.09-.35-.18-.51-.29l-.36-.22c-.17-.11-.34-.21-.51-.32-.23-.15-.4-.32-.54-.46-.08-.07-.15-.15-.23-.21l-.34-.23c-.17-.11-.34-.22-.5-.33-.1-.07-.22-.12-.33-.17-.2-.1-.4-.19-.57-.32-.17-.12-.32-.24-.48-.36-.11-.09-.22-.17-.33-.25-.13-.09-.26-.18-.38-.26-.16-.1-.32-.2-.46-.31-.18-.14-.34-.29-.5-.43-.09-.08-.17-.17-.26-.24-.13-.1-.25-.18-.38-.26-.16-.11-.32-.21-.46-.32-.2-.16-.38-.33-.53-.49-.08-.08-.14-.15-.21-.21-.16-.13-.2-.15-.26-.17-.17-.07-.34-.15-.61-.38-.39-.33-.43-.91-.1-1.3.33-.39.91-.43,1.3-.1.04.03.06.05.09.07.22.09.41.18.74.45.12.1.25.22.38.35.1.1.21.22.34.32.1.08.21.15.33.23.16.1.32.21.48.33.15.11.28.24.43.37.1.1.2.2.32.28.11.08.24.16.37.25.15.1.31.2.46.31.13.09.26.2.4.3.13.1.26.2.39.3.09.06.2.11.3.16.2.09.4.19.58.32l.52.35c.12,0,.25.02.37.07.06.02.14.07.23.12.15.09.35.2.62.29.26.08.58.17.91.24l.19.04c.23.05.48.1.73.12.08,0,.22-.03.36-.07.17-.04.35-.08.52-.1.31-.04.56-.08.79-.17.11-.04.23-.08.35-.11.16-.05.32-.1.4-.15.24-.17.42-.31.53-.45,0-.01,0-.2.01-.33,0-.17,0-.25-.11-.39l-.11-.16c-.13-.18-.24-.35-.4-.48-.09-.07-.21-.13-.33-.2-.16-.09-.33-.18-.5-.3-.16-.11-.33-.21-.52-.32l-.34-.2c-.16-.1-.31-.21-.47-.34-.11-.09-.23-.18-.36-.26-.13-.07-.26-.14-.41-.22-.15-.08-.31-.16-.48-.26-.18-.1-.37-.22-.58-.35l-.33-.21c-.07-.05-.16-.07-.25-.11-.21-.08-.46-.18-.73-.36-.16-.11-.33-.25-.49-.39-.11-.09-.22-.19-.34-.28-.16-.11-.31-.25-.47-.39-.11-.1-.22-.2-.34-.29-.15-.12-.31-.25-.47-.39-.11-.09-.22-.19-.34-.29-.08-.06-.17-.1-.26-.15-.19-.1-.42-.22-.64-.41-.39-.33-.44-.91-.11-1.3.33-.39.91-.44,1.3-.11.07.06.19.12.32.19.2.11.4.22.57.35.13.11.26.22.38.32.13.12.26.23.39.33.16.12.3.25.44.38.11.1.21.19.32.28.17.12.32.26.47.38.11.09.21.18.31.26.09.06.22.11.36.16.2.08.39.16.55.26l.35.22c.18.11.34.21.49.3.15.09.3.16.44.24.16.08.31.17.46.25.22.12.41.27.6.42.1.08.19.15.28.21l.32.19c.22.13.43.25.62.38.12.08.24.14.36.21.23.13.45.25.62.39.36.3.58.62.74.86l.09.13c.34.47.49.96.46,1.54-.02.43-.05.96-.41,1.41-.27.33-.58.57-.79.72-.4.3-.76.41-1.04.5-.08.02-.16.05-.24.08-.43.16-.84.23-1.22.27-.05,0-.1.02-.15.03.03.02.06.03.09.05l.41.24c.14.08.28.17.41.26.14.09.29.18.44.27.15.08.3.18.44.27.13.09.27.17.41.25.1.06.21.09.32.13.21.07.41.15.6.25.23.13.42.29.56.42.09.08.18.16.24.19.07.03.19.07.31.1.23.06.45.13.66.24.05.03.11.06.15.1.28.23.54.51.82.9.25.35.38.72.48,1.01.17.51.17.89.17,1.2,0,.18,0,.25,0,.32.02.29.04.69-.15,1.11-.18.39-.47.77-.88,1.12-.25.21-.53.37-.81.51.1.15.21.31.3.45.04.06.1.12.15.19.18.22.44.52.56.93.15.53,0,1-.11,1.35l-.09.29c-.08.3-.2.76-.58,1.15-.28.29-.61.45-.91.59l-.17.08c-.36.18-.69.35-1.11.44-.21.05-.41.06-.6.06-.11,0-.21,0-.3,0h-.26c-.4,0-.75,0-1.13-.08-.08-.01-.15-.04-.22-.06.12.39.22.89.06,1.42-.17.55-.57.92-.87,1.18-.05.04-.1.1-.14.15-.19.21-.46.5-.87.68-.35.15-.69.14-.95.14-.09,0-.19,0-.27,0-.08.01-.16.04-.25.06-.22.06-.5.13-.82.13-.03,0-.07,0-.1,0-.32-.02-.6-.1-.85-.17-.09-.03-.19-.05-.28-.08l-.2-.04c-.1-.02-.21-.05-.32-.07l.02.17c.06.39.12.85-.03,1.34-.15.48-.48.82-.74,1.08l-.18.18c-.05.05-.11.11-.17.16.21.07.42.15.63.22.32.1.62.24.94.33.32.1.63.22.94.31.32.09.63.23.94.31.32.09.66.1.98.18.32.08.65.15.97.22.32.07.68.03,1,.1.33.07.62.25.95.31.33.06.67.06.99.11.33.05.69-.1,1.02-.06.33.05.64.19.97.23.33.04.64.19.97.22.33.03.68-.16,1.01-.13.33.02.66.03.99.04.33.01.65.32.98.32.33,0,.67-.16.99-.16.22.01.44.21.66.22.22,0,.45-.02.66-.04.33,0,.66-.31.99-.32.33,0,.67.18,1,.17.33-.01.66-.08.99-.1.33-.02.67.04,1,0,.33-.03.65-.13.98-.17.33-.04.67.03,1-.01.33-.05.63-.26.96-.31.33-.05.67-.02,1-.08.32-.06.6-.33.93-.39.32-.07.72.17,1.05.1.32-.07.64-.17.96-.25.32-.08.65-.15.97-.23.32-.08.64-.17.96-.26.32-.09.61-.26.93-.36.31-.1.57-.35.89-.45.19-.06.4-.1.6-.14-.06-.05-.13-.1-.19-.16-.35-.36-.59-.77-.73-1.22-.15-.48-.07-.92-.02-1.24.02-.11.04-.19.07-.29-.18.08-.37.17-.59.22-.4.09-.79.15-1.16.17h-.21c-.16.02-.33.03-.5.03-.16,0-.32,0-.49-.03-.39-.06-.71-.21-.97-.33l-.19-.09c-.41-.17-.78-.41-1.09-.69-.37-.33-.63-.75-.78-1.23-.14-.46-.15-.93-.05-1.4-.06,0-.11.01-.17.02-.09.02-.18.05-.27.08-.23.08-.52.18-.85.18h0c-.38,0-.69-.12-.92-.2-.08-.03-.15-.06-.22-.07l-.25-.05c-.28-.05-.59-.1-.9-.26-.41-.2-.76-.45-1.04-.74-.31-.32-.65-.71-.79-1.21-.16-.58-.01-1.11.1-1.5.12-.42.3-.8.57-1.21.12-.18.25-.35.4-.52-.27-.13-.53-.29-.79-.51l-.16-.13c-.25-.2-.6-.46-.79-.9-.18-.41-.17-.82-.16-1.11v-.2c0-.35,0-.77.16-1.22.12-.35.3-.7.56-1.06.23-.32.5-.53.74-.72l.11-.09s.1-.07.15-.1c.13-.07.25-.15.38-.23.16-.1.32-.2.48-.29.14-.08.28-.16.42-.24.15-.09.29-.18.44-.26.18-.1.37-.18.57-.25.12-.05.24-.09.35-.15.1-.06.19-.14.28-.21.17-.14.34-.28.53-.39.16-.09.32-.17.49-.25.14-.07.27-.13.4-.21.13-.07.25-.14.38-.21-.02,0-.05,0-.07,0-.39-.05-.72-.18-1.01-.3l-.21-.08c-.08-.03-.16-.05-.24-.08-.29-.09-.64-.19-.97-.45-.25-.19-.4-.43-.53-.65-.05-.09-.11-.18-.17-.26l-.1-.11c-.21-.22-.55-.6-.58-1.17-.04-.63.27-1.14.57-1.56l.09-.12c.17-.24.39-.57.75-.86.18-.15.39-.27.63-.4.11-.06.24-.13.35-.21.09-.06.18-.13.28-.2.19-.14.39-.29.62-.43.18-.11.38-.2.59-.28.13-.05.26-.1.38-.18.15-.08.3-.16.47-.25.14-.07.29-.15.44-.23.04-.02.14-.11.22-.18.17-.15.35-.3.56-.44.16-.1.33-.17.52-.25.14-.06.28-.11.37-.18.11-.08.23-.17.35-.27.14-.12.29-.24.44-.35l.24-.17c.18-.13.38-.27.57-.42.13-.1.28-.2.43-.3.13-.09.27-.17.4-.28.11-.09.21-.19.32-.29.14-.14.28-.27.44-.4.39-.33.97-.28,1.3.11.33.39.28.97-.11,1.3-.12.1-.22.21-.33.31-.15.15-.3.29-.45.41-.18.15-.37.27-.55.39-.11.07-.22.14-.31.22-.22.17-.43.32-.63.46l-.23.16c-.13.09-.24.19-.35.28-.17.14-.33.27-.49.38-.25.17-.5.28-.71.36-.09.04-.18.07-.26.12-.12.07-.22.16-.31.25-.15.14-.33.29-.55.41-.17.1-.34.18-.5.26-.14.07-.27.14-.39.21-.2.11-.4.2-.59.28-.12.05-.24.09-.34.16-.17.1-.33.22-.48.33-.12.09-.23.17-.35.25-.17.11-.34.21-.5.3-.12.07-.24.12-.33.2-.16.13-.28.31-.41.49l-.1.15c-.12.17-.18.27-.2.33.03.03.05.06.08.08.07.07.13.14.19.21.11.15.21.31.31.46.04.07.08.14.12.19.01,0,.19.05.34.1.12.04.24.07.36.12l.25.1c.2.08.39.16.54.18.19.02.41,0,.65-.01l.24-.02c.14,0,.28-.01.42-.01.18,0,.35,0,.51-.03.24-.05.46-.13.67-.2l.24-.08c.36-.11.64-.2.8-.26.03-.02.06-.05.09-.07l.82-.55c.16-.11.33-.21.49-.3.12-.07.25-.14.36-.22.18-.12.37-.22.55-.32.11-.06.22-.11.31-.18.06-.04.15-.14.23-.23.13-.15.28-.32.49-.47.23-.17.46-.27.65-.35.09-.04.2-.09.24-.12.12-.09.22-.19.31-.29.14-.14.28-.28.42-.39.27-.21.51-.4.72-.57.27-.22.33-.28.39-.35.08-.09.16-.18.37-.36.39-.33.97-.29,1.3.1.33.39.29.97-.1,1.3-.12.1-.17.15-.21.2-.1.11-.19.21-.54.5-.26.21-.51.41-.79.63-.08.06-.16.14-.24.22-.16.16-.32.32-.51.47-.21.16-.42.25-.61.33-.12.05-.23.1-.29.15-.04.03-.12.12-.19.2-.14.16-.31.35-.54.52-.17.12-.35.22-.54.32-.11.06-.23.12-.34.19-.16.11-.33.21-.51.31-.12.07-.25.14-.36.22-.23.16-.48.32-.73.49l-.11.08c-.05.04-.14.12-.22.2-.14.14-.32.32-.55.47-.16.1-.33.2-.5.29-.13.07-.25.14-.38.22-.12.08-.23.16-.35.24-.16.11-.32.23-.49.34-.28.17-.57.35-.86.53-.16.1-.33.19-.51.28-.13.07-.26.14-.38.21-.17.1-.34.19-.52.27-.13.06-.26.13-.38.2-.1.06-.18.13-.27.21-.18.15-.36.29-.56.4-.19.1-.39.18-.59.26-.12.05-.24.09-.35.15-.12.07-.24.14-.36.21-.17.1-.34.21-.52.3-.12.06-.23.14-.35.21-.15.09-.29.19-.45.27l-.05.04c-.17.13-.3.24-.38.34-.15.21-.25.4-.32.58-.05.16-.05.36-.05.6,0,.11,0,.2,0,.3,0,.1-.01.25,0,.3.02.02.15.12.24.19.08.06.15.12.22.18.19.16.36.27.55.34l.23.09c.18.07.34.14.45.14.18-.01.42-.06.66-.12.02-.01.05-.02.07-.03.14-.07.28-.15.41-.23.15-.08.29-.17.44-.25.18-.09.36-.16.54-.23.12-.05.25-.09.36-.15.13-.07.25-.15.37-.23.15-.1.31-.2.46-.28.18-.1.36-.17.55-.25.12-.05.24-.09.35-.15.1-.05.18-.13.26-.2.17-.14.34-.28.53-.39.25-.15.51-.21.71-.26.08-.02.19-.05.23-.07.04-.02.13-.11.2-.18.14-.14.31-.31.55-.45.17-.1.34-.19.52-.27.12-.06.24-.11.35-.18.11-.07.21-.15.31-.23.15-.13.31-.25.47-.36.17-.11.36-.2.55-.29.11-.05.22-.1.32-.16.13-.08.24-.17.36-.26.14-.11.28-.22.43-.31.17-.12.36-.21.55-.3.11-.05.22-.1.31-.16.13-.09.27-.18.41-.27.14-.09.27-.18.4-.27.06-.04.14-.13.23-.22.16-.17.31-.32.49-.45.18-.13.39-.23.59-.32.1-.04.2-.08.28-.14.12-.09.23-.18.34-.28.14-.12.27-.24.42-.34l.37-.27c.14-.1.28-.2.42-.3.16-.12.33-.22.49-.32.11-.07.23-.14.33-.21.12-.09.23-.19.33-.29.14-.13.27-.25.4-.35.14-.11.26-.22.38-.32.12-.11.24-.21.36-.31.19-.15.39-.27.57-.38.09-.05.18-.1.25-.16.16-.13.18-.16.22-.21.09-.13.2-.28.44-.49.39-.33.97-.28,1.3.1.33.39.28.97-.1,1.3-.08.06-.08.08-.11.12-.11.16-.24.33-.58.61-.13.11-.29.21-.47.31-.12.07-.25.14-.37.24-.09.07-.19.16-.29.24-.15.13-.3.27-.47.4-.09.07-.18.16-.28.24-.15.14-.3.28-.47.41-.15.11-.31.21-.48.32-.12.07-.24.14-.35.23-.15.11-.3.22-.46.33l-.35.25c-.1.08-.2.16-.3.25-.15.13-.3.26-.47.38-.18.13-.38.23-.58.32-.1.05-.21.09-.3.15-.08.06-.14.13-.21.21-.13.14-.3.32-.52.48-.15.1-.3.2-.45.3l-.38.25c-.18.12-.36.21-.55.3-.11.05-.22.1-.32.17-.11.07-.22.16-.33.24-.15.12-.31.24-.48.35-.18.11-.37.21-.56.29-.11.05-.22.1-.32.16s-.2.15-.29.22c-.16.13-.33.27-.51.38-.17.11-.36.2-.54.28-.12.06-.24.11-.35.18-.04.03-.13.11-.2.18-.14.14-.32.32-.57.47-.26.15-.52.22-.73.27-.08.02-.2.05-.23.07-.09.05-.17.13-.25.2-.18.15-.36.3-.56.41-.18.1-.38.18-.57.26-.12.05-.23.09-.34.15-.12.07-.23.14-.35.21-.17.11-.33.21-.51.31-.19.1-.38.18-.58.25-.02,0-.05.02-.07.03-.07.11-.16.22-.28.3-.36.23-.72.32-1.02.39l-.14.04c-.09.04-.18.08-.27.12-.13.05-.25.11-.38.17-.1.05-.19.12-.29.18-.1.07-.2.12-.31.18,0,0-.02.02-.03.02-.2.18-.36.38-.5.58-.17.26-.28.48-.33.68-.05.18-.13.45-.11.53.01.04.06.14.33.42.14.14.33.27.55.39.07.04.24.07.39.09.11.02.22.04.33.06.16.03.31.09.47.15.09.03.23.09.28.09.04,0,.17-.05.25-.08.17-.06.35-.12.53-.15.13-.02.26-.04.39-.05.12-.01.22-.03.32-.05,0,0,.02-.01.03-.02.14-.06.27-.14.4-.22.16-.09.32-.18.48-.26.18-.09.37-.15.56-.22.13-.04.26-.09.38-.15.11-.05.19-.13.29-.2.18-.14.36-.27.55-.37.26-.14.52-.19.73-.23.09-.02.21-.04.25-.06.05-.03.15-.11.23-.19.15-.13.33-.3.57-.43.17-.1.35-.18.54-.25.13-.05.26-.11.38-.18.12-.07.22-.15.33-.23.16-.12.32-.24.5-.35.18-.11.37-.19.56-.27.12-.05.24-.1.35-.16.14-.08.26-.17.39-.26.15-.11.3-.21.45-.31.18-.11.37-.2.56-.28.12-.05.24-.1.34-.17.14-.09.28-.18.43-.26.15-.09.29-.17.43-.27.06-.04.15-.13.25-.22.16-.16.33-.32.52-.44.19-.12.39-.22.6-.31.1-.04.21-.08.3-.15.12-.08.24-.18.35-.27.15-.12.29-.23.44-.34l.38-.26c.15-.1.3-.2.45-.31.16-.11.33-.21.5-.31.12-.07.25-.14.36-.22.12-.09.24-.19.35-.28.14-.12.28-.25.43-.35.13-.1.26-.2.38-.31.13-.11.27-.22.4-.32.18-.13.36-.24.54-.34.11-.06.22-.12.31-.19.1-.08.18-.18.27-.27.15-.16.29-.31.45-.44.16-.13.33-.24.48-.34.12-.08.23-.16.34-.24.17-.13.33-.25.48-.36.12-.08.23-.16.32-.24l.17-.14q.27-.22.49-.41l.1-.08c.39-.33.97-.28,1.3.1.33.39.28.97-.1,1.3l-.1.08q-.24.2-.53.44l-.17.14c-.12.1-.26.2-.41.31-.13.09-.27.19-.41.31-.14.11-.29.21-.45.32-.12.08-.25.17-.38.27-.08.06-.15.14-.22.22-.16.17-.32.35-.52.49-.16.12-.34.23-.53.33-.11.06-.23.13-.34.21-.11.08-.22.17-.33.26-.15.13-.31.25-.47.37-.11.08-.21.17-.31.26-.15.14-.31.27-.48.39-.16.11-.33.22-.51.32-.12.07-.25.14-.36.22-.16.11-.32.22-.49.33l-.36.24c-.11.08-.22.17-.33.25-.16.13-.31.25-.48.37-.19.13-.39.22-.61.31-.11.05-.21.09-.31.15-.09.06-.16.14-.24.21-.14.14-.32.31-.54.46-.16.1-.32.2-.48.3l-.39.24c-.18.12-.38.21-.58.3-.12.05-.24.1-.34.17-.12.07-.23.16-.35.24-.17.12-.33.23-.51.34-.18.11-.38.2-.58.28-.12.05-.23.09-.34.16-.11.06-.21.14-.31.22-.17.13-.34.26-.53.37-.18.1-.37.19-.57.27-.12.05-.25.1-.37.17-.05.03-.15.11-.23.19-.15.14-.35.31-.6.45-.27.14-.54.2-.75.25-.09.02-.22.05-.25.06-.1.05-.19.13-.28.19-.14.11-.29.2-.44.29-.03.03-.04.07-.08.1l-.2.17c-.21.18-.39.33-.5.48-.21.28-.35.53-.43.76-.06.19-.07.37,0,.56.05.17.13.29.25.4.16.15.36.27.58.36l.25.11c.18.08.34.16.47.18.15.02.36,0,.59,0h.23c.26-.03.54-.07.83-.13.09-.02.23-.09.37-.16.13-.06.26-.13.4-.19.09-.04.19-.05.29-.06.03-.02.05-.03.08-.05.15-.09.3-.18.46-.26.19-.1.38-.17.58-.23.04-.01.07-.03.11-.04.04-.06.08-.11.13-.17.21-.21.49-.29.76-.26.07-.03.14-.07.2-.1.06-.03.16-.11.25-.19.14-.12.32-.27.54-.4.19-.11.4-.18.61-.25.1-.03.2-.06.3-.11.13-.07.24-.15.36-.24.15-.1.3-.2.45-.29l.39-.22c.15-.09.31-.17.45-.26.16-.1.34-.18.51-.26.12-.06.24-.11.36-.18.12-.07.24-.16.35-.25.15-.11.3-.22.45-.32.14-.08.26-.18.39-.27.14-.1.28-.2.41-.28.18-.11.36-.2.55-.29.11-.05.22-.1.32-.16.1-.06.18-.15.26-.23.16-.15.31-.3.48-.41.15-.1.31-.2.47-.29.12-.07.24-.14.36-.22.15-.1.3-.19.44-.28.13-.08.25-.15.37-.24.28-.2.54-.39.78-.56.14-.1.27-.21.39-.31.12-.1.24-.2.36-.29.17-.13.33-.24.49-.34.11-.07.21-.14.3-.21.15-.12.17-.14.19-.18.09-.14.2-.3.46-.52.39-.33.97-.28,1.3.11.33.39.28.97-.11,1.3-.03.03-.05.04-.07.06-.13.21-.26.39-.64.68-.12.1-.27.19-.43.3-.12.08-.26.17-.39.27-.09.07-.19.15-.29.23-.15.13-.31.26-.49.39-.25.18-.52.38-.8.58-.14.1-.3.2-.46.3-.12.07-.25.15-.37.24-.15.1-.31.2-.48.29-.12.07-.25.14-.37.22-.09.06-.16.13-.23.21-.16.16-.33.32-.53.44-.17.11-.36.2-.55.29-.11.05-.23.1-.33.17-.11.07-.22.15-.34.23-.16.11-.32.22-.48.33-.11.07-.21.15-.32.23-.16.12-.32.24-.5.35-.17.1-.34.19-.52.27-.12.06-.24.11-.36.18-.16.1-.33.19-.49.28l-.37.21c-.11.06-.22.14-.33.21-.16.11-.33.23-.5.32-.19.11-.4.19-.62.26-.1.03-.21.06-.3.12-.06.03-.15.11-.24.19-.15.13-.34.29-.57.41-.16.09-.32.17-.49.25l-.16.08c-.08.13-.16.26-.26.4-.16.22-.29.43-.39.64-.09.18-.14.37-.18.61-.04.24-.07.41-.05.47.05.17.15.34.29.48.13.13.37.26.6.39.17.09.35.17.53.24.29-.12.55-.29.84-.41.3-.12.67-.13.97-.25.3-.13.65-.17.95-.3.3-.13.5-.45.8-.59.3-.14.65-.16.95-.31.29-.14.62-.23.91-.38.29-.14.52-.41.81-.56.29-.15.67-.15.96-.3.29-.15.51-.41.8-.57.29-.16.48-.46.76-.62.28-.16.57-.31.85-.47.28-.16.6-.28.88-.44.28-.17.66-.2.93-.37.28-.17.5-.42.77-.6.27-.18.44-.5.71-.67.27-.18.66-.2.93-.38.26-.18.55-.31.81-.49.02-.01.03-.03.05-.04.25-.19.4-.5.66-.69.15-.11.36-.16.56-.21.19-.15.34-.24.46-.3.04-.02.07-.04.11-.08.13-.21.21-.47.39-.61.26-.2.73-.15.99-.35.26-.2.38-.54.64-.74.25-.2.63-.27.88-.47.25-.2.46-.45.7-.66.25-.21.42-.49.67-.7.24-.21.56-.35.8-.56.24-.21.51-.4.75-.61.24-.22.24-.66.48-.88.24-.22.68-.25.91-.47.23-.22.33-.56.57-.79.23-.22.37-.52.6-.75.23-.23.63-.3.86-.53.22-.23.5-.41.73-.64.22-.23.21-.66.42-.89.22-.23.56-.37.77-.61.21-.24.47-.45.68-.69.21-.24.44-.47.65-.71.21-.24.45-.46.66-.71.21-.24.4-.5.6-.75.2-.25.39-.5.59-.75.2-.25.45-.47.64-.72.2-.25.27-.59.46-.84.19-.25.52-.42.71-.68.19-.26.27-.6.45-.86.19-.26.51-.44.7-.7.19-.26.15-.66.34-.92.18-.27.28-.58.46-.84.18-.27.48-.47.65-.74.17-.27.47-.48.64-.75.17-.27.3-.57.47-.84.17-.28.38-.53.54-.8.16-.28.19-.63.34-.91.16-.28.19-.62.34-.9.15-.28.6-.43.74-.71.15-.28.25-.59.4-.87.15-.29.17-.62.31-.91.14-.29.41-.52.54-.81.14-.29.32-.56.46-.85.13-.29.12-.64.24-.93.13-.29.43-.52.55-.82.12-.3.08-.65.2-.94.12-.3.32-.57.43-.86.11-.3,0-.67.1-.97.11-.3.46-.52.57-.82.1-.3.09-.64.19-.94.1-.3.33-.57.41-.87.09-.31-.14-.69-.06-.99.08-.31.21-.6.29-.9.08-.31.4-.56.47-.87.07-.31.14-.62.2-.93.07-.31-.11-.66-.05-.97.06-.31.15-.61.2-.92.05-.31.37-.59.42-.9.05-.31.1-.63.14-.94.04-.31-.19-.65-.16-.97.03-.31.05-.63.08-.94.02-.32-.05-.63-.03-.94.02-.32.02-.63.03-.94,0-.32.36-.62.36-.94Z"/>
              <path class="cls-4" d="m61.44,61.17c.09.09.18.18.25.23.15.1.31.2.47.3l.38.24c.12.08.25.14.38.21.16.09.33.17.49.27.13.08.26.15.4.22.16.08.31.17.46.26.12.07.24.14.36.21.05-.01.1-.03.15-.03.38-.05.79-.11,1.22-.27.08-.03.16-.05.24-.08.28-.09.64-.19,1.04-.5.21-.15.53-.39.79-.72.36-.45.39-.98.41-1.41.03-.58-.11-1.07-.46-1.54l-.09-.13c-.16-.24-.39-.56-.74-.86-.18-.15-.39-.27-.62-.39-.11-.06-.24-.13-.36-.21-.19-.13-.4-.25-.62-.38l-.32-.19c-.1-.06-.19-.13-.28-.21-.18-.15-.38-.29-.6-.42-.15-.08-.3-.16-.46-.25-.14-.07-.29-.15-.44-.24-.16-.09-.32-.19-.49-.3l-.35-.22c-.16-.1-.35-.18-.55-.26-.14-.05-.27-.1-.36-.16-.11-.07-.21-.16-.31-.26-.15-.13-.3-.26-.47-.38-.11-.08-.21-.18-.32-.28-.14-.12-.28-.25-.44-.38-.13-.1-.26-.21-.39-.33-.12-.11-.25-.21-.38-.32-.17-.13-.36-.24-.57-.35-.13-.07-.24-.13-.32-.19-.39-.33-.97-.28-1.3.11-.33.39-.28.97.11,1.3.22.19.46.31.64.41.09.05.19.09.26.15.12.1.23.19.34.29.16.14.31.27.47.39.12.09.23.19.34.29.16.14.31.28.47.39.12.09.23.19.34.28.17.15.33.28.49.39.26.18.52.28.73.36.09.03.17.06.25.11l.33.21c.21.13.4.25.58.35.17.09.33.18.48.26.14.08.28.15.41.22.13.08.25.17.36.26.16.12.31.24.47.34l.34.2c.19.11.36.21.52.32.17.11.34.21.5.3.12.07.24.12.33.2.16.13.28.3.4.48l.11.16c.1.14.12.22.11.39,0,.12-.02.31-.01.33-.11.14-.3.28-.53.45-.07.06-.24.11-.4.15-.12.04-.24.07-.35.11-.23.09-.48.13-.79.17-.17.02-.35.06-.52.1-.13.03-.28.07-.36.07-.25-.02-.5-.07-.73-.12l-.19-.04c-.34-.07-.65-.15-.91-.24-.26-.08-.47-.2-.62-.29-.1-.06-.18-.1-.23-.12-.12-.06-.25-.08-.37-.07l.3.2c.18.12.34.28.51.44Z"/>
              <path class="cls-4" d="m67.36,72.35c-.28,0-.59-.03-.93-.13l-.19-.05s-.07-.02-.11-.03c.09.05.19.11.28.17.18.12.36.23.55.32.12.06.25.12.37.19.15.08.31.16.47.23-.09-.14-.17-.24-.2-.28-.12-.12-.19-.26-.23-.41Z"/>
              <path class="cls-4" d="m64.94,70.5c.27-.43.84-.56,1.27-.28.1.07.28.11.46.16l.13.03c-.26-.13-.52-.26-.78-.39-.14-.07-.28-.15-.42-.24-.14-.08-.29-.17-.44-.25-.23-.12-.46-.19-.65-.24-.11-.03-.23-.06-.28-.09-.15-.08-.3-.17-.44-.26-.13-.08-.27-.16-.4-.24-.1-.05-.18-.13-.26-.2-.17-.14-.34-.28-.53-.39-.15-.08-.29-.18-.43-.27-.13-.08-.26-.17-.4-.25-.23-.13-.45-.21-.64-.27-.1-.03-.22-.07-.27-.1-.13-.08-.26-.17-.38-.26-.14-.1-.29-.2-.43-.29-.11-.07-.2-.15-.3-.23-.16-.13-.31-.26-.48-.36-.17-.11-.36-.2-.55-.29-.11-.05-.22-.1-.32-.16-.14-.09-.28-.17-.41-.26-.14-.09-.28-.17-.41-.26-.1-.07-.19-.15-.28-.24-.15-.14-.31-.28-.47-.39l-.81-.54c-.14-.09-.27-.19-.4-.29-.13-.1-.26-.2-.39-.29-.21-.15-.43-.25-.61-.32-.11-.05-.22-.09-.27-.13-.11-.08-.21-.18-.31-.27-.14-.13-.28-.26-.43-.37-.12-.09-.23-.19-.33-.28-.14-.12-.27-.24-.41-.35-.14-.1-.26-.21-.39-.31-.13-.1-.25-.21-.38-.3-.22-.17-.44-.27-.62-.36-.09-.04-.2-.09-.24-.12-.06-.05-.14-.14-.22-.25-.12-.15-.26-.32-.45-.48-.2-.16-.41-.28-.61-.39-.08-.05-.16-.08-.22-.13-.24-.19-.3-.26-.37-.32-.07-.07-.15-.15-.34-.31-.39-.33-.97-.28-1.3.11-.33.39-.28.97.11,1.3.13.11.19.17.24.22.1.1.19.18.51.44.14.11.31.21.5.32.11.06.23.12.35.21.03.03.1.12.16.18.13.16.3.37.53.55.2.15.4.25.58.34.12.05.23.11.29.15.11.08.21.17.32.26.15.12.3.24.45.36.1.07.2.16.29.25.15.13.3.27.47.39.1.07.19.16.28.24.15.14.31.28.48.4.21.15.43.25.61.32.11.05.22.1.28.14.11.08.23.17.34.25.15.11.3.23.46.34l.82.55c.09.06.18.14.26.22.16.15.32.29.5.41.15.1.31.2.47.3.12.08.25.15.37.23.18.11.37.21.56.3.11.05.22.1.33.17.1.06.19.14.29.22.16.14.33.27.51.38.12.07.23.15.35.24.16.11.32.22.48.32.23.14.46.22.65.28.11.04.22.07.28.11l.36.22c.16.1.33.21.49.3.09.05.17.13.26.2.18.15.35.29.55.4l.36.21c.17.1.33.2.51.29.24.13.48.2.67.25.11.03.23.06.28.09.12.07.24.14.36.21.1.06.21.12.31.17-.22-.3-.25-.71-.04-1.04Z"/>
              <path class="cls-4" d="m63.27,74.93c.21.18.43.38.63.59.19-.13.43-.17.67-.11-.18-.07-.36-.11-.5-.15-.12-.03-.25-.06-.31-.09-.16-.08-.32-.16-.48-.25l-.06-.03-.59.69.65-.66Z"/>
              <path class="cls-4" d="m62.62,75.59l.59-.69-.35-.18c-.11-.05-.2-.13-.29-.2-.18-.13-.36-.27-.55-.37-.16-.08-.31-.17-.46-.26-.14-.08-.27-.16-.41-.23-.23-.12-.47-.19-.65-.25-.12-.03-.24-.07-.3-.1-.14-.08-.27-.17-.41-.25-.15-.1-.3-.19-.45-.28-.11-.07-.22-.15-.32-.23-.16-.12-.33-.25-.5-.35-.18-.11-.37-.19-.56-.27-.12-.05-.24-.1-.35-.16-.14-.09-.28-.17-.43-.25-.15-.08-.3-.17-.45-.26-.11-.07-.21-.16-.31-.24-.16-.14-.32-.27-.49-.38l-.36-.23c-.17-.1-.33-.2-.49-.31-.14-.09-.28-.19-.41-.28-.14-.1-.27-.19-.41-.29-.19-.13-.41-.22-.62-.31-.11-.05-.23-.09-.29-.13-.12-.08-.22-.17-.33-.26-.15-.13-.3-.25-.46-.36-.12-.08-.24-.18-.35-.28-.15-.12-.29-.24-.44-.35-.14-.1-.27-.2-.4-.3-.13-.1-.27-.21-.4-.3-.22-.16-.44-.26-.63-.34-.11-.05-.22-.1-.27-.14-.06-.04-.14-.14-.22-.23-.13-.15-.28-.33-.49-.49-.18-.14-.38-.24-.58-.35-.1-.05-.2-.1-.29-.17-.14-.11-.27-.22-.39-.32-.13-.11-.25-.22-.38-.31-.15-.12-.29-.23-.42-.35-.12-.1-.24-.2-.35-.29-.15-.12-.29-.23-.43-.33-.13-.1-.25-.19-.36-.28-.29-.24-.41-.32-.52-.39-.07-.05-.13-.09-.27-.21-.39-.33-.97-.28-1.3.11-.33.39-.28.97.11,1.3.24.2.33.26.44.34.08.05.17.11.38.29.12.1.26.21.42.32l.4.3c.1.08.2.16.3.25.15.13.31.26.48.4.1.08.2.17.31.26.15.13.31.27.48.39.17.13.36.23.56.34.11.06.22.11.32.18.05.03.13.13.2.21.14.16.3.35.53.52.21.15.43.25.61.33.12.05.23.1.3.15.12.08.23.17.35.26.15.12.31.23.47.35.11.08.21.17.32.25.16.13.31.26.48.38.11.07.2.16.31.25.16.14.32.27.49.39.22.15.45.24.63.31.1.04.21.08.3.14.12.08.24.17.36.25.16.11.31.22.48.33.17.11.35.22.52.33l.35.21c.1.07.2.15.29.23.17.14.34.28.53.4.17.1.33.2.51.3.13.07.26.15.38.22.18.11.38.2.58.28.12.05.23.1.34.16.11.06.21.14.31.22.17.13.34.26.53.37.12.07.25.15.37.23.17.11.33.21.51.31.24.13.48.2.68.26.12.03.24.07.3.1l.37.21c.18.1.35.2.53.29.1.05.19.13.29.2.19.14.38.28.58.38l.18.1c-.05-.04-.1-.09-.15-.13l.55-.74Z"/>
              <path class="cls-4" d="m56.09,78.14c.33-.33.85-.35,1.21-.07.2.13.57.38.88.81.03.05.06.1.09.14.2-.13.44-.17.68-.12-.08-.04-.16-.08-.24-.11-.15-.07-.3-.14-.44-.21-.11-.06-.21-.13-.31-.21-.17-.12-.33-.24-.52-.33l-.35-.18c-.17-.09-.34-.17-.51-.26-.15-.08-.29-.16-.43-.25-.14-.08-.28-.16-.41-.24-.23-.13-.46-.2-.64-.25-.11-.03-.23-.07-.28-.1-.12-.07-.22-.15-.33-.23-.16-.11-.31-.23-.47-.32-.12-.07-.24-.15-.35-.24-.15-.11-.3-.21-.46-.31-.14-.08-.27-.17-.41-.26-.14-.09-.27-.18-.41-.26-.23-.14-.46-.22-.64-.28-.1-.04-.22-.08-.27-.11-.05-.03-.14-.12-.22-.2-.13-.14-.3-.31-.52-.45-.18-.12-.39-.21-.58-.29-.1-.04-.2-.08-.29-.14-.13-.09-.26-.18-.38-.27-.14-.1-.27-.2-.41-.29-.15-.1-.28-.2-.42-.3-.12-.09-.25-.18-.37-.27l-.39-.26c-.14-.09-.28-.18-.41-.28-.15-.11-.3-.2-.45-.29-.12-.08-.24-.15-.35-.23-.16-.12-.33-.22-.48-.32-.11-.07-.22-.14-.32-.21l-.33-.25c-.16-.12-.31-.23-.44-.33-.15-.12-.17-.15-.2-.19-.09-.14-.2-.29-.45-.5-.39-.33-.97-.28-1.3.11-.33.39-.28.97.11,1.3.07.05.07.06.1.1.11.17.25.35.61.64.14.11.3.23.48.36l.32.24c.14.1.29.2.45.3.12.07.25.15.37.25.14.1.3.2.46.3.12.08.25.15.37.24.15.11.3.21.46.31l.36.24c.11.07.21.15.32.23.16.12.32.23.49.35.11.07.22.15.33.24.15.11.31.23.48.34.18.12.38.21.58.29.11.04.21.09.31.15.04.03.13.11.2.18.14.15.32.33.56.47.22.14.45.22.64.28.11.04.23.08.29.12.12.07.24.15.35.23.16.1.32.21.48.31.11.07.22.14.32.22.16.12.33.23.5.33.11.06.21.14.31.21.17.12.33.24.51.34.23.13.46.2.64.26.11.03.23.07.29.11.12.07.24.14.36.21.16.1.33.2.5.28.11.06.23.12.34.18-.32-.37-.3-.91.05-1.26Z"/>
              <path class="cls-4" d="m65.18,71.66c-.07-.04-.14-.08-.2-.11.06.09.14.17.24.23.32.2.63.29.9.36-.01,0-.03-.02-.04-.02-.3-.15-.6-.3-.9-.45Z"/>
              <path class="cls-4" d="m67.41,70.76c.11.07.21.14.33.2.14.07.28.14.42.21.03.02.07.03.1.05.24,0,.48.1.66.27.09.09.25.31.42.55.28-.14.56-.3.81-.51.41-.35.7-.72.88-1.12.19-.41.16-.81.15-1.11,0-.07,0-.14,0-.32,0-.31,0-.69-.17-1.2-.1-.3-.23-.67-.48-1.01-.28-.39-.54-.67-.82-.9-.05-.04-.1-.07-.15-.1-.2-.1-.43-.17-.66-.24-.12-.03-.25-.07-.31-.1-.06-.03-.15-.11-.24-.19-.15-.13-.33-.29-.56-.42-.19-.1-.4-.18-.6-.25-.11-.04-.22-.07-.32-.13-.14-.08-.28-.17-.41-.25-.15-.09-.29-.19-.44-.27-.15-.09-.29-.18-.44-.27-.14-.09-.27-.17-.41-.26l-.41-.24s-.06-.03-.09-.05c-.05.01-.1.02-.15.03-.22.05-.49.12-.79.12-.04,0-.08,0-.12,0-.34-.02-.68-.09-.99-.15l-.17-.04c-.41-.08-.79-.19-1.11-.29-.46-.14-.8-.34-.98-.45-.47-.21-.71-.77-.5-1.24.15-.34.47-.55.81-.56l-.52-.35c-.18-.13-.38-.22-.58-.32-.11-.05-.21-.1-.3-.16-.14-.1-.27-.2-.39-.3-.13-.11-.27-.21-.4-.3-.15-.11-.31-.21-.46-.31-.13-.08-.25-.16-.37-.25-.12-.09-.22-.19-.32-.28-.14-.13-.28-.26-.43-.37-.16-.12-.33-.23-.48-.33-.12-.08-.23-.15-.33-.23-.13-.1-.24-.22-.34-.32-.13-.13-.25-.25-.38-.35-.34-.27-.53-.36-.74-.45-.02-.01-.05-.04-.09-.07-.39-.33-.97-.29-1.3.1-.33.39-.29.97.1,1.3.27.23.44.31.61.38.06.03.1.04.26.17.07.06.14.13.21.21.16.16.33.33.53.49.14.11.3.21.46.32.12.08.25.16.38.26.09.07.18.15.26.24.16.15.32.3.5.43.15.11.3.21.46.31.13.08.25.16.38.26.11.08.22.17.33.25.15.12.31.24.48.36.17.12.37.22.57.32.11.05.22.1.33.17.16.11.33.22.5.33l.34.23c.09.06.16.14.23.21.14.14.32.32.54.46.17.11.34.21.51.32l.36.22c.16.1.34.2.51.29.13.07.25.13.38.21.16.1.33.19.51.29.13.07.25.13.38.21.16.1.33.19.5.29l.38.21c.12.07.24.15.36.23.17.1.33.21.5.31.12.07.25.15.37.23.17.11.33.21.51.31.19.11.41.19.62.26.11.04.22.07.33.13.05.03.14.11.23.18.15.14.35.3.59.43.24.13.47.19.67.25.08.02.16.04.24.07.12.11.25.27.4.47.09.13.16.32.26.63.04.12.04.29.04.49v.13c0,.11,0,.21.01.32,0,.09.01.22.01.24-.06.14-.2.31-.39.47-.18.15-.39.28-.6.35-.09.03-.28.03-.47.03h-.25c-.3,0-.51,0-.71-.06l-.12-.03s.06.03.09.05c.18.09.34.19.51.3Z"/>
              <path class="cls-4" d="m59.82,61.09c-.21.46.03,1.03.5,1.24.18.11.53.3.98.45.32.1.7.21,1.11.29l.17.04c.32.07.65.13.99.15.04,0,.08,0,.12,0,.3,0,.57-.07.79-.12.05-.01.1-.02.15-.03-.12-.07-.24-.14-.36-.21-.15-.09-.31-.18-.46-.26-.14-.07-.27-.14-.4-.22-.16-.1-.32-.19-.49-.27-.13-.07-.26-.14-.38-.21l-.38-.24c-.16-.1-.32-.2-.47-.3-.07-.04-.16-.13-.25-.23-.16-.16-.32-.31-.51-.44l-.3-.2c-.34,0-.66.22-.81.56Z"/>
              <path class="cls-4" d="m66.42,72.22c.34.1.66.12.93.13-.08-.29,0-.62.23-.86.18-.19.43-.27.68-.26-.03-.02-.07-.03-.1-.05-.14-.07-.28-.14-.42-.21-.12-.05-.22-.13-.33-.2-.17-.11-.34-.22-.51-.3-.03-.02-.06-.03-.09-.05l-.13-.03c-.19-.05-.36-.09-.46-.16-.43-.28-1-.15-1.27.28-.21.33-.18.74.04,1.04.07.04.13.08.2.11.3.15.6.3.9.45.01,0,.03.02.04.02.03,0,.08.02.11.03l.19.05Z"/>
              <path class="cls-4" d="m65.18,76.7c-.09.19-.23.33-.41.42l.02.05c.03.08.05.17.08.26.07.02.14.04.22.06.39.07.73.07,1.13.07h.26c.1,0,.2.01.3.01.19,0,.39-.01.6-.06.41-.09.75-.26,1.11-.44l.17-.08c.29-.14.62-.3.91-.59.38-.39.5-.85.58-1.15l.09-.29c.11-.35.26-.82.11-1.35-.12-.41-.37-.72-.56-.93-.05-.06-.11-.12-.15-.19-.09-.15-.2-.3-.3-.45-.07.03-.13.06-.2.09.02.16.01.33-.06.49-.16.34-.49.54-.84.54-.13,0-.26-.03-.38-.08-.02-.01-.05-.02-.07-.03.09.13.19.28.3.46.08.12.18.25.28.37.07.08.17.21.19.21,0,.06-.05.22-.09.32l-.11.38c-.03.12-.08.29-.11.33-.06.06-.24.15-.39.22l-.29.14c-.21.11-.4.2-.58.24-.1.02-.27.02-.44,0-.11,0-.22,0-.44,0-.26,0-.47,0-.68-.04-.2-.04-.43-.12-.77-.25-.03-.01-.07,0-.1-.02.05.02.11.03.16.06.46.21.67.76.45,1.22Z"/>
              <path class="cls-4" d="m68.24,73.16c.35,0,.69-.2.84-.54.07-.16.08-.33.06-.49-.05.02-.1.05-.16.07-.39.14-.78.14-1.09.15h-.2c-.06,0-.13,0-.2,0-.04,0-.09,0-.13,0,.04.15.1.29.23.41.04.05.11.15.2.28.02.01.05.02.07.03.12.06.25.08.38.08Z"/>
              <path class="cls-4" d="m63.9,75.53c.1.11.2.21.29.33.31.41.45.85.56,1.19l.02.07c.17-.09.32-.23.41-.42.21-.46.01-1.01-.45-1.22-.06-.03-.11-.04-.16-.06-.24-.06-.47-.01-.67.11Z"/>
              <path class="cls-4" d="m68.26,71.22c.12.06.24.12.36.18.3.14.48.42.52.73.07-.03.13-.06.2-.09-.17-.24-.33-.46-.42-.55-.18-.17-.42-.26-.66-.27Z"/>
              <path class="cls-4" d="m68.62,71.4c-.12-.05-.24-.12-.36-.18-.25,0-.5.08-.68.26-.23.24-.31.57-.23.86.04,0,.09,0,.13,0,.07,0,.14,0,.2,0h.2c.31,0,.7,0,1.09-.15.05-.02.1-.05.16-.07-.04-.31-.21-.59-.52-.73Z"/>
              <path class="cls-4" d="m59.56,80.25c-.12.25-.34.41-.59.48,0,.03.01.06.02.09v.02c.11.03.22.05.32.07l.2.04c.1.02.19.05.28.08.25.07.53.15.85.17.04,0,.07,0,.1,0,.32,0,.6-.07.82-.13.08-.02.16-.04.25-.06.09-.02.18,0,.27,0,.27,0,.6.01.95-.14.41-.18.68-.46.87-.68.05-.05.1-.11.14-.15.29-.26.7-.63.87-1.18.16-.53.06-1.03-.06-1.42-.27-.07-.53-.16-.77-.25,0,0-.01,0-.02-.01-.04-.01-.09,0-.13-.03-.06-.03-.18-.06-.3-.08-.2-.05-.45-.1-.7-.22-.18-.09-.37-.19-.55-.28l-.19-.1c.19.17.38.33.49.49.12.17.2.41.28.66l.04.14c.04.13.16.47.13.56-.03.08-.25.27-.34.35-.09.08-.18.17-.26.27-.07.08-.19.21-.2.22-.04,0-.15,0-.24,0-.19,0-.4,0-.59.03-.14.02-.28.06-.43.1-.15.04-.28.07-.36.07-.11,0-.26-.05-.43-.1-.12-.04-.25-.07-.38-.1l-.24-.05c-.19-.04-.39-.08-.58-.16-.05-.02-.11-.02-.16-.03.07.03.14.06.2.1.46.23.64.78.41,1.24Z"/>
              <path class="cls-4" d="m62.95,76.84c.25.12.5.18.7.22.12.03.24.05.3.08.04.02.09.02.13.03-.47-.19-.74-.72-.56-1.19.08-.2.22-.35.38-.46-.2-.21-.41-.41-.63-.59l-.65.66-.55.74c.05.04.1.09.15.13l.19.1c.18.1.37.19.55.28Z"/>
              <path class="cls-4" d="m58.27,79.03c.19.29.35.59.46.81.15.31.2.62.24.88.25-.07.47-.23.59-.48.23-.46.04-1.01-.41-1.24-.07-.03-.13-.06-.2-.1-.24-.05-.48,0-.68.12Z"/>
              <path class="cls-4" d="m64.77,77.12c-.13.07-.28.12-.43.12-.09,0-.17-.03-.26-.06,0,0,.01,0,.02.01.24.09.5.18.77.25-.03-.09-.06-.18-.08-.26l-.02-.05Z"/>
              <path class="cls-4" d="m64.77,77.12l-.02-.07c-.11-.35-.25-.78-.56-1.19-.09-.12-.19-.22-.29-.33-.16.11-.3.26-.38.46-.18.47.1,1.01.56,1.19.09.03.17.06.26.06.15,0,.3-.04.43-.12Z"/>
              <path class="cls-4" d="m58.24,83.43c.26-.27.59-.6.74-1.08.15-.49.1-.95.03-1.34l-.02-.17c-.09-.02-.19-.05-.28-.08-.13,0-.26-.03-.38-.09-.13-.07-.26-.13-.39-.19-.17-.08-.34-.16-.51-.25-.19-.1-.37-.22-.55-.35-.1-.07-.19-.14-.29-.19l-.33-.17c-.07-.03-.14-.07-.2-.11.01.01.02.03.03.05l.23.18c.1.06.26.17.38.34.12.17.26.41.39.68.04.08.07.27.09.43l.03.23c.03.19.06.39.03.49-.03.07-.19.23-.29.34l-.21.22c-.15.15-.27.29-.4.36-.09.05-.25.09-.42.13.27.14.47.42.75.53.31.11.63.2.94.31.1.04.2.07.31.11.05-.06.12-.11.17-.16l.18-.18Z"/>
              <path class="cls-4" d="m56.58,79.68c.1.05.2.13.29.19.18.13.36.25.55.35.17.09.34.17.51.25.13.06.26.12.39.19.12.06.25.09.38.09-.1-.03-.2-.06-.3-.1-.47-.19-.7-.73-.5-1.2.08-.18.21-.32.37-.41-.03-.05-.06-.1-.09-.14-.31-.43-.68-.68-.88-.81-.36-.28-.88-.26-1.21.07-.35.34-.36.89-.05,1.26.07.04.13.07.2.11l.33.17Z"/>
              <path class="cls-4" d="m58.97,80.72c-.08.02-.15.03-.23.03-.01,0-.02,0-.03,0,.1.03.19.06.28.08v-.02s-.01-.06-.02-.09Z"/>
              <path class="cls-4" d="m58.97,80.72c-.04-.26-.09-.57-.24-.88-.11-.22-.27-.52-.46-.81-.16.1-.29.23-.37.41-.19.47.03,1.01.5,1.2.1.04.2.07.3.1.01,0,.02,0,.03,0,.08,0,.16-.01.23-.03Z"/>
              <path class="cls-4" d="m83.46,62.95l.84-.52c.14-.09.27-.18.4-.27.14-.1.28-.2.42-.29.16-.1.32-.19.48-.28.13-.07.26-.14.38-.22.07-.04.15-.13.24-.22.12-.12.25-.25.42-.37-.16.06-.44.15-.8.26l-.24.08c-.2.07-.43.15-.67.2-.16.03-.33.03-.51.03-.14,0-.28,0-.42.01l-.24.02c-.24.02-.46.04-.65.01-.14-.02-.34-.09-.54-.18l-.25-.1c-.11-.04-.24-.08-.36-.12-.15-.05-.33-.1-.34-.1-.04-.05-.08-.12-.12-.19-.09-.15-.19-.31-.31-.46-.06-.07-.12-.14-.19-.21-.03-.03-.05-.05-.08-.08.03-.06.08-.16.2-.33l.1-.15c.13-.18.25-.36.41-.49.09-.08.21-.13.33-.2.16-.09.33-.18.5-.3.11-.08.23-.16.35-.25.15-.11.3-.23.48-.33.1-.06.22-.11.34-.16.2-.08.4-.17.59-.28.12-.07.26-.14.39-.21.16-.08.32-.16.5-.26.22-.12.39-.28.55-.41.09-.08.19-.17.31-.25.08-.05.17-.08.26-.12.2-.08.45-.19.71-.36.16-.11.32-.24.49-.38.11-.09.23-.19.35-.28l.23-.16c.2-.14.41-.3.63-.46.1-.08.2-.14.31-.22.18-.12.37-.25.55-.39.15-.12.3-.27.45-.41.11-.1.21-.21.33-.31.39-.33.44-.91.11-1.3-.33-.39-.91-.44-1.3-.11-.16.13-.3.27-.44.4-.11.1-.21.21-.32.29-.13.11-.27.19-.4.28-.15.1-.3.2-.43.3-.2.15-.39.29-.57.42l-.24.17c-.16.12-.3.24-.44.35-.12.1-.23.19-.35.27-.1.07-.23.12-.37.18-.19.08-.37.16-.52.25-.21.13-.39.29-.56.44-.08.07-.18.16-.22.18-.15.09-.3.16-.44.23-.16.08-.32.16-.47.25-.13.07-.26.12-.38.18-.21.09-.41.17-.59.28-.23.14-.43.28-.62.43-.1.07-.19.14-.28.2-.12.08-.24.14-.35.21-.23.13-.45.25-.63.4-.36.3-.59.62-.75.86l-.09.12c-.3.42-.61.93-.57,1.56.03.57.38.95.58,1.17l.1.11c.07.08.12.18.17.26.13.22.28.47.53.65.33.25.69.36.97.45.08.03.16.05.24.08l.21.08c.29.12.62.25,1.01.3.02,0,.05,0,.07,0,.03-.01.05-.03.08-.04.14-.07.28-.15.41-.23Z"/>
              <path class="cls-4" d="m81.03,70.4c.19-.05.37-.09.47-.16.43-.28,1-.15,1.27.28.2.31.18.69,0,.98.02,0,.05-.02.07-.03.2-.07.39-.15.58-.25.17-.09.34-.2.51-.31.11-.07.23-.15.35-.21.11-.06.23-.1.34-.15.2-.08.39-.16.57-.26.2-.11.38-.26.56-.41.08-.07.16-.14.25-.2.04-.02.15-.05.23-.07.21-.05.47-.11.73-.27.24-.14.42-.32.57-.47.07-.07.16-.16.2-.18.11-.07.23-.12.35-.18.18-.09.37-.18.54-.28.18-.11.34-.24.51-.38.1-.08.19-.16.29-.22s.21-.11.32-.16c.19-.09.39-.18.56-.29.17-.11.32-.23.48-.35.11-.08.22-.17.33-.24.1-.07.21-.12.32-.17.19-.09.38-.19.55-.3l.38-.25c.15-.1.3-.2.45-.3.22-.15.39-.33.52-.48.07-.07.13-.15.21-.21.09-.06.2-.11.3-.15.21-.09.41-.19.58-.32.17-.12.32-.25.47-.38.1-.09.2-.17.3-.25l.35-.25c.16-.11.31-.22.46-.33.11-.09.24-.16.35-.23.17-.1.33-.2.48-.32.17-.13.32-.27.47-.41.09-.09.18-.17.28-.24.17-.13.33-.27.47-.4.1-.09.19-.17.29-.24.12-.1.25-.17.37-.24.18-.1.33-.2.47-.31.34-.28.47-.45.58-.61.03-.05.04-.06.11-.12.39-.33.43-.91.1-1.3-.33-.39-.91-.43-1.3-.1-.25.21-.35.36-.44.49-.03.05-.06.08-.22.21-.07.06-.16.1-.25.16-.18.11-.38.23-.57.38-.12.09-.24.2-.36.31-.12.11-.24.22-.38.32-.14.11-.27.23-.4.35-.11.1-.21.2-.33.29-.1.08-.21.14-.33.21-.17.1-.33.21-.49.32-.14.1-.28.2-.42.3l-.37.27c-.14.1-.28.22-.42.34-.11.09-.22.19-.34.28-.08.06-.18.1-.28.14-.2.09-.41.19-.59.32-.18.13-.34.28-.49.45-.09.09-.17.18-.23.22-.13.09-.27.18-.4.27-.14.09-.28.18-.41.27-.1.07-.21.11-.31.16-.19.09-.38.18-.55.3-.15.1-.29.21-.43.31-.12.09-.23.18-.36.26-.1.07-.21.11-.32.16-.19.09-.37.18-.55.29-.17.11-.32.23-.47.36-.1.08-.2.17-.31.23-.11.07-.23.12-.35.18-.18.08-.35.17-.52.27-.23.14-.41.31-.55.45-.07.07-.16.16-.2.18-.04.02-.15.05-.23.07-.2.05-.46.11-.71.26-.19.11-.36.25-.53.39-.08.07-.16.15-.26.2-.11.06-.23.11-.35.15-.19.07-.37.15-.55.25-.16.09-.31.18-.46.28-.12.08-.25.16-.37.23-.11.06-.24.11-.36.15-.18.07-.37.14-.54.23-.15.08-.3.16-.44.25-.14.08-.27.16-.41.23-.02.01-.04.02-.07.03.02,0,.03,0,.05-.01l.25-.07Z"/>
              <path class="cls-4" d="m80.34,72.42c-.04.16-.11.32-.24.45,0,0,0,0,0,0,.1-.06.21-.11.31-.18.1-.07.19-.13.29-.18.13-.06.25-.11.38-.17.09-.04.18-.08.27-.12h-.05c-.3.1-.61.16-.94.19Z"/>
              <path class="cls-4" d="m83.81,75.58c.18-.18.36-.35.53-.49l.18-.15c.39-.33.97-.29,1.3.1.3.35.28.86-.02,1.2.15-.09.3-.18.44-.29.09-.07.18-.14.28-.19.04-.02.17-.05.25-.06.21-.04.48-.1.75-.25.25-.13.44-.31.6-.45.08-.07.18-.16.23-.19.12-.07.24-.12.37-.17.19-.08.39-.17.57-.27.19-.11.36-.24.53-.37.1-.08.2-.16.31-.22.11-.06.23-.11.34-.16.2-.09.4-.17.58-.28.18-.11.34-.22.51-.34.11-.08.23-.16.35-.24.11-.07.23-.12.34-.17.2-.09.4-.18.58-.3l.39-.24c.16-.1.32-.19.48-.3.23-.15.4-.32.54-.46.08-.08.15-.16.24-.21.1-.06.2-.1.31-.15.21-.09.42-.19.61-.31.17-.11.33-.24.48-.37.11-.09.21-.17.33-.25l.36-.24c.17-.11.33-.22.49-.33.12-.08.24-.15.36-.22.17-.1.35-.2.51-.32.17-.12.33-.26.48-.39.1-.09.2-.18.31-.26.17-.12.32-.25.47-.37.11-.09.22-.18.33-.26.11-.08.23-.14.34-.21.19-.1.37-.21.53-.33.19-.15.36-.32.52-.49.07-.08.14-.16.22-.22.13-.1.26-.19.38-.27.16-.11.31-.21.45-.32.14-.11.28-.21.41-.31.15-.11.29-.21.41-.31l.17-.14q.29-.23.53-.44l.1-.08c.39-.33.43-.91.1-1.3-.33-.39-.91-.43-1.3-.1l-.1.08q-.22.19-.49.41l-.17.14c-.1.08-.2.15-.32.24-.15.11-.32.23-.48.36-.1.08-.22.16-.34.24-.16.11-.32.22-.48.34-.16.12-.31.28-.45.44-.08.09-.17.19-.27.27-.1.07-.2.13-.31.19-.18.1-.37.21-.54.34-.13.1-.27.21-.4.32-.12.1-.25.21-.38.31-.15.11-.29.23-.43.35-.11.1-.22.2-.35.28-.11.08-.23.15-.36.22-.17.1-.34.2-.5.31-.15.1-.3.2-.45.31l-.38.26c-.15.1-.3.22-.44.34-.11.09-.23.19-.35.27-.09.06-.2.1-.3.15-.21.09-.41.18-.6.31-.18.12-.35.28-.52.44-.09.09-.18.18-.25.22-.14.09-.29.18-.43.27-.14.09-.29.17-.43.26-.11.07-.23.12-.34.17-.19.09-.38.17-.56.28-.15.09-.3.2-.45.31-.12.09-.25.18-.39.26-.11.07-.23.11-.35.16-.19.08-.38.16-.56.27-.17.1-.33.22-.5.35-.11.08-.21.17-.33.23-.12.07-.25.12-.38.18-.18.08-.36.16-.54.25-.24.13-.42.3-.57.43-.08.08-.18.16-.23.19-.04.02-.17.05-.25.06-.21.04-.47.1-.73.23-.19.1-.37.23-.55.37-.09.07-.18.15-.29.2-.12.06-.25.1-.38.15-.19.07-.38.13-.56.22-.17.08-.32.17-.48.26-.13.08-.27.15-.4.22-.01,0-.02.01-.03.02.03,0,.07-.01.1-.02.25-.09.52-.06.74.05Z"/>
              <path class="cls-4" d="m91.64,79.23c-.07.14-.15.28-.24.43l.16-.08c.17-.08.33-.16.49-.25.24-.13.42-.28.57-.41.09-.07.18-.15.24-.19.1-.05.2-.08.3-.12.22-.07.43-.15.62-.26.17-.1.34-.21.5-.32.11-.07.22-.15.33-.21l.37-.21c.17-.09.33-.19.49-.28.12-.07.24-.13.36-.18.18-.09.36-.17.52-.27.17-.11.34-.23.5-.35.11-.08.21-.16.32-.23.17-.1.33-.22.48-.33.11-.08.22-.16.34-.23.11-.07.22-.12.33-.17.19-.09.38-.18.55-.29.19-.13.36-.28.53-.44.08-.07.15-.15.23-.21.12-.08.25-.15.37-.22.17-.1.33-.19.48-.29.12-.08.25-.16.37-.24.16-.1.32-.2.46-.3.29-.2.55-.4.8-.58.18-.13.34-.26.49-.39.1-.08.19-.16.29-.23.14-.1.27-.19.39-.27.16-.1.3-.2.43-.3.37-.29.5-.47.64-.68.02-.02.04-.04.07-.06.39-.33.44-.91.11-1.3-.33-.39-.91-.44-1.3-.11-.26.22-.37.38-.46.52-.02.04-.04.07-.19.18-.09.07-.19.13-.3.21-.15.1-.32.21-.49.34-.12.09-.24.19-.36.29-.12.1-.25.21-.39.31-.24.18-.5.36-.78.56-.12.08-.24.16-.37.24-.15.09-.3.18-.44.28-.11.08-.23.15-.36.22-.16.09-.32.18-.47.29-.17.11-.33.26-.48.41-.08.08-.16.16-.26.23-.1.06-.21.11-.32.16-.19.09-.37.18-.55.29-.14.09-.28.19-.41.28-.13.09-.25.18-.39.27-.15.1-.3.2-.45.32-.11.08-.23.17-.35.25-.11.07-.23.13-.36.18-.17.08-.34.17-.51.26-.15.09-.3.17-.45.26l-.39.22c-.15.09-.3.19-.45.29-.12.08-.24.16-.36.24-.09.05-.19.08-.3.11-.21.07-.42.15-.61.25-.22.12-.4.27-.54.4-.09.08-.19.16-.25.19-.07.04-.14.07-.2.1.2.02.39.09.55.24.32.32.37.81.12,1.18Z"/>
              <path class="cls-4" d="m89.58,79.08s.04-.07.07-.11c.15-.21.26-.42.32-.54.04-.07.07-.14.11-.2-.04.01-.07.03-.11.04-.2.07-.39.14-.58.23-.16.08-.31.17-.46.26-.03.02-.05.03-.08.05.27-.02.54.07.72.27Z"/>
              <path class="cls-4" d="m107.85,74.25c.14-.04.28-.09.39-.17.07-.05.13-.13.18-.21-.04.03-.07.05-.11.08-.12.06-.27.16-.46.3Z"/>
              <path class="cls-4" d="m106.64,75.15s-.03.03-.05.04c0,0,.02-.01.03-.02,0,0,.01-.02.02-.02Z"/>
              <path class="cls-4" d="m79.06,71.35c.11-.05.2-.12.3-.19.18-.12.35-.24.54-.33.15-.07.3-.14.45-.2.13-.05.25-.11.38-.17-.24.06-.48.11-.66.12-.11,0-.28-.07-.45-.14l-.23-.09c-.19-.07-.36-.17-.55-.34-.07-.06-.15-.12-.22-.18-.09-.07-.22-.17-.24-.19-.01-.05,0-.2,0-.3,0-.09,0-.19,0-.3,0-.24,0-.44.05-.6.06-.18.17-.37.32-.58.07-.1.21-.21.38-.34l.05-.04c.15-.08.3-.18.45-.27.11-.07.23-.15.35-.21.18-.09.35-.2.52-.3.12-.07.24-.15.36-.21.11-.06.23-.1.35-.15.2-.08.4-.16.59-.26.2-.11.38-.26.56-.4.09-.07.17-.15.27-.21.12-.07.25-.13.38-.2.18-.09.35-.18.52-.27.13-.07.26-.14.38-.21.17-.09.34-.18.51-.28.29-.18.58-.35.86-.53.17-.11.33-.22.49-.34.11-.08.23-.16.35-.24.12-.08.25-.15.38-.22.17-.09.34-.19.5-.29.23-.15.41-.33.55-.47.08-.08.17-.17.22-.2l.11-.08c.25-.17.49-.33.73-.49.12-.08.24-.15.36-.22.18-.1.35-.2.51-.31.11-.07.22-.13.34-.19.19-.1.38-.2.54-.32.24-.17.41-.36.54-.52.07-.07.15-.17.19-.2.06-.05.17-.09.29-.15.19-.08.4-.18.61-.33.19-.14.36-.31.51-.47.08-.08.15-.16.24-.22.28-.22.53-.42.79-.63.35-.28.45-.39.54-.5.04-.05.09-.1.21-.2.39-.33.43-.91.1-1.3-.33-.39-.92-.43-1.3-.1-.21.18-.29.27-.37.36-.06.07-.12.13-.39.35-.2.16-.44.36-.72.57-.14.11-.28.24-.42.39-.1.1-.19.2-.31.29-.04.03-.15.08-.24.12-.19.08-.42.18-.65.35-.2.15-.35.32-.49.47-.08.09-.17.19-.23.23-.1.07-.2.12-.31.18-.19.1-.37.2-.55.32-.11.08-.24.15-.36.22-.16.09-.33.19-.49.3l-.82.55s-.06.05-.09.07c.04-.01.08-.03.1-.04.47-.21,1.01,0,1.22.47.21.46,0,1.01-.46,1.22-.14.06-.55.21-1.09.38l-.21.07c-.27.09-.57.19-.89.26-.3.06-.59.06-.85.07-.11,0-.22,0-.33,0h-.21c-.18.03-.38.04-.59.04-.12,0-.24,0-.36-.02-.13.07-.26.14-.38.21-.13.08-.26.14-.4.21-.16.08-.33.16-.49.25-.19.11-.36.25-.53.39-.09.08-.18.16-.28.21-.11.06-.23.11-.35.15-.19.07-.39.15-.57.25-.15.08-.3.17-.44.26-.14.08-.27.17-.42.24-.17.09-.32.19-.48.29-.12.08-.25.16-.38.23-.05.03-.11.06-.15.1l-.11.09c-.24.19-.51.4-.74.72-.26.36-.44.71-.56,1.06-.16.45-.15.87-.15,1.22v.2c-.02.3-.03.7.15,1.11.2.44.54.71.79.9l.16.13c.26.22.52.38.79.51.09-.1.19-.2.29-.3.09-.12.2-.23.35-.29Z"/>
              <path class="cls-4" d="m82.13,71.81c-.17.1-.34.2-.52.28-.09.04-.18.08-.28.12l.14-.04c.29-.07.66-.17,1.02-.39.12-.08.21-.18.28-.3-.09.04-.19.07-.28.12-.12.06-.24.13-.36.2Z"/>
              <path class="cls-4" d="m83.91,63.21h.21c.11-.02.22-.02.33-.02.26,0,.55,0,.85-.07.32-.06.62-.16.89-.26l.21-.07c.54-.17.95-.31,1.09-.38.46-.21.67-.75.46-1.22-.21-.46-.75-.67-1.22-.47-.02.01-.06.02-.1.04-.16.12-.3.25-.42.37-.09.09-.18.18-.24.22-.12.08-.25.15-.38.22-.16.09-.32.18-.48.28-.14.09-.28.19-.42.29-.13.09-.26.19-.4.27l-.84.52c-.13.08-.27.15-.41.23-.03.01-.05.03-.08.04.12.01.24.02.36.02.21,0,.41-.01.59-.03Z"/>
              <path class="cls-4" d="m79.9,70.84c-.19.09-.37.21-.54.33-.1.07-.19.14-.3.19-.15.07-.26.17-.35.29.04-.04.07-.08.11-.11.37-.34.96-.33,1.31.04.22.24.28.55.21.84.33-.03.65-.1.94-.18h.05c.09-.05.19-.09.28-.14.18-.09.35-.19.52-.28.12-.07.24-.14.36-.2.09-.05.18-.08.28-.12.18-.29.2-.67,0-.98-.27-.43-.84-.56-1.27-.28-.1.07-.28.11-.47.16l-.25.07s-.03,0-.05.01c-.12.06-.25.11-.38.17-.15.06-.3.13-.45.2Z"/>
              <path class="cls-4" d="m82.86,77.12c-.13-.09-.24-.21-.31-.37-.21-.45-.02-.98.43-1.2-.09.02-.2.04-.32.05-.13.01-.26.03-.39.05-.18.03-.36.09-.53.15-.09.03-.22.07-.25.08-.05,0-.19-.05-.28-.09-.16-.06-.32-.11-.47-.15-.11-.02-.22-.04-.33-.06-.15-.03-.32-.05-.39-.09-.22-.11-.41-.24-.55-.39-.27-.27-.32-.38-.33-.42-.02-.08.06-.35.11-.53.06-.2.17-.42.33-.68.13-.21.3-.4.5-.58,0,0,.02-.02.03-.02-.09.05-.18.12-.27.16-.12.06-.25.08-.38.08-.35,0-.69-.2-.84-.54-.08-.18-.09-.38-.05-.56-.04-.02-.09-.04-.13-.06-.15.17-.28.34-.4.52-.27.41-.45.8-.57,1.21-.11.39-.26.93-.1,1.5.14.5.48.89.79,1.21.28.29.63.54,1.04.74.32.16.63.21.9.26l.25.05c.07.02.15.05.22.07.23.09.54.2.92.2h0c.34,0,.62-.1.85-.18.09-.03.18-.06.27-.08.05-.01.11-.02.17-.02.02-.1.04-.19.07-.29,0-.01.01-.02.01-.03Z"/>
              <path class="cls-4" d="m80.34,72.42c-.08,0-.16.03-.25.03-.03,0-.06,0-.08,0-.43-.01-.79-.15-1.07-.27l-.18-.07c-.07-.03-.13-.07-.2-.1-.04.18-.04.38.05.56.16.34.49.54.84.54.13,0,.26-.03.38-.08.1-.04.18-.11.27-.16,0,0,0,0,0,0,.13-.13.2-.28.24-.45Z"/>
              <path class="cls-4" d="m82.55,76.75c.07.15.18.28.31.37.14-.41.36-.81.68-1.24.08-.11.18-.21.27-.3-.22-.12-.49-.15-.74-.05-.03.01-.07.02-.1.02-.44.22-.63.75-.43,1.2Z"/>
              <path class="cls-4" d="m78.71,71.65c-.1.1-.2.2-.29.3.04.02.09.04.13.06.03-.13.08-.25.16-.36Z"/>
              <path class="cls-4" d="m78.93,72.17c.29.11.64.25,1.07.27.03,0,.06,0,.08,0,.09,0,.17-.02.25-.03.07-.29,0-.6-.21-.84-.35-.37-.93-.38-1.31-.04-.04.04-.07.07-.11.11-.08.11-.13.23-.16.36.07.03.13.07.2.1l.18.07Z"/>
              <path class="cls-4" d="m88.13,80.23c-.23-.46-.04-1.01.41-1.24.11-.05.21-.11.31-.18-.1,0-.19.02-.29.06-.14.06-.27.12-.4.19-.15.07-.28.14-.37.16-.29.07-.57.11-.83.12h-.23c-.23.03-.44.04-.59.02-.13-.02-.3-.1-.47-.18l-.25-.11c-.22-.09-.42-.22-.58-.36-.12-.11-.2-.23-.25-.4-.06-.19-.06-.37,0-.56.07-.22.22-.48.43-.76.11-.15.29-.3.5-.48l.2-.17s.05-.07.08-.1c-.05.03-.09.07-.15.1-.19.1-.4.17-.6.24-.12.04-.25.08-.36.14-.13.06-.25.13-.37.2-.13.07-.25.14-.38.2-.07.05-.13.1-.22.13-.31.12-.61.15-.85.18-.03,0-.06,0-.09.01-.1.47-.09.93.05,1.4.15.49.41.9.78,1.23.32.28.68.52,1.09.69l.19.09c.26.12.58.27.97.33.17.03.33.03.49.03.17,0,.34-.01.5-.02h.21c.37-.03.76-.09,1.16-.18.22-.05.41-.14.59-.22,0-.03.01-.05.02-.08-.29-.04-.55-.21-.69-.49Z"/>
              <path class="cls-4" d="m85.82,75.04c-.33-.39-.92-.43-1.3-.1l-.18.15c-.17.14-.35.31-.53.49.2.1.36.27.44.49.15.39,0,.81-.33,1.05.13-.07.26-.13.38-.2.12-.07.24-.14.37-.2.12-.06.24-.1.36-.14.21-.07.41-.14.6-.24.05-.03.1-.07.15-.1.3-.34.33-.85.02-1.2Z"/>
              <path class="cls-4" d="m88.13,80.23c.14.28.4.45.69.49.07-.3.16-.58.27-.82.13-.28.3-.54.48-.82-.19-.19-.45-.29-.72-.27-.1.06-.2.12-.31.18-.46.23-.64.78-.41,1.24Z"/>
              <path class="cls-4" d="m83.71,77.25c.08-.03.15-.08.22-.13-.05.03-.11.06-.16.08-.12.06-.26.09-.39.09-.19,0-.37-.06-.52-.17,0,.01-.01.02-.01.03-.03.1-.05.19-.07.29.03,0,.06,0,.09-.01.24-.03.54-.06.85-.18Z"/>
              <path class="cls-4" d="m84.26,76.07c-.08-.22-.25-.39-.44-.49-.09.1-.19.19-.27.3-.32.43-.54.83-.68,1.24.15.11.34.17.52.17.13,0,.26-.03.39-.09.05-.03.11-.06.16-.08.32-.24.47-.66.33-1.05Z"/>
              <path class="cls-4" d="m90.94,83.17c.31-.11.65-.14.96-.26.01,0,.03-.01.04-.02-.18-.07-.36-.15-.53-.24-.23-.12-.47-.26-.6-.39-.14-.14-.24-.3-.29-.48-.02-.06,0-.23.05-.47.04-.24.1-.43.18-.61.1-.21.23-.42.39-.64.1-.14.18-.27.26-.4l-.23.12c-.19.1-.39.17-.59.24-.11.04-.23.08-.34.13-.12.06-.24.13-.35.2-.17.1-.34.2-.52.29-.13.07-.27.1-.41.1,0,0-.02,0-.03,0-.04.02-.09.04-.13.06-.02.1-.05.18-.07.29-.05.32-.13.76.02,1.24.14.46.39.87.73,1.22.06.06.13.1.19.16.12-.03.25-.05.37-.09.31-.11.57-.33.88-.45Z"/>
              <path class="cls-4" d="m90.74,77.92c.08-.04.15-.08.23-.12-.27-.03-.55.05-.76.26-.05.06-.09.11-.13.17.08-.03.16-.05.23-.09.14-.07.29-.15.43-.22Z"/>
              <path class="cls-4" d="m89.65,78.98s-.05.07-.07.11c.08.08.15.18.19.29.19.47-.03,1.01-.5,1.2-.1.04-.19.09-.28.13-.02,0-.04.02-.05.03,0,0,.02,0,.03,0,.14,0,.28-.03.41-.1.18-.09.35-.19.52-.29.12-.07.23-.14.35-.2.11-.06.22-.09.34-.13.2-.07.41-.14.59-.24l.23-.12c.09-.15.17-.3.24-.43.25-.36.21-.86-.12-1.18-.15-.15-.35-.22-.55-.24-.08.04-.15.08-.23.12-.14.07-.29.14-.43.22-.07.04-.15.06-.23.09-.04.06-.08.13-.11.2-.07.13-.17.33-.32.54Z"/>
              <path class="cls-4" d="m88.82,80.72s-.01.05-.02.08c.04-.02.09-.04.13-.06-.04,0-.07,0-.11-.02Z"/>
              <path class="cls-4" d="m89.27,80.58c.47-.19.7-.73.5-1.2-.05-.11-.11-.21-.19-.29-.19.27-.35.54-.48.82-.12.24-.2.52-.27.82.04,0,.07.01.11.02.02,0,.04-.02.05-.03.09-.05.19-.09.28-.13Z"/>
            </g>
            <g>
              <g>
                <path class="cls-4" d="m89.68,16.26c-.24.47-.24.46-.48.93s-.2.49-.44.95-.3.44-.54.9-.24.47-.48.94-.34.42-.58.89c-.21.41,0,.86.23,1.18s.58.52,1.03.44c.5-.08.5-.1,1-.18s.51,0,1.01-.08.5-.05,1-.13.48-.22.98-.3.52.04,1.02-.04.51-.05,1.01-.14.5-.1,1-.19c.32-.05.56-.29.72-.51.17-.24.32-.55.28-.84-.04-.27-.29-.49-.54-.69-.38-.29-.37-.31-.76-.6s-.37-.31-.75-.6-.35-.34-.73-.64-.39-.29-.77-.59-.45-.21-.84-.51-.38-.3-.77-.59c-.28-.21-.62-.37-.93-.3s-.52.37-.68.69Z"/>
                <path class="cls-4" d="m116.01,16.22c.24.47.14.52.37.98s.28.45.52.91.18.5.42.96.3.44.54.91.27.45.51.92c.21.41.17.89-.06,1.2s-.68.53-1.14.46c-.5-.08-.51-.04-1-.12s-.49-.15-.99-.24-.5-.09-.99-.17-.48-.19-.98-.28-.53.07-1.03-.02-.5-.11-1-.19-.5-.07-1.01-.15c-.32-.05-.52-.29-.68-.51-.17-.24-.2-.5-.16-.79.04-.27.06-.59.32-.78.38-.29.46-.19.84-.48s.4-.27.79-.56.37-.31.76-.6.34-.35.73-.64.44-.23.82-.53.31-.39.7-.69c.28-.21.64-.26.95-.19s.62.27.77.58Z"/>
              </g>
              <g>
                <path class="cls-1" d="m79.74,26.73c.45.17.4.29.85.46s.49.06.94.22.41.27.86.44.47.12.91.29.43.22.88.39.47.11.93.27.47.14.92.3.47.13.92.3"/>
                <path class="cls-1" d="m79.53,35.99c.47-.15.46-.17.94-.32s.49-.1.96-.25.51-.02.98-.16.44-.26.91-.41.51-.04.98-.19.46-.19.93-.34.49-.09.97-.24.46-.21.93-.36"/>
                <g>
                  <path class="cls-1" d="m126.57,26.73c-.45.17-.42.25-.87.42s-.44.19-.89.36-.44.19-.89.36-.46.12-.91.29-.5.04-.95.21-.41.28-.86.45-.49.06-.95.23-.44.21-.89.38"/>
                  <path class="cls-1" d="m126.74,36.11c-.47-.15-.44-.24-.92-.39s-.47-.17-.94-.31-.5-.06-.97-.2-.48-.12-.95-.27-.48-.12-.96-.27-.46-.19-.94-.34-.44-.28-.91-.43-.51-.03-.99-.18"/>
                </g>
              </g>
              <path class="cls-1" d="m25.51,14.76c.32-.01.66-.07.96.02s.55.34.82.5.57.29.8.5.35.52.54.78.35.51.49.79.41.52.51.82.09.64.15.95.16.62.2.93-.03.64,0,.96.02.63.04.95c.02.33.13.66.15.99s.06.67.07,1,.05.67.05,1-.04.67-.05,1.01-.16.66-.18,1,.07.68.03,1.01-.2.65-.25.98-.08.66-.16.99-.23.62-.34.94-.17.65-.31.95-.26.62-.43.9-.32.59-.52.86c-.2.27-.44.53-.69.77s-.5.5-.79.68-.64.29-.96.41-.67.2-1.01.22-.65-.11-.99-.21c-.34-.1-.7-.11-.96-.3s-.5-.46-.71-.74-.38-.56-.52-.88-.15-.66-.23-.99-.09-.66-.11-1-.15-.68-.12-1.01c.03-.33.2-.64.27-.96s.18-.63.27-.94.19-.62.32-.93.2-.63.36-.92.39-.53.56-.81.26-.62.46-.88.42-.51.63-.76.46-.47.69-.71.51-.41.76-.63.5-.43.76-.63.46-.48.73-.67.55-.36.83-.53.62-.25.9-.41.54-.39.83-.54.57-.34.87-.48.61-.25.91-.38.61-.24.92-.36.64-.16.95-.27.61-.25.92-.36.62-.22.93-.32.6-.3.91-.4.67-.05.99-.15"/>
              <path class="cls-1" d="m64,14.49c-.32-.01-.65-.04-.95.04s-.56.29-.83.45-.49.37-.73.58-.42.45-.61.7-.37.5-.51.78-.38.54-.47.84-.16.62-.22.93-.04.64-.08.95.03.64,0,.95-.18.62-.2.94c-.02.33.04.67.02,1s-.15.66-.16,1-.01.67-.01,1,.17.67.18,1-.06.67-.04,1,.11.66.14.99-.01.68.04,1.01.11.67.19.99.27.62.38.93.26.61.39.92.31.58.48.87.31.58.52.85c.2.27.33.62.58.86s.6.36.88.55.55.45.87.57.68.16,1.02.19.71.05,1.04-.05c.34-.1.63-.31.9-.51s.49-.46.69-.74.32-.58.46-.89.23-.62.31-.95.08-.66.1-1,.09-.67.06-1c-.03-.33-.07-.65-.14-.98s-.04-.67-.14-.99-.36-.57-.48-.88-.25-.61-.4-.9-.33-.57-.51-.84-.29-.6-.49-.86-.38-.54-.6-.79-.54-.4-.77-.63-.39-.55-.63-.77-.48-.46-.74-.66-.54-.39-.81-.57-.59-.31-.87-.48-.53-.41-.82-.57-.64-.2-.93-.35-.58-.31-.88-.44-.59-.29-.89-.42-.59-.31-.89-.43-.62-.24-.93-.35-.66-.13-.97-.23-.62-.22-.93-.33-.59-.31-.91-.41-.65-.12-.97-.22"/>
              <g>
                <path class="cls-4" d="m41.6,26.78c0,.34-.05.65-.21.92s-.43.45-.71.61-.54.31-.88.31-.67-.05-.94-.21-.47-.44-.63-.72-.34-.57-.34-.91.07-.7.23-.97.42-.55.71-.72.64-.23.98-.23.62.21.89.37.5.36.66.65.25.56.25.9Z"/>
                <path class="cls-4" d="m51.6,26.78c0,.34-.18.62-.34.9s-.38.48-.67.64-.55.32-.89.32-.63-.13-.9-.29-.53-.36-.69-.64-.17-.58-.17-.92.02-.65.17-.92.37-.55.65-.71.6-.19.94-.19.68,0,.96.16.56.4.73.68.21.63.21.97Z"/>
              </g>
              <g>
                <path class="cls-4" d="m40.8,45.41c-.35,0-.67-.05-1-.13s-.69-.09-.99-.23-.61-.33-.88-.54-.51-.47-.72-.73-.39-.57-.54-.87-.3-.62-.38-.96-.11-.68-.11-1.03c0-.32.34-.62.67-.62s.52.29.52.62c0,.36.04.74.15,1.07s.35.63.56.91.43.58.72.79.63.34.96.45.68.24,1.05.24.72-.13,1.05-.24.63-.32.92-.52.59-.41.79-.7.29-.64.4-.98.13-.66.13-1.03c0-.32.34-.67.67-.67s.64.35.64.67c0,.35-.17.67-.24.99s-.17.65-.32.95-.27.63-.48.89-.39.58-.66.79-.63.28-.94.43-.6.33-.93.41-.67.03-1.02.03Z"/>
                <path class="cls-4" d="m48.71,45.4c-.35,0-.67-.03-1-.11s-.69-.09-.99-.23-.61-.33-.88-.54-.52-.46-.73-.72-.41-.56-.56-.87-.17-.66-.24-1-.2-.66-.2-1c0-.32.32-.54.65-.54s.52.21.52.54c0,.36.16.7.27,1.03s.28.64.48.92.44.53.73.74.58.37.92.48.66.12,1.03.12.69-.05,1.02-.16.66-.22.95-.42.61-.4.82-.68.4-.61.51-.95.09-.71.09-1.07c0-.32.26-.53.58-.53s.57.21.57.53c0,.35-.11.66-.19.99s-.12.67-.27.97-.29.62-.5.89-.5.46-.76.67-.5.47-.81.62-.63.29-.96.37-.68-.03-1.03-.03Z"/>
              </g>
              <g>
                <path class="cls-4" d="m106.47,26.78c0,.34.1.67.25.94s.42.5.7.67.59.3.93.3.69-.07.97-.23.54-.43.7-.71.15-.63.15-.96-.1-.63-.26-.9-.38-.49-.66-.65-.56-.23-.9-.23-.67,0-.95.15-.45.45-.62.74-.32.56-.32.9Z"/>
                <path class="cls-4" d="m96.49,26.78c0,.34.13.68.29.96s.45.47.74.63.58.28.92.28.67-.09.94-.24.52-.41.69-.69.23-.6.23-.94c0-.34-.04-.68-.2-.95s-.4-.56-.68-.72-.63-.25-.97-.25-.64.2-.91.35-.49.39-.65.67-.38.56-.38.9Z"/>
              </g>
              <g>
                <path class="cls-4" d="m107.35,45.39c.35,0,.67-.02,1-.09s.7-.08,1-.22.62-.32.89-.53.4-.56.62-.83.42-.53.57-.83.26-.62.33-.95.2-.66.2-1c0-.32-.32-.67-.64-.67s-.63.34-.63.67c0,.36.02.72-.09,1.05s-.31.64-.51.92-.46.53-.75.74-.59.37-.93.48-.67.19-1.04.19-.7-.11-1.03-.21-.63-.29-.91-.5-.53-.44-.73-.73-.47-.55-.58-.89-.18-.69-.18-1.06c0-.32-.2-.52-.53-.52s-.51.2-.51.52c0,.35-.06.69.01,1.02s.27.62.42.93.24.65.45.92.45.53.72.74.61.3.92.45.62.24.95.32.65.09,1,.09Z"/>
                <path class="cls-4" d="m99.44,45.41c.35,0,.68-.01,1-.09s.65-.2.95-.34.65-.25.91-.46.5-.48.71-.74.31-.6.46-.91.34-.59.42-.93.15-.67.15-1.02c0-.32-.33-.51-.66-.51s-.53.18-.53.51c0,.36-.18.69-.28,1.02s-.28.63-.49.91-.35.64-.64.85-.63.35-.97.46-.69.17-1.05.17-.7-.14-1.02-.25-.62-.29-.91-.49-.55-.42-.76-.71-.43-.56-.54-.9-.13-.69-.13-1.05c0-.32-.27-.6-.6-.6s-.6.28-.6.6c0,.35.06.68.14,1.01s.14.68.29.98.31.62.52.89.47.51.73.73.61.3.92.45.62.24.95.32.65.12,1,.12Z"/>
              </g>
              <path class="cls-4" d="m47.91,34.48c.05.33,0,.73-.23,1.07-.19.28-.53.48-.85.7-.29.2-.6.41-.95.53s-.72.16-1.08.16c-.37,0-.72-.13-1.07-.24s-.76-.15-1.06-.36c-.33-.22-.62-.51-.82-.78-.24-.34-.4-.75-.35-1.09.04-.31.29-.58.56-.81.22-.19.52-.35.83-.49.29-.12.6-.26.91-.32s.66-.07.96-.07c.3,0,.63.04.96.11s.6.24.89.36c.31.13.62.24.84.44.26.23.44.49.48.8Z"/>
              <path class="cls-4" d="m106.23,34.49c.05.33.07.71-.16,1.04-.19.28-.46.57-.78.79-.29.2-.64.38-.99.5s-.73.12-1.09.12c-.37,0-.77.02-1.12-.09s-.66-.38-.96-.58c-.33-.22-.63-.46-.83-.74-.24-.34-.33-.71-.29-1.05.04-.31.26-.52.52-.75.22-.19.42-.48.74-.62.29-.12.62-.22.93-.29s.67-.12.97-.13c.3,0,.63.1.96.17s.63.17.92.29c.31.13.63.27.85.47.26.23.31.55.35.86Z"/>
            </g>
          </g>
        </g>
      </g>
      <g>
        <path class="cls-4" d="m10.93,168.39c-.36,0-.54-.18-.54-.53v-5.82c0-.35.18-.53.54-.53h.02c.35,0,.53.18.53.53v3.63l1.35-1.61c.1-.13.21-.22.33-.28.12-.06.23-.09.33-.09.13,0,.24.04.32.11.09.07.13.17.14.29s-.06.26-.18.41l-1.2,1.33,1.46,1.9c.13.18.15.34.06.48-.09.14-.22.21-.41.21-.17,0-.31-.02-.4-.07-.09-.05-.17-.11-.24-.2l-1.57-2.13v1.82c0,.35-.18.53-.53.53h-.02Z"/>
        <path class="cls-4" d="m18.86,168.5c-.68,0-1.22-.2-1.64-.61-.42-.41-.63-1.02-.63-1.82,0-.5.09-.93.28-1.3s.45-.64.78-.84.72-.29,1.15-.29.8.1,1.1.3.53.46.7.77.24.64.24.98c0,.24-.05.39-.14.47-.1.07-.24.11-.43.11h-2.61c.03.46.15.79.37.99.22.2.5.29.85.29.39,0,.7-.14.92-.41.13-.14.25-.22.36-.27.11-.04.23-.02.36.07.13.09.2.21.22.35.02.14-.04.29-.17.44-.22.26-.47.46-.75.57-.28.12-.6.18-.96.18Zm-1.15-3.07h2.06c-.05-.3-.16-.54-.33-.7-.17-.16-.39-.25-.65-.25-.28,0-.52.08-.7.23-.18.15-.31.39-.37.71Z"/>
        <path class="cls-4" d="m23.95,168.39c-.37,0-.55-.19-.55-.57v-3.5c0-.38.16-.57.49-.57s.5.08.51.25l.03.3c.13-.18.3-.34.51-.47.21-.13.46-.2.75-.2.48,0,.88.15,1.18.46.31.31.46.76.46,1.36v2.37c0,.38-.18.57-.54.57s-.55-.19-.55-.57v-2.1c0-.37-.07-.64-.22-.83-.15-.18-.35-.27-.6-.27-.28,0-.5.1-.68.28s-.26.47-.26.84v2.08c0,.38-.18.57-.54.57Z"/>
        <path class="cls-4" d="m30.61,168.39c-.36,0-.54-.18-.54-.53v-5.82c0-.35.18-.53.54-.53h.02c.35,0,.53.18.53.53v3.63l1.35-1.61c.1-.13.21-.22.33-.28.12-.06.23-.09.33-.09.13,0,.24.04.32.11.09.07.13.17.14.29s-.06.26-.18.41l-1.2,1.33,1.46,1.9c.13.18.15.34.06.48-.09.14-.22.21-.41.21-.17,0-.31-.02-.4-.07-.09-.05-.17-.11-.24-.2l-1.57-2.13v1.82c0,.35-.18.53-.53.53h-.02Z"/>
        <path class="cls-4" d="m38.51,168.5c-.42,0-.81-.1-1.14-.3s-.6-.49-.8-.85c-.2-.36-.29-.79-.29-1.28s.1-.92.29-1.28.46-.65.8-.85.72-.3,1.14-.3.83.1,1.16.3.6.49.8.85c.19.36.29.79.29,1.28s-.1.92-.29,1.28c-.19.36-.46.65-.8.85s-.73.3-1.16.3Zm0-.98c.34,0,.62-.13.84-.38s.32-.61.32-1.07-.11-.82-.32-1.07-.49-.38-.84-.38-.61.13-.82.38c-.21.25-.32.61-.32,1.07s.11.82.32,1.07c.21.25.49.38.82.38Z"/>
        <path class="cls-4" d="m43.79,166.52c-.14,0-.26-.05-.36-.15-.1-.1-.15-.22-.15-.36s.05-.26.15-.36.22-.15.36-.15h2.36c.14,0,.26.05.36.15s.15.22.15.36-.05.26-.15.36c-.1.1-.22.15-.36.15h-2.36Z"/>
        <path class="cls-4" d="m51.42,168.5c-.42,0-.81-.1-1.14-.29-.34-.19-.6-.47-.8-.84-.2-.36-.29-.8-.29-1.31s.1-.94.29-1.31c.2-.36.46-.64.8-.84.34-.19.72-.29,1.14-.29.49,0,.89.18,1.21.53v-2.09c0-.38.18-.57.54-.57s.55.19.55.57v5.74c0,.38-.16.57-.47.57s-.47-.07-.49-.22l-.03-.31c-.16.2-.35.36-.57.47-.22.11-.47.17-.73.17Zm.05-.98c.34,0,.62-.13.85-.38s.34-.61.34-1.07-.11-.82-.34-1.07-.51-.38-.85-.38-.62.13-.85.38-.34.61-.34,1.07.11.82.34,1.07.51.38.85.38Z"/>
        <path class="cls-4" d="m58.44,168.5c-.42,0-.81-.1-1.14-.3s-.6-.49-.8-.85c-.2-.36-.29-.79-.29-1.28s.1-.92.29-1.28.46-.65.8-.85.72-.3,1.14-.3.83.1,1.16.3.6.49.8.85c.19.36.29.79.29,1.28s-.1.92-.29,1.28c-.19.36-.46.65-.8.85s-.73.3-1.16.3Zm0-.98c.34,0,.62-.13.84-.38s.32-.61.32-1.07-.11-.82-.32-1.07-.49-.38-.84-.38-.61.13-.82.38c-.21.25-.32.61-.32,1.07s.11.82.32,1.07c.21.25.49.38.82.38Z"/>
        <path class="cls-4" d="m68.94,168.46c-.5.02-.92-.09-1.24-.33-.33-.24-.49-.58-.49-1.03,0-.33.1-.61.3-.84s.46-.41.77-.55c.32-.13.64-.2.98-.21.17-.01.32,0,.47.04.15.04.28.09.4.16v-.41c0-.3-.06-.5-.19-.59-.13-.09-.32-.14-.57-.14-.18,0-.37.02-.56.07-.2.04-.39.11-.57.18-.17.07-.31.1-.43.08-.12-.02-.22-.1-.29-.23s-.1-.27-.05-.39c.04-.13.15-.22.32-.29.23-.11.48-.2.76-.26s.55-.1.84-.1c.6,0,1.05.12,1.35.36.3.24.45.68.45,1.31v2.13c0,.06,0,.12.02.15.02.04.03.07.04.09.06.08.12.13.19.14s.13.02.18.02c.05,0,.08.03.08.09,0,.12-.03.22-.09.3s-.16.14-.3.17c-.15.03-.29.05-.43.05-.2,0-.35-.03-.46-.1-.11-.07-.18-.18-.23-.34-.16.14-.35.24-.56.31s-.43.12-.67.13Zm-.02-.95c.36-.01.66-.08.89-.21s.35-.31.33-.55c0-.15-.09-.26-.24-.32-.15-.06-.34-.08-.56-.07-.32,0-.58.09-.78.24s-.31.32-.3.51c.01.29.23.43.66.41Z"/>
        <path class="cls-4" d="m74.66,168.39c-.37,0-.55-.19-.55-.57v-3.5c0-.38.16-.57.49-.57s.5.08.51.25l.03.3c.13-.18.3-.34.51-.47.21-.13.46-.2.75-.2.48,0,.88.15,1.18.46.31.31.46.76.46,1.36v2.37c0,.38-.18.57-.54.57s-.55-.19-.55-.57v-2.1c0-.37-.07-.64-.22-.83-.15-.18-.35-.27-.6-.27-.28,0-.5.1-.68.28s-.26.47-.26.84v2.08c0,.38-.18.57-.54.57Z"/>
        <path class="cls-4" d="m81.47,162.98c-.19,0-.35-.07-.48-.2s-.2-.3-.2-.48.07-.35.2-.48.3-.2.48-.2.35.07.48.2.2.3.2.48-.07.35-.2.48-.3.2-.48.2Zm0,5.41c-.36,0-.54-.19-.54-.57v-3.5c0-.38.18-.57.54-.57s.54.19.54.57v3.5c0,.38-.18.57-.54.57Z"/>
        <path class="cls-4" d="m85.43,168.39c-.37,0-.55-.19-.55-.57v-3.5c0-.38.16-.57.49-.57s.49.08.51.25l.04.31c.09-.19.24-.35.45-.48.21-.13.46-.19.73-.19.3,0,.57.07.79.21.22.14.4.34.52.61.12-.24.3-.43.54-.59s.5-.23.81-.23c.46,0,.83.16,1.11.48.28.32.42.77.42,1.35v2.37c0,.38-.18.57-.54.57s-.56-.19-.56-.57v-2.11c0-.34-.06-.61-.18-.8-.12-.19-.29-.29-.51-.29-.28,0-.49.1-.64.3s-.23.48-.23.85v2.06c0,.38-.18.57-.54.57s-.55-.19-.55-.57v-2.11c0-.34-.06-.61-.19-.8-.13-.19-.3-.29-.52-.29-.27,0-.48.1-.63.3-.15.2-.22.48-.22.84v2.06c0,.38-.18.57-.54.57Z"/>
        <path class="cls-4" d="m95.53,168.46c-.5.02-.92-.09-1.24-.33-.33-.24-.49-.58-.49-1.03,0-.33.1-.61.3-.84s.46-.41.77-.55c.32-.13.64-.2.98-.21.17-.01.32,0,.47.04.15.04.28.09.4.16v-.41c0-.3-.06-.5-.19-.59-.13-.09-.32-.14-.57-.14-.18,0-.37.02-.56.07-.2.04-.39.11-.57.18-.17.07-.31.1-.43.08-.12-.02-.22-.1-.29-.23s-.1-.27-.05-.39c.04-.13.15-.22.32-.29.23-.11.48-.2.76-.26s.55-.1.84-.1c.6,0,1.05.12,1.35.36.3.24.45.68.45,1.31v2.13c0,.06,0,.12.02.15.02.04.03.07.04.09.06.08.12.13.19.14s.13.02.18.02c.05,0,.08.03.08.09,0,.12-.03.22-.09.3s-.16.14-.3.17c-.15.03-.29.05-.43.05-.2,0-.35-.03-.46-.1-.11-.07-.18-.18-.23-.34-.16.14-.35.24-.56.31s-.43.12-.67.13Zm-.02-.95c.36-.01.66-.08.89-.21s.35-.31.33-.55c0-.15-.09-.26-.24-.32-.15-.06-.34-.08-.56-.07-.32,0-.58.09-.78.24s-.31.32-.3.51c.01.29.23.43.66.41Z"/>
        <path class="cls-4" d="m101.26,168.39c-.37,0-.55-.19-.55-.57v-5.74c0-.38.18-.57.55-.57s.54.19.54.57v5.74c0,.38-.18.57-.54.57Z"/>
        <path class="cls-4" d="m110.77,168.5c-.42,0-.81-.1-1.14-.3s-.6-.49-.8-.85c-.2-.36-.29-.79-.29-1.28s.1-.92.29-1.28.46-.65.8-.85.72-.3,1.14-.3c.55,0,1.02.15,1.39.46.15.12.22.24.21.39-.02.14-.09.26-.23.37-.14.1-.26.14-.36.13s-.23-.07-.39-.17c-.18-.12-.39-.18-.62-.18-.33,0-.61.13-.82.38-.21.25-.32.61-.32,1.07s.11.82.32,1.07c.21.25.49.38.82.38.24,0,.44-.06.6-.17.15-.09.28-.15.39-.18.11-.03.24,0,.37.11.14.1.22.22.24.36s-.04.27-.19.38c-.39.32-.86.48-1.41.48Z"/>
        <path class="cls-4" d="m115.6,168.39c-.37,0-.55-.19-.55-.57v-5.74c0-.38.18-.57.55-.57s.54.19.54.57v5.74c0,.38-.18.57-.54.57Z"/>
        <path class="cls-4" d="m119.55,162.98c-.19,0-.35-.07-.48-.2s-.2-.3-.2-.48.07-.35.2-.48.3-.2.48-.2.35.07.48.2.2.3.2.48-.07.35-.2.48-.3.2-.48.2Zm0,5.41c-.36,0-.54-.19-.54-.57v-3.5c0-.38.18-.57.54-.57s.54.19.54.57v3.5c0,.38-.18.57-.54.57Z"/>
        <path class="cls-4" d="m123.51,168.39c-.37,0-.55-.19-.55-.57v-3.5c0-.38.16-.57.49-.57s.5.08.51.25l.03.3c.13-.18.3-.34.51-.47.21-.13.46-.2.75-.2.48,0,.88.15,1.18.46.31.31.46.76.46,1.36v2.37c0,.38-.18.57-.54.57s-.55-.19-.55-.57v-2.1c0-.37-.07-.64-.22-.83-.15-.18-.35-.27-.6-.27-.28,0-.5.1-.68.28s-.26.47-.26.84v2.08c0,.38-.18.57-.54.57Z"/>
        <path class="cls-4" d="m130.32,162.98c-.19,0-.35-.07-.48-.2s-.2-.3-.2-.48.07-.35.2-.48.3-.2.48-.2.35.07.48.2.2.3.2.48-.07.35-.2.48-.3.2-.48.2Zm0,5.41c-.36,0-.54-.19-.54-.57v-3.5c0-.38.18-.57.54-.57s.54.19.54.57v3.5c0,.38-.18.57-.54.57Z"/>
        <path class="cls-4" d="m135.72,168.5c-.42,0-.81-.1-1.14-.3s-.6-.49-.8-.85c-.2-.36-.29-.79-.29-1.28s.1-.92.29-1.28.46-.65.8-.85.72-.3,1.14-.3c.55,0,1.02.15,1.39.46.15.12.22.24.21.39-.02.14-.09.26-.23.37-.14.1-.26.14-.36.13s-.23-.07-.39-.17c-.18-.12-.39-.18-.62-.18-.33,0-.61.13-.82.38-.21.25-.32.61-.32,1.07s.11.82.32,1.07c.21.25.49.38.82.38.24,0,.44-.06.6-.17.15-.09.28-.15.39-.18.11-.03.24,0,.37.11.14.1.22.22.24.36s-.04.27-.19.38c-.39.32-.86.48-1.41.48Z"/>
      </g>
      <path class="cls-2" d="m66.79,117.53h1.85c.13,0,.24.11.24.24v1.07c0,.13-.11.24-.24.24h-1.85c-.13,0-.24-.11-.24-.24v-1.07c0-.13.11-.24.24-.24Z"/>
      <path class="cls-2" d="m89.8,125.73c.54-.94.98-1.86,1.34-2.75.03-.05.03-.1,0-.15-.03-.05-.08-.07-.15-.07h-7.93s-.09.02-.12.06c-.03.04-.03.09,0,.13.57.96.98,1.82,1.24,2.6.08.18.02.3-.19.36v.02h5.47c.16,0,.28-.07.34-.22Z"/>
      <path class="cls-2" d="m66.79,120.81h1.85c.13,0,.24.11.24.24v1.1c0,.13-.11.24-.24.24h-1.85c-.13,0-.24-.11-.24-.24v-1.1c0-.13.11-.24.24-.24Z"/>
      <path class="cls-2" d="m58.08,124.29h-1.36c-.08,0-.14.04-.17.12l-.05.07c-.11.26-.3.45-.56.58-.16.08-.33.12-.51.12-.1,0-.19,0-.29-.02-.24-.06-.42-.21-.54-.44-.11-.23-.11-.45,0-.68.79-1.72,1.68-3.79,2.65-6.2.02-.05,0-.1-.02-.15-.03-.05-.07-.07-.12-.07h-.56c-.42,0-.78-.15-1.08-.45-.3-.3-.45-.67-.45-1.11h-.02s-.02-.02-.02,0c-.34.91-.71,1.81-1.12,2.7-.06.15-.1.3-.1.46v15.28s.02.09.07.11c.05.02.09.02.12-.01.83-.68,1.54-1.56,2.14-2.63.08-.15.08-.29,0-.44-.58-1.1-1.07-2.43-1.46-3.99-.07-.26-.03-.5.1-.73.13-.23.32-.37.58-.44.24-.08.47-.06.68.07.21.13.35.32.41.56.21.83.45,1.57.71,2.24.02.03.04.05.09.05s.07-.02.09-.05c.45-1.4.79-2.97,1.02-4.72,0-.06-.02-.12-.06-.17-.04-.05-.09-.07-.16-.07Z"/>
      <path class="cls-5" d="m71.39,119.09h-.37c-.1,0-.15-.05-.15-.15v-1.02c0-.58-.21-1.08-.62-1.5s-.91-.62-1.5-.62h-2.02c-.13,0-.19-.06-.19-.19v-.68c0-.29-.11-.54-.32-.74-.21-.2-.46-.3-.74-.3s-.53.1-.73.3c-.2.2-.3.45-.3.74v.68c0,.13-.06.19-.19.19h-2.34c-.24,0-.45.08-.62.26-.17.17-.26.37-.26.61s.09.44.26.61c.17.17.38.26.62.26h2.29c.16,0,.24.08.24.24v1.07c0,.16-.08.24-.24.24h-3.94c-.24,0-.45.09-.61.26-.16.17-.24.37-.24.61s.08.44.24.61c.16.17.36.26.61.26h3.94c.16,0,.24.08.24.24v1.1c0,.16-.08.24-.24.24h-2.29c-.24,0-.45.09-.62.26s-.26.37-.26.61.09.44.26.61c.17.17.38.26.62.26h2.29c.16,0,.24.08.24.24v1.1c0,.16-.08.24-.24.24h-2.68c-.23,0-.43.08-.6.26s-.26.37-.26.61.08.44.26.61c.17.17.37.26.6.26h2.68c.16,0,.24.08.24.24v1.14c0,.16-.08.24-.24.24h-3.33c-.24,0-.45.09-.62.26-.17.17-.26.37-.26.61s.09.44.26.61c.17.17.38.26.62.26h3.33c.16,0,.24.08.24.24v1.31c0,.29.1.54.3.74.2.2.45.3.73.3s.53-.1.74-.3c.21-.2.32-.45.32-.74v-1.31c0-.16.08-.24.24-.24h4.11c.24,0,.45-.08.62-.26.17-.17.26-.37.26-.61s-.09-.44-.26-.61-.38-.26-.62-.26h-4.11c-.16,0-.24-.08-.24-.24v-1.14c0-.16.08-.24.24-.24h3.46c.23,0,.43-.09.6-.26.17-.17.26-.37.26-.61s-.08-.44-.26-.61-.37-.26-.6-.26h-3.46c-.16,0-.24-.08-.24-.24v-1.1c0-.16.08-.24.24-.24h1.97c.58,0,1.08-.21,1.5-.62.41-.41.62-.91.62-1.5v-1.05c0-.1.05-.15.15-.15h.37c.23,0,.43-.08.6-.26.17-.17.26-.37.26-.61s-.09-.44-.26-.61-.37-.26-.6-.26Zm-2.51,3.07c0,.16-.08.24-.24.24h-1.85c-.16,0-.24-.08-.24-.24v-1.1c0-.16.08-.24.24-.24h1.85c.16,0,.24.08.24.24v1.1Zm0-3.31c0,.16-.08.24-.24.24h-1.85c-.16,0-.24-.08-.24-.24v-1.07c0-.16.08-.24.24-.24h1.85c.16,0,.24.08.24.24v1.07Z"/>
      <path class="cls-5" d="m71.25,134.07h-5.77c-1.54,0-2.86-.16-3.97-.49-1.1-.32-2.04-.9-2.8-1.73-.11-.13-.14-.27-.07-.41.86-2.12,1.44-4.82,1.73-8.08.02-.18-.03-.34-.15-.47s-.25-.22-.41-.26c-.23-.05-.64-.07-1.24-.07h-1s-.08-.02-.11-.05c-.02-.03-.03-.07-.01-.12.91-2.06,1.69-3.95,2.34-5.67.08-.18.08-.36-.01-.55-.09-.19-.23-.31-.43-.38l-.41-.1c-.21-.06-.42-.06-.63,0-.02.02-.04.02-.07.02h-3.02c-.1,0-.13-.05-.1-.15.02-.05.03-.1.05-.15.05-.11.07-.23.07-.34,0-.16-.04-.32-.12-.49-.15-.26-.36-.43-.63-.51-.11-.03-.22-.05-.32-.05-.18,0-.35.05-.51.15-.26.15-.44.36-.54.63-.91,2.79-2.09,5.2-3.55,7.23-.29.41-.44.84-.44,1.29,0,.31.07.62.22.95.11.26.32.41.61.44.05.03.1.05.15.05.23,0,.41-.11.56-.32.28-.37.58-.81.9-1.31.02-.03.04-.04.07-.02s.05.04.05.07v12.29c0,.29.1.54.3.74.2.2.45.3.73.3s.53-.1.73-.3c.2-.2.3-.45.3-.74v-.49s.02-.05.05-.06c.03,0,.06,0,.1.01-.02.02-.02.02,0,.02.37.37.79.59,1.27.66.08.02.15.02.22.02.39,0,.73-.15,1.02-.46.37-.42.71-.87,1.02-1.34.08-.15.18-.16.29-.05.89.89,1.95,1.51,3.19,1.86,1.23.35,2.73.52,4.48.52h5.09c.32,0,.62-.11.88-.32.26-.21.45-.47.56-.78.03-.1.05-.19.05-.29,0-.15-.04-.28-.12-.41-.15-.21-.34-.32-.58-.32Zm-13.97-4.82s-.04.05-.09.05-.07-.02-.09-.05c-.26-.66-.49-1.41-.71-2.24-.07-.24-.2-.43-.41-.56-.21-.13-.44-.15-.68-.07-.26.07-.45.21-.58.44-.13.23-.16.47-.1.73.39,1.56.88,2.89,1.46,3.99.08.15.08.29,0,.44-.6,1.07-1.31,1.95-2.14,2.63-.03.03-.07.04-.12.01-.05-.02-.07-.06-.07-.11v-15.28c0-.16.03-.32.1-.46.41-.89.78-1.79,1.12-2.7,0-.02,0-.02.02,0h.02c0,.44.15.81.45,1.11.3.3.66.45,1.08.45h.56s.09.02.12.07c.03.05.04.1.02.15-.97,2.42-1.86,4.49-2.65,6.2-.11.23-.11.45,0,.68.11.23.29.37.54.44.1.02.19.02.29.02.18,0,.35-.04.51-.12.26-.13.45-.32.56-.58l.05-.07c.03-.08.09-.12.17-.12h1.36c.06,0,.12.02.16.07.04.05.06.11.06.17-.23,1.75-.57,3.33-1.02,4.72Z"/>
      <path class="cls-5" d="m95.93,132.29c.2-.2.3-.45.3-.73s-.1-.53-.3-.73c-.2-.2-.44-.3-.72-.3h-6.96c-.16,0-.24-.08-.24-.24v-2.04c0-.16.08-.24.24-.24h8.13c.29,0,.53-.1.73-.3.19-.2.29-.45.29-.73s-.1-.52-.29-.72c-.19-.19-.44-.29-.73-.29h-4.28s-.09-.02-.11-.07c-.02-.05-.03-.1-.01-.15.42-.62,1.01-1.54,1.78-2.77.08-.13.2-.19.36-.19h2.92c.29,0,.54-.1.74-.3.2-.2.3-.45.3-.74s-.1-.53-.3-.73c-.13-.12-.27-.19-.43-.24h-20.87c-.16.05-.31.12-.43.24-.2.19-.3.44-.3.73s.1.54.3.74c.2.2.45.3.74.3h4.19c-.16.05-.28.15-.34.32s-.06.32.02.46c.41.75.74,1.47,1,2.17.02.06,0,.12-.02.17-.03.05-.08.07-.15.07h-4.06c-.29,0-.54.1-.73.29-.19.19-.29.43-.29.72s.1.53.29.73c.19.2.44.3.73.3h7.96c.16,0,.24.08.24.24v2.04c0,.16-.08.24-.24.24h-6.59c-.29,0-.54.1-.74.3-.2.2-.3.45-.3.73s.1.53.3.73c.2.2.45.3.74.3h6.59c.16,0,.24.08.24.24v2.55c0,.32.12.6.35.84s.51.35.84.35.6-.12.84-.35c.23-.24.35-.52.35-.84v-2.55c0-.16.08-.24.24-.24h6.96c.28,0,.51-.1.72-.3Zm-12.13-6.34v-.02c.21-.06.28-.19.19-.36-.26-.78-.67-1.65-1.24-2.6-.03-.05-.03-.09,0-.13.03-.04.07-.06.12-.06h7.93c.06,0,.11.02.15.07.03.05.03.1,0,.15-.36.89-.8,1.81-1.34,2.75-.06.15-.18.22-.34.22h-5.47Z"/>
      <path class="cls-5" d="m11.34,140.64c-.32-.25-.64-.23-.96.05s-.38.6-.17.95c.41.68.65,1.16.74,1.44.09.25.17.43.24.54.14.21.33.32.58.33.25.01.46-.07.63-.26.17-.18.22-.4.16-.65-.27-1.13-.68-1.94-1.22-2.4Z"/>
      <path class="cls-5" d="m11.15,153.94c-.13-.14-.31-.21-.55-.23-.23-.02-.44-.02-.63,0-.19.02-.42.05-.69.1-.28.05-.46.08-.55.09-1.59.2-2.89.26-3.88.19-1.54-.11-2.47-.49-2.77-1.15-.21-.54-.23-1.06-.05-1.54.18-.49.48-.92.9-1.29.57-.48,1.58-1.05,3.05-1.72.35-.15.9-.39,1.67-.72.77-.33,1.36-.59,1.77-.76.56-.22.8-.57.74-1.05-.02-.22-.13-.41-.31-.57s-.38-.25-.6-.26c-.17,0-.35.03-.55.1-.19.07-.41.17-.67.3-.25.13-.42.21-.49.25l-1.78.74c-.1-.39-.15-.82-.17-1.29-.01-.46,0-.97.03-1.52.03-.55.04-.98.03-1.29-.01-.63-.2-1.26-.57-1.9s-.84-.83-1.42-.58c-.26.12-.43.32-.52.59-.09.27-.06.53.07.78.04.06.11.14.22.24.11.1.19.18.22.24.07.15.11.38.11.68.01.32,0,.79,0,1.4s-.02,1.16,0,1.66c.02.49.08.96.18,1.41.01.04.03.1.07.18.03.08.04.14.03.17-.01.03-.06.06-.13.1l-.46.22c-.2.12-.5.31-.91.56-.74.48-1.31.99-1.7,1.54-.44.6-.71,1.29-.8,2.06-.09.77.03,1.49.38,2.17.57,1.15,1.76,1.84,3.57,2.07,1.29.17,2.95.14,4.96-.11.09-.01.25-.03.48-.05.23-.02.43-.03.58-.05.15-.01.34-.05.56-.11.22-.06.38-.13.5-.21.12-.08.21-.2.29-.35.07-.15.09-.33.06-.53-.04-.23-.12-.42-.25-.56Z"/>
      <path class="cls-5" d="m8.82,143.34s.05.14.15.4c.1.25.19.43.28.53.31.31.62.35.93.11.31-.23.42-.55.31-.94-.37-1.26-.8-2.03-1.28-2.31-.36-.2-.67-.13-.94.2s-.27.65,0,.96c.15.17.33.52.56,1.05Z"/>
      <path class="cls-5" d="m25.56,142.97c.9.02,1.4-.25,1.5-.81.06-.3-.01-.56-.22-.8-.21-.23-.47-.34-.8-.31-.53.05-1.1.01-1.7-.11-.6-.12-1.12-.32-1.55-.59-.04-.03-.11-.07-.22-.14-.11-.07-.19-.11-.24-.14s-.12-.06-.21-.09-.17-.06-.23-.06-.14.02-.24.05c-.1.03-.19.08-.28.14-.26.21-.38.47-.36.79.02.31.15.58.4.79.88.8,2.26,1.23,4.16,1.29Z"/>
      <path class="cls-5" d="m28.61,145.46c-.5-.56-1.13-.92-1.9-1.08-.28-.09-.66-.11-1.12-.07-.46.04-.82.08-1.08.13s-.62.13-1.08.23c-.46.11-.83.18-1.1.23-.35.06-.64.08-.87.06-.11-.01-.25-.06-.43-.13-.17-.07-.3-.12-.37-.15-.28-.07-.55,0-.8.19-.25.2-.36.47-.35.79.01.33.15.6.43.8.27.2.61.31,1.01.34s.76.04,1.09.02c.33-.02.64-.05.93-.1.15-.02.46-.1.94-.23s.86-.22,1.14-.28c.28-.05.61-.06,1-.02s.71.16.95.36c.36.26.57.65.64,1.17s.05,1.01-.06,1.47-.24.9-.42,1.33c-.56,1.36-1.48,2.44-2.77,3.24-.63.41-1.25.69-1.87.85-.04.01-.12.03-.25.06-.13.02-.22.05-.27.06-.05.02-.13.05-.23.09s-.18.08-.23.12c-.05.04-.1.09-.16.15-.06.06-.1.13-.13.21-.03.08-.05.18-.05.29-.01.32.06.56.23.72s.39.24.67.23c.28,0,.54-.03.78-.08s.47-.12.7-.2c1.2-.43,2.26-1.09,3.2-1.96.95-.88,1.68-1.92,2.18-3.14.51-1.22.68-2.43.52-3.64-.1-.8-.4-1.48-.9-2.04Z"/>
      <path class="cls-5" d="m48.57,142.91c.09.26.17.44.24.56.14.21.33.32.58.33.25.01.46-.08.63-.27.17-.19.22-.41.16-.66-.27-1.13-.68-1.93-1.22-2.39-.32-.25-.64-.23-.96.05-.32.28-.38.59-.17.95.41.67.65,1.14.74,1.42Z"/>
      <path class="cls-5" d="m46.45,143.19c.02.06.06.16.1.29.04.13.09.25.14.36.05.11.1.2.17.28.31.3.62.33.94.1.32-.23.43-.54.31-.93-.37-1.26-.8-2.03-1.29-2.31-.35-.2-.66-.13-.93.19-.28.33-.28.64,0,.95.16.18.35.54.57,1.07Z"/>
      <path class="cls-5" d="m49.9,148.57c-.49-.33-1.04-.59-1.66-.79-.61-.19-1.12-.19-1.53,0-.21.1-.36.26-.45.47-.09.22-.11.43-.05.66.12.41.46.64,1.02.68.48.04.99.19,1.54.47.54.28.88.62,1,1.03-.23.02-.43.1-.57.24-.15.14-.23.3-.24.48-.01.19.02.37.08.55.07.18.19.33.37.44s.39.17.62.16c.54-.02.98-.19,1.31-.5.33-.31.47-.73.41-1.26-.14-1.07-.75-1.95-1.85-2.63Z"/>
      <path class="cls-5" d="m44.35,147.46s-.08-.08-.17-.16c-.09-.08-.16-.15-.22-.21-.06-.06-.14-.14-.24-.25-.1-.1-.18-.2-.23-.29-.06-.09-.1-.18-.14-.28-.04-.1-.05-.19-.04-.28.01-.09.05-.16.11-.22.19-.19.54-.35,1.05-.49.52-.14.86-.31,1.04-.51.31-.41.39-.8.25-1.19-.14-.39-.42-.69-.84-.92-.83-.44-1.45-.92-1.89-1.42-.06-.06-.14-.16-.24-.3-.1-.14-.17-.23-.22-.3-.25-.28-.57-.38-.98-.3-.36.09-.55.33-.59.72-.04.33.04.64.24.92.37.6.97,1.18,1.81,1.74-.67.34-1.14.81-1.42,1.39-.28.58-.29,1.2-.02,1.87.18.46.61,1.02,1.28,1.7.67.68,1.1,1.18,1.29,1.52.22.37.39.75.5,1.15.11.39.11.8,0,1.2-.11.41-.37.71-.78.91-.53.23-1.11.3-1.73.2-.62-.1-1.16-.33-1.62-.68-.3-.17-.6-.22-.9-.16-.3.07-.51.26-.63.56-.12.31-.06.61.18.91.34.43.85.76,1.52.97s1.32.32,1.96.32c.76,0,1.47-.16,2.11-.48.64-.32,1.13-.8,1.48-1.42.65-1.22.55-2.61-.3-4.16-.35-.63-.89-1.32-1.63-2.07Z"/>
      <path class="cls-5" d="m40.91,150.88s.11-.06.22-.12c.31-.16.52-.39.65-.68.04-.07.05-.15.05-.24,0-.09-.02-.18-.05-.28-.1-.35-.31-.55-.63-.61-.32-.06-.63-.01-.92.15-1.04.48-1.77.86-2.2,1.13-.36.22-.7.47-1.02.74-.04.04-.13.13-.29.29s-.29.27-.41.34c-.12.07-.23.09-.32.06-.33-.15-.65-.11-.95.11-.3.22-.43.51-.38.87.05.37.25.65.6.83s.71.24,1.08.17c.2-.04.39-.11.58-.21.19-.1.35-.21.48-.31.13-.1.29-.23.48-.41.19-.17.34-.3.43-.37.57-.44,1.36-.89,2.37-1.35.11-.05.19-.08.22-.1Z"/>
      <path class="cls-5" d="m62.04,143.69c-1.01.25-2.5.68-4.48,1.31-.64.18-1.05.28-1.24.28-.06,0-.15-.07-.26-.22-.22-.27-.5-.39-.83-.35-.3.03-.52.16-.68.4s-.2.5-.13.79c.07.3.27.56.57.8.67.52,1.51.64,2.53.35.34-.1.62-.18.82-.25s.47-.16.79-.29.57-.21.74-.26c1.97-.6,3.53-.97,4.66-1.09,1.86-.2,3.02.25,3.48,1.33.22.46.29.91.21,1.37-.08.46-.22.88-.41,1.27-.19.39-.47.76-.83,1.12s-.72.67-1.08.94c-.36.27-.73.51-1.13.72-1.17.64-2.37,1.05-3.59,1.22-.6.1-.94.37-1,.81-.04.23,0,.45.14.65.13.2.3.33.51.41.28.09.86.01,1.74-.22.65-.17,1.28-.38,1.89-.63,1.2-.51,2.25-1.13,3.16-1.89.99-.84,1.7-1.82,2.15-2.93.45-1.12.47-2.24.06-3.38-.89-2.53-3.49-3.28-7.81-2.26Z"/>
      <path class="cls-5" d="m86.25,141.79c-.26-.22-.55-.32-.88-.32s-.63.11-.9.33c-.04.05-.1.09-.19.11s-.16.04-.23.04-.16,0-.28,0c-.12,0-.19,0-.21,0-.25.01-1.09.03-2.52.06-.06,0-.1-.02-.11-.05-.01-.03-.02-.08,0-.16s0-.12,0-.15c-.05-.31-.14-.6-.26-.87-.31-.62-.72-.9-1.24-.85-.3.04-.52.18-.68.43s-.19.52-.09.8c.02.09.09.2.2.35.11.15.17.28.18.39.01.3-.04.6-.15.93-.17.46-.52,1.1-1.04,1.92-.44.67-.83,1.2-1.17,1.59-.01.01-.13.13-.34.35-.22.22-.35.4-.4.54-.05.14-.05.3,0,.48.06.26.21.45.44.58.23.13.47.17.72.12.11-.02.22-.07.32-.13.1-.06.22-.15.33-.27.12-.12.2-.21.26-.28.06-.07.15-.18.28-.34.13-.16.2-.25.21-.28.33-.47.71-1.02,1.13-1.66.17-.28.35-.6.54-.94.02-.05.06-.13.12-.23.06-.1.1-.18.12-.23.02-.04.04-.07.05-.09,0-.02.02-.04.04-.05s.03,0,.05,0h.17c1.92-.01,3.26-.06,4.01-.13-.37,2.87-1.38,5.46-3.03,7.75-.94,1.27-1.9,2.21-2.89,2.83-.56.36-.73.78-.54,1.26.1.25.27.42.52.52.25.1.49.1.72,0,.78-.32,1.72-1.12,2.83-2.39.88-1.02,1.62-2.13,2.24-3.33.68-1.33,1.19-2.63,1.54-3.9.2-.71.35-1.42.46-2.13.12-.91.16-1.5.11-1.78-.05-.32-.2-.59-.46-.8Z"/>
      <path class="cls-5" d="m101.09,142.28c-.06-.32-.25-.68-.56-1.06-.31-.39-.64-.64-.99-.75s-.67.06-.95.52c-.2.39-.07.82.39,1.28.17.09.26.28.26.57v4.24c.01,3.55-.92,5.97-2.81,7.25-.15.1-.3.19-.47.27-.17.08-.31.14-.43.19s-.29.1-.5.18c-.21.07-.37.13-.48.17-.28.11-.47.32-.56.64-.09.31-.04.59.15.82.28.39.86.44,1.72.15.75-.27,1.44-.67,2.07-1.18,2.15-1.71,3.22-4.57,3.22-8.56v-2.65c0-.12,0-.34.02-.64.01-.3.01-.56,0-.79-.01-.22-.04-.43-.07-.63Z"/>
      <path class="cls-5" d="m94.8,150.43c.31-.15.47-.43.47-.82v-6.09c0-.9-.16-1.57-.48-2.02-.47-.65-.94-.92-1.42-.8-.31.06-.53.23-.66.52-.13.28-.12.57.03.85.04.06.15.18.35.35.2.17.3.33.3.48v6.7c0,.4.16.67.47.82.31.15.63.15.94,0Z"/>
      <path class="cls-5" d="m109.28,146.09l7.07-.31c.25-.01.42-.02.53-.04.1-.01.24-.06.41-.14.17-.08.29-.19.38-.34.11-.2.14-.41.08-.65-.06-.23-.18-.42-.36-.55-.09-.07-.19-.12-.31-.15-.12-.02-.23-.04-.31-.04s-.21,0-.38.02c-.17.01-.27.02-.32.02-3.9.18-6.01.3-6.33.33-.41.04-.74.04-1.01.02-.27-.02-.5-.1-.71-.22-.36-.17-.68-.2-.97-.08-.29.12-.47.34-.55.68-.08.33.02.62.29.87.46.43,1.29.63,2.52.59Z"/>
      <path class="cls-5" d="m119.1,150.83c-.26.04-.93.06-2,.06-1.73.04-3.02.07-3.88.11-4.46.19-6.7.28-6.71.28-.25-.01-.44-.09-.59-.22-.23-.22-.5-.32-.8-.3-.3.03-.53.15-.69.39-.16.28-.2.56-.11.81.09.26.27.48.54.67.21.16.44.28.7.37s.55.14.86.16c.31.02.58.02.8.02.22,0,.51-.02.9-.06s.65-.05.8-.06c2.92-.14,5.68-.22,8.27-.26.06,0,.22,0,.46,0,.25,0,.46,0,.63,0s.39,0,.65-.02c.26-.01.47-.05.64-.1s.33-.13.49-.22c.16-.09.27-.22.32-.39.06-.17.06-.35,0-.56-.12-.58-.54-.81-1.26-.68Z"/>
      <path class="cls-5" d="m132.41,145.34c-.17-.28-.37-.49-.59-.61-.28-.14-.58-.11-.88.08-.3.19-.45.46-.45.8,0,.2.08.4.23.6.15.2.24.34.25.4.02.41-.07.97-.28,1.7-.65,2.29-2.07,4.12-4.24,5.49-.47.3-.94.54-1.41.74-.02.01-.11.05-.27.1-.15.06-.26.1-.32.14-.06.04-.15.1-.26.18-.11.09-.19.19-.22.31-.04.12-.06.26-.06.41.01.56.26.84.74.87.41.02,1.1-.22,2.09-.72,1.06-.54,2.02-1.26,2.88-2.15.86-.89,1.56-1.88,2.1-2.98.9-1.91,1.24-3.45,1.02-4.62-.05-.22-.16-.47-.33-.76Z"/>
      <path class="cls-5" d="m124.36,150.87c.22.16.45.2.69.13.14-.04.25-.09.35-.17.1-.07.17-.16.2-.26.1-.26.11-.59.04-.98-.01-.1-.05-.22-.11-.37-.21-.54-.44-1.09-.68-1.65-.12-.26-.26-.51-.41-.74s-.34-.41-.56-.53-.46-.13-.69-.05c-.22.09-.39.25-.51.5-.12.25-.13.49-.05.72.05.1.17.3.35.61.15.23.28.49.41.76.25.54.42,1.01.52,1.41.09.25.24.45.45.61Z"/>
      <path class="cls-5" d="m126.33,148.33c.04.09.1.3.19.63.09.33.17.57.26.72.1.22.27.38.53.48.25.1.48.1.68,0,.46-.27.6-.74.44-1.41-.15-.51-.31-1-.5-1.48-.22-.74-.46-1.29-.7-1.65-.16-.22-.39-.34-.67-.35-.29-.01-.53.07-.71.26-.32.31-.33.77-.02,1.39.2.44.37.91.52,1.41Z"/>
      <path class="cls-5" d="m147.7,142.6c-.05-.32-.2-.59-.46-.8-.26-.22-.55-.32-.88-.32s-.63.11-.9.33c-.04.05-.1.09-.19.11-.09.02-.16.04-.23.04s-.16,0-.28,0c-.12,0-.19,0-.21,0-.25.01-1.09.03-2.52.06-.06,0-.1-.02-.11-.05-.01-.03-.02-.08,0-.16,0-.07,0-.12,0-.15-.05-.31-.14-.6-.26-.87-.31-.62-.72-.9-1.24-.85-.3.04-.52.18-.68.43s-.19.52-.09.8c.02.09.09.2.2.35.11.15.17.28.19.39.01.3-.04.6-.15.93-.17.46-.52,1.1-1.04,1.92-.44.67-.83,1.2-1.17,1.59-.01.01-.13.13-.34.35-.22.22-.35.4-.4.54-.05.14-.05.3,0,.48.06.26.21.45.44.58s.47.17.72.12c.11-.02.22-.07.32-.13.1-.06.22-.15.33-.27s.2-.21.26-.28c.06-.07.15-.18.28-.34s.2-.25.21-.28c.33-.47.71-1.02,1.13-1.66.17-.28.35-.6.54-.94.02-.05.06-.13.12-.23.06-.1.1-.18.12-.23.02-.04.04-.07.05-.09s.02-.04.04-.05c.02,0,.03,0,.05,0h.17c1.92-.01,3.26-.06,4.01-.13-.37,2.87-1.38,5.46-3.03,7.75-.94,1.27-1.9,2.21-2.89,2.83-.56.36-.73.78-.54,1.26.1.25.27.42.52.52.25.1.49.1.72,0,.78-.32,1.72-1.12,2.83-2.39.88-1.02,1.62-2.13,2.24-3.33.68-1.33,1.19-2.63,1.54-3.9.2-.71.35-1.42.46-2.13.12-.91.16-1.5.11-1.78Z"/>
      <path class="cls-3" d="m90.89,116.79h-2.88v-1.88c0-.65-.53-1.18-1.18-1.18h0c-.65,0-1.18.53-1.18,1.18v1.88h-2.88c-.61,0-1.1.49-1.1,1.1h0c0,.61.49,1.1,1.1,1.1h2.88v1.75h2.35v-1.75h2.88c.61,0,1.1-.49,1.1-1.1h0c0-.61-.49-1.1-1.1-1.1Z"/>
    </g>
  </g>
</svg>