<?xml version="1.0" encoding="UTF-8"?>
<svg id="_レイヤー_2" data-name="レイヤー 2" xmlns="http://www.w3.org/2000/svg" viewBox="0 0 292.45 80.63">
  <defs>
    <style>
      .cls-1 {
        fill: #8bbee3;
      }

      .cls-1, .cls-2, .cls-3, .cls-4, .cls-5, .cls-6 {
        stroke-width: 0px;
      }

      .cls-2, .cls-7 {
        fill: none;
      }

      .cls-3 {
        fill: #f2b059;
      }

      .cls-4 {
        fill: #fff;
      }

      .cls-7 {
        stroke: #fff;
        stroke-linecap: round;
        stroke-miterlimit: 10;
        stroke-width: 1.65px;
      }

      .cls-5 {
        fill: #5c2314;
      }

      .cls-6 {
        fill: #ed8e23;
      }
    </style>
  </defs>
  <g id="_レイヤー_1-2" data-name="レイヤー 1">
    <g>
      <g>
        <path class="cls-4" d="m95.38,5.34c-.24-.12-.44-.34-.69-.45s-.54-.12-.79-.22-.49-.24-.75-.32-.56-.02-.82-.1-.46-.36-.73-.42-.53-.11-.8-.17-.54-.08-.81-.13-.55.02-.82-.02-.51-.32-.78-.35-.56.11-.83.09-.53-.16-.81-.17-.55.17-.82.17-.54.01-.81.01-.54-.07-.81-.06-.53.13-.81.15-.56-.25-.83-.23-.51.35-.78.38-.55-.06-.82-.03-.56-.08-.83-.04-.49.37-.75.42-.57-.09-.83-.03-.55.04-.81.11-.51.21-.77.28-.51.17-.78.24-.51.19-.77.27-.55.04-.81.13-.51.17-.77.26-.45.35-.71.44-.56.04-.82.14-.51.19-.76.3-.43.38-.68.49-.48.25-.73.36-.56.08-.81.19-.42.38-.66.5-.59.03-.83.15-.51.19-.75.32-.45.31-.69.44-.5.21-.74.35-.39.41-.62.55-.55.13-.79.27-.37.44-.6.59-.47.27-.7.42-.48.26-.71.41-.52.2-.75.35-.38.41-.6.57-.42.35-.64.51-.51.23-.72.39-.47.29-.68.45-.4.37-.62.53-.43.33-.65.5-.32.47-.53.64-.39.38-.59.56-.47.39-.67.58c-.2-.18-.36-.52-.56-.69s-.5-.26-.71-.43-.3-.49-.51-.66-.59-.14-.8-.31-.43-.32-.65-.49-.28-.52-.5-.69-.58-.13-.8-.29-.41-.35-.64-.51-.4-.38-.62-.53-.42-.36-.64-.51-.55-.15-.78-.3-.36-.44-.59-.59-.56-.13-.79-.27-.46-.29-.69-.43-.36-.46-.6-.6-.47-.28-.71-.41-.61-.01-.85-.14-.46-.28-.7-.41-.48-.26-.72-.38-.45-.33-.69-.44-.49-.24-.73-.35-.56-.07-.81-.18-.41-.42-.66-.52-.58-.02-.83-.12-.42-.44-.67-.53-.57-.03-.83-.12-.55-.08-.8-.17-.46-.36-.72-.44-.54-.11-.8-.19-.56-.03-.82-.1-.52-.15-.79-.21-.53-.1-.8-.16-.53-.12-.79-.17-.52-.16-.79-.21-.52-.23-.78-.27-.54-.05-.81-.08-.56.15-.83.13-.53-.13-.8-.15-.54-.19-.8-.2-.55.04-.82.04-.54.06-.81.06-.55-.03-.82-.02-.53.16-.8.19-.55-.08-.82-.05-.53.13-.8.17-.53.1-.8.15-.51.2-.77.26-.59-.11-.85-.05-.46.36-.72.44-.59-.06-.84.03-.43.4-.68.5-.57.03-.82.14-.41.4-.65.52c-.25.12-.6.02-.84.15s-.48.27-.72.41-.37.44-.6.59-.4.37-.62.53-.44.31-.66.48-.42.34-.63.52-.59.17-.78.35-.28.5-.47.7-.32.44-.5.64-.41.37-.58.58-.47.33-.63.55-.16.55-.32.78-.46.35-.6.59-.12.56-.25.8-.2.51-.32.75-.45.38-.57.63-.2.51-.31.76-.09.55-.19.8-.26.48-.35.74-.07.55-.14.81-.26.49-.33.76,0,.56-.06.83-.13.53-.18.8-.24.51-.29.78.11.57.08.84-.25.52-.27.79.12.56.1.83-.28.53-.29.8.16.55.16.83.05.54.05.82-.15.55-.14.82.15.54.17.81-.12.55-.1.82.21.53.23.8.06.54.1.81-.22.58-.18.85.34.5.38.77.04.54.09.81.12.53.17.8.08.54.14.81.11.53.18.8-.04.57.03.84.22.51.29.77.11.54.19.8.18.51.27.78.19.51.28.77.3.47.4.73.17.52.26.78.09.54.19.8.29.47.39.72.12.54.23.79.1.55.21.8.23.5.34.75.43.4.55.65.07.57.2.82.25.49.37.73.41.4.53.65.17.52.31.76.33.44.46.68.2.51.34.75.16.54.3.78.27.48.42.71.45.36.6.6.33.44.48.67.24.49.4.72.29.47.45.7c.15.22.19.53.34.75s.52.29.68.51.28.46.44.68.37.4.53.61.16.56.33.77.44.34.61.55.22.51.39.72.39.38.57.58.4.37.57.57.3.46.47.66.49.29.67.49.34.41.53.61.31.45.49.65.42.34.61.53.35.41.54.6.29.48.48.66.42.35.61.53.36.41.56.59.53.22.73.4.34.43.54.61.36.4.57.58.51.23.72.4.34.43.55.6.53.2.74.37.34.44.55.61.4.37.61.53.41.36.63.51.47.28.69.43.46.28.69.43.44.32.66.47.5.23.72.37.41.36.64.5.39.4.62.54.6.05.83.18.41.36.65.49.41.38.64.51.5.21.74.33.57.07.81.19.42.36.66.48.43.36.67.47.49.24.73.35.57.05.81.16.54.11.78.21.42.4.67.5.51.17.76.27.5.19.76.28.5.21.76.29.51.19.76.27.51.2.77.27.54.09.8.15.52.13.78.19.55.03.81.08.5.22.77.27.54.05.8.09.56-.09.82-.05.52.17.78.2.52.17.79.2.55-.13.82-.12.53.02.8.04.53.27.79.28.54-.14.81-.14c.18,0,.36.18.54.19.18,0,.36-.02.54-.03.27,0,.53-.27.8-.28s.54.16.81.14.53-.07.8-.09.54.03.81,0,.53-.11.8-.15.55.03.81-.01.51-.23.77-.27.54-.02.81-.07.49-.28.75-.34.59.15.85.09.52-.15.78-.22.52-.13.78-.2.52-.15.78-.23.49-.22.75-.31.46-.3.72-.39.53-.11.78-.2.46-.29.72-.39.53-.12.78-.22.47-.27.72-.37.54-.11.78-.22.53-.15.77-.26.41-.39.65-.51.53-.14.77-.27.5-.2.74-.33.42-.36.65-.49.54-.13.78-.26.42-.36.65-.49.39-.4.62-.54.46-.27.69-.41.48-.24.71-.39.53-.17.76-.32.4-.36.63-.52.35-.43.57-.59.54-.17.76-.33.46-.28.68-.44.33-.45.55-.61.56-.16.77-.33.26-.54.47-.71.59-.13.8-.3.31-.47.52-.64.51-.23.71-.41.37-.39.57-.57.34-.42.54-.61.45-.3.65-.49.42-.35.61-.53.2-.57.39-.76.55-.21.74-.41.27-.49.46-.68.3-.46.49-.65.51-.26.69-.46.41-.36.59-.56.17-.57.34-.77.45-.32.63-.53.38-.39.55-.6.35-.41.52-.62.36-.4.53-.61.32-.43.49-.65.32-.44.48-.65.36-.41.52-.62.22-.51.38-.73.42-.37.57-.59c.16-.23.22-.52.37-.74s.42-.38.57-.61.13-.57.27-.8.23-.5.37-.73.38-.41.52-.64.38-.41.51-.65.24-.49.38-.73.3-.46.44-.7.15-.54.28-.79.15-.54.27-.78.48-.37.6-.62.21-.51.32-.76.14-.54.25-.79.33-.45.44-.7.26-.49.37-.74.09-.56.2-.81.35-.45.45-.71.06-.56.16-.82.26-.49.35-.75,0-.58.08-.84.38-.45.46-.71.07-.55.15-.81.26-.5.34-.76-.12-.6-.05-.86.17-.52.24-.78.32-.49.38-.75.11-.54.16-.81-.09-.57-.04-.84.12-.53.16-.8.3-.51.34-.78.08-.54.11-.81-.16-.57-.13-.84.04-.54.06-.81-.04-.55-.03-.82.01-.54.02-.81.29-.54.29-.81.01-.55,0-.82-.17-.54-.19-.81.06-.55.04-.82-.02-.55-.05-.82-.1-.54-.13-.81-.13-.54-.17-.81-.1-.54-.15-.81.05-.57,0-.84-.39-.47-.45-.73-.16-.52-.23-.78.01-.58-.07-.83-.27-.48-.36-.74-.09-.55-.19-.8-.32-.46-.43-.7-.06-.58-.18-.82-.37-.42-.51-.66-.27-.48-.41-.71-.38-.4-.54-.62-.12-.59-.28-.8-.55-.27-.72-.48-.27-.48-.45-.68-.28-.48-.47-.68-.46-.31-.66-.49-.27-.52-.48-.69-.58-.15-.8-.32-.28-.53-.5-.69-.5-.24-.73-.39-.49-.24-.72-.38-.42-.36-.67-.49-.55-.12-.8-.24Z"/>
        <g>
          <path class="cls-3" d="m88.41,76.51c0,.2-.13.46-.36.65-.15.13-.43.15-.68.27-.19.1-.42.14-.67.23-.21.08-.37.34-.61.42-.22.07-.49-.04-.74.03-.22.06-.46.07-.7.13-.22.05-.45.13-.69.18-.23.05-.44.19-.68.24-.23.04-.48-.02-.73.02s-.44.26-.68.3-.47.05-.72.09-.48.04-.72.07-.48-.02-.73,0-.47.06-.71.09-.45.21-.69.24-.47.04-.71.07-.49-.1-.73-.07-.46.17-.7.2-.47.12-.71.14-.48.01-.72.03-.48.02-.72.04-.49-.08-.73-.06-.47.07-.72.09-.48.04-.72.06-.47.16-.71.18-.49-.19-.73-.18-.46.29-.7.3-.49-.22-.73-.21-.47.14-.71.15-.48.05-.72.06-.49-.11-.73-.1-.47.24-.71.25-.49-.12-.73-.12-.48.04-.72.05-.48-.09-.72-.08-.48.16-.72.17-.48.1-.72.11-.49-.14-.73-.13-.48.05-.72.06-.48-.02-.73-.02-.48.08-.72.08-.48-.12-.73-.12-.48-.02-.73-.02-.48.23-.73.23-.49-.18-.73-.18-.49.07-.73.07-.48-.02-.72-.02-.48-.1-.72-.11-.48.1-.72.1-.48.12-.72.12-.48-.15-.72-.15-.48.1-.72.1-.48-.16-.72-.17-.48.08-.72.07-.48-.11-.72-.11-.49.08-.73.07-.48-.04-.72-.05-.48.03-.72.03-.49.07-.73.06-.48-.16-.72-.17-.48.02-.72.01-.48-.03-.72-.04-.48-.16-.71-.17-.49.09-.73.07-.49.14-.73.13-.48-.06-.72-.07-.48-.04-.72-.06-.47-.27-.7-.28-.49.1-.73.08-.47-.12-.71-.14-.49.1-.73.08-.48-.05-.72-.08-.49.05-.73.03-.47-.13-.71-.15-.47-.13-.71-.16-.49.05-.73.02-.49.02-.73-.01-.46-.26-.69-.29-.48-.05-.72-.08-.47-.12-.71-.15-.5.04-.73,0-.47-.15-.7-.19-.47-.09-.7-.13c-.24-.04-.47-.12-.7-.17-.24-.05-.48-.08-.71-.13-.24-.05-.51.03-.73-.03-.24-.06-.5-.03-.72-.09-.24-.07-.48-.12-.7-.18-.24-.08-.47-.17-.68-.25-.25-.09-.4-.34-.6-.43-.25-.12-.5-.18-.65-.3-.23-.19-.24-.42-.24-.62s0-.45.24-.64c.15-.13.34-.32.59-.44.19-.1.44-.16.68-.25.21-.08.43-.19.67-.26.22-.07.5.07.75,0,.22-.06.41-.28.65-.34.22-.05.46-.09.71-.14.23-.05.45-.18.69-.23.23-.04.51.17.75.13s.45-.16.69-.2.47-.08.71-.11.46-.12.7-.16.47-.11.71-.15.48,0,.72-.03.48.06.72.03.47-.05.71-.08.45-.22.7-.24.49.11.73.09.46-.16.7-.18.46-.18.7-.2.49.14.73.11.47-.07.72-.09.47-.09.72-.11.49.07.73.05.48-.02.72-.04.47-.05.71-.06.47-.13.71-.14.48.09.72.08.48,0,.72,0,.47-.27.71-.28.48.08.73.06.49.13.73.12.47-.19.72-.2.49.13.73.13.47-.18.71-.18.48.11.72.1.48-.08.72-.08.48-.08.72-.08.49.13.73.13.48.03.73.03.48-.08.72-.09.48-.13.72-.14.49.18.73.17.48-.19.73-.19.49,0,.73,0,.49.03.74.03.48.06.72.06.48.14.72.14.48-.13.72-.12.48-.13.72-.13.48.18.72.18.48,0,.72,0,.48,0,.72.01.48.07.72.07.49-.15.73-.15.48.2.72.21.48-.04.72-.03.49-.1.73-.09.48.04.72.05.48.14.72.15.48.05.72.06.49-.19.73-.18.48.03.72.05.48.11.72.12.49-.11.73-.09.48.13.71.15.49-.1.73-.08.48.07.72.08.46.27.7.29.48,0,.72.02.49-.11.73-.09.49-.03.72,0,.48.03.72.06.47.13.71.16.48.01.72.03.47.13.71.16.48.08.72.11.5-.07.74-.04.46.25.69.28.49.02.72.05.47.12.7.16.5-.09.74-.05.45.26.68.3c.24.04.49.04.71.08.24.05.47.13.7.18.24.05.5.01.72.07.24.06.51,0,.73.06.24.07.48.12.7.18.24.08.45.24.65.31.25.09.51.12.7.21.25.12.48.26.63.39.23.19.32.49.32.69Z"/>
          <g>
            <g>
              <path class="cls-2" d="m85.9,66.58c.09-.06.18-.12.26-.18.06-.05.1-.07.15-.11-.18.05-.36.09-.5.19-.23.16-.36.44-.59.61.08-.06.15-.12.22-.18.16-.13.31-.23.46-.33Z"/>
              <path class="cls-2" d="m73,74.2c.11,0,.22.02.34.04.16.02.31.04.43.03.16-.01.31-.06.48-.1l.29-.08c.25-.06.5-.14.76-.24.04-.01.08-.01.12-.02.08-.05.16-.1.23-.15.13-.09.27-.18.41-.26l.34-.19c.14-.08.29-.16.43-.24.15-.09.3-.16.45-.23.11-.05.23-.11.33-.17.11-.07.21-.15.31-.22.13-.1.27-.2.41-.29.12-.07.23-.16.35-.24.12-.09.25-.18.37-.26.16-.1.32-.18.49-.26.1-.05.2-.09.29-.15.09-.06.16-.13.23-.21.14-.14.28-.27.44-.37.14-.09.28-.17.42-.26.11-.07.23-.13.33-.21.13-.09.26-.17.4-.26.12-.07.23-.14.34-.22l.69-.49c.15-.11.26-.2.37-.29.12-.1.23-.19.35-.28.14-.1.28-.19.41-.28.11-.07.22-.14.31-.21.06-.04.13-.13.21-.22.11-.13.24-.28.41-.42.16-.13.3-.23.42-.33-.23.16-.49.28-.72.44-.24.16-.59.18-.83.34-.24.16-.39.45-.63.6-.25.16-.44.38-.69.53-.25.15-.58.18-.83.33-.25.15-.53.25-.78.4-.25.15-.51.28-.76.42-.25.14-.43.41-.68.55-.26.14-.46.37-.71.51-.26.14-.6.14-.86.27-.26.13-.46.37-.72.5-.26.13-.55.21-.81.34-.27.13-.58.15-.85.27-.27.12-.45.41-.72.53-.27.12-.58.16-.85.27-.27.11-.59.12-.87.23-.26.1-.5.26-.75.37.06.02.12.05.18.06.25.07.49.11.73.13Z"/>
              <path class="cls-6" d="m111.9,23.24c0-.28.01-.57,0-.84,0-.28-.19-.56-.21-.84-.01-.28.07-.57.04-.85-.02-.28-.03-.56-.06-.84-.03-.28-.1-.56-.14-.83-.04-.28-.14-.55-.19-.83-.05-.28-.11-.55-.17-.83-.06-.28.06-.59,0-.86-.07-.28-.43-.48-.5-.75-.08-.27-.17-.53-.26-.8-.09-.27.02-.59-.08-.86-.1-.27-.3-.5-.4-.76-.11-.26-.1-.57-.21-.83-.12-.26-.35-.47-.48-.72-.13-.26-.07-.6-.2-.84-.14-.25-.41-.43-.56-.68-.15-.24-.3-.49-.45-.73-.16-.24-.42-.41-.59-.64-.17-.23-.13-.6-.31-.83-.18-.23-.6-.27-.79-.49-.19-.22-.3-.49-.5-.7-.2-.21-.31-.49-.52-.69-.21-.2-.51-.31-.73-.51-.22-.19-.3-.53-.53-.71-.23-.18-.64-.15-.88-.33-.24-.17-.31-.55-.55-.71-.24-.16-.55-.25-.8-.4-.25-.15-.54-.25-.8-.39-.26-.14-.47-.37-.73-.5-.26-.13-.61-.12-.88-.25-.27-.12-.49-.35-.76-.46-.27-.11-.59-.12-.87-.23-.28-.1-.54-.24-.82-.33-.28-.09-.62-.02-.91-.1-.29-.08-.51-.37-.8-.44-.29-.07-.59-.11-.88-.17-.29-.06-.59-.08-.89-.13-.29-.05-.61.02-.9-.02-.29-.04-.56-.33-.86-.36-.3-.03-.61.11-.91.09-.3-.02-.59-.16-.89-.18-.3-.01-.6.18-.9.17-.3,0-.59.01-.89.01-.3,0-.6-.08-.9-.07-.3.01-.59.13-.89.15-.3.02-.62-.26-.92-.24-.3.03-.56.36-.86.39-.3.03-.61-.07-.91-.03-.29.04-.62-.09-.92-.04-.29.05-.53.38-.83.43-.29.05-.63-.09-.92-.03-.29.06-.6.05-.89.11-.29.06-.56.22-.85.29-.29.07-.57.18-.86.25-.29.08-.56.2-.85.28-.28.08-.61.05-.9.13-.28.09-.57.18-.85.27-.28.09-.5.36-.78.45-.28.1-.62.04-.9.15-.28.1-.56.2-.84.3-.28.11-.47.39-.75.5-.27.11-.53.26-.8.37-.27.11-.62.08-.89.2-.27.12-.46.39-.73.51-.27.12-.65.03-.92.16-.27.13-.56.2-.83.33-.26.13-.49.32-.76.46-.26.13-.55.22-.81.36-.26.14-.43.42-.69.56-.26.14-.61.13-.87.28-.26.14-.4.45-.66.6-.25.15-.52.28-.77.43-.25.15-.53.26-.78.42-.25.15-.58.21-.82.36-.25.16-.42.42-.66.58-.24.16-.46.36-.7.53-.24.16-.56.24-.8.4-.24.17-.51.3-.75.47-.24.17-.45.38-.68.55-.23.17-.48.34-.71.52-.23.18-.35.48-.58.66-.23.18-.43.4-.66.58-.23.18-.51.41-.74.59-.23-.18-.39-.53-.62-.71-.23-.18-.55-.26-.78-.44-.23-.18-.33-.51-.56-.68-.23-.18-.65-.14-.88-.32-.24-.17-.48-.33-.72-.5-.24-.17-.31-.54-.55-.71-.24-.17-.64-.14-.88-.3-.24-.16-.46-.36-.7-.53-.25-.16-.44-.39-.69-.55-.25-.16-.46-.37-.71-.52-.25-.16-.61-.16-.86-.31-.25-.15-.4-.46-.65-.61-.25-.15-.61-.14-.87-.28-.26-.15-.5-.3-.76-.44-.26-.14-.4-.48-.66-.61-.26-.14-.52-.29-.78-.42-.26-.13-.67-.01-.94-.14-.27-.13-.51-.29-.78-.42-.27-.13-.52-.27-.79-.39-.27-.12-.49-.34-.76-.45-.27-.12-.54-.25-.81-.36-.27-.11-.62-.07-.89-.18-.28-.11-.45-.43-.73-.54-.28-.11-.63-.02-.91-.12-.28-.1-.46-.45-.74-.55-.28-.1-.63-.03-.91-.12-.28-.09-.6-.09-.89-.17-.29-.09-.5-.37-.79-.45-.29-.08-.59-.12-.88-.19-.29-.08-.61-.03-.9-.1-.29-.07-.58-.15-.87-.21-.29-.06-.59-.1-.88-.16-.29-.06-.58-.12-.88-.17-.3-.05-.58-.17-.87-.21-.3-.05-.57-.24-.86-.28-.3-.04-.6-.05-.9-.08-.3-.03-.62.16-.92.13-.3-.03-.59-.13-.88-.15-.3-.02-.59-.2-.89-.21-.3-.01-.6.04-.9.04-.3,0-.6.06-.9.07-.3,0-.6-.03-.9-.02-.3.01-.59.17-.89.19-.3.02-.61-.08-.91-.05-.3.03-.58.14-.88.18-.3.04-.59.1-.88.15-.29.05-.56.21-.85.27-.29.06-.65-.12-.93-.05-.29.07-.51.37-.79.45-.29.08-.65-.06-.93.03-.28.09-.47.41-.75.51-.28.1-.63.03-.9.14-.27.11-.45.42-.72.54-.27.12-.66.03-.93.16-.27.13-.53.28-.79.42-.26.14-.41.46-.66.61-.25.15-.44.38-.69.55-.25.16-.49.32-.72.49-.24.17-.47.35-.69.53-.23.18-.65.17-.86.36-.22.19-.3.52-.51.72-.21.2-.36.45-.56.66s-.45.38-.64.59c-.19.22-.51.34-.69.57-.18.23-.18.57-.35.8-.17.23-.51.36-.67.6-.16.24-.13.58-.28.82-.15.24-.22.52-.35.77-.14.25-.5.39-.63.65-.13.25-.23.52-.34.78-.11.26-.1.56-.21.83-.1.26-.29.5-.38.77-.09.27-.07.56-.16.84-.08.27-.28.51-.36.78-.07.27,0,.58-.06.85-.07.27-.14.54-.2.82-.06.27-.27.52-.32.8-.05.28.12.58.09.86-.04.28-.27.53-.3.81-.03.28.13.57.11.85-.02.28-.3.54-.32.83-.01.28.18.57.18.85,0,.28.05.56.05.84,0,.28-.16.56-.15.84,0,.28.17.55.18.84.02.28-.13.57-.11.85.02.28.23.54.26.82.03.28.07.55.11.83.04.28-.24.59-.2.87.04.28.37.51.42.79.05.28.05.56.1.83.05.27.13.54.19.82.06.27.09.55.15.83.06.27.12.55.2.82.07.27-.04.59.03.86.08.27.24.52.33.79.08.27.12.55.21.82.09.27.2.53.29.8.09.27.21.53.31.79.09.27.34.48.44.75.1.26.18.53.29.8.1.26.1.56.21.82.11.26.32.48.43.75.11.26.14.55.25.81.12.26.11.57.24.82.12.26.25.51.38.77.13.25.48.41.61.67.13.25.08.59.22.84.13.25.27.5.41.75.14.25.45.42.59.67.14.25.19.54.34.79.14.25.36.45.51.7.15.24.22.53.37.77.15.24.17.56.33.8.15.24.3.49.46.73.16.24.5.37.66.61.16.24.36.45.53.69.16.24.27.51.44.74.17.23.32.48.49.72.17.23.21.54.38.77.17.23.57.3.75.52.17.22.31.47.49.7.18.22.4.41.58.63.18.22.18.57.36.79.18.22.49.35.67.56.19.22.25.53.43.74.19.21.43.39.62.6.19.21.44.38.63.59.19.21.33.47.52.68.2.21.54.3.74.5.2.21.38.43.58.63.2.2.34.46.54.66.21.2.47.35.68.55.21.2.39.42.6.61.21.2.32.49.53.68.21.19.46.36.67.55.22.19.4.42.62.6.22.19.59.22.81.41.22.19.38.44.6.62.22.18.4.42.63.6.23.18.56.24.79.42.23.18.38.44.61.62.23.17.58.21.81.38.23.17.37.45.61.62.24.17.44.38.68.54.24.17.45.37.69.53.24.16.51.29.76.45.24.16.51.29.76.45.25.16.48.33.73.48.25.15.55.24.8.39.25.15.46.37.71.51.25.15.43.42.68.56.25.14.66.05.92.19.26.14.46.37.71.51.26.14.45.39.71.52.26.13.55.21.82.34.26.13.63.07.9.19.27.13.46.37.73.49.27.12.47.37.74.49.27.12.54.25.81.36.27.11.63.05.9.16.27.11.59.11.86.22.02,0,.05.03.07.04.15-.04.29-.07.37-.12.12-.06.23-.18.36-.32l.19-.19c.09-.1.24-.24.26-.3.03-.09,0-.27-.02-.44l-.03-.21c-.02-.14-.04-.31-.08-.38-.12-.24-.24-.45-.35-.6-.11-.15-.25-.24-.34-.3l-.2-.16s-.02-.03-.03-.04c-.1-.05-.2-.1-.3-.16-.15-.08-.3-.17-.44-.25-.11-.06-.22-.13-.32-.19-.06-.03-.16-.06-.26-.09-.17-.05-.37-.11-.57-.23-.16-.09-.31-.2-.46-.31-.09-.07-.18-.13-.27-.19-.16-.09-.3-.19-.45-.3-.1-.07-.19-.14-.29-.2-.15-.09-.29-.18-.43-.27-.11-.07-.21-.14-.32-.2-.05-.03-.16-.07-.25-.1-.16-.06-.37-.13-.57-.25-.21-.13-.37-.29-.5-.42-.06-.06-.14-.14-.18-.17-.08-.05-.18-.09-.28-.13-.18-.08-.36-.16-.52-.26-.15-.1-.29-.2-.42-.3-.1-.07-.2-.15-.29-.21-.15-.1-.29-.21-.43-.31-.1-.07-.19-.14-.29-.21l-.32-.21c-.14-.09-.28-.19-.42-.28-.11-.08-.22-.15-.33-.21-.14-.09-.28-.18-.41-.27-.11-.08-.23-.15-.33-.22-.14-.09-.28-.18-.4-.27l-.29-.21c-.16-.12-.3-.22-.42-.32-.33-.25-.45-.41-.55-.57-.02-.04-.03-.04-.09-.09-.35-.29-.39-.81-.1-1.16.29-.35.81-.39,1.16-.1.22.19.32.33.4.45.02.04.04.06.18.17.11.09.25.18.39.29l.3.22c.09.07.19.13.29.19.14.09.29.18.43.28.1.07.2.14.31.21.13.08.27.17.4.26.12.08.24.16.37.25l.35.23c.11.08.22.16.33.24.12.09.24.18.37.27.12.08.24.17.36.26.11.08.22.17.34.24.08.05.17.08.26.12.18.07.36.15.52.26.2.13.35.28.47.4.07.07.15.15.19.18.04.03.15.06.24.09.16.06.37.13.57.25.12.07.24.15.36.23.12.08.24.16.37.23.14.08.27.18.41.27.1.07.2.15.31.21.15.08.28.18.42.29.1.07.19.14.29.2.05.03.15.06.25.09.16.05.37.11.57.23.12.07.25.14.37.21.12.07.25.15.38.22.15.08.3.16.45.24l.32.16c.16.09.31.19.46.3.09.06.18.13.28.18.13.07.26.13.4.19.07.03.14.07.21.1.05.01.1,0,.14.03.17.07.35.1.52.14l.21.05c.12.03.23.06.34.09.15.04.29.08.39.09.08,0,.2-.03.33-.06.13-.03.26-.07.38-.09.17-.03.36-.03.53-.03.08,0,.18,0,.21,0,0,0,.12-.12.18-.19.08-.09.16-.17.24-.24.08-.07.28-.25.3-.32.02-.08-.08-.38-.12-.5l-.04-.12c-.07-.22-.14-.44-.25-.59-.11-.14-.27-.29-.44-.44l-.17-.09c-.18-.09-.35-.21-.52-.34-.08-.06-.16-.13-.25-.18-.16-.08-.32-.17-.47-.26l-.33-.19c-.05-.03-.16-.06-.27-.09-.17-.05-.39-.11-.6-.23-.16-.09-.31-.18-.46-.28-.11-.07-.22-.14-.33-.2-.17-.1-.32-.21-.47-.33-.09-.07-.18-.14-.28-.2-.1-.06-.2-.1-.31-.14-.18-.08-.36-.15-.52-.25-.11-.07-.23-.13-.34-.2-.15-.09-.3-.17-.45-.26-.17-.1-.32-.23-.47-.36-.08-.07-.17-.15-.26-.2l-.31-.19c-.16-.1-.31-.19-.46-.29-.15-.09-.29-.19-.43-.29-.11-.08-.21-.15-.32-.22-.08-.05-.17-.09-.26-.12-.16-.07-.37-.15-.56-.28-.16-.1-.3-.23-.44-.35-.09-.08-.18-.15-.27-.22-.15-.1-.29-.22-.43-.34-.09-.08-.19-.16-.29-.23-.14-.1-.28-.21-.42-.31-.1-.08-.21-.16-.31-.24-.06-.04-.16-.09-.27-.13-.17-.07-.36-.16-.55-.3-.21-.15-.36-.33-.48-.47-.06-.07-.13-.16-.17-.19-.09-.07-.19-.11-.29-.16-.18-.09-.35-.19-.5-.3-.15-.11-.29-.23-.43-.35-.09-.08-.18-.16-.27-.23-.15-.12-.3-.24-.43-.35-.09-.08-.18-.15-.27-.22l-.35-.27c-.14-.1-.26-.2-.37-.29-.19-.16-.27-.21-.34-.26-.1-.07-.18-.12-.39-.3-.35-.29-.39-.81-.09-1.16.29-.35.81-.39,1.16-.09.13.11.18.15.24.19.09.06.2.13.46.34.1.08.21.16.33.25.12.09.25.19.38.29.1.08.21.17.31.26.12.1.24.21.38.31.11.09.22.18.34.28.11.1.23.19.35.29.08.06.17.1.26.15.18.09.35.19.52.31.19.14.33.3.44.43.07.08.15.17.2.21.05.03.15.08.24.12.16.07.36.16.56.3.12.09.24.18.36.27.12.09.24.18.36.27.13.09.26.2.39.31.1.08.2.17.31.25.14.1.27.21.41.32.09.08.19.16.29.23.05.04.16.08.26.12.19.08.38.16.55.27.12.08.25.17.37.25.12.09.24.17.37.25.14.09.29.18.44.27l.32.2c.16.1.3.22.44.34.09.07.18.15.27.21.13.08.26.16.4.23.13.07.25.14.38.22.1.06.21.1.31.15.17.07.34.15.5.24.16.09.3.2.45.31.09.07.19.15.29.21.14.08.27.16.4.25.12.08.24.15.37.22.05.03.16.06.27.09.17.05.38.11.58.22.12.07.25.14.37.21.14.08.27.16.42.23.17.09.33.21.49.33.08.06.17.13.26.18l.32.16h0s0,0,0,0l.05.03c.14.08.29.15.43.22.06.03.17.05.28.08.13.03.29.07.45.13.03,0,.06,0,.09.01.3.11.5.19.68.22.19.03.38.03.61.03.2,0,.29,0,.39,0,.15,0,.3.01.39,0,.16-.04.33-.12.52-.22l.26-.13c.13-.06.3-.14.35-.19.03-.03.07-.18.1-.29l.1-.34c.03-.1.08-.24.08-.29-.01,0-.1-.12-.17-.19-.09-.11-.18-.22-.25-.33-.1-.15-.19-.29-.27-.41-.14-.07-.28-.13-.42-.21-.11-.06-.22-.11-.33-.17-.17-.08-.33-.18-.49-.29-.08-.05-.16-.1-.25-.15-.24-.06-.52-.14-.81-.32-.09-.06-.16-.13-.21-.21-.09-.05-.19-.1-.28-.16-.11-.06-.21-.13-.32-.19-.05-.03-.15-.05-.25-.08-.17-.05-.39-.11-.6-.22-.15-.08-.3-.17-.45-.26l-.32-.19c-.17-.1-.33-.23-.49-.36-.07-.06-.15-.13-.23-.18-.15-.09-.29-.18-.44-.27l-.32-.2s-.15-.06-.25-.09c-.17-.06-.38-.12-.58-.25-.15-.09-.29-.19-.43-.29-.1-.07-.21-.14-.31-.21-.16-.1-.31-.22-.45-.34-.08-.07-.17-.14-.26-.2-.09-.06-.19-.1-.29-.15-.17-.08-.34-.16-.5-.26-.11-.07-.22-.14-.33-.21-.14-.09-.28-.17-.42-.26-.16-.11-.31-.24-.45-.37-.08-.07-.15-.14-.24-.2l-.74-.49c-.14-.1-.28-.2-.41-.3-.1-.08-.2-.15-.3-.23-.05-.04-.15-.08-.25-.12-.16-.07-.35-.15-.54-.29-.15-.11-.29-.23-.43-.36-.08-.08-.16-.15-.25-.22-.15-.11-.29-.23-.42-.35-.09-.08-.17-.15-.26-.22-.14-.11-.28-.21-.41-.32-.1-.08-.19-.16-.29-.23-.06-.04-.15-.09-.26-.14-.16-.08-.34-.16-.52-.3-.21-.16-.36-.35-.47-.49-.05-.06-.11-.14-.14-.16-.1-.08-.21-.14-.31-.19-.17-.09-.32-.18-.45-.28-.28-.23-.36-.31-.45-.4-.05-.05-.1-.1-.22-.2-.35-.29-.39-.81-.09-1.16.29-.35.82-.39,1.16-.09.17.14.24.21.31.28.06.06.12.12.33.29.06.05.13.08.2.12.17.1.36.2.54.34.17.14.29.29.4.43.07.09.14.18.2.22.03.03.13.07.21.11.16.08.36.17.56.32.11.08.22.17.33.27.11.09.23.19.35.28.13.09.25.2.37.31.1.08.19.17.3.25.13.1.26.21.39.33.09.08.18.17.28.24.05.03.14.08.24.12.16.07.35.15.55.29.12.08.23.17.35.26.12.09.23.18.35.26l.72.49c.15.1.29.22.42.35.08.07.16.15.25.21.12.08.24.15.37.23.12.08.25.15.37.23.09.06.19.1.29.15.17.08.33.16.49.26.15.09.29.21.43.32.09.07.17.15.27.21.13.08.26.17.38.26.11.08.22.16.34.23.04.03.15.06.24.09.16.05.37.12.57.24.12.07.24.15.35.22.13.08.25.16.39.24.17.1.32.22.47.35.08.06.15.13.24.18.12.07.24.14.36.21.13.08.26.16.4.23.05.03.16.06.25.08.17.05.37.1.58.21.13.07.26.15.39.22.12.07.24.15.37.21.23.12.46.23.7.35l.11.03c.17.05.36.06.63.06h.23c.17,0,.34,0,.42-.03.18-.07.37-.18.53-.31.17-.14.29-.29.35-.42,0-.01,0-.13-.01-.21,0-.1-.01-.19-.01-.29v-.11c0-.18,0-.33-.03-.44-.09-.27-.15-.45-.23-.56-.13-.18-.25-.32-.35-.42-.07-.03-.14-.04-.21-.06-.18-.05-.39-.11-.6-.22-.22-.12-.39-.27-.53-.39-.08-.07-.16-.14-.21-.16-.09-.05-.19-.08-.29-.12-.19-.07-.38-.14-.55-.23-.15-.09-.3-.18-.45-.28-.11-.07-.22-.14-.33-.2-.15-.09-.3-.18-.45-.28-.11-.07-.22-.14-.33-.2l-.34-.19c-.15-.09-.3-.17-.45-.26-.11-.07-.22-.13-.34-.19-.15-.08-.31-.16-.45-.25-.11-.07-.22-.13-.34-.19-.16-.08-.31-.17-.46-.26l-.32-.2c-.15-.1-.3-.19-.45-.29-.2-.13-.36-.29-.48-.41-.07-.07-.13-.14-.21-.19l-.31-.2c-.15-.1-.3-.2-.45-.3-.09-.06-.19-.11-.29-.15-.18-.09-.36-.17-.51-.28-.15-.1-.29-.21-.42-.32-.1-.08-.2-.16-.3-.23-.12-.08-.23-.16-.34-.23-.14-.09-.28-.18-.41-.28-.16-.12-.31-.26-.45-.39-.08-.08-.15-.15-.24-.21-.11-.08-.23-.16-.34-.23-.15-.1-.29-.19-.41-.28-.18-.14-.33-.29-.47-.44-.07-.07-.13-.13-.19-.18-.14-.12-.18-.13-.24-.15-.15-.06-.31-.14-.55-.34-.35-.3-.39-.82-.09-1.16.29-.35.82-.38,1.16-.09.03.03.06.05.08.06.2.08.37.16.67.4.11.09.22.2.33.32.09.09.19.2.31.29.09.07.19.14.3.2.14.09.29.19.43.3.13.1.25.21.38.33.09.09.18.18.29.25.1.08.21.15.33.22.13.09.27.18.41.27.12.08.24.18.35.27.11.09.23.18.35.27.08.06.18.1.27.14.18.08.35.17.52.28l.47.31c.11,0,.22.02.33.07.05.02.12.06.21.11.13.08.31.18.55.26.24.08.52.15.82.21l.17.03c.21.04.43.09.65.11.07,0,.2-.03.32-.06.15-.04.31-.07.46-.09.28-.03.5-.07.71-.15.1-.04.2-.07.31-.1.14-.04.29-.09.35-.14.21-.15.37-.28.47-.4,0-.01,0-.18,0-.29,0-.15,0-.23-.09-.35l-.1-.14c-.11-.16-.22-.31-.36-.43-.08-.07-.18-.12-.29-.17-.15-.08-.3-.16-.45-.26-.14-.1-.3-.19-.46-.28l-.31-.18c-.14-.09-.28-.19-.42-.3-.1-.08-.21-.17-.32-.23-.12-.07-.24-.13-.37-.2-.13-.07-.28-.15-.43-.23-.16-.09-.33-.2-.52-.31l-.29-.18c-.07-.04-.14-.06-.22-.09-.18-.07-.41-.16-.65-.32-.15-.1-.29-.22-.44-.35-.09-.08-.19-.17-.3-.25-.14-.1-.28-.22-.42-.35-.09-.09-.19-.17-.3-.26-.14-.11-.28-.22-.42-.35-.1-.08-.2-.17-.31-.26-.07-.05-.15-.09-.23-.13-.17-.09-.38-.2-.57-.36-.35-.29-.39-.81-.1-1.16.29-.35.81-.39,1.16-.1.06.05.17.11.28.17.18.1.36.19.5.31.12.1.23.19.34.29.12.1.24.2.35.29.14.11.27.22.39.34.1.09.19.17.29.25.15.11.29.23.42.34.09.08.18.16.28.23.08.05.19.1.32.15.18.07.35.14.49.23l.31.19c.16.1.3.19.44.27.14.08.27.15.39.21.14.08.28.15.41.22.19.11.37.24.53.37.09.07.17.13.25.19l.29.17c.2.11.38.22.55.34.11.07.21.13.32.18.21.11.4.22.55.35.32.26.52.55.67.76l.08.11c.3.42.43.86.41,1.37-.02.38-.05.86-.37,1.26-.24.3-.52.51-.71.65-.36.27-.68.37-.93.45-.07.02-.14.04-.21.07-.38.14-.75.2-1.09.24-.04,0-.09.02-.13.03.03.01.05.03.08.04l.37.21c.12.07.25.15.37.23.13.08.26.16.39.24.13.08.26.16.39.24.12.08.24.15.37.23.09.05.19.08.29.12.18.06.37.13.54.22.21.11.37.26.5.37.08.07.16.14.21.17.06.03.17.06.28.09.2.06.4.12.59.21.05.03.09.06.14.09.25.2.48.46.73.8.22.31.33.64.42.9.16.45.15.8.15,1.07,0,.16,0,.22,0,.28.02.26.04.62-.13.99-.16.35-.42.69-.79,1-.22.19-.47.33-.72.46.09.13.19.28.27.4.04.06.09.11.13.17.17.2.39.46.5.83.13.47,0,.9-.1,1.2l-.08.26c-.07.27-.18.68-.52,1.03-.25.26-.55.4-.81.52l-.15.07c-.32.16-.62.31-.99.39-.19.04-.37.05-.53.05-.09,0-.18,0-.27,0h-.23c-.36,0-.67,0-1.01-.07-.07-.01-.13-.03-.2-.05.1.35.2.8.05,1.27-.15.49-.51.82-.78,1.05-.04.04-.08.09-.13.13-.17.19-.41.45-.78.6-.31.13-.61.13-.85.12-.08,0-.17,0-.25,0-.07.01-.14.03-.22.05-.2.05-.45.12-.73.12-.03,0-.06,0-.09,0-.29-.01-.54-.09-.76-.15-.08-.02-.17-.05-.25-.07l-.18-.04c-.09-.02-.19-.04-.28-.07l.02.15c.06.35.11.76-.03,1.2-.13.43-.43.73-.66.97l-.16.16s-.1.1-.15.15c.19.07.37.13.56.2.28.09.55.21.83.3.28.09.56.2.84.28.28.08.56.2.84.28.29.08.59.09.88.16.29.07.58.13.87.2.29.07.6.03.89.09.29.06.56.22.85.28.29.05.59.05.88.1.29.05.62-.09.91-.05.29.04.57.17.86.21.29.03.58.17.87.2.3.03.61-.14.9-.12.3.02.59.02.88.04.3.01.58.28.88.29.3,0,.59-.14.89-.14.2,0,.39.19.59.19.2,0,.4-.02.59-.03.29,0,.59-.28.88-.29.29,0,.59.16.89.15.29-.01.59-.07.88-.09.29-.02.6.03.89,0,.29-.03.58-.12.88-.15.29-.03.6.03.9-.01.29-.04.56-.23.85-.28.29-.05.6-.02.89-.07.29-.05.54-.29.83-.35.29-.06.65.16.93.09.29-.06.57-.15.86-.22.29-.07.58-.13.86-.21.28-.08.57-.15.86-.23.28-.08.54-.23.83-.32.28-.09.51-.31.79-.4.17-.06.35-.09.53-.13-.06-.05-.12-.09-.17-.14-.31-.32-.53-.69-.65-1.09-.13-.43-.07-.82-.02-1.11.02-.1.04-.17.06-.26-.16.08-.33.15-.53.2-.36.08-.7.13-1.03.15h-.19c-.14.02-.29.03-.45.03-.14,0-.29,0-.44-.03-.35-.06-.63-.19-.86-.3l-.17-.08c-.36-.15-.69-.36-.98-.62-.33-.3-.56-.67-.7-1.1-.13-.41-.14-.83-.05-1.25-.05,0-.1.01-.15.02-.08.02-.16.05-.24.07-.21.07-.46.16-.76.16h0c-.34,0-.62-.11-.82-.18-.07-.02-.13-.05-.2-.07l-.22-.04c-.25-.04-.53-.09-.81-.23-.36-.18-.68-.4-.93-.66-.28-.28-.58-.63-.71-1.08-.15-.52-.01-.99.09-1.34.11-.37.27-.72.51-1.08.11-.16.23-.32.36-.47-.24-.12-.47-.26-.7-.45l-.15-.12c-.22-.17-.53-.42-.71-.81-.16-.37-.15-.73-.14-.99v-.17c0-.32,0-.69.14-1.09.11-.31.27-.62.5-.94.2-.28.45-.47.66-.64l.1-.08s.09-.06.14-.09c.12-.06.23-.13.34-.2.14-.09.28-.18.43-.26.13-.07.25-.14.37-.22.13-.08.26-.16.4-.23.16-.09.33-.16.51-.22.11-.04.22-.08.31-.14.09-.05.17-.12.25-.19.15-.13.31-.25.47-.35.14-.08.29-.15.43-.23.12-.06.24-.12.36-.19.11-.07.23-.13.34-.19-.02,0-.04,0-.06,0-.34-.04-.64-.16-.9-.27l-.19-.07c-.07-.03-.14-.05-.22-.07-.25-.08-.57-.17-.87-.4-.22-.17-.35-.39-.47-.58-.05-.08-.09-.16-.15-.24l-.09-.1c-.18-.2-.49-.53-.52-1.05-.03-.56.24-1.02.51-1.39l.08-.11c.15-.21.35-.5.67-.77.16-.13.35-.24.56-.35.1-.06.21-.11.32-.18.08-.05.16-.12.25-.18.17-.13.35-.26.55-.38.16-.1.34-.18.53-.25.11-.05.23-.09.34-.16.13-.07.27-.15.42-.22.12-.06.25-.13.39-.21.04-.02.13-.1.2-.16.15-.13.31-.27.5-.39.14-.09.3-.16.47-.22.13-.05.25-.1.33-.16.1-.07.2-.15.31-.24.12-.1.25-.21.4-.31l.21-.15c.16-.12.34-.24.51-.38.12-.09.25-.18.39-.27.12-.08.24-.16.36-.25.1-.08.19-.17.28-.26.12-.12.25-.24.39-.36.35-.29.87-.25,1.16.1.29.35.25.87-.1,1.16-.1.09-.2.18-.29.27-.13.13-.26.26-.4.37-.16.13-.33.24-.49.35-.1.06-.19.12-.28.19-.19.15-.38.28-.56.41l-.2.15c-.11.08-.22.17-.32.25-.15.12-.29.24-.44.34-.23.15-.45.25-.63.32-.08.03-.16.06-.23.1-.11.06-.19.15-.28.22-.14.12-.29.26-.49.37-.16.09-.3.16-.44.23-.12.06-.24.12-.35.19-.17.1-.35.18-.53.25-.11.04-.21.08-.31.14-.16.09-.29.2-.43.3-.11.08-.21.15-.31.22-.15.1-.3.19-.45.26-.11.06-.21.11-.3.18-.15.12-.25.28-.37.44l-.09.13c-.11.15-.16.24-.18.29.02.03.05.05.07.07.06.06.12.13.17.19.1.13.19.27.27.41.04.06.07.12.11.17.01,0,.17.05.31.09.11.03.22.07.32.11l.22.09c.18.07.35.14.48.16.17.02.37,0,.58-.01h.21c.13-.02.25-.02.38-.03.16,0,.31,0,.45-.03.21-.04.41-.11.6-.17l.22-.07c.32-.1.57-.18.71-.24.03-.02.05-.04.08-.06l.74-.49c.14-.1.29-.18.44-.27.11-.06.22-.12.32-.19.16-.11.33-.2.49-.29.1-.05.2-.1.28-.16.05-.04.13-.12.2-.21.12-.13.25-.29.43-.42.21-.15.41-.24.58-.31.08-.03.18-.08.21-.1.11-.08.19-.17.28-.26.12-.13.25-.25.37-.34.24-.19.46-.36.64-.51.24-.19.29-.25.35-.31.07-.08.14-.16.33-.32.34-.3.86-.26,1.16.09.3.35.26.87-.09,1.16-.11.09-.15.14-.19.18-.09.1-.17.19-.49.44-.23.19-.45.36-.71.56-.07.06-.14.13-.21.2-.14.14-.29.29-.46.42-.19.14-.38.22-.55.3-.11.05-.21.09-.26.13-.04.03-.11.11-.17.18-.12.14-.27.31-.48.46-.15.11-.31.2-.49.28-.1.05-.21.1-.3.17-.14.1-.29.19-.45.28-.11.06-.22.12-.33.2-.21.14-.43.29-.65.44l-.1.07s-.12.11-.2.18c-.13.13-.29.29-.49.42-.14.09-.29.18-.45.26-.11.06-.23.12-.34.19-.11.07-.21.14-.31.21-.14.1-.29.21-.44.3-.25.16-.51.31-.77.47-.15.09-.3.17-.45.25-.11.06-.23.12-.34.19-.15.09-.31.17-.46.24-.11.06-.23.11-.34.18-.09.05-.16.12-.24.19-.16.13-.32.26-.5.36-.17.09-.35.17-.53.23-.11.04-.21.08-.31.13-.11.06-.22.13-.33.19-.15.09-.3.18-.46.27-.11.06-.21.12-.31.19-.13.08-.26.17-.4.24l-.05.04c-.15.12-.27.21-.34.3-.13.19-.23.36-.28.52-.05.14-.05.32-.05.53,0,.1,0,.18,0,.26,0,.09,0,.23,0,.27.02.01.13.11.21.17.07.05.13.1.2.16.17.15.32.24.5.3l.21.08c.16.06.3.12.4.12.16-.01.38-.05.59-.11.02,0,.04-.02.06-.03.13-.06.25-.13.37-.2.13-.08.26-.15.4-.22.16-.08.32-.14.49-.21.11-.04.22-.08.32-.13.11-.06.22-.13.33-.2.14-.09.27-.17.41-.25.16-.09.32-.15.49-.22.11-.04.21-.08.31-.14.08-.05.16-.12.23-.18.15-.13.3-.25.47-.35.23-.13.46-.19.64-.23.07-.02.17-.04.2-.06.04-.02.12-.1.18-.17.12-.12.28-.28.49-.41.15-.09.31-.17.46-.24.11-.05.21-.1.31-.16.1-.06.18-.14.27-.21.14-.11.28-.23.42-.32.16-.1.32-.18.49-.26.1-.05.2-.09.29-.15.11-.07.22-.15.32-.23.13-.1.25-.19.38-.28.16-.1.32-.19.49-.27.1-.05.19-.09.28-.15.12-.08.24-.16.37-.24.12-.08.24-.16.36-.24.05-.04.13-.12.21-.2.14-.15.28-.29.44-.4.16-.12.35-.21.53-.29.09-.04.17-.07.25-.13.11-.08.21-.16.3-.25.12-.11.25-.21.37-.3l.33-.24c.13-.09.25-.18.38-.27.14-.11.29-.2.44-.29.1-.06.2-.12.29-.19.11-.08.2-.17.3-.26.12-.11.24-.22.36-.31.12-.1.24-.19.34-.29.11-.1.22-.19.32-.27.17-.13.35-.24.51-.34.08-.05.16-.09.22-.14.14-.12.16-.15.19-.19.08-.12.18-.25.4-.44.35-.29.87-.25,1.16.09.29.35.25.87-.09,1.16-.07.06-.08.07-.1.11-.1.15-.21.3-.52.54-.12.1-.26.19-.42.28-.1.06-.22.13-.33.21-.08.07-.17.14-.25.22-.13.12-.27.24-.42.36-.08.06-.16.14-.25.22-.13.12-.27.25-.42.36-.13.1-.28.19-.43.28-.11.06-.21.13-.32.21-.13.1-.27.19-.41.29l-.31.23c-.09.07-.18.14-.27.22-.13.12-.27.23-.42.34-.16.11-.34.2-.52.29-.09.04-.18.08-.26.14-.07.05-.13.12-.19.19-.12.13-.27.29-.47.42-.13.09-.27.18-.4.27l-.34.22c-.16.11-.32.19-.5.27-.1.05-.2.09-.29.15-.1.07-.2.14-.29.21-.14.11-.28.21-.42.31-.16.1-.33.18-.5.26-.1.05-.2.09-.29.15s-.17.13-.26.2c-.14.12-.29.24-.45.34-.15.1-.32.18-.48.25-.1.05-.21.1-.31.16-.04.02-.12.1-.18.16-.13.13-.29.29-.5.42-.23.14-.46.19-.65.24-.07.02-.18.04-.21.06-.08.05-.15.11-.22.18-.16.13-.32.27-.5.37-.16.09-.34.16-.51.23-.1.04-.21.08-.31.13-.11.06-.21.13-.31.19-.15.1-.3.19-.45.27-.17.09-.34.16-.52.22-.02,0-.04.02-.06.03-.06.1-.14.2-.25.26-.32.2-.65.29-.91.35l-.12.03c-.08.03-.16.07-.24.11-.11.05-.23.1-.34.15-.09.04-.17.1-.26.16-.09.06-.18.11-.27.16,0,0-.02.02-.02.02-.17.16-.32.34-.44.52-.15.23-.25.43-.3.61-.05.16-.12.4-.1.48,0,.03.06.13.29.37.12.13.29.24.49.34.06.03.22.06.35.08.1.02.2.03.29.06.14.03.28.08.42.13.08.03.21.08.25.08.03,0,.15-.04.23-.07.15-.05.31-.1.47-.13.11-.02.23-.04.35-.05.11-.01.2-.03.28-.04,0,0,.01-.01.02-.02.12-.06.24-.13.36-.19.14-.08.28-.16.43-.23.16-.08.33-.14.5-.2.11-.04.23-.08.34-.13.09-.05.17-.12.26-.18.16-.12.32-.24.49-.33.23-.12.46-.17.65-.21.08-.02.19-.04.23-.06.05-.02.13-.1.21-.17.13-.12.3-.27.51-.39.15-.09.32-.16.48-.23.11-.05.23-.1.34-.16.1-.06.2-.13.29-.21.14-.11.29-.22.44-.31.16-.09.33-.17.5-.24.11-.04.21-.09.31-.14.12-.07.23-.15.34-.23.13-.09.26-.19.4-.27.16-.1.33-.18.5-.25.1-.05.21-.09.31-.15.12-.08.25-.16.38-.23.13-.08.26-.16.38-.24.06-.04.14-.12.22-.2.15-.14.29-.28.46-.39.17-.11.35-.19.54-.27.09-.04.19-.08.27-.13.11-.07.21-.16.31-.24.13-.11.26-.21.39-.3l.34-.23c.14-.09.27-.18.4-.27.15-.1.3-.19.45-.28.11-.06.22-.12.32-.2.11-.08.21-.17.31-.25.13-.11.25-.22.39-.32.12-.09.23-.18.34-.27.12-.1.24-.2.36-.29.16-.12.32-.21.49-.3.1-.05.19-.11.28-.17.09-.07.17-.16.24-.24.13-.14.26-.28.4-.39.15-.11.29-.21.43-.31.11-.07.21-.14.3-.21.15-.12.3-.22.43-.32.11-.08.2-.14.29-.21l.15-.12q.24-.19.44-.36l.09-.07c.35-.29.87-.25,1.16.09.29.35.25.87-.09,1.16l-.09.07q-.21.18-.47.39l-.15.12c-.11.09-.23.18-.37.27-.12.08-.24.17-.37.27-.12.1-.26.19-.4.29-.11.07-.23.15-.34.24-.07.05-.13.13-.19.2-.14.15-.29.31-.46.44-.14.11-.3.2-.47.3-.1.06-.21.11-.31.19-.1.07-.19.15-.29.23-.14.11-.27.23-.42.33-.09.07-.18.15-.28.23-.14.12-.28.24-.43.35-.14.1-.3.19-.45.28-.11.06-.22.13-.33.2-.14.1-.29.2-.43.29l-.32.22c-.1.07-.19.15-.29.23-.14.11-.28.23-.43.33-.17.11-.35.2-.54.28-.09.04-.19.08-.28.13-.08.05-.14.12-.21.19-.13.12-.28.28-.48.41-.14.09-.28.18-.43.26l-.35.21c-.17.1-.34.19-.52.27-.1.05-.21.09-.31.15-.11.07-.21.14-.31.21-.15.1-.29.21-.45.3-.16.1-.34.18-.52.25-.1.04-.21.08-.3.14-.1.06-.19.13-.28.2-.15.12-.31.23-.47.33-.16.09-.33.17-.51.24-.11.05-.22.09-.33.15-.05.03-.13.1-.21.17-.14.12-.31.28-.53.4-.24.13-.48.18-.67.22-.08.02-.19.04-.23.06-.09.05-.17.11-.25.17-.13.1-.26.18-.39.26-.02.03-.04.06-.07.09l-.18.15c-.19.16-.35.29-.45.43-.19.25-.31.48-.38.67-.06.17-.06.33,0,.5.05.15.12.26.22.36.15.13.32.24.52.33l.22.1c.16.07.31.14.42.16.13.02.32,0,.52,0h.21c.23-.02.48-.06.74-.12.08-.02.2-.08.33-.14.12-.06.23-.11.36-.17.08-.03.17-.04.26-.05.02-.01.05-.03.07-.04.14-.08.27-.16.41-.23.17-.09.34-.15.52-.21.03-.01.06-.03.1-.04.03-.05.07-.1.12-.15.18-.19.43-.26.68-.23.06-.03.12-.06.18-.09.06-.03.14-.1.22-.17.13-.11.29-.24.48-.35.17-.1.36-.16.55-.23.09-.03.18-.06.26-.1.11-.06.22-.14.32-.21.13-.09.26-.18.4-.26l.35-.2c.14-.08.27-.15.41-.23.15-.09.3-.16.45-.23.11-.05.22-.1.32-.16.11-.07.21-.14.31-.22.13-.1.26-.2.4-.28.12-.08.23-.16.35-.24.12-.09.25-.17.37-.25.16-.1.32-.18.49-.26.1-.05.2-.09.28-.14.08-.06.16-.13.23-.2.14-.13.28-.26.43-.37.14-.09.28-.18.42-.26.11-.06.22-.12.32-.19.13-.09.27-.17.4-.25.11-.07.23-.14.33-.21.25-.18.48-.35.7-.5.13-.09.24-.19.35-.28.11-.09.22-.18.32-.26.15-.11.3-.21.44-.3.1-.06.19-.12.27-.18.13-.1.15-.13.17-.16.08-.13.18-.27.41-.46.35-.29.87-.25,1.16.1.29.35.25.87-.1,1.16-.03.02-.05.04-.06.06-.12.19-.24.35-.57.61-.11.09-.24.17-.38.26-.11.07-.23.15-.35.24-.08.06-.17.13-.25.21-.14.11-.28.23-.44.35-.22.16-.46.33-.72.52-.13.09-.27.18-.41.27-.11.07-.22.13-.33.21-.13.09-.28.18-.42.26-.11.06-.22.13-.33.2-.08.05-.14.12-.21.18-.15.14-.3.28-.47.4-.15.1-.32.18-.49.26-.1.05-.2.09-.3.15-.1.06-.2.14-.3.21-.14.1-.28.2-.43.29-.1.06-.19.13-.28.2-.14.11-.29.22-.44.31-.15.09-.31.17-.47.24-.11.05-.22.1-.32.16-.14.09-.29.17-.44.25l-.33.19c-.1.06-.19.12-.29.19-.15.1-.29.2-.45.29-.17.1-.36.17-.55.23-.09.03-.19.06-.27.1-.05.03-.13.1-.21.17-.13.11-.3.25-.51.37-.14.08-.29.15-.44.22l-.14.07c-.07.12-.14.23-.23.36-.14.2-.26.39-.35.57-.08.16-.13.33-.16.55-.04.22-.06.37-.04.42.05.16.13.3.26.43.12.12.33.24.54.35.15.08.31.15.47.22.26-.11.49-.26.75-.37.27-.11.59-.11.87-.23.27-.11.58-.15.85-.27.27-.12.45-.4.72-.53.27-.12.58-.15.85-.27.26-.12.55-.21.81-.34.26-.13.46-.37.72-.5.26-.13.6-.13.86-.27.26-.14.46-.37.71-.51.25-.14.43-.41.68-.55.25-.14.51-.28.76-.42.25-.15.53-.25.78-.4.25-.15.59-.18.83-.33.25-.15.44-.37.69-.53.24-.16.39-.44.63-.6.24-.16.59-.18.83-.34.23-.16.49-.28.72-.44.02-.01.03-.02.04-.04.22-.17.36-.45.59-.61.14-.1.32-.14.5-.19.17-.13.3-.21.41-.27.04-.02.06-.04.1-.07.11-.19.19-.42.35-.54.23-.17.65-.13.88-.31.23-.18.34-.48.57-.66.22-.18.56-.24.79-.42.22-.18.41-.41.63-.59.22-.18.38-.43.6-.62.22-.19.5-.31.72-.5.22-.19.46-.36.67-.55.21-.19.22-.59.43-.78.21-.2.6-.22.81-.42.21-.2.3-.5.5-.7.21-.2.33-.47.54-.67.2-.2.57-.27.77-.47.2-.2.45-.37.65-.58.2-.21.18-.59.38-.8.19-.21.5-.33.69-.54.19-.21.42-.4.61-.61.19-.21.39-.42.58-.64.19-.22.4-.41.59-.63.18-.22.36-.45.54-.67.18-.22.35-.45.53-.67.18-.22.4-.42.57-.64.18-.22.24-.52.41-.75.17-.23.46-.38.63-.61.17-.23.24-.53.41-.76.17-.23.46-.39.62-.63.17-.24.14-.59.3-.82.16-.24.25-.52.41-.75.16-.24.42-.42.58-.66.16-.24.42-.43.57-.67.15-.24.27-.51.42-.75.15-.25.34-.47.48-.72.15-.25.17-.56.31-.81.14-.25.17-.56.3-.81.14-.25.53-.38.66-.64.13-.25.23-.53.36-.78.13-.26.15-.56.28-.81.13-.26.36-.47.48-.72.12-.26.29-.5.41-.76.12-.26.1-.57.22-.83.11-.26.38-.47.49-.73.11-.26.07-.58.18-.84.11-.27.29-.5.39-.77.1-.27,0-.6.09-.86.1-.27.41-.47.51-.74.09-.27.08-.57.17-.84.09-.27.29-.51.37-.78.08-.27-.13-.62-.05-.89.08-.27.19-.53.26-.81.07-.27.35-.5.42-.78.07-.28.12-.55.18-.83.06-.28-.1-.59-.04-.87.05-.28.13-.55.18-.82.05-.28.33-.52.38-.8.04-.28.09-.56.12-.84.04-.28-.17-.58-.14-.86.03-.28.05-.56.07-.84.02-.28-.04-.56-.03-.84.02-.28.02-.56.02-.84,0-.28.32-.56.32-.84Z"/>
              <path class="cls-4" d="m44.87,54.61c.08.08.16.16.22.2.14.09.28.18.42.26l.34.21c.11.07.22.13.34.19.15.08.29.16.44.24.12.07.24.14.36.2.14.07.28.15.41.23.11.06.22.13.32.19.04-.01.09-.02.13-.03.34-.04.71-.1,1.09-.24.07-.03.14-.05.21-.07.25-.08.57-.17.93-.45.19-.14.47-.35.71-.65.32-.4.34-.88.37-1.26.03-.52-.1-.95-.41-1.37l-.08-.11c-.15-.21-.35-.5-.67-.76-.16-.13-.35-.24-.55-.35-.1-.06-.21-.11-.32-.18-.17-.11-.35-.22-.55-.34l-.29-.17c-.09-.05-.17-.12-.25-.19-.16-.13-.34-.26-.53-.37-.13-.07-.27-.15-.41-.22-.12-.07-.26-.13-.39-.21-.14-.08-.28-.17-.44-.27l-.31-.19c-.14-.09-.31-.16-.49-.23-.12-.05-.24-.09-.32-.15-.09-.06-.18-.15-.28-.23-.13-.11-.27-.23-.42-.34-.1-.07-.19-.16-.29-.25-.12-.11-.25-.23-.39-.34-.12-.09-.23-.19-.35-.29-.11-.09-.22-.19-.34-.29-.15-.12-.32-.22-.5-.31-.11-.06-.22-.11-.28-.17-.35-.29-.87-.25-1.16.1-.29.35-.25.87.1,1.16.2.17.41.28.57.36.08.04.17.08.23.13.11.09.21.17.31.26.14.12.28.24.42.35.11.08.21.17.3.26.14.13.28.25.42.35.11.08.21.17.3.25.15.13.29.25.44.35.23.16.46.25.65.32.08.03.16.05.22.09l.29.18c.18.12.35.22.52.31.15.08.29.16.43.23.13.07.25.13.37.2.12.07.22.15.32.23.14.11.28.22.42.3l.31.18c.17.1.32.19.46.28.15.1.3.18.45.26.11.06.21.11.29.17.14.12.25.27.36.43l.1.14c.09.13.1.2.09.35,0,.11-.02.28,0,.29-.1.13-.26.25-.47.4-.07.05-.21.09-.35.14-.11.03-.21.06-.31.1-.21.08-.43.12-.71.15-.16.02-.31.06-.46.09-.12.03-.25.07-.32.06-.22-.01-.44-.06-.65-.11l-.17-.03c-.3-.06-.58-.14-.82-.21-.24-.07-.42-.18-.55-.26-.09-.05-.16-.09-.21-.11-.11-.05-.22-.07-.33-.07l.27.18c.16.11.31.25.45.39Z"/>
              <path class="cls-4" d="m50.15,64.59c-.25,0-.53-.03-.83-.12l-.17-.04s-.07-.02-.1-.03c.08.05.17.1.25.15.16.1.32.21.49.29.11.05.22.11.33.17.14.07.28.14.42.21-.08-.12-.15-.21-.18-.25-.11-.11-.17-.23-.2-.37Z"/>
              <path class="cls-4" d="m47.99,62.94c.24-.38.75-.5,1.14-.25.09.06.25.1.42.14l.12.03c-.23-.12-.47-.23-.7-.35-.13-.06-.25-.14-.37-.21-.13-.08-.26-.15-.39-.22-.21-.11-.42-.17-.58-.21-.1-.03-.2-.06-.25-.08-.13-.07-.26-.15-.4-.23-.12-.07-.24-.14-.36-.21-.09-.05-.16-.12-.24-.18-.15-.13-.3-.25-.47-.35-.13-.08-.26-.16-.39-.24-.12-.07-.24-.15-.35-.22-.2-.12-.41-.19-.57-.24-.09-.03-.2-.07-.24-.09-.12-.07-.23-.15-.34-.23-.13-.09-.25-.18-.38-.26-.1-.06-.18-.14-.27-.21-.14-.12-.28-.23-.43-.32-.16-.1-.32-.18-.49-.26-.1-.05-.2-.09-.29-.15-.12-.08-.25-.16-.37-.23-.12-.08-.25-.15-.37-.23-.09-.06-.17-.14-.25-.21-.14-.12-.27-.25-.42-.35l-.72-.49c-.12-.08-.24-.17-.35-.26-.12-.09-.23-.18-.35-.26-.19-.14-.39-.22-.55-.29-.09-.04-.19-.08-.24-.12-.1-.07-.19-.16-.28-.24-.13-.12-.25-.23-.39-.33-.11-.08-.2-.17-.3-.25-.12-.11-.24-.22-.37-.31-.12-.09-.24-.18-.35-.28-.11-.09-.22-.18-.33-.27-.2-.15-.4-.24-.56-.32-.08-.04-.18-.08-.21-.11-.06-.04-.12-.13-.2-.22-.11-.14-.23-.29-.4-.43-.18-.14-.37-.25-.54-.34-.07-.04-.14-.07-.2-.12-.21-.17-.27-.23-.33-.29-.07-.07-.14-.14-.31-.28-.34-.29-.87-.25-1.16.09-.29.35-.25.87.09,1.16.12.1.17.15.22.2.09.08.17.17.45.4.12.1.28.19.45.28.1.05.21.11.31.19.03.02.09.1.14.16.12.15.26.33.47.49.18.14.36.22.52.3.1.05.2.09.26.14.1.07.19.15.29.23.13.11.26.22.41.32.09.07.17.14.26.22.13.12.27.24.42.35.09.06.17.14.25.22.14.12.28.25.43.36.19.14.38.22.54.29.1.04.2.09.25.12.1.07.2.15.3.23.13.1.27.2.41.3l.74.49c.08.06.16.13.24.2.14.13.29.26.45.37.14.09.28.18.42.26.11.07.22.14.33.21.16.1.33.18.5.26.1.05.2.09.29.15.09.06.17.13.26.2.14.12.29.24.45.34.11.07.21.14.31.21.14.1.28.2.43.29.21.13.41.19.58.25.1.03.2.07.25.09l.32.2c.15.09.29.18.44.27.08.05.15.11.23.18.16.13.32.26.49.36l.32.19c.15.09.3.18.45.26.21.12.43.18.6.22.1.03.2.06.25.08.11.06.22.12.32.19.09.05.18.1.28.16-.2-.27-.23-.63-.04-.93Z"/>
              <path class="cls-4" d="m46.5,66.89c.19.16.38.34.56.53.17-.11.38-.15.59-.1-.16-.06-.32-.1-.45-.13-.11-.02-.22-.05-.28-.08-.15-.07-.29-.15-.43-.22l-.05-.03-.53.61.58-.59Z"/>
              <path class="cls-4" d="m45.92,67.48l.53-.61-.32-.16c-.09-.05-.18-.12-.26-.18-.16-.12-.32-.24-.49-.33-.14-.07-.28-.15-.42-.23-.12-.07-.24-.14-.37-.21-.21-.11-.42-.17-.58-.22-.1-.03-.21-.06-.27-.09-.12-.07-.25-.15-.37-.22-.13-.08-.26-.17-.4-.25-.1-.06-.2-.13-.29-.21-.15-.11-.29-.22-.45-.31-.16-.09-.33-.17-.5-.24-.11-.04-.21-.09-.31-.15-.13-.08-.25-.15-.38-.22-.13-.08-.27-.15-.4-.23-.1-.06-.18-.14-.27-.21-.14-.12-.29-.24-.44-.34l-.32-.2c-.15-.09-.29-.18-.44-.27-.13-.08-.25-.17-.37-.25-.12-.09-.24-.17-.37-.25-.17-.11-.36-.2-.55-.27-.1-.04-.21-.08-.26-.12-.1-.07-.2-.15-.29-.23-.13-.11-.26-.22-.41-.32-.11-.08-.21-.16-.31-.25-.13-.11-.26-.22-.39-.31-.12-.09-.24-.18-.36-.27-.12-.09-.24-.18-.36-.27-.2-.14-.4-.23-.56-.3-.1-.04-.2-.09-.24-.12-.05-.04-.13-.12-.2-.21-.11-.13-.25-.29-.44-.43-.16-.12-.34-.22-.52-.31-.09-.05-.18-.09-.26-.15-.12-.09-.24-.19-.35-.29-.11-.1-.22-.19-.34-.28-.13-.1-.26-.21-.38-.31-.11-.09-.21-.18-.31-.26-.13-.11-.26-.2-.38-.29-.12-.09-.23-.17-.33-.25-.26-.21-.37-.28-.46-.34-.06-.04-.11-.08-.24-.19-.35-.3-.87-.25-1.16.09-.29.35-.25.87.09,1.16.21.18.29.23.39.3.07.05.15.1.34.26.11.09.24.18.37.29l.35.27c.09.07.18.15.27.22.14.11.28.23.43.35.09.07.18.15.27.23.14.12.28.24.43.35.15.11.32.21.5.3.1.05.2.1.29.16.04.03.11.11.17.19.12.14.27.32.48.47.19.14.38.22.55.3.11.05.21.09.27.13.1.08.21.15.31.24.14.1.27.21.42.31.1.07.19.15.29.23.14.12.28.23.43.34.09.07.18.14.27.22.14.12.29.24.44.35.2.13.4.21.56.28.09.04.18.07.26.12.11.07.22.15.32.22.14.1.28.2.43.29.15.1.31.2.46.29l.31.19c.09.06.17.13.26.2.15.13.3.25.47.36.15.09.3.18.45.26.11.06.23.13.34.2.16.1.34.18.52.25.1.04.21.09.31.14.1.06.19.13.28.2.15.12.31.23.47.33.11.06.22.13.33.2.15.1.3.19.46.28.21.12.43.18.6.23.1.03.21.06.27.09l.33.19c.16.09.31.18.47.26.09.05.17.11.25.18.17.13.33.25.52.34l.17.09s-.09-.08-.13-.12l.49-.66Z"/>
              <path class="cls-4" d="m40.09,69.76c.3-.29.76-.31,1.08-.06.17.12.5.34.78.72.03.04.05.08.08.13.18-.11.39-.15.6-.11-.07-.03-.14-.07-.21-.1-.13-.06-.27-.12-.4-.19-.1-.05-.19-.12-.28-.18-.15-.11-.3-.21-.46-.3l-.32-.16c-.15-.08-.3-.15-.45-.24-.13-.07-.26-.15-.38-.22-.12-.07-.25-.15-.37-.21-.2-.11-.41-.18-.57-.23-.1-.03-.2-.06-.25-.09-.1-.06-.2-.13-.29-.2-.14-.1-.28-.2-.42-.29-.11-.06-.21-.14-.31-.21-.13-.1-.27-.19-.41-.27-.12-.07-.25-.15-.37-.23-.12-.08-.24-.16-.36-.23-.2-.12-.41-.19-.57-.25-.09-.03-.19-.07-.24-.09-.05-.03-.12-.11-.19-.18-.12-.12-.27-.27-.47-.4-.17-.1-.34-.18-.52-.26-.09-.04-.18-.07-.26-.12-.12-.08-.23-.16-.34-.24-.12-.09-.24-.18-.36-.26-.13-.09-.25-.18-.37-.27-.11-.08-.22-.16-.33-.24l-.35-.23c-.13-.08-.25-.16-.37-.25-.14-.1-.27-.18-.4-.26-.11-.07-.22-.14-.31-.21-.15-.11-.29-.2-.43-.28-.1-.06-.2-.12-.29-.19l-.3-.22c-.14-.11-.28-.2-.39-.29-.14-.11-.15-.13-.18-.17-.08-.12-.18-.26-.4-.45-.35-.29-.87-.25-1.16.1-.29.35-.25.87.1,1.16.06.05.06.05.09.09.1.15.22.31.55.57.12.1.27.2.42.32l.29.21c.12.09.26.18.4.27.11.07.22.14.33.22.13.09.27.18.41.27.11.07.22.14.33.21.13.09.27.19.42.28l.32.21c.09.07.19.14.29.21.14.1.28.21.43.31.1.07.2.14.29.21.14.1.28.21.42.3.16.1.34.18.52.26.09.04.19.08.28.13.04.02.11.1.18.17.13.13.29.29.5.42.2.12.4.2.57.25.1.03.2.07.25.1.11.06.21.13.32.2.14.09.28.19.43.27.1.06.19.13.29.2.14.1.29.21.45.3.09.06.18.12.27.19.15.11.3.21.46.31.2.12.41.18.57.23.1.03.2.06.26.09.11.06.22.12.32.19.15.09.29.17.44.25.1.05.2.11.3.16-.28-.33-.27-.82.04-1.12Z"/>
              <path class="cls-4" d="m48.21,63.98c-.06-.03-.12-.07-.18-.1.06.08.13.15.21.21.28.18.56.26.81.32-.01,0-.02-.02-.04-.02-.27-.13-.54-.27-.8-.4Z"/>
              <path class="cls-4" d="m50.2,63.17c.1.06.19.13.29.18.13.06.25.13.38.19.03.01.06.03.09.04.21,0,.42.09.58.24.08.08.22.27.37.49.25-.12.5-.27.72-.46.36-.31.63-.65.79-1,.17-.37.15-.73.13-.99,0-.06,0-.12,0-.28,0-.28,0-.62-.15-1.07-.09-.26-.2-.59-.42-.9-.25-.35-.48-.6-.73-.8-.04-.03-.09-.06-.14-.09-.18-.09-.38-.16-.59-.21-.11-.03-.22-.06-.28-.09-.05-.03-.13-.1-.21-.17-.13-.11-.29-.26-.5-.37-.17-.09-.35-.16-.54-.22-.1-.03-.2-.06-.29-.12-.12-.07-.25-.15-.37-.23-.13-.08-.26-.17-.39-.24-.13-.08-.26-.16-.39-.24-.12-.08-.25-.16-.37-.23l-.37-.21s-.05-.03-.08-.04c-.04.01-.09.02-.13.03-.2.05-.44.11-.7.11-.04,0-.07,0-.11,0-.3-.02-.6-.08-.89-.14l-.16-.03c-.37-.07-.71-.17-.99-.26-.41-.13-.71-.31-.88-.4-.42-.19-.63-.69-.44-1.1.14-.31.42-.49.73-.5l-.47-.31c-.16-.11-.34-.2-.52-.28-.09-.04-.19-.08-.27-.14-.12-.09-.24-.18-.35-.27-.12-.09-.24-.19-.35-.27-.14-.1-.27-.19-.41-.27-.11-.07-.23-.14-.33-.22-.11-.08-.2-.17-.29-.25-.13-.12-.25-.24-.38-.33-.14-.11-.29-.21-.43-.3-.11-.07-.21-.13-.3-.2-.12-.09-.22-.19-.31-.29-.12-.12-.23-.23-.33-.32-.3-.24-.47-.32-.67-.4-.02-.01-.04-.03-.08-.06-.34-.29-.87-.26-1.16.09-.3.35-.26.87.09,1.16.24.21.4.28.55.34.05.02.09.04.24.15.06.05.12.12.19.18.14.14.29.3.47.44.12.1.26.19.41.28.11.07.22.14.34.23.08.06.16.14.24.21.14.13.28.27.45.39.13.1.27.19.41.28.11.07.23.15.34.23.1.07.2.15.3.23.14.11.28.22.42.32.16.11.33.2.51.28.1.05.2.09.29.15.15.1.29.2.45.3l.31.2c.08.05.14.12.21.19.13.12.28.28.48.41.15.1.3.19.45.29l.32.2c.15.09.3.18.46.26.11.06.23.12.34.19.15.09.3.17.45.25.11.06.23.12.34.19.15.09.3.17.45.26l.34.19c.11.06.22.13.33.2.15.09.3.19.45.28.11.06.22.13.33.2.15.09.3.19.45.28.17.1.36.17.55.23.1.03.2.07.29.12.05.03.13.1.21.16.14.12.31.27.53.39.21.11.42.17.6.22.07.02.14.04.21.06.11.1.23.24.35.42.08.11.14.29.23.56.04.1.03.26.03.44v.11c0,.1,0,.19,0,.29,0,.08.01.2.01.21-.06.13-.18.28-.35.42-.16.14-.35.25-.53.31-.08.03-.25.03-.42.03h-.23c-.27,0-.46,0-.63-.06l-.11-.03s.06.03.08.04c.16.08.31.17.46.27Z"/>
              <path class="cls-4" d="m43.42,54.54c-.19.42.03.92.44,1.1.16.09.47.27.88.4.29.09.63.19.99.26l.16.03c.28.06.58.12.89.14.04,0,.07,0,.11,0,.27,0,.51-.06.7-.11.05-.01.09-.02.13-.03-.11-.06-.22-.12-.32-.19-.14-.08-.28-.16-.41-.23-.12-.06-.24-.13-.36-.2-.14-.09-.29-.17-.44-.24-.12-.06-.23-.12-.34-.19l-.34-.21c-.14-.09-.28-.17-.42-.26-.06-.04-.14-.12-.22-.2-.14-.14-.29-.28-.45-.39l-.27-.18c-.31,0-.59.19-.73.5Z"/>
              <path class="cls-4" d="m49.31,64.47c.31.09.59.11.83.12-.07-.26,0-.55.2-.77.16-.17.38-.24.6-.24-.03-.01-.06-.03-.09-.04-.12-.06-.25-.13-.38-.19-.1-.05-.2-.11-.29-.18-.15-.1-.3-.19-.46-.27-.03-.01-.06-.03-.08-.04l-.12-.03c-.17-.04-.32-.08-.42-.14-.38-.25-.89-.13-1.14.25-.19.3-.16.66.04.93.06.03.12.07.18.1.27.14.53.27.8.4.01,0,.02.02.04.02.03,0,.07.02.1.03l.17.04Z"/>
              <path class="cls-4" d="m48.2,68.47c-.08.17-.21.29-.36.38l.02.05c.02.07.05.15.07.23.07.02.13.04.2.05.34.06.65.07,1.01.06h.23c.09,0,.18.01.27.01.17,0,.35-.01.53-.05.37-.08.67-.23.99-.39l.15-.07c.26-.12.56-.27.81-.52.34-.34.45-.75.52-1.03l.08-.26c.1-.31.23-.73.1-1.2-.11-.37-.33-.64-.5-.83-.05-.06-.1-.11-.13-.17-.08-.13-.18-.27-.27-.4-.06.03-.12.06-.17.08.02.15.01.29-.05.44-.14.3-.44.48-.75.48-.11,0-.23-.02-.34-.07-.02,0-.04-.02-.06-.03.08.11.17.25.27.41.07.11.16.22.25.33.06.07.16.18.17.19,0,.05-.05.19-.08.29l-.1.34c-.03.11-.07.26-.1.29-.05.05-.21.13-.35.19l-.26.13c-.19.1-.36.18-.52.22-.09.02-.24.01-.39,0-.1,0-.19,0-.39,0-.23,0-.42,0-.61-.03-.18-.03-.38-.11-.68-.22-.03-.01-.06,0-.09-.01.05.02.1.03.15.05.41.19.59.68.4,1.09Z"/>
              <path class="cls-4" d="m50.93,65.31c.31,0,.61-.18.75-.48.06-.14.07-.29.05-.44-.05.02-.09.05-.14.07-.35.13-.69.13-.97.13h-.18c-.06,0-.12,0-.18,0-.04,0-.08,0-.12,0,.03.13.09.26.2.37.03.04.1.13.18.25.02,0,.04.02.06.03.11.05.23.07.34.07Z"/>
              <path class="cls-4" d="m47.06,67.43c.09.09.18.18.26.29.27.37.4.75.5,1.06l.02.06c.15-.08.28-.21.36-.38.19-.41,0-.9-.4-1.09-.05-.02-.1-.04-.15-.05-.21-.05-.42-.01-.59.1Z"/>
              <path class="cls-4" d="m50.96,63.58c.11.05.21.11.32.16.27.12.43.38.46.65.06-.02.12-.05.17-.08-.15-.22-.29-.41-.37-.49-.16-.15-.37-.23-.58-.24Z"/>
              <path class="cls-4" d="m51.27,63.74c-.11-.05-.21-.1-.32-.16-.22,0-.44.07-.6.24-.21.22-.27.51-.2.77.04,0,.08,0,.12,0,.06,0,.12,0,.18,0h.18c.28,0,.62,0,.97-.13.05-.02.09-.05.14-.07-.03-.28-.19-.53-.46-.65Z"/>
              <path class="cls-4" d="m43.19,71.64c-.11.22-.31.37-.53.43,0,.03.01.06.01.08h0c.1.04.19.06.28.08l.18.04c.09.02.17.04.25.07.22.06.48.14.76.15.03,0,.06,0,.09,0,.29,0,.53-.06.73-.12.07-.02.15-.04.22-.05.08-.01.16,0,.25,0,.24,0,.54,0,.85-.12.37-.16.61-.42.78-.6.04-.05.09-.09.13-.13.26-.24.62-.56.78-1.05.14-.47.05-.92-.05-1.27-.24-.06-.47-.14-.69-.22,0,0,0,0-.01,0-.04-.01-.08,0-.12-.03-.06-.03-.17-.05-.27-.07-.18-.04-.4-.09-.62-.2-.17-.08-.33-.17-.49-.25l-.17-.09c.17.15.34.3.44.44.11.15.18.36.25.59l.04.12c.04.11.14.42.12.5-.03.07-.22.24-.3.32-.08.07-.16.15-.24.24-.06.07-.17.19-.18.19-.04,0-.14,0-.21,0-.17,0-.36,0-.53.03-.12.02-.25.05-.38.09-.13.03-.25.06-.33.06-.09,0-.24-.05-.39-.09-.11-.03-.22-.06-.34-.09l-.21-.05c-.17-.04-.35-.07-.52-.14-.05-.02-.09-.02-.14-.03.06.03.12.06.18.09.41.2.57.7.37,1.1Z"/>
              <path class="cls-4" d="m46.22,68.6c.22.11.45.16.62.2.11.02.21.05.27.07.04.02.08.01.12.03-.42-.17-.66-.64-.5-1.06.07-.18.19-.31.34-.41-.18-.19-.37-.37-.56-.53l-.58.59-.49.66s.09.08.13.12l.17.09c.16.09.33.17.49.25Z"/>
              <path class="cls-4" d="m42.03,70.55c.17.26.32.53.41.72.13.28.18.55.21.79.22-.06.42-.21.53-.43.2-.41.04-.9-.37-1.1-.06-.03-.12-.06-.18-.09-.21-.05-.42,0-.6.11Z"/>
              <path class="cls-4" d="m47.84,68.85c-.12.06-.25.1-.39.1-.08,0-.15-.03-.23-.05,0,0,0,0,.01,0,.22.08.45.16.69.22-.02-.08-.05-.16-.07-.23l-.02-.05Z"/>
              <path class="cls-4" d="m47.84,68.85l-.02-.06c-.1-.31-.22-.7-.5-1.06-.08-.11-.17-.2-.26-.29-.15.09-.27.23-.34.41-.16.42.09.9.5,1.06.08.02.15.05.23.05.14,0,.27-.04.39-.1Z"/>
              <path class="cls-4" d="m42.01,74.48c.24-.24.53-.54.66-.97.14-.44.09-.85.03-1.2l-.02-.15c-.08-.02-.17-.05-.25-.07-.11,0-.23-.03-.34-.08-.12-.06-.23-.11-.35-.17-.15-.07-.31-.14-.45-.22-.17-.09-.33-.2-.49-.31-.09-.06-.17-.13-.26-.17l-.3-.15c-.06-.03-.12-.06-.18-.09.01.01.02.03.03.04l.2.16c.09.06.23.15.34.3.11.15.23.37.35.6.04.07.06.24.08.38l.03.21c.03.17.05.35.02.44-.02.06-.17.2-.26.3l-.19.19c-.13.14-.24.26-.36.32-.08.04-.22.08-.37.12.24.13.42.38.67.47.28.1.56.18.84.28.09.03.18.06.27.1.05-.05.11-.1.15-.15l.16-.16Z"/>
              <path class="cls-4" d="m40.53,71.13c.09.05.17.11.26.17.16.11.32.23.49.31.15.08.3.15.45.22.12.05.23.11.35.17.11.05.23.08.34.08-.09-.03-.18-.05-.27-.09-.42-.17-.62-.65-.45-1.07.07-.16.19-.28.33-.37-.03-.04-.05-.09-.08-.13-.28-.39-.61-.61-.78-.72-.32-.25-.79-.23-1.08.06-.31.31-.32.8-.04,1.12.06.03.12.06.18.09l.3.15Z"/>
              <path class="cls-4" d="m42.66,72.06c-.07.02-.14.03-.21.03,0,0-.02,0-.03,0,.09.03.17.05.25.07h0s-.01-.07-.01-.1Z"/>
              <path class="cls-4" d="m42.66,72.06c-.03-.24-.08-.51-.21-.79-.09-.2-.24-.47-.41-.72-.14.09-.26.21-.33.37-.17.42.03.9.45,1.07.09.04.18.06.27.09,0,0,.02,0,.03,0,.07,0,.14-.01.21-.03Z"/>
              <path class="cls-4" d="m64.52,56.2l.75-.46c.12-.08.24-.16.36-.24.13-.09.25-.18.38-.26.14-.09.29-.17.43-.25.12-.06.23-.13.34-.2.06-.04.14-.12.22-.2.1-.11.23-.22.37-.33-.14.05-.4.14-.71.24l-.22.07c-.18.06-.38.13-.6.17-.14.03-.3.03-.45.03-.12,0-.25,0-.38.01h-.21c-.21.03-.42.05-.58.03-.13-.02-.3-.08-.48-.16l-.22-.09c-.1-.04-.21-.07-.32-.11-.14-.04-.29-.09-.31-.09-.04-.04-.07-.1-.11-.17-.08-.13-.17-.28-.27-.41-.05-.06-.11-.13-.17-.19-.02-.02-.05-.05-.07-.07.02-.05.07-.14.18-.29l.09-.13c.11-.16.22-.32.37-.44.08-.07.19-.12.3-.18.14-.08.3-.16.45-.26.1-.07.2-.14.31-.22.13-.1.27-.2.43-.3.09-.06.2-.1.31-.14.17-.07.35-.15.53-.25.11-.06.23-.12.35-.19.14-.07.29-.15.44-.23.2-.11.35-.25.49-.37.08-.07.17-.16.28-.22.07-.04.15-.07.23-.1.18-.07.4-.17.63-.32.15-.1.29-.22.44-.34.1-.08.2-.17.32-.25l.2-.15c.18-.13.37-.26.56-.41.09-.07.18-.13.28-.19.16-.11.33-.22.49-.35.14-.11.27-.24.4-.37.09-.09.19-.19.29-.27.35-.29.39-.81.1-1.16-.29-.35-.81-.39-1.16-.1-.14.12-.27.24-.39.36-.09.09-.18.18-.28.26-.12.09-.24.17-.36.25-.13.09-.27.18-.39.27-.18.14-.35.26-.51.38l-.21.15c-.14.1-.27.21-.4.31-.11.09-.21.17-.31.24-.09.06-.21.11-.33.16-.17.07-.33.14-.47.22-.19.12-.35.26-.5.39-.07.06-.16.14-.2.16-.14.08-.27.14-.39.21-.15.07-.29.15-.42.22-.11.06-.23.11-.34.16-.19.08-.37.15-.53.25-.2.12-.38.25-.55.38-.09.06-.17.12-.25.18-.11.07-.21.13-.32.18-.21.11-.4.22-.56.35-.32.26-.52.56-.67.77l-.08.11c-.27.37-.54.83-.51,1.39.03.51.33.85.52,1.05l.09.1c.06.07.11.16.15.24.12.2.25.42.47.58.3.22.62.32.87.4.07.02.15.04.22.07l.19.07c.26.1.55.22.9.27.02,0,.04,0,.06,0,.02-.01.05-.03.07-.04.12-.07.25-.13.37-.2Z"/>
              <path class="cls-4" d="m62.35,62.84c.17-.04.33-.08.42-.14.38-.25.89-.13,1.14.25.18.28.16.61,0,.87.02,0,.04-.02.06-.03.18-.07.35-.13.52-.22.16-.08.3-.18.45-.27.1-.07.21-.13.31-.19.1-.05.2-.09.31-.13.17-.07.35-.14.51-.23.18-.1.34-.23.5-.37.07-.06.14-.13.22-.18.03-.02.14-.04.21-.06.19-.05.42-.1.65-.24.22-.13.38-.29.5-.42.06-.06.14-.14.18-.16.1-.06.21-.11.31-.16.17-.08.33-.16.48-.25.16-.1.31-.22.45-.34.08-.07.17-.14.26-.2s.19-.1.29-.15c.17-.08.34-.16.5-.26.15-.1.29-.2.42-.31.1-.07.19-.15.29-.21.09-.06.19-.1.29-.15.17-.08.34-.17.5-.27l.34-.22c.14-.09.27-.18.4-.27.2-.14.35-.3.47-.42.06-.07.12-.14.19-.19.08-.06.17-.1.26-.14.18-.08.36-.17.52-.29.15-.11.29-.22.42-.34.09-.08.18-.15.27-.22l.31-.23c.14-.1.27-.2.41-.29.1-.08.21-.14.32-.21.15-.09.29-.18.43-.28.15-.12.29-.24.42-.36.08-.08.16-.15.25-.22.15-.12.29-.24.42-.36.09-.08.17-.15.25-.22.11-.09.22-.15.33-.21.16-.09.3-.18.42-.28.31-.25.42-.4.52-.54.03-.04.03-.05.1-.11.35-.29.39-.81.09-1.16-.3-.35-.81-.39-1.16-.09-.22.19-.32.32-.4.44-.03.04-.05.07-.19.19-.06.05-.14.09-.22.14-.16.1-.34.2-.51.34-.1.08-.21.18-.32.27-.11.09-.22.19-.34.29-.12.09-.24.2-.36.31-.09.09-.19.18-.3.26-.09.07-.19.13-.29.19-.15.09-.3.18-.44.29-.12.09-.25.18-.38.27l-.33.24c-.13.09-.25.2-.37.3-.1.08-.2.17-.3.25-.07.05-.16.09-.25.13-.18.08-.36.17-.53.29-.16.11-.3.25-.44.4-.08.08-.15.16-.21.2-.12.08-.24.16-.36.24-.12.08-.25.16-.37.24-.09.06-.18.1-.28.15-.17.08-.34.16-.49.27-.13.09-.26.18-.38.28-.1.08-.21.16-.32.23-.09.06-.19.1-.29.15-.17.08-.33.16-.49.26-.15.09-.29.21-.42.32-.09.07-.18.15-.27.21-.1.06-.21.11-.31.16-.16.07-.31.15-.46.24-.21.13-.36.28-.49.41-.06.06-.14.14-.18.17-.03.02-.14.04-.2.06-.18.04-.41.1-.64.23-.17.1-.32.22-.47.35-.07.06-.15.13-.23.18-.1.06-.21.1-.31.14-.17.07-.33.13-.49.22-.14.08-.28.16-.41.25-.11.07-.22.14-.33.2-.1.05-.21.09-.32.13-.17.06-.33.13-.49.21-.13.07-.26.14-.4.22-.12.07-.24.14-.37.2-.02,0-.04.02-.06.03.02,0,.03,0,.05-.01l.22-.06Z"/>
              <path class="cls-4" d="m61.74,64.65c-.03.15-.1.29-.21.4,0,0,0,0,0,0,.09-.05.19-.1.27-.16.08-.06.17-.12.26-.16.11-.05.23-.1.34-.15.08-.03.16-.07.24-.11h-.05c-.26.09-.55.15-.84.17Z"/>
              <path class="cls-4" d="m64.84,67.47c.16-.16.32-.31.47-.44l.16-.13c.34-.3.87-.26,1.16.09.27.32.25.77-.02,1.07.13-.08.27-.16.39-.26.08-.06.16-.13.25-.17.04-.02.15-.04.23-.06.19-.04.43-.09.67-.22.22-.12.39-.27.53-.4.07-.07.16-.14.21-.17.1-.06.22-.1.33-.15.17-.07.35-.15.51-.24.17-.1.32-.21.47-.33.09-.07.18-.14.28-.2.1-.06.2-.1.3-.14.18-.08.36-.15.52-.25.16-.09.3-.2.45-.3.1-.07.2-.15.31-.21.1-.06.2-.1.31-.15.18-.08.35-.16.52-.27l.35-.21c.14-.09.29-.17.43-.26.2-.13.36-.29.48-.41.07-.07.13-.14.21-.19.09-.06.18-.09.28-.13.19-.08.38-.17.54-.28.15-.1.29-.21.43-.33.1-.08.19-.16.29-.23l.32-.22c.15-.1.29-.2.43-.29.1-.07.22-.14.33-.2.16-.09.31-.18.45-.28.15-.11.29-.23.43-.35.09-.08.18-.16.28-.23.15-.11.29-.22.42-.33.1-.08.19-.16.29-.23.1-.07.2-.13.31-.19.17-.09.33-.19.47-.3.17-.13.32-.29.46-.44.06-.07.12-.14.19-.2.12-.09.23-.17.34-.24.14-.1.28-.19.4-.29.13-.1.25-.19.37-.27.13-.1.26-.19.37-.27l.15-.12q.26-.21.47-.39l.09-.07c.35-.29.39-.81.09-1.16-.3-.35-.81-.39-1.16-.09l-.09.07q-.2.17-.44.36l-.15.12c-.08.07-.18.14-.29.21-.13.1-.28.2-.43.32-.09.07-.19.14-.3.21-.14.09-.28.19-.43.31-.14.11-.27.25-.4.39-.07.08-.15.17-.24.24-.08.06-.18.12-.28.17-.16.09-.33.19-.49.3-.12.09-.24.19-.36.29-.11.09-.22.18-.34.27-.13.1-.26.21-.39.32-.1.09-.2.18-.31.25-.1.07-.21.13-.32.2-.15.09-.3.18-.45.28-.13.09-.26.18-.4.27l-.34.23c-.14.09-.26.2-.39.3-.1.08-.2.17-.31.24-.08.06-.18.09-.27.13-.18.08-.37.16-.54.27-.17.11-.31.25-.46.39-.08.08-.16.16-.22.2-.13.08-.25.16-.38.24-.13.08-.26.15-.38.23-.1.06-.2.1-.31.15-.17.08-.34.15-.5.25-.14.08-.27.18-.4.27-.11.08-.22.16-.34.23-.1.06-.2.1-.31.14-.17.07-.34.15-.5.24-.15.09-.3.2-.44.31-.09.07-.19.15-.29.21-.11.06-.22.11-.34.16-.16.07-.33.14-.48.23-.21.12-.38.27-.51.39-.08.07-.16.15-.21.17-.04.02-.15.04-.23.06-.19.04-.42.09-.65.21-.17.09-.33.21-.49.33-.08.06-.16.13-.26.18-.11.05-.22.09-.34.13-.17.06-.34.12-.5.2-.15.07-.29.15-.43.23-.12.07-.24.14-.36.19,0,0-.01.01-.02.02.03,0,.06-.01.09-.02.22-.08.46-.06.66.05Z"/>
              <path class="cls-4" d="m71.83,70.73c-.06.12-.13.25-.21.39l.14-.07c.15-.07.29-.15.44-.22.21-.11.38-.25.51-.37.08-.07.16-.14.21-.17.08-.05.18-.07.27-.1.19-.06.38-.13.55-.23.16-.09.3-.19.45-.29.1-.07.19-.13.29-.19l.33-.19c.15-.08.3-.17.44-.25.1-.06.21-.11.32-.16.16-.08.32-.15.47-.24.16-.09.3-.2.44-.31.09-.07.19-.14.28-.2.15-.09.29-.19.43-.29.1-.07.2-.14.3-.21.09-.06.2-.11.3-.15.17-.08.34-.16.49-.26.17-.11.33-.25.47-.4.07-.07.13-.13.21-.18.11-.07.22-.14.33-.2.15-.09.29-.17.42-.26.11-.08.22-.14.33-.21.14-.09.28-.18.41-.27.26-.18.5-.35.72-.52.16-.11.3-.23.44-.35.09-.07.17-.14.25-.21.12-.09.24-.17.35-.24.14-.09.27-.18.38-.26.33-.26.45-.42.57-.61.01-.02.03-.03.06-.06.35-.29.39-.81.1-1.16-.29-.35-.81-.39-1.16-.1-.23.19-.33.34-.41.46-.02.03-.04.06-.17.16-.08.06-.17.12-.27.18-.14.09-.28.19-.44.3-.1.08-.21.17-.32.26-.11.09-.22.19-.35.28-.22.16-.45.33-.7.5-.1.07-.21.14-.33.21-.13.08-.26.16-.4.25-.1.07-.21.13-.32.19-.14.08-.28.16-.42.26-.15.1-.29.23-.43.37-.07.07-.14.15-.23.2-.09.06-.18.1-.28.14-.17.08-.33.16-.49.26-.12.08-.25.17-.37.25-.11.08-.23.16-.35.24-.14.08-.27.18-.4.28-.1.08-.2.15-.31.22-.1.06-.21.11-.32.16-.15.07-.31.15-.45.23-.13.08-.27.15-.41.23l-.35.2c-.14.08-.27.17-.4.26-.11.07-.21.15-.32.21-.08.05-.17.07-.26.1-.19.06-.38.13-.55.23-.2.11-.36.24-.48.35-.08.07-.17.14-.22.17-.06.03-.12.06-.18.09.18.02.35.08.49.22.29.28.33.73.11,1.05Z"/>
              <path class="cls-4" d="m69.99,70.6s.04-.06.06-.09c.14-.19.23-.37.29-.48.03-.07.07-.13.1-.18-.03.01-.06.03-.1.04-.18.06-.35.12-.52.21-.14.07-.28.15-.41.23-.02.01-.05.03-.07.04.24-.02.48.07.65.24Z"/>
              <path class="cls-4" d="m86.3,66.28c.13-.04.25-.08.35-.15.07-.05.12-.12.16-.19-.04.03-.06.05-.1.07-.11.06-.24.14-.41.27Z"/>
              <path class="cls-4" d="m85.22,67.08s-.03.02-.04.04c0,0,.02,0,.03-.02,0,0,.01-.01.02-.02Z"/>
              <path class="cls-4" d="m60.59,63.7c.09-.04.18-.11.27-.17.16-.11.31-.21.48-.29.13-.06.27-.12.4-.18.11-.05.23-.1.34-.15-.21.06-.43.1-.59.11-.1,0-.25-.06-.4-.12l-.21-.08c-.17-.06-.32-.16-.5-.3-.06-.05-.13-.11-.2-.16-.08-.06-.2-.15-.21-.17-.01-.04,0-.18,0-.27,0-.08,0-.17,0-.26,0-.21,0-.39.05-.53.05-.16.15-.33.28-.52.07-.09.19-.19.34-.3l.05-.04c.14-.07.27-.16.4-.24.1-.07.2-.13.31-.19.16-.08.31-.18.46-.27.11-.07.22-.13.33-.19.1-.05.21-.09.31-.13.18-.07.36-.14.53-.23.18-.1.34-.23.5-.36.08-.07.16-.13.24-.19.11-.06.23-.12.34-.18.16-.08.32-.16.46-.24.11-.07.23-.13.34-.19.15-.08.31-.16.45-.25.26-.16.52-.32.77-.47.15-.09.3-.2.44-.3.1-.07.21-.15.31-.21.11-.07.22-.13.34-.19.15-.08.31-.17.45-.26.21-.13.36-.29.49-.42.07-.07.15-.15.2-.18l.1-.07c.22-.15.44-.29.65-.44.11-.07.22-.13.33-.2.16-.09.31-.18.45-.28.1-.07.2-.12.3-.17.17-.09.34-.18.49-.28.21-.15.36-.32.48-.46.06-.07.13-.15.17-.18.06-.04.16-.08.26-.13.17-.07.36-.16.55-.3.17-.13.32-.28.46-.42.07-.07.14-.14.21-.2.25-.2.47-.37.71-.56.31-.25.4-.35.49-.44.04-.04.08-.09.19-.18.35-.3.38-.82.09-1.16-.3-.35-.82-.38-1.16-.09-.19.16-.26.24-.33.32-.05.06-.11.12-.35.31-.18.15-.4.32-.64.51-.13.1-.25.22-.37.34-.08.09-.17.18-.28.26-.03.02-.14.07-.21.1-.17.07-.37.16-.58.31-.18.13-.32.29-.43.42-.07.08-.15.17-.2.21-.08.06-.18.11-.28.16-.17.09-.33.18-.49.29-.1.07-.21.13-.32.19-.15.08-.29.17-.44.27l-.74.49s-.05.04-.08.06c.03-.01.07-.02.09-.03.42-.18.9,0,1.09.42.18.41,0,.9-.41,1.08-.13.06-.49.18-.98.34l-.19.06c-.24.08-.51.17-.8.23-.27.05-.53.06-.76.06-.1,0-.2,0-.3,0h-.19c-.16.03-.34.04-.52.04-.1,0-.21,0-.32-.02-.11.06-.23.12-.34.19-.11.07-.23.13-.36.19-.15.07-.29.15-.43.23-.17.1-.32.22-.47.35-.08.07-.16.14-.25.19-.1.05-.21.09-.31.14-.17.07-.34.14-.51.22-.13.07-.26.15-.4.23-.12.07-.24.15-.37.22-.15.08-.29.17-.43.26-.11.07-.22.14-.34.2-.05.03-.09.06-.14.09l-.1.08c-.21.17-.45.36-.66.64-.23.32-.4.63-.5.94-.14.4-.14.77-.14,1.09v.17c-.02.26-.03.63.13.99.18.39.48.63.71.81l.15.12c.23.2.46.33.7.45.08-.09.17-.18.26-.27.08-.11.18-.2.31-.26Z"/>
              <path class="cls-4" d="m63.34,64.11c-.15.09-.31.18-.46.25-.08.04-.16.07-.25.11l.12-.03c.26-.07.59-.15.91-.35.11-.07.19-.16.25-.26-.08.03-.17.06-.25.1-.11.06-.22.12-.32.18Z"/>
              <path class="cls-4" d="m64.92,56.43h.19c.1-.02.2-.02.3-.02.23,0,.49,0,.76-.06.29-.06.56-.15.8-.23l.19-.06c.48-.15.85-.28.98-.34.41-.19.6-.67.41-1.08-.19-.41-.67-.6-1.09-.42-.02,0-.05.02-.09.03-.15.11-.27.23-.37.33-.08.08-.16.16-.22.2-.11.07-.22.13-.34.2-.14.08-.29.16-.43.25-.13.08-.25.17-.38.26-.12.08-.23.17-.36.24l-.75.46c-.12.07-.24.14-.37.2-.02.01-.05.03-.07.04.11.01.22.02.32.02.19,0,.36-.01.52-.03Z"/>
              <path class="cls-4" d="m61.34,63.24c-.17.08-.33.18-.48.29-.09.06-.17.12-.27.17-.13.06-.23.16-.31.26.03-.03.06-.07.1-.1.33-.3.86-.29,1.17.03.2.21.25.49.19.75.29-.03.58-.09.84-.16h.05c.08-.05.17-.08.25-.12.16-.08.31-.17.46-.25.11-.06.21-.12.32-.18.08-.04.16-.07.25-.1.16-.26.17-.6,0-.87-.24-.38-.75-.5-1.14-.25-.09.06-.25.1-.42.14l-.22.06s-.03,0-.05.01c-.11.05-.22.1-.34.15-.13.06-.27.11-.4.18Z"/>
              <path class="cls-4" d="m63.99,68.85c-.12-.08-.22-.19-.28-.33-.19-.4-.01-.88.38-1.08-.08.02-.18.03-.28.04-.12.01-.24.03-.35.05-.16.03-.32.08-.47.13-.08.03-.19.07-.23.07-.04,0-.17-.05-.25-.08-.14-.05-.28-.1-.42-.13-.1-.02-.2-.04-.29-.06-.13-.02-.28-.05-.35-.08-.2-.1-.37-.22-.49-.34-.24-.24-.29-.34-.29-.37-.02-.07.05-.31.1-.48.05-.18.15-.38.3-.61.12-.18.27-.36.44-.52,0,0,.02-.02.02-.02-.08.05-.16.11-.24.14-.11.05-.23.07-.34.07-.31,0-.61-.18-.75-.48-.07-.17-.08-.34-.04-.5-.04-.02-.08-.04-.12-.05-.13.15-.25.3-.36.47-.24.37-.4.71-.51,1.08-.1.35-.24.83-.09,1.34.12.45.43.8.71,1.08.25.26.56.48.93.66.28.14.56.19.81.23l.22.04c.07.01.13.04.2.07.21.08.49.18.82.18h0c.3,0,.56-.09.76-.16.08-.03.16-.06.24-.07.05,0,.1-.01.15-.02.02-.09.04-.17.06-.26,0-.01,0-.02.01-.03Z"/>
              <path class="cls-4" d="m61.74,64.65c-.07,0-.15.02-.22.02-.02,0-.05,0-.08,0-.38-.01-.7-.14-.96-.24l-.16-.06c-.06-.02-.12-.06-.18-.08-.03.16-.03.34.04.5.14.3.44.48.75.48.11,0,.23-.02.34-.07.08-.04.16-.1.24-.14,0,0,0,0,0,0,.12-.11.18-.25.21-.4Z"/>
              <path class="cls-4" d="m63.71,68.52c.06.14.16.25.28.33.13-.36.32-.73.61-1.11.07-.1.16-.18.24-.27-.2-.1-.44-.13-.66-.05-.02,0-.06.01-.09.02-.39.2-.57.67-.38,1.08Z"/>
              <path class="cls-4" d="m60.29,63.96c-.09.09-.18.18-.26.27.04.02.08.04.12.05.02-.12.07-.23.14-.32Z"/>
              <path class="cls-4" d="m60.48,64.43c.25.1.57.23.96.24.03,0,.05,0,.08,0,.08,0,.15-.02.22-.02.06-.26,0-.54-.19-.75-.31-.33-.83-.34-1.17-.03-.03.03-.06.07-.1.1-.07.1-.12.21-.14.32.06.03.12.06.18.08l.16.06Z"/>
              <path class="cls-4" d="m68.7,71.62c-.2-.41-.04-.9.37-1.1.09-.05.18-.1.27-.16-.09,0-.17.01-.26.05-.12.05-.24.11-.36.17-.13.06-.25.13-.33.14-.26.06-.51.1-.74.11h-.21c-.2.02-.39.04-.52.02-.12-.02-.27-.09-.42-.16l-.22-.1c-.2-.08-.37-.19-.52-.33-.11-.1-.18-.21-.22-.36-.05-.17-.05-.33,0-.5.07-.2.19-.42.38-.67.1-.13.26-.27.45-.43l.18-.15s.04-.06.07-.09c-.04.03-.08.06-.13.09-.17.09-.35.15-.54.22-.11.04-.22.07-.32.12-.11.05-.22.12-.33.18-.11.06-.23.12-.34.18-.06.04-.12.09-.19.12-.28.1-.54.13-.76.16-.03,0-.05,0-.08.01-.09.42-.08.83.05,1.25.13.43.37.8.7,1.1.28.25.61.46.98.62l.17.08c.23.11.52.24.86.3.15.02.29.03.44.03.16,0,.31,0,.45-.02h.19c.33-.03.67-.08,1.03-.16.2-.05.37-.12.53-.2,0-.02.01-.05.02-.07-.26-.04-.49-.19-.61-.44Z"/>
              <path class="cls-4" d="m66.63,66.99c-.29-.35-.82-.38-1.16-.09l-.16.13c-.15.13-.32.28-.47.44.18.09.32.24.4.44.13.35,0,.73-.29.94.11-.06.23-.12.34-.18.11-.06.22-.12.33-.18.1-.05.21-.09.32-.12.18-.06.37-.13.54-.22.05-.02.09-.06.13-.09.27-.3.29-.76.02-1.07Z"/>
              <path class="cls-4" d="m68.7,71.62c.12.25.36.4.61.44.06-.27.14-.52.24-.73.12-.25.26-.49.43-.73-.17-.17-.4-.25-.65-.24-.09.05-.18.11-.27.16-.41.2-.57.7-.37,1.1Z"/>
              <path class="cls-4" d="m64.75,68.97c.07-.03.13-.08.19-.12-.05.02-.09.05-.14.08-.11.05-.23.08-.34.08-.17,0-.33-.06-.47-.15,0,.01,0,.02-.01.03-.03.09-.05.17-.06.26.03,0,.05,0,.08-.01.21-.02.48-.05.76-.16Z"/>
              <path class="cls-4" d="m65.24,67.91c-.07-.2-.22-.35-.4-.44-.08.09-.17.17-.24.27-.29.38-.48.75-.61,1.11.14.1.3.15.47.15.12,0,.23-.02.34-.08.05-.02.1-.05.14-.08.29-.21.42-.59.29-.94Z"/>
              <path class="cls-4" d="m71.2,74.25c.28-.1.58-.12.86-.23.01,0,.03-.01.04-.02-.16-.06-.32-.14-.47-.22-.21-.11-.42-.23-.54-.35-.12-.13-.21-.27-.26-.43-.02-.06,0-.21.04-.42.04-.21.09-.39.16-.55.09-.19.21-.38.35-.57.09-.12.16-.24.23-.36l-.2.1c-.17.09-.35.15-.53.22-.1.04-.21.07-.3.12-.11.05-.21.12-.32.18-.15.09-.3.18-.46.26-.12.06-.24.09-.37.09,0,0-.02,0-.02,0-.04.02-.08.04-.12.05-.02.09-.04.16-.06.26-.05.29-.11.68.02,1.11.12.41.34.77.65,1.09.05.05.12.09.17.14.11-.02.22-.05.33-.08.28-.1.51-.3.79-.4Z"/>
              <path class="cls-4" d="m71.02,69.57c.07-.03.14-.07.21-.11-.24-.03-.49.04-.68.23-.05.05-.08.1-.12.15.07-.02.14-.05.2-.08.13-.07.26-.13.38-.19Z"/>
              <path class="cls-4" d="m70.05,70.51s-.04.06-.06.09c.07.07.13.16.17.26.17.42-.03.9-.45,1.07-.09.04-.17.08-.25.12-.02,0-.03.02-.05.02,0,0,.02,0,.02,0,.12,0,.25-.03.37-.09.16-.08.31-.17.46-.26.11-.06.21-.13.32-.18.1-.05.2-.08.3-.12.18-.06.36-.13.53-.22l.2-.1c.08-.13.15-.26.21-.39.22-.32.18-.77-.11-1.05-.14-.13-.31-.2-.49-.22-.07.04-.14.07-.21.11-.13.06-.26.13-.38.19-.06.03-.13.06-.2.08-.04.06-.07.12-.1.18-.06.11-.15.29-.29.48Z"/>
              <path class="cls-4" d="m69.31,72.06s-.01.04-.02.07c.04-.02.08-.04.12-.05-.03,0-.07,0-.1-.01Z"/>
              <path class="cls-4" d="m69.71,71.93c.42-.17.62-.65.45-1.07-.04-.1-.1-.19-.17-.26-.17.24-.31.48-.43.73-.1.22-.18.46-.24.73.03,0,.07.01.1.01.02,0,.03-.02.05-.02.08-.04.17-.08.25-.12Z"/>
            </g>
            <g>
              <g>
                <path class="cls-4" d="m70.08,14.52c-.21.42-.21.41-.42.83s-.18.43-.39.85-.27.39-.48.81-.22.42-.43.84-.3.37-.51.79c-.19.36,0,.77.2,1.05s.52.46.92.39c.45-.07.44-.09.89-.16s.46,0,.9-.07.45-.04.89-.12.43-.19.87-.27.47.04.91-.04.45-.05.9-.12.45-.09.89-.17c.28-.05.5-.26.64-.46.15-.21.29-.49.25-.75-.03-.24-.26-.44-.48-.61-.34-.26-.33-.27-.68-.53s-.33-.28-.67-.54-.31-.31-.65-.57-.34-.26-.69-.53-.4-.19-.75-.45-.34-.27-.69-.53c-.25-.19-.55-.33-.83-.26s-.47.33-.61.61Z"/>
                <path class="cls-4" d="m93.58,14.48c.21.42.12.46.33.88s.25.4.46.82.16.44.38.86.27.39.48.81.24.41.45.82c.19.36.15.79-.06,1.07s-.61.48-1.01.41c-.45-.07-.45-.04-.9-.11s-.43-.14-.88-.21-.44-.08-.89-.15-.43-.17-.88-.25-.47.06-.92-.01-.45-.09-.89-.17-.45-.06-.9-.14c-.28-.05-.46-.26-.61-.46-.15-.21-.18-.45-.14-.7.03-.24.06-.53.28-.7.34-.26.41-.17.75-.43s.36-.24.7-.5.33-.28.68-.54.31-.31.65-.57.39-.21.73-.47.28-.35.62-.61c.25-.19.57-.23.85-.17s.55.24.69.52Z"/>
              </g>
              <g>
                <path class="cls-7" d="m61.21,23.86c.4.15.36.26.76.41s.44.05.84.2.37.24.77.39.42.11.82.26.38.2.79.35.42.09.83.24.42.12.82.27.42.11.82.26"/>
                <path class="cls-7" d="m61.01,32.13c.42-.13.41-.16.84-.29s.43-.09.85-.22.46-.02.88-.15.39-.23.81-.36.45-.04.87-.17.41-.17.83-.3.44-.08.87-.21.41-.19.83-.32"/>
                <g>
                  <path class="cls-7" d="m103.01,23.86c-.4.15-.37.23-.78.38s-.39.17-.8.32-.39.17-.79.32-.41.11-.82.26-.45.04-.85.18-.37.25-.77.4-.44.06-.84.21-.39.19-.8.34"/>
                  <path class="cls-7" d="m103.16,32.24c-.42-.13-.4-.22-.82-.35s-.42-.15-.84-.28-.45-.05-.87-.18-.43-.11-.85-.24-.43-.11-.85-.24-.41-.17-.84-.3-.39-.25-.81-.38-.46-.03-.88-.16"/>
                </g>
              </g>
              <path class="cls-7" d="m12.79,13.17c.29-.01.59-.06.86.01s.49.3.73.45.51.26.72.45.32.47.48.7.31.46.43.71.37.46.45.73.08.57.14.85.15.55.18.83-.03.57,0,.85.02.57.04.85c.02.3.12.59.13.89s.05.59.06.89.04.6.04.9-.04.6-.05.9-.14.59-.16.89.06.61.03.9-.17.58-.23.87-.07.59-.15.88-.21.56-.3.84-.15.58-.27.85-.23.55-.39.81-.29.53-.47.77c-.18.24-.39.48-.62.69s-.45.44-.7.61-.57.26-.85.37-.59.18-.9.2-.58-.1-.89-.19c-.3-.08-.62-.09-.86-.27s-.45-.41-.63-.66-.34-.5-.46-.78-.13-.59-.2-.88-.08-.59-.1-.89-.14-.61-.11-.9c.03-.29.18-.57.24-.86s.16-.56.24-.84.17-.56.28-.83.18-.56.32-.82.34-.47.5-.72.23-.55.41-.79.37-.45.57-.68.41-.42.62-.63.46-.37.68-.56.44-.38.68-.56.41-.43.65-.6.49-.32.74-.48.55-.22.81-.37.48-.35.74-.48.51-.3.78-.42.55-.22.82-.34.55-.21.82-.32.57-.14.85-.24.54-.22.82-.32.56-.2.83-.29.53-.26.81-.35.6-.05.88-.14"/>
              <path class="cls-7" d="m47.15,12.93c-.29-.01-.58-.04-.85.04s-.5.26-.74.41-.44.33-.65.52-.38.4-.55.63-.33.45-.45.7-.34.48-.42.75-.15.55-.2.83-.04.57-.07.85.03.57,0,.85-.16.56-.18.84c-.02.3.03.6.02.9s-.13.59-.14.89,0,.6-.01.9.15.6.16.89-.05.6-.04.9.09.59.13.89-.01.61.04.9.1.59.17.88.24.55.34.83.23.55.35.82.28.52.43.77.28.52.46.76c.18.24.3.55.52.77s.53.33.79.49.49.4.77.51.61.14.91.17.63.05.93-.04c.3-.08.56-.28.8-.45s.43-.41.62-.66.29-.51.41-.8.21-.55.28-.85.07-.59.09-.89.08-.6.05-.9c-.03-.29-.07-.58-.12-.87s-.04-.6-.12-.88-.32-.51-.43-.78-.22-.54-.36-.8-.29-.5-.45-.75-.26-.53-.44-.77-.34-.49-.53-.71-.48-.35-.69-.56-.34-.49-.56-.69-.43-.41-.66-.59-.48-.34-.72-.51-.52-.28-.77-.43-.47-.37-.73-.51-.57-.18-.83-.31-.52-.27-.79-.4-.53-.26-.8-.37-.52-.28-.8-.38-.55-.21-.83-.31-.58-.11-.86-.21-.55-.2-.83-.29-.53-.27-.81-.36-.58-.11-.86-.2"/>
              <g>
                <path class="cls-4" d="m27.16,23.91c0,.3-.05.58-.19.82s-.38.4-.64.54-.49.28-.79.28-.6-.04-.84-.18-.42-.39-.56-.65-.3-.51-.3-.81.06-.62.2-.87.38-.5.63-.64.57-.2.87-.2.55.19.8.33.45.33.59.58.23.5.23.8Z"/>
                <path class="cls-4" d="m36.08,23.91c0,.3-.16.56-.3.8s-.34.42-.6.57-.49.29-.79.29-.56-.12-.81-.26-.47-.32-.62-.58-.15-.52-.15-.82.01-.58.16-.82.33-.49.58-.64.54-.17.84-.17.61,0,.85.15.5.36.65.61.19.56.19.87Z"/>
              </g>
              <g>
                <path class="cls-4" d="m26.44,40.54c-.31,0-.6-.05-.89-.11s-.62-.08-.89-.21-.55-.29-.78-.48-.46-.42-.65-.65-.35-.51-.48-.78-.27-.56-.34-.86-.1-.61-.1-.92c0-.29.31-.55.6-.55s.46.26.46.55c0,.32.04.66.13.95s.32.56.5.82.39.52.64.7.56.31.86.4.61.22.93.22.64-.12.94-.21.57-.28.82-.47.52-.37.71-.63.26-.57.36-.87.12-.59.12-.92c0-.29.31-.6.59-.6s.57.31.57.6c0,.31-.15.6-.22.89s-.16.58-.29.85-.24.56-.43.79-.35.52-.59.71-.56.25-.84.38-.53.3-.83.36-.6.03-.91.03Z"/>
                <path class="cls-4" d="m33.5,40.53c-.31,0-.6-.03-.89-.1s-.62-.08-.89-.21-.55-.29-.78-.48-.47-.41-.65-.65-.37-.5-.5-.77-.15-.59-.22-.89-.18-.59-.18-.9c0-.29.29-.48.58-.48s.47.19.47.48c0,.32.15.62.24.92s.25.57.43.82.4.47.65.66.52.33.82.43.59.11.92.11.61-.05.91-.14.59-.2.85-.38.55-.35.73-.61.36-.55.45-.85.08-.63.08-.95c0-.29.23-.47.52-.47s.51.18.51.47c0,.31-.1.59-.17.88s-.11.6-.24.87-.26.55-.45.79-.45.41-.68.6-.45.42-.72.55-.56.26-.86.33-.61-.03-.92-.03Z"/>
              </g>
              <g>
                <path class="cls-4" d="m85.07,23.91c0,.3.08.59.23.84s.37.45.62.59.52.27.83.27.62-.06.86-.21.48-.38.63-.63.13-.56.13-.86-.09-.56-.23-.81-.34-.44-.59-.58-.5-.2-.8-.2-.6,0-.84.13-.4.4-.55.66-.28.5-.28.8Z"/>
                <path class="cls-4" d="m76.15,23.91c0,.3.12.61.26.85s.4.42.66.57.52.25.82.25.59-.08.84-.22.47-.36.61-.62.2-.54.2-.84-.04-.61-.18-.85-.36-.5-.61-.64-.56-.23-.86-.23-.57.17-.81.32-.44.35-.58.6-.34.5-.34.81Z"/>
              </g>
              <g>
                <path class="cls-4" d="m85.85,40.52c.31,0,.6-.01.89-.08s.62-.07.89-.2.55-.29.79-.48.36-.5.55-.74.37-.47.5-.74.23-.55.3-.85.18-.59.18-.9c0-.29-.28-.6-.57-.6s-.56.31-.56.6c0,.32.01.64-.08.94s-.28.57-.46.82-.41.47-.67.66-.53.33-.83.43-.6.17-.93.17-.63-.1-.92-.19-.56-.26-.81-.44-.47-.39-.65-.65-.42-.49-.51-.79-.16-.62-.16-.94-.18-.46-.47-.46-.45.18-.45.46c0,.31-.06.62.01.91s.24.56.37.83.21.58.4.82.4.47.64.66.55.27.82.4.55.22.85.29.58.08.89.08Z"/>
                <path class="cls-4" d="m78.79,40.54c.31,0,.61-.01.9-.08s.58-.18.85-.31.58-.22.82-.41.45-.43.63-.66.28-.54.41-.81.3-.53.37-.83.14-.6.14-.91c0-.29-.3-.45-.58-.45s-.47.16-.47.45c0,.32-.16.62-.25.91s-.25.56-.44.81-.32.57-.57.76-.56.31-.86.41-.61.15-.94.15-.62-.13-.91-.22-.56-.26-.81-.44-.49-.38-.68-.63-.39-.5-.49-.81-.11-.61-.11-.94c0-.29-.24-.54-.53-.54s-.54.25-.54.54c0,.31.06.61.12.9s.13.6.26.87.28.55.47.79.42.46.65.65.55.27.82.4.55.22.85.29.58.11.89.11Z"/>
              </g>
              <path class="cls-4" d="m32.79,30.78c.04.3,0,.65-.21.95-.17.25-.48.43-.76.63-.26.18-.54.37-.85.48s-.64.14-.96.14c-.33,0-.64-.11-.96-.22s-.68-.14-.95-.32c-.29-.2-.55-.45-.73-.7-.22-.3-.36-.67-.32-.97.04-.27.26-.52.5-.72.2-.17.46-.31.74-.43.26-.11.53-.23.81-.29s.59-.07.86-.07c.27,0,.56.04.85.1s.53.21.79.32c.28.12.55.21.75.39.23.2.39.44.43.71Z"/>
              <path class="cls-4" d="m84.85,30.79c.04.3.06.63-.14.93-.17.25-.41.51-.69.71-.26.18-.57.34-.89.45s-.65.1-.98.11c-.33,0-.68.02-1-.08s-.59-.34-.86-.52c-.29-.2-.57-.41-.74-.66-.22-.3-.3-.64-.26-.94.04-.27.23-.46.47-.67.2-.17.38-.43.66-.55.26-.11.55-.2.83-.26s.59-.11.86-.11c.27,0,.56.09.85.15s.56.15.82.26c.28.12.56.24.76.42.23.2.28.49.31.76Z"/>
            </g>
          </g>
        </g>
      </g>
      <g>
        <g>
          <path class="cls-1" d="m122.41,79.39c-.45,0-.67-.22-.67-.66v-7.24c0-.44.22-.66.67-.66h.02c.44,0,.66.22.66.66v4.51l1.68-2c.13-.16.27-.28.41-.35.15-.07.29-.11.41-.11.16,0,.29.05.4.14.11.09.16.21.17.37s-.07.32-.22.52l-1.49,1.66,1.81,2.36c.16.22.19.42.08.6-.11.18-.28.26-.51.26-.22,0-.38-.03-.49-.08-.11-.06-.21-.14-.3-.25l-1.96-2.65v2.27c0,.44-.22.66-.66.66h-.02Z"/>
          <path class="cls-1" d="m132.26,79.53c-.84,0-1.52-.25-2.04-.76-.52-.51-.78-1.26-.78-2.26,0-.62.12-1.16.35-1.61s.56-.8.97-1.04.89-.37,1.43-.37.99.12,1.37.37.66.57.86.96.3.8.3,1.22c0,.3-.06.49-.18.58-.12.09-.3.14-.53.14h-3.24c.03.58.18.99.46,1.23.27.24.62.37,1.06.37.49,0,.87-.17,1.14-.5.16-.17.31-.28.45-.33.14-.05.29-.02.45.09.16.11.25.26.28.43.02.18-.05.36-.22.55-.27.33-.58.57-.94.71-.35.15-.75.22-1.19.22Zm-1.43-3.82h2.56c-.06-.38-.2-.67-.41-.87-.21-.2-.48-.31-.81-.31-.35,0-.64.1-.87.29-.23.19-.38.49-.46.89Z"/>
          <path class="cls-1" d="m138.59,79.39c-.46,0-.68-.24-.68-.71v-4.36c0-.47.2-.71.61-.71s.62.1.64.31l.04.37c.16-.22.37-.42.64-.58.26-.16.58-.25.94-.25.6,0,1.09.19,1.47.58.38.38.57.95.57,1.69v2.94c0,.47-.22.71-.67.71s-.68-.24-.68-.71v-2.62c0-.46-.09-.8-.28-1.03-.18-.23-.43-.34-.74-.34-.34,0-.62.12-.84.35s-.32.59-.32,1.05v2.58c0,.47-.22.71-.67.71Z"/>
          <path class="cls-1" d="m146.87,79.39c-.45,0-.67-.22-.67-.66v-7.24c0-.44.22-.66.67-.66h.02c.44,0,.66.22.66.66v4.51l1.68-2c.13-.16.27-.28.41-.35.15-.07.29-.11.41-.11.16,0,.29.05.4.14.11.09.16.21.17.37s-.07.32-.22.52l-1.49,1.66,1.81,2.36c.16.22.19.42.08.6-.11.18-.28.26-.51.26-.22,0-.38-.03-.49-.08-.11-.06-.21-.14-.3-.25l-1.96-2.65v2.27c0,.44-.22.66-.66.66h-.02Z"/>
          <path class="cls-1" d="m156.69,79.53c-.53,0-1-.13-1.42-.38s-.75-.6-1-1.06c-.24-.45-.37-.98-.37-1.59s.12-1.14.37-1.59.58-.8,1-1.06.89-.38,1.42-.38,1.03.13,1.45.38.75.6.99,1.06c.24.45.36.98.36,1.59s-.12,1.14-.36,1.59c-.24.45-.57.8-.99,1.06s-.9.38-1.45.38Zm0-1.22c.42,0,.77-.16,1.04-.47s.4-.76.4-1.33-.13-1.02-.4-1.33-.61-.47-1.04-.47-.76.16-1.02.47c-.26.31-.4.76-.4,1.33s.13,1.02.4,1.33c.26.31.6.47,1.02.47Z"/>
          <path class="cls-1" d="m163.25,77.07c-.18,0-.33-.06-.45-.19-.12-.12-.19-.27-.19-.45s.06-.33.19-.45.27-.19.45-.19h2.93c.18,0,.33.06.45.19s.19.27.19.45-.06.33-.19.45c-.12.12-.27.19-.45.19h-2.93Z"/>
          <path class="cls-1" d="m172.73,79.53c-.53,0-1-.12-1.42-.36-.42-.24-.75-.59-1-1.04-.24-.45-.37-.99-.37-1.63s.12-1.17.37-1.63c.24-.45.58-.8,1-1.04.42-.24.89-.36,1.42-.36.61,0,1.11.22,1.5.66v-2.59c0-.47.22-.71.67-.71s.68.24.68.71v7.14c0,.47-.2.71-.59.71s-.59-.09-.61-.28l-.04-.38c-.2.25-.44.44-.71.58-.28.14-.58.21-.91.21Zm.06-1.22c.42,0,.78-.16,1.06-.47s.42-.76.42-1.33-.14-1.02-.42-1.33-.63-.47-1.06-.47-.78.16-1.06.47-.42.76-.42,1.33.14,1.02.42,1.33.63.47,1.06.47Z"/>
          <path class="cls-1" d="m181.46,79.53c-.53,0-1-.13-1.42-.38s-.75-.6-1-1.06c-.24-.45-.37-.98-.37-1.59s.12-1.14.37-1.59.58-.8,1-1.06.89-.38,1.42-.38,1.03.13,1.45.38.75.6.99,1.06c.24.45.36.98.36,1.59s-.12,1.14-.36,1.59c-.24.45-.57.8-.99,1.06s-.9.38-1.45.38Zm0-1.22c.42,0,.77-.16,1.04-.47s.4-.76.4-1.33-.13-1.02-.4-1.33-.61-.47-1.04-.47-.76.16-1.02.47c-.26.31-.4.76-.4,1.33s.13,1.02.4,1.33c.26.31.6.47,1.02.47Z"/>
          <path class="cls-1" d="m194.52,79.48c-.62.02-1.14-.11-1.54-.41-.4-.3-.61-.72-.61-1.28,0-.41.12-.76.37-1.04s.57-.51.96-.68c.39-.16.8-.25,1.21-.26.21-.02.4,0,.59.05.18.05.35.12.49.2v-.5c0-.38-.08-.62-.24-.73-.16-.11-.4-.17-.71-.17-.22,0-.46.03-.7.08-.24.06-.48.13-.71.23-.21.09-.39.12-.53.1-.15-.02-.27-.12-.37-.29s-.12-.33-.07-.49c.05-.16.19-.28.4-.37.29-.14.6-.24.94-.32s.69-.12,1.04-.12c.74,0,1.3.15,1.68.45.38.3.56.84.56,1.63v2.65c0,.08,0,.14.03.19.02.05.04.08.05.11.07.1.15.16.23.18s.16.03.22.03c.06,0,.1.04.1.11,0,.14-.04.27-.11.37s-.2.18-.38.22c-.18.04-.36.06-.54.06-.25,0-.44-.04-.57-.13-.13-.08-.23-.23-.28-.43-.2.17-.43.3-.7.39s-.54.15-.83.16Zm-.02-1.18c.45-.02.82-.1,1.11-.26s.43-.39.41-.68c0-.19-.11-.32-.29-.4-.19-.07-.42-.1-.7-.08-.39,0-.72.11-.97.29s-.38.4-.37.63c.02.36.29.53.82.5Z"/>
          <path class="cls-1" d="m201.63,79.39c-.46,0-.68-.24-.68-.71v-4.36c0-.47.2-.71.61-.71s.62.1.64.31l.04.37c.16-.22.37-.42.64-.58.26-.16.58-.25.94-.25.6,0,1.09.19,1.47.58.38.38.57.95.57,1.69v2.94c0,.47-.22.71-.67.71s-.68-.24-.68-.71v-2.62c0-.46-.09-.8-.28-1.03-.18-.23-.43-.34-.74-.34-.34,0-.62.12-.84.35s-.32.59-.32,1.05v2.58c0,.47-.22.71-.67.71Z"/>
          <path class="cls-1" d="m210.09,72.67c-.23,0-.43-.08-.6-.25s-.25-.37-.25-.6.08-.43.25-.6.37-.25.6-.25.43.08.6.25.25.37.25.6-.08.43-.25.6-.37.25-.6.25Zm.01,6.72c-.45,0-.67-.24-.67-.71v-4.36c0-.47.22-.71.67-.71s.67.24.67.71v4.36c0,.47-.22.71-.67.71Z"/>
          <path class="cls-1" d="m215.01,79.39c-.46,0-.68-.24-.68-.71v-4.36c0-.47.2-.71.61-.71s.61.1.64.31l.05.38c.11-.24.3-.44.56-.6.26-.16.57-.24.91-.24.38,0,.7.09.98.26.28.18.5.43.65.76.15-.3.37-.54.67-.73s.63-.29,1-.29c.57,0,1.03.2,1.37.59.35.4.52.95.52,1.67v2.94c0,.47-.22.71-.67.71s-.7-.24-.7-.71v-2.63c0-.42-.08-.76-.23-1-.15-.24-.36-.36-.64-.36-.34,0-.61.12-.8.37s-.28.6-.28,1.06v2.56c0,.47-.22.71-.67.71s-.68-.24-.68-.71v-2.63c0-.42-.08-.76-.24-1-.16-.24-.38-.36-.65-.36-.34,0-.6.13-.78.38-.18.25-.28.6-.28,1.05v2.56c0,.47-.22.71-.67.71Z"/>
          <path class="cls-1" d="m227.58,79.48c-.62.02-1.14-.11-1.54-.41-.4-.3-.61-.72-.61-1.28,0-.41.12-.76.37-1.04s.57-.51.96-.68c.39-.16.8-.25,1.21-.26.21-.02.4,0,.59.05.18.05.35.12.49.2v-.5c0-.38-.08-.62-.24-.73-.16-.11-.4-.17-.71-.17-.22,0-.46.03-.7.08-.24.06-.48.13-.71.23-.21.09-.39.12-.53.1-.15-.02-.27-.12-.37-.29s-.12-.33-.07-.49c.05-.16.19-.28.4-.37.29-.14.6-.24.94-.32s.69-.12,1.04-.12c.74,0,1.3.15,1.68.45.38.3.56.84.56,1.63v2.65c0,.08,0,.14.03.19.02.05.04.08.05.11.07.1.15.16.23.18s.16.03.22.03c.06,0,.1.04.1.11,0,.14-.04.27-.11.37s-.2.18-.38.22c-.18.04-.36.06-.54.06-.25,0-.44-.04-.57-.13-.13-.08-.23-.23-.28-.43-.2.17-.43.3-.7.39s-.54.15-.83.16Zm-.02-1.18c.45-.02.82-.1,1.11-.26s.43-.39.41-.68c0-.19-.11-.32-.29-.4-.19-.07-.42-.1-.7-.08-.39,0-.72.11-.97.29s-.38.4-.37.63c.02.36.29.53.82.5Z"/>
          <path class="cls-1" d="m234.69,79.39c-.46,0-.68-.24-.68-.71v-7.14c0-.47.23-.71.68-.71s.67.24.67.71v7.14c0,.47-.22.71-.67.71Z"/>
          <path class="cls-1" d="m246.51,79.53c-.53,0-1-.13-1.42-.38s-.75-.6-1-1.06c-.24-.45-.37-.98-.37-1.59s.12-1.14.37-1.59.58-.8,1-1.06.89-.38,1.42-.38c.69,0,1.26.19,1.73.58.19.14.28.3.26.48-.02.18-.11.33-.28.46-.18.12-.33.17-.45.16s-.29-.09-.49-.22c-.22-.15-.48-.23-.77-.23-.42,0-.76.16-1.02.47-.26.31-.4.76-.4,1.33s.13,1.02.4,1.33c.26.31.6.47,1.02.47.3,0,.54-.07.74-.22.18-.11.35-.19.49-.22.14-.04.29,0,.46.14.18.13.28.28.3.45s-.06.33-.24.47c-.49.4-1.07.6-1.75.6Z"/>
          <path class="cls-1" d="m252.52,79.39c-.46,0-.68-.24-.68-.71v-7.14c0-.47.23-.71.68-.71s.67.24.67.71v7.14c0,.47-.22.71-.67.71Z"/>
          <path class="cls-1" d="m257.43,72.67c-.23,0-.43-.08-.6-.25s-.25-.37-.25-.6.08-.43.25-.6.37-.25.6-.25.43.08.6.25.25.37.25.6-.08.43-.25.6-.37.25-.6.25Zm.01,6.72c-.45,0-.67-.24-.67-.71v-4.36c0-.47.22-.71.67-.71s.67.24.67.71v4.36c0,.47-.22.71-.67.71Z"/>
          <path class="cls-1" d="m262.35,79.39c-.46,0-.68-.24-.68-.71v-4.36c0-.47.2-.71.61-.71s.62.1.64.31l.04.37c.16-.22.37-.42.64-.58.26-.16.58-.25.94-.25.6,0,1.09.19,1.47.58.38.38.57.95.57,1.69v2.94c0,.47-.22.71-.67.71s-.68-.24-.68-.71v-2.62c0-.46-.09-.8-.28-1.03-.18-.23-.43-.34-.74-.34-.34,0-.62.12-.84.35s-.32.59-.32,1.05v2.58c0,.47-.22.71-.67.71Z"/>
          <path class="cls-1" d="m270.81,72.67c-.23,0-.43-.08-.6-.25s-.25-.37-.25-.6.08-.43.25-.6.37-.25.6-.25.43.08.6.25.25.37.25.6-.08.43-.25.6-.37.25-.6.25Zm.01,6.72c-.45,0-.67-.24-.67-.71v-4.36c0-.47.22-.71.67-.71s.67.24.67.71v4.36c0,.47-.22.71-.67.71Z"/>
          <path class="cls-1" d="m277.53,79.53c-.53,0-1-.13-1.42-.38s-.75-.6-1-1.06c-.24-.45-.37-.98-.37-1.59s.12-1.14.37-1.59.58-.8,1-1.06.89-.38,1.42-.38c.69,0,1.26.19,1.73.58.19.14.28.3.26.48-.02.18-.11.33-.28.46-.18.12-.33.17-.45.16s-.29-.09-.49-.22c-.22-.15-.48-.23-.77-.23-.42,0-.76.16-1.02.47-.26.31-.4.76-.4,1.33s.13,1.02.4,1.33c.26.31.6.47,1.02.47.3,0,.54-.07.74-.22.18-.11.35-.19.49-.22.14-.04.29,0,.46.14.18.13.28.28.3.45s-.06.33-.24.47c-.49.4-1.07.6-1.75.6Z"/>
        </g>
        <path class="cls-2" d="m191.85,16.17h2.3c.17,0,.3.14.3.3v1.33c0,.17-.14.3-.3.3h-2.3c-.17,0-.3-.14-.3-.3v-1.33c0-.17.14-.3.3-.3Z"/>
        <path class="cls-2" d="m220.45,26.36c.67-1.17,1.22-2.31,1.66-3.42.04-.06.04-.12,0-.18-.04-.06-.1-.09-.18-.09h-9.86c-.06,0-.11.03-.15.08-.04.05-.04.11,0,.17.71,1.19,1.22,2.27,1.54,3.24.1.22.02.37-.24.45v.03h6.81c.2,0,.34-.09.42-.27Z"/>
        <path class="cls-2" d="m191.85,20.25h2.3c.17,0,.3.14.3.3v1.36c0,.17-.14.3-.3.3h-2.3c-.17,0-.3-.14-.3-.3v-1.36c0-.17.14-.3.3-.3Z"/>
        <path class="cls-2" d="m181.02,24.58h-1.69c-.1,0-.17.05-.21.15l-.06.09c-.14.32-.37.56-.7.73-.2.1-.41.15-.64.15-.12,0-.24-.01-.36-.03-.3-.08-.52-.26-.67-.54-.14-.28-.14-.56,0-.85.99-2.14,2.09-4.71,3.3-7.71.02-.06,0-.12-.03-.18-.04-.06-.09-.09-.15-.09h-.7c-.52,0-.97-.19-1.35-.56-.37-.37-.56-.83-.56-1.38h-.03s-.03-.02-.03,0c-.42,1.13-.89,2.25-1.39,3.36-.08.18-.12.37-.12.57v19c0,.06.03.11.09.14.06.03.11.02.15-.02,1.03-.85,1.92-1.94,2.66-3.27.1-.18.1-.36,0-.54-.73-1.37-1.33-3.02-1.81-4.96-.08-.32-.04-.63.12-.91.16-.28.4-.46.73-.54.3-.1.58-.07.85.09.26.16.43.39.51.7.26,1.03.55,1.96.88,2.78.02.04.06.06.11.06s.09-.02.11-.06c.56-1.73.99-3.69,1.27-5.87,0-.08-.03-.15-.08-.21-.05-.06-.12-.09-.2-.09Z"/>
        <path class="cls-5" d="m197.57,18.11h-.45c-.12,0-.18-.06-.18-.18v-1.27c0-.73-.26-1.35-.77-1.86s-1.13-.77-1.86-.77h-2.51c-.16,0-.24-.08-.24-.24v-.85c0-.36-.13-.67-.39-.92-.26-.25-.57-.38-.92-.38s-.66.13-.91.38c-.25.25-.38.56-.38.92v.85c0,.16-.08.24-.24.24h-2.9c-.3,0-.56.11-.77.32-.21.21-.32.46-.32.76s.11.54.32.76c.21.21.47.32.77.32h2.84c.2,0,.3.1.3.3v1.33c0,.2-.1.3-.3.3h-4.9c-.3,0-.55.11-.76.32-.2.21-.3.46-.3.76s.1.54.3.76c.2.21.45.32.76.32h4.9c.2,0,.3.1.3.3v1.36c0,.2-.1.3-.3.3h-2.84c-.3,0-.56.11-.77.32s-.32.46-.32.76.11.54.32.76c.21.21.47.32.77.32h2.84c.2,0,.3.1.3.3v1.36c0,.2-.1.3-.3.3h-3.33c-.28,0-.53.11-.74.32s-.32.46-.32.76.11.54.32.76c.21.21.46.32.74.32h3.33c.2,0,.3.1.3.3v1.42c0,.2-.1.3-.3.3h-4.14c-.3,0-.56.11-.77.32-.21.21-.32.46-.32.76s.11.54.32.76c.21.21.47.32.77.32h4.14c.2,0,.3.1.3.3v1.63c0,.36.13.67.38.92.25.25.55.38.91.38s.66-.13.92-.38c.26-.25.39-.56.39-.92v-1.63c0-.2.1-.3.3-.3h5.11c.3,0,.56-.11.77-.32.21-.21.32-.46.32-.76s-.11-.54-.32-.76-.47-.32-.77-.32h-5.11c-.2,0-.3-.1-.3-.3v-1.42c0-.2.1-.3.3-.3h4.29c.28,0,.53-.11.74-.32.21-.21.32-.46.32-.76s-.11-.54-.32-.76-.46-.32-.74-.32h-4.29c-.2,0-.3-.1-.3-.3v-1.36c0-.2.1-.3.3-.3h2.45c.73,0,1.35-.26,1.86-.77.51-.51.77-1.13.77-1.86v-1.3c0-.12.06-.18.18-.18h.45c.28,0,.53-.11.74-.32.21-.21.32-.46.32-.76s-.11-.54-.32-.76-.46-.32-.74-.32Zm-3.12,3.81c0,.2-.1.3-.3.3h-2.3c-.2,0-.3-.1-.3-.3v-1.36c0-.2.1-.3.3-.3h2.3c.2,0,.3.1.3.3v1.36Zm0-4.11c0,.2-.1.3-.3.3h-2.3c-.2,0-.3-.1-.3-.3v-1.33c0-.2.1-.3.3-.3h2.3c.2,0,.3.1.3.3v1.33Z"/>
        <path class="cls-5" d="m197.38,36.74h-7.17c-1.92,0-3.56-.2-4.93-.6-1.37-.4-2.53-1.12-3.48-2.15-.14-.16-.17-.33-.09-.51,1.07-2.64,1.78-5.99,2.15-10.04.02-.22-.04-.42-.18-.59s-.31-.28-.51-.32c-.28-.06-.8-.09-1.54-.09h-1.24c-.06,0-.11-.02-.14-.06-.03-.04-.04-.09-.02-.15,1.13-2.56,2.1-4.91,2.9-7.05.1-.22.1-.45-.02-.68-.11-.23-.29-.39-.53-.47l-.51-.12c-.26-.08-.52-.08-.79,0-.02.02-.05.03-.09.03h-3.75c-.12,0-.16-.06-.12-.18.02-.06.04-.12.06-.18.06-.14.09-.28.09-.42,0-.2-.05-.4-.15-.6-.18-.32-.44-.53-.79-.63-.14-.04-.27-.06-.39-.06-.22,0-.43.06-.64.18-.32.18-.54.44-.67.79-1.13,3.47-2.6,6.46-4.42,8.98-.36.5-.54,1.04-.54,1.6,0,.38.09.78.27,1.18.14.32.39.5.76.54.06.04.12.06.18.06.28,0,.51-.13.7-.39.34-.46.72-1.01,1.12-1.63.02-.04.05-.05.09-.03s.06.05.06.09v15.27c0,.36.13.67.38.92.25.25.55.38.91.38s.66-.13.91-.38c.25-.25.38-.56.38-.92v-.6s.02-.07.06-.08c.04-.01.08,0,.12.02-.02.02-.02.03,0,.03.46.46.99.74,1.57.82.1.02.19.03.27.03.48,0,.91-.19,1.27-.58.46-.52.89-1.08,1.27-1.66.1-.18.22-.2.36-.06,1.11,1.11,2.43,1.88,3.96,2.31,1.53.43,3.39.65,5.57.65h6.32c.4,0,.77-.13,1.09-.39.32-.26.55-.58.7-.97.04-.12.06-.24.06-.36,0-.18-.05-.35-.15-.51-.18-.26-.42-.39-.73-.39Zm-17.36-5.99s-.06.06-.11.06-.09-.02-.11-.06c-.32-.83-.62-1.75-.88-2.78-.08-.3-.25-.53-.51-.7-.26-.16-.54-.19-.85-.09-.32.08-.56.26-.73.54-.16.28-.2.59-.12.91.48,1.94,1.09,3.59,1.81,4.96.1.18.1.36,0,.54-.75,1.33-1.63,2.42-2.66,3.27-.04.04-.09.05-.15.02-.06-.03-.09-.08-.09-.14v-19c0-.2.04-.39.12-.57.5-1.11.97-2.23,1.39-3.36,0-.02,0-.02.03,0h.03c0,.54.19,1,.56,1.38.37.37.82.56,1.35.56h.7c.06,0,.11.03.15.09.04.06.05.12.03.18-1.21,3-2.31,5.58-3.3,7.71-.14.28-.14.56,0,.85.14.28.36.46.67.54.12.02.24.03.36.03.22,0,.43-.05.64-.15.32-.16.55-.4.7-.73l.06-.09c.04-.1.11-.15.21-.15h1.69c.08,0,.15.03.2.09.05.06.08.13.08.21-.28,2.18-.71,4.13-1.27,5.87Z"/>
        <path class="cls-5" d="m228.07,34.52c.25-.25.38-.55.38-.91s-.13-.66-.38-.91c-.25-.25-.55-.38-.89-.38h-8.65c-.2,0-.3-.1-.3-.3v-2.54c0-.2.1-.3.3-.3h10.1c.36,0,.67-.13.91-.38.24-.25.36-.55.36-.91s-.12-.65-.36-.89c-.24-.24-.54-.36-.91-.36h-5.32c-.06,0-.11-.03-.14-.09-.03-.06-.04-.12-.02-.18.52-.77,1.26-1.92,2.21-3.45.1-.16.25-.24.45-.24h3.63c.36,0,.67-.13.92-.38.25-.25.38-.56.38-.92s-.13-.67-.38-.91c-.16-.15-.34-.24-.54-.29h-25.94c-.2.06-.38.14-.54.29-.25.24-.38.54-.38.91s.13.67.38.92c.25.25.56.38.92.38h5.2c-.2.06-.34.19-.42.39s-.07.39.03.57c.5.93.92,1.83,1.24,2.69.02.08,0,.15-.03.21-.04.06-.1.09-.18.09h-5.05c-.36,0-.67.12-.91.36-.24.24-.36.54-.36.89s.12.66.36.91c.24.25.54.38.91.38h9.89c.2,0,.3.1.3.3v2.54c0,.2-.1.3-.3.3h-8.2c-.36,0-.67.13-.92.38-.25.25-.38.55-.38.91s.13.66.38.91c.25.25.56.38.92.38h8.2c.2,0,.3.1.3.3v3.18c0,.4.15.75.44,1.04s.64.44,1.04.44.75-.15,1.04-.44c.29-.29.44-.64.44-1.04v-3.18c0-.2.1-.3.3-.3h8.65c.34,0,.64-.13.89-.38Zm-15.08-7.88v-.03c.26-.08.34-.23.24-.45-.32-.97-.84-2.05-1.54-3.24-.04-.06-.04-.12,0-.17.04-.05.09-.08.15-.08h9.86c.08,0,.14.03.18.09.04.06.04.12,0,.18-.44,1.11-1,2.25-1.66,3.42-.08.18-.22.27-.42.27h-6.81Z"/>
        <path class="cls-5" d="m122.91,44.9c-.4-.31-.8-.29-1.2.06s-.47.74-.21,1.18c.51.84.81,1.44.92,1.79.11.31.21.53.3.67.17.26.41.4.72.41.31.02.58-.09.78-.32.21-.23.27-.5.2-.8-.34-1.41-.84-2.41-1.52-2.99Z"/>
        <path class="cls-5" d="m122.67,61.43c-.16-.17-.39-.26-.68-.29-.29-.02-.55-.02-.78,0-.23.02-.52.07-.86.13-.35.06-.57.1-.68.11-1.98.25-3.59.32-4.83.23-1.92-.14-3.07-.61-3.45-1.43-.26-.67-.28-1.31-.06-1.92.22-.6.59-1.14,1.12-1.6.7-.6,1.97-1.31,3.79-2.14.43-.18,1.12-.48,2.08-.9.96-.41,1.69-.73,2.2-.94.69-.28,1-.71.92-1.31-.03-.28-.16-.51-.38-.71s-.47-.31-.75-.32c-.21,0-.44.04-.68.13-.24.08-.51.21-.83.37-.31.16-.52.26-.61.31l-2.21.92c-.12-.49-.19-1.02-.21-1.6-.02-.58,0-1.2.03-1.89.04-.68.05-1.21.03-1.6-.02-.78-.25-1.57-.71-2.36s-1.05-1.03-1.77-.72c-.32.15-.54.4-.64.74-.11.34-.08.66.09.97.05.08.14.18.28.3.14.12.23.22.28.3.09.18.14.47.14.85.02.4.01.98-.01,1.74s-.02,1.45,0,2.06c.02.61.1,1.2.22,1.75.02.05.04.12.08.22.04.1.05.17.03.21-.02.04-.07.08-.16.13l-.57.28c-.25.15-.62.38-1.13.69-.92.6-1.62,1.23-2.12,1.91-.55.75-.89,1.61-1,2.56-.12.96.04,1.86.47,2.7.7,1.43,2.18,2.28,4.44,2.58,1.61.21,3.66.17,6.16-.14.11-.02.31-.03.6-.06.29-.02.53-.04.72-.06.19-.02.42-.06.69-.14.27-.08.47-.17.62-.26.15-.1.26-.24.36-.44.09-.19.12-.41.07-.66-.05-.29-.15-.52-.31-.69Z"/>
        <path class="cls-5" d="m119.79,48.25s.06.18.18.49c.12.31.24.53.34.66.38.38.77.43,1.16.14.39-.29.52-.68.38-1.17-.46-1.56-.99-2.52-1.59-2.87-.44-.25-.84-.16-1.17.25s-.34.81,0,1.2c.18.21.41.65.69,1.31Z"/>
        <path class="cls-5" d="m140.6,47.79c1.12.03,1.74-.31,1.86-1.01.08-.37-.02-.7-.28-.99-.26-.29-.59-.42-.99-.39-.66.06-1.36.02-2.12-.14-.75-.15-1.4-.4-1.93-.74-.05-.03-.14-.09-.28-.17-.14-.08-.24-.14-.3-.17s-.15-.07-.26-.11-.21-.07-.29-.07-.18.02-.3.06c-.12.04-.24.1-.34.17-.32.26-.47.59-.45.98.02.39.19.72.49.98,1.09,1,2.81,1.53,5.17,1.61Z"/>
        <path class="cls-5" d="m144.38,50.89c-.62-.7-1.41-1.15-2.36-1.35-.35-.11-.82-.14-1.39-.09-.58.05-1.02.1-1.35.16s-.77.16-1.35.29c-.57.13-1.03.23-1.37.29-.43.08-.79.1-1.08.07-.14-.01-.31-.07-.53-.16-.21-.09-.37-.15-.46-.18-.35-.09-.68-.01-.99.24-.31.25-.45.58-.44.98.02.41.19.74.53.99.34.25.75.39,1.25.43s.95.05,1.36.02c.41-.02.79-.06,1.16-.13.18-.03.58-.13,1.17-.29s1.07-.28,1.41-.35c.34-.07.76-.08,1.24-.02s.88.2,1.18.45c.44.32.71.81.79,1.46s.06,1.26-.07,1.83-.3,1.12-.52,1.66c-.69,1.69-1.84,3.03-3.45,4.02-.78.51-1.56.86-2.32,1.06-.05.02-.15.04-.31.07-.16.03-.27.06-.33.08-.06.02-.16.06-.29.12s-.23.1-.29.15c-.06.05-.13.11-.2.18-.07.08-.12.17-.16.26-.04.1-.06.22-.06.36-.02.4.08.7.29.9s.49.29.84.29c.35,0,.67-.04.97-.1s.58-.15.87-.25c1.49-.54,2.81-1.35,3.98-2.44,1.18-1.09,2.08-2.39,2.71-3.91.63-1.52.84-3.03.64-4.53-.12-1-.49-1.84-1.12-2.54Z"/>
        <path class="cls-5" d="m169.2,47.72c.11.32.21.55.3.69.17.26.41.4.72.41.31.02.58-.1.78-.33.21-.24.27-.51.2-.82-.34-1.41-.84-2.4-1.52-2.97-.4-.31-.8-.29-1.2.06-.4.34-.47.74-.21,1.18.51.83.81,1.42.92,1.77Z"/>
        <path class="cls-5" d="m166.55,48.07c.03.08.07.2.13.36.05.16.11.31.17.45.06.14.13.25.21.35.38.37.77.41,1.17.13.4-.28.53-.67.39-1.16-.46-1.56-1-2.52-1.61-2.87-.43-.25-.82-.16-1.16.24-.35.41-.35.8-.01,1.18.2.23.44.67.71,1.33Z"/>
        <path class="cls-5" d="m170.85,54.76c-.61-.41-1.3-.74-2.06-.98-.76-.24-1.39-.24-1.9-.01-.26.12-.45.32-.56.59-.11.27-.13.54-.06.82.15.51.57.79,1.26.85.6.05,1.23.24,1.91.59.67.34,1.09.77,1.24,1.28-.29.03-.53.13-.71.3-.18.17-.28.37-.3.6-.02.23.02.46.1.68.08.22.24.41.46.55s.48.21.77.2c.67-.03,1.22-.24,1.63-.62.41-.38.58-.9.51-1.56-.17-1.33-.94-2.42-2.3-3.26Z"/>
        <path class="cls-5" d="m163.96,53.38s-.1-.1-.21-.2c-.11-.1-.2-.19-.28-.26-.08-.08-.18-.18-.3-.31-.12-.13-.22-.25-.29-.36-.07-.11-.13-.22-.17-.35-.05-.12-.06-.24-.05-.34.02-.11.06-.2.14-.28.23-.23.67-.43,1.31-.61.64-.18,1.07-.39,1.29-.63.38-.51.49-1,.31-1.48-.18-.48-.53-.86-1.05-1.14-1.03-.55-1.81-1.14-2.34-1.77-.08-.08-.18-.2-.3-.37-.12-.17-.21-.29-.28-.37-.31-.35-.71-.48-1.22-.37-.44.11-.69.41-.74.9-.05.41.05.8.3,1.15.46.75,1.21,1.47,2.25,2.16-.83.43-1.42,1-1.77,1.72-.35.72-.36,1.49-.02,2.32.23.57.76,1.27,1.59,2.12.83.84,1.36,1.47,1.61,1.89.28.46.48.94.62,1.43.14.49.14.99,0,1.49-.14.51-.46.88-.97,1.13-.66.29-1.38.38-2.15.25-.77-.12-1.45-.41-2.01-.85-.37-.21-.74-.28-1.12-.2-.38.08-.64.32-.78.7-.15.38-.07.76.22,1.13.43.54,1.06.94,1.89,1.21s1.64.4,2.44.4c.95,0,1.82-.2,2.62-.6.8-.4,1.41-.99,1.84-1.77.81-1.52.69-3.24-.37-5.17-.43-.78-1.1-1.64-2.02-2.58Z"/>
        <path class="cls-5" d="m159.68,57.62s.14-.07.28-.15c.38-.2.65-.48.81-.85.05-.09.06-.19.06-.3,0-.11-.03-.22-.06-.34-.12-.43-.38-.68-.78-.76-.4-.08-.78-.02-1.15.18-1.29.6-2.2,1.07-2.74,1.4-.44.28-.87.58-1.26.92-.05.05-.16.17-.36.36s-.36.33-.51.43c-.15.09-.28.11-.4.07-.41-.18-.81-.14-1.18.14-.38.28-.53.64-.47,1.08.06.46.31.8.75,1.03s.89.3,1.35.21c.24-.05.49-.13.72-.26.24-.13.44-.26.6-.38.16-.12.36-.29.6-.51.24-.21.42-.37.54-.46.71-.55,1.69-1.11,2.94-1.68.14-.06.23-.1.28-.13Z"/>
        <path class="cls-5" d="m185.94,48.69c-1.26.31-3.11.85-5.56,1.63-.8.23-1.31.34-1.54.34-.08,0-.18-.09-.32-.28-.28-.34-.62-.48-1.03-.44-.37.03-.65.2-.85.49s-.25.62-.16.98c.09.37.33.7.71.99.83.64,1.88.79,3.15.44.43-.12.77-.23,1.02-.31s.58-.2.98-.36.71-.26.92-.32c2.45-.75,4.38-1.2,5.79-1.36,2.31-.25,3.76.31,4.32,1.66.28.57.36,1.13.26,1.7-.1.57-.27,1.09-.51,1.57-.24.48-.58.95-1.03,1.39s-.9.84-1.34,1.17c-.44.34-.91.64-1.4.9-1.46.8-2.94,1.3-4.46,1.52-.75.12-1.17.46-1.24,1.01-.05.29.01.56.17.81.16.25.37.41.63.51.35.11,1.07.02,2.16-.28.81-.21,1.59-.47,2.35-.78,1.49-.63,2.8-1.41,3.93-2.35,1.23-1.04,2.12-2.26,2.68-3.64.56-1.39.59-2.79.08-4.2-1.1-3.14-4.34-4.08-9.7-2.81Z"/>
        <path class="cls-5" d="m216.03,46.33c-.32-.27-.69-.4-1.09-.4s-.78.14-1.11.41c-.05.06-.12.11-.23.14s-.2.05-.29.05-.2,0-.34-.01c-.15,0-.23-.01-.26-.01-.31.02-1.35.04-3.13.07-.08,0-.12-.02-.14-.06-.02-.04-.02-.1-.01-.2s.01-.15.01-.18c-.06-.38-.17-.74-.32-1.08-.38-.77-.9-1.12-1.54-1.06-.37.05-.65.23-.85.54s-.24.65-.11,1c.03.11.11.25.25.44.14.18.21.34.23.48.02.37-.05.75-.18,1.15-.21.57-.64,1.36-1.29,2.39-.55.83-1.03,1.49-1.45,1.98-.02.02-.16.16-.43.44-.27.28-.43.5-.49.67-.06.17-.06.37,0,.6.08.32.26.56.55.72.29.16.59.21.9.15.14-.03.27-.08.4-.16.13-.08.27-.19.41-.33.15-.15.25-.26.32-.35.07-.08.18-.23.34-.43.16-.2.25-.31.26-.34.41-.58.88-1.27,1.4-2.07.21-.35.44-.74.67-1.17.03-.06.08-.16.15-.29.07-.13.12-.23.15-.29.03-.05.05-.08.06-.11,0-.03.02-.05.05-.06s.04-.01.06-.01h.21c2.39-.01,4.05-.07,4.99-.16-.46,3.57-1.72,6.78-3.77,9.63-1.17,1.58-2.36,2.75-3.59,3.52-.69.44-.91.97-.67,1.56.12.31.34.52.64.64.31.12.61.12.9,0,.97-.4,2.14-1.39,3.52-2.97,1.09-1.27,2.02-2.65,2.78-4.14.84-1.66,1.48-3.27,1.91-4.85.25-.89.44-1.77.57-2.64.15-1.13.2-1.87.14-2.21-.06-.4-.25-.73-.57-1Z"/>
        <path class="cls-5" d="m234.49,46.94c-.08-.4-.31-.84-.69-1.32-.38-.48-.79-.79-1.23-.93s-.83.08-1.18.64c-.25.49-.08,1.02.48,1.59.21.11.32.35.32.71v5.27c.02,4.41-1.15,7.42-3.5,9.01-.18.12-.38.23-.59.33-.21.1-.39.18-.54.23s-.36.13-.62.22c-.26.09-.46.16-.6.21-.35.14-.58.4-.69.79-.11.39-.05.73.18,1.02.35.49,1.06.55,2.14.18.93-.34,1.79-.83,2.58-1.47,2.67-2.13,4-5.68,4-10.65v-3.29c0-.15,0-.42.02-.79.02-.38.02-.7,0-.98-.02-.28-.05-.54-.09-.78Z"/>
        <path class="cls-5" d="m226.66,57.07c.39-.19.59-.53.59-1.02v-7.56c0-1.12-.2-1.95-.6-2.51-.58-.81-1.17-1.14-1.77-.99-.38.08-.66.29-.82.64-.16.35-.15.71.03,1.06.05.08.19.22.44.44.24.21.37.41.37.6v8.32c0,.49.2.83.59,1.02.39.19.78.19,1.17,0Z"/>
        <path class="cls-5" d="m244.67,51.68l8.78-.39c.31-.02.52-.03.66-.05.13-.02.3-.07.51-.17.21-.1.36-.24.47-.43.14-.25.17-.51.1-.81-.07-.29-.22-.52-.45-.69-.11-.09-.24-.15-.39-.18-.15-.03-.28-.05-.39-.05s-.26,0-.47.02c-.21.02-.34.02-.4.02-4.84.23-7.46.37-7.86.41-.51.05-.92.05-1.25.02-.33-.03-.62-.12-.89-.28-.44-.21-.85-.25-1.21-.1-.36.15-.59.43-.69.84-.1.41.02.77.36,1.08.57.54,1.61.78,3.13.74Z"/>
        <path class="cls-5" d="m256.88,57.57c-.32.05-1.15.07-2.48.07-2.15.05-3.76.09-4.83.14-5.55.23-8.33.34-8.35.34-.31-.01-.55-.11-.74-.28-.29-.28-.62-.4-1-.37-.38.03-.66.19-.86.48-.2.35-.25.69-.14,1.01.11.32.33.6.67.83.26.2.55.35.87.46s.68.17,1.07.2c.39.02.72.03.99.02.27,0,.64-.03,1.12-.07s.8-.07.99-.08c3.63-.17,7.06-.28,10.28-.32.08,0,.27,0,.57.01.31,0,.57.01.78.01s.48,0,.8-.02c.32-.02.59-.06.79-.13s.41-.16.61-.28c.2-.12.33-.28.4-.48.07-.21.07-.44.01-.7-.15-.72-.67-1-1.56-.85Z"/>
        <path class="cls-5" d="m273.42,50.74c-.21-.35-.46-.6-.74-.76-.35-.17-.72-.13-1.09.1-.38.24-.56.57-.56,1,0,.25.1.49.29.75.19.25.29.42.31.49.03.51-.08,1.21-.35,2.12-.81,2.85-2.57,5.13-5.27,6.83-.58.37-1.17.67-1.75.92-.03.02-.14.06-.33.13-.19.07-.33.13-.4.17-.08.05-.18.12-.32.23-.14.11-.23.24-.28.39-.05.15-.07.32-.07.51.02.69.32,1.05.92,1.08.51.03,1.37-.27,2.6-.9,1.32-.67,2.51-1.56,3.58-2.67,1.06-1.1,1.93-2.34,2.61-3.7,1.12-2.38,1.54-4.29,1.26-5.75-.06-.28-.2-.59-.41-.94Z"/>
        <path class="cls-5" d="m263.41,57.61c.27.2.56.25.86.16.17-.05.31-.12.44-.21.12-.09.21-.2.25-.32.12-.32.14-.73.05-1.22-.02-.12-.06-.28-.14-.46-.26-.67-.54-1.36-.85-2.05-.15-.32-.32-.63-.51-.92s-.42-.51-.7-.66-.57-.17-.86-.06c-.28.11-.49.31-.63.62-.15.31-.17.61-.06.9.06.12.21.38.44.76.18.29.35.61.51.94.31.67.52,1.26.64,1.75.11.31.29.56.56.76Z"/>
        <path class="cls-5" d="m265.86,54.46c.05.11.12.37.23.78.11.41.21.71.32.9.12.28.34.48.66.6.31.12.59.12.84,0,.57-.34.75-.92.55-1.75-.18-.63-.39-1.24-.62-1.84-.28-.92-.57-1.6-.87-2.05-.2-.28-.48-.42-.84-.44-.36-.02-.66.09-.89.32-.4.38-.41.96-.02,1.72.25.55.46,1.13.64,1.75Z"/>
        <path class="cls-5" d="m292.42,47.33c-.06-.4-.25-.73-.57-1-.32-.27-.69-.4-1.09-.4s-.78.14-1.12.41c-.05.06-.12.11-.23.14-.11.03-.2.05-.29.05s-.2,0-.35-.01c-.15,0-.23-.01-.26-.01-.31.02-1.35.04-3.13.07-.08,0-.12-.02-.14-.06-.02-.04-.02-.1-.01-.2,0-.09.01-.15.01-.18-.06-.38-.17-.74-.32-1.08-.38-.77-.9-1.12-1.54-1.06-.37.05-.65.23-.85.54s-.24.65-.11,1c.03.11.11.25.25.44.14.18.21.34.23.48.02.37-.05.75-.18,1.15-.21.57-.64,1.36-1.29,2.39-.55.83-1.03,1.49-1.45,1.98-.02.02-.16.16-.43.44-.27.28-.43.5-.49.67-.06.17-.06.37,0,.6.08.32.26.56.55.72s.59.21.9.15c.14-.03.27-.08.4-.16.13-.08.27-.19.41-.33s.25-.26.32-.35c.07-.08.18-.23.34-.43s.25-.31.26-.34c.41-.58.88-1.27,1.4-2.07.21-.35.44-.74.67-1.17.03-.06.08-.16.15-.29.07-.13.12-.23.15-.29.03-.05.05-.08.06-.11s.02-.05.05-.06c.02,0,.04-.01.06-.01h.21c2.39-.01,4.05-.07,4.99-.16-.46,3.57-1.72,6.78-3.77,9.63-1.17,1.58-2.36,2.75-3.59,3.52-.69.44-.91.97-.67,1.56.12.31.34.52.64.64.31.12.61.12.9,0,.97-.4,2.14-1.39,3.52-2.97,1.09-1.27,2.02-2.65,2.78-4.14.84-1.66,1.48-3.27,1.91-4.85.25-.89.44-1.77.57-2.64.15-1.13.2-1.87.14-2.21Z"/>
        <path class="cls-3" d="m221.8,15.25h-3.58v-2.34c0-.81-.65-1.46-1.46-1.46h0c-.81,0-1.46.65-1.46,1.46v2.34h-3.58c-.76,0-1.37.61-1.37,1.37h0c0,.76.61,1.37,1.37,1.37h3.58v2.18h2.93v-2.18h3.58c.76,0,1.37-.61,1.37-1.37h0c0-.76-.61-1.37-1.37-1.37Z"/>
      </g>
    </g>
  </g>
</svg>