<?xml version="1.0" encoding="UTF-8"?>
<svg id="_レイヤー_2" data-name="レイヤー 2" xmlns="http://www.w3.org/2000/svg" viewBox="0 0 39.9 55.4">
  <defs>
    <style>
      .cls-1 {
        fill: #fbb558;
      }

      .cls-1, .cls-2 {
        stroke-width: 0px;
      }

      .cls-2 {
        fill: #f68ca2;
      }
    </style>
  </defs>
  <g id="_レイヤー_1-2" data-name="レイヤー 1">
    <g>
      <path class="cls-2" d="m35.23,44.52c-.56,0-1.04.42-1.1.98-.49,4.26-4.12,7.58-8.51,7.58-4.72,0-8.56-3.84-8.56-8.56v-9.02c1.95-.43,3.54-1.97,4.01-3.91,4.31-.62,7.65-3.57,8.32-7.35l2.28-12.87c.41-2.34-.24-4.67-1.83-6.57-1.31-1.55-3.09-2.67-5.16-3.21-.79-1.38-2.56-2.02-4.14-1.22-.79.4-1.38,1.15-1.58,2.01-.48,2.04,1.06,3.85,3.02,3.85.77,0,1.51-.29,2.07-.81,1.16.38,2.15,1.02,2.84,1.86.6.72,1.26,1.9.99,3.43l-1.62,9.24H5.55s-1.63-9.24-1.63-9.24c-.27-1.53.39-2.71.99-3.43.7-.83,1.68-1.47,2.83-1.86.9.82,2.22,1.06,3.42.52.84-.38,1.47-1.16,1.69-2.05.49-2.04-1.05-3.87-3.01-3.87-1.11,0-2.15.6-2.69,1.56-2.08.55-3.87,1.67-5.17,3.22C.36,6.69-.29,9.02.12,11.36l2.28,12.87c.67,3.78,4.01,6.74,8.31,7.34.49,1.96,2.08,3.5,4.03,3.91v8.67c-.15,6.02,4.64,11.06,10.54,11.24,5.74.17,10.74-4.31,11.18-10.15.02-.15,0-.25-.04-.32-.14-.32-.62-.5-1.19-.41Z"/>
      <path class="cls-1" d="m38.87,34.28c-.78-.45-1.81-.25-2.78.43-.36.25-.83.26-1.19.02-5.51-3.55-4.29,7.39.62,7.51,3.15,0,5.98-6.45,3.36-7.96Z"/>
    </g>
  </g>
</svg>