<?xml version="1.0" encoding="UTF-8"?>
<svg id="_レイヤー_2" data-name="レイヤー 2" xmlns="http://www.w3.org/2000/svg" viewBox="0 0 53.82 58.23">
  <defs>
    <style>
      .cls-1 {
        fill: #fbb558;
      }

      .cls-1, .cls-2 {
        stroke-width: 0px;
      }

      .cls-2 {
        fill: #8cc5ec;
      }
    </style>
  </defs>
  <g id="_レイヤー_1-2" data-name="レイヤー 1">
    <g>
      <path class="cls-1" d="m33.71,43.75c-.12-.27-.08-.72-.02-1.07.4-2.36,1.14-4.12,2.01-5.44-1.66-1.87-3.47-2.15-3.56-2.16l-.34-.04c-.6,1.55-1.53,3.64-2.21,5.56-.2.56-.48,1.14-.8,1.37-.33.23-1.08.36-1.71.55-2.97.87-5.13,3.6-5.13,6.85,0,3.94,3.19,7.13,7.13,7.13s7.13-3.19,7.13-7.13c0-1.95-.78-3.71-2.05-5-.21-.22-.33-.34-.45-.61Zm-4.63,9.47c-2.13,0-3.86-1.73-3.86-3.86s1.73-3.86,3.86-3.86c2.13,0,3.86,1.73,3.86,3.86,0,2.13-1.73,3.86-3.86,3.86Z"/>
      <path class="cls-1" d="m50.2,53.65c.9-1.19,1.43-2.68,1.43-4.29,0-3.25-2.17-5.98-5.13-6.85-.63-.19-1.38-.32-1.71-.55-.33-.23-.6-.8-.8-1.37-.98-2.76-2.48-5.89-2.77-7.24,0,0-1.93-25.64-2.31-28.92C38.52,1.16,37.95,0,36.79,0c-1.16,0-1.74,1.16-2.12,4.43-.38,3.28-2.31,28.92-2.31,28.92,0,0,6.07.67,7.54,9.32.06.35.09.8-.02,1.07-.12.27-.24.39-.45.61-1.27,1.29-2.05,3.05-2.05,5,0,3.94,3.19,7.13,7.13,7.13,1.35,0,2.61-.37,3.68-1.02,2.44,2.2,4.48,2.76,4.48,2.76l1.16-2.12c-1.76-.53-3.35-2.17-3.62-2.46Zm-13.41-21.45c-.75,0-1.35-.6-1.35-1.35s.6-1.35,1.35-1.35c.75,0,1.35.6,1.35,1.35,0,.74-.6,1.35-1.35,1.35Zm7.71,21.02c-2.13,0-3.86-1.73-3.86-3.86,0-2.13,1.73-3.86,3.85-3.86,2.13,0,3.86,1.73,3.86,3.86,0,2.13-1.73,3.85-3.86,3.86Z"/>
      <path class="cls-2" d="m14.52.52H1.52c-.84,0-1.52.68-1.52,1.52v3.04c0,.71.57,1.28,1.28,1.28h9.32c1.21,0,2.19.99,2.19,2.2s-.98,2.19-2.19,2.19H1.28C.57,10.75,0,11.32,0,12.03v1.35C0,14.08.57,14.65,1.28,14.65h9.32c1.21,0,2.19.98,2.19,2.19s-.98,2.19-2.19,2.19H1.28C.57,19.04,0,19.61,0,20.32v1.35c0,.71.57,1.28,1.28,1.28h9.32c1.21,0,2.19.98,2.19,2.19s-.98,2.19-2.19,2.19H1.28C.57,27.33,0,27.91,0,28.61v1.35c0,.71.57,1.28,1.28,1.28h9.32c1.21,0,2.19.98,2.19,2.19s-.98,2.19-2.19,2.19H1.28C.57,35.63,0,36.2,0,36.91v1.35c0,.71.57,1.28,1.28,1.28h9.32c1.21,0,2.19.98,2.19,2.19s-.98,2.19-2.19,2.19H1.28C.57,43.92,0,44.5,0,45.2v1.35c0,.71.57,1.28,1.28,1.28h9.32c1.21,0,2.19.98,2.19,2.19s-.98,2.19-2.19,2.19H1.28C.57,52.22,0,52.79,0,53.5v2.69c0,.84.68,1.52,1.52,1.52h13c2.19,0,3.97-1.78,3.97-3.97V4.48c0-2.19-1.78-3.97-3.97-3.97Z"/>
    </g>
  </g>
</svg>