<?xml version="1.0" encoding="UTF-8"?>
<svg id="_レイヤー_2" data-name="レイヤー 2" xmlns="http://www.w3.org/2000/svg" viewBox="0 0 355.46 110.14">
  <defs>
    <style>
      .cls-1 {
        stroke: #000;
      }

      .cls-1, .cls-2 {
        fill: none;
        stroke-miterlimit: 10;
      }

      .cls-2 {
        stroke: #3d2026;
      }

      .cls-3 {
        fill: #fbb558;
      }

      .cls-3, .cls-4 {
        stroke-width: 0px;
      }

      .cls-4 {
        fill: #2d1218;
      }
    </style>
  </defs>
  <g id="_レイヤー_1-2" data-name="レイヤー 1">
    <g>
      <g>
        <g>
          <g>
            <line class="cls-2" y1="37.48" x2="354.96" y2="37.48"/>
            <line class="cls-2" y1="71.85" x2="354.96" y2="71.85"/>
          </g>
          <g>
            <line class="cls-2" x1="89.48" x2="89.48" y2="110.14"/>
            <line class="cls-1" x1="127.41" x2="127.41" y2="110.14"/>
            <line class="cls-1" x1="165.33" x2="165.33" y2="110.14"/>
            <line class="cls-1" x1="203.26" x2="203.26" y2="110.14"/>
            <line class="cls-1" x1="241.19" x2="241.19" y2="110.14"/>
            <line class="cls-1" x1="279.11" x2="279.11" y2="110.14"/>
            <line class="cls-2" x1="127.41" x2="127.41" y2="110.14"/>
            <line class="cls-1" x1="165.33" x2="165.33" y2="110.14"/>
            <line class="cls-1" x1="203.26" x2="203.26" y2="110.14"/>
            <line class="cls-1" x1="241.19" x2="241.19" y2="110.14"/>
            <line class="cls-1" x1="279.11" x2="279.11" y2="110.14"/>
            <line class="cls-1" x1="317.04" x2="317.04" y2="110.14"/>
            <line class="cls-2" x1="165.33" x2="165.33" y2="110.14"/>
            <line class="cls-2" x1="203.26" x2="203.26" y2="110.14"/>
            <line class="cls-2" x1="241.19" x2="241.19" y2="110.14"/>
            <line class="cls-2" x1="279.11" x2="279.11" y2="110.14"/>
            <line class="cls-2" x1="317.04" x2="317.04" y2="110.14"/>
            <line class="cls-2" x1="354.96" x2="354.96" y2="110.14"/>
          </g>
        </g>
        <g>
          <path class="cls-4" d="m109.96,26.6c-.23,0-.43-.08-.58-.23-.15-.15-.23-.35-.24-.58-.01-.22.06-.42.22-.58.15-.16.34-.25.55-.26.38-.02.67-.06.87-.11.2-.05.33-.16.4-.31.07-.15.1-.39.1-.7v-2.75h-5.78c-.14,1.13-.42,2.12-.86,2.97-.43.85-1.05,1.61-1.85,2.28-.17.14-.37.21-.6.22-.23,0-.42-.08-.58-.25-.15-.17-.22-.36-.2-.57s.11-.38.28-.52c.59-.47,1.06-.99,1.41-1.55.35-.57.61-1.21.76-1.93.15-.72.23-1.55.23-2.49v-3.87c0-1.04.24-1.78.72-2.21.48-.43,1.3-.64,2.45-.64h2.37c1.15,0,1.97.21,2.45.64.48.43.72,1.16.72,2.21v8.69c0,.91-.21,1.56-.64,1.95-.43.39-1.16.59-2.21.59Zm-4.35-10.48h5.68v-.67c0-.58-.12-.98-.36-1.2-.24-.22-.69-.34-1.35-.34h-2.26c-.65,0-1.1.11-1.34.34-.25.22-.37.62-.37,1.2v.67Zm0,3.6h5.68v-2.22h-5.68v2.22Z"/>
          <path class="cls-4" d="m140.36,26.37c-.23.1-.45.13-.66.09-.2-.04-.36-.16-.48-.36-.11-.19-.13-.39-.06-.6.07-.21.22-.36.46-.46,2.07-.83,3.56-1.96,4.46-3.38.91-1.42,1.36-3.09,1.36-5v-3.79c0-.23.08-.42.23-.57.15-.14.34-.22.55-.22s.39.07.54.22c.15.14.22.33.22.57v4.3c.07,1.79.63,3.34,1.66,4.63,1.03,1.3,2.49,2.32,4.35,3.08.21.08.36.23.43.45.07.21.06.42-.03.62-.11.21-.27.35-.5.41-.23.06-.46.04-.68-.06-1.48-.64-2.72-1.46-3.72-2.46-1-1-1.72-2.14-2.17-3.43-.47,1.26-1.2,2.4-2.2,3.42-1,1.02-2.26,1.87-3.78,2.53Zm.18-5.9c-.2-.09-.34-.22-.4-.42-.06-.19-.05-.38.03-.58.16-.35.34-.78.53-1.29s.38-1.02.55-1.53c.18-.51.31-.94.41-1.3.05-.21.17-.37.34-.48.17-.11.36-.13.58-.08.21.04.37.15.48.33.11.18.13.38.08.6-.1.38-.23.84-.41,1.38-.18.53-.37,1.06-.57,1.58-.2.52-.39.98-.58,1.36-.1.2-.24.34-.44.42-.2.08-.4.08-.6,0Zm8.53-.54c-.17-.11-.27-.26-.31-.46-.04-.2,0-.38.1-.54.17-.22.36-.5.58-.82.21-.33.43-.67.65-1.03.22-.36.42-.71.62-1.05s.35-.62.46-.86c.1-.21.25-.35.45-.42.2-.07.41-.05.61.06.19.11.32.26.39.45.07.19.06.38-.04.58-.18.35-.41.77-.7,1.25-.28.48-.58.96-.88,1.42-.3.47-.58.87-.82,1.2-.14.17-.31.28-.51.34-.2.05-.4.02-.59-.11Z"/>
          <path class="cls-4" d="m178.28,24.87c-.17.14-.36.21-.56.21s-.38-.08-.54-.24c-.13-.14-.19-.31-.18-.51.01-.2.09-.36.24-.48.97-.77,1.82-1.63,2.54-2.6.73-.96,1.25-1.94,1.58-2.94.12-.36.12-.61,0-.73-.11-.12-.35-.18-.73-.18h-2.62c-.18,0-.34-.06-.47-.19-.13-.13-.2-.29-.2-.48s.07-.34.2-.47c.13-.13.29-.2.47-.2h2.72c.94,0,1.57.18,1.89.54.32.36.36.96.11,1.81-.38,1.32-.96,2.52-1.74,3.58-.77,1.07-1.68,2.03-2.73,2.88Zm4.35,1.87c-.27,0-.47-.07-.61-.2-.14-.13-.22-.3-.24-.5-.02-.21.04-.4.18-.55.14-.15.34-.24.61-.26.47-.03.78-.1.94-.22.15-.11.23-.35.23-.71v-11.68c0-.21.07-.38.21-.51.14-.13.3-.19.5-.19s.36.06.5.19c.14.13.21.3.21.51v2.61c.28.94.66,1.85,1.14,2.74.34-.27.71-.58,1.12-.93.41-.35.8-.7,1.18-1.06.38-.35.7-.66.96-.91.15-.15.32-.23.52-.23.2,0,.37.07.52.22.15.14.22.3.22.5s-.07.36-.22.51c-.29.29-.65.62-1.07.98-.43.37-.86.73-1.31,1.1-.45.36-.86.68-1.25.96.58.87,1.23,1.69,1.98,2.46.74.76,1.53,1.43,2.36,1.99.17.11.27.27.3.49s-.03.42-.18.6c-.14.17-.32.26-.55.28-.23.02-.43-.04-.62-.18-1.05-.8-2.01-1.73-2.88-2.79-.87-1.06-1.62-2.23-2.22-3.5v6.03c0,.81-.19,1.39-.57,1.74-.38.35-1.03.53-1.94.53Z"/>
          <path class="cls-4" d="m222.39,26.74c-.19,0-.36-.07-.5-.2-.14-.13-.22-.31-.22-.52v-7.7c-.43.73-.92,1.45-1.49,2.18-.57.73-1.17,1.42-1.8,2.07-.63.66-1.28,1.25-1.93,1.77-.17.14-.37.21-.6.22-.23.01-.42-.07-.57-.24-.14-.17-.19-.36-.16-.56.03-.2.13-.37.3-.51.48-.35.98-.77,1.5-1.26.52-.49,1.03-1.02,1.54-1.58.51-.57.98-1.14,1.42-1.72.44-.58.82-1.14,1.14-1.67h-4.98c-.19,0-.35-.07-.49-.2-.13-.13-.2-.3-.2-.49,0-.18.07-.34.2-.47.13-.13.3-.2.49-.2h5.62v-2.98c0-.21.07-.39.22-.52.14-.13.31-.2.5-.2.2,0,.38.07.52.2.14.13.22.31.22.52v2.98h5.62c.18,0,.34.07.47.2.13.13.2.29.2.47,0,.19-.07.36-.2.49-.13.13-.29.2-.47.2h-4.99c.47.69,1.02,1.42,1.65,2.17.63.75,1.3,1.48,2,2.18.7.7,1.4,1.34,2.08,1.9.16.13.25.3.27.52.02.22-.04.41-.19.57-.14.16-.32.25-.54.26-.22.02-.42-.05-.6-.2-.62-.53-1.25-1.14-1.9-1.81-.65-.67-1.26-1.38-1.85-2.12-.59-.74-1.1-1.47-1.55-2.18v7.71c0,.21-.07.39-.22.52-.14.13-.32.2-.52.2Z"/>
          <path class="cls-4" d="m253.94,18.52c-.2.11-.41.14-.61.1-.2-.04-.36-.15-.48-.33-.11-.18-.13-.37-.07-.58.06-.2.17-.34.34-.42.51-.26,1.05-.57,1.62-.94s1.12-.76,1.67-1.18c.55-.42,1.07-.85,1.56-1.28.49-.43.92-.84,1.28-1.22.37-.41.78-.61,1.21-.62.43,0,.83.18,1.19.55.36.37.8.77,1.3,1.2.51.43,1.05.85,1.62,1.26.57.41,1.13.79,1.69,1.13.55.34,1.06.62,1.52.85.18.08.31.24.38.47s.05.43-.07.62c-.13.2-.3.33-.53.38-.22.05-.44.02-.66-.1-.43-.24-.91-.53-1.44-.88-.53-.35-1.08-.73-1.63-1.14-.55-.41-1.08-.83-1.58-1.26-.5-.43-.91-.83-1.26-1.22-.33-.36-.65-.37-.96-.02-.35.36-.77.75-1.25,1.17s-1,.83-1.55,1.26c-.55.42-1.11.82-1.68,1.19-.57.37-1.1.7-1.62.99Zm.26,7.54c-.19,0-.35-.06-.46-.19-.12-.13-.18-.28-.18-.45,0-.18.06-.33.18-.46.12-.12.27-.18.46-.18h5.5v-3.62h-4.4c-.2,0-.37-.07-.49-.2-.12-.13-.18-.29-.18-.46,0-.18.06-.34.18-.47.12-.13.29-.2.49-.2h4.4v-1.65h-2.37c-.2,0-.36-.06-.48-.19-.12-.13-.18-.28-.18-.46s.06-.34.18-.46c.12-.13.28-.19.48-.19h6.27c.2,0,.36.06.48.19s.18.28.18.46-.06.34-.18.46-.28.19-.48.19h-2.35v1.65h4.35c.2,0,.37.07.49.2.12.13.18.29.18.47,0,.17-.06.32-.18.46-.12.13-.29.2-.49.2h-4.35v3.62h5.39c.2,0,.36.06.48.18.12.12.18.28.18.46,0,.17-.06.32-.18.45-.12.13-.28.19-.48.19h-12.45Zm3.97-1.49c-.16.11-.34.14-.53.11-.19-.03-.34-.13-.45-.29-.1-.16-.22-.36-.38-.59-.15-.24-.31-.47-.46-.7-.15-.23-.29-.42-.41-.56-.12-.15-.17-.31-.14-.5.02-.18.11-.33.26-.43.15-.12.33-.17.53-.15.2.02.37.1.5.26.12.14.26.33.42.56.17.24.33.47.49.71.16.24.28.43.37.58.12.16.16.34.12.53-.04.19-.14.35-.31.46Zm4.58.03c-.16-.11-.26-.25-.3-.43-.04-.18-.01-.35.1-.5s.23-.34.38-.58c.14-.23.29-.47.42-.72.14-.25.25-.45.34-.61.09-.17.22-.28.42-.34.19-.05.37-.03.54.06.18.09.3.22.35.41s.03.37-.06.55c-.09.16-.2.37-.34.62-.14.25-.29.5-.43.74s-.27.43-.38.58c-.11.17-.26.27-.46.31-.2.04-.39,0-.56-.1Z"/>
          <path class="cls-4" d="m291.86,25.88c-.2,0-.37-.07-.51-.21-.14-.14-.21-.31-.21-.51s.07-.38.21-.52c.14-.14.31-.22.51-.22h5.92v-5.95h-4.83c-.2,0-.37-.07-.51-.21-.14-.14-.21-.31-.21-.51s.07-.37.21-.51c.14-.14.31-.21.51-.21h4.83v-4.03c0-.23.07-.42.22-.57.15-.14.33-.22.54-.22s.4.07.55.22c.15.14.23.33.23.57v4.03h4.88c.2,0,.37.07.51.21.14.14.21.31.21.51s-.07.37-.21.51c-.14.14-.31.21-.51.21h-4.88v5.95h5.97c.2,0,.37.07.51.22.14.14.21.32.21.52s-.07.37-.21.51c-.14.14-.31.21-.51.21h-13.44Z"/>
          <path class="cls-4" d="m336.02,25.62c-.87,0-1.6-.06-2.17-.18-.57-.12-1.02-.33-1.35-.62-.33-.3-.57-.72-.7-1.27-.14-.55-.21-1.26-.21-2.12v-4.22c0-.86.07-1.57.21-2.12.14-.55.37-.97.7-1.27.33-.3.78-.51,1.35-.62.57-.12,1.29-.18,2.17-.18h1.23c.87,0,1.6.06,2.17.18.57.12,1.02.33,1.35.62.33.3.56.72.7,1.27.13.55.2,1.26.2,2.12v4.22c0,.86-.07,1.57-.2,2.12-.13.55-.37.97-.7,1.27-.33.3-.78.51-1.35.62-.57.12-1.29.18-2.17.18h-1.23Zm-2.93-7.1h7.07v-1.31c0-.61-.04-1.1-.12-1.46-.08-.37-.22-.65-.42-.85s-.5-.33-.88-.4-.88-.1-1.49-.1h-1.23c-.61,0-1.1.03-1.49.1s-.68.2-.89.4-.35.48-.43.85c-.08.37-.12.86-.12,1.46v1.31Zm2.93,5.73h1.23c.61,0,1.1-.03,1.49-.1s.68-.2.88-.4.34-.48.42-.85c.08-.37.12-.86.12-1.46v-1.55h-7.07v1.55c0,.61.04,1.1.12,1.46.08.37.22.65.43.85s.5.33.89.4.88.1,1.49.1Z"/>
        </g>
        <g>
          <path class="cls-4" d="m11.42,59.35c-.43,0-.82-.08-1.19-.25-.37-.17-.7-.39-.98-.68-.19-.16-.28-.33-.27-.5.01-.18.1-.33.26-.46.17-.14.33-.19.48-.16.15.03.31.12.48.26.17.16.35.29.55.38.2.09.42.14.68.14.6,0,1.07-.2,1.42-.6.35-.4.59-.95.74-1.65.14-.7.22-1.5.22-2.41-.19.35-.47.63-.84.82-.37.2-.77.3-1.19.3-.57,0-1.08-.13-1.54-.39-.46-.26-.82-.64-1.1-1.13-.27-.49-.41-1.08-.41-1.76s.13-1.27.38-1.79c.26-.52.61-.93,1.07-1.23.46-.3.99-.45,1.6-.45.47,0,.91.08,1.33.26.42.17.78.46,1.09.88.31.42.55.98.72,1.7.17.72.25,1.63.22,2.73-.04,2.08-.38,3.6-1.01,4.56-.63.96-1.53,1.44-2.7,1.44Zm.37-6.05c.55,0,1.01-.21,1.36-.62.35-.41.5-.92.45-1.54-.05-.66-.23-1.17-.54-1.51s-.71-.52-1.21-.52c-.55,0-.98.21-1.29.62-.3.42-.46.92-.46,1.52s.15,1.1.46,1.48c.31.38.71.57,1.22.57Z"/>
          <path class="cls-4" d="m17.94,53.43c-.3,0-.55-.1-.76-.31s-.31-.46-.31-.76.1-.55.31-.75c.21-.2.46-.3.76-.3s.54.1.74.3c.21.2.31.45.31.75s-.1.55-.31.76-.46.31-.74.31Zm0,5.92c-.3,0-.55-.1-.76-.31s-.31-.46-.31-.74.1-.55.31-.76.46-.31.76-.31.54.1.74.31.31.46.31.76-.1.54-.31.74-.46.31-.74.31Z"/>
          <path class="cls-4" d="m23.98,59.35c-1.22,0-2.06-.47-2.53-1.42-.47-.95-.7-2.4-.7-4.35s.23-3.41.7-4.36c.47-.95,1.31-1.43,2.53-1.43s2.04.48,2.51,1.43c.47.96.7,2.41.7,4.36s-.23,3.4-.7,4.35c-.47.95-1.31,1.42-2.51,1.42Zm0-1.33c.45,0,.81-.14,1.08-.41.27-.27.47-.73.59-1.38.12-.65.18-1.54.18-2.66s-.06-2.02-.18-2.67c-.12-.65-.32-1.11-.59-1.38-.27-.27-.63-.41-1.08-.41s-.79.14-1.07.41c-.28.27-.48.73-.61,1.38-.13.65-.19,1.54-.19,2.67s.06,2,.19,2.66c.13.65.33,1.11.61,1.38.28.27.63.41,1.07.41Z"/>
          <path class="cls-4" d="m32.02,59.35c-1.22,0-2.06-.47-2.53-1.42-.47-.95-.7-2.4-.7-4.35s.23-3.41.7-4.36c.47-.95,1.31-1.43,2.53-1.43s2.04.48,2.51,1.43c.47.96.7,2.41.7,4.36s-.23,3.4-.7,4.35c-.47.95-1.31,1.42-2.51,1.42Zm0-1.33c.45,0,.81-.14,1.08-.41.27-.27.47-.73.59-1.38.12-.65.18-1.54.18-2.66s-.06-2.02-.18-2.67c-.12-.65-.32-1.11-.59-1.38-.27-.27-.63-.41-1.08-.41s-.79.14-1.07.41c-.28.27-.48.73-.61,1.38-.13.65-.19,1.54-.19,2.67s.06,2,.19,2.66c.13.65.33,1.11.61,1.38.28.27.63.41,1.07.41Z"/>
          <path class="cls-4" d="m37.74,55.83c-.17,0-.32-.07-.46-.2-.13-.13-.2-.29-.2-.46,0-.18.07-.34.2-.47.13-.13.29-.2.46-.2h3.97c.18,0,.34.07.47.2.13.13.2.29.2.47,0,.17-.07.32-.2.46-.13.13-.29.2-.47.2h-3.97Z"/>
          <path class="cls-4" d="m47.03,59.18c-.46,0-.69-.26-.69-.77v-8.69l-1.47.93c-.44.29-.77.24-.99-.16-.26-.39-.17-.72.27-.99l2.08-1.28c.29-.18.6-.27.93-.27.36,0,.54.26.54.77v9.7c0,.51-.22.77-.67.77Z"/>
          <path class="cls-4" d="m51.06,59.18c-.51,0-.77-.15-.77-.45,0-.79.23-1.55.68-2.27.45-.73,1.11-1.5,1.98-2.32.36-.35.7-.7,1.02-1.05.31-.35.57-.69.78-1.03.2-.34.31-.67.32-.99.02-.63-.12-1.1-.43-1.41-.31-.31-.75-.46-1.31-.46-.39,0-.73.12-.99.34-.27.23-.44.56-.53.98-.06.24-.15.42-.26.54-.11.13-.27.19-.5.19s-.38-.07-.5-.22c-.12-.14-.16-.34-.12-.6.14-.79.47-1.41.98-1.87.52-.46,1.15-.69,1.91-.69.62,0,1.17.12,1.64.38.47.25.84.62,1.1,1.1.26.48.38,1.06.36,1.74-.01.5-.13.97-.37,1.4-.23.43-.54.85-.91,1.26-.37.41-.79.83-1.25,1.28-.51.52-.98,1.03-1.4,1.51-.42.49-.67.94-.74,1.37h3.74c.51,0,.77.21.77.62s-.26.64-.77.64h-4.43Z"/>
          <path class="cls-4" d="m58.95,53.43c-.3,0-.55-.1-.76-.31s-.31-.46-.31-.76.1-.55.31-.75c.21-.2.46-.3.76-.3s.54.1.74.3c.21.2.31.45.31.75s-.1.55-.31.76-.46.31-.74.31Zm0,5.92c-.3,0-.55-.1-.76-.31s-.31-.46-.31-.74.1-.55.31-.76.46-.31.76-.31.54.1.74.31.31.46.31.76-.1.54-.31.74-.46.31-.74.31Z"/>
          <path class="cls-4" d="m64.98,59.35c-1.22,0-2.06-.47-2.53-1.42-.47-.95-.7-2.4-.7-4.35s.23-3.41.7-4.36c.47-.95,1.31-1.43,2.53-1.43s2.04.48,2.51,1.43c.47.96.7,2.41.7,4.36s-.23,3.4-.7,4.35c-.47.95-1.31,1.42-2.51,1.42Zm0-1.33c.45,0,.81-.14,1.08-.41.27-.27.47-.73.59-1.38.12-.65.18-1.54.18-2.66s-.06-2.02-.18-2.67c-.12-.65-.32-1.11-.59-1.38-.27-.27-.63-.41-1.08-.41s-.79.14-1.07.41c-.28.27-.48.73-.61,1.38-.13.65-.19,1.54-.19,2.67s.06,2,.19,2.66c.13.65.33,1.11.61,1.38.28.27.63.41,1.07.41Z"/>
          <path class="cls-4" d="m73.03,59.35c-1.22,0-2.06-.47-2.53-1.42-.47-.95-.7-2.4-.7-4.35s.23-3.41.7-4.36c.47-.95,1.31-1.43,2.53-1.43s2.04.48,2.51,1.43c.47.96.7,2.41.7,4.36s-.23,3.4-.7,4.35c-.47.95-1.31,1.42-2.51,1.42Zm0-1.33c.45,0,.81-.14,1.08-.41.27-.27.47-.73.59-1.38.12-.65.18-1.54.18-2.66s-.06-2.02-.18-2.67c-.12-.65-.32-1.11-.59-1.38-.27-.27-.63-.41-1.08-.41s-.79.14-1.07.41c-.28.27-.48.73-.61,1.38-.13.65-.19,1.54-.19,2.67s.06,2,.19,2.66c.13.65.33,1.11.61,1.38.28.27.63.41,1.07.41Z"/>
        </g>
        <g>
          <path class="cls-4" d="m3.62,96.51c-.46,0-.69-.26-.69-.77v-8.69l-1.47.93c-.44.29-.77.24-.99-.16-.26-.39-.17-.72.27-.99l2.08-1.28c.29-.18.6-.27.93-.27.36,0,.54.26.54.77v9.7c0,.51-.22.77-.67.77Z"/>
          <path class="cls-4" d="m10.53,96.68c-.47,0-.91-.08-1.33-.26s-.78-.46-1.1-.88c-.31-.42-.55-.98-.72-1.7-.17-.72-.24-1.63-.22-2.73.04-2.07.38-3.59,1.01-4.55.63-.96,1.53-1.45,2.69-1.45.44,0,.84.08,1.21.26.37.17.7.39,1,.67.19.16.28.33.27.51-.01.18-.1.34-.26.46-.17.13-.33.18-.48.14-.15-.03-.31-.12-.5-.26-.17-.16-.35-.28-.55-.37-.2-.09-.42-.13-.68-.13-.59,0-1.05.19-1.4.58-.35.39-.59.93-.74,1.63-.15.7-.23,1.51-.24,2.42.2-.35.49-.63.86-.82.37-.2.77-.3,1.19-.3.58,0,1.09.13,1.55.4.46.27.82.64,1.09,1.13.27.49.4,1.07.4,1.75s-.13,1.27-.38,1.79-.61.93-1.07,1.23c-.46.3-.99.45-1.6.45Zm-.08-1.31c.57,0,1-.21,1.3-.62.3-.42.45-.93.45-1.54s-.15-1.1-.46-1.46c-.31-.37-.71-.55-1.22-.55-.55,0-1.01.2-1.36.6-.35.4-.5.91-.45,1.53.05.66.23,1.17.53,1.52.3.35.7.53,1.22.53Z"/>
          <path class="cls-4" d="m16.3,90.76c-.3,0-.55-.1-.76-.31s-.31-.46-.31-.76.1-.55.31-.75c.21-.2.46-.3.76-.3s.54.1.74.3c.21.2.31.45.31.75s-.1.55-.31.76-.46.31-.74.31Zm0,5.92c-.3,0-.55-.1-.76-.31s-.31-.46-.31-.74.1-.55.31-.76.46-.31.76-.31.54.1.74.31.31.46.31.76-.1.54-.31.74-.46.31-.74.31Z"/>
          <path class="cls-4" d="m22.34,96.68c-1.22,0-2.06-.47-2.53-1.42-.47-.95-.7-2.4-.7-4.35s.23-3.41.7-4.36c.47-.95,1.31-1.43,2.53-1.43s2.04.48,2.51,1.43c.47.96.7,2.41.7,4.36s-.23,3.4-.7,4.35c-.47.95-1.31,1.42-2.51,1.42Zm0-1.33c.45,0,.81-.14,1.08-.41.27-.27.47-.73.59-1.38.12-.65.18-1.54.18-2.66s-.06-2.02-.18-2.67c-.12-.65-.32-1.11-.59-1.38-.27-.27-.63-.41-1.08-.41s-.79.14-1.07.41c-.28.27-.48.73-.61,1.38-.13.65-.19,1.54-.19,2.67s.06,2,.19,2.66c.13.65.33,1.11.61,1.38.28.27.63.41,1.07.41Z"/>
          <path class="cls-4" d="m30.38,96.68c-1.22,0-2.06-.47-2.53-1.42-.47-.95-.7-2.4-.7-4.35s.23-3.41.7-4.36c.47-.95,1.31-1.43,2.53-1.43s2.04.48,2.51,1.43c.47.96.7,2.41.7,4.36s-.23,3.4-.7,4.35c-.47.95-1.31,1.42-2.51,1.42Zm0-1.33c.45,0,.81-.14,1.08-.41.27-.27.47-.73.59-1.38.12-.65.18-1.54.18-2.66s-.06-2.02-.18-2.67c-.12-.65-.32-1.11-.59-1.38-.27-.27-.63-.41-1.08-.41s-.79.14-1.07.41c-.28.27-.48.73-.61,1.38-.13.65-.19,1.54-.19,2.67s.06,2,.19,2.66c.13.65.33,1.11.61,1.38.28.27.63.41,1.07.41Z"/>
          <path class="cls-4" d="m36.1,93.16c-.17,0-.32-.07-.46-.2-.13-.13-.2-.29-.2-.46,0-.18.07-.34.2-.47.13-.13.29-.2.46-.2h3.97c.18,0,.34.07.47.2.13.13.2.29.2.47,0,.17-.07.32-.2.46-.13.13-.29.2-.47.2h-3.97Z"/>
          <path class="cls-4" d="m45.39,96.51c-.46,0-.69-.26-.69-.77v-8.69l-1.47.93c-.44.29-.77.24-.99-.16-.26-.39-.17-.72.27-.99l2.08-1.28c.29-.18.6-.27.93-.27.36,0,.54.26.54.77v9.7c0,.51-.22.77-.67.77Z"/>
          <path class="cls-4" d="m51.26,96.68c-.43,0-.82-.08-1.19-.25-.37-.17-.7-.39-.98-.68-.19-.16-.28-.33-.27-.5.01-.18.1-.33.26-.46.17-.14.33-.19.48-.16.15.03.31.12.48.26.17.16.35.29.55.38.2.09.42.14.68.14.6,0,1.07-.2,1.42-.6.35-.4.59-.95.74-1.65.14-.7.22-1.5.22-2.41-.19.35-.47.63-.84.82-.37.2-.77.3-1.19.3-.57,0-1.08-.13-1.54-.39-.46-.26-.82-.64-1.1-1.13-.27-.49-.41-1.08-.41-1.76s.13-1.27.38-1.79c.26-.52.61-.93,1.07-1.23.46-.3.99-.45,1.6-.45.47,0,.91.08,1.33.26.42.17.78.46,1.09.88.31.42.55.98.72,1.7.17.72.25,1.63.22,2.73-.04,2.08-.38,3.6-1.01,4.56-.63.96-1.53,1.44-2.7,1.44Zm.37-6.05c.55,0,1.01-.21,1.36-.62.35-.41.5-.92.45-1.54-.05-.66-.23-1.17-.54-1.51s-.71-.52-1.21-.52c-.55,0-.98.21-1.29.62-.3.42-.46.92-.46,1.52s.15,1.1.46,1.48c.31.38.71.57,1.22.57Z"/>
          <path class="cls-4" d="m57.79,90.76c-.3,0-.55-.1-.76-.31s-.31-.46-.31-.76.1-.55.31-.75c.21-.2.46-.3.76-.3s.54.1.74.3c.21.2.31.45.31.75s-.1.55-.31.76-.46.31-.74.31Zm0,5.92c-.3,0-.55-.1-.76-.31s-.31-.46-.31-.74.1-.55.31-.76.46-.31.76-.31.54.1.74.31.31.46.31.76-.1.54-.31.74-.46.31-.74.31Z"/>
          <path class="cls-4" d="m63.82,96.68c-1.22,0-2.06-.47-2.53-1.42-.47-.95-.7-2.4-.7-4.35s.23-3.41.7-4.36c.47-.95,1.31-1.43,2.53-1.43s2.04.48,2.51,1.43c.47.96.7,2.41.7,4.36s-.23,3.4-.7,4.35c-.47.95-1.31,1.42-2.51,1.42Zm0-1.33c.45,0,.81-.14,1.08-.41.27-.27.47-.73.59-1.38.12-.65.18-1.54.18-2.66s-.06-2.02-.18-2.67c-.12-.65-.32-1.11-.59-1.38-.27-.27-.63-.41-1.08-.41s-.79.14-1.07.41c-.28.27-.48.73-.61,1.38-.13.65-.19,1.54-.19,2.67s.06,2,.19,2.66c.13.65.33,1.11.61,1.38.28.27.63.41,1.07.41Z"/>
          <path class="cls-4" d="m71.87,96.68c-1.22,0-2.06-.47-2.53-1.42-.47-.95-.7-2.4-.7-4.35s.23-3.41.7-4.36c.47-.95,1.31-1.43,2.53-1.43s2.04.48,2.51,1.43c.47.96.7,2.41.7,4.36s-.23,3.4-.7,4.35c-.47.95-1.31,1.42-2.51,1.42Zm0-1.33c.45,0,.81-.14,1.08-.41.27-.27.47-.73.59-1.38.12-.65.18-1.54.18-2.66s-.06-2.02-.18-2.67c-.12-.65-.32-1.11-.59-1.38-.27-.27-.63-.41-1.08-.41s-.79.14-1.07.41c-.28.27-.48.73-.61,1.38-.13.65-.19,1.54-.19,2.67s.06,2,.19,2.66c.13.65.33,1.11.61,1.38.28.27.63.41,1.07.41Z"/>
        </g>
      </g>
      <g>
        <path class="cls-3" d="m104.44,93.61s0-.03,0-.04c-.03-1.62,1.56-2.96,3.56-2.99s3.64,1.27,3.67,2.89c0,0,0,0,0,0,1.54.32,2.69,1.45,2.71,2.8.03,1.62-1.56,2.96-3.56,2.99-.43,0-.85-.05-1.24-.16-.88-.25-1.82-.23-2.69.04-.38.12-.8.19-1.23.19-2,.03-3.64-1.27-3.67-2.89-.02-1.31,1-2.43,2.45-2.83Z"/>
        <g>
          <ellipse class="cls-3" cx="110.29" cy="85.81" rx="2.53" ry="1.7" transform="translate(19.66 192.18) rotate(-87.45)"/>
          <ellipse class="cls-3" cx="115.37" cy="88.46" rx="2.53" ry="1.71" transform="translate(1.89 179.33) rotate(-76.17)"/>
        </g>
        <g>
          <ellipse class="cls-3" cx="105.33" cy="85.88" rx="1.7" ry="2.53" transform="translate(-7.28 9.8) rotate(-5.15)"/>
          <ellipse class="cls-3" cx="100.35" cy="88.66" rx="1.7" ry="2.53" transform="translate(-20.89 31.81) rotate(-16.34)"/>
        </g>
      </g>
      <g>
        <path class="cls-3" d="m142.96,92.88s0-.03,0-.04c-.03-1.62,1.56-2.96,3.56-2.99s3.64,1.27,3.67,2.89c0,0,0,0,0,0,1.54.32,2.69,1.45,2.71,2.8.03,1.62-1.56,2.96-3.56,2.99-.43,0-.85-.05-1.24-.16-.88-.25-1.82-.23-2.69.04-.38.12-.8.19-1.23.19-2,.03-3.64-1.27-3.67-2.89-.02-1.31,1-2.43,2.45-2.83Z"/>
        <g>
          <ellipse class="cls-3" cx="148.81" cy="85.08" rx="2.53" ry="1.7" transform="translate(57.2 229.96) rotate(-87.45)"/>
          <ellipse class="cls-3" cx="153.89" cy="87.73" rx="2.53" ry="1.71" transform="translate(31.91 216.18) rotate(-76.17)"/>
        </g>
        <g>
          <ellipse class="cls-3" cx="143.85" cy="85.15" rx="1.7" ry="2.53" transform="translate(-7.06 13.26) rotate(-5.15)"/>
          <ellipse class="cls-3" cx="138.87" cy="87.93" rx="1.7" ry="2.53" transform="translate(-19.13 42.62) rotate(-16.34)"/>
        </g>
      </g>
      <g>
        <path class="cls-3" d="m181.31,92.88s0-.03,0-.04c-.03-1.62,1.56-2.96,3.56-2.99s3.64,1.27,3.67,2.89c0,0,0,0,0,0,1.54.32,2.69,1.45,2.71,2.8.03,1.62-1.56,2.96-3.56,2.99-.43,0-.85-.05-1.24-.16-.88-.25-1.82-.23-2.69.04-.38.12-.8.19-1.23.19-2,.03-3.64-1.27-3.67-2.89-.02-1.31,1-2.43,2.45-2.83Z"/>
        <g>
          <ellipse class="cls-3" cx="187.16" cy="85.08" rx="2.53" ry="1.7" transform="translate(93.85 268.28) rotate(-87.45)"/>
          <ellipse class="cls-3" cx="192.24" cy="87.73" rx="2.53" ry="1.71" transform="translate(61.1 253.42) rotate(-76.17)"/>
        </g>
        <g>
          <ellipse class="cls-3" cx="182.2" cy="85.15" rx="1.7" ry="2.53" transform="translate(-6.91 16.7) rotate(-5.15)"/>
          <ellipse class="cls-3" cx="177.23" cy="87.93" rx="1.7" ry="2.53" transform="translate(-17.58 53.41) rotate(-16.34)"/>
        </g>
      </g>
      <g>
        <path class="cls-3" d="m256.35,92.88s0-.03,0-.04c-.03-1.62,1.56-2.96,3.56-2.99s3.64,1.27,3.67,2.89c0,0,0,0,0,0,1.54.32,2.69,1.45,2.71,2.8.03,1.62-1.56,2.96-3.56,2.99-.43,0-.85-.05-1.24-.16-.88-.25-1.82-.23-2.69.04-.38.12-.8.19-1.23.19-2,.03-3.64-1.27-3.67-2.89-.02-1.31,1-2.43,2.45-2.83Z"/>
        <g>
          <ellipse class="cls-3" cx="262.2" cy="85.08" rx="2.53" ry="1.7" transform="translate(165.55 343.24) rotate(-87.45)"/>
          <ellipse class="cls-3" cx="267.28" cy="87.73" rx="2.53" ry="1.71" transform="translate(118.19 326.28) rotate(-76.17)"/>
        </g>
        <g>
          <ellipse class="cls-3" cx="257.24" cy="85.15" rx="1.7" ry="2.53" transform="translate(-6.61 23.44) rotate(-5.15)"/>
          <ellipse class="cls-3" cx="252.26" cy="87.93" rx="1.7" ry="2.53" transform="translate(-14.55 74.52) rotate(-16.34)"/>
        </g>
      </g>
      <g>
        <path class="cls-3" d="m294.87,92.88s0-.03,0-.04c-.03-1.62,1.56-2.96,3.56-2.99s3.64,1.27,3.67,2.89c0,0,0,0,0,0,1.54.32,2.69,1.45,2.71,2.8.03,1.62-1.56,2.96-3.56,2.99-.43,0-.85-.05-1.24-.16-.88-.25-1.82-.23-2.69.04-.38.12-.8.19-1.23.19-2,.03-3.64-1.27-3.67-2.89-.02-1.31,1-2.43,2.45-2.83Z"/>
        <g>
          <ellipse class="cls-3" cx="300.72" cy="85.08" rx="2.53" ry="1.7" transform="translate(202.36 381.72) rotate(-87.45)"/>
          <ellipse class="cls-3" cx="305.8" cy="87.73" rx="2.53" ry="1.71" transform="translate(147.5 363.68) rotate(-76.17)"/>
        </g>
        <g>
          <ellipse class="cls-3" cx="295.76" cy="85.15" rx="1.7" ry="2.53" transform="translate(-6.45 26.9) rotate(-5.15)"/>
          <ellipse class="cls-3" cx="290.78" cy="87.93" rx="1.7" ry="2.53" transform="translate(-12.99 85.36) rotate(-16.34)"/>
        </g>
      </g>
      <g>
        <path class="cls-3" d="m332.39,92.88s0-.03,0-.04c-.03-1.62,1.56-2.96,3.56-2.99s3.64,1.27,3.67,2.89c0,0,0,0,0,0,1.54.32,2.69,1.45,2.71,2.8.03,1.62-1.56,2.96-3.56,2.99-.43,0-.85-.05-1.24-.16-.88-.25-1.82-.23-2.69.04-.38.12-.8.19-1.23.19-2,.03-3.64-1.27-3.67-2.89-.02-1.31,1-2.43,2.45-2.83Z"/>
        <g>
          <ellipse class="cls-3" cx="338.24" cy="85.08" rx="2.53" ry="1.7" transform="translate(238.21 419.21) rotate(-87.45)"/>
          <ellipse class="cls-3" cx="343.32" cy="87.73" rx="2.53" ry="1.71" transform="translate(176.05 400.11) rotate(-76.17)"/>
        </g>
        <g>
          <ellipse class="cls-3" cx="333.28" cy="85.15" rx="1.7" ry="2.53" transform="translate(-6.3 30.26) rotate(-5.15)"/>
          <ellipse class="cls-3" cx="328.3" cy="87.93" rx="1.7" ry="2.53" transform="translate(-11.48 95.92) rotate(-16.34)"/>
        </g>
      </g>
      <g>
        <path class="cls-3" d="m104.44,57.74s0-.03,0-.04c-.03-1.62,1.56-2.96,3.56-2.99s3.64,1.27,3.67,2.89c0,0,0,0,0,0,1.54.32,2.69,1.45,2.71,2.8.03,1.62-1.56,2.96-3.56,2.99-.43,0-.85-.05-1.24-.16-.88-.25-1.82-.23-2.69.04-.38.12-.8.19-1.23.19-2,.03-3.64-1.27-3.67-2.89-.02-1.31,1-2.43,2.45-2.83Z"/>
        <g>
          <ellipse class="cls-3" cx="110.29" cy="49.94" rx="2.53" ry="1.7" transform="translate(55.5 157.9) rotate(-87.45)"/>
          <ellipse class="cls-3" cx="115.37" cy="52.58" rx="2.53" ry="1.71" transform="translate(36.73 152.03) rotate(-76.17)"/>
        </g>
        <g>
          <ellipse class="cls-3" cx="105.33" cy="50" rx="1.7" ry="2.53" transform="translate(-4.06 9.66) rotate(-5.15)"/>
          <ellipse class="cls-3" cx="100.35" cy="52.78" rx="1.7" ry="2.53" transform="translate(-10.8 30.37) rotate(-16.34)"/>
        </g>
      </g>
      <g>
        <path class="cls-3" d="m142.96,57s0-.03,0-.04c-.03-1.62,1.56-2.96,3.56-2.99s3.64,1.27,3.67,2.89c0,0,0,0,0,0,1.54.32,2.69,1.45,2.71,2.8.03,1.62-1.56,2.96-3.56,2.99-.43,0-.85-.05-1.24-.16-.88-.25-1.82-.23-2.69.04-.38.12-.8.19-1.23.19-2,.03-3.64-1.27-3.67-2.89-.02-1.31,1-2.43,2.45-2.83Z"/>
        <g>
          <ellipse class="cls-3" cx="148.81" cy="49.21" rx="2.53" ry="1.7" transform="translate(93.04 195.68) rotate(-87.45)"/>
          <ellipse class="cls-3" cx="153.89" cy="51.85" rx="2.53" ry="1.71" transform="translate(66.75 188.88) rotate(-76.17)"/>
        </g>
        <g>
          <ellipse class="cls-3" cx="143.85" cy="49.27" rx="1.7" ry="2.53" transform="translate(-3.84 13.11) rotate(-5.15)"/>
          <ellipse class="cls-3" cx="138.87" cy="52.05" rx="1.7" ry="2.53" transform="translate(-9.03 41.17) rotate(-16.34)"/>
        </g>
      </g>
      <g>
        <path class="cls-3" d="m181.31,57s0-.03,0-.04c-.03-1.62,1.56-2.96,3.56-2.99s3.64,1.27,3.67,2.89c0,0,0,0,0,0,1.54.32,2.69,1.45,2.71,2.8.03,1.62-1.56,2.96-3.56,2.99-.43,0-.85-.05-1.24-.16-.88-.25-1.82-.23-2.69.04-.38.12-.8.19-1.23.19-2,.03-3.64-1.27-3.67-2.89-.02-1.31,1-2.43,2.45-2.83Z"/>
        <g>
          <ellipse class="cls-3" cx="187.16" cy="49.21" rx="2.53" ry="1.7" transform="translate(129.69 234) rotate(-87.45)"/>
          <ellipse class="cls-3" cx="192.24" cy="51.85" rx="2.53" ry="1.71" transform="translate(95.93 226.12) rotate(-76.17)"/>
        </g>
        <g>
          <ellipse class="cls-3" cx="182.2" cy="49.27" rx="1.7" ry="2.53" transform="translate(-3.69 16.56) rotate(-5.15)"/>
          <ellipse class="cls-3" cx="177.23" cy="52.05" rx="1.7" ry="2.53" transform="translate(-7.48 51.96) rotate(-16.34)"/>
        </g>
      </g>
      <g>
        <path class="cls-3" d="m218.83,57s0-.03,0-.04c-.03-1.62,1.56-2.96,3.56-2.99s3.64,1.27,3.67,2.89c0,0,0,0,0,0,1.54.32,2.69,1.45,2.71,2.8.03,1.62-1.56,2.96-3.56,2.99-.43,0-.85-.05-1.24-.16-.88-.25-1.82-.23-2.69.04-.38.12-.8.19-1.23.19-2,.03-3.64-1.27-3.67-2.89-.02-1.31,1-2.43,2.45-2.83Z"/>
        <g>
          <ellipse class="cls-3" cx="224.68" cy="49.21" rx="2.53" ry="1.7" transform="translate(165.54 271.48) rotate(-87.45)"/>
          <ellipse class="cls-3" cx="229.76" cy="51.85" rx="2.53" ry="1.71" transform="translate(124.48 262.55) rotate(-76.17)"/>
        </g>
        <g>
          <ellipse class="cls-3" cx="219.72" cy="49.27" rx="1.7" ry="2.53" transform="translate(-3.54 19.92) rotate(-5.15)"/>
          <ellipse class="cls-3" cx="214.74" cy="52.05" rx="1.7" ry="2.53" transform="translate(-5.97 62.52) rotate(-16.34)"/>
        </g>
      </g>
      <g>
        <path class="cls-3" d="m256.35,57s0-.03,0-.04c-.03-1.62,1.56-2.96,3.56-2.99s3.64,1.27,3.67,2.89c0,0,0,0,0,0,1.54.32,2.69,1.45,2.71,2.8.03,1.62-1.56,2.96-3.56,2.99-.43,0-.85-.05-1.24-.16-.88-.25-1.82-.23-2.69.04-.38.12-.8.19-1.23.19-2,.03-3.64-1.27-3.67-2.89-.02-1.31,1-2.43,2.45-2.83Z"/>
        <g>
          <ellipse class="cls-3" cx="262.2" cy="49.21" rx="2.53" ry="1.7" transform="translate(201.39 308.96) rotate(-87.45)"/>
          <ellipse class="cls-3" cx="267.28" cy="51.85" rx="2.53" ry="1.71" transform="translate(153.03 298.98) rotate(-76.17)"/>
        </g>
        <g>
          <ellipse class="cls-3" cx="257.24" cy="49.27" rx="1.7" ry="2.53" transform="translate(-3.38 23.29) rotate(-5.15)"/>
          <ellipse class="cls-3" cx="252.26" cy="52.05" rx="1.7" ry="2.53" transform="translate(-4.45 73.07) rotate(-16.34)"/>
        </g>
      </g>
      <g>
        <path class="cls-3" d="m294.87,57s0-.03,0-.04c-.03-1.62,1.56-2.96,3.56-2.99s3.64,1.27,3.67,2.89c0,0,0,0,0,0,1.54.32,2.69,1.45,2.71,2.8.03,1.62-1.56,2.96-3.56,2.99-.43,0-.85-.05-1.24-.16-.88-.25-1.82-.23-2.69.04-.38.12-.8.19-1.23.19-2,.03-3.64-1.27-3.67-2.89-.02-1.31,1-2.43,2.45-2.83Z"/>
        <g>
          <ellipse class="cls-3" cx="300.72" cy="49.21" rx="2.53" ry="1.7" transform="translate(238.2 347.44) rotate(-87.45)"/>
          <ellipse class="cls-3" cx="305.8" cy="51.85" rx="2.53" ry="1.71" transform="translate(182.34 336.38) rotate(-76.17)"/>
        </g>
        <g>
          <ellipse class="cls-3" cx="295.76" cy="49.27" rx="1.7" ry="2.53" transform="translate(-3.23 26.75) rotate(-5.15)"/>
          <ellipse class="cls-3" cx="290.78" cy="52.05" rx="1.7" ry="2.53" transform="translate(-2.9 83.91) rotate(-16.34)"/>
        </g>
      </g>
      <g>
        <path class="cls-3" d="m332.39,57s0-.03,0-.04c-.03-1.62,1.56-2.96,3.56-2.99s3.64,1.27,3.67,2.89c0,0,0,0,0,0,1.54.32,2.69,1.45,2.71,2.8.03,1.62-1.56,2.96-3.56,2.99-.43,0-.85-.05-1.24-.16-.88-.25-1.82-.23-2.69.04-.38.12-.8.19-1.23.19-2,.03-3.64-1.27-3.67-2.89-.02-1.31,1-2.43,2.45-2.83Z"/>
        <g>
          <ellipse class="cls-3" cx="338.24" cy="49.21" rx="2.53" ry="1.7" transform="translate(274.05 384.92) rotate(-87.45)"/>
          <ellipse class="cls-3" cx="343.32" cy="51.85" rx="2.53" ry="1.71" transform="translate(210.89 372.81) rotate(-76.17)"/>
        </g>
        <g>
          <ellipse class="cls-3" cx="333.28" cy="49.27" rx="1.7" ry="2.53" transform="translate(-3.08 30.12) rotate(-5.15)"/>
          <ellipse class="cls-3" cx="328.3" cy="52.05" rx="1.7" ry="2.53" transform="translate(-1.38 94.47) rotate(-16.34)"/>
        </g>
      </g>
    </g>
  </g>
</svg>