<?xml version="1.0" encoding="UTF-8"?>
<svg id="_レイヤー_2" data-name="レイヤー 2" xmlns="http://www.w3.org/2000/svg" viewBox="0 0 116.32 58.15">
  <defs>
    <style>
      .cls-1 {
        fill: #ce8686;
      }

      .cls-1, .cls-2, .cls-3, .cls-4 {
        stroke-width: 0px;
      }

      .cls-2 {
        fill: #fff;
      }

      .cls-3 {
        fill: #fbb558;
      }

      .cls-4 {
        fill: #8cc5ec;
      }
    </style>
  </defs>
  <g id="_レイヤー_1-2" data-name="レイヤー 1">
    <g>
      <g>
        <path class="cls-4" d="m113.46,18.52c-4.46-2.29-10.16-4.28-15.37-6.52-.17-.07-.29-.13-.35-.12-2.4-.92-5-1.42-7.71-1.42-1.38,0-2.68.07-3.92.21-2.91.33-5.45,1.06-7.63,2.15-4.64,1.91-9.5,3.69-13.4,5.69-2.74,1.41-2.99,4.03-2.81,5.15.5,3,2.55,10.88,2.97,12.45.36,1.34,1.84,2.34,3.63,2.58,1.02,5.44,3.61,10.24,7.26,13.72h0c1.86,1.78,4,3.21,6.35,4.2,2.34.99,4.89,1.53,7.54,1.53,3.02,0,5.9-.71,8.5-1.97,3.91-1.9,7.18-5.05,9.49-8.97,1.57-2.67,2.69-5.71,3.24-8.96,1.03-.47,1.8-1.22,2.04-2.13.42-1.57,2.48-9.44,2.97-12.45.18-1.12-.07-3.74-2.81-5.15Zm-10.8,29.95c-1.64,1.89-3.58,3.4-5.72,4.44-2.14,1.04-4.46,1.61-6.91,1.61-2.15,0-4.21-.44-6.12-1.25-1.91-.81-3.69-1.99-5.26-3.48h0c-.45-.43-.88-.88-1.29-1.36,0,0,.02.02.03.03,9.21-4.74,17.24-13.83,16.66-24.1-.28-4.98-2.5-8.19-5.14-10.25.37-.01.74-.02,1.12-.02,2.49,0,4.85.5,6.99,1.41.86.37,1.68.8,2.46,1.3.67,1.82,1.53,4.27,2.59,7.58-1.5,9.58,1.94,13.45,5.42,14.22-.81,3.82-2.52,7.22-4.83,9.87Z"/>
        <path class="cls-4" d="m90.42,42.97c-2.69,0-4.87,1.77-4.87,3.96s2.18,3.96,4.87,3.96,4.87-1.77,4.87-3.96-2.18-3.96-4.87-3.96Z"/>
      </g>
      <path class="cls-3" d="m52.24,37.33l1.49-.34c.58-.13.93-.71.79-1.28h0c-.14-.56-.7-.91-1.27-.78l-1.58.37s0-.07,0-.1c0-3.84-1.04-7.35-2.88-10.37-.14-.24-.18-.52-.12-.79,1.06-4.27-.4-9.39-1.16-11.58-.2-.59-.87-.87-1.44-.61-1.69.78-5.09,2.46-7.46,4.42-.26.22-.6.29-.93.2-3.16-.85-6.68-1.13-10.4-1.13s-7.29.24-10.46,1.09c-.33.09-.66.01-.93-.2-2.37-1.94-5.73-3.61-7.41-4.38-.57-.26-1.23.02-1.44.61-.75,2.19-2.22,7.31-1.16,11.58.07.27.03.55-.12.79-1.84,3.02-2.88,6.53-2.88,10.37,0,.03,0,.07,0,.1l-1.58-.37c-.57-.13-1.13.22-1.27.78h0c-.14.57.22,1.15.79,1.28l1.49.34c.42.1.73.45.8.88.28,1.78.8,3.43,1.54,4.93.27.55-.02,1.22-.59,1.44l-1.9.74c-.55.22-.82.84-.6,1.39h0c.22.54.83.8,1.37.59l2.74-1.07c.43-.17.9-.03,1.19.32,4.36,5.19,11.87,7.96,20.41,7.96s16.05-2.77,20.41-7.96c.29-.35.77-.48,1.19-.32l2.74,1.07c.54.21,1.15-.05,1.37-.59h0c.22-.55-.04-1.18-.6-1.39l-1.9-.74c-.57-.22-.86-.89-.59-1.44.74-1.5,1.26-3.15,1.54-4.93.07-.43.38-.78.8-.88Z"/>
      <g>
        <path class="cls-2" d="m35.6,17.32h-16.65c-.84,0-1.59-.53-1.86-1.33l-3.74-10.99c-.34-.99.15-2.05,1.11-2.45C17.32,1.37,21.69.02,27.12,0c5.59-.03,10.08,1.36,12.98,2.56.95.4,1.43,1.46,1.1,2.44-1.25,3.66-2.5,7.32-3.74,10.99-.27.79-1.02,1.33-1.86,1.33Z"/>
        <polygon class="cls-1" points="25.59 14.36 28.96 14.36 28.96 10.35 32.97 10.35 32.97 6.97 28.96 6.97 28.96 2.96 25.59 2.96 25.59 6.97 21.57 6.97 21.57 10.35 25.59 10.35 25.59 14.36"/>
      </g>
      <g>
        <path class="cls-2" d="m98.17,17.32h-16.65c-.84,0-1.59-.53-1.86-1.33l-3.74-10.99c-.34-.99.15-2.05,1.11-2.45C79.89,1.37,84.26.02,89.7,0c5.59-.03,10.08,1.36,12.98,2.56.95.4,1.43,1.46,1.1,2.44-1.25,3.66-2.5,7.32-3.74,10.99-.27.79-1.02,1.33-1.86,1.33Z"/>
        <polygon class="cls-1" points="88.16 14.36 91.54 14.36 91.54 10.35 95.54 10.35 95.54 6.97 91.54 6.97 91.54 2.96 88.16 2.96 88.16 6.97 84.15 6.97 84.15 10.35 88.16 10.35 88.16 14.36"/>
      </g>
    </g>
  </g>
</svg>