<?xml version="1.0" encoding="UTF-8"?>
<svg id="_レイヤー_2" data-name="レイヤー 2" xmlns="http://www.w3.org/2000/svg" viewBox="0 0 190.01 45.3">
  <defs>
    <style>
      .cls-1 {
        fill: #732d11;
      }

      .cls-1, .cls-2 {
        stroke-width: 0px;
      }

      .cls-2 {
        fill: #1f8eda;
      }
    </style>
  </defs>
  <g id="_レイヤー_1-2" data-name="レイヤー 1">
    <g>
      <g>
        <path class="cls-1" d="m1.23,20.48c-.26.08-.51.07-.73-.06-.22-.12-.37-.3-.45-.55-.08-.23-.06-.46.05-.69.11-.23.29-.38.56-.47,2.56-.82,5.13-1.61,7.7-2.37.28-.08.53-.06.75.07.21.13.36.31.43.54.07.25.05.48-.06.71-.12.23-.31.38-.59.46-2.56.75-5.11,1.53-7.65,2.35Zm2.18,2.85c-.26.08-.51.06-.74-.07-.23-.13-.38-.31-.45-.54-.08-.24-.06-.48.06-.71.12-.23.31-.39.57-.47,1.8-.57,3.59-1.12,5.4-1.66.28-.08.53-.06.74.07.21.13.36.31.43.56.07.23.04.46-.06.69-.11.23-.31.39-.58.47-1.79.53-3.58,1.08-5.37,1.65Zm1.02,3.2c-.26.08-.5.06-.73-.07-.23-.13-.37-.31-.45-.54-.08-.24-.06-.48.05-.71.11-.23.3-.39.56-.47,1.78-.56,3.56-1.11,5.34-1.64.28-.08.52-.06.74.07.21.13.36.32.43.56.07.23.04.46-.06.69-.11.23-.3.39-.57.47-1.77.53-3.54,1.07-5.31,1.63Zm-3.02-9.62c-.29.09-.54.07-.76-.06-.23-.13-.38-.32-.46-.56-.07-.24-.07-.48.05-.72.11-.24.31-.4.59-.49,1.82-.58,3.64-1.14,5.47-1.68.29-.08.54-.06.78.07.23.13.38.32.45.57.07.24.05.49-.07.72-.12.23-.33.4-.61.48-1.81.54-3.63,1.1-5.43,1.67Zm8.18,16.81c-.88.27-1.6.38-2.16.33-.56-.05-1.01-.28-1.36-.7-.35-.42-.66-1.04-.93-1.88-.27-.84-.38-1.53-.33-2.07.05-.54.29-1,.73-1.35.45-.36,1.11-.67,2.01-.95.9-.28,1.63-.39,2.2-.34.57.05,1.03.28,1.38.71.35.42.65,1.05.9,1.9.25.84.34,1.54.28,2.08-.06.54-.31.99-.75,1.35-.44.36-1.09.67-1.97.94Zm-.52-1.7c.6-.19.97-.41,1.1-.67.14-.27.1-.74-.1-1.41-.19-.64-.42-1.05-.69-1.21-.27-.16-.71-.15-1.31.04-.59.18-.96.42-1.09.7-.14.29-.11.75.09,1.39.21.67.45,1.08.72,1.22.27.14.7.12,1.28-.06Zm2.22-12.1c-.18.25-.41.42-.7.5-.29.08-.58.05-.87-.1-.25-.11-.4-.31-.47-.59-.06-.28-.01-.53.16-.75.73-1.05,1.39-2.18,1.99-3.39.59-1.22,1.1-2.39,1.52-3.51.34-.89.87-1.43,1.61-1.63.74-.2,1.5,0,2.26.57.61.44,1.31.89,2.12,1.36.81.47,1.64.91,2.48,1.33.85.42,1.6.76,2.28,1.02.27.1.47.29.59.56.12.28.11.55-.02.81-.15.28-.37.48-.67.59-.31.11-.61.11-.9-.01-.68-.28-1.44-.63-2.28-1.06-.84-.43-1.66-.9-2.46-1.39-.81-.49-1.51-.97-2.12-1.42-.54-.42-.92-.31-1.13.33-.22.66-.52,1.39-.88,2.21-.37.81-.77,1.62-1.19,2.42-.43.8-.86,1.51-1.31,2.14Zm4.15,12.39c-.26.17-.52.24-.77.2-.26-.04-.48-.17-.69-.38-.17-.2-.26-.44-.24-.73.02-.29.14-.51.38-.66,1.9-1.26,3.59-2.68,5.08-4.26,1.49-1.58,2.74-3.25,3.76-5.02.13-.25.34-.4.65-.44.3-.05.58,0,.84.13.22.13.37.31.43.56.07.25.04.49-.09.74-1.02,1.88-2.33,3.65-3.92,5.33-1.58,1.68-3.39,3.19-5.43,4.53Zm-2.23-8.3c-.22.21-.47.33-.74.35-.28.02-.51-.06-.71-.26-.2-.19-.3-.41-.34-.66-.03-.25.05-.46.25-.64.63-.56,1.26-1.2,1.87-1.89.62-.69,1.19-1.41,1.7-2.12.51-.72.93-1.4,1.26-2.03.13-.25.34-.4.63-.45.29-.05.55-.02.8.1.26.11.42.29.47.52.05.23.02.47-.09.72-.34.68-.78,1.4-1.32,2.15-.55.75-1.15,1.48-1.79,2.2-.65.72-1.31,1.39-1.99,2.01Zm1.96,3.41c-.24.19-.51.28-.8.3-.29.02-.53-.08-.73-.29-.2-.21-.3-.45-.3-.73,0-.27.11-.5.32-.68.77-.6,1.53-1.29,2.29-2.06.75-.77,1.46-1.58,2.12-2.43.66-.84,1.21-1.65,1.64-2.43.13-.25.35-.4.66-.47.3-.06.58-.02.81.14.25.14.4.33.47.57.07.25.04.48-.1.69-.43.77-1,1.6-1.7,2.49-.69.89-1.45,1.76-2.26,2.61-.81.85-1.61,1.6-2.42,2.26Z"/>
        <path class="cls-1" d="m28.94,22.21c-.25.17-.52.25-.8.25-.28,0-.52-.12-.71-.34-.17-.21-.24-.44-.2-.7.03-.26.16-.47.39-.62.55-.36,1.08-.75,1.59-1.17.51-.42,1-.84,1.48-1.28-.27-.19-.58-.4-.95-.64-.37-.24-.69-.45-.98-.63-.09.08-.17.17-.25.26-.08.09-.18.18-.27.28-.23.22-.48.34-.76.37-.28.03-.53-.05-.75-.25-.2-.18-.3-.39-.3-.63,0-.24.1-.45.3-.62,1.03-.93,1.86-1.87,2.51-2.83.65-.96,1.17-1.96,1.57-3,.09-.25.27-.43.54-.56.27-.12.54-.14.81-.05.27.09.45.24.55.46.1.22.1.45-.01.7-.03.09-.07.18-.1.27.35-.07.69-.14,1.04-.22.78-.16,1.41-.13,1.9.09.49.22.8.58.93,1.06.13.49.03,1.07-.31,1.74-.24.47-.5.94-.79,1.42-.29.47-.62.94-.97,1.39,2.62-.54,5.25-1.05,7.88-1.52.17-.03.3-.03.41,0-1.06-.62-2.04-1.34-2.95-2.16-.91-.81-1.73-1.74-2.43-2.77-.17-.24-.22-.49-.16-.74.07-.25.21-.43.43-.56.24-.13.49-.18.76-.16.27.02.49.16.66.4.14.19.28.37.42.56.14.18.29.37.44.55,0-.18.07-.35.2-.5.13-.15.29-.25.5-.29,1.03-.19,2.06-.37,3.1-.55.7-.12,1.27-.05,1.74.19.47.25.76.62.87,1.11.12.49,0,1.05-.37,1.68-.25.4-.47.75-.68,1.05-.21.3-.43.63-.68.98.77.37,1.57.7,2.41.97.84.27,1.71.51,2.63.71.28.05.5.21.65.48.15.27.16.55.02.85-.12.28-.33.47-.61.57-.28.1-.59.1-.92.01-2.01-.51-3.85-1.21-5.53-2.14.12.12.2.28.24.47.04.25-.01.48-.15.68-.14.2-.36.33-.66.39-2.62.47-5.23.98-7.83,1.51-.3.06-.55.02-.74-.11-.2-.14-.32-.33-.38-.58,0-.04-.02-.08-.02-.12-.68.8-1.41,1.55-2.21,2.27-.8.72-1.61,1.38-2.44,2Zm-1.52-8.12c-.3.07-.58.04-.83-.09-.25-.13-.41-.34-.48-.64-.06-.26-.12-.51-.18-.77-.26-1.1-.14-1.96.36-2.57.5-.61,1.47-1.07,2.91-1.39,1.95-.43,3.9-.83,5.85-1.22-.09-.45-.18-.91-.27-1.36-.06-.31,0-.6.21-.85.2-.25.47-.41.82-.48.34-.07.66-.02.94.14.28.16.45.4.51.71.09.46.17.91.26,1.37,1.97-.38,3.95-.73,5.93-1.07,1.47-.25,2.55-.18,3.22.2.68.38,1.1,1.13,1.28,2.25.04.26.08.52.12.78.05.3-.02.56-.2.77-.18.22-.43.35-.73.4-.28.05-.55,0-.79-.13-.24-.13-.38-.35-.43-.65-.04-.25-.08-.51-.12-.76-.09-.55-.29-.91-.59-1.06-.3-.15-.84-.17-1.58-.04-4.65.79-9.29,1.69-13.9,2.7-.73.16-1.2.37-1.43.62-.23.26-.28.66-.16,1.2.06.25.11.5.17.75.07.3.01.55-.16.76-.17.21-.41.35-.71.42Zm4.4,13.79c-.25.21-.53.31-.82.32-.29,0-.54-.11-.75-.36-.17-.22-.24-.46-.21-.7.03-.24.15-.45.37-.61.6-.46,1.24-1.03,1.9-1.69.66-.66,1.23-1.27,1.71-1.83.18-.2.4-.31.69-.34.28-.03.53.04.73.21.19.17.3.38.33.62.03.24-.04.46-.22.66-.53.63-1.11,1.27-1.76,1.93-.65.66-1.3,1.25-1.97,1.8Zm6.14-.4c-.35.07-.63.03-.86-.11-.22-.14-.38-.36-.47-.65-.07-.26-.05-.52.09-.78.13-.26.37-.43.72-.52.61-.17.99-.35,1.13-.52.14-.17.15-.5.06-.99-.17-.86-.34-1.71-.51-2.57-2.31.46-4.62.94-6.93,1.45-.28.06-.52.02-.73-.12-.21-.14-.35-.34-.4-.59-.05-.25-.02-.48.11-.69.14-.21.34-.34.62-.41,5.38-1.19,10.79-2.24,16.21-3.14.28-.04.52,0,.72.15.2.15.32.35.36.6.04.25,0,.48-.15.69-.14.21-.35.34-.63.38-2.35.39-4.69.8-7.03,1.25.19.97.37,1.95.55,2.92.2,1.05.09,1.85-.33,2.41-.42.55-1.26.95-2.54,1.21Zm-6.1-10.35c.15-.17.3-.33.44-.49.14-.16.28-.33.41-.5-.31-.16-.68-.35-1.1-.56-.42-.21-.79-.39-1.12-.53-.09.13-.2.27-.31.4-.11.13-.22.26-.33.4.3.19.64.41,1.02.65.37.24.7.45.98.63Zm1.82-2.35c.1-.15.2-.3.27-.44.07-.14.15-.27.23-.4.45-.86.15-1.19-.91-.96-.55.11-1.11.23-1.66.35-.07.15-.15.27-.21.36.33.16.72.34,1.15.54.44.2.81.39,1.12.55Zm9.16-1.49c.31-.47.61-.94.92-1.4.2-.33.26-.57.17-.74-.09-.16-.35-.21-.79-.13-.77.13-1.55.27-2.32.41-.08.02-.15.02-.21.01.68.69,1.43,1.3,2.23,1.84Zm5.49,11.43c-.45-.14-.97-.32-1.56-.54-.59-.23-1.17-.47-1.76-.73-.59-.26-1.12-.52-1.6-.78-.23-.14-.38-.33-.44-.58-.07-.25-.04-.48.09-.7.14-.22.35-.37.6-.44.26-.07.5-.05.74.05.39.21.86.43,1.41.68.56.24,1.12.47,1.69.68.57.2,1.09.38,1.54.51.28.07.48.22.59.45.12.23.13.48.04.73-.09.27-.26.47-.52.59-.26.12-.54.15-.83.06Z"/>
        <path class="cls-1" d="m56.58,22.01c-.28.18-.59.23-.93.17-.34-.07-.6-.24-.78-.51-.18-.27-.24-.57-.18-.91.06-.33.24-.59.51-.77,2.42-1.56,4.56-3.34,6.46-5.37,1.89-2.02,3.39-4.15,4.46-6.4.68-1.42.07-2.05-1.83-1.85-2.61.27-5.21.57-7.81.91-.35.05-.67-.03-.95-.24-.28-.21-.44-.47-.49-.8-.05-.33.05-.62.26-.89.22-.26.51-.42.86-.47,2.62-.34,5.24-.64,7.87-.91,1.49-.15,2.66-.02,3.49.39.83.41,1.33,1.04,1.49,1.88.16.84-.05,1.83-.61,2.98-.22.44-.46.88-.72,1.33-.26.45-.54.91-.85,1.37.93.57,1.9,1.23,2.89,1.97.99.74,1.92,1.47,2.79,2.18.87.71,1.57,1.32,2.1,1.82.26.21.41.48.43.8.02.33-.08.62-.31.88-.23.24-.52.38-.85.4-.34.03-.64-.07-.9-.3-.38-.32-.86-.73-1.44-1.23-.58-.5-1.21-1.03-1.91-1.58-.7-.55-1.4-1.1-2.12-1.65-.71-.54-1.39-1.02-2.04-1.44-1.21,1.55-2.58,3.03-4.11,4.45-1.53,1.42-3.13,2.68-4.8,3.78Z"/>
        <path class="cls-1" d="m82.92,20.84c-.27.19-.57.26-.9.21-.33-.04-.6-.2-.8-.47-.19-.27-.26-.57-.22-.9.05-.33.2-.59.48-.78,1.9-1.38,3.44-3.02,4.63-4.96,1.18-1.93,1.93-4.07,2.24-6.44-1.89.05-3.79.12-5.68.2-.53,1-1.11,1.96-1.76,2.91-.65.94-1.32,1.79-2.02,2.54-.22.25-.5.39-.85.4-.34.01-.65-.09-.92-.29-.26-.23-.41-.5-.42-.83-.01-.33.09-.61.31-.85.58-.65,1.15-1.38,1.72-2.2.57-.82,1.1-1.68,1.59-2.59.49-.9.92-1.78,1.29-2.64.37-.86.64-1.64.82-2.34.08-.32.27-.57.56-.75.29-.18.62-.24.98-.17.36.06.64.23.84.51.2.29.25.59.15.91-.13.49-.29.99-.48,1.49-.19.5-.4,1.01-.64,1.52,4.09-.16,8.17-.25,12.26-.25.35,0,.65.11.89.34.24.22.36.5.36.83,0,.33-.12.61-.36.83-.24.22-.53.34-.88.34-1.75,0-3.5.02-5.24.05-.34,2.76-1.21,5.28-2.57,7.57-1.37,2.29-3.15,4.22-5.36,5.81Z"/>
        <path class="cls-1" d="m104.44,11.39c-.27-.22-.65-.48-1.15-.8-.5-.31-1.02-.62-1.54-.92-.53-.3-.95-.52-1.28-.66-.32-.14-.54-.38-.64-.7-.09-.32-.07-.63.08-.92.17-.29.42-.49.75-.59.33-.1.66-.08.97.07.44.2.95.46,1.53.78.58.32,1.15.66,1.68,1,.54.34.97.64,1.29.9.27.22.41.49.42.83.02.34-.09.64-.34.89-.22.24-.5.36-.84.38-.34.02-.65-.08-.93-.27Zm-1.6,8.28c-.32.1-.63.06-.93-.1-.3-.16-.5-.4-.6-.71-.1-.31-.07-.61.09-.91.17-.29.41-.49.73-.59,1.4-.41,2.83-.96,4.32-1.65,1.48-.69,2.94-1.49,4.37-2.39,1.43-.89,2.76-1.85,3.99-2.88,1.23-1.03,2.29-2.06,3.18-3.11.22-.26.51-.41.85-.45.35-.03.66.05.94.27.28.2.44.46.48.79.04.33-.05.63-.28.89-.91,1.08-2.05,2.16-3.4,3.26-1.35,1.1-2.82,2.14-4.4,3.14-1.58.99-3.17,1.87-4.78,2.65-1.61.77-3.13,1.37-4.59,1.79Zm4.71-12.76c-.25-.23-.62-.52-1.12-.86-.5-.34-1-.67-1.51-1-.51-.33-.93-.57-1.26-.73-.31-.16-.51-.41-.6-.74-.09-.33-.03-.63.16-.91.2-.29.47-.47.81-.54.35-.07.67-.02.97.14.42.22.92.51,1.47.86.56.36,1.11.72,1.64,1.1.53.37.96.71,1.26,1,.25.22.38.5.38.84,0,.34-.13.62-.4.85-.25.23-.55.34-.9.34-.35,0-.65-.12-.9-.36Zm9.78-1.52c-.22.16-.47.22-.75.19-.29-.04-.51-.16-.66-.38-.24-.31-.51-.63-.81-.95-.3-.32-.6-.62-.9-.9-.18-.17-.27-.37-.27-.6,0-.23.09-.44.29-.62.21-.18.45-.25.7-.22.25.03.47.13.67.3.27.21.59.49.96.86.38.36.68.69.92.99.2.2.27.44.23.71-.04.27-.16.48-.38.64Zm2.47-1.96c-.2.16-.45.22-.73.19-.29-.03-.52-.15-.69-.35-.26-.31-.54-.63-.85-.95-.31-.31-.61-.61-.92-.87-.18-.15-.28-.35-.3-.59-.02-.24.07-.45.27-.61.2-.19.43-.28.68-.26.25.03.49.12.71.27.27.19.59.46.98.82.38.36.71.68.99.96.19.19.27.42.24.7-.03.28-.16.5-.37.68Z"/>
        <path class="cls-1" d="m124.03,19.05c-.3-.03-.55-.16-.74-.38-.19-.23-.28-.49-.25-.78.03-.29.16-.53.39-.72.24-.19.5-.27.81-.24,3.36.31,6.73.69,10.08,1.11.62-1.16,1-2.05,1.14-2.67.13-.62.05-1.07-.25-1.33-.3-.27-.83-.45-1.57-.54-1.93-.24-3.87-.46-5.81-.66-.29-.03-.54-.16-.74-.39-.2-.23-.3-.49-.26-.78.03-.29.17-.53.42-.72.25-.18.52-.26.81-.23,1.95.2,3.9.42,5.85.66,2.11.26,3.36.97,3.76,2.07.4,1.11.03,2.74-1.06,4.88,1.29.17,2.58.36,3.87.55.3.04.55.18.73.42.18.24.25.5.21.79-.04.29-.19.52-.43.7-.24.18-.51.24-.81.19-5.35-.8-10.72-1.44-16.1-1.95Z"/>
        <path class="cls-1" d="m147,15.93c-.34-.06-.61-.22-.82-.49-.2-.27-.28-.57-.23-.89.06-.34.23-.6.51-.79.28-.18.59-.24.94-.19,5.64.95,11.25,2.06,16.84,3.33.34.08.61.25.8.53.19.27.25.58.17.92-.07.32-.26.57-.55.74-.29.17-.61.22-.95.14-5.55-1.26-11.12-2.36-16.71-3.31Z"/>
        <path class="cls-1" d="m165.45,26.23c-.33.06-.63,0-.92-.19-.29-.19-.46-.45-.54-.77-.05-.33.02-.64.21-.91.19-.28.46-.44.78-.48,1.7-.3,3.1-.82,4.21-1.59,1.11-.77,2-1.7,2.66-2.8.66-1.1,1.16-2.29,1.48-3.57.08-.32.28-.56.59-.72.31-.16.64-.2.98-.11.34.09.6.28.79.57.18.29.23.59.15.91-.47,1.76-1.21,3.31-2.21,4.66-1,1.35-2.19,2.45-3.58,3.29-1.39.85-2.93,1.41-4.61,1.7Zm17.26,3.04c-1.47.07-2.71-.08-3.74-.45-1.03-.37-1.74-.97-2.14-1.82-.4-.85-.41-1.97-.03-3.35.71-2.57,1.41-5.13,2.12-7.7.09-.33.29-.58.6-.74.31-.16.63-.19.98-.09.36.1.64.3.81.59.18.3.22.61.13.94-.73,2.56-1.46,5.12-2.18,7.68-.25.89-.12,1.55.4,1.98.51.44,1.47.61,2.85.54,1.05-.05,2.12-.12,3.18-.23,1.07-.11,2-.22,2.81-.34.34-.06.66.02.95.22.29.2.47.47.54.8.05.31-.02.6-.21.87-.19.27-.46.44-.81.49-.95.15-1.97.27-3.08.37-1.1.1-2.17.18-3.18.24Z"/>
      </g>
      <g>
        <path class="cls-2" d="m70.08,45.28c-1.1,0-2-.31-2.71-.92-.2-.15-.31-.32-.32-.5,0-.18.07-.35.22-.5.15-.15.31-.22.47-.21.16.01.34.09.55.23.48.42,1.1.63,1.86.63.47,0,.85-.09,1.13-.26.28-.17.42-.46.42-.86,0-.32-.15-.56-.44-.72-.29-.16-.81-.3-1.55-.44-.48-.1-.92-.23-1.3-.39-.38-.16-.69-.4-.91-.7-.23-.31-.34-.71-.34-1.2s.13-.88.39-1.22c.26-.34.6-.6,1.03-.78.43-.18.9-.27,1.41-.27.94,0,1.69.25,2.26.74.22.13.34.28.36.46.03.18-.03.34-.17.49-.14.17-.29.25-.45.24-.16-.01-.35-.07-.57-.18-.36-.31-.83-.47-1.42-.47-.46,0-.81.09-1.03.28-.23.19-.34.41-.34.67,0,.3.13.52.39.66.26.14.73.29,1.41.44.54.12,1.01.27,1.43.47.41.19.74.45.97.76.23.31.35.72.35,1.21,0,.74-.28,1.32-.85,1.73s-1.31.61-2.24.61Z"/>
        <path class="cls-2" d="m78.05,45.3c-.71,0-1.34-.17-1.9-.51-.55-.34-.99-.81-1.31-1.42-.32-.61-.48-1.32-.48-2.12s.16-1.52.48-2.13c.32-.61.75-1.09,1.31-1.43.55-.34,1.19-.51,1.9-.51.9,0,1.68.28,2.33.84.2.15.3.32.28.52s-.12.36-.3.48c-.18.14-.34.2-.48.18-.14-.02-.32-.1-.53-.24-.37-.3-.8-.45-1.29-.45-.66,0-1.19.24-1.61.73-.41.48-.62,1.16-.62,2.02s.21,1.52.62,2c.41.48.95.73,1.61.73.48,0,.91-.14,1.28-.42.19-.14.37-.23.52-.26.15-.03.32.02.5.15.18.14.29.3.31.48.02.18-.06.36-.26.52-.66.57-1.44.86-2.34.86Z"/>
        <path class="cls-2" d="m83.39,45.12c-.48,0-.73-.26-.73-.78v-10.05c0-.51.24-.76.73-.76s.73.25.73.76v4.07c.19-.32.48-.6.86-.84.38-.24.81-.36,1.31-.36.82,0,1.48.26,1.99.78.51.52.77,1.28.77,2.27v4.12c0,.52-.24.78-.73.78s-.71-.26-.71-.78v-3.81c0-.68-.15-1.19-.45-1.53-.3-.34-.69-.51-1.18-.51-.55,0-1,.18-1.34.54-.34.36-.52.84-.52,1.45v3.86c0,.52-.24.78-.73.78Z"/>
        <path class="cls-2" d="m94.52,45.3c-.73,0-1.38-.16-1.94-.47-.56-.31-1-.77-1.31-1.38-.31-.61-.47-1.34-.47-2.21s.16-1.55.47-2.16c.31-.61.74-1.08,1.28-1.41.54-.33,1.17-.5,1.88-.5s1.32.17,1.82.51c.5.34.88.77,1.15,1.3.26.53.4,1.07.4,1.63,0,.31-.06.52-.19.62-.13.1-.32.15-.57.15h-4.81c.02.86.24,1.52.65,1.96.41.45.97.67,1.66.67.82,0,1.44-.33,1.86-.99.17-.18.33-.3.48-.36.15-.06.31-.03.48.09.18.12.29.27.32.45.03.18-.05.38-.22.6-.36.51-.78.88-1.27,1.12-.49.24-1.05.36-1.67.36Zm-2.21-5.07h4.07c-.09-.56-.3-1.01-.65-1.36-.34-.34-.78-.52-1.31-.52-.56,0-1.02.16-1.39.48-.37.32-.61.78-.73,1.4Z"/>
        <path class="cls-2" d="m102.92,45.3c-.71,0-1.34-.16-1.9-.49-.55-.33-.99-.8-1.31-1.41-.32-.61-.48-1.33-.48-2.16s.16-1.56.48-2.17c.32-.61.75-1.08,1.31-1.41.55-.33,1.19-.49,1.9-.49.47,0,.91.1,1.3.31.39.2.72.5.99.87v-4.05c0-.51.24-.76.71-.76s.73.25.73.76v10.05c0,.52-.21.78-.63.78s-.65-.12-.66-.36l-.03-.76c-.27.4-.61.71-1.03.95-.41.23-.88.35-1.38.35Zm.05-1.32c.66,0,1.2-.24,1.62-.73.43-.48.64-1.15.64-2s-.21-1.53-.64-2.02c-.43-.48-.97-.73-1.62-.73s-1.2.24-1.63.73c-.43.48-.65,1.16-.65,2.02s.22,1.52.65,2c.43.48.97.73,1.63.73Z"/>
        <path class="cls-2" d="m111.44,45.3c-.82,0-1.48-.26-1.99-.78-.51-.52-.76-1.28-.76-2.27v-4.12c0-.51.24-.76.71-.76s.73.25.73.76v3.83c0,.67.15,1.17.45,1.51.3.34.69.51,1.16.51.55,0,1-.18,1.35-.54.35-.36.53-.85.53-1.46v-3.84c0-.51.24-.76.73-.76s.71.25.71.76v6.22c0,.52-.22.78-.65.78s-.66-.13-.69-.4l-.03-.6c-.23.32-.53.6-.91.83-.38.23-.83.35-1.33.35Z"/>
        <path class="cls-2" d="m117.96,45.12c-.48,0-.73-.26-.73-.78v-10.05c0-.51.24-.76.73-.76s.73.25.73.76v10.05c0,.52-.24.78-.73.78Z"/>
        <path class="cls-2" d="m124.15,45.3c-.73,0-1.38-.16-1.94-.47-.56-.31-1-.77-1.31-1.38-.31-.61-.47-1.34-.47-2.21s.16-1.55.47-2.16c.31-.61.74-1.08,1.28-1.41.54-.33,1.17-.5,1.88-.5s1.32.17,1.82.51c.5.34.88.77,1.15,1.3.26.53.4,1.07.4,1.63,0,.31-.06.52-.19.62-.13.1-.32.15-.57.15h-4.81c.02.86.24,1.52.65,1.96.41.45.97.67,1.66.67.82,0,1.44-.33,1.86-.99.17-.18.33-.3.48-.36.15-.06.31-.03.48.09.18.12.29.27.32.45.03.18-.05.38-.22.6-.36.51-.78.88-1.27,1.12-.49.24-1.05.36-1.67.36Zm-2.21-5.07h4.07c-.09-.56-.3-1.01-.65-1.36-.34-.34-.78-.52-1.31-.52-.56,0-1.02.16-1.39.48-.37.32-.61.78-.73,1.4Z"/>
      </g>
    </g>
  </g>
</svg>