<?xml version="1.0" encoding="UTF-8"?>
<svg id="_レイヤー_2" data-name="レイヤー 2" xmlns="http://www.w3.org/2000/svg" xmlns:xlink="http://www.w3.org/1999/xlink" viewBox="0 0 419.17 309.72">
  <defs>
    <style>
      .cls-1 {
        fill: #cc7575;
      }

      .cls-1, .cls-2, .cls-3, .cls-4, .cls-5, .cls-6, .cls-7, .cls-8, .cls-9, .cls-10, .cls-11, .cls-12 {
        stroke-width: 0px;
      }

      .cls-13 {
        stroke: #d3d3d3;
        stroke-width: 14px;
      }

      .cls-13, .cls-2, .cls-14 {
        fill: none;
      }

      .cls-13, .cls-14 {
        stroke-miterlimit: 10;
      }

      .cls-3 {
        fill: #545351;
      }

      .cls-4 {
        fill: #fff;
      }

      .cls-5 {
        fill: #b4c5fc;
      }

      .cls-6 {
        fill: #b59615;
      }

      .cls-14 {
        stroke: #fdb2b2;
        stroke-width: 8.55px;
      }

      .cls-7 {
        fill: #eabbbb;
      }

      .cls-8 {
        fill: #f97070;
      }

      .cls-9 {
        fill: #d8b213;
      }

      .cls-15 {
        clip-path: url(#clippath);
      }

      .cls-10 {
        fill: #fdb2b2;
      }

      .cls-11 {
        fill: #3a3a3a;
      }

      .cls-12 {
        fill: #5b5b5b;
      }
    </style>
    <clipPath id="clippath">
      <path class="cls-2" d="m345.53,259.4H73.64c-29.62,0-54.76-18.96-59.08-44.56L2.62,143.97c-5.13-30.43,19.79-58.47,54.81-61.66,45.48-4.14,95.24-6.79,148.71-6.9,56.08-.11,108.14,2.59,155.52,6.9,35.06,3.19,60.03,31.21,54.89,61.67-3.98,23.63-7.97,47.25-11.95,70.88-4.31,25.59-29.46,44.56-59.08,44.56Z"/>
    </clipPath>
  </defs>
  <g id="_レイヤー_1-2" data-name="レイヤー 1">
    <g>
      <g>
        <g>
          <path class="cls-5" d="m396.48,128.86H22.69c5.62-18.07,11.21-36.68,16.78-55.76C49.08,40.7,81.09,12.14,117.97,8.49c60.95-5.62,122.29-5.62,183.24,0,36.87,3.65,68.89,32.21,78.49,64.61,5.57,19.08,11.17,37.69,16.78,55.76Z"/>
          <path class="cls-14" d="m396.48,128.86H22.69c5.62-18.07,11.21-36.68,16.78-55.76C49.08,40.7,81.09,12.14,117.97,8.49c60.95-5.62,122.29-5.62,183.24,0,36.87,3.65,68.89,32.21,78.49,64.61,5.57,19.08,11.17,37.69,16.78,55.76Z"/>
        </g>
        <g>
          <path class="cls-11" d="m183.95,82.85l-110.85,9.64-.6-6.94c-.33-3.85,20.87-72.45,49.33-74.92h0c28.46-2.47,61.18,61.44,61.52,65.29l.6,6.94Z"/>
          <path class="cls-13" d="m168.53,84.19l-80.01,6.95-.46-5.25c-.25-2.91,14.85-54.77,35.39-56.56h0c20.54-1.79,44.36,46.69,44.62,49.61l.46,5.25Z"/>
        </g>
        <g>
          <path class="cls-11" d="m235.44,82.85l110.85,9.64.6-6.94c.33-3.85-20.87-72.45-49.33-74.92h0c-28.46-2.47-61.18,61.44-61.52,65.29l-.6,6.94Z"/>
          <path class="cls-13" d="m250.86,84.19l80.01,6.95.46-5.25c.25-2.91-14.85-54.77-35.39-56.56h0c-20.54-1.79-44.36,46.69-44.62,49.61l-.46,5.25Z"/>
        </g>
        <g>
          <path class="cls-11" d="m99.76,309.72h-44.34c-6.88,0-12.58-3.64-13.06-8.32l-8.63-84.37h83.07l-3.94,84.03c-.23,4.83-6.02,8.66-13.09,8.66Z"/>
          <polygon class="cls-3" points="65.55 309.72 58.14 309.72 55.18 235.95 65.55 235.95 65.55 309.72"/>
          <polygon class="cls-3" points="88.07 309.72 95.47 309.72 98.44 235.95 88.07 235.95 88.07 309.72"/>
        </g>
        <g>
          <path class="cls-11" d="m319.64,309.72h44.34c6.88,0,12.58-3.64,13.06-8.32l8.63-84.37h-83.07s3.94,84.03,3.94,84.03c.23,4.83,6.02,8.66,13.09,8.66Z"/>
          <polygon class="cls-3" points="353.84 309.72 361.25 309.72 364.21 235.95 353.84 235.95 353.84 309.72"/>
          <polygon class="cls-3" points="331.33 309.72 323.92 309.72 320.96 235.95 331.33 235.95 331.33 309.72"/>
        </g>
        <path class="cls-10" d="m345.53,258.47c-90.63-.93-181.26-.93-271.89,0-29.6.3-55.01-18.28-59.73-43.81-4.34-23.56-8.71-47.13-13.1-70.68-5.68-30.34,19.1-58.81,54.58-62.41,46.04-4.67,96.49-7.67,150.7-7.79,56.87-.13,109.65,2.92,157.6,7.78,35.52,3.6,60.34,32.05,54.66,62.42-4.39,23.56-8.76,47.12-13.1,70.69-4.72,25.53-30.13,44.11-59.73,43.81Z"/>
        <g>
          <path class="cls-4" d="m33.68,131.52h67.94c6.86,0,12.42,5.57,12.42,12.42v8.6c0,12.92-10.49,23.42-23.42,23.42h-58.62c-8.26,0-14.96-6.71-14.96-14.96v-12.84c0-9.18,7.45-16.64,16.64-16.64Z" transform="translate(-5.3 2.37) rotate(-1.99)"/>
          <circle class="cls-9" cx="35.7" cy="154.77" r="14.63"/>
          <circle class="cls-6" cx="30.8" cy="161.6" r="6.26"/>
          <g>
            <circle class="cls-8" cx="89.97" cy="152.89" r="19.56"/>
            <circle class="cls-7" cx="89.97" cy="152.89" r="10.97"/>
            <rect class="cls-8" x="88.69" y="133.93" width="2.17" height="26.78" transform="translate(233.89 52.48) rotate(88.01)"/>
            <rect class="cls-8" x="88.89" y="139.5" width="2.17" height="26.78" transform="translate(239.64 57.66) rotate(88.01)"/>
            <rect class="cls-8" x="89.08" y="145.06" width="2.17" height="26.78" transform="translate(245.39 62.84) rotate(88.01)"/>
          </g>
        </g>
        <g>
          <path class="cls-4" d="m320.31,131.52h58.62c12.92,0,23.42,10.49,23.42,23.42v8.6c0,6.86-5.57,12.42-12.42,12.42h-67.94c-9.18,0-16.64-7.45-16.64-16.64v-12.84c0-8.26,6.71-14.96,14.96-14.96Z" transform="translate(702.13 319.68) rotate(-178.01)"/>
          <circle class="cls-9" cx="383.7" cy="154.77" r="14.63"/>
          <circle class="cls-6" cx="388.59" cy="161.6" r="6.26"/>
          <g>
            <circle class="cls-8" cx="329.42" cy="152.89" r="19.56"/>
            <circle class="cls-7" cx="329.42" cy="152.89" r="10.97"/>
            <rect class="cls-8" x="328.53" y="133.93" width="2.17" height="26.78" transform="translate(488.3 -176.98) rotate(91.99)"/>
            <rect class="cls-8" x="328.34" y="139.5" width="2.17" height="26.78" transform="translate(493.67 -171.02) rotate(91.99)"/>
            <rect class="cls-8" x="328.15" y="145.06" width="2.17" height="26.78" transform="translate(499.03 -165.07) rotate(91.99)"/>
          </g>
        </g>
        <rect class="cls-4" x="160.36" y="122.48" width="98.67" height="53.88" rx="10.37" ry="10.37"/>
        <rect class="cls-8" x="167.03" y="90.51" width="85.33" height="15.11" rx="7.56" ry="7.56"/>
        <g class="cls-15">
          <path class="cls-1" d="m446.16,198.16c-154.52-4.86-309.16-4.86-463.69,0v-6.22c154.52-4.86,309.16-4.86,463.69,0v6.22Z"/>
        </g>
      </g>
      <g>
        <path class="cls-8" d="m167.44,150.54c-.22,0-.39-.11-.39-.43,0-.99.6-2.94,1.42-2.94.17,0,.26-.07.26-.26,0-.88-.54-1.42-.54-2,0-.97,2.53-2.23,3.8-2.23.79,0,1.09.34,1.09.97,0,.79-.24,1.95-.24,3.09,0,.24.11.36.32.36.43,0,.97-.13,1.27-.13.28,0,.41.22.41.47,0,1.52-.47,2.68-1.22,2.86-.67.17-.8.34-.8,1.82,0,2.26.32,2.34.32,3.09s-1.44,1.87-3.76,1.87c-.71,0-1.12-.28-1.12-.97,0-1.2.36-2.98.36-5.45,0-.24-.09-.32-.24-.32-.21,0-.66.21-.92.21Z"/>
        <path class="cls-8" d="m179.97,143.31c0,.71-.22,2.98-.22,4.25,0,.82.11,1.01.39,1.01.3,0,1.42-1.44,3.18-1.44,1.14,0,2.19.84,2.19,2,0,1.24-.28,1.67-.28,3.13,0,1.61.64,1.76.64,2.47s-1.72,1.93-3.09,1.93c-1.03,0-1.59-.5-1.59-1.42,0-1.33.22-2.1.22-3.03,0-.64-.26-1.03-.58-1.03-.39,0-.86.43-.86,1.5,0,1.38.24,1.8.24,2.75s-1.29,1.68-3.05,1.68c-.81,0-1.29-.36-1.29-1.08,0-.41.19-.92.19-1.78,0-4.96-.86-6.25-.86-8.95,0-1.63,2.21-3.05,3.56-3.05.86,0,1.22.37,1.22,1.07Z"/>
        <path class="cls-8" d="m195.75,150.07c0,2.02-.32,2.85-.32,3.59,0,1.29.45,1.27.45,1.67,0,.56-1.59,1.57-2.66,1.57-.86,0-1.09-.75-1.29-.75-.22,0-1.29.71-2.66.71-1.93,0-2.94-1.07-2.94-2.42,0-3.71,5.49-3.35,5.49-4.38,0-.21-.19-.39-.58-.39-1.67,0-2.85,1.33-3.45,1.33-.49,0-.64-.66-.64-1.27,0-.43.06-.84.17-1.03.43-.95,2.21-1.8,4.62-1.8,1.99,0,3.8,1.14,3.8,3.16Zm-5.93,3.89c0,.36.21.52.58.52.51,0,1.5-.9,1.5-1.38,0-.24-.08-.43-.26-.43-.69,0-1.82.8-1.82,1.29Z"/>
        <path class="cls-8" d="m201.26,148.68c.43-.6,1.72-1.59,3.26-1.59,1.74,0,2.94.94,2.94,2.42s-.5,2.17-.5,3.22c0,1.76.36,1.91.36,2.47,0,.79-1.83,1.52-3.37,1.52-.92,0-1.29-.45-1.29-1.18,0-1.2.66-2.94.66-4.21,0-.75-.21-.99-.56-.99-.56,0-1.31.77-1.31,1.91,0,2.96-.11,4.53-1.54,4.53-1.24,0-2.96-.64-2.96-1.4,0-.62.28-1.07.28-2.77,0-1.4-.64-2.66-.64-3.56,0-.75,1.87-1.68,3.26-1.68.95,0,1.24.77,1.42,1.33Z"/>
        <path class="cls-8" d="m215.9,152.78c1.03,1.03,1.72.99,1.72,1.61,0,.66-1.72,2.43-2.51,2.43-.52,0-1.18-.39-1.97-1.55-.77-1.12-1.03-1.83-1.35-1.83-.13,0-.24.09-.24.34,0,.82.22,1.07.22,1.68,0,.73-2.13,1.37-3,1.37-.67,0-1.01-.43-1.01-1.2,0-2.3.54-5.43.54-8.71,0-2.06-.22-2.55-.22-3.01,0-.94,2.23-1.67,3.91-1.67.67,0,.96.34.96,1.03s-.9,4.74-.9,5.26c0,.22.07.32.17.32.11,0,1.78-1.91,2.96-1.91.82,0,2.32,1.42,2.32,2.4,0,.36-.66.69-1.2.94-1.24.58-1.42.79-1.42,1.16,0,.39.24.58,1.01,1.35Z"/>
        <path class="cls-8" d="m226.33,148.22c0,.64-.15,1.22-.15,2.71,0,1.67.36,2.45.71,2.45.41,0,.86-1.01.86-3.31,0-1.69-.19-1.83-.19-2.27,0-.34.26-.62.67-.62,1.55,0,3.69.94,3.69,2.25,0,4.62-3.88,12.38-7.62,12.38-1.35,0-2.88-1.87-2.88-3.05,0-.41.21-.67.6-.67s.99.3,1.67.3c.86,0,1.76-.66,1.76-1.24,0-.3-3.5-3.5-3.5-7.19,0-1.42,2.36-2.49,3.48-2.51.56,0,.9.28.9.77Z"/>
        <path class="cls-8" d="m241.99,151.74c0,2.68-1.67,5.22-4.87,5.22-2.81,0-4.68-2.04-4.68-4.47,0-3.16,2.32-5.32,5.04-5.32,2.86,0,4.51,1.87,4.51,4.57Zm-4.94,1.76c.71,0,1.25-.75,1.25-1.68,0-.56-.34-.97-.77-.97-.71,0-1.37.71-1.37,1.67,0,.49.39.99.88.99Z"/>
        <path class="cls-8" d="m247.74,148.36c0,1.82-.58,3.05-.58,4.42,0,.43.22.69.52.69.66,0,1.31-.75,1.31-2.47,0-.88-.34-1.42-.34-2.23,0-.69,1.52-1.46,3.24-1.46.9,0,1.5.41,1.5,1.38,0,1.33-.69,2.73-.69,4.31,0,1.39.64,1.39.64,2.1,0,.75-2.06,1.83-3.24,1.83s-1.29-1.55-1.54-1.55c-.19,0-1.03,1.37-2.85,1.37-1.55,0-2.96-1.12-2.96-2.66,0-1.76.32-2.1.32-3.09,0-.92-.37-1.68-.37-2.3,0-.8,1.98-1.89,3.48-1.89,1.07,0,1.55.51,1.55,1.55Z"/>
      </g>
      <circle class="cls-12" cx="324.63" cy="233.54" r="12.18"/>
    </g>
  </g>
</svg>