<?xml version="1.0" encoding="UTF-8"?>
<svg id="_レイヤー_2" data-name="レイヤー 2" xmlns="http://www.w3.org/2000/svg" viewBox="0 0 3503.37 249.7">
  <defs>
    <style>
      .cls-1 {
        fill: #f79f3e;
        stroke-width: 0px;
      }
    </style>
  </defs>
  <g id="_レイヤー_2-2" data-name="レイヤー 2">
    <g>
      <path class="cls-1" d="m3470.94,193.95v-93.01h-26.96v28.6h-48.4v12.4h-11.27l-10.21-9.1-10.21,9.1h-11.49v-18.71h-50.43v25.24l-22.47-7.57-26.79,9.03v-40.94l-27.56-6.72v51.83h-11.79v-59.4h-42.23v-26.39h-58.01v67.99h-46.2v17.81h-17.38v-80.3h-49.47v120.16h-13.08v-126.07h-4.07v-21.22h-3.45v-19.4h-6.09V0h-3.83v27.27h-6.09v19.4h-3.45v21.22h-4.07v70.65h-10.09v-55.42h-50.43v110.83h-.02v-65.56h-49.47v65.56h-43.22v55.75h700.67v-55.75h-32.44Zm-436.93-107.97h5.92v5.92h-5.92v-5.92Zm0,13.71h5.92v5.92h-5.92v-5.92Zm0,13.71h5.92v5.92h-5.92v-5.92Zm-11.39-27.43h5.92v5.92h-5.92v-5.92Zm0,13.71h5.92v5.92h-5.92v-5.92Zm0,13.71h5.92v5.92h-5.92v-5.92Zm-11.39-27.43h5.92v5.92h-5.92v-5.92Zm0,13.71h5.92v5.92h-5.92v-5.92Zm0,13.71h5.92v5.92h-5.92v-5.92Zm-131.35,27.17h5.92v5.92h-5.92v-5.92Zm0,13.71h5.92v5.92h-5.92v-5.92Zm0,13.71h5.92v5.92h-5.92v-5.92Zm-11.39-27.43h5.92v5.92h-5.92v-5.92Zm0,13.71h5.92v5.92h-5.92v-5.92Zm0,13.71h5.92v5.92h-5.92v-5.92Zm-11.39-27.43h5.92v5.92h-5.92v-5.92Zm0,13.71h5.92v5.92h-5.92v-5.92Zm0,13.71h5.92v5.92h-5.92v-5.92Zm544.02-29.48h37.54v3.06h-37.54v-3.06Zm0,10.01h37.54v3.06h-37.54v-3.06Zm0,10.01h37.54v3.06h-37.54v-3.06Zm0,10.01h37.54v3.06h-37.54v-3.06Zm0,10.01h37.54v3.06h-37.54v-3.06Zm-18.61-8.75v-5.92h5.92v5.92h-5.92Zm5.92,7.79v5.92h-5.92v-5.92h5.92Zm-17.31-21.5v-5.92h5.92v5.92h-5.92Zm5.92,7.79v5.92h-5.92v-5.92h5.92Zm-5.92,13.71h5.92v5.92h-5.92v-5.92Zm17.31-21.5h-5.92v-5.92h5.92v5.92Zm-28.7-5.92h5.92v5.92h-5.92v-5.92Zm0,13.71h5.92v5.92h-5.92v-5.92Zm0,13.71h5.92v5.92h-5.92v-5.92Zm-24.24-41.63h3.06v45.36h-3.06v-45.36Zm-9.85,0h3.06v45.36h-3.06v-45.36Zm-9.85,0h3.06v45.36h-3.06v-45.36Zm-27.88,18.3h5.92v5.92h-5.92v-5.92Zm0,13.71h5.92v5.92h-5.92v-5.92Zm0,13.71h5.92v5.92h-5.92v-5.92Zm-11.39-27.43h5.92v5.92h-5.92v-5.92Zm0,13.71h5.92v5.92h-5.92v-5.92Zm0,13.71h5.92v5.92h-5.92v-5.92Zm-11.39-27.43h5.92v5.92h-5.92v-5.92Zm0,13.71h5.92v5.92h-5.92v-5.92Zm0,13.71h5.92v5.92h-5.92v-5.92Zm-164.28-33.24h5.92v5.92h-5.92v-5.92Zm0,13.71h5.92v5.92h-5.92v-5.92Zm0,13.71h5.92v5.92h-5.92v-5.92Zm-11.39-27.43h5.92v5.92h-5.92v-5.92Zm0,13.71h5.92v5.92h-5.92v-5.92Zm0,13.71h5.92v5.92h-5.92v-5.92Zm-11.39-27.43h5.92v5.92h-5.92v-5.92Zm0,13.71h5.92v5.92h-5.92v-5.92Zm0,13.71h5.92v5.92h-5.92v-5.92Zm-44.07-15.68v-5.92h5.92v5.92h-5.92Zm5.92,7.79v5.92h-5.92v-5.92h5.92Zm-5.92-21.5v-5.92h5.92v5.92h-5.92Zm-11.39,13.71v-5.92h5.92v5.92h-5.92Zm5.92,7.79v5.92h-5.92v-5.92h5.92Zm-5.92-21.5v-5.92h5.92v5.92h-5.92Zm-11.39,13.71v-5.92h5.92v5.92h-5.92Zm5.92,7.79v5.92h-5.92v-5.92h5.92Zm-5.92-21.5v-5.92h5.92v5.92h-5.92Zm-34.41-66.03v85.82h-3.06v-85.82h3.06Zm-10.74,0h3.06v85.82h-3.06v-85.82Zm-37.14,22.44h3.06v70.43h-3.06v-70.43Zm-9.85,0h3.06v70.43h-3.06v-70.43Zm-9.85,0h3.06v70.43h-3.06v-70.43Z"/>
      <g>
        <path class="cls-1" d="m668.24,193.95v-93.01h-26.96v28.6h-48.4v12.4h-11.27l-10.21-9.1-10.21,9.1h-11.49v-18.71h-50.43v25.24l-22.47-7.57-26.79,9.03v-40.94l-27.56-6.72v51.83h-11.79v-59.4h-42.23v-26.39h-58.01v67.99h-46.2v17.81h-17.38v-80.3h-49.47v120.16h-13.08v-126.07h-4.07v-21.22h-3.45v-19.4h-6.09V0h-3.83v27.27h-6.09v19.4h-3.45v21.22h-4.07v70.65h-10.09v-55.42h-50.43v110.83h-.02v-65.56h-49.47v65.56H0v55.75h700.67v-55.75h-32.44ZM231.31,85.99h5.92v5.92h-5.92v-5.92Zm0,13.71h5.92v5.92h-5.92v-5.92Zm0,13.71h5.92v5.92h-5.92v-5.92Zm-11.39-27.43h5.92v5.92h-5.92v-5.92Zm0,13.71h5.92v5.92h-5.92v-5.92Zm0,13.71h5.92v5.92h-5.92v-5.92Zm-11.39-27.43h5.92v5.92h-5.92v-5.92Zm0,13.71h5.92v5.92h-5.92v-5.92Zm0,13.71h5.92v5.92h-5.92v-5.92Zm-131.35,27.17h5.92v5.92h-5.92v-5.92Zm0,13.71h5.92v5.92h-5.92v-5.92Zm0,13.71h5.92v5.92h-5.92v-5.92Zm-11.39-27.43h5.92v5.92h-5.92v-5.92Zm0,13.71h5.92v5.92h-5.92v-5.92Zm0,13.71h5.92v5.92h-5.92v-5.92Zm-11.39-27.43h5.92v5.92h-5.92v-5.92Zm0,13.71h5.92v5.92h-5.92v-5.92Zm0,13.71h5.92v5.92h-5.92v-5.92Zm544.02-29.48h37.54v3.06h-37.54v-3.06Zm0,10.01h37.54v3.06h-37.54v-3.06Zm0,10.01h37.54v3.06h-37.54v-3.06Zm0,10.01h37.54v3.06h-37.54v-3.06Zm0,10.01h37.54v3.06h-37.54v-3.06Zm-18.61-8.75v-5.92h5.92v5.92h-5.92Zm5.92,7.79v5.92h-5.92v-5.92h5.92Zm-17.31-21.5v-5.92h5.92v5.92h-5.92Zm5.92,7.79v5.92h-5.92v-5.92h5.92Zm-5.92,13.71h5.92v5.92h-5.92v-5.92Zm17.31-21.5h-5.92v-5.92h5.92v5.92Zm-28.7-5.92h5.92v5.92h-5.92v-5.92Zm0,13.71h5.92v5.92h-5.92v-5.92Zm0,13.71h5.92v5.92h-5.92v-5.92Zm-24.24-41.63h3.06v45.36h-3.06v-45.36Zm-9.85,0h3.06v45.36h-3.06v-45.36Zm-9.85,0h3.06v45.36h-3.06v-45.36Zm-27.88,18.3h5.92v5.92h-5.92v-5.92Zm0,13.71h5.92v5.92h-5.92v-5.92Zm0,13.71h5.92v5.92h-5.92v-5.92Zm-11.39-27.43h5.92v5.92h-5.92v-5.92Zm0,13.71h5.92v5.92h-5.92v-5.92Zm0,13.71h5.92v5.92h-5.92v-5.92Zm-11.39-27.43h5.92v5.92h-5.92v-5.92Zm0,13.71h5.92v5.92h-5.92v-5.92Zm0,13.71h5.92v5.92h-5.92v-5.92Zm-164.28-33.24h5.92v5.92h-5.92v-5.92Zm0,13.71h5.92v5.92h-5.92v-5.92Zm0,13.71h5.92v5.92h-5.92v-5.92Zm-11.39-27.43h5.92v5.92h-5.92v-5.92Zm0,13.71h5.92v5.92h-5.92v-5.92Zm0,13.71h5.92v5.92h-5.92v-5.92Zm-11.39-27.43h5.92v5.92h-5.92v-5.92Zm0,13.71h5.92v5.92h-5.92v-5.92Zm0,13.71h5.92v5.92h-5.92v-5.92Zm-44.07-15.68v-5.92h5.92v5.92h-5.92Zm5.92,7.79v5.92h-5.92v-5.92h5.92Zm-5.92-21.5v-5.92h5.92v5.92h-5.92Zm-11.39,13.71v-5.92h5.92v5.92h-5.92Zm5.92,7.79v5.92h-5.92v-5.92h5.92Zm-5.92-21.5v-5.92h5.92v5.92h-5.92Zm-11.39,13.71v-5.92h5.92v5.92h-5.92Zm5.92,7.79v5.92h-5.92v-5.92h5.92Zm-5.92-21.5v-5.92h5.92v5.92h-5.92Zm-34.41-66.03v85.82h-3.06v-85.82h3.06Zm-10.74,0h3.06v85.82h-3.06v-85.82Zm-37.14,22.44h3.06v70.43h-3.06v-70.43Zm-9.85,0h3.06v70.43h-3.06v-70.43Zm-9.85,0h3.06v70.43h-3.06v-70.43Z"/>
        <path class="cls-1" d="m1368.91,193.95v-93.01h-26.96v28.6h-48.4v12.4h-11.27l-10.21-9.1-10.21,9.1h-11.49v-18.71h-50.43v25.24l-22.47-7.57-26.79,9.03v-40.94l-27.56-6.72v51.83h-11.79v-59.4h-42.23v-26.39h-58.01v67.99h-46.2v17.81h-17.38v-80.3h-49.47v120.16h-13.08v-126.07h-4.07v-21.22h-3.45v-19.4h-6.09V0h-3.83v27.27h-6.09v19.4h-3.45v21.22h-4.07v70.65h-10.09v-55.42h-50.43v110.83h-.02v-65.56h-49.47v65.56h-43.22v55.75h700.67v-55.75h-32.44Zm-436.93-107.97h5.92v5.92h-5.92v-5.92Zm0,13.71h5.92v5.92h-5.92v-5.92Zm0,13.71h5.92v5.92h-5.92v-5.92Zm-11.39-27.43h5.92v5.92h-5.92v-5.92Zm0,13.71h5.92v5.92h-5.92v-5.92Zm0,13.71h5.92v5.92h-5.92v-5.92Zm-11.39-27.43h5.92v5.92h-5.92v-5.92Zm0,13.71h5.92v5.92h-5.92v-5.92Zm0,13.71h5.92v5.92h-5.92v-5.92Zm-131.35,27.17h5.92v5.92h-5.92v-5.92Zm0,13.71h5.92v5.92h-5.92v-5.92Zm0,13.71h5.92v5.92h-5.92v-5.92Zm-11.39-27.43h5.92v5.92h-5.92v-5.92Zm0,13.71h5.92v5.92h-5.92v-5.92Zm0,13.71h5.92v5.92h-5.92v-5.92Zm-11.39-27.43h5.92v5.92h-5.92v-5.92Zm0,13.71h5.92v5.92h-5.92v-5.92Zm0,13.71h5.92v5.92h-5.92v-5.92Zm544.02-29.48h37.54v3.06h-37.54v-3.06Zm0,10.01h37.54v3.06h-37.54v-3.06Zm0,10.01h37.54v3.06h-37.54v-3.06Zm0,10.01h37.54v3.06h-37.54v-3.06Zm0,10.01h37.54v3.06h-37.54v-3.06Zm-18.61-8.75v-5.92h5.92v5.92h-5.92Zm5.92,7.79v5.92h-5.92v-5.92h5.92Zm-17.31-21.5v-5.92h5.92v5.92h-5.92Zm5.92,7.79v5.92h-5.92v-5.92h5.92Zm-5.92,13.71h5.92v5.92h-5.92v-5.92Zm17.31-21.5h-5.92v-5.92h5.92v5.92Zm-28.7-5.92h5.92v5.92h-5.92v-5.92Zm0,13.71h5.92v5.92h-5.92v-5.92Zm0,13.71h5.92v5.92h-5.92v-5.92Zm-24.24-41.63h3.06v45.36h-3.06v-45.36Zm-9.85,0h3.06v45.36h-3.06v-45.36Zm-9.85,0h3.06v45.36h-3.06v-45.36Zm-27.88,18.3h5.92v5.92h-5.92v-5.92Zm0,13.71h5.92v5.92h-5.92v-5.92Zm0,13.71h5.92v5.92h-5.92v-5.92Zm-11.39-27.43h5.92v5.92h-5.92v-5.92Zm0,13.71h5.92v5.92h-5.92v-5.92Zm0,13.71h5.92v5.92h-5.92v-5.92Zm-11.39-27.43h5.92v5.92h-5.92v-5.92Zm0,13.71h5.92v5.92h-5.92v-5.92Zm0,13.71h5.92v5.92h-5.92v-5.92Zm-164.28-33.24h5.92v5.92h-5.92v-5.92Zm0,13.71h5.92v5.92h-5.92v-5.92Zm0,13.71h5.92v5.92h-5.92v-5.92Zm-11.39-27.43h5.92v5.92h-5.92v-5.92Zm0,13.71h5.92v5.92h-5.92v-5.92Zm0,13.71h5.92v5.92h-5.92v-5.92Zm-11.39-27.43h5.92v5.92h-5.92v-5.92Zm0,13.71h5.92v5.92h-5.92v-5.92Zm0,13.71h5.92v5.92h-5.92v-5.92Zm-44.07-15.68v-5.92h5.92v5.92h-5.92Zm5.92,7.79v5.92h-5.92v-5.92h5.92Zm-5.92-21.5v-5.92h5.92v5.92h-5.92Zm-11.39,13.71v-5.92h5.92v5.92h-5.92Zm5.92,7.79v5.92h-5.92v-5.92h5.92Zm-5.92-21.5v-5.92h5.92v5.92h-5.92Zm-11.39,13.71v-5.92h5.92v5.92h-5.92Zm5.92,7.79v5.92h-5.92v-5.92h5.92Zm-5.92-21.5v-5.92h5.92v5.92h-5.92Zm-34.41-66.03v85.82h-3.06v-85.82h3.06Zm-10.74,0h3.06v85.82h-3.06v-85.82Zm-37.14,22.44h3.06v70.43h-3.06v-70.43Zm-9.85,0h3.06v70.43h-3.06v-70.43Zm-9.85,0h3.06v70.43h-3.06v-70.43Z"/>
        <path class="cls-1" d="m2069.59,193.95v-93.01h-26.96v28.6h-48.4v12.4h-11.27l-10.21-9.1-10.21,9.1h-11.49v-18.71h-50.43v25.24l-22.47-7.57-26.79,9.03v-40.94l-27.56-6.72v51.83h-11.79v-59.4h-42.23v-26.39h-58.01v67.99h-46.2v17.81h-17.38v-80.3h-49.47v120.16h-13.08v-126.07h-4.07v-21.22h-3.45v-19.4h-6.09V0h-3.83v27.27h-6.09v19.4h-3.45v21.22h-4.07v70.65h-10.09v-55.42h-50.43v110.83h-.02v-65.56h-49.47v65.56h-43.22v55.75h700.67v-55.75h-32.44Zm-436.93-107.97h5.92v5.92h-5.92v-5.92Zm0,13.71h5.92v5.92h-5.92v-5.92Zm0,13.71h5.92v5.92h-5.92v-5.92Zm-11.39-27.43h5.92v5.92h-5.92v-5.92Zm0,13.71h5.92v5.92h-5.92v-5.92Zm0,13.71h5.92v5.92h-5.92v-5.92Zm-11.39-27.43h5.92v5.92h-5.92v-5.92Zm0,13.71h5.92v5.92h-5.92v-5.92Zm0,13.71h5.92v5.92h-5.92v-5.92Zm-131.35,27.17h5.92v5.92h-5.92v-5.92Zm0,13.71h5.92v5.92h-5.92v-5.92Zm0,13.71h5.92v5.92h-5.92v-5.92Zm-11.39-27.43h5.92v5.92h-5.92v-5.92Zm0,13.71h5.92v5.92h-5.92v-5.92Zm0,13.71h5.92v5.92h-5.92v-5.92Zm-11.39-27.43h5.92v5.92h-5.92v-5.92Zm0,13.71h5.92v5.92h-5.92v-5.92Zm0,13.71h5.92v5.92h-5.92v-5.92Zm544.02-29.48h37.54v3.06h-37.54v-3.06Zm0,10.01h37.54v3.06h-37.54v-3.06Zm0,10.01h37.54v3.06h-37.54v-3.06Zm0,10.01h37.54v3.06h-37.54v-3.06Zm0,10.01h37.54v3.06h-37.54v-3.06Zm-18.61-8.75v-5.92h5.92v5.92h-5.92Zm5.92,7.79v5.92h-5.92v-5.92h5.92Zm-17.31-21.5v-5.92h5.92v5.92h-5.92Zm5.92,7.79v5.92h-5.92v-5.92h5.92Zm-5.92,13.71h5.92v5.92h-5.92v-5.92Zm17.31-21.5h-5.92v-5.92h5.92v5.92Zm-28.7-5.92h5.92v5.92h-5.92v-5.92Zm0,13.71h5.92v5.92h-5.92v-5.92Zm0,13.71h5.92v5.92h-5.92v-5.92Zm-24.24-41.63h3.06v45.36h-3.06v-45.36Zm-9.85,0h3.06v45.36h-3.06v-45.36Zm-9.85,0h3.06v45.36h-3.06v-45.36Zm-27.88,18.3h5.92v5.92h-5.92v-5.92Zm0,13.71h5.92v5.92h-5.92v-5.92Zm0,13.71h5.92v5.92h-5.92v-5.92Zm-11.39-27.43h5.92v5.92h-5.92v-5.92Zm0,13.71h5.92v5.92h-5.92v-5.92Zm0,13.71h5.92v5.92h-5.92v-5.92Zm-11.39-27.43h5.92v5.92h-5.92v-5.92Zm0,13.71h5.92v5.92h-5.92v-5.92Zm0,13.71h5.92v5.92h-5.92v-5.92Zm-164.28-33.24h5.92v5.92h-5.92v-5.92Zm0,13.71h5.92v5.92h-5.92v-5.92Zm0,13.71h5.92v5.92h-5.92v-5.92Zm-11.39-27.43h5.92v5.92h-5.92v-5.92Zm0,13.71h5.92v5.92h-5.92v-5.92Zm0,13.71h5.92v5.92h-5.92v-5.92Zm-11.39-27.43h5.92v5.92h-5.92v-5.92Zm0,13.71h5.92v5.92h-5.92v-5.92Zm0,13.71h5.92v5.92h-5.92v-5.92Zm-44.07-15.68v-5.92h5.92v5.92h-5.92Zm5.92,7.79v5.92h-5.92v-5.92h5.92Zm-5.92-21.5v-5.92h5.92v5.92h-5.92Zm-11.39,13.71v-5.92h5.92v5.92h-5.92Zm5.92,7.79v5.92h-5.92v-5.92h5.92Zm-5.92-21.5v-5.92h5.92v5.92h-5.92Zm-11.39,13.71v-5.92h5.92v5.92h-5.92Zm5.92,7.79v5.92h-5.92v-5.92h5.92Zm-5.92-21.5v-5.92h5.92v5.92h-5.92Zm-34.41-66.03v85.82h-3.06v-85.82h3.06Zm-10.74,0h3.06v85.82h-3.06v-85.82Zm-37.14,22.44h3.06v70.43h-3.06v-70.43Zm-9.85,0h3.06v70.43h-3.06v-70.43Zm-9.85,0h3.06v70.43h-3.06v-70.43Z"/>
        <path class="cls-1" d="m2770.26,193.95v-93.01h-26.96v28.6h-48.4v12.4h-11.27l-10.21-9.1-10.21,9.1h-11.49v-18.71h-50.43v25.24l-22.47-7.57-26.79,9.03v-40.94l-27.56-6.72v51.83h-11.79v-59.4h-42.23v-26.39h-58.01v67.99h-46.2v17.81h-17.38v-80.3h-49.47v120.16h-13.08v-126.07h-4.07v-21.22h-3.45v-19.4h-6.09V0h-3.83v27.27h-6.09v19.4h-3.45v21.22h-4.07v70.65h-10.09v-55.42h-50.43v110.83h-.02v-65.56h-49.47v65.56h-43.22v55.75h700.67v-55.75h-32.44Zm-436.93-107.97h5.92v5.92h-5.92v-5.92Zm0,13.71h5.92v5.92h-5.92v-5.92Zm0,13.71h5.92v5.92h-5.92v-5.92Zm-11.39-27.43h5.92v5.92h-5.92v-5.92Zm0,13.71h5.92v5.92h-5.92v-5.92Zm0,13.71h5.92v5.92h-5.92v-5.92Zm-11.39-27.43h5.92v5.92h-5.92v-5.92Zm0,13.71h5.92v5.92h-5.92v-5.92Zm0,13.71h5.92v5.92h-5.92v-5.92Zm-131.35,27.17h5.92v5.92h-5.92v-5.92Zm0,13.71h5.92v5.92h-5.92v-5.92Zm0,13.71h5.92v5.92h-5.92v-5.92Zm-11.39-27.43h5.92v5.92h-5.92v-5.92Zm0,13.71h5.92v5.92h-5.92v-5.92Zm0,13.71h5.92v5.92h-5.92v-5.92Zm-11.39-27.43h5.92v5.92h-5.92v-5.92Zm0,13.71h5.92v5.92h-5.92v-5.92Zm0,13.71h5.92v5.92h-5.92v-5.92Zm544.02-29.48h37.54v3.06h-37.54v-3.06Zm0,10.01h37.54v3.06h-37.54v-3.06Zm0,10.01h37.54v3.06h-37.54v-3.06Zm0,10.01h37.54v3.06h-37.54v-3.06Zm0,10.01h37.54v3.06h-37.54v-3.06Zm-18.61-8.75v-5.92h5.92v5.92h-5.92Zm5.92,7.79v5.92h-5.92v-5.92h5.92Zm-17.31-21.5v-5.92h5.92v5.92h-5.92Zm5.92,7.79v5.92h-5.92v-5.92h5.92Zm-5.92,13.71h5.92v5.92h-5.92v-5.92Zm17.31-21.5h-5.92v-5.92h5.92v5.92Zm-28.7-5.92h5.92v5.92h-5.92v-5.92Zm0,13.71h5.92v5.92h-5.92v-5.92Zm0,13.71h5.92v5.92h-5.92v-5.92Zm-24.24-41.63h3.06v45.36h-3.06v-45.36Zm-9.85,0h3.06v45.36h-3.06v-45.36Zm-9.85,0h3.06v45.36h-3.06v-45.36Zm-27.88,18.3h5.92v5.92h-5.92v-5.92Zm0,13.71h5.92v5.92h-5.92v-5.92Zm0,13.71h5.92v5.92h-5.92v-5.92Zm-11.39-27.43h5.92v5.92h-5.92v-5.92Zm0,13.71h5.92v5.92h-5.92v-5.92Zm0,13.71h5.92v5.92h-5.92v-5.92Zm-11.39-27.43h5.92v5.92h-5.92v-5.92Zm0,13.71h5.92v5.92h-5.92v-5.92Zm0,13.71h5.92v5.92h-5.92v-5.92Zm-164.28-33.24h5.92v5.92h-5.92v-5.92Zm0,13.71h5.92v5.92h-5.92v-5.92Zm0,13.71h5.92v5.92h-5.92v-5.92Zm-11.39-27.43h5.92v5.92h-5.92v-5.92Zm0,13.71h5.92v5.92h-5.92v-5.92Zm0,13.71h5.92v5.92h-5.92v-5.92Zm-11.39-27.43h5.92v5.92h-5.92v-5.92Zm0,13.71h5.92v5.92h-5.92v-5.92Zm0,13.71h5.92v5.92h-5.92v-5.92Zm-44.07-15.68v-5.92h5.92v5.92h-5.92Zm5.92,7.79v5.92h-5.92v-5.92h5.92Zm-5.92-21.5v-5.92h5.92v5.92h-5.92Zm-11.39,13.71v-5.92h5.92v5.92h-5.92Zm5.92,7.79v5.92h-5.92v-5.92h5.92Zm-5.92-21.5v-5.92h5.92v5.92h-5.92Zm-11.39,13.71v-5.92h5.92v5.92h-5.92Zm5.92,7.79v5.92h-5.92v-5.92h5.92Zm-5.92-21.5v-5.92h5.92v5.92h-5.92Zm-34.41-66.03v85.82h-3.06v-85.82h3.06Zm-10.74,0h3.06v85.82h-3.06v-85.82Zm-37.14,22.44h3.06v70.43h-3.06v-70.43Zm-9.85,0h3.06v70.43h-3.06v-70.43Zm-9.85,0h3.06v70.43h-3.06v-70.43Z"/>
      </g>
    </g>
  </g>
</svg>