<?xml version="1.0" encoding="UTF-8"?>
<svg id="_レイヤー_2" data-name="レイヤー 2" xmlns="http://www.w3.org/2000/svg" viewBox="0 0 94.28 39">
  <defs>
    <style>
      .cls-1 {
        fill: #fbb558;
        stroke-width: 0px;
      }
    </style>
  </defs>
  <g id="_レイヤー_1-2" data-name="レイヤー 1">
    <path class="cls-1" d="m94.28,10.4c0-5.74-4.66-10.4-10.4-10.4s-9.96,4.25-10.36,9.63c-3.61,3.12-5.36,2.07-12.39,2.07s-37.08,1.3-40.38-2.37C20.21,4.09,15.78,0,10.4,0,4.65,0,0,4.66,0,10.4c0,3.92,2.16,7.33,5.37,9.1C2.16,21.27,0,24.68,0,28.6c0,5.74,4.65,10.4,10.4,10.4s10.4-4.66,10.4-10.4c0-.27-.02-.54-.04-.8,1.25-1.29,2.86-2.45,4.59-2.45h35.78s3.9,0,7.8,0c1.74,0,3.34,1.16,4.59,2.45-.02.26-.04.53-.04.8,0,5.74,4.66,10.4,10.4,10.4s10.4-4.66,10.4-10.4c0-3.92-2.17-7.32-5.37-9.1,3.2-1.77,5.37-5.18,5.37-9.1Z"/>
  </g>
</svg>