<?xml version="1.0" encoding="UTF-8"?>
<svg id="_レイヤー_2" data-name="レイヤー 2" xmlns="http://www.w3.org/2000/svg" viewBox="0 0 219.03 51.86">
  <defs>
    <style>
      .cls-1 {
        fill: #732d11;
      }

      .cls-1, .cls-2 {
        stroke-width: 0px;
      }

      .cls-2 {
        fill: #1f8eda;
      }
    </style>
  </defs>
  <g id="_レイヤー_1-2" data-name="レイヤー 1">
    <g>
      <g>
        <path class="cls-1" d="m10.66,35.93c-.28.09-.55.06-.82-.08-.26-.14-.44-.34-.52-.62-.69-2.23-1.37-4.45-2.06-6.68-.42.65-.83,1.31-1.23,2-.41.69-.81,1.38-1.22,2.08-.15.25-.36.41-.65.5-.29.08-.57.06-.83-.07-.26-.15-.43-.36-.51-.64-.08-.28-.05-.54.1-.79.56-.94,1.13-1.88,1.72-2.83.59-.95,1.21-1.87,1.85-2.75-.37-1.2-.74-2.4-1.11-3.6-.31.16-.7.38-1.17.64-.47.27-.93.52-1.38.76-.45.24-.82.45-1.11.6-.29.16-.58.21-.88.13-.3-.07-.53-.24-.69-.51-.15-.25-.19-.53-.1-.82.09-.3.26-.52.54-.66.35-.2.79-.43,1.3-.69.52-.27,1.04-.53,1.57-.8.53-.26.96-.48,1.31-.66-.37-1.2-.74-2.4-1.11-3.6-.09-.29-.05-.56.1-.82.16-.26.39-.43.69-.52.3-.09.59-.08.86.05.27.13.46.33.54.63.37,1.22.73,2.44,1.1,3.65.43.02.84.17,1.21.44.36.26.58.66.65,1.21.07.55.03,1.18-.1,1.91.75-.81,1.55-1.5,2.39-2.08.84-.58,1.73-.99,2.64-1.25,2-.56,3.68-.51,4.99.14,1.33.65,2.19,1.78,2.61,3.39.16.62.23,1.3.18,2.04-.04.74-.26,1.49-.66,2.27-.4.78-1.05,1.54-1.95,2.3-.89.76-2.11,1.49-3.66,2.2-.29.13-.57.15-.86.05-.29-.1-.5-.28-.62-.54-.13-.28-.15-.56-.04-.84.11-.28.31-.49.6-.62,1.96-.9,3.34-1.86,4.12-2.89.78-1.04,1.02-2.16.69-3.38-.29-1.06-.86-1.78-1.7-2.13-.85-.35-1.9-.35-3.16,0-1.04.29-2.01.81-2.91,1.56-.89.74-1.74,1.63-2.52,2.65.84,2.78,1.67,5.56,2.51,8.34.08.27.05.54-.09.8-.14.26-.36.43-.64.52Z"/>
        <path class="cls-1" d="m29.12,29.69c-.3-.11-.51-.3-.63-.56-.12-.26-.13-.55-.04-.83.42-1.19.73-2.47.94-3.85.21-1.37.34-2.78.38-4.21.04-1.43.02-2.8-.08-4.11-.5.18-.98.35-1.45.5-.47.15-.92.3-1.34.43-.31.09-.61.07-.89-.07-.29-.14-.47-.34-.56-.62-.09-.29-.06-.57.09-.84.15-.27.37-.45.69-.54.46-.14.97-.3,1.54-.47.57-.17,1.15-.35,1.75-.56-.08-.66-.18-1.27-.28-1.83-.1-.57-.23-1.08-.37-1.54-.08-.29-.05-.57.11-.83.16-.26.4-.43.72-.52.31-.1.61-.08.88.07.27.15.45.37.53.67.13.43.24.91.34,1.45.09.54.17,1.11.25,1.74.51-.2,1.01-.38,1.46-.56.46-.18.87-.35,1.21-.52.28-.14.58-.16.87-.04.3.12.5.31.63.58.13.28.14.56.02.84-.11.28-.32.48-.63.61-.45.18-.96.38-1.54.59-.58.22-1.19.44-1.84.67.1,1.47.13,3.02.08,4.65-.05,1.63-.19,3.22-.42,4.76-.23,1.55-.57,2.96-1.02,4.23-.1.28-.29.5-.57.63-.28.13-.56.15-.86.06Zm16.54-4.21c-2.19.92-4.15,1.35-5.93,1.27-1.77-.08-3.17-.68-4.2-1.83-.2-.23-.29-.5-.27-.8.03-.3.15-.55.38-.75.23-.2.5-.29.81-.27.31.01.56.14.77.37.54.6,1.19.98,1.95,1.12.76.14,1.62.11,2.58-.1.96-.21,1.97-.54,3.06-1,.28-.12.56-.12.85-.02.29.11.49.31.61.59.12.27.11.54,0,.82-.12.28-.32.47-.6.59Zm-2.94-8.92c-.95-.03-2,.07-3.17.29-1.16.22-2.23.53-3.17.91-.3.13-.59.14-.87.03-.28-.11-.49-.31-.62-.59-.13-.27-.14-.54-.01-.83.12-.29.33-.49.64-.6,1.14-.43,2.36-.76,3.65-1.01,1.3-.25,2.53-.37,3.7-.37.31,0,.57.12.79.35.22.23.31.49.28.79-.01.29-.13.54-.37.74-.24.2-.52.3-.84.3Z"/>
        <path class="cls-1" d="m62.49,23.63c-1.79.25-3.27.02-4.46-.7-1.18-.72-1.94-2.06-2.25-4.02-.67-4.23-1.34-8.47-2.01-12.7-.05-.3.03-.57.22-.81.2-.24.45-.39.75-.43.32-.05.62.01.88.18.26.17.41.41.46.71.64,4.24,1.29,8.48,1.93,12.72.2,1.31.65,2.17,1.35,2.58.7.41,1.64.52,2.82.36,1.15-.16,2.15-.6,3-1.31.85-.71,1.48-1.67,1.9-2.9.09-.29.29-.5.58-.63.29-.13.59-.15.88-.06.29.09.52.28.65.56.14.28.16.56.06.85-.55,1.65-1.43,2.94-2.63,3.88-1.21.94-2.58,1.52-4.15,1.74Z"/>
        <path class="cls-1" d="m77.33,21.53c-.27-.15-.46-.37-.54-.65-.09-.28-.06-.56.08-.83.58-1.12,1.07-2.34,1.47-3.67.4-1.33.72-2.7.97-4.11.24-1.41.41-2.77.5-4.08-.52.11-1.02.21-1.5.29-.48.08-.94.16-1.38.23-.32.05-.61-.02-.87-.19-.26-.17-.42-.41-.46-.69-.05-.3.02-.57.2-.82.18-.24.43-.39.75-.43.47-.08,1-.16,1.58-.24.58-.08,1.18-.19,1.8-.3.01-.66,0-1.28-.02-1.85-.02-.57-.07-1.1-.15-1.58-.04-.3.03-.57.23-.8.19-.23.46-.37.78-.41.32-.06.61,0,.86.2.25.19.39.43.43.74.07.44.11.94.13,1.48.02.54.01,1.13,0,1.76.54-.12,1.04-.24,1.52-.35.48-.11.9-.22,1.27-.34.3-.1.59-.07.86.08.27.16.45.38.54.66.09.3.05.58-.1.84-.15.26-.39.43-.7.52-.47.11-1,.23-1.6.37-.6.13-1.24.26-1.9.4-.1,1.47-.29,3-.57,4.61-.28,1.6-.64,3.15-1.08,4.65-.44,1.5-.97,2.85-1.6,4.05-.14.27-.36.45-.65.54-.29.09-.58.07-.85-.06Zm16.88-1.81c-2.29.61-4.28.75-6.02.42-1.73-.33-3.03-1.13-3.88-2.41-.17-.26-.22-.54-.15-.83.07-.29.23-.52.48-.69.25-.16.53-.22.83-.16.3.06.54.22.7.48.45.68,1.03,1.14,1.76,1.38.73.25,1.58.34,2.55.26.97-.07,2.02-.26,3.16-.55.29-.08.57-.04.84.1.27.15.44.37.52.67.08.28.03.56-.12.81-.16.26-.39.42-.68.5Zm-1.64-9.24c-.93-.16-1.98-.22-3.17-.16-1.18.05-2.26.2-3.25.45-.31.09-.6.05-.86-.1-.26-.15-.44-.37-.53-.67-.09-.28-.06-.56.1-.83.16-.27.4-.44.71-.51,1.18-.26,2.43-.42,3.74-.48,1.31-.06,2.55,0,3.7.16.3.05.55.2.73.46.18.26.23.53.16.82-.05.29-.21.52-.47.68-.26.17-.55.22-.87.17Z"/>
        <path class="cls-1" d="m109.34,20.8c-.31,0-.58-.1-.8-.31-.23-.21-.35-.46-.37-.77-.02-.32.08-.59.3-.82.22-.23.48-.34.79-.34,1.7-.05,3.04-.25,4.03-.61.99-.36,1.71-.88,2.16-1.57.44-.69.68-1.52.69-2.5.01-.85-.24-1.52-.77-2.02-.53-.5-1.22-.79-2.09-.89-.87-.09-1.83.03-2.89.38-1.06.35-2.11.95-3.14,1.81-.41.32-.85.35-1.32.09-.2-.12-.35-.3-.44-.52-.1-.22-.11-.45-.05-.67.22-.8.42-1.77.6-2.9.18-1.13.33-2.25.45-3.35-.88.02-1.71.05-2.5.06-.79.01-1.49.01-2.09,0-.32-.02-.59-.15-.78-.38-.2-.22-.29-.48-.26-.77.02-.31.16-.55.39-.75.23-.2.51-.28.84-.26.67.03,1.39.05,2.17.05.78,0,1.6,0,2.43-.03.05-.51.08-1,.1-1.45.02-.46.03-.84.03-1.14,0-.3.1-.57.31-.78.21-.22.48-.34.81-.35.31,0,.59.1.84.3.25.2.36.45.35.75-.02.31-.04.68-.06,1.13-.02.45-.06.93-.11,1.44.88-.07,1.75-.15,2.58-.24.84-.09,1.6-.22,2.3-.37.31-.08.59-.03.86.14.27.17.43.41.49.71.07.29,0,.56-.16.81-.18.25-.42.4-.74.45-.76.12-1.63.22-2.59.32-.97.09-1.95.17-2.95.24-.12.93-.24,1.83-.37,2.69-.13.86-.26,1.55-.39,2.07.87-.56,1.78-.97,2.74-1.21.97-.24,1.9-.31,2.82-.21.92.09,1.74.35,2.48.75.74.41,1.32.96,1.75,1.65.42.7.63,1.53.6,2.51-.03,1.52-.44,2.78-1.2,3.77-.77.99-1.82,1.74-3.15,2.24-1.34.5-2.89.79-4.68.86Z"/>
        <path class="cls-1" d="m137.2,20.19c-.31.04-.6-.02-.86-.2-.26-.17-.42-.4-.48-.7-.06-.31,0-.59.17-.84.18-.25.42-.41.74-.46,1.91-.32,3.38-.98,4.45-1.98,1.07-1,1.69-2.35,1.84-4.04.1-1.11-.07-2.13-.53-3.04-.46-.91-1.15-1.67-2.08-2.28-.93-.61-2.06-1-3.39-1.18-.45,2.63-1.09,4.9-1.9,6.81-.81,1.91-1.7,3.37-2.68,4.39-.98,1.02-1.96,1.5-2.93,1.45-.82-.05-1.54-.33-2.18-.85-.64-.52-1.13-1.23-1.48-2.14-.34-.9-.5-1.95-.45-3.13.06-1.31.37-2.52.95-3.62.58-1.1,1.37-2.05,2.37-2.84,1-.79,2.16-1.38,3.49-1.78,1.33-.39,2.75-.54,4.26-.43,1.85.13,3.49.61,4.87,1.4,1.39.79,2.44,1.84,3.14,3.12.71,1.28.98,2.73.82,4.34-.22,2.23-1.06,4.02-2.48,5.39-1.43,1.37-3.31,2.23-5.66,2.61Zm-7.5-4.32c.38.02.8-.23,1.27-.74.47-.52.95-1.25,1.43-2.18.48-.94.94-2.05,1.37-3.34.43-1.29.77-2.69,1.03-4.21-1.47.11-2.74.49-3.78,1.14-1.05.65-1.85,1.47-2.41,2.45-.57.98-.88,2.02-.95,3.12-.06,1.17.12,2.08.51,2.73.4.65.9,1,1.53,1.03Z"/>
        <path class="cls-1" d="m160.98,24c-.31-.06-.55-.21-.73-.46-.19-.25-.25-.52-.19-.82.04-.3.19-.54.44-.72.25-.18.53-.24.83-.18,1.57.26,2.8.23,3.7-.12.9-.35,1.44-1.02,1.6-2.01.15-.93-.14-1.72-.9-2.36-.76-.64-1.9-1.08-3.41-1.3-.66-.1-1.3-.16-1.92-.2-.62-.03-1.21-.03-1.77,0-.15,1.08-.3,2.15-.45,3.23-.21,1.51-.7,2.57-1.47,3.2-.77.63-1.82.86-3.16.69-1.08-.14-1.94-.52-2.58-1.16-.64-.64-.9-1.53-.76-2.68.15-1.29.79-2.37,1.94-3.25,1.15-.88,2.63-1.48,4.42-1.79.19-1.4.37-2.81.56-4.21-.8-.04-1.57-.09-2.33-.14-.76-.05-1.44-.11-2.05-.17-.32-.02-.59-.16-.8-.4-.21-.24-.3-.51-.26-.82.03-.3.18-.54.43-.72.25-.18.54-.26.86-.24.65.06,1.35.12,2.11.19.76.06,1.54.12,2.32.15.15-1.13.3-2.25.45-3.38.04-.31.19-.56.45-.74.26-.18.55-.24.87-.2.32.05.58.18.78.42.19.24.27.51.22.83-.15,1.06-.3,2.12-.44,3.19.49.02.97.04,1.42.06.45.02.89.03,1.3.04.32.02.6.12.83.31.23.19.35.44.35.77,0,.31-.1.56-.33.75-.23.19-.5.29-.83.29-.43,0-.9,0-1.41-.02-.51-.02-1.06-.04-1.63-.07-.18,1.29-.36,2.58-.54,3.87.59-.03,1.2-.03,1.82.02.62.04,1.26.11,1.93.21,2.22.33,3.89,1.05,4.99,2.13,1.1,1.08,1.52,2.38,1.26,3.87-.28,1.66-1.13,2.82-2.53,3.51-1.4.69-3.19.82-5.41.43Zm-7.16-3.14c.6.08,1.08-.03,1.43-.3.35-.28.59-.87.71-1.8l.34-2.57c-1.13.29-2.03.7-2.7,1.25-.68.54-1.05,1.17-1.14,1.87-.05.41.04.76.27,1.04.23.28.59.45,1.1.51Zm14.95-7.34c-.27-.25-.6-.55-1.02-.89-.42-.33-.83-.66-1.23-.99-.4-.33-.75-.58-1.05-.77-.24-.18-.42-.42-.51-.72-.09-.3-.05-.57.13-.82.19-.26.46-.41.78-.45.33-.04.61.03.86.2.34.23.74.53,1.21.89.47.36.93.73,1.38,1.1.45.38.82.7,1.1.98.22.22.32.47.31.77-.02.3-.14.55-.36.75-.22.21-.49.3-.79.29-.31,0-.58-.12-.81-.34Z"/>
        <path class="cls-1" d="m184.19,28.62c-1.85-.41-3.16-1.17-3.94-2.32-.78-1.14-1.02-2.51-.7-4.11.08-.39.31-1.1.71-2.13-.49-.18-.97-.37-1.43-.57-.46-.2-.87-.38-1.23-.55-.28-.14-.46-.35-.55-.65-.08-.29-.06-.57.07-.84.15-.25.38-.42.67-.51.3-.09.59-.06.87.07.31.16.67.33,1.09.51.41.18.86.36,1.32.54.21-.53.43-1.07.67-1.64.24-.56.47-1.12.71-1.68-.45-.19-.88-.38-1.29-.56-.42-.18-.77-.34-1.07-.48-.28-.14-.47-.35-.57-.64-.1-.29-.08-.56.06-.83.14-.27.35-.44.65-.53.3-.09.59-.06.87.08.27.12.6.27.98.44.38.17.78.35,1.2.52.34-.8.64-1.53.9-2.2.26-.67.44-1.22.55-1.64.08-.29.26-.51.54-.66.28-.14.56-.18.87-.1.32.08.56.26.72.52.16.26.21.55.12.84-.11.45-.32,1.03-.6,1.75-.29.72-.61,1.49-.96,2.33.3.13.6.24.88.34.28.1.53.18.74.26.31.08.54.27.66.54.13.27.14.56.05.85-.1.29-.29.49-.57.61-.28.12-.57.13-.88.03-.26-.09-.54-.19-.83-.29-.29-.11-.61-.22-.93-.33-.24.55-.48,1.11-.71,1.65-.24.55-.47,1.07-.7,1.58.4.13.77.25,1.13.35.35.1.69.2.99.3.31.08.54.25.7.51.16.26.2.53.11.82-.08.29-.26.51-.53.66-.27.15-.56.18-.86.09-.36-.11-.73-.22-1.14-.34-.41-.12-.82-.26-1.23-.41-.16.41-.29.77-.4,1.08-.12.31-.19.56-.23.75-.43,2.07.55,3.35,2.96,3.88.91.2,1.73.18,2.45-.07.72-.24,1.28-.65,1.66-1.22.43-.62.59-1.34.46-2.15-.13-.81-.52-1.65-1.19-2.5-.18-.26-.26-.53-.21-.82.04-.29.19-.53.43-.7.26-.17.55-.23.86-.19.31.05.56.19.74.43.95,1.22,1.48,2.47,1.61,3.73.14,1.27-.15,2.4-.82,3.41-.65.96-1.55,1.64-2.7,2.04-1.15.4-2.4.45-3.77.15Z"/>
        <path class="cls-1" d="m204.05,30.16c-.77-.13-1.43-.45-1.99-.94-.56-.5-.99-1.2-1.29-2.13-.16-.54-.27-1.21-.32-2-.05-.79-.04-1.65.02-2.58.06-.93.18-1.86.36-2.81.18-.95.41-1.85.69-2.72.11-.28.3-.5.58-.63.28-.13.57-.15.88-.05.31.1.54.29.69.56.14.27.17.55.05.83-.18.93-.33,1.76-.46,2.49-.13.73-.24,1.5-.35,2.32-.11.82-.17,1.58-.18,2.29-.01.71.05,1.27.17,1.69.26.83.74,1.32,1.46,1.48.42.09.84-.01,1.26-.29.41-.28.88-.77,1.37-1.48.18-.25.42-.4.72-.46.3-.05.58,0,.85.18.25.17.4.41.47.71.07.3.02.57-.16.8-.86,1.13-1.69,1.9-2.49,2.31-.81.41-1.59.55-2.34.42Zm13.84-.11c-.32,0-.59-.11-.82-.33-.23-.22-.36-.48-.38-.79-.1-1.07-.37-2.16-.8-3.26-.44-1.1-1.02-2.07-1.74-2.91-.21-.25-.28-.52-.22-.83.07-.31.23-.53.51-.66.3-.17.59-.21.88-.11.28.1.54.28.76.54.46.54.91,1.22,1.35,2.03.44.81.81,1.67,1.12,2.57.31.9.46,1.77.48,2.6,0,.31-.1.57-.31.79-.21.22-.49.34-.83.35Z"/>
      </g>
      <g>
        <path class="cls-2" d="m62.89,48.7c-.71,0-1.34-.17-1.9-.51-.55-.34-.99-.82-1.31-1.43-.32-.61-.48-1.32-.48-2.13s.16-1.52.48-2.12c.32-.61.75-1.08,1.31-1.42.55-.34,1.19-.51,1.9-.51s1.34.17,1.9.51c.55.34.99.81,1.31,1.42.32.61.48,1.32.48,2.12s-.16,1.52-.48,2.13c-.32.61-.75,1.09-1.31,1.43-.55.34-1.19.51-1.9.51Zm0-1.32c.66,0,1.19-.25,1.61-.74.41-.49.62-1.16.62-2.01s-.21-1.52-.62-2c-.41-.48-.95-.73-1.61-.73s-1.19.24-1.61.73c-.41.48-.62,1.15-.62,2s.21,1.52.62,2.01c.41.49.95.74,1.61.74Z"/>
        <path class="cls-2" d="m70.94,48.7c-.82,0-1.48-.26-1.99-.78-.51-.52-.76-1.28-.76-2.27v-4.12c0-.51.24-.76.71-.76s.73.25.73.76v3.83c0,.67.15,1.17.45,1.51.3.34.69.51,1.16.51.55,0,1-.18,1.35-.54.35-.36.53-.85.53-1.46v-3.84c0-.51.24-.76.73-.76s.71.25.71.76v6.22c0,.52-.22.78-.65.78s-.66-.13-.69-.4l-.03-.6c-.23.32-.53.6-.91.83-.38.23-.83.35-1.33.35Z"/>
        <path class="cls-2" d="m77.46,48.52c-.48,0-.73-.26-.73-.78v-6.22c0-.51.25-.76.76-.76.17,0,.32.04.45.13.13.09.19.25.19.48v.6c.22-.42.54-.76.98-1.02.44-.26.91-.39,1.41-.39.66,0,.99.26.99.79,0,.23-.06.39-.19.49-.12.1-.26.15-.41.14-.08-.01-.16-.02-.26-.02s-.2,0-.31,0c-.6,0-1.11.2-1.53.59-.42.39-.63.91-.63,1.54v3.65c0,.52-.24.78-.73.78Z"/>
        <path class="cls-2" d="m88.11,51.78c-.48,0-.73-.26-.73-.78v-9.48c0-.51.22-.76.65-.76s.65.11.66.34l.03.76c.28-.41.62-.73,1.03-.95.41-.23.87-.34,1.37-.34.71,0,1.34.16,1.89.49.55.33.98.8,1.3,1.41.32.61.48,1.33.48,2.16s-.16,1.55-.48,2.16c-.32.61-.75,1.09-1.3,1.41-.55.33-1.18.49-1.89.49-.48,0-.92-.1-1.31-.31-.39-.21-.72-.5-.99-.86v3.49c0,.52-.24.78-.73.78Zm2.97-4.41c.66,0,1.2-.25,1.63-.74.43-.49.65-1.16.65-2.01s-.22-1.52-.65-2c-.43-.48-.97-.73-1.63-.73s-1.2.24-1.62.73c-.43.48-.64,1.15-.64,2s.21,1.52.64,2.01c.43.49.97.74,1.62.74Z"/>
        <path class="cls-2" d="m97.27,48.52c-.48,0-.73-.26-.73-.78v-10.05c0-.51.24-.76.73-.76s.73.25.73.76v4.07c.19-.32.48-.6.86-.84.38-.24.81-.35,1.31-.35.82,0,1.48.26,1.99.78.51.52.77,1.28.77,2.27v4.12c0,.52-.24.78-.73.78s-.71-.26-.71-.78v-3.81c0-.68-.15-1.19-.45-1.53-.3-.34-.69-.51-1.18-.51-.55,0-1,.18-1.34.54-.34.36-.52.84-.52,1.45v3.86c0,.52-.24.78-.73.78Z"/>
        <path class="cls-2" d="m106.07,39.31c-.27,0-.5-.09-.69-.28-.19-.19-.28-.42-.28-.69s.09-.5.28-.69c.19-.19.42-.28.69-.28s.48.09.67.28c.19.19.28.42.28.69s-.09.5-.28.69c-.19.19-.41.28-.67.28Zm.02,9.21c-.48,0-.73-.26-.73-.78v-6.22c0-.51.24-.76.73-.76s.71.25.71.76v6.22c0,.52-.24.78-.71.78Z"/>
        <path class="cls-2" d="m109.93,48.52c-.48,0-.73-.26-.73-.78v-10.05c0-.51.24-.76.73-.76s.73.25.73.76v10.05c0,.52-.24.78-.73.78Z"/>
        <path class="cls-2" d="m116.09,48.7c-.71,0-1.34-.17-1.9-.51-.55-.34-.99-.82-1.31-1.43-.32-.61-.48-1.32-.48-2.13s.16-1.52.48-2.12c.32-.61.75-1.08,1.31-1.42.55-.34,1.19-.51,1.9-.51s1.34.17,1.9.51c.55.34.99.81,1.31,1.42.32.61.48,1.32.48,2.12s-.16,1.52-.48,2.13c-.32.61-.75,1.09-1.31,1.43-.55.34-1.19.51-1.9.51Zm0-1.32c.66,0,1.19-.25,1.61-.74.41-.49.62-1.16.62-2.01s-.21-1.52-.62-2c-.41-.48-.95-.73-1.61-.73s-1.19.24-1.61.73c-.41.48-.62,1.15-.62,2s.21,1.52.62,2.01c.41.49.95.74,1.61.74Z"/>
        <path class="cls-2" d="m124.24,48.68c-1.1,0-2-.31-2.71-.92-.2-.15-.31-.32-.32-.5,0-.18.07-.35.22-.5.15-.15.31-.22.47-.21.16.01.34.09.55.23.48.42,1.1.63,1.86.63.47,0,.85-.09,1.13-.26.28-.17.42-.46.42-.86,0-.32-.15-.56-.44-.72s-.81-.3-1.55-.44c-.48-.1-.92-.23-1.3-.39-.38-.16-.69-.4-.91-.7-.23-.31-.34-.71-.34-1.2s.13-.88.39-1.22c.26-.34.6-.6,1.03-.78.43-.18.9-.27,1.41-.27.94,0,1.69.25,2.26.74.22.13.34.28.36.46.03.18-.03.34-.17.49-.14.17-.29.25-.45.24-.16-.01-.35-.07-.57-.18-.36-.31-.83-.47-1.42-.47-.46,0-.81.09-1.03.28-.23.19-.34.41-.34.67,0,.3.13.52.39.66.26.14.73.29,1.41.44.54.12,1.01.27,1.43.47.41.19.74.45.97.76.23.31.35.72.35,1.21,0,.74-.28,1.32-.85,1.73s-1.31.61-2.24.61Z"/>
        <path class="cls-2" d="m132.21,48.7c-.71,0-1.34-.17-1.9-.51-.55-.34-.99-.82-1.31-1.43-.32-.61-.48-1.32-.48-2.13s.16-1.52.48-2.12c.32-.61.75-1.08,1.31-1.42.55-.34,1.19-.51,1.9-.51s1.34.17,1.9.51c.55.34.99.81,1.31,1.42.32.61.48,1.32.48,2.12s-.16,1.52-.48,2.13c-.32.61-.75,1.09-1.31,1.43-.55.34-1.19.51-1.9.51Zm0-1.32c.66,0,1.19-.25,1.61-.74.41-.49.62-1.16.62-2.01s-.21-1.52-.62-2c-.41-.48-.95-.73-1.61-.73s-1.19.24-1.61.73c-.41.48-.62,1.15-.62,2s.21,1.52.62,2.01c.41.49.95.74,1.61.74Z"/>
        <path class="cls-2" d="m138.36,51.78c-.48,0-.73-.26-.73-.78v-9.48c0-.51.22-.76.65-.76s.65.11.66.34l.03.76c.28-.41.62-.73,1.03-.95.41-.23.87-.34,1.37-.34.71,0,1.34.16,1.89.49.55.33.98.8,1.3,1.41.32.61.48,1.33.48,2.16s-.16,1.55-.48,2.16c-.32.61-.75,1.09-1.3,1.41-.55.33-1.18.49-1.89.49-.48,0-.92-.1-1.31-.31-.39-.21-.72-.5-.99-.86v3.49c0,.52-.24.78-.73.78Zm2.97-4.41c.66,0,1.2-.25,1.63-.74.43-.49.65-1.16.65-2.01s-.22-1.52-.65-2c-.43-.48-.97-.73-1.63-.73s-1.2.24-1.62.73c-.43.48-.64,1.15-.64,2s.21,1.52.64,2.01c.43.49.97.74,1.62.74Z"/>
        <path class="cls-2" d="m147.52,48.52c-.48,0-.73-.26-.73-.78v-10.05c0-.51.24-.76.73-.76s.73.25.73.76v4.07c.19-.32.48-.6.86-.84.38-.24.81-.35,1.31-.35.82,0,1.48.26,1.99.78.51.52.77,1.28.77,2.27v4.12c0,.52-.24.78-.73.78s-.71-.26-.71-.78v-3.81c0-.68-.15-1.19-.45-1.53-.3-.34-.69-.51-1.18-.51-.55,0-1,.18-1.34.54-.34.36-.52.84-.52,1.45v3.86c0,.52-.24.78-.73.78Z"/>
        <path class="cls-2" d="m156.07,51.86c-.09,0-.18,0-.27,0-.09,0-.18-.01-.27-.02-.24-.02-.41-.1-.53-.23-.12-.13-.18-.31-.18-.52,0-.42.17-.61.5-.58.19.03.4.05.61.05.41,0,.69-.08.86-.24.16-.16.32-.45.48-.86l.36-.94-2.71-6.87c-.11-.27-.12-.48-.04-.64.08-.16.23-.23.46-.23h.08c.44,0,.73.21.87.61l1.97,5.36,1.89-5.36c.13-.41.42-.61.87-.61.25,0,.42.08.51.23.09.16.09.37,0,.64l-3,8.24c-.24.66-.54,1.15-.9,1.49-.36.33-.88.5-1.56.5Z"/>
      </g>
    </g>
  </g>
</svg>