<?xml version="1.0" encoding="UTF-8"?>
<svg id="_レイヤー_2" data-name=" レイヤー 2" xmlns="http://www.w3.org/2000/svg" version="1.1" viewBox="0 0 263.9 112.3">
  <defs>
    <style>
      .cls-1 {
        fill: #e26672;
      }

      .cls-1, .cls-2, .cls-3, .cls-4, .cls-5, .cls-6 {
        stroke-width: 0px;
      }

      .cls-7 {
        fill: #aa6950;
        stroke: #fff3f3;
      }

      .cls-7, .cls-8 {
        stroke-miterlimit: 10;
      }

      .cls-2 {
        fill: #fff3f3;
      }

      .cls-3 {
        fill: #3a3a3a;
      }

      .cls-4 {
        fill: #f76d74;
      }

      .cls-5 {
        fill: #5e5051;
      }

      .cls-6 {
        fill: #f2d768;
      }

      .cls-8 {
        fill: none;
        stroke: #3a3a3a;
        stroke-linecap: round;
        stroke-width: .3px;
      }
    </style>
  </defs>
  <path class="cls-2" d="M32.1,3.2c.3,2,.6,8.1.6,11.3,0,9-1.1,14.6-2.6,15.8-1.9,1.6-5,2.2-7.6,2.2s-2.6-1.9-3.8-4.3c-1.2-2.4-4.8-12.7-6.1-12.7s-.6.8-.6,2.1c0,6.5,2.7,10.9,2.7,12.5s-3.1,3-6.7,3-5.3-.8-5.8-3c-.5-2.2-1-6.9-1-11.1,0-7.9.5-12.9.8-14.6.3-1.8,1-2.6,1.9-2.9.9-.3,4.2-.7,6.3-.7s4.8.7,6.6,4c1.2,2.1,5.2,11.6,6,11.6s.5-.6.5-1.2c0-4.8-3.5-10.5-3.5-12.7s3.1-2.5,6.1-2.5,6,1.1,6.4,3.2h0Z"/>
  <path class="cls-2" d="M56.7,2.6c1,1.6,1.2,3.1,1.2,4.5s-.8,2.4-1.9,2.4-3.9-.4-6.1-.4-3.5.3-3.5,1.7.5,1.8,1.5,1.8c1.5,0,3.8-.7,5.3-.7s2.2.5,2.2,3.4-.8,4.9-2,4.9-2.1-.2-3.5-.2c-2.2,0-3.2.6-3.2,1.9s.2,1.3,1.8,1.3c5.5,0,9-2.3,10-2.3s1.7,1.4,1.7,3.9-.4,5-1.8,5.7c-1.4.7-7,2.5-13,2.5s-7.4-.7-7.9-1.9c-.7-1.7-1.5-6.8-1.5-12.8,0-8.9.9-14,1.4-15.4.5-1.4,3.7-2.4,10.5-2.4s7.4.2,8.7,2.2h0Z"/>
  <path class="cls-2" d="M96.3.8c4.3,0,6,1,7.5,3.9,1.4,2.9,1.8,5.4,1.8,11.3s-4.4,16.5-12.8,16.5-6.9-3.1-7.4-3.1-3,3.6-9.3,3.6-12.5-5.3-12.5-13.4,2-15.3,4.3-16.8c2.3-1.4,6.8-2.4,8.1-2.4s2.7.9,2.7,2.9-3,8.2-3,16.4.8,4.4,1.9,4.4c1.6,0,2.6-2.4,2.6-6.3s-.4-6-.4-7.7,2.3-2.6,6.9-2.6,3.7,1.3,3.7,2.8-.5,5.1-.5,8.5.7,5,1.7,5,2.4-1.3,2.4-6c0-9.6-3.6-13.1-3.6-14.9s1.9-2,5.8-2h0Z"/>
  <path class="cls-2" d="M152.7,16.6c0,11.7-7.1,16.5-16.6,16.5s-9.4-1.8-10.1-3.4c-.8-2.1-1.4-6.3-1.4-11.9s.6-11.4,1-12.9.8-2.2,2.4-2.8c1.6-.6,4.1-1.4,8-1.4,9.3,0,16.7,4.2,16.7,15.9h0ZM135.9,12.8c0,4.2,0,8.6.1,9.2.1,1,.6,1.2,1.2,1.2,1.7,0,3.8-3.2,3.8-6.9s-1.9-5.5-3.4-5.5-1.8.4-1.8,1.8Z"/>
  <path class="cls-2" d="M182.9,10.4c0,6.7-5.3,9.4-5.3,9.4,0,0,1.2.3,2.6,2.1,1.5,2,2,4.5,3.6,5,.6.2.9.4.9,1.2,0,2.3-4.6,4.4-8.4,4.4s-3.6-3-5.2-6.1c-1-2-1.5-2.2-2.3-2.2s-1.3,0-1.3,1.3c0,2.3.8,3.3.8,4.6s-4.9,3.1-8.3,3.1-3.7-4.8-3.7-12.5,1-16.6,3.5-18c2.6-1.5,5.9-2.5,10.2-2.5,7.6,0,12.9,3.4,12.9,10.3h0ZM167.1,12.8c0,1.8.6,1.9,1.5,1.9s3-1.2,3-3.2-.8-2.3-2.2-2.3-2.3,1.4-2.3,3.6h0Z"/>
  <path class="cls-2" d="M200.9,2.6c0,1.4-1.5,9.9-1.5,16.3s1.2,9.2,1.2,11-4.3,3-8,3-4.5-1.2-4.5-2.2.4-2.1.4-6.1-.9-10.1-.9-14.6,1.2-7.2,3.3-8.1c2.2-.9,6.2-1.6,7.5-1.6s2.6.9,2.6,2.3h0Z"/>
  <path class="cls-2" d="M235,5c0,2.8-.9,10.2-3.2,16.6-2.4,6.4-3.8,8.3-6.5,9.5-2.7,1.2-6.2,1.7-7.8,1.7s-4.2-1.7-6-4.6c-2.3-3.8-5.5-12-5.5-19.6s2.4-3.9,5.6-5.5c2.6-1.2,4.8-1.3,5.5-1.3s1.7.6,1.7,1.9-.5,9.2-.5,13,1.1,5.2,1.7,5.2,2.9-3.6,2.9-9.4-.9-6.8-.9-8,7.6-4,9.8-4,3.2,1.7,3.2,4.4h0Z"/>
  <path class="cls-2" d="M260.4,2.6c1,1.6,1.2,3.1,1.2,4.5s-.9,2.4-1.9,2.4-3.9-.4-6.1-.4-3.5.3-3.5,1.7.5,1.8,1.5,1.8c1.5,0,3.8-.7,5.3-.7s2.2.5,2.2,3.4-.8,4.9-2,4.9-2.1-.2-3.5-.2c-2.2,0-3.2.6-3.2,1.9s.2,1.3,1.8,1.3c5.5,0,9-2.3,10-2.3s1.7,1.4,1.7,3.9-.4,5-1.8,5.7c-1.4.7-7,2.5-13,2.5s-7.4-.7-7.9-1.9c-.7-1.7-1.5-6.8-1.5-12.8,0-8.9.9-14,1.4-15.4.5-1.4,3.7-2.4,10.5-2.4s7.4.2,8.7,2.2h0Z"/>
  <path class="cls-2" d="M62.5,58.7c0,11.7-7.1,16.5-16.6,16.5s-9.4-1.8-10.1-3.4c-.8-2.1-1.4-6.3-1.4-11.9s.6-11.4,1-12.9.8-2.2,2.4-2.8c1.6-.6,4.1-1.4,8-1.4,9.3,0,16.7,4.2,16.7,15.9h0ZM45.7,55c0,4.2,0,8.6.1,9.2.1,1,.6,1.2,1.2,1.2,1.7,0,3.8-3.2,3.8-6.9s-1.9-5.5-3.4-5.5-1.8.4-1.8,1.9Z"/>
  <path class="cls-2" d="M93.6,52.6c0,6.7-5.3,9.4-5.3,9.4,0,0,1.2.3,2.6,2.1,1.5,2,2,4.5,3.6,5,.6.2.9.4.9,1.2,0,2.3-4.6,4.3-8.4,4.3s-3.6-3-5.2-6.2c-1-2-1.5-2.2-2.3-2.2s-1.3,0-1.3,1.3c0,2.3.8,3.3.8,4.6s-4.9,3.1-8.3,3.1-3.7-4.8-3.7-12.5,1-16.6,3.5-18c2.6-1.5,5.9-2.5,10.2-2.5,7.6,0,12.9,3.4,12.9,10.3h0ZM77.8,54.9c0,1.8.6,1.9,1.5,1.9s3-1.2,3-3.2-.8-2.3-2.2-2.3-2.3,1.4-2.3,3.6Z"/>
  <path class="cls-2" d="M119.1,44.8c1,1.6,1.2,3.1,1.2,4.5s-.8,2.5-1.9,2.5-3.9-.4-6.1-.4-3.5.3-3.5,1.7.5,1.8,1.5,1.8c1.5,0,3.8-.7,5.3-.7s2.2.5,2.2,3.4-.8,4.9-2,4.9-2.1-.2-3.5-.2c-2.2,0-3.2.6-3.2,1.9s.2,1.3,1.8,1.3c5.5,0,9-2.3,10-2.3s1.7,1.4,1.7,3.9-.4,5-1.8,5.7c-1.4.7-7,2.5-13,2.5s-7.4-.7-7.9-1.9c-.7-1.7-1.5-6.8-1.5-12.8,0-8.9.9-14,1.4-15.5.5-1.4,3.7-2.4,10.5-2.4s7.4.2,8.7,2.2h0Z"/>
  <path class="cls-2" d="M155.2,57.3c3,9.3,3,13.6,3,15.2s-1.4,2.1-3.4,2.1-4.2,0-6.1-.4c-1.8-.3-2.5-1.1-2.5-3.2s.1-1.6.1-2.3-.4-1.2-1.2-1.2c-2.2,0-5,.4-5,2.4s.3,1.8.3,3.2-.8,1.4-1.8,1.6c-2.4.5-5.6.7-7.5.7s-2.6-1.1-2.6-3.2.1-7.8,2.9-16.2c2.6-8,4-11.6,6.1-12.4,2.1-.8,5.8-1.3,8.5-1.3s6,5.7,9,14.9h0ZM140.7,60.5c0,.6,0,.8.9.8,1.7,0,3.8-.7,3.8-1.2,0-1.6-2-5.3-2.8-5.3s-1.8,5-1.8,5.8Z"/>
  <path class="cls-2" d="M178.4,44.7c.7,1.2,5,11.7,5,11.7,0,0,1-4.7,1.8-7.9,1.1-4.3,2.1-5.5,4.8-5.5,4.4,0,7.3.9,8.4,3.2,1,2.3,4.5,13.8,4.5,22.1s-7.3,6.4-9.1,6.4-2.3-.7-2.3-1.6.9-3.4.9-7-.7-8.1-1.6-8.1-2.6,8.2-2.6,12-1.8,3.6-3.7,3.6c-3.3,0-5.6-.6-5.8-2.5-.4-4.7-1.8-11-3.1-11s-1.2,3.3-1.2,6.3c0,5,.9,5.8.9,7.2s-1.7,1.9-4.2,1.9c-5.1,0-8.4-1.3-8.4-4.7s1.8-18.8,2.9-22.7c.9-3.3,1.1-4,3.1-4.5,1.9-.5,5-.9,6.5-.9s2.2.6,3,1.8h0Z"/>
  <path class="cls-2" d="M230.2,83.3c-12-2.7-19.6-14.7-16.9-26.7s14.7-19.6,26.7-16.8c12,2.7,19.6,14.7,16.8,26.7-2.7,12-14.7,19.6-26.7,16.8h0ZM239,44.2c-9.6-2.2-19.1,3.8-21.2,13.4s3.9,19.1,13.4,21.2,19.1-3.8,21.2-13.4-3.9-19.1-13.4-21.2Z"/>
  <path class="cls-2" d="M216.5,53.8l2.9-5.1c.2-.3.6-.4.8-.2l4.8,3.5c.2.2.3.5.2.7l-2.1,3.8c-.1.2-.4.4-.7.2l-5.6-2.3c-.3-.1-.4-.5-.3-.8Z"/>
  <path class="cls-2" d="M255.2,62.6l-.4-5.8c0-.3-.3-.6-.7-.5l-5.9,1.1c-.3,0-.5.3-.5.6l.3,4.4c0,.3.2.5.5.5l6,.3c.3,0,.6-.3.6-.6Z"/>
  <path class="cls-2" d="M230.5,60.3l-7.2-3.7c-.3-.1-.4-.5-.2-.8l1.3-2.6c.1-.3.4-.4.7-.3l7.7,3.1c.3.1.5.5.3.8l-1.8,3.2c-.1.3-.5.4-.8.2h0Z"/>
  <path class="cls-2" d="M239.8,62.4l8.1-.2c.3,0,.6-.3.6-.6v-3c0-.3-.3-.5-.6-.6l-8.3-.5c-.4,0-.6.3-.6.6l.3,3.7c0,.3.3.5.6.5h0Z"/>
  <path class="cls-2" d="M234,81.8l-6.6-1.5c-.3,0-.5-.4-.4-.8l2.4-6.6c.1-.3.4-.4.7-.4l5,1.1c.3,0,.5.3.4.6l-.7,6.9c0,.3-.4.6-.7.5Z"/>
  <circle class="cls-2" cx="235.4" cy="60" r="4.7"/>
  <path class="cls-2" d="M233.5,74.5l-2.5-.6c-.3,0-.5-.4-.4-.7l2-10.7c0-.3.4-.5.7-.5l3.3.8c.3,0,.5.4.4.7l-2.8,10.5c0,.3-.4.5-.7.4h0Z"/>
  <path class="cls-2" d="M15.5,60.7c-1.9,1.2-3,1.8-3.7,3.2-.1.3-.6,1.2-.6,2.6,0,2.8,1.9,4.7,4.5,4.7s4.4-2.4,4.4-4.9c0,0-2.4,2.4-3.1,2.4s-2.7-1.8-2.7-2.8,2.4-2.2,5.7-5.9c3.1-3.5,3.8-5.8,4.8-8.5.4-1,.8-1.6,1.6-1.6,1.7,0,5.2,3.8,5.2,6.4s-4.8,5.9-4.8,5.9c.4.7,1.2,2.3,1.2,4.4,0,7-5.8,11.9-13.8,11.9s-13.2-4.8-13.2-10.8,6.6-9.4,6.6-9.4c-1.3-.8-3.8-3.1-3.8-6.8s4.8-8.5,10.8-8.5,8,1.3,9.2,4.8c1.3,3.8-2.1,8.2-4.4,10-1.9,1.5-4,2.9-4,2.9h0Z"/>
  <path class="cls-7" d="M7.1,45.4c-.4-.4-1-.5-1.5-.3-.8.4-1.7,1-2.6,1.6-.6.4-1.1.8-1.6,1.2-.6.5-.9,1.2-.9,1.9s0,.9.1,1.4c.1.8.4,1.5.6,2.1,0,0,0,.2.1.2.1.2.3.4.5.5.8.5,1.9.4,3-.2.5-.2,1.6-.7,2.4-1.8.6-.8.8-1.5.9-2,.1-.4.4-1.5,0-2.8-.2-.7-.6-1.2-.9-1.5h0Z"/>
  <path class="cls-7" d="M20.9,45.4c.4-.4,1-.5,1.5-.3.8.4,1.7,1,2.6,1.6.6.4,1.1.8,1.6,1.2.6.5.9,1.2.9,1.9s0,.9-.1,1.4c-.1.8-.4,1.5-.6,2.1,0,0,0,.2-.1.2-.1.2-.3.4-.5.5-.8.5-1.9.4-3-.2-.5-.2-1.6-.7-2.4-1.8-.6-.8-.8-1.5-.9-2-.1-.4-.4-1.5,0-2.8.2-.7.6-1.2.9-1.5h0Z"/>
  <path class="cls-6" d="M18.6,63c-1.5-.2-4-.6-6.7-1.8-2.1-1-3.5-2.1-4.5-3,1.6.4,4.1.9,7.2.8,2.1,0,3.8-.4,5.2-.8.2.5.4,1.5.1,2.7-.3,1-.9,1.7-1.2,2.1h0Z"/>
  <rect class="cls-1" x="11.4" y="42.1" width="4.3" height="1.3"/>
  <path class="cls-4" d="M12,40.1c-.8-.4-2.1,0-3.1,1.1-1-1-2.3-1.5-3.1-1.1-1,.5-1,2,0,3.5.8,1.1,2,1.9,3,1.9h.3c1,0,2.2-.8,3-1.9,1.1-1.5,1.1-3,0-3.5h0Z"/>
  <path class="cls-5" d="M11.1,41.2c-.6-.3-1.5,0-2.2.8-.7-.7-1.6-1-2.2-.8-.7.3-.7,1.5,0,2.5.6.8,1.4,1.3,2.1,1.3h.2c.7,0,1.5-.6,2.1-1.3.7-1,.8-2.1,0-2.5Z"/>
  <path class="cls-4" d="M21.3,40.1c-.8-.4-2.1,0-3.1,1.1-1-1-2.3-1.5-3.1-1.1-1,.5-1,2,0,3.5.8,1.1,2,1.9,3,1.9h.3c1,0,2.1-.8,3-1.9,1-1.5,1.1-3,0-3.5h0Z"/>
  <path class="cls-5" d="M20.4,41.2c-.6-.3-1.5,0-2.2.8-.7-.7-1.6-1-2.2-.8-.7.3-.7,1.5,0,2.5.6.8,1.4,1.3,2.1,1.3h.2c.7,0,1.5-.6,2.1-1.3.7-1,.8-2.1,0-2.5Z"/>
  <path class="cls-3" d="M14.2,54.5h0c-.4,0-.8-.2-.9-.6v-.3c-.2-.3,0-.5.4-.6.2,0,.3,0,.5,0s.4,0,.5,0c.3,0,.5.3.5.6v.3c-.2.3-.6.6-1,.6Z"/>
  <path class="cls-8" d="M14.2,54.6c0,.5-.5,1.3-1.7,1.5-.8,0-1.5-.4-1.5-.8"/>
  <path class="cls-8" d="M14.2,54.6c0,.5.5,1.3,1.7,1.5.8,0,1.5-.4,1.5-.8"/>
  <g>
    <g>
      <path class="cls-2" d="M65.2,100.5c.5-.7,1.2-1,1.8-1s1,.3,1,.8-.3.6-.6,1.5c-.4,1.2-.6,2.7-.6,3.8s.2,1.1,1,1.1.5,0,.5.4-.5,1.7-2.3,1.7-1.4-.3-1.7-1.2c-.7.8-1.7,1.2-2.9,1.2s-3-1.3-3-3.7c0-3.6,2.2-5.6,4.3-5.6s2,.3,2.6,1.1h0ZM64.3,103.2c0-1.1-.5-1.5-1.3-1.5-1.5,0-1.9,1.6-1.9,3.1s.7,1.6,1.3,1.6c1.6,0,1.9-1.7,1.9-3.2h0Z"/>
      <path class="cls-2" d="M47.8,108.8c-.9,0-1.4-.3-1.4-.9s.4-1.4.5-2c.3-1.4.6-3,.6-3.7s-.2-.4-.8-.4-.8-.2-.8-.7c0-.7,1.1-1.5,2.4-1.5s1.7.7,1.8,1.3c.8-.9,1.9-1.4,2.8-1.4,2,0,2.6.9,2.6,2.4s-.5,2.8-.5,3.8.3,1,1.1,1,.5,0,.5.4-.5,1.7-2.3,1.7-2.2-.2-2.2-2.1.7-3.1.7-4.2-.2-.8-1-.8-1.4.9-1.6,1.7c-.2,1.2-.4,2.7-.4,3.3,0,.3-.2,2.1-2,2.1h0Z"/>
      <path class="cls-2" d="M77.8,100.5c.5-.7,1.2-.9,1.8-.9s.9.4.9.8c0,.6-.7.8-1,3.7l-.5,4c-.4,3.2-2.3,4.2-5,4.2s-3.7-.8-3.7-2.1,1-1.6,1.8-1.6c1.5,0,0,1.5,2.1,1.5s1.9-.9,2.2-2.5c-.7.5-1.5.9-2.5.9-1.7,0-3.2-1-3.2-3.5,0-3.5,2.2-5.5,4.4-5.5s2,.3,2.7,1h0ZM76.9,103.3c0-1.2-.6-1.6-1.5-1.6-1.5,0-1.9,1.4-1.9,2.8s.7,1.6,1.4,1.6c1.6,0,2-1.3,2-2.7h0Z"/>
      <path class="cls-2" d="M83.1,102.1c0-.4-.2-.4-.8-.4s-.8-.2-.8-.7c0-.7,1.2-1.5,2.8-1.5s1.7.5,1.7,1.6-.6,3.5-.6,4.5.3,1,1,1,.5,0,.5.4-.5,1.7-2.3,1.7-2.2-.2-2.2-2.1.7-3.6.7-4.5h0ZM86.7,96.9c0,1.1-.9,1.8-1.9,1.8s-1.5-.4-1.5-1.3.9-1.8,1.9-1.8,1.5.4,1.5,1.3Z"/>
      <path class="cls-2" d="M96.9,105.7c0,.8.3,1,1.1,1s.5,0,.5.4-.5,1.7-2.3,1.7-2.2-.2-2.2-2.1.7-3.1.7-4.2-.2-.8-1-.8-1.4.9-1.6,1.7c-.2,1.2-.4,2.7-.4,3.3,0,.3-.2,2.1-2,2.1s-1.3-.3-1.3-.9.4-1.4.5-2c.3-1.4,1.3-5.8,1.3-7.5s-.2-.4-.8-.4-.8-.2-.8-.7c0-.7,1.2-1.5,2.8-1.5s1.6.4,1.6,1.5-.2,2.3-.4,3.2c.7-.6,1.6-.9,2.3-.9,2,0,2.6.9,2.6,2.4s-.5,2.8-.5,3.8Z"/>
      <path class="cls-2" d="M106.6,100.5c.5-.7,1.2-1,1.8-1s1,.3,1,.8-.3.6-.6,1.5c-.4,1.2-.6,2.7-.6,3.8s.2,1.1,1,1.1.5,0,.5.4-.5,1.7-2.3,1.7-1.4-.3-1.7-1.2c-.7.8-1.7,1.2-2.9,1.2s-3-1.3-3-3.7c0-3.6,2.2-5.6,4.3-5.6s2,.3,2.6,1.1h0ZM105.7,103.2c0-1.1-.5-1.5-1.3-1.5-1.5,0-1.9,1.6-1.9,3.1s.7,1.6,1.3,1.6c1.6,0,1.9-1.7,1.9-3.2h0Z"/>
      <path class="cls-2" d="M112.7,108.8c-.9,0-1.3-.3-1.3-.9s.4-1.4.5-2c.3-1.4.6-3,.6-3.7s-.2-.4-.8-.4-.8-.2-.8-.7c0-.7,1.1-1.5,2.4-1.5s1.7.6,1.9,1.6c.6-.9,1.4-1.7,2.7-1.7,1.9,0,2.3,1.1,2.3,2.1s-.8,2-1.8,2-1.2-.2-1.2-.7.2-.4.2-.8-.2-.6-.5-.6c-.8,0-1.6,1.7-1.8,3-.2,1-.3,1.9-.3,2.4,0,.3-.2,2.1-2,2.1h0Z"/>
      <path class="cls-2" d="M128,100.5c.5-.7,1.2-1,1.8-1s1,.3,1,.8-.3.6-.6,1.5c-.4,1.2-.6,2.7-.6,3.8s.2,1.1,1,1.1.5,0,.5.4-.5,1.7-2.3,1.7-1.4-.3-1.7-1.2c-.7.8-1.7,1.2-2.9,1.2s-3-1.3-3-3.7c0-3.6,2.2-5.6,4.3-5.6s2,.3,2.6,1.1h0ZM127.1,103.2c0-1.1-.5-1.5-1.3-1.5-1.5,0-1.9,1.6-1.9,3.1s.7,1.6,1.3,1.6c1.6,0,1.9-1.7,1.9-3.2h0Z"/>
    </g>
    <g>
      <path class="cls-2" d="M185.5,105.1c0-4.1,2.8-5.7,5.2-5.7s3.9,1.1,3.9,3.7c0,4.1-2.8,5.7-5.2,5.7s-3.9-1.3-3.9-3.7h0ZM190.5,101.5c-1.4,0-2.1,1.6-2.1,3.5s.5,1.5,1.5,1.5c1.4,0,2.1-1.6,2.1-3.5s-.4-1.5-1.5-1.5h0Z"/>
      <path class="cls-2" d="M197.5,98.3c0-.4-.2-.4-.8-.4s-.8-.2-.8-.7c0-.7,1.2-1.5,2.8-1.5s1.6.4,1.6,1.5c0,1.7-1.1,7.1-1.1,8.5s.3,1,1.1,1,.5,0,.5.4-.5,1.7-2.3,1.7-2.2-.2-2.2-2.1,1.2-6.9,1.2-8.4h0Z"/>
      <path class="cls-2" d="M203.6,102.1c0-.4-.2-.4-.8-.4s-.8-.2-.8-.7c0-.7,1.2-1.5,2.8-1.5s1.7.5,1.7,1.6-.6,3.5-.6,4.5.3,1,1.1,1,.5,0,.5.4-.5,1.7-2.3,1.7-2.2-.2-2.2-2.1.7-3.6.7-4.5h0ZM207.3,96.9c0,1.1-.9,1.8-1.9,1.8s-1.5-.4-1.5-1.3.9-1.8,1.9-1.8,1.5.4,1.5,1.3h0Z"/>
      <path class="cls-2" d="M208.9,105.1c0-4.1,2.8-5.7,5.2-5.7s3.9,1.1,3.9,3.7c0,4.1-2.8,5.7-5.2,5.7s-3.9-1.3-3.9-3.7h0ZM213.8,101.5c-1.4,0-2.1,1.6-2.1,3.5s.5,1.5,1.5,1.5c1.4,0,2.1-1.6,2.1-3.5s-.4-1.5-1.5-1.5h0Z"/>
      <path class="cls-2" d="M142.7,104.3c-.4,0-.6,0-.7.4v.3c-.3,1.4,0,1.5,1,1.6.4,0,.8.3.8.9s-.4,1.2-1.5,1.2-1.1-.2-2.1-.2-1.6.2-2.2.2c-.8,0-1.2-.4-1.2-1s.6-1.1,1.1-1.2c1-.2,1-.2,1.2-1.6l.6-4.6c.2-1.4.1-1.4-.7-1.6-.4,0-.8-.4-.8-1,0-.8.4-1.2,1.5-1.2s1.2.2,1.9.2c1.1,0,2-.2,2.9-.2,2.6,0,4.2,1.2,4.2,3.5s-.5,4.3-4.5,4.3-1.1,0-1.5,0ZM142.7,99.6l-.3,2.2c0,.4,0,.5,1,.5,1.5,0,2.1-.2,2.1-2.3s-.4-1.2-1.9-1.2-.9.3-.9.8Z"/>
      <path class="cls-2" d="M149.1,105.1c0-4.1,2.8-5.7,5.2-5.7s3.9,1.1,3.9,3.7c0,4.1-2.8,5.7-5.2,5.7s-3.9-1.3-3.9-3.7h0ZM154.1,101.5c-1.4,0-2.1,1.6-2.1,3.5s.5,1.5,1.5,1.5c1.4,0,2.1-1.6,2.1-3.5s-.4-1.5-1.5-1.5h0Z"/>
      <path class="cls-2" d="M161.5,108.8c-.9,0-1.4-.3-1.4-.9s.4-1.4.5-2c.3-1.4.6-3,.6-3.7s-.2-.4-.8-.4-.8-.2-.8-.7c0-.7,1.1-1.5,2.4-1.5s1.7.6,1.9,1.6c.6-.9,1.4-1.7,2.7-1.7,1.9,0,2.3,1.1,2.3,2.1s-.8,2-1.8,2-1.2-.2-1.2-.7.2-.4.2-.8-.2-.6-.5-.6c-.8,0-1.6,1.7-1.8,3-.2,1-.3,1.9-.3,2.4,0,.3-.2,2.1-2,2.1h0Z"/>
      <path class="cls-2" d="M174.3,99.7c0,.2.1.3.3.3s.9-.1,1.2-.1c.6,0,.9.2.9.8s-.5,1-1,1.1c-.9.2-2.1-.1-2.2.8-.3,2.7-.4,2.8-.4,3,0,.6.2,1,.7,1,1.3,0,1.6-1.1,2.2-1.1s.5.2.5.5c0,.7-1,2.8-3.7,2.8s-2.6-1.3-2.6-2.4.5-3,.5-3.9-.1-.6-.4-.7c-.4,0-.8-.3-.8-.8,0-.8,1.2-.8,1.7-1.4.4-.5,1.2-2.4,2.4-2.4s.8.2.8.6-.3,1.4-.3,1.8h0Z"/>
      <path class="cls-2" d="M178.5,107.3c.2-1.5.6-4.5.6-5s-.3-.5-.5-.5c-.4,0-.9-.3-.9-.7,0-1,1.6-1,1.7-1.6,0-2.1,1.1-3.9,3.5-3.9s2.9,1.1,2.9,1.9-.7,1.5-1.5,1.5-1-.3-1-.5.1-.4.1-.5c0-.3-.1-.6-.5-.6s-.7.9-.7,1.7,0,.9.7.9.5-.1.8-.1c.6,0,.9.2.9.8,0,.8-.5,1.1-1,1.1-.8.2-1.4-.1-1.5.5-.2,1.1-.4,3.4-.6,5-.4,2.5-1.1,4.9-4.4,4.9s-2.6-1-2.6-1.8.7-1.5,1.6-1.5,1,.3,1,.5-.1.4-.1.5c0,.3.1.5.5.5.7,0,.8-1.4,1.1-3.3h0Z"/>
    </g>
  </g>
</svg>