<?xml version="1.0" encoding="UTF-8"?>
<svg id="_レイヤー_2" data-name="レイヤー 2" xmlns="http://www.w3.org/2000/svg" viewBox="0 0 262.8 112.27">
  <defs>
    <style>
      .cls-1 {
        fill: #f8c6cf;
      }

      .cls-1, .cls-2 {
        stroke-width: 0px;
      }

      .cls-2 {
        fill: #f9f9f9;
      }
    </style>
  </defs>
  <g id="_レイヤー_1-2" data-name="レイヤー 1">
    <g>
      <path class="cls-2" d="m9.36,105.61c0,.71.37.76,1.15.9.37.07.76.44.76.97,0,.8-.41,1.2-1.49,1.2-.59,0-1.27-.2-2.27-.2s-1.85.2-2.37.2c-.83,0-1.2-.41-1.2-1.02,0-.75.61-1.03,1.08-1.13,1.25-.25,1.54-.64,1.54-1.91,0-1.44-1.74-4.3-2.44-5.25-.63-.85-1.59-.64-1.59-1.58,0-.76.46-1.22,1.46-1.22.64,0,.63.2,1.66.2s1.44-.2,2.12-.2c.75,0,1.15.41,1.15,1,0,1.51-1.22.66-1.22,1.93,0,.64.91,2.02,1.1,2.02.15,0,1.56-1.54,1.56-2.15,0-.86-.97-.46-.97-1.54,0-.88.53-1.25,1.46-1.25.66,0,.59.2,1.63.2s1.22-.2,1.88-.2c.76,0,1.13.44,1.13,1.02,0,1.07-.91,1.02-1.68,1.71-1.17,1.08-4.1,4.1-4.35,5.47-.08.46-.1.68-.1.85Z"/>
      <path class="cls-2" d="m22.23,100.5c.49-.71,1.22-.97,1.8-.97.64,0,.98.34.98.75s-.3.61-.59,1.52c-.36,1.15-.63,2.74-.63,3.78,0,.83.25,1.1,1,1.1.22,0,.46.05.46.39,0,.36-.53,1.69-2.27,1.69-.68,0-1.41-.3-1.69-1.22-.73.76-1.69,1.22-2.93,1.22-1.59,0-3.03-1.34-3.03-3.68,0-3.61,2.22-5.64,4.32-5.64,1.05,0,1.98.34,2.59,1.05Zm-.88,2.68c0-1.08-.54-1.51-1.34-1.51-1.49,0-1.9,1.61-1.9,3.08,0,1.25.66,1.61,1.32,1.61,1.58,0,1.91-1.69,1.91-3.18Z"/>
      <path class="cls-2" d="m28.28,108.76c-.88,0-1.35-.29-1.35-.95,0-.42.37-1.37.52-2.03.32-1.44.56-3.03.56-3.66,0-.42-.2-.42-.8-.42-.37,0-.75-.19-.75-.66,0-.73,1.13-1.51,2.39-1.51s1.69.73,1.83,1.32c.81-.88,1.9-1.41,2.78-1.41,1.98,0,2.62.91,2.62,2.44,0,1.25-.52,2.76-.52,3.78,0,.78.32,1.02,1.07,1.02.24,0,.49.05.49.39s-.49,1.69-2.32,1.69c-.88,0-2.15-.22-2.15-2.1,0-1.13.66-3.07.66-4.17,0-.47-.22-.85-1.03-.85s-1.39.93-1.56,1.74c-.25,1.25-.39,2.66-.44,3.32-.02.34-.17,2.05-2,2.05Z"/>
      <path class="cls-2" d="m45.48,100.48c.49-.71,1.2-.95,1.8-.95.66,0,.93.36.93.76,0,.64-.68.81-1,3.71l-.46,4.03c-.37,3.18-2.27,4.23-5.03,4.23-2.49,0-3.74-.81-3.74-2.05s.98-1.64,1.83-1.64c1.49,0-.05,1.52,2.13,1.52,1.61,0,1.9-.86,2.18-2.54-.68.52-1.52.86-2.54.86-1.69,0-3.2-1-3.2-3.46,0-3.54,2.25-5.52,4.4-5.52,1.08,0,2.05.34,2.69,1.03Zm-.86,2.81c0-1.2-.61-1.63-1.46-1.63-1.51,0-1.9,1.37-1.9,2.76s.71,1.59,1.41,1.59c1.59,0,1.95-1.3,1.95-2.73Z"/>
      <path class="cls-2" d="m50.76,102.12c0-.42-.2-.42-.8-.42-.37,0-.75-.19-.75-.66,0-.73,1.22-1.51,2.83-1.51,1.27,0,1.66.51,1.66,1.64,0,1.03-.63,3.52-.63,4.49,0,.78.31,1.02,1.05,1.02.24,0,.49.05.49.39s-.49,1.69-2.32,1.69c-.88,0-2.22-.22-2.22-2.1,0-1.13.68-3.62.68-4.54Zm3.68-5.18c0,1.07-.91,1.85-1.91,1.85s-1.49-.37-1.49-1.27c0-1.07.91-1.85,1.93-1.85s1.47.42,1.47,1.27Z"/>
      <path class="cls-2" d="m64.62,105.66c0,.78.32,1.02,1.07,1.02.24,0,.49.05.49.39s-.49,1.69-2.32,1.69c-.88,0-2.15-.22-2.15-2.1,0-1.13.66-3.07.66-4.17,0-.47-.22-.85-1.03-.85s-1.39.93-1.56,1.74c-.25,1.25-.39,2.66-.44,3.32-.02.34-.17,2.05-2,2.05-.88,0-1.35-.29-1.35-.95,0-.42.37-1.37.52-2.03.32-1.44,1.27-5.83,1.27-7.52,0-.42-.2-.42-.8-.42-.37,0-.75-.19-.75-.66,0-.73,1.22-1.51,2.83-1.51,1.27,0,1.59.36,1.59,1.49,0,.66-.25,2.32-.42,3.22.73-.59,1.58-.93,2.29-.93,1.98,0,2.63.91,2.63,2.44,0,1.25-.53,2.76-.53,3.78Z"/>
      <path class="cls-2" d="m74.33,100.5c.49-.71,1.22-.97,1.8-.97.64,0,.98.34.98.75s-.3.61-.59,1.52c-.36,1.15-.63,2.74-.63,3.78,0,.83.25,1.1,1,1.1.22,0,.46.05.46.39,0,.36-.53,1.69-2.27,1.69-.68,0-1.41-.3-1.69-1.22-.73.76-1.69,1.22-2.93,1.22-1.59,0-3.03-1.34-3.03-3.68,0-3.61,2.22-5.64,4.32-5.64,1.05,0,1.98.34,2.59,1.05Zm-.88,2.68c0-1.08-.54-1.51-1.34-1.51-1.49,0-1.9,1.61-1.9,3.08,0,1.25.66,1.61,1.32,1.61,1.58,0,1.91-1.69,1.91-3.18Z"/>
      <path class="cls-2" d="m80.37,108.76c-.88,0-1.35-.29-1.35-.95,0-.42.37-1.37.53-2.03.32-1.44.56-3.03.56-3.66,0-.42-.2-.42-.8-.42-.37,0-.75-.19-.75-.66,0-.73,1.13-1.51,2.39-1.51s1.68.59,1.88,1.59c.58-.95,1.41-1.68,2.68-1.68,1.86,0,2.29,1.13,2.29,2.1,0,1.15-.78,2-1.76,2-.78,0-1.19-.25-1.19-.69,0-.22.17-.42.17-.85s-.24-.63-.54-.63c-.8,0-1.56,1.69-1.8,2.96-.17.97-.27,1.88-.31,2.37-.02.34-.17,2.05-2,2.05Z"/>
      <path class="cls-2" d="m95.69,100.5c.49-.71,1.22-.97,1.8-.97.64,0,.98.34.98.75s-.3.61-.59,1.52c-.36,1.15-.63,2.74-.63,3.78,0,.83.25,1.1,1,1.1.22,0,.46.05.46.39,0,.36-.53,1.69-2.27,1.69-.68,0-1.41-.3-1.69-1.22-.73.76-1.69,1.22-2.93,1.22-1.59,0-3.03-1.34-3.03-3.68,0-3.61,2.22-5.64,4.32-5.64,1.05,0,1.98.34,2.59,1.05Zm-.88,2.68c0-1.08-.54-1.51-1.34-1.51-1.49,0-1.9,1.61-1.9,3.08,0,1.25.66,1.61,1.32,1.61,1.58,0,1.91-1.69,1.91-3.18Z"/>
      <path class="cls-2" d="m113.81,103.6h-3.79l-.19,1.32c-.19,1.34-.19,1.46.44,1.59.37.08.76.44.76.97,0,.8-.41,1.2-1.49,1.2-.59,0-.78-.2-1.79-.2s-1.35.2-1.88.2c-.83,0-1.2-.42-1.2-1.03,0-.75.61-1.02,1.08-1.12.92-.19.98-.19,1.19-1.61l.64-4.59c.19-1.32.2-1.41-.73-1.59-.37-.07-.78-.44-.78-.98,0-.78.42-1.19,1.51-1.19.58,0,.78.2,1.81.2s1.32-.2,1.86-.2c.81,0,1.19.42,1.19,1.02,0,.76-.59,1-1.07,1.13-.64.19-.69.2-.9,1.61l-.15,1.05h3.79l.15-1.05c.2-1.41.17-1.42-.42-1.61-.36-.12-.76-.42-.76-.97,0-.78.44-1.19,1.49-1.19.54,0,.8.2,1.79.2s1.3-.2,1.9-.2c.81,0,1.19.42,1.19,1.02,0,.76-.61,1.07-1.08,1.15-1,.19-1,.27-1.19,1.59l-.66,4.59c-.2,1.42-.1,1.42.75,1.61.37.08.78.42.78.97,0,.78-.41,1.19-1.49,1.19-.54,0-.8-.2-1.83-.2s-1.27.2-1.86.2c-.81,0-1.19-.42-1.19-1.03,0-.75.61-1.03,1.07-1.14.66-.15.69-.25.88-1.59l.19-1.32Z"/>
      <path class="cls-2" d="m126.47,100.5c.49-.71,1.22-.97,1.8-.97.64,0,.98.34.98.75s-.3.61-.59,1.52c-.36,1.15-.63,2.74-.63,3.78,0,.83.25,1.1,1,1.1.22,0,.46.05.46.39,0,.36-.53,1.69-2.27,1.69-.68,0-1.41-.3-1.69-1.22-.73.76-1.69,1.22-2.93,1.22-1.59,0-3.03-1.34-3.03-3.68,0-3.61,2.22-5.64,4.32-5.64,1.05,0,1.98.34,2.59,1.05Zm-.88,2.68c0-1.08-.54-1.51-1.34-1.51-1.49,0-1.9,1.61-1.9,3.08,0,1.25.66,1.61,1.32,1.61,1.58,0,1.91-1.69,1.91-3.18Z"/>
      <path class="cls-2" d="m132.52,108.76c-.88,0-1.35-.29-1.35-.95,0-.42.37-1.37.52-2.03.32-1.44.56-3.03.56-3.66,0-.42-.2-.42-.8-.42-.37,0-.75-.19-.75-.66,0-.73,1.13-1.51,2.39-1.51s1.68.59,1.88,1.59c.58-.95,1.41-1.68,2.68-1.68,1.86,0,2.29,1.13,2.29,2.1,0,1.15-.78,2-1.76,2-.78,0-1.19-.25-1.19-.69,0-.22.17-.42.17-.85s-.24-.63-.54-.63c-.8,0-1.56,1.69-1.8,2.96-.17.97-.27,1.88-.31,2.37-.02.34-.17,2.05-2,2.05Z"/>
      <path class="cls-2" d="m142.28,102.12c0-.42-.2-.42-.8-.42-.37,0-.75-.19-.75-.66,0-.73,1.22-1.51,2.83-1.51,1.27,0,1.66.51,1.66,1.64,0,1.03-.75,3.57-.75,4.54,0,.47.22.85,1.03.85s1.35-.81,1.54-1.61c.25-1.07.47-2.25.47-2.83,0-.42-.2-.42-.8-.42-.37,0-.75-.19-.75-.66,0-.73,1.22-1.51,2.83-1.51,1.27,0,1.66.51,1.66,1.64,0,1.03-.63,3.44-.63,4.4,0,.83.32,1.1,1.08,1.1.24,0,.49.05.49.39,0,.36-.47,1.69-2.29,1.69-.78,0-1.61-.37-1.81-1.51-.71.95-1.76,1.51-2.78,1.51-1.98,0-2.85-.95-2.85-2.61,0-1.13.58-3.12.58-4.03Z"/>
      <path class="cls-2" d="m159.69,102.06c0-.44-.24-.58-.54-.58-1.35,0-2.57,1.83-2.86,3.1-.19.81-.25,1.64-.29,2.13-.02.34-.17,2.05-2,2.05-.88,0-1.35-.29-1.35-.95,0-.42.37-1.37.52-2.03.32-1.44,1.27-5.83,1.27-7.52,0-.42-.2-.42-.8-.42-.37,0-.75-.19-.75-.66,0-.73,1.22-1.51,2.83-1.51,1.27,0,1.59.36,1.59,1.49,0,.73-.37,3.3-.54,4.15.81-1.05,2-1.86,3.46-1.86,1.71,0,2.29.88,2.29,2.02,0,.97-1.19,2.05-2.29,2.44.1.66.64,2.78,2.29,2.78.24,0,.49.05.49.39s-.51,1.69-2.59,1.69-3.25-3.1-3.25-4.61c0-.98,2.52-.69,2.52-2.1Z"/>
      <path class="cls-2" d="m171.07,100.5c.49-.71,1.22-.97,1.8-.97.64,0,.98.34.98.75s-.3.61-.59,1.52c-.36,1.15-.63,2.74-.63,3.78,0,.83.25,1.1,1,1.1.22,0,.46.05.46.39,0,.36-.53,1.69-2.27,1.69-.68,0-1.41-.3-1.69-1.22-.73.76-1.69,1.22-2.93,1.22-1.59,0-3.03-1.34-3.03-3.68,0-3.61,2.22-5.64,4.32-5.64,1.05,0,1.98.34,2.59,1.05Zm-.88,2.68c0-1.08-.54-1.51-1.34-1.51-1.49,0-1.9,1.61-1.9,3.08,0,1.25.66,1.61,1.32,1.61,1.58,0,1.91-1.69,1.91-3.18Z"/>
      <path class="cls-2" d="m186.3,104.27c-.41,0-.64.07-.69.36l-.05.29c-.24,1.42.12,1.51,1.08,1.61.39.03.76.27.76.9,0,.85-.41,1.25-1.49,1.25-.54,0-1.12-.2-2.12-.2s-1.63.2-2.2.2c-.83,0-1.2-.41-1.2-1.02,0-.75.61-1.07,1.08-1.15.98-.17,1-.25,1.19-1.59l.64-4.59c.2-1.41.12-1.41-.73-1.61-.37-.08-.78-.42-.78-.97,0-.78.42-1.19,1.51-1.19.52,0,1.24.2,1.85.2,1.12,0,1.98-.2,2.88-.2,2.57,0,4.25,1.19,4.25,3.49,0,.78-.49,4.27-4.52,4.27-.59,0-1.08-.05-1.46-.05Zm0-4.64l-.3,2.15c-.05.37.02.52,1,.52,1.46,0,2.15-.22,2.15-2.32,0-1-.44-1.15-1.9-1.15-.66,0-.88.32-.95.8Z"/>
      <path class="cls-2" d="m192.79,105.1c0-4.06,2.78-5.66,5.2-5.66,1.96,0,3.91,1.1,3.91,3.66,0,4.06-2.76,5.66-5.18,5.66-1.98,0-3.93-1.29-3.93-3.66Zm4.93-3.56c-1.44,0-2.1,1.61-2.1,3.49,0,1.03.47,1.52,1.46,1.52,1.44,0,2.1-1.61,2.1-3.51,0-.76-.39-1.51-1.46-1.51Z"/>
      <path class="cls-2" d="m205.16,108.76c-.88,0-1.35-.29-1.35-.95,0-.42.37-1.37.52-2.03.32-1.44.56-3.03.56-3.66,0-.42-.2-.42-.8-.42-.37,0-.75-.19-.75-.66,0-.73,1.13-1.51,2.39-1.51s1.68.59,1.88,1.59c.58-.95,1.41-1.68,2.68-1.68,1.86,0,2.29,1.13,2.29,2.1,0,1.15-.78,2-1.76,2-.78,0-1.19-.25-1.19-.69,0-.22.17-.42.17-.85s-.24-.63-.54-.63c-.8,0-1.56,1.69-1.8,2.96-.17.97-.27,1.88-.31,2.37-.02.34-.17,2.05-2,2.05Z"/>
      <path class="cls-2" d="m217.96,99.65c0,.25.1.34.34.34.31,0,.85-.12,1.24-.12.63,0,.95.25.95.8,0,.71-.54,1.02-.98,1.1-.85.17-2.05-.14-2.17.78-.34,2.66-.41,2.85-.41,3.01,0,.63.2.98.71.98,1.29,0,1.59-1.1,2.25-1.1.32,0,.47.19.47.54,0,.71-.98,2.78-3.71,2.78-2.12,0-2.56-1.27-2.56-2.41s.54-3.01.54-3.95c0-.46-.12-.59-.44-.66-.37-.08-.8-.34-.8-.81,0-.8,1.19-.76,1.68-1.39.41-.51,1.17-2.37,2.4-2.37.52,0,.78.22.78.63,0,.27-.31,1.39-.31,1.85Z"/>
      <path class="cls-2" d="m222.15,107.25c.24-1.49.58-4.54.58-4.98,0-.29-.29-.46-.52-.53-.37-.08-.85-.27-.85-.71,0-.97,1.64-1.02,1.66-1.56.03-2.07,1.08-3.9,3.54-3.9s2.9,1.13,2.9,1.93c0,.93-.66,1.51-1.54,1.51s-1.02-.31-1.02-.53c0-.19.12-.36.12-.54,0-.29-.14-.64-.51-.64-.44,0-.73.88-.73,1.73,0,.73.07.95.69.95.31,0,.49-.12.83-.12.61,0,.86.25.86.76,0,.75-.52,1.05-.97,1.13-.75.15-1.42-.12-1.54.52-.2,1.12-.37,3.44-.63,5.03-.41,2.54-1.15,4.95-4.37,4.95-1.91,0-2.56-.97-2.56-1.78,0-.91.66-1.49,1.56-1.49.83,0,1,.3,1,.52,0,.19-.12.36-.12.54,0,.27.14.47.52.47.73,0,.78-1.37,1.08-3.29Z"/>
      <path class="cls-2" d="m229.18,105.1c0-4.06,2.78-5.66,5.2-5.66,1.96,0,3.91,1.1,3.91,3.66,0,4.06-2.76,5.66-5.18,5.66-1.98,0-3.93-1.29-3.93-3.66Zm4.93-3.56c-1.44,0-2.1,1.61-2.1,3.49,0,1.03.47,1.52,1.46,1.52,1.44,0,2.1-1.61,2.1-3.51,0-.76-.39-1.51-1.46-1.51Z"/>
      <path class="cls-2" d="m241.19,98.26c0-.42-.2-.42-.8-.42-.37,0-.75-.19-.75-.66,0-.73,1.22-1.51,2.83-1.51,1.27,0,1.59.36,1.59,1.49,0,1.69-1.1,7.08-1.1,8.5,0,.78.3,1.02,1.05,1.02.24,0,.49.05.49.39s-.49,1.69-2.32,1.69c-.88,0-2.22-.22-2.22-2.1,0-1.47,1.22-6.88,1.22-8.4Z"/>
      <path class="cls-2" d="m247.24,102.12c0-.42-.2-.42-.8-.42-.37,0-.75-.19-.75-.66,0-.73,1.22-1.51,2.83-1.51,1.27,0,1.66.51,1.66,1.64,0,1.03-.63,3.52-.63,4.49,0,.78.31,1.02,1.05,1.02.24,0,.49.05.49.39s-.49,1.69-2.32,1.69c-.88,0-2.22-.22-2.22-2.1,0-1.13.68-3.62.68-4.54Zm3.68-5.18c0,1.07-.91,1.85-1.91,1.85s-1.49-.37-1.49-1.27c0-1.07.91-1.85,1.93-1.85s1.47.42,1.47,1.27Z"/>
      <path class="cls-2" d="m252.52,105.1c0-4.06,2.78-5.66,5.2-5.66,1.96,0,3.91,1.1,3.91,3.66,0,4.06-2.76,5.66-5.18,5.66-1.98,0-3.93-1.29-3.93-3.66Zm4.93-3.56c-1.44,0-2.1,1.61-2.1,3.49,0,1.03.47,1.52,1.46,1.52,1.44,0,2.1-1.61,2.1-3.51,0-.76-.39-1.51-1.46-1.51Z"/>
      <path class="cls-2" d="m229.03,83.32c-12.01-2.72-19.57-14.7-16.85-26.72s14.7-19.57,26.72-16.85c12.01,2.72,19.57,14.7,16.85,26.72-2.72,12.01-14.7,19.57-26.72,16.85Zm8.85-39.11c-9.56-2.16-19.09,3.85-21.25,13.41s3.85,19.09,13.41,21.25,19.09-3.85,21.25-13.41-3.85-19.09-13.41-21.25Z"/>
      <path class="cls-2" d="m215.34,53.81l2.85-5.07c.17-.3.56-.38.83-.18l4.84,3.55c.23.17.3.49.16.74l-2.14,3.81c-.14.25-.45.36-.71.25l-5.55-2.29c-.32-.13-.45-.51-.28-.81Z"/>
      <path class="cls-2" d="m254.09,62.58l-.39-5.8c-.02-.34-.34-.59-.68-.52l-5.9,1.12c-.28.05-.48.31-.46.6l.29,4.36c.02.29.25.52.54.53l6,.32c.34.02.62-.27.6-.61Z"/>
      <path class="cls-2" d="m229.37,60.34l-7.24-3.66c-.28-.14-.39-.49-.25-.77l1.33-2.64c.13-.26.45-.38.72-.27l7.73,3.09c.32.13.46.51.28.81l-1.82,3.21c-.15.26-.48.36-.75.23Z"/>
      <path class="cls-2" d="m238.61,62.43l8.11-.19c.31,0,.56-.27.56-.58l-.07-2.95c0-.3-.24-.54-.53-.56l-8.3-.54c-.35-.02-.63.26-.61.61l.26,3.68c.02.3.28.54.58.53Z"/>
      <path class="cls-2" d="m232.85,81.84l-6.62-1.5c-.33-.08-.53-.43-.41-.75l2.35-6.58c.1-.27.38-.43.66-.36l4.98,1.13c.28.06.47.33.44.61l-.71,6.95c-.03.34-.36.57-.69.5Z"/>
      <circle class="cls-2" cx="234.31" cy="59.97" r="4.73"/>
      <path class="cls-2" d="m232.33,74.52l-2.49-.56c-.3-.07-.49-.36-.43-.66l1.99-10.7c.06-.32.37-.52.69-.45l3.3.75c.32.07.51.39.43.7l-2.81,10.51c-.08.3-.38.48-.68.41Z"/>
      <path class="cls-1" d="m31,3.19c.33,2.04.61,8.1.61,11.33,0,8.98-1.09,14.57-2.6,15.78-1.94,1.57-5.01,2.22-7.61,2.22-1.7,0-2.65-1.85-3.83-4.26-1.18-2.36-4.82-12.72-6.14-12.72-.43,0-.57.79-.57,2.13,0,6.48,2.69,10.92,2.69,12.54,0,1.39-3.12,3.05-6.71,3.05s-5.29-.83-5.81-3.05c-.52-2.22-1.04-6.94-1.04-11.15C0,11.2.47,6.15.76,4.44c.28-1.76,1.04-2.59,1.89-2.87.95-.32,4.21-.69,6.33-.69s4.77.74,6.57,3.98c1.18,2.08,5.25,11.57,5.95,11.57.43,0,.47-.56.47-1.25,0-4.81-3.5-10.5-3.5-12.68,0-1.16,3.07-2.5,6.14-2.5,3.5,0,6,1.11,6.38,3.19Z"/>
      <path class="cls-1" d="m55.53,2.64c1.04,1.57,1.23,3.1,1.23,4.53,0,1.57-.85,2.45-1.89,2.45s-3.88-.42-6.14-.42-3.5.32-3.5,1.67c0,.97.47,1.76,1.46,1.76,1.46,0,3.83-.69,5.29-.69,1.37,0,2.22.51,2.22,3.38,0,3.15-.8,4.86-1.98,4.86-1.09,0-2.13-.19-3.5-.19-2.22,0-3.21.56-3.21,1.94,0,.83.24,1.3,1.84,1.3,5.53,0,9.03-2.27,10.02-2.27s1.7,1.43,1.7,3.89c0,3.24-.38,5-1.8,5.69-1.37.69-6.99,2.5-13,2.5s-7.37-.65-7.89-1.94c-.66-1.71-1.47-6.75-1.47-12.81,0-8.88.9-13.97,1.37-15.45.47-1.43,3.73-2.41,10.49-2.41,4.54,0,7.42.19,8.74,2.22Z"/>
      <path class="cls-1" d="m95.13.79c4.35,0,6,.97,7.47,3.89,1.42,2.91,1.84,5.41,1.84,11.29,0,8.28-4.44,16.52-12.85,16.52-5.67,0-6.9-3.1-7.37-3.1s-2.98,3.65-9.26,3.65-12.48-5.27-12.48-13.37,1.98-15.31,4.3-16.75c2.27-1.39,6.85-2.41,8.13-2.41s2.74.92,2.74,2.87-3.02,8.19-3.02,16.38c0,3.75.8,4.35,1.89,4.35,1.61,0,2.6-2.36,2.6-6.29s-.43-5.97-.43-7.73c0-1.3,2.27-2.59,6.95-2.59,2.84,0,3.69,1.3,3.69,2.78s-.47,5.14-.47,8.47.66,5,1.7,5,2.41-1.3,2.41-6.01c0-9.58-3.64-13.09-3.64-14.9,0-.97,1.94-2.04,5.81-2.04Z"/>
      <path class="cls-1" d="m151.56,16.56c0,11.66-7.14,16.47-16.59,16.47-5.15,0-9.4-1.76-10.07-3.38-.85-2.13-1.42-6.29-1.42-11.89s.57-11.38,1.04-12.91.76-2.17,2.36-2.78c1.61-.6,4.11-1.39,7.99-1.39,9.26,0,16.68,4.21,16.68,15.87Zm-16.78-3.75c0,4.21.05,8.56.14,9.25.14.97.61,1.25,1.23,1.25,1.7,0,3.83-3.19,3.83-6.89s-1.94-5.46-3.4-5.46c-1.09,0-1.8.42-1.8,1.85Z"/>
      <path class="cls-1" d="m181.75,10.41c0,6.71-5.34,9.44-5.34,9.44,0,0,1.18.28,2.55,2.08,1.51,2.04,1.98,4.53,3.59,5,.61.19.9.42.9,1.25,0,2.27-4.63,4.35-8.36,4.35s-3.64-3.01-5.2-6.15c-.99-1.99-1.46-2.22-2.27-2.22s-1.32.05-1.32,1.3c0,2.31.76,3.33.76,4.63,0,1.53-4.92,3.1-8.27,3.1-2.69,0-3.73-4.77-3.73-12.49,0-8.37,1.04-16.56,3.54-18.04,2.6-1.53,5.86-2.5,10.21-2.5,7.61,0,12.95,3.42,12.95,10.27Zm-15.83,2.36c0,1.76.57,1.94,1.51,1.94,1.09,0,2.98-1.16,2.98-3.24,0-1.57-.76-2.31-2.17-2.31-1.56,0-2.32,1.43-2.32,3.61Z"/>
      <path class="cls-1" d="m199.71,2.59c0,1.39-1.51,9.85-1.51,16.29s1.18,9.16,1.18,11.01-4.3,2.96-7.99,2.96-4.54-1.2-4.54-2.17.38-2.08.38-6.11-.85-10.09-.85-14.62,1.23-7.17,3.26-8.05c2.17-.93,6.24-1.57,7.51-1.57,1.65,0,2.55.93,2.55,2.27Z"/>
      <path class="cls-1" d="m233.88,5.04c0,2.82-.9,10.22-3.21,16.61-2.36,6.43-3.83,8.28-6.47,9.53-2.69,1.25-6.24,1.67-7.75,1.67-2.03,0-4.21-1.67-6-4.63-2.32-3.79-5.53-11.98-5.53-19.62,0-2.78,2.41-3.93,5.58-5.46,2.6-1.25,4.82-1.34,5.48-1.34.71,0,1.7.6,1.7,1.94s-.47,9.16-.47,12.95,1.09,5.23,1.7,5.23c.57,0,2.88-3.61,2.88-9.39,0-5.04-.94-6.75-.94-7.96s7.56-3.98,9.83-3.98,3.21,1.67,3.21,4.44Z"/>
      <path class="cls-1" d="m259.26,2.64c1.04,1.57,1.23,3.1,1.23,4.53,0,1.57-.85,2.45-1.89,2.45s-3.88-.42-6.14-.42-3.5.32-3.5,1.67c0,.97.47,1.76,1.46,1.76,1.46,0,3.83-.69,5.29-.69,1.37,0,2.22.51,2.22,3.38,0,3.15-.8,4.86-1.98,4.86-1.09,0-2.13-.19-3.5-.19-2.22,0-3.21.56-3.21,1.94,0,.83.24,1.3,1.84,1.3,5.53,0,9.03-2.27,10.02-2.27s1.7,1.43,1.7,3.89c0,3.24-.38,5-1.8,5.69-1.37.69-6.99,2.5-13,2.5s-7.37-.65-7.89-1.94c-.66-1.71-1.47-6.75-1.47-12.81,0-8.88.9-13.97,1.37-15.45.47-1.43,3.73-2.41,10.49-2.41,4.54,0,7.42.19,8.74,2.22Z"/>
      <path class="cls-1" d="m14.39,65.51c-.61,0-2.28-1.55-2.28-2.41,0-1.12,2.06-1.85,4.92-5.03,2.68-2.97,3.25-4.94,4.13-7.31.31-.82.66-1.33,1.41-1.33,1.49,0,4.44,3.27,4.44,5.46s-4.09,5.07-4.09,5.07c.35.56,1.01,1.93,1.01,3.74,0,6.02-5.01,10.23-11.86,10.23S.73,69.86.73,64.65c0-5.68,5.62-8.08,5.62-8.08-1.14-.73-3.25-2.62-3.25-5.85,0-4.34,4.09-7.27,9.27-7.27s7.91,2.62,7.91,4.13c0,2.28-2.77,5.37-4.13,5.37-.75,0-1.01-.64-1.32-1.38-.35-.86-.79-2.11-2.15-2.11-.79,0-1.36.77-1.36,1.51,0,1.38,1.93,2.54,3.73,3.05.83.21,1.71.26,1.71,1.29,0,1.29-1.27,3.4-3.38,3.65-2.11.26-3.91,1.98-3.91,4.69,0,2.41,1.67,4.04,3.87,4.04s3.73-2.06,3.73-4.21c0,0-2.06,2.02-2.68,2.02Z"/>
      <path class="cls-1" d="m61.34,58.73c0,11.66-7.14,16.47-16.59,16.47-5.15,0-9.4-1.76-10.07-3.38-.85-2.13-1.42-6.29-1.42-11.89s.57-11.38,1.04-12.91.76-2.17,2.36-2.78c1.61-.6,4.11-1.39,7.99-1.39,9.26,0,16.68,4.21,16.68,15.87Zm-16.78-3.75c0,4.21.05,8.56.14,9.25.14.97.61,1.25,1.23,1.25,1.7,0,3.83-3.19,3.83-6.89s-1.94-5.46-3.4-5.46c-1.09,0-1.8.42-1.8,1.85Z"/>
      <path class="cls-1" d="m92.49,52.58c0,6.71-5.34,9.44-5.34,9.44,0,0,1.18.28,2.55,2.08,1.51,2.04,1.98,4.53,3.59,5,.61.19.9.42.9,1.25,0,2.27-4.63,4.35-8.36,4.35s-3.64-3.01-5.2-6.15c-.99-1.99-1.46-2.22-2.27-2.22s-1.32.05-1.32,1.3c0,2.31.76,3.33.76,4.63,0,1.53-4.91,3.1-8.27,3.1-2.69,0-3.73-4.77-3.73-12.49,0-8.37,1.04-16.56,3.54-18.04,2.6-1.53,5.86-2.5,10.21-2.5,7.61,0,12.95,3.42,12.95,10.27Zm-15.83,2.36c0,1.76.57,1.94,1.51,1.94,1.09,0,2.98-1.16,2.98-3.24,0-1.57-.76-2.31-2.17-2.31-1.56,0-2.32,1.43-2.32,3.61Z"/>
      <path class="cls-1" d="m117.96,44.8c1.04,1.57,1.23,3.1,1.23,4.53,0,1.57-.85,2.45-1.89,2.45s-3.88-.42-6.14-.42-3.5.32-3.5,1.67c0,.97.47,1.76,1.46,1.76,1.46,0,3.83-.69,5.29-.69,1.37,0,2.22.51,2.22,3.38,0,3.15-.8,4.86-1.98,4.86-1.09,0-2.13-.19-3.5-.19-2.22,0-3.21.56-3.21,1.94,0,.83.24,1.3,1.84,1.3,5.53,0,9.03-2.27,10.02-2.27s1.7,1.43,1.7,3.89c0,3.24-.38,5-1.8,5.69-1.37.69-6.99,2.5-13,2.5s-7.37-.65-7.89-1.94c-.66-1.71-1.47-6.75-1.47-12.81,0-8.88.9-13.97,1.37-15.45.47-1.43,3.73-2.41,10.49-2.41,4.54,0,7.42.19,8.74,2.22Z"/>
      <path class="cls-1" d="m154.06,57.3c2.98,9.25,3.02,13.56,3.02,15.17s-1.42,2.08-3.4,2.08-4.25-.09-6.14-.37c-1.84-.28-2.46-1.06-2.46-3.19,0-.79.14-1.57.14-2.27,0-.74-.38-1.2-1.18-1.2-2.22,0-5.01.37-5.01,2.41,0,1.02.28,1.8.28,3.19s-.76,1.39-1.75,1.62c-2.36.51-5.62.65-7.47.65-1.28,0-2.55-1.06-2.55-3.15s.14-7.77,2.93-16.15c2.65-8,4.02-11.57,6.14-12.4,2.08-.83,5.81-1.3,8.46-1.3,2.5,0,6,5.69,8.98,14.9Zm-14.51,3.19c0,.6.09.79.9.79,1.7,0,3.78-.69,3.78-1.25,0-1.62-2.03-5.32-2.84-5.32-.71,0-1.84,5-1.84,5.78Z"/>
      <path class="cls-1" d="m177.22,44.67c.71,1.16,5.01,11.66,5.01,11.66,0,0,.99-4.67,1.84-7.87,1.13-4.35,2.08-5.46,4.77-5.46,4.35,0,7.32.93,8.41,3.24,1.04,2.27,4.49,13.79,4.49,22.11,0,6.15-7.28,6.43-9.07,6.43s-2.27-.74-2.27-1.62.9-3.38.9-6.99-.71-8.1-1.61-8.1-2.55,8.24-2.55,12.03c0,3.29-1.84,3.61-3.69,3.61-3.26,0-5.62-.6-5.81-2.54-.43-4.67-1.84-11.01-3.07-11.01s-1.18,3.28-1.18,6.34c0,5,.85,5.78.85,7.22,0,1.34-1.7,1.94-4.16,1.94-5.1,0-8.36-1.34-8.36-4.67,0-4.67,1.8-18.78,2.93-22.72.95-3.33,1.13-3.98,3.12-4.53,1.94-.51,4.96-.88,6.47-.88,1.32,0,2.22.6,2.98,1.8Z"/>
    </g>
  </g>
</svg>